<svg height="400" viewBox="0 0 400 400" width="400" xmlns="http://www.w3.org/2000/svg"><g fill="none" fill-rule="evenodd"><g transform="translate(65 113)"><path d="m217.8456 109.3955c0 60.04-48.676 108.714-108.716 108.714-60.041 0-108.713-48.674-108.713-108.714 0-60.043 48.672-108.715 108.713-108.715 60.04 0 108.716 48.672 108.716 108.715" fill="#ffd21f"/><path d="m81.2274 88.8574c0 4.344-3.554 7.897-7.897 7.897h-27.377c-4.344 0-7.898-3.553-7.898-7.897 0-4.343 3.554-7.897 7.898-7.897h27.377c4.343 0 7.897 3.554 7.897 7.897" fill="#403408"/><path d="m180.2059 88.8574c0 4.344-3.554 7.897-7.897 7.897h-27.377c-4.344 0-7.898-3.553-7.898-7.897 0-4.343 3.554-7.897 7.898-7.897h27.377c4.343 0 7.897 3.554 7.897 7.897" fill="#403408"/><path d="m46.8768 140.4531h124.508" stroke="#403408" stroke-linecap="round" stroke-width="9.477"/></g><g fill="#2fa7bf" transform="translate(261 -378)"><path d="m.6571 504.0449v-.18c0-1.736.599-2.875 2.037-4.433l14.921-16.479h-12.704c-2.037 0-3.715-1.617-3.715-3.654 0-2.039 1.678-3.717 3.715-3.717h19.954c2.576 0 4.435 1.498 4.435 3.656v.18c0 1.738-.6 2.877-2.039 4.434l-14.979 16.478h13.302c2.038 0 3.716 1.678 3.716 3.715s-1.678 3.656-3.716 3.656h-20.493c-2.577 0-4.434-1.498-4.434-3.656"/><path d="m39.8133 464.8887v-.18c0-1.736.599-2.875 2.037-4.433l14.921-16.479h-12.704c-2.037 0-3.715-1.617-3.715-3.654 0-2.039 1.678-3.717 3.715-3.717h19.954c2.576 0 4.435 1.498 4.435 3.656v.18c0 1.738-.6 2.877-2.039 4.434l-14.979 16.478h13.302c2.038 0 3.716 1.678 3.716 3.715s-1.678 3.656-3.716 3.656h-20.493c-2.577 0-4.434-1.498-4.434-3.656"/></g></g></svg>