<svg height="112" viewBox="0 0 95 112" width="95" xmlns="http://www.w3.org/2000/svg"><g fill="none" fill-rule="evenodd"><ellipse cx="43.503" cy="68.317" fill="#ffd21f" rx="43.143" ry="43.671"/><g fill="#333"><ellipse cx="30.389" cy="54.734" rx="6.776" ry="12.935"/><ellipse cx="56.011" cy="54.734" rx="6.776" ry="12.935"/><ellipse cx="43.503" cy="87.674" rx="4.69" ry="4.748"/></g><g fill-rule="nonzero"><path d="m73.76 22.743c-.001 1.43-1.074 2.592-2.396 2.592-1.321 0-2.396-1.162-2.396-2.592-.012-.747-.02-1.197-.02-1.363 0-1.675.257-3.05.774-4.136.51-1.079 1.533-2.297 3.072-3.653 1.54-1.348 2.46-2.234 2.76-2.656a3.738 3.738 0 0 0 .698-2.193c0-1.1-.41-2.047-1.235-2.83-.817-.789-1.923-1.182-3.315-1.182-1.342 0-2.46.414-3.366 1.238-.9.83-1.52 2.09-1.859 3.784-.152 1.298-1.176 2.302-2.416 2.302-1.344 0-2.434-1.178-2.434-2.633 0-.114.006-.223.019-.333.14-2.428 1.092-4.481 2.863-6.176 1.77-1.696 4.096-2.54 6.97-2.54 3.03 0 5.438.859 7.226 2.567 1.789 1.709 2.684 3.694 2.684 5.97a6.953 6.953 0 0 1 -.983 3.569c-.658 1.12-2.058 2.65-4.212 4.586-1.11.997-1.8 1.806-2.07 2.414-.268.609-.389 1.694-.364 3.265zm-2.396 4.533c1.506 0 2.725 1.321 2.725 2.95s-1.22 2.948-2.725 2.948-2.724-1.32-2.724-2.949c0-1.628 1.22-2.95 2.724-2.95z" fill="#4183d7"/><path d="m89.81 34.571c-.002.948-.716 1.718-1.595 1.718s-1.594-.77-1.594-1.718a86.458 86.458 0 0 1 -.013-.903c0-1.11.171-2.021.514-2.741.34-.715 1.02-1.522 2.044-2.42 1.025-.894 1.637-1.48 1.837-1.76.31-.44.464-.927.464-1.454 0-.729-.273-1.357-.821-1.875-.544-.523-1.28-.784-2.206-.784-.893 0-1.637.275-2.24.82-.599.55-1.011 1.385-1.236 2.508-.101.86-.782 1.526-1.607 1.526-.894 0-1.62-.78-1.62-1.745a1.9 1.9 0 0 1 .013-.22c.093-1.61.727-2.97 1.904-4.094 1.178-1.124 2.726-1.682 4.638-1.682 2.015 0 3.617.568 4.807 1.7 1.19 1.133 1.786 2.448 1.786 3.957 0 .83-.217 1.622-.655 2.365-.437.742-1.369 1.756-2.801 3.04-.74.66-1.199 1.196-1.378 1.598-.178.404-.258 1.124-.242 2.164zm-1.595 3.004c1.002 0 1.813.876 1.813 1.955 0 1.08-.811 1.954-1.813 1.954-1.001 0-1.812-.874-1.812-1.954 0-1.079.81-1.955 1.812-1.955z" fill="#29b99a"/><path d="m50.772 25.57c-.001 1.098-.854 1.99-1.903 1.99-1.05 0-1.903-.892-1.903-1.99-.01-.574-.015-.919-.015-1.046 0-1.286.204-2.342.614-3.176.405-.827 1.217-1.762 2.44-2.804 1.222-1.035 1.953-1.714 2.192-2.038.37-.51.553-1.073.553-1.684 0-.844-.325-1.571-.98-2.172-.65-.606-1.527-.908-2.632-.908-1.067 0-1.954.318-2.674.95-.715.638-1.208 1.604-1.476 2.905-.12.997-.934 1.768-1.919 1.768-1.067 0-1.932-.905-1.932-2.022 0-.087.004-.171.014-.255.112-1.864.868-3.44 2.274-4.741 1.406-1.303 3.253-1.95 5.535-1.95 2.406 0 4.318.659 5.739 1.97 1.42 1.312 2.13 2.836 2.13 4.583 0 .96-.258 1.88-.78 2.74-.523.86-1.634 2.034-3.344 3.52-.883.765-1.43 1.387-1.645 1.853-.212.468-.308 1.301-.288 2.507zm-1.903 3.48c1.195 0 2.163 1.014 2.163 2.264s-.968 2.264-2.163 2.264-2.163-1.014-2.163-2.264.968-2.264 2.163-2.264z" fill="#f16661"/></g></g></svg>