<svg height="400" viewBox="0 0 400 400" width="400" xmlns="http://www.w3.org/2000/svg"><g fill="none" fill-rule="evenodd"><g transform="translate(-535 82)"><path d="m785.1199 108.8379c0 60.04-48.674 108.714-108.715 108.714-60.04 0-108.714-48.674-108.714-108.714 0-60.042 48.674-108.715 108.714-108.715 60.041 0 108.715 48.673 108.715 108.715" fill="#ffd21f"/><g stroke="#403408" stroke-linecap="round"><path d="m644.5242 84.0654-25.894 14.676" stroke-linejoin="round" stroke-width="13.76"/><path d="m734.3835 98.7422-25.497-14.808" stroke-linejoin="round" stroke-width="13.602"/><path d="m637.446 152.8037s8.235-28.825 39.133-28.825 38.785 28.6 38.785 28.6" stroke-width="11.056"/></g></g><g transform="translate(-1680 214)"><path d="m1990.281 72.7207-12.094-49.894c-1.127-4.65 1.729-9.333 6.378-10.46l49.894-12.094c4.65-1.127 9.333 1.728 10.461 6.379l12.093 49.893c1.127 4.65-1.728 9.333-6.378 10.46l-49.894 12.095c-4.649 1.127-9.333-1.73-10.46-6.379" fill="#29b99a"/><g fill="#5e5e5e"><path d="m2034.573 24.8018c-2.943.713-5.907-1.094-6.62-4.037-.714-2.942 1.094-5.906 4.037-6.62 2.942-.713 5.906 1.094 6.619 4.037.714 2.942-1.094 5.906-4.036 6.62"/><path d="m2042.0876 55.8037c-2.943.713-5.907-1.095-6.62-4.037s1.094-5.906 4.037-6.62c2.942-.713 5.906 1.094 6.62 4.037.713 2.942-1.095 5.906-4.037 6.62"/><path d="m2015.1345 29.5137c-2.943.713-5.907-1.094-6.62-4.037-.713-2.942 1.094-5.906 4.037-6.62 2.942-.713 5.906 1.094 6.62 4.037.713 2.942-1.095 5.906-4.037 6.62"/><path d="m2022.6492 60.5156c-2.942.713-5.906-1.095-6.62-4.037-.713-2.943 1.094-5.907 4.037-6.62 2.942-.713 5.906 1.094 6.62 4.037.713 2.942-1.095 5.906-4.037 6.62"/><path d="m1995.696 34.2256c-2.942.713-5.906-1.095-6.62-4.037-.713-2.942 1.094-5.906 4.037-6.62 2.942-.713 5.906 1.094 6.62 4.037.713 2.942-1.095 5.906-4.037 6.62"/><path d="m2003.2107 65.2275c-2.942.713-5.906-1.095-6.62-4.037-.713-2.943 1.095-5.907 4.037-6.62 2.942-.714 5.906 1.094 6.62 4.037.713 2.942-1.094 5.906-4.037 6.62"/></g><path d="m1922.8132 89.2939-36.302-36.302c-3.383-3.383-3.383-8.868 0-12.251l36.302-36.301c3.384-3.384 8.868-3.384 12.252 0l36.302 36.301c3.383 3.383 3.383 8.868 0 12.251l-36.302 36.302c-3.384 3.384-8.868 3.384-12.252 0" fill="#87d37c"/><g fill="#5e5e5e"><path d="m1930.3777 30.626c-2.142 2.142-5.613 2.142-7.754 0-2.142-2.141-2.142-5.612 0-7.754 2.141-2.141 5.612-2.141 7.754 0 2.141 2.142 2.141 5.613 0 7.754"/><path d="m1952.9333 53.1826c-2.141 2.141-5.612 2.141-7.754 0-2.141-2.142-2.141-5.612 0-7.754 2.142-2.142 5.613-2.142 7.754 0 2.142 2.142 2.142 5.612 0 7.754"/><path d="m1912.699 48.3047c-2.142 2.142-5.613 2.142-7.754 0-2.142-2.141-2.142-5.612 0-7.754 2.141-2.141 5.612-2.141 7.754 0 2.141 2.142 2.141 5.613 0 7.754"/><path d="m1935.2546 70.8613c-2.141 2.141-5.612 2.141-7.754 0-2.141-2.142-2.141-5.612 0-7.754 2.142-2.141 5.613-2.141 7.754 0 2.142 2.142 2.142 5.612 0 7.754"/></g></g></g></svg>