<svg height="400" viewBox="0 0 400 400" width="400" xmlns="http://www.w3.org/2000/svg" xmlns:xlink="http://www.w3.org/1999/xlink"><mask id="a" fill="#fff"><path d="m84.3338 11.5434902c-9.3285026 8.2412109-22.6425299 14.9715098-41.2488 14.9715098-19.564336 0-33.1877189-7.3844476-42.4622-16.1311554v-10.1972446h83.711z" fill="#fff" fill-rule="evenodd"/></mask><g fill="none" fill-rule="evenodd"><g transform="translate(61 82)"><path d="m218.0438 109.8389c0 60.04-48.674 108.715-108.714 108.715-60.042 0-108.715-48.675-108.715-108.715 0-60.042 48.673-108.715 108.715-108.715 60.04 0 108.714 48.673 108.714 108.715" fill="#ffd21f"/><g fill="#403408"><path d="m59.8407 111.418c-4.344 0-7.897-3.554-7.897-7.896v-18.955c0-4.342 3.553-7.896 7.897-7.896s7.897 3.554 7.897 7.896v18.955c0 4.342-3.553 7.896-7.897 7.896"/><path d="m158.8192 111.418c-4.344 0-7.897-3.554-7.897-7.896v-18.955c0-4.342 3.553-7.896 7.897-7.896s7.897 3.554 7.897 7.896v18.955c0 4.342-3.553 7.896-7.897 7.896"/><path d="m53.577 137.0879c-2.356.007-3.981 2.393-3.088 4.573 4.641 11.329 20.144 39.854 58.597 39.854 38.435 0 54.288-28.722 59.075-40.152.917-2.191-.722-4.603-3.098-4.597z"/></g></g><path d="m84.3338 22.8906c0 12.539-18.739 22.704-41.855 22.704-23.117 0-41.856-10.165-41.856-22.704s18.739-22.704 41.856-22.704c23.116 0 41.855 10.165 41.855 22.704" fill="#ff5a58" mask="url(#a)" transform="translate(127 237)"/><g transform="translate(86 147)"><path d="m84.119 19.6953c1.934 0 5.39.27 5.39 4.02.096 3.955 1.032 8.403 2.809 13.393 7.655 21.483 18.244 24.741 35.839 24.137 6.34-.218 14.007-.112 19.368-4.552 4.917-4.073 8.43-10.931 11.743-22.93 1.132-4.098 1.742-7.81 1.829-11.161h.001c.206-2.482 2.839-3.872 4.848-4.576 1.373-.48 2.288-1.78 2.288-3.234v-6.211c0-1.549-.997-2.923-2.471-3.4-6.59-2.128-18.628-5.66-40.556-5.081-17.81.47-35.065 3.566-41.088 3.566s-23.278-3.096-41.088-3.566c-21.928-.579-33.965 2.953-40.556 5.081-1.473.477-2.471 1.851-2.471 3.4v6.21c0 1.455.915 2.754 2.288 3.235 2.009.704 4.642 2.094 4.848 4.576h.001c.087 3.351.698 7.063 1.829 11.161 3.314 11.998 6.826 18.857 11.744 22.93 5.36 4.44 13.027 4.334 19.367 4.552 17.594.603 28.184-2.654 35.839-24.137 1.778-4.99 2.713-9.438 2.81-13.393-.001-3.75 3.456-4.02 5.389-4.02" fill="#2f2f2f"/><path d="m42.7616 7.4922c-16.8-.611-34.415-.201-26.661 24.302 7.01 22.155 13.448 21.589 24.302 22.06 10.853.472 21.737-.109 28.548-19.228 7.247-20.338-1.916-26.249-26.189-27.134" fill="#2fa7bf"/><path d="m125.4764 7.4922c16.801-.611 34.415-.201 26.661 24.302-7.011 22.155-13.448 21.589-24.302 22.06-10.853.472-21.737-.109-28.548-19.228-7.247-20.338 1.916-26.249 26.189-27.134" fill="#2fa7bf"/><path d="m258.9002 70.5088-28.346-9.217-28.4-9.234-32.208 22.788 31.47 76.061 70.138-42.957z" fill="#32d6af"/><path d="m169.9383 74.8711 101.597 33.139-12.635-37.501-56.487-18.367z" fill="#25997a"/><path d="m170.0204 74.6162 33.879 11.007-2.444 65.165z" fill="#5be8c0"/><path d="m271.6043 107.6465-33.873-11.022-36.348 54.14z" fill="#2baa85"/><path d="m202.7196 51.3145 1.298 33.946-33.81-10.993z" fill="#32d6af"/><path d="m259.1141 69.8516-21.265 26.41-33.832-11.001-1.336-33.831z" fill="#1bc195"/><path d="m210.4002 86.8828c-2.113-2.287-2.973-5.986-3.315-8.297-.117-.783-1.069-1.093-1.623-.527-1.636 1.667-4.506 4.153-7.562 4.76-.749.148-1.036 1.033-.519 1.593 2.115 2.288 2.974 5.988 3.317 8.297.116.784 1.067 1.094 1.623.528 1.636-1.667 4.506-4.153 7.561-4.76.748-.149 1.037-1.033.518-1.594" fill="#fff"/><path d="m202.5877 51.7197 56.463 18.325 12.554 37.602-70.221 43.118-31.302-76.11z" stroke="#777" stroke-linecap="round" stroke-linejoin="round" stroke-width="2.611"/></g></g></svg>