<svg height="400" viewBox="0 0 400 400" width="400" xmlns="http://www.w3.org/2000/svg"><g fill="none" fill-rule="evenodd"><g transform="translate(-391 -434)"><path d="m680.12 622.3955c0 60.04-48.676 108.714-108.716 108.714-60.041 0-108.713-48.674-108.713-108.714 0-60.043 48.672-108.715 108.713-108.715 60.04 0 108.716 48.672 108.716 108.715" fill="#f7a52d"/><path d="m521.9159 629.0938c-4.344 0-7.897-3.554-7.897-7.897v-18.954c0-4.343 3.553-7.897 7.897-7.897s7.897 3.554 7.897 7.897v18.954c0 4.343-3.553 7.897-7.897 7.897" fill="#403408"/><path d="m620.8944 629.0938c-4.343 0-7.896-3.554-7.896-7.897v-18.954c0-4.343 3.553-7.897 7.896-7.897 4.344 0 7.897 3.554 7.897 7.897v18.954c0 4.343-3.553 7.897-7.897 7.897" fill="#403408"/><path d="m521.9159 653.4531h98.979" stroke="#403408" stroke-linecap="round" stroke-width="9.477"/></g><g transform="translate(242 193)"><path d="m40.935 23.184h21.503v-10.752h-21.503z" fill="#777"/><path d="m36.405 12.432h30.565v-12.351h-30.565z" fill="#777"/><path d="m.3632 68.9639c0-28.274 22.921-51.195 51.195-51.195 28.275 0 51.196 22.921 51.196 51.195 0 28.275-22.921 51.196-51.196 51.196-28.274 0-51.195-22.921-51.195-51.196" fill="#ffd217"/><path d="m15.3612 105.2295c20.418 20.416 52.407 19.991 72.4-.001 19.993-19.993 20.418-51.983.001-72.4z" fill="#ffd217"/><path d="m12.2255 68.9639c0-21.723 17.61-39.333 39.333-39.333 21.724 0 39.333 17.61 39.333 39.333 0 21.724-17.609 39.334-39.333 39.334-21.723 0-39.333-17.61-39.333-39.334" fill="#fff"/><g stroke="#777" stroke-linecap="round" stroke-linejoin="round"><path d="m.3632 68.9639c0-28.274 22.921-51.195 51.195-51.195 28.275 0 51.196 22.921 51.196 51.195 0 28.275-22.921 51.196-51.196 51.196-28.274 0-51.195-22.921-51.195-51.196z" stroke-width="3.334"/><path d="m50.66 43v-4" stroke-width="3"/><path d="m50.66 101v-3" stroke-width="3"/><path d="m70.993 50.1768 2.773-2.773" stroke-width="2.942"/><path d="m72.2167 88.8672 2.773 2.773" stroke-width="2.942"/><path d="m78.16 68.5h3" stroke-width="3"/><path d="m32.2294 50.1768-2.773-2.773" stroke-width="2.942"/><path d="m31.0057 88.8672-2.774 2.773" stroke-width="2.942"/><g stroke-width="3"><path d="m23.16 68.5h-4"/><path d="m50.66 53v17.5h19.5"/></g></g></g></g></svg>