<svg height="520" viewBox="0 0 520 520" width="520" xmlns="http://www.w3.org/2000/svg"><g fill="none" fill-rule="evenodd"><path d="m825.0916 757.1172s37.672 6.295 76.331-8.13c38.66-14.425 61.635-45.118 61.635-45.118" stroke="#c14040" stroke-linecap="round" stroke-width="15" transform="translate(-473 -447)"/><g transform="translate(-285 -315)"><path d="m665.0663 603.7852c-1.874 60.012-52.042 107.143-112.053 105.271-60.011-1.873-107.142-52.041-105.268-112.051 1.872-60.013 52.038-107.144 112.048-105.271 60.012 1.872 107.146 52.038 105.273 112.051" fill="#ffd21f"/><path d="m507.3934 619.9541c-2.071.006-3.5 2.104-2.715 4.021 4.08 9.958 17.708 35.035 51.513 35.035 33.788 0 47.723-25.25 51.931-35.297.807-1.927-.634-4.048-2.722-4.042z" fill="#fff"/><g stroke-linecap="round"><path d="m507.3934 619.9541c-2.071.006-3.5 2.104-2.715 4.021 4.08 9.958 17.708 35.035 51.513 35.035 33.788 0 47.723-25.25 51.931-35.297.807-1.927-.634-4.048-2.722-4.042z" stroke="#fff" stroke-width="9.719"/><path d="m530.5945 635.5801c-9.596-1.173-19.145-3.465-27.78-7.913" stroke="#f2f2f2" stroke-width="4.365"/><path d="m608.1346 628.8291c-7.137 2.937-14.627 4.937-22.231 6.215" stroke="#f2f2f2" stroke-width="4.365"/></g><path d="m496.1072 612.6865c0 8.737-7.084 15.818-15.819 15.818-8.74 0-15.82-7.081-15.82-15.818s7.08-15.819 15.82-15.819c8.735 0 15.819 7.082 15.819 15.819" fill="#ff758a"/><path d="m648.3417 612.6865c0 8.737-7.083 15.818-15.818 15.818-8.74 0-15.82-7.081-15.82-15.818s7.08-15.819 15.82-15.819c8.735 0 15.818 7.082 15.818 15.819" fill="#ff758a"/><g stroke-linecap="round"><g stroke-linejoin="round"><path d="m498.4266 565.1855 26.098 14.807-25.894 14.675" stroke="#403408" stroke-width="13.76"/><path d="m614.3836 594.6689-25.497-14.808 25.298-14.675" stroke="#403408" stroke-width="13.602"/><path d="m666.495 421.1436-14.309 14.309" stroke="#87d37c" stroke-width="9.75"/><path d="m435.6277 452.3662-14.309 14.309" stroke="#4183d7" stroke-width="9.75"/><path d="m528.3123 425.334v20.236" stroke="#9b59b6" stroke-width="9.75"/><path d="m598.0311 472.5537 14.309 14.309" stroke="#f7b72d" stroke-width="9.75"/><path d="m351.6395 467.3535 14.309 14.309" stroke="#f7b72d" stroke-width="9.75"/><path d="m753.1952 557.5166 14.31-14.309" stroke="#f7b72d" stroke-width="9.75"/><path d="m763.3134 475.4063h-20.236" stroke="#9b59b6" stroke-width="9.75"/><path d="m677.9833 543.208 14.31 14.309" stroke="#4183d7" stroke-width="9.75"/><path d="m358.7938 536.0537 14.31 14.309" stroke="#87d37c" stroke-width="9.75"/></g><path d="m316.1541 711.2598s22.638-49.2 76.704-56.887c51.026-7.254 73.278 21.171 108.536 25.82s58.178-15.659 58.178-15.659" stroke="#ed6060" stroke-width="15"/></g></g></g></svg>