<svg height="400" viewBox="0 0 400 400" width="400" xmlns="http://www.w3.org/2000/svg" xmlns:xlink="http://www.w3.org/1999/xlink"><linearGradient id="a" x1="50%" x2="50%" y1="0%" y2="66.699105%"><stop offset="0" stop-color="#75b68b"/><stop offset=".395454545" stop-color="#a6c168"/><stop offset="1" stop-color="#fdd236"/></linearGradient><g fill="none" fill-rule="evenodd" transform="translate(-1446 -1500)"><path d="m1515 1692.715c0 60.04 48.674 108.713 108.715 108.713 60.04 0 108.714-48.673 108.714-108.713 0-60.042-48.674-108.715-108.714-108.715-60.041 0-108.715 48.673-108.715 108.715" fill="url(#a)"/><g stroke="#403408" stroke-linecap="round" transform="translate(252 1582)"><path d="m1314.4266 86.2588 26.098 14.807-25.894 14.675" stroke-linejoin="round" stroke-width="13.76"/><path d="m1430.3837 115.7422-25.497-14.808 25.298-14.675" stroke-linejoin="round" stroke-width="13.602"/><path d="m1333.4462 169.8037s8.235-28.825 39.133-28.825 38.785 28.6 38.785 28.6" stroke-width="11.056"/></g><g transform="translate(1585 1582)"><path d="m22.5214 56.0684c-.043 6.078-5.009 10.973-11.09 10.93-6.081-.044-10.974-5.008-10.931-11.087.042-6.082 11.201-26.765 11.201-26.765s10.863 20.839 10.82 26.922z" fill="#2fa7bf"/><path d="m137.536 137.184h21.503v-10.752h-21.503z" fill="#777"/><path d="m133.005 126.432h30.565v-12.35h-30.565z" fill="#aaa"/><path d="m96.9637 183.7051c0-28.274 22.921-51.195 51.195-51.195 28.275 0 51.196 22.921 51.196 51.195s-22.921 51.195-51.196 51.195c-28.274 0-51.195-22.921-51.195-51.195" fill="#ed6060"/><path d="m111.9618 219.9697c20.418 20.416 52.407 19.991 72.4-.001 19.993-19.993 20.417-51.982.001-72.4z" fill="#e23b3b"/><path d="m108.826 183.7051c0-21.723 17.61-39.333 39.333-39.333s39.333 17.61 39.333 39.333-17.61 39.333-39.333 39.333-39.333-17.61-39.333-39.333" fill="#fff"/><g stroke="#777" stroke-linecap="round" stroke-linejoin="round"><path d="m96.9637 183.7051c0-28.274 22.921-51.195 51.195-51.195 28.275 0 51.196 22.921 51.196 51.195s-22.921 51.195-51.196 51.195c-28.274 0-51.195-22.921-51.195-51.195z" stroke-width="3.334"/><path d="m147.66 157v-4" stroke-width="3"/><path d="m147.66 216v-3" stroke-width="3"/><path d="m167.5927 164.918 2.774-2.774" stroke-width="2.942"/><path d="m168.8173 203.6074 2.773 2.774" stroke-width="2.942"/><path d="m176.16 184.5h3" stroke-width="3"/><path d="m128.83 164.918-2.773-2.774" stroke-width="2.942"/><path d="m127.6063 203.6074-2.773 2.774" stroke-width="2.942"/><path d="m120.16 184.5h-4" stroke-width="3"/><path d="m147.16 167v19h19" stroke-width="4"/></g><path d="m122.0184 200.4014c-1.751-.979-3.015-3.075-3.685-4.422-.226-.457-.872-.457-1.098 0-.67 1.347-1.934 3.443-3.685 4.422-.428.24-.428.84 0 1.08 1.751.981 3.015 3.075 3.685 4.423.226.457.872.457 1.098 0 .67-1.348 1.934-3.442 3.685-4.423.429-.24.429-.84 0-1.08" fill="#fff"/></g></g></svg>