<svg height="18" viewBox="0 0 18 18" width="18" xmlns="http://www.w3.org/2000/svg"><g fill="none" fill-rule="evenodd"><circle cx="9" cy="9" fill="#c80707" fill-rule="nonzero" r="9"/><path d="m13.484 4.625a.414.414 0 0 0 -.591 0l-.946.96-.947-.96a.414.414 0 0 0 -.592 0 .43.43 0 0 0 0 .6l.946.961-.946.96a.43.43 0 0 0 0 .602.414.414 0 0 0 .592 0l.947-.96.946.96a.414.414 0 0 0 .591 0 .43.43 0 0 0 0-.601l-.946-.96.946-.961a.43.43 0 0 0 0-.601zm-8.297 8.815c1.055-.853 2.562-1.343 4.134-1.343 1.573 0 3.08.49 4.135 1.344a.418.418 0 0 0 .594-.064.425.425 0 0 0 -.064-.596c-1.203-.973-2.903-1.531-4.665-1.531-1.761 0-3.461.558-4.664 1.53a.425.425 0 0 0 -.064.597.42.42 0 0 0 .594.064zm-.564-5.692a.414.414 0 0 0 .592 0l.946-.96.946.96a.414.414 0 0 0 .592 0 .43.43 0 0 0 0-.601l-.946-.96.946-.961a.43.43 0 0 0 0-.601.414.414 0 0 0 -.592 0l-.946.96-.946-.96a.414.414 0 0 0 -.592 0 .43.43 0 0 0 0 .6l.946.961-.946.96a.43.43 0 0 0 0 .602z" fill="#fff"/></g></svg>