<svg height="18" viewBox="0 0 18 18" width="18" xmlns="http://www.w3.org/2000/svg"><g fill="none" fill-rule="evenodd"><circle cx="9" cy="9" fill="#c80707" fill-rule="nonzero" r="9"/><g fill="#fff"><path d="m15.901 6.08c-.79-1.843-2.134-3.184-3.994-3.977a7.372 7.372 0 0 0 -2.92-.599c-1.016 0-1.983.2-2.91.599-1.844.79-3.194 2.13-3.987 3.977a7.299 7.299 0 0 0 -.59 2.912c0 1.017.194 1.994.59 2.92.793 1.846 2.143 3.194 3.986 3.985a7.296 7.296 0 0 0 2.912.599c1.017 0 1.99-.203 2.92-.599 1.858-.793 3.202-2.142 3.993-3.985a7.336 7.336 0 0 0 .599-2.92c0-1.017-.2-1.983-.599-2.912zm-1.058 6.308a6.738 6.738 0 0 1 -2.47 2.46 6.62 6.62 0 0 1 -3.385.906 6.51 6.51 0 0 1 -2.622-.537 6.87 6.87 0 0 1 -2.15-1.436 6.823 6.823 0 0 1 -1.437-2.157 6.606 6.606 0 0 1 -.529-2.628c0-1.218.3-2.344.899-3.375a6.741 6.741 0 0 1 2.461-2.461 6.569 6.569 0 0 1 3.377-.907 6.62 6.62 0 0 1 3.386.907 6.758 6.758 0 0 1 2.47 2.46 6.559 6.559 0 0 1 .907 3.375c0 1.217-.3 2.352-.907 3.392z" fill-rule="nonzero"/><path d="m9.463 8.926v-4.248a.473.473 0 0 0 -.475-.46.462.462 0 0 0 -.451.46v4.314c0 .008.016.04.016.065a.429.429 0 0 0 .123.37l2.452 2.452a.467.467 0 0 0 .632 0 .442.442 0 0 0 0-.64z"/></g></g></svg>