<svg height="18" viewBox="0 0 18 18" width="18" xmlns="http://www.w3.org/2000/svg"><g fill="none"><circle cx="9" cy="9" fill="#c80707" r="9"/><g fill="#fff" stroke="#fff" stroke-width=".5"><path d="m15.767 8.767h-.473a6.306 6.306 0 0 0 -6.06-6.061v-.473a.233.233 0 1 0 -.467 0v.473a6.306 6.306 0 0 0 -6.061 6.06h-.473a.233.233 0 1 0 0 .467h.473a6.306 6.306 0 0 0 6.06 6.061v.473a.233.233 0 1 0 .467 0v-.473a6.306 6.306 0 0 0 6.061-6.06h.473a.233.233 0 1 0 0-.467zm-6.534 6.06v-.46a.233.233 0 1 0 -.466 0v.46a5.84 5.84 0 0 1 -5.595-5.594h.461a.233.233 0 1 0 0-.466h-.46a5.84 5.84 0 0 1 5.594-5.595v.461a.233.233 0 1 0 .466 0v-.46a5.84 5.84 0 0 1 5.595 5.594h-.461a.233.233 0 1 0 0 .466h.46a5.84 5.84 0 0 1 -5.594 5.595z"/><path d="m11.8 8.767h-1.185a1.634 1.634 0 0 0 -1.382-1.382v-1.185a.233.233 0 1 0 -.466 0v1.185a1.635 1.635 0 0 0 -1.382 1.382h-1.185a.233.233 0 1 0 0 .466h1.185a1.634 1.634 0 0 0 1.382 1.382v1.185a.233.233 0 1 0 .466 0v-1.185a1.635 1.635 0 0 0 1.382-1.382h1.185a.233.233 0 1 0 0-.466zm-2.8 1.4a1.168 1.168 0 0 1 -1.167-1.167 1.168 1.168 0 0 1 2.333 0c0 .643-.523 1.167-1.166 1.167z"/></g></g></svg>