<svg height="22" viewBox="0 0 21 22" width="21" xmlns="http://www.w3.org/2000/svg"><g fill="#6e7375"><path d="m18.0832119 1.78339241h-1.7496357v-1.78339241h-1.1671524v1.78339241h-9.33284761v-1.78339241h-1.16715238v1.78339241h-1.74963572c-1.60865945 0-2.91678809 1.33336708-2.91678809 2.97306329v14.270481c0 1.6396962 1.30812864 2.9730633 2.91678809 2.9730633h15.16642381c1.6086595 0 2.9167881-1.3333671 2.9167881-2.9730633v-11.29741771-1.18855696-1.78450633c0-1.63858228-1.3081286-2.97306329-2.9167881-2.97306329zm1.7507286 17.24354429c0 .9835949-.7846587 1.7833924-1.7496358 1.7833924h-15.16751661c-.9649771 0-1.74963572-.7997975-1.74963572-1.7833924v-11.29741771h18.66678813zm0-12.48597467h-18.66788097v-1.78450633c0-.98359494.78465862-1.78339241 1.74963572-1.78339241h1.74963572v1.18967089h1.16824522v-1.18967089h9.33394051v1.18967089h1.1671523v-1.18967089h1.7496357c.9649771 0 1.7496358.79979747 1.7496358 1.78339241z"/><path d="m10.2720064 13.75h2.2820742c.6295746 0 1.1415716-.5140287 1.1415716-1.1461016v-2.2911301c0-.63207291-.511997-1.14610163-1.1415716-1.14610163h-2.2820742c-.62957463 0-1.14157162.51402872-1.14157162 1.14610163v2.2911301c.00106889.6320729.51306588 1.1461016 1.14157162 1.1461016zm0-3.4372317h2.2820742l.0010689 2.2911301h-2.2831431z"/><path d="m15.7502672 13.75h2.2820743c.6295746 0 1.1415715-.5140287 1.1415715-1.1461016v-2.2911301c0-.63207291-.5119969-1.14610163-1.1415715-1.14610163h-2.2820743c-.6295746 0-1.1415715.51402872-1.1415715 1.14610163v2.2911301c.0010688.6320729.5130658 1.1461016 1.1415715 1.1461016zm0-3.4372317h2.2820743l.0010689 2.2911301h-2.2831432z"/><path d="m3.880702 20.1666667h2.28207426c.62957458 0 1.14157157-.5140288 1.14157157-1.1461016v-2.2911302c0-.6320728-.51199699-1.1461016-1.14157157-1.1461016h-2.28207426c-.62957458 0-1.14157157.5140288-1.14157157 1.1461016v2.2911302c0 .6320728.51199699 1.1461016 1.14157157 1.1461016zm0-3.4372318h2.28207426l.00106888 2.2911302h-2.28314314z"/><path d="m10.2720064 20.1666667h2.2820742c.6295746 0 1.1415716-.5140288 1.1415716-1.1461016v-2.2911302c0-.6320728-.511997-1.1461016-1.1415716-1.1461016h-2.2820742c-.62957463 0-1.14157162.5140288-1.14157162 1.1461016v2.2911302c.00106889.6320728.51306588 1.1461016 1.14157162 1.1461016zm0-3.4372318h2.2820742l.0010689 2.2911302h-2.2831431z"/><path d="m15.7502672 20.1666667h2.2820743c.6295746 0 1.1415715-.5140288 1.1415715-1.1461016v-2.2911302c0-.6320728-.5119969-1.1461016-1.1415715-1.1461016h-2.2820743c-.6295746 0-1.1415715.5140288-1.1415715 1.1461016v2.2911302c.0010688.6320728.5130658 1.1461016 1.1415715 1.1461016zm0-3.4372318h2.2820743l.0010689 2.2911302h-2.2831432z"/></g></svg>