<svg height="14" viewBox="0 0 13 14" width="13" xmlns="http://www.w3.org/2000/svg"><path d="m8.57143879 9.64285076c0 1.18024694-.96261276 2.14285974-2.1428597 2.14285974s-2.1428597-.9626128-2.1428597-2.14285974c0-1.18024695.96261276-2.1428597 2.1428597-2.1428597s2.1428597.96261275 2.1428597 2.1428597zm-2.1428597-4.55357686c-2.51116371 0-4.55357685 2.04241315-4.55357685 4.55357686 0 2.51116374 2.04241314 4.55357684 4.55357685 4.55357684s4.55357681-2.0424131 4.55357681-4.55357684c0-2.51116371-2.0424131-4.55357686-4.55357681-4.55357686zm6.42857911 4.55357686c0 3.54911134-2.87946773 6.42857904-6.42857911 6.42857904-3.54911137 0-6.42857909-2.8794677-6.42857909-6.42857904 0-3.54911138 2.87946772-6.4285791 6.42857909-6.4285791 3.54911138 0 6.42857911 2.87946772 6.42857911 6.4285791z" fill="#52b9e7" transform="translate(.142857 -3)"/></svg>