<svg height="35" viewBox="0 0 29 35" width="29" xmlns="http://www.w3.org/2000/svg"><g fill="none" fill-rule="evenodd"><path d="m19.885 7.424h-9.745l-8.563-7.424h9.743z" fill="#f1543f"/><path d="m8.038 11.667h12.924v-5.303h-12.924zm11.455-1.378h-9.986v-2.548h9.986z" fill="#f8b64c" fill-rule="nonzero"/><path d="m9.115 7.424h9.702l8.606-7.424h-9.78z" fill="#ff7058"/><ellipse cx="14.5" cy="21.742" fill="#ffd15c" rx="14" ry="13.258" transform="matrix(-1 0 0 1 29 0)"/><path d="m14.5 31.818c5.923 0 10.77-4.534 10.77-10.076 0-5.541-4.847-10.075-10.77-10.075s-10.77 4.534-10.77 10.075c0 5.542 4.847 10.076 10.77 10.076z" fill="#f8b64c"/><path d="m15.038 11.667-2.175 6.464h-6.978l5.702 4.04-2.176 6.465 5.627-4.04 5.628 4.04-2.176-6.464 5.702-4.04h-6.978z" fill="#ffd15c"/></g></svg>