<svg height="52" viewBox="0 0 44 52" width="44" xmlns="http://www.w3.org/2000/svg" xmlns:xlink="http://www.w3.org/1999/xlink"><filter id="a" height="172.2%" width="172.2%" x="-36.1%" y="-36.1%"><feOffset in="SourceAlpha" result="shadowOffsetOuter1"/><feGaussianBlur in="shadowOffsetOuter1" result="shadowBlurOuter1" stdDeviation="1.5"/><feColorMatrix in="shadowBlurOuter1" result="shadowMatrixOuter1" values="0 0 0 0 0 0 0 0 0 0 0 0 0 0 0 0 0 0 0.3 0"/><feMerge><feMergeNode in="shadowMatrixOuter1"/><feMergeNode in="SourceGraphic"/></feMerge></filter><g fill="none" fill-rule="evenodd" transform="translate(1 1)"><circle cx="21" cy="21" r="21" stroke="#8bcc91"/><path d="m41 21c0 11.046-8.954 20-20 20s-20-8.954-20-20 8.954-20 20-20 20 8.954 20 20" fill="#fff9e7"/><path d="m7.744 19.75v8.79c0 .243.197.44.44.44h3.077v-9.67h-3.077a.44.44 0 0 0 -.44.44m25.934-.44h-3.076v9.67h3.076a.44.44 0 0 0 .44-.44v-8.79a.44.44 0 0 0 -.44-.44" fill="#ffbf5d"/><path d="m13.459 15.794a.44.44 0 0 0 -.44.44v1.994l7.709-2.434h-7.27zm14.945 0h-7.27l7.71 2.434v-1.995a.44.44 0 0 0 -.44-.44" fill="#feee5d"/><path d="m19.173 28.98h3.516v-6.154h-3.516zm7.912 0h2.637v-6.154h-2.637zm-11.429 0h2.638v-6.154h-2.638zm7.913 0h2.637v-6.154h-2.637z" fill="#ffbf5d"/><path d="m29.415 19.33-.572-.18-7.912-2.499-7.912 2.499-.572.18a.44.44 0 0 0 -.307.42v2.198h17.582v-2.198a.44.44 0 0 0 -.307-.42" fill="#fed761"/><path d="m12.14 28.98h2.637v-6.154h-2.637z" fill="#ffbf5d"/><path d="m7.744 32.057c0 .243.295.44.66.44h25.055c.364 0 .659-.197.659-.44v-2.197h-26.374z" fill="#bf7200"/><path d="m13.459 15.354h14.945a.44.44 0 0 0 .44-.44c0-4.12-3.772-6.407-7.473-6.576v-1.775a.44.44 0 1 0 -.88 0v1.775c-3.7.169-7.472 2.457-7.472 6.576 0 .243.197.44.44.44" fill="#ffbf5d"/><g filter="url(#a)" transform="translate(12 30)"><circle cx="9" cy="9" fill="#fff" fill-rule="nonzero" r="9"/><path d="m8.985 4.5-1.502 2.963-3.358.475 2.43 2.306-.573 3.256 3.003-1.537 3.004 1.537-.574-3.256 2.43-2.306-3.358-.475z" fill="#fac917"/></g></g></svg>