<svg height="32" viewBox="0 0 32 32" width="32" xmlns="http://www.w3.org/2000/svg"><g fill="none" fill-rule="evenodd"><path d="m16.261 6.172a5.473 5.473 0 0 0 -.25-.01c-.11.002-.176.004-.26.01-4.096.284-7.184 3.703-7.184 7.85 0 5.057 4.372 6.85 4.372 8.827v.01h6.313v-.01c0-1.978 4.282-3.765 4.282-8.822 0-4.147-3.177-7.571-7.273-7.855" fill="#ffc431"/><path d="m18.367 6.619c1.94 1.588 3.104 3.906 3.104 6.48 0 5.56-5.28 7.521-5.28 9.696v.064h3.061v-.01c0-1.978 4.282-3.765 4.282-8.822a7.89 7.89 0 0 0 -5.167-7.408" fill="#efab22"/><path d="m20.263 13.48a4.182 4.182 0 0 0 -2.41-2.909.607.607 0 0 0 -.13-.038 4.012 4.012 0 0 0 -2.222-.209 4.053 4.053 0 0 0 -2.143 1.156l-.006.006a4.228 4.228 0 0 0 -1.192 2.94l-.001.017v.041a4.104 4.104 0 0 0 .016.317c.002.023.002.046.005.069a4.067 4.067 0 0 0 .046.323c.035.197.083.388.143.574l.004.011c.547 1.66 2.082 2.86 3.888 2.86.342 0 .62-.284.62-.634a.627.627 0 0 0 -.62-.634c-1.183 0-2.2-.736-2.636-1.785l-.002-.006a3.02 3.02 0 0 1 -.18-.622l-.003-.018a3.102 3.102 0 0 1 -.028-.205v-.007a3.219 3.219 0 0 1 -.012-.177l-.001-.066a2.953 2.953 0 0 1 .836-2.108l.002-.003a2.808 2.808 0 0 1 3.132-.623c.027.012.055.018.082.026.784.364 1.371 1.194 1.59 2.045.01.04-.003.233-.105.233h-3.67c-.341 0-.619.335-.619.685s.278.685.62.685h3.761c.391 0 .754-.356.996-.67.241-.313.328-.887.24-1.274" fill="#c80"/><path d="m19.298 25.227h-6.443c-.619 0-1.12-.513-1.12-1.146s.501-1.146 1.12-1.146h6.443c.618 0 1.12.513 1.12 1.146s-.502 1.146-1.12 1.146m-.71 2.832h-5.023a1.075 1.075 0 0 1 -1.063-1.087c0-.6.476-1.087 1.063-1.087h5.023c.587 0 1.063.487 1.063 1.087s-.476 1.087-1.063 1.087m-4.223.611c-.08 0-.128.083-.083.144a2.22 2.22 0 0 0 1.794.892 2.22 2.22 0 0 0 1.795-.892c.045-.061-.003-.145-.083-.145h-3.423z" fill="#777"/><path d="m11.082 13.119c-.77-.56-.758-1.928.026-3.056.785-1.128 2.044-1.589 2.814-1.029s.758 1.928-.026 3.056-2.044 1.589-2.814 1.029" fill="#fff" opacity=".4"/><path d="m22.366 7.115.93-.952m-7.296-1.649v-1.33m9.366 10.931h1.33m-21.33 0h1.33m16.08 6.275.931.951m-14.345-14.226-.93-.952m.518 14.227-.93.951" stroke="#777" stroke-linecap="round" stroke-linejoin="round" stroke-width="1.005"/></g></svg>