<svg height="32" viewBox="0 0 32 32" width="32" xmlns="http://www.w3.org/2000/svg" xmlns:xlink="http://www.w3.org/1999/xlink"><mask id="a" fill="#fff"><path d="m.001 12.753c1.742 4.114 5.864 7.006 10.67 7.006 6.383 0 11.557-5.098 11.557-11.385 0-3.306-1.43-6.283-3.715-8.363h-15.683a11.41 11.41 0 0 0 -2.829 3.983v8.76z" fill="#fff" fill-rule="evenodd"/></mask><mask id="b" fill="#fff"><path d="m.123 11.6c0 6.287 5.174 11.385 11.556 11.385 6.383 0 11.556-5.098 11.556-11.386 0-6.287-5.173-11.384-11.555-11.384-6.383 0-11.557 5.097-11.557 11.384z" fill="#fff" fill-rule="evenodd"/></mask><mask id="c" fill="#fff"><path d="m5.128.3a6.033 6.033 0 0 0 -3.154 1.637l-.008.01a5.882 5.882 0 0 0 -1.754 4.166l-.002.022.002.06a4.856 4.856 0 0 0 .021.45c.004.032.005.064.008.096a5.663 5.663 0 0 0 .068.459 5.804 5.804 0 0 0 .216.829c.805 2.353 3.064 4.053 5.72 4.053a.905.905 0 0 0 .912-.898.905.905 0 0 0 -.911-.898 4.22 4.22 0 0 1 -3.878-2.531l-.003-.008a4.13 4.13 0 0 1 -.328-1.458l-.002-.094a4.106 4.106 0 0 1 1.23-2.989l.003-.004a4.244 4.244 0 0 1 4.608-.883c.04.017.08.026.12.037 1.155.516 2.019 1.633 2.34 2.838.015.058-.004.271-.155.271h-5.397c-.504 0-.912.496-.912.992 0 .497.408.993.912.993h5.534c.575 0 1.11-.466 1.465-.91.355-.445.483-1.22.352-1.77a5.986 5.986 0 0 0 -3.545-4.12.922.922 0 0 0 -.191-.055 6.122 6.122 0 0 0 -3.271-.295z" fill="#fff" fill-rule="evenodd"/></mask><g fill="none" fill-rule="evenodd"><path d="m1.164 15.98c0-8.184 6.734-14.819 15.041-14.819s15.042 6.635 15.042 14.819-6.735 14.818-15.042 14.818-15.041-6.634-15.041-14.818" fill="#ffc431"/><path d="m5.57 26.477c6 5.91 15.398 5.786 21.272 0 5.874-5.788 5.999-15.047 0-20.957l-21.271 20.957z" fill="#efab22"/><path d="m4.65 15.98c0-6.288 5.173-11.385 11.555-11.385 6.383 0 11.557 5.097 11.557 11.385s-5.174 11.385-11.557 11.385c-6.382 0-11.556-5.097-11.556-11.385" fill="#ffc431"/><path d="m32.264 4.551-27.368 26.963-4.895-4.54 27.369-26.964z" fill="#fff" mask="url(#a)" opacity=".3" transform="translate(5.534 7.606)"/><path d="m26.492 1.271-27.368 26.963-1.9-2.374 27.368-26.963z" fill="#fff" fill-opacity=".3" mask="url(#b)" transform="translate(4.526 4.38)"/><path d="m4.65 15.98c0-6.288 5.173-11.385 11.555-11.385 6.383 0 11.557 5.097 11.557 11.385s-5.174 11.385-11.557 11.385c-6.382 0-11.556-5.097-11.556-11.385z" stroke="#c80" stroke-width="1.524"/><path d="m22.202 14.611a5.987 5.987 0 0 0 -3.546-4.122.925.925 0 0 0 -.19-.055 6.113 6.113 0 0 0 -3.27-.295 6.034 6.034 0 0 0 -3.155 1.637l-.007.01a5.881 5.881 0 0 0 -1.755 4.168l-.002.022.002.059a5.497 5.497 0 0 0 .022.45l.007.097a6.002 6.002 0 0 0 .28 1.272l.005.015c.804 2.353 3.064 4.054 5.72 4.054a.905.905 0 0 0 .912-.899.905.905 0 0 0 -.912-.898 4.22 4.22 0 0 1 -3.878-2.53l-.003-.009a4.154 4.154 0 0 1 -.265-.882l-.005-.025a4.069 4.069 0 0 1 -.04-.29l-.001-.01a3.976 3.976 0 0 1 -.019-.345 4.105 4.105 0 0 1 1.23-2.988l.003-.005a4.245 4.245 0 0 1 4.609-.882c.04.016.08.026.12.036 1.155.516 2.018 1.633 2.339 2.839.015.057-.004.27-.155.27h-5.397c-.504 0-.912.497-.912.993s.408.992.912.992h5.534c.575 0 1.11-.465 1.465-.91s.483-1.22.352-1.769" fill="#c80"/><path d="m27.364 2.318-27.368 26.962-4.896-4.54 27.369-26.962z" fill="#ef990f" mask="url(#c)" transform="translate(10.067 9.84)"/><path d="m1.164 15.98c0-8.184 6.734-14.819 15.041-14.819s15.042 6.635 15.042 14.819-6.735 14.818-15.042 14.818-15.041-6.634-15.041-14.818z" stroke="#777" stroke-linecap="round" stroke-linejoin="round" stroke-width=".711"/><path d="m9.556 9.548c-1.123-.62-1.934-1.944-2.364-2.795a.395.395 0 0 0 -.705 0c-.43.851-1.24 2.175-2.364 2.795a.385.385 0 0 0 0 .682c1.124.62 1.934 1.944 2.364 2.795.146.29.56.29.705 0 .43-.85 1.24-2.175 2.364-2.795a.385.385 0 0 0 0-.682" fill="#fff"/></g></svg>