<svg height="56" viewBox="0 0 61 56" width="61" xmlns="http://www.w3.org/2000/svg" xmlns:xlink="http://www.w3.org/1999/xlink"><mask id="a" fill="#fff"><path d="m.023 15.968c0 8.656 7.145 15.673 15.96 15.673 8.813 0 15.958-7.017 15.958-15.673-.001-8.656-7.145-15.673-15.959-15.673s-15.959 7.017-15.959 15.673z" fill="#fff" fill-rule="evenodd"/></mask><mask id="b" fill="#fff"><path d="m15.982 31.641c8.814 0 15.959-7.017 15.959-15.673-.001-8.656-7.145-15.673-15.959-15.673s-15.959 7.017-15.959 15.673 7.145 15.673 15.96 15.673z" fill="#fff" fill-rule="evenodd"/></mask><mask id="c" fill="#fff"><path d="m6.936.413a8.34 8.34 0 0 0 -4.356 2.253c-.005.005-.007.01-.011.013a8.085 8.085 0 0 0 -2.423 5.738l-.003.03.002.082c.003.207.013.413.031.62l.01.132a8.239 8.239 0 0 0 .385 1.752l.008.021c1.111 3.24 4.231 5.58 7.9 5.58.695 0 1.259-.554 1.259-1.236 0-.683-.564-1.237-1.26-1.237a5.828 5.828 0 0 1 -5.355-3.484l-.004-.011a5.67 5.67 0 0 1 -.456-2.137 5.643 5.643 0 0 1 1.699-4.114l.004-.005a5.875 5.875 0 0 1 6.365-1.216c.054.023.11.036.166.05 1.594.711 2.786 2.248 3.23 3.908.02.079-.005.373-.214.373h-7.453c-.695 0-1.259.683-1.259 1.366s.564 1.366 1.26 1.366h7.642c.794 0 1.532-.64 2.023-1.254.49-.611.668-1.678.486-2.434-.608-2.543-2.438-4.664-4.897-5.675a1.279 1.279 0 0 0 -.263-.075 8.458 8.458 0 0 0 -4.516-.406z" fill="#fff" fill-rule="evenodd"/></mask><g fill="none" fill-rule="evenodd" transform="translate(0 -1)"><path d="m11.384 28.475c0-11.266 9.3-20.4 20.772-20.4s20.772 9.134 20.772 20.4-9.3 20.4-20.772 20.4-20.772-9.134-20.772-20.4" fill="#ddd"/><path d="m17.47 42.925c8.284 8.135 21.263 7.966 29.375 0 8.112-7.967 8.284-20.713 0-28.849l-29.375 28.85z" fill="#b2b2b2"/><path d="m16.197 28.475c0-8.656 7.145-15.673 15.96-15.673 8.813 0 15.957 7.017 15.957 15.673s-7.144 15.673-15.958 15.673-15.959-7.018-15.959-15.673" fill="#bcbcbc"/><path d="m51.366 15.701-37.796 37.117-6.76-6.25 37.798-37.117z" fill="#fff" fill-opacity=".3" mask="url(#a)" transform="translate(10.609 7.512)"/><path d="m42.003 6.745-37.793 37.117-2.624-3.267 37.794-37.118z" fill="#fff" fill-opacity=".3" mask="url(#b)" transform="translate(10.609 7.512)"/><path d="m16.197 28.475c0-8.656 7.145-15.673 15.96-15.673 8.813 0 15.957 7.017 15.957 15.673s-7.144 15.673-15.958 15.673-15.959-7.018-15.959-15.673z" stroke="#aaa" stroke-width="2.084"/><path d="m40.438 26.591c-.609-2.543-2.439-4.664-4.897-5.675a1.28 1.28 0 0 0 -.264-.075 8.465 8.465 0 0 0 -4.515-.407 8.34 8.34 0 0 0 -4.356 2.254c-.004.004-.007.01-.011.013a8.082 8.082 0 0 0 -2.422 5.738c0 .01-.004.02-.004.03 0 .028.002.055.003.082.001.206.012.413.03.619l.01.133c.019.178.045.354.075.528l.019.104c.07.383.168.756.292 1.12l.007.02c1.111 3.24 4.232 5.58 7.9 5.58.454.008.878-.226 1.108-.611.23-.386.23-.863 0-1.249a1.264 1.264 0 0 0 -1.108-.612 5.829 5.829 0 0 1 -5.356-3.484l-.004-.012a5.678 5.678 0 0 1 -.428-1.648l-.002-.014a5.643 5.643 0 0 1 1.672-4.588l.005-.006a5.876 5.876 0 0 1 6.365-1.215c.055.023.11.036.166.05 1.594.71 2.787 2.248 3.23 3.908.02.079-.005.372-.213.372h-7.455c-.695 0-1.259.684-1.259 1.367 0 .682.564 1.366 1.26 1.366h7.642c.794 0 1.531-.641 2.023-1.253.49-.612.668-1.679.487-2.435" fill="#6d6d6d"/><path d="m50.86 15.701-37.796 37.117-6.76-6.25 37.796-37.117z" fill="#6d6d6d" mask="url(#c)" transform="translate(10.609 7.512)"/><path d="m11.384 28.475c0-11.266 9.3-20.4 20.772-20.4s20.772 9.134 20.772 20.4-9.3 20.4-20.772 20.4-20.772-9.134-20.772-20.4z" stroke="#777" stroke-linecap="round" stroke-linejoin="round" stroke-width="2.084"/><path d="m23.32 19.62c-1.551-.853-2.67-2.675-3.264-3.847a.544.544 0 0 0 -.487-.298.544.544 0 0 0 -.487.298c-.594 1.171-1.713 2.994-3.264 3.847a.533.533 0 0 0 -.285.47c0 .196.11.377.285.47 1.551.853 2.67 2.676 3.264 3.848.09.182.28.298.487.298a.544.544 0 0 0 .487-.298c.593-1.172 1.713-2.995 3.264-3.848a.533.533 0 0 0 .285-.47.533.533 0 0 0 -.285-.47" fill="#fff"/><path d="m46.75 4.349-.006.022a2.448 2.448 0 0 0 1.693 3.02l.097.027a2.51 2.51 0 0 0 3.09-1.712l.007-.023a2.448 2.448 0 0 0 -1.693-3.02l-.097-.027a2.51 2.51 0 0 0 -3.09 1.713z" opacity=".96" stroke="#f1609c" stroke-width="1.563"/><path d="m55.744 43.341-1.596-3.212 3.288-1.575 1.595 3.213z" opacity=".26" stroke="#19e9ba" stroke-width="1.641"/><path d="m2.7 42.04-1.595-3.213 3.287-1.575 1.596 3.212z" opacity=".86" stroke="#19e9ba" stroke-width="1.641"/><path d="m12.948 9.01a.677.677 0 0 0 -.528 1.095l.197.252a.873.873 0 0 0 1.471-.148.832.832 0 0 0 -.753-1.202l-.387.004z" fill="#8f8fff" opacity=".5" stroke="#8f8fff" stroke-width="1.563"/><ellipse cx="27.822" cy="54.37" opacity=".83" rx="1.983" ry="1.959" stroke="#ff8c6f" stroke-width="1.302" transform="matrix(.91354546 .40673664 .40673664 -.91354546 -19.708869 92.722939)"/></g></svg>