<svg height="138" viewBox="0 0 118 138" width="118" xmlns="http://www.w3.org/2000/svg" xmlns:xlink="http://www.w3.org/1999/xlink"><mask id="a" fill="#fff"><path d="m17.894.495a21.33 21.33 0 0 0 -11.206 5.904c-.011.011-.018.023-.028.034a21.362 21.362 0 0 0 -6.231 15.028c-.001.028-.009.054-.009.082 0 .071.005.141.005.212a23.827 23.827 0 0 0 .08 1.622c.009.116.014.233.026.349.047.467.115.926.191 1.383l.049.271a21.27 21.27 0 0 0 .751 2.934l.019.055c2.858 8.486 10.885 14.617 20.322 14.617a3.239 3.239 0 1 0 0-6.478c-6.181 0-11.498-3.766-13.778-9.125-.004-.01-.005-.021-.01-.031a15.188 15.188 0 0 1 -.942-3.181l-.016-.091c-.06-.347-.109-.697-.145-1.046l-.003-.037a15.194 15.194 0 0 1 -.057-.903c-.004-.113-.008-.225-.008-.339a14.912 14.912 0 0 1 4.368-10.776l.012-.015a14.914 14.914 0 0 1 16.373-3.183c.14.059.284.093.428.131 4.101 1.862 7.169 6.106 8.308 10.453.054.207-.012 1.194-.548 1.194h-19.177c-1.789 0-3.238 1.711-3.238 3.5 0 1.788 1.449 3.5 3.238 3.5h19.662c2.043 0 3.94-1.817 5.205-3.423 1.261-1.601 1.717-4.533 1.251-6.514-1.565-6.66-6.275-12.218-12.598-14.865a3.299 3.299 0 0 0 -.679-.197 21.425 21.425 0 0 0 -11.615-1.065z" fill="#fff" fill-rule="evenodd"/></mask><g fill="none" fill-rule="evenodd"><path d="m60.864 17.213c-.442-.03-.737-.039-1.31-.055-.573.016-.917.025-1.358.055-21.41 1.449-37.55 18.926-37.55 40.126 0 25.845 22.854 35.004 22.854 45.114v.047h33v-.047c0-10.11 22.384-19.246 22.384-45.091 0-21.199-16.61-38.7-38.02-40.149" fill="#ffc431"/><path d="m71.876 19.495c10.135 8.116 16.224 19.968 16.224 33.125 0 28.418-27.6 38.438-27.6 49.555v.324h16v-.046c0-10.11 22.385-19.246 22.385-45.09 0-17.378-11.276-32.27-27.01-37.868" fill="#efab22"/><path d="m81.786 54.563c-1.565-6.66-6.275-12.218-12.599-14.865a3.23 3.23 0 0 0 -.678-.197 21.418 21.418 0 0 0 -11.615-1.065 21.336 21.336 0 0 0 -11.207 5.904l-.027.034a21.362 21.362 0 0 0 -6.23 15.028c-.002.028-.01.054-.01.082 0 .071.005.141.006.212a20.512 20.512 0 0 0 .078 1.622c.011.117.014.233.027.35a20.35 20.35 0 0 0 .24 1.653 21.27 21.27 0 0 0 .751 2.934l.02.055c2.857 8.486 10.884 14.617 20.321 14.617a3.239 3.239 0 1 0 0-6.478c-6.18 0-11.498-3.766-13.778-9.125-.005-.01-.006-.02-.01-.03a15.17 15.17 0 0 1 -.942-3.182l-.016-.09c-.06-.349-.109-.697-.145-1.046 0-.013 0-.025-.003-.038a16.09 16.09 0 0 1 -.058-.903l-.008-.339a14.917 14.917 0 0 1 4.37-10.776c.003-.004.006-.01.011-.015a14.918 14.918 0 0 1 16.373-3.183c.14.06.284.093.428.132 4.1 1.86 7.168 6.105 8.307 10.452.055.207-.01 1.194-.547 1.194h-19.177c-1.789 0-3.239 1.711-3.239 3.5 0 1.788 1.45 3.5 3.24 3.5h19.661c2.042 0 3.94-1.817 5.204-3.423 1.26-1.6 1.716-4.533 1.251-6.514" fill="#c80"/><path d="m96.887 7.772-97.228 97.228-17.39-16.373 97.23-97.227z" fill="#ef990f" mask="url(#a)" transform="translate(39 37.941)"/><path d="m76.737 114.606h-33.675a5.859 5.859 0 1 1 0-11.717h33.675a5.859 5.859 0 0 1 0 11.717m-3.708 14.472h-26.259a5.553 5.553 0 0 1 -5.554-5.554 5.553 5.553 0 0 1 5.554-5.554h26.258a5.554 5.554 0 1 1 0 11.108m-22.076 3.12c-.418 0-.669.427-.435.742 2.027 2.721 5.471 4.56 9.382 4.56 3.912 0 7.356-1.839 9.383-4.56.234-.315-.017-.742-.435-.742z" fill="#777"/><path d="m33.793 52.719c-4.024-2.861-3.963-9.855.137-15.621 4.1-5.765 10.685-8.12 14.71-5.257 4.024 2.86 3.962 9.855-.138 15.62-4.099 5.765-10.685 8.119-14.709 5.258" fill="#fff" fill-opacity=".3"/><g stroke="#777" stroke-linecap="round" stroke-linejoin="round"><path d="m58 8.5v-6" stroke-width="5"/><path d="m92.775 22.032 4.864-4.864m-2.717 72.713 4.864 4.864" stroke-width="5.159"/><path d="m108.5 56h7" stroke-width="5"/><path d="m24.8 22.032-4.865-4.864m2.717 72.713-4.864 4.864" stroke-width="5.159"/><path d="m9.5 56h-7" stroke-width="5"/></g></g></svg>