<svg height="48" viewBox="0 0 48 48" width="48" xmlns="http://www.w3.org/2000/svg" xmlns:xlink="http://www.w3.org/1999/xlink"><filter id="a" height="160%" width="160%" x="-30%" y="-30%"><feOffset dy="2" in="SourceAlpha" result="shadowOffsetOuter1"/><feGaussianBlur in="shadowOffsetOuter1" result="shadowBlurOuter1" stdDeviation="2"/><feColorMatrix in="shadowBlurOuter1" result="shadowMatrixOuter1" values="0 0 0 0 0 0 0 0 0 0 0 0 0 0 0 0 0 0 0.2 0"/><feMerge><feMergeNode in="shadowMatrixOuter1"/><feMergeNode in="SourceGraphic"/></feMerge></filter><g fill="none" filter="url(#a)" transform="translate(4 2)"><path d="m14.048 31.36-5.968 3.255c-.35.191-.665.426-.958.682a19.907 19.907 0 0 0 12.878 4.703 19.92 19.92 0 0 0 12.803-4.637 5.294 5.294 0 0 0 -1.052-.705l-6.39-3.195a2.437 2.437 0 0 1 -1.347-2.18v-2.506c.18-.205.384-.468.604-.778.871-1.23 1.53-2.583 1.987-4.003a2.007 2.007 0 0 0 1.423-1.91v-2.675c0-.59-.262-1.115-.669-1.483v-3.87s.795-6.02-7.358-6.02-7.359 6.02-7.359 6.02v3.87a1.995 1.995 0 0 0 -.668 1.483v2.676c0 .705.37 1.325.925 1.684.669 2.91 2.42 5.006 2.42 5.006v2.445c-.001.89-.489 1.71-1.271 2.138z" fill="#9fa7ab"/><path d="m20.342.003c-11.044-.189-20.15 8.611-20.339 19.655-.107 6.262 2.684 11.89 7.128 15.633.29-.254.602-.486.948-.675l5.968-3.255a2.438 2.438 0 0 0 1.27-2.14v-2.445s-1.752-2.095-2.42-5.006a2.007 2.007 0 0 1 -.925-1.684v-2.676c0-.589.262-1.115.669-1.483v-3.869s-.795-6.02 7.358-6.02 7.359 6.02 7.359 6.02v3.869c.407.368.668.894.668 1.483v2.676c0 .9-.603 1.657-1.423 1.91a14.704 14.704 0 0 1 -1.986 4.002c-.22.31-.425.573-.605.778v2.507c0 .923.522 1.768 1.347 2.18l6.39 3.194c.384.192.73.434 1.05.704 4.309-3.594 7.093-8.968 7.196-15.02.19-11.042-8.609-20.149-19.653-20.337z" fill="#fff"/></g></svg>