<svg height="294" viewBox="0 0 286 294" width="286" xmlns="http://www.w3.org/2000/svg" xmlns:xlink="http://www.w3.org/1999/xlink"><defs><path id="a" d="m0 0h286v294h-286z"/><mask id="b" fill="#fff"><use fill="#fff" fill-rule="evenodd" xlink:href="#a"/></mask></defs><g fill="none" fill-rule="evenodd"><use fill="#fff" fill-rule="nonzero" xlink:href="#a"/><g mask="url(#b)"><g transform="translate(37 7)"><path d="m130.199464 90.329816h-63.6138551c-16.0204271 0-29.0068972-13.0043593-29.0068972-29.0446659v-8.0929026c0-28.9009419 23.3997477-52.33150051 52.2666434-52.33150051h17.0943629c28.866895 0 52.266643 23.43055861 52.266643 52.33150051v8.0929026c0 16.0403066-12.98647 29.0446659-29.006897 29.0446659" fill="#2f1815"/><path d="m130.199464 90.329816h-63.6138551c-16.0204271 0-29.0068972-13.0043593-29.0068972-29.0446659v-8.0929026c0-28.9009419 23.3997477-52.33150051 52.2666434-52.33150051h17.0943629c28.866895 0 52.266643 23.43055861 52.266643 52.33150051v8.0929026c0 16.0403066-12.98647 29.0446659-29.006897 29.0446659z" stroke="#181818" stroke-linecap="round" stroke-linejoin="round" stroke-width="4.205"/><path d="m159.701506 373.891209h-124.3798314c-19.3857801 0-35.10139373-15.735115-35.10139373-35.148499v-104.696714c0-40.652596 32.91276233-73.607974 73.51320313-73.607974h47.557985c40.60044 0 73.514975 32.955378 73.514975 73.607974v104.696714c0 19.413384-15.717386 35.148499-35.104938 35.148499" fill="#22ca9f"/><path d="m159.701506 373.891209h-124.3798314c-19.3857801 0-35.10139373-15.735115-35.10139373-35.148499v-104.696714c0-40.652596 32.91276233-73.607974 73.51320313-73.607974h47.557985c40.60044 0 73.514975 32.955378 73.514975 73.607974v104.696714c0 19.413384-15.717386 35.148499-35.104938 35.148499z" stroke="#181818" stroke-width="4.205"/><path d="m74.8536733 96.6059409h-24.4896329c-7.062102 0-12.7844426-5.7294414-12.7844426-12.8003067 0-7.0673166 5.7223406-12.8003067 12.7844426-12.8003067h24.4896329z" fill="#f69b8a"/><path d="m74.8536733 96.6059409h-24.4896329c-7.062102 0-12.7844426-5.7294414-12.7844426-12.8003067 0-7.0673166 5.7223406-12.8003067 12.7844426-12.8003067h24.4896329z" stroke="#181818" stroke-linecap="round" stroke-linejoin="round" stroke-width="4.205"/><path d="m121.304051 96.6059409h24.489633c7.06033 0 12.784443-5.7294414 12.784443-12.8003067 0-7.0673166-5.724113-12.8003067-12.784443-12.8003067h-24.489633z" fill="#f69b8a"/><path d="m121.304051 96.6059409h24.489633c7.06033 0 12.784443-5.7294414 12.784443-12.8003067 0-7.0673166-5.724113-12.8003067-12.784443-12.8003067h-24.489633z" stroke="#181818" stroke-linecap="round" stroke-linejoin="round" stroke-width="4.205"/><path d="m114.63413 191.288819h-33.3611212c-10.0588433 0-18.2143749-8.163877-18.2143749-18.233428v-45.826659c0-10.071326 8.1555316-18.235203 18.2143749-18.235203h33.3611212c10.058844 0 18.210831 8.163877 18.210831 18.235203v45.826659c0 10.069551-8.151987 18.233428-18.210831 18.233428" fill="#f69b8a"/><path d="m114.63413 191.288819h-33.3611212c-10.0588433 0-18.2143749-8.163877-18.2143749-18.233428v-45.826659c0-10.071326 8.1555316-18.235203 18.2143749-18.235203h33.3611212c10.058844 0 18.210831 8.163877 18.210831 18.235203v45.826659c0 10.069551-8.151987 18.233428-18.210831 18.233428z" stroke="#181818" stroke-linecap="round" stroke-linejoin="round" stroke-width="4.205"/><path d="m148.054443 66.5717087-.880769 59.8512813c0 20.24379-16.390811 36.65494-36.60774 36.65494h-26.1058526c-20.2187005 0-36.6095113-16.41115-36.6095113-36.65494l.880769-59.8512813c0-27.4619278 22.2354313-49.721402 49.6615518-49.721402h.0017722c27.4261209 0 49.6597799 22.2594742 49.6597799 49.721402" fill="#f69b8a"/><path d="m109.295111 101.599196c0-12.8411171-10.3973286-23.2513472-23.2243032-23.2513472-12.8252026 0-23.2225306 10.4102301-23.2225306 23.2513472 0 12.844666 10.397328 23.254896 23.2225306 23.254896 12.8269746 0 23.2243032-10.41023 23.2243032-23.254896"/><path d="m157.443228 101.599196c0-12.8411171-10.397328-23.2513472-23.224303-23.2513472-12.825202 0-23.22253 10.4102301-23.22253 23.2513472 0 12.844666 10.397328 23.254896 23.22253 23.254896 12.826975 0 23.224303-10.41023 23.224303-23.254896"/><path d="m148.054443 66.5717087-.880769 59.8512813c0 20.24379-16.390811 36.65494-36.60774 36.65494h-26.1058526c-20.2187005 0-36.6095113-16.41115-36.6095113-36.65494l.880769-59.8512813c0-27.4619278 22.2354313-49.721402 49.6615518-49.721402h.0017722c27.4261209 0 49.6597799 22.2594742 49.6597799 49.721402z" stroke="#181818" stroke-linecap="round" stroke-linejoin="round" stroke-width="4.205"/><path d="m119.227244 95.9110975c0 3.6481051-2.952437 6.6042055-6.596021 6.6042055-3.641812 0-6.594249-2.9561004-6.594249-6.6042055" stroke="#181818" stroke-linecap="round" stroke-linejoin="round" stroke-width="4.205"/><path d="m85.4089018 88.8102453c0-1.653713 1.3379892-2.9933625 2.9896527-2.9933625s2.9914249 1.3396495 2.9914249 2.9933625c0 1.6554874-1.3397614 2.9933626-2.9914249 2.9933626s-2.9896527-1.3378752-2.9896527-2.9933626" fill="#231f20"/><path d="m131.229095 88.8102453c0-1.653713 1.339762-2.9933625 2.989653-2.9933625 1.651664 0 2.991425 1.3396495 2.991425 2.9933625 0 1.6554874-1.339761 2.9933626-2.991425 2.9933626-1.649891 0-2.989653-1.3378752-2.989653-2.9933626" fill="#231f20"/><path d="m116.710938 137.76299h-8.159076c-9.5041539 0-17.209554-7.714962-17.209554-17.230909v-7.172004h42.578184v7.172004c0 9.515947-7.7054 17.230909-17.209554 17.230909" fill="#fefefe"/><path d="m116.710938 137.76299h-8.159076c-9.5041539 0-17.209554-7.714962-17.209554-17.230909v-7.172004h42.578184v7.172004c0 9.515947-7.7054 17.230909-17.209554 17.230909z" stroke="#181818" stroke-linecap="round" stroke-linejoin="round" stroke-width="4.205"/><path d="m112.631754 163.077398v-9.41126" fill="#2f1815"/><path d="m112.631754 163.077398v-9.41126" stroke="#181818" stroke-linecap="round" stroke-linejoin="round" stroke-width="4.205"/><path d="m106.939718.85577875h-17.0943629c-28.8668957 0-52.2666434 23.43055855-52.2666434 52.33150055v8.0929025c0 4.9842059 1.2582415 9.6756408 3.4681389 13.7726616 1.9653378-2.0937569 4.6200502-3.5238993 7.6079307-3.9249069l.0762034-4.5619058v-.0443593c.0017722-2.4681489 1.999009-4.4660898 4.4640991-4.4660898h31.7147746c26.7792776 0 38.7644716-6.815356 38.7644716-22.0199343 12.632036 1.8276013 3.710926 19.4133845 20.222245 21.7520044 2.349899.3318072 4.153969 2.3563636 4.157513 4.7340197v.0443593l-.077975 4.634655c2.989652.5163417 5.621327 2.0653669 7.515777 4.2744578 2.356988-4.1981599 3.714471-9.0350931 3.714471-14.1949617v-8.0929025c0-28.900942-23.399748-52.33150055-52.266643-52.33150055" fill="#2f1815"/><path d="m106.939718.85577875h-17.0943629c-28.8668957 0-52.2666434 23.43055855-52.2666434 52.33150055v8.0929025c0 4.9842059 1.2582415 9.6756408 3.4681389 13.7726616 1.9653378-2.0937569 4.6200502-3.5238993 7.6079307-3.9249069l.0762034-4.5619058v-.0443593c.0017722-2.4681489 1.999009-4.4660898 4.4640991-4.4660898h31.7147746c26.7792776 0 38.7644716-6.815356 38.7644716-22.0199343 12.632036 1.8276013 3.710926 19.4133845 20.222245 21.7520044 2.349899.3318072 4.153969 2.3563636 4.157513 4.7340197v.0443593l-.077975 4.634655c2.989652.5163417 5.621327 2.0653669 7.515777 4.2744578 2.356988-4.1981599 3.714471-9.0350931 3.714471-14.1949617v-8.0929025c0-28.900942-23.399748-52.33150055-52.266643-52.33150055z" stroke="#181818" stroke-linecap="round" stroke-linejoin="round" stroke-width="4.205"/><path d="m202.524426 165.479008h-24.737737c-5.631959 0-10.197072-4.570778-10.197072-10.209727v-50.693756c0-5.6389489 4.565113-10.2097265 10.197072-10.2097265h24.737737c5.63196 0 10.197073 4.5707776 10.197073 10.2097265v50.693756c0 5.638949-4.565113 10.209727-10.197073 10.209727" fill="#fefefe"/><path d="m202.524426 165.479008h-24.737737c-5.631959 0-10.197072-4.570778-10.197072-10.209727v-50.693756c0-5.6389489 4.565113-10.2097265 10.197072-10.2097265h24.737737c5.63196 0 10.197073 4.5707776 10.197073 10.2097265v50.693756c0 5.638949-4.565113 10.209727-10.197073 10.209727z" stroke="#181818" stroke-linecap="round" stroke-linejoin="round" stroke-width="4.205"/><path d="m190.155558 104.815952c-2.303823 0-4.171691 1.87196-4.171691 4.176867 0 2.306682 1.867868 4.176868 4.171691 4.176868 2.303822 0 4.171691-1.870186 4.171691-4.176868 0-2.304907-1.867869-4.176867-4.171691-4.176867" fill="#bbbdbf"/><path d="m222.381781 106.259402c-4.795495 0-8.683638 3.892968-8.683638 8.696188v3.855707h-36.398623-12.93685-2.860284c-4.795495 0-8.683638 3.894742-8.683638 8.696188 0 4.80322 3.888143 8.694414 8.683638 8.694414h2.860284v.133078c-4.168146.638773-7.370459 4.210581-7.370459 8.561336 0 4.354305 3.202313 7.926112 7.370459 8.564885v.264381c-4.168146.636999-7.370459 4.210581-7.370459 8.563111 0 4.801446 3.886371 8.696188 8.683638 8.696188h.012405c2.502306 6.570493 8.352243 11.485499 15.469282 12.628193v104.041972h41.389057v-107.418598c5.146385-3.616167 8.518827-9.592246 8.518827-16.365017v-38.64046-6.419671-3.855707c0-4.80322-3.886372-8.696188-8.683639-8.696188" fill="#f8b39e"/><path d="m222.381781 106.259402c-4.795495 0-8.683638 3.892968-8.683638 8.696188v3.855707h-36.398623-12.93685-2.860284c-4.795495 0-8.683638 3.894742-8.683638 8.696188 0 4.80322 3.888143 8.694414 8.683638 8.694414h2.860284v.133078c-4.168146.638773-7.370459 4.210581-7.370459 8.561336 0 4.354305 3.202313 7.926112 7.370459 8.564885v.264381c-4.168146.636999-7.370459 4.210581-7.370459 8.563111 0 4.801446 3.886371 8.696188 8.683638 8.696188h.012405c2.502306 6.570493 8.352243 11.485499 15.469282 12.628193v104.041972h41.389057v-107.418598c5.146385-3.616167 8.518827-9.592246 8.518827-16.365017v-38.64046-6.419671-3.855707c0-4.80322-3.886372-8.696188-8.683639-8.696188z" stroke="#181818" stroke-linecap="round" stroke-linejoin="round" stroke-width="4.205"/><path d="m175.840137 203.895187h51.047389v-20.957086h-51.047389z" fill="#2f1815"/><path d="m175.840137 203.895187h51.047389v-20.957086h-51.047389z" stroke="#181818" stroke-linecap="round" stroke-linejoin="round" stroke-width="4.205"/><path d="m206.383683 209.607772h-10.037577c-4.804356 0-8.697816-3.900066-8.697816-8.710383v-14.96149c0-4.810317 3.89346-8.710383 8.697816-8.710383h10.037577c4.804356 0 8.697816 3.900066 8.697816 8.710383v14.96149c0 4.810317-3.89346 8.710383-8.697816 8.710383" fill="#fefefe"/><path d="m206.383683 209.607772h-10.037577c-4.804356 0-8.697816-3.900066-8.697816-8.710383v-14.96149c0-4.810317 3.89346-8.710383 8.697816-8.710383h10.037577c4.804356 0 8.697816 3.900066 8.697816 8.710383v14.96149c0 4.810317-3.89346 8.710383-8.697816 8.710383z" stroke="#181818" stroke-linecap="round" stroke-linejoin="round" stroke-width="4.205"/><path d="m47.8505701 228.181525v64.203811" fill="#2f1815"/><path d="m47.8505701 228.181525v64.203811" stroke="#181818" stroke-linecap="round" stroke-linejoin="round" stroke-width="4.205"/><path d="m148.054443 228.181525v64.203811" fill="#2f1815"/><path d="m148.054443 228.181525v64.203811" stroke="#181818" stroke-linecap="round" stroke-linejoin="round" stroke-width="4.205"/></g></g></g></svg>