<svg height="45" viewBox="0 0 45 45" width="45" xmlns="http://www.w3.org/2000/svg"><path d="m14.296761 34.1640108-4.2260617 4.2264837 9.0138584.00239c1.7829567.0546484 2.7642317 1.1630738 2.7130534 2.7118887-.0515664 1.5505802-1.4480472 2.8514897-2.8996626 2.8999521-1.4508976.0477446-16.16075969-.004472-16.16075969-.004472-.77468168.025599-1.46512621-.2650943-1.95636913-.7563863s-.78190724-1.1818055-.75596652-1.9562203c0 0-.05255571-14.7116754-.00481586-16.1627179.04845759-1.4517603 1.3492372-2.8483806 2.89966255-2.8999521 1.548316-.0515278 2.65697495.9301896 2.71127367 2.71298l.0026205 9.0152164 23.99099508-23.99339107c.0339211-.03392448.0684302-.06690721.1034947-.09894813l4.2260616-4.2264837-9.0138584-.00238996c-1.7829567-.05464842-2.7642317-1.16307381-2.7130534-2.71188872.0515665-1.55058019 1.4480472-2.8514897 2.8996626-2.89995213 1.4508976-.04774462 16.1607597.00447205 16.1607597.00447205.7746817-.02559902 1.4651262.26509432 1.9563691.7563863.491243.49129199.7819073 1.18180547.7559666 1.95622023 0 0 .0525557 14.71167543.0048158 16.16271793-.0484576 1.4517604-1.3492372 2.8483806-2.8996625 2.8999522-1.548316.0515277-2.656975-.9301896-2.7112737-2.7129801l-.0026205-9.0152163-23.9909951 23.993391c-.0339211.0339245-.0684302.0669072-.1034946.0989481z" fill-rule="evenodd" transform="translate(.795031 .795031)"/></svg>