<svg height="10" viewBox="0 0 10 10" width="10" xmlns="http://www.w3.org/2000/svg"><path d="m9.94684864.28354839c-.08042184-.18414392-.21960298-.27622829-.4182134-.27632755h-9.06799008c-.19833747 0-.33771712.09218363-.41801489.27632755-.08024814.1935732-.04722084.35898263.09923077.4959057l3.49272953 3.49263028v3.44305211c0 .12295285.04488834.22908188.13459057.31895781l1.81352357 1.81347395c.08508685.08967742.19131514.13468982.31888338.13468982.05662531 0 .11563275-.01188585.17704715-.03548387.18426799-.08034739.27642679-.21962779.27642679-.41799007v-5.25667494l3.49260546-3.49263027c.14650124-.13692308.17945411-.30228288.09918115-.49593052z"/></svg>