<svg height="121" viewBox="0 0 121 121" width="121" xmlns="http://www.w3.org/2000/svg" xmlns:xlink="http://www.w3.org/1999/xlink"><mask id="a" fill="#fff"><path d="m14.488 60.369c0 25.34 20.543 45.882 45.882 45.882 25.34 0 45.882-20.542 45.882-45.882 0-25.339-20.542-45.881-45.882-45.881-25.339 0-45.882 20.542-45.882 45.881z" fill="#fff" fill-rule="evenodd"/></mask><mask id="b" fill="#fff"><path d="m14.488 60.369c0 25.34 20.543 45.882 45.882 45.882 25.34 0 45.882-20.542 45.882-45.882 0-25.339-20.542-45.881-45.882-45.881-25.339 0-45.882 20.542-45.882 45.881z" fill="#fff" fill-rule="evenodd"/></mask><mask id="c" fill="#fff"><path d="m56.361 36.831a23.837 23.837 0 0 0 -12.523 6.598c-.012.012-.02.026-.031.038a23.883 23.883 0 0 0 -6.965 16.795c0 .032-.008.061-.008.091 0 .08.005.159.006.238a24.069 24.069 0 0 0 .087 1.813c.012.13.017.261.03.39a23.145 23.145 0 0 0 .269 1.848 23.721 23.721 0 0 0 .86 3.341c3.194 9.483 12.165 16.335 22.712 16.335a3.619 3.619 0 1 0 0-7.239c-6.908 0-12.851-4.209-15.398-10.199-.006-.011-.007-.023-.011-.034a16.828 16.828 0 0 1 -1.053-3.555l-.018-.102a15.988 15.988 0 0 1 -.165-1.209 17.166 17.166 0 0 1 -.065-1.01c-.004-.126-.008-.252-.01-.379a16.674 16.674 0 0 1 4.884-12.043l.012-.016a16.667 16.667 0 0 1 18.298-3.558c.158.066.318.104.478.147 4.584 2.08 8.012 6.581 9.285 11.439.061.231-.013 1.091-.612 1.091h-21.431c-1.999 0-3.62 2-3.62 3.999 0 2 1.621 4.001 3.62 4.001h21.973c2.284 0 4.404-1.877 5.817-3.671 1.408-1.79 1.919-4.912 1.398-7.126-1.748-7.444-7.012-13.655-14.079-16.613a3.618 3.618 0 0 0 -.759-.219 23.907 23.907 0 0 0 -12.981-1.191z" fill="#fff" fill-rule="evenodd"/></mask><g fill="none" fill-rule="evenodd"><path d="m.65 60.37c0-32.983 26.739-59.72 59.72-59.72s59.719 26.738 59.719 59.72c0 32.981-26.737 59.718-59.72 59.718-32.98 0-59.717-26.737-59.717-59.718" fill="#ffc431"/><path d="m18.146 102.672c23.817 23.815 61.133 23.32 84.454-.001 23.321-23.322 23.817-60.637.001-84.454z" fill="#efab22"/><path d="m14.488 60.37c0-25.34 20.542-45.882 45.882-45.882s45.882 20.542 45.882 45.881c0 25.34-20.542 45.882-45.882 45.882s-45.882-20.542-45.882-45.882" fill="#ffc431"/><path d="m146.099 44.964-108.66 108.659-19.433-18.297 108.659-108.659z" fill="#fff" fill-opacity=".3" mask="url(#a)"/><path d="m119.181 18.746-108.659 108.659-7.543-9.566 108.659-108.66z" fill="#fff" fill-opacity=".3" mask="url(#b)"/><path d="m14.488 60.37c0-25.34 20.542-45.882 45.882-45.882s45.882 20.542 45.882 45.881c0 25.34-20.542 45.882-45.882 45.882s-45.882-20.542-45.882-45.882z" mask="url(#b)" stroke="#c80" stroke-width="1.684"/><path d="m84.18 54.854c-1.749-7.444-7.013-13.654-14.08-16.613a3.63 3.63 0 0 0 -.757-.22 23.931 23.931 0 0 0 -12.982-1.19 23.84 23.84 0 0 0 -12.523 6.598c-.011.012-.02.026-.032.038a23.881 23.881 0 0 0 -6.963 16.796c0 .03-.01.06-.01.091 0 .08.006.158.007.237a22.673 22.673 0 0 0 .088 1.813c.01.13.016.26.029.39a24.53 24.53 0 0 0 .268 1.848c.204 1.122.486 2.216.84 3.28l.02.06c3.196 9.484 12.166 16.336 22.712 16.336a3.62 3.62 0 0 0 0-7.239c-6.907 0-12.85-4.21-15.397-10.199-.005-.01-.006-.023-.011-.034a16.928 16.928 0 0 1 -1.053-3.555l-.018-.102a16.63 16.63 0 0 1 -.161-1.168l-.004-.042a16.262 16.262 0 0 1 -.075-1.389 16.67 16.67 0 0 1 4.883-12.042l.014-.017a16.67 16.67 0 0 1 18.297-3.557c.157.066.319.104.478.147 4.584 2.08 8.013 6.581 9.284 11.44.063.23-.013 1.09-.612 1.09h-21.43c-2 0-3.62 2-3.62 4 0 1.998 1.62 4 3.62 4h21.973c2.284 0 4.403-1.877 5.816-3.67 1.41-1.79 1.92-4.913 1.4-7.127" fill="#c80" mask="url(#b)"/><path d="m144.642 44.964-108.659 108.659-19.434-18.297 108.659-108.659z" fill="#ef990f" mask="url(#c)"/><path d="m.65 60.37c0-32.983 26.739-59.72 59.72-59.72s59.719 26.738 59.719 59.72c0 32.981-26.737 59.718-59.72 59.718-32.98 0-59.717-26.737-59.717-59.718z" mask="url(#c)" stroke="#777" stroke-linecap="round" stroke-linejoin="round" stroke-width="3.302"/><path d="m33.97 34.448c-4.46-2.497-7.678-7.833-9.385-11.264a1.56 1.56 0 0 0 -2.8 0c-1.707 3.43-4.924 8.767-9.384 11.264a1.564 1.564 0 0 0 0 2.75c4.46 2.498 7.677 7.834 9.384 11.265a1.56 1.56 0 0 0 2.8 0c1.707-3.431 4.925-8.767 9.384-11.264a1.564 1.564 0 0 0 0-2.751" fill="#fff"/></g></svg>