<svg height="35" viewBox="0 0 35 35" width="35" xmlns="http://www.w3.org/2000/svg"><g fill="none"><path d="m17.2323405 0c9.5175542 0 17.2323404 7.71478628 17.2323404 17.2323405 0 9.5175542-7.7147862 17.2323404-17.2323404 17.2323404-9.51755422 0-17.2323405-7.7147862-17.2323405-17.2323404 0-9.51755422 7.71478628-17.2323405 17.2323405-17.2323405" fill="#ed6060"/><path d="m24.9196333 11.373044-5.9411808 5.9411808 5.9411808 5.9425063c.4495335.4629087.4495335 1.1993494 0 1.6622581-.2545084.2545084-.5090168.319461-.8284779.319461s-.5739695-.1299053-.8284779-.3181355l-5.9478086-5.9425063-5.9478086 5.9411808c-.2545084.2545084-.5090168.319461-.828478.319461-.3181355 0-.57396943-.1299053-.82715229-.3181355-.4503923-.4630747-.4503923-1.2005088 0-1.6635836l5.94118079-5.9425063-5.94118079-5.9411808c-.44953346-.4629087-.44953346-1.1993494 0-1.66225812.46290869-.44953346 1.19934939-.44953346 1.66225809 0l5.9411808 5.94118082 5.9425063-5.94118082c.4629087-.44953346 1.1993494-.44953346 1.6622581 0 .450692.44936642.450692 1.14793902 0 1.66225812" fill="#fff"/></g></svg>