<svg height="89" viewBox="0 0 89 89" width="89" xmlns="http://www.w3.org/2000/svg"><g fill="none" transform="translate(1 1)"><path d="m86.3923077 87.1538462c.1692308.0846153.4230769 0 .5076923 0 .5076923-.1692308.7615385-.8461539.5076923-1.3538462l-20.3923077-48.9076923c-.0846154-.0846154-.0846154-.1692308-.1692308-.3384615-.4230769-.423077-1.0153846-.423077-1.4384615 0l-28.6 28.3461538c-.0846154.0846154-.1692308.1692308-.1692308.3384615-.1692307.5076923 0 1.1.5076923 1.3538462l48.9076924 20.4769231h.3384615z" fill="#787878"/><path d="m72.1769231 79.2-9.9-4.1461538 13.0307692-13.0307693 4.1461539 9.9" fill="#d14a43"/><path d="m60.1615385 74.1230769-9.9-4.1461538 20.0538461-19.9692308 4.1461539 9.9" fill="#fff"/><path d="m48.2307692 69.3-8.9692307-3.8923077 26.4-26.4 3.7230769 9.0538462" fill="#d14a43"/><path d="m80.1307692 73.7846154 4.4846154 10.5769231-10.5769231-4.4" fill="#fff"/><path d="m56.7769231 36.5538462c-1.9461539-2.1153847-3.3-4.7384616-3.8923077-7.5307693-.5923077-2.6230769-.5076923-5.2461538.1692308-7.8692307.0846153-.3384616-.0846154-.6769231-.423077-.7615385l-.7615384-.2538462c-.3384616-.0846153-.7615385.0846154-.8461539.423077-.7615384 2.876923-.7615384 6.0076923-.0846154 8.8846153.6769231 3.2153847 2.2 6.0923077 4.4 8.5461539.2538462.2538461.6769231.2538461.9307693 0l.5076923-.5076923c.1692307-.2538462.1692307-.5923077 0-.9307692z" fill="#787878"/><path d="m47.6384615 10.8307692-.8461538 3.723077c-.0846154.5076923.3384615 1.0153846.8461538.8461538l3.8076923-.9307692c.2538462-.0846154.5076924 0 .6769231.1692307l2.8769231 2.7076923c.4230769.3384616 1.0153846.1692308 1.1846154-.3384615l1.1-3.7230769c.0846154-.2538462.2538461-.4230769.5076923-.5076923l3.7230769-1.1c.5076923-.1692308.6769231-.8461539.3384616-1.1846154l-2.623077-2.87692308c-.1692307-.16923077-.2538461-.42307693-.1692307-.67692308l.9307692-3.80769231c.1692308-.50769231-.3384615-1.01538461-.8461539-.84615385l-3.8076923.93076924c-.2538461.08461538-.5076923 0-.676923-.16923077l-2.8769231-2.70769231c-.4230769-.33846154-1.0153846-.16923077-1.1846154.33846154l-1.1846154 3.89230769c-.0846154.25384615-.2538461.42307692-.5076923.50769231l-3.7230769 1.1c-.5076923.16923077-.6769231.84615384-.3384616 1.18461538l2.7076924 2.87692304c.0846153.0846154.1692307.3384616.0846153.5923077z" fill="#f7c554" stroke="#787878" stroke-width="1.269231"/><path d="m36.8076923 56.5230769c.2538462.2538462.6769231.2538462 1.0153846 0l.4230769-.4230769c.2538462-.2538462.2538462-.7615385 0-1.0153846-2.3692307-2.1153846-5.3307692-3.7230769-8.4615384-4.4-2.8769231-.6769231-5.9230769-.5923077-8.8.0846154-.4230769.0846154-.5923077.5076923-.5076923.9307692l.1692307.5076923c.0846154.3384615.5076924.5076923.8461539.4230769 2.5384615-.676923 5.2461538-.676923 7.8692308-.1692307 2.7076923.676923 5.3307692 2.1153846 7.4461538 4.0615384z" fill="#787878"/><path d="m4.73846154 49.1615385-3.72307692 1.0153846c-.50769231.1692307-.67692308.8461538-.33846154 1.1846154l2.7076923 2.876923c.16923077.1692308.25384616.423077.16923077.6769231l-.93076923 3.8076923c-.16923077.5076923.33846154 1.0153846.84615385.8461539l3.80769231-.9307693c.25384615-.0846153.5076923 0 .67692307.1692308l2.87692305 2.7076923c.423077.3384616 1.0153846.1692308 1.1846154-.3384615l1.1-3.7230769c.0846154-.2538462.2538462-.423077.5076923-.5076924l3.7230769-1.1c.5076924-.1692307.6769231-.8461538.3384616-1.1846153l-2.7076923-2.8769231c-.1692308-.1692308-.2538462-.4230769-.1692308-.6769231l.9307692-3.8076923c.1692308-.5076923-.3384615-1.0153846-.8461538-.8461538l-3.8076923.9307692c-.2538462.0846154-.5076923 0-.6769231-.1692308l-2.87692307-2.6230769c-.42307692-.3384615-1.01538461-.1692308-1.18461538.3384615l-1.1 3.8076923c-.08461539.1692308-.33846154.3384616-.50769231.423077z" fill="#f7c554" stroke="#787878" stroke-width="1.269231"/><path d="m21.8307692 22.0846154-3.6384615 1.1c-.5076923.1692308-.6769231.8461538-.3384615 1.1846154l2.7076923 2.876923c.1692307.1692308.2538461.423077.1692307.6769231l-.9307692 3.8076923c-.1692308.5076923.3384615 1.0153846.8461538.8461539l3.8076924-.9307693c.2538461-.0846153.5076923 0 .676923.1692308l2.8769231 2.7076923c.4230769.3384616 1.0153846.1692308 1.1846154-.3384615l1.1-3.7230769c.0846154-.2538462.2538461-.423077.5076923-.5076923l3.7230769-1.1c.5076923-.1692308.6769231-.8461539.3384616-1.1846154l-2.7076923-2.8769231c-.1692308-.1692308-.2538462-.4230769-.1692308-.6769231l.9307692-3.8076923c.1692308-.5076923-.3384615-1.0153846-.8461538-.8461538l-3.8923077.9307692c-.2538462.0846154-.5076923 0-.6769231-.1692308l-2.8769231-2.7076923c-.4230769-.3384615-1.0153846-.1692308-1.1846154.3384616l-1.1 3.7230769c-.0846153.2538461-.3384615.4230769-.5076923.5076923z" fill="#f7c554" stroke="#787878" stroke-width="1.269231"/><path d="m35.3692308 35.4538462.3384615-.3384616c.2538462-.2538461.7615385-.2538461 1.0153846 0l10.1538462 10.1538462c.2538461.2538461.2538461.7615384 0 1.0153846l-.3384616.3384615c-.2538461.2538462-.7615384.2538462-1.0153846 0l-10.1538461-10.1538461c-.2538462-.2538462-.2538462-.6769231 0-1.0153846z" fill="#787878"/><g fill="#0d0e0e"><path d="m22.2538462 22.5923077-4.0615385 1.2692308 3.4692308 3.5538461-1.2692308 4.5692308 4.7384615-1.1846154 3.3846154 3.3 1.5230769-4.4846154z" opacity=".07"/><path d="m48.9923077 5.07692308-4.2307692 1.35384615 3.5538461 3.72307697-1.2692308 4.9076923 4.9923077-1.2692308 3.6384616 3.4692308 1.6076923-4.7384616z" opacity=".07"/><path d="m4.90769231 49.6692308-4.14615385 1.2692307 3.46923077 3.6384616-1.18461538 4.6538461 4.82307692-1.1846154 3.46923073 3.3846154 1.523077-4.5692307z" opacity=".07"/></g></g></svg>