<svg height="24" viewBox="0 0 24 24" width="24" xmlns="http://www.w3.org/2000/svg"><g fill="none" fill-rule="evenodd"><circle cx="12" cy="12" fill="#fff" r="12"/><path d="m16.506 16.845c.31-.38.62-.896.62-1.583 0-.982-.716-1.902-2.062-1.902-.405 0-.774.049-1.107.147-.346-.172-.513-.43-.513-.663 0-.245.131-.417.572-.417h2.657v-2.074h1.31v-1.338h-7.088v1.338h4.157v.736h-1.44c-1.109 0-1.788.577-1.788 1.424 0 .626.286 1.166.953 1.57-.512.418-.81.982-.81 1.596 0 1.866 1.87 2.75 4.038 2.97l.727-1.387c-2.561-.208-3.145-.822-3.145-1.522 0-.613.572-1.055 1.477-1.055.358 0 .596.16.596.43 0 .343-.238.625-.512.908zm-5.558-6.492v-1.338h-1.25v-.847c0-.871.571-1.313 1.536-1.313 1.62 0 2.668.773 3.3 1.57l1.06-1.042c-.489-.663-1.954-2-4.336-2-1.906 0-3.24.981-3.24 2.797v.835h-1.25v1.338h1.25v6.897h1.68v-6.897zm4.609-3.682a1.03 1.03 0 0 0 1.024 1.043c.608 0 1.06-.466 1.06-1.043 0-.638-.452-1.105-1.06-1.105-.572 0-1.024.467-1.024 1.105z" fill="#777" fill-rule="nonzero"/></g></svg>