<svg height="50" viewBox="0 0 52 50" width="52" xmlns="http://www.w3.org/2000/svg"><g fill="none" fill-rule="evenodd"><path d="m46.904 26.468h.58c2.064 0 3.74-1.657 3.74-3.696 0-2.04-1.676-3.697-3.74-3.697h-11.861c-.71 0-1.162-.573-1.099-1.275.775-5.098 1.872-6.818 2.388-12.109.515-5.098-6.833-5.99-7.867-1.275-1.998 8.797-9.348 14.66-11.734 16.443-.515.384-.774.893-.774 1.53v21.033c0 .764.452 1.401 1.162 1.721 2.578 1.082 5.607 3.505 14.377 3.505h13.666c2.065 0 3.741-1.659 3.741-3.696 0-2.041-1.676-3.698-3.74-3.698h.45c1.872 0 3.612-1.338 3.87-3.186.324-2.23-1.481-4.205-3.74-4.205h.453c1.87 0 3.61-1.34 3.867-3.19.258-2.292-1.483-4.205-3.74-4.205" fill="#4abfe4"/><path d="m46.502 26.468h.58c2.063 0 3.739-1.657 3.739-3.696 0-2.04-1.676-3.697-3.74-3.697h-11.861c-.71 0-1.162-.573-1.097-1.275.773-5.098 1.872-6.818 2.386-12.109.515-5.098-6.833-5.99-7.867-1.275-1.998 8.797-9.348 14.66-11.733 16.443-.516.384-.775.893-.775 1.53v21.033c0 .764.452 1.401 1.162 1.721 2.58 1.082 5.609 3.505 14.378 3.505h13.666c2.063 0 3.741-1.659 3.741-3.696 0-2.041-1.678-3.698-3.74-3.698h.45c1.872 0 3.61-1.338 3.868-3.186.324-2.23-1.48-4.205-3.737-4.205h.451c1.868 0 3.61-1.34 3.866-3.19.26-2.292-1.481-4.205-3.737-4.205" fill="#fff" stroke="#777"/><path d="m11.766 21.37h-9.22a1.86 1.86 0 0 0 -1.87 1.848v19.504a1.86 1.86 0 0 0 1.87 1.848h9.22a1.86 1.86 0 0 0 1.87-1.848v-19.504a1.86 1.86 0 0 0 -1.87-1.848" fill="#e85554"/><path d="m11.766 21.37h-9.22a1.86 1.86 0 0 0 -1.87 1.848v19.504a1.86 1.86 0 0 0 1.87 1.848h9.22a1.86 1.86 0 0 0 1.87-1.848v-19.504a1.86 1.86 0 0 0 -1.87-1.848z" stroke="#777" stroke-width="1.35"/><path d="m7.188 40.49c-1.094 0-1.996-.892-1.996-1.974 0-1.086.902-1.977 1.996-1.977 1.097 0 1.998.89 1.998 1.977 0 1.082-.901 1.975-1.998 1.975" fill="#fefefe"/></g></svg>