<svg height="121" viewBox="0 0 121 121" width="121" xmlns="http://www.w3.org/2000/svg" xmlns:xlink="http://www.w3.org/1999/xlink"><mask id="a" fill="#fff"><path d="m.606.221h102.778v102.779h-102.778z" fill="#fff" fill-rule="evenodd"/></mask><g fill="none" fill-rule="evenodd"><path d="m0 60.097c0-33.19 26.906-60.097 60.097-60.097s60.097 26.907 60.097 60.097c0 33.191-26.906 60.098-60.097 60.098s-60.097-26.907-60.097-60.098" fill="#81ce74"/><path d="m.606 85.212c23.968 23.966 61.52 23.467 84.989-.002s23.968-61.02.001-84.989z" fill="#83c474" mask="url(#a)" transform="translate(17 17.456)"/><path d="m9.707 60.097c0-27.829 22.56-50.389 50.39-50.389s50.39 22.56 50.39 50.39-22.56 50.39-50.39 50.39-50.39-22.56-50.39-50.39" fill="#8edb7d"/><g stroke="#fff" stroke-linecap="round" stroke-linejoin="round" stroke-width="1.43"><path d="m84.635 63.662-22.358.046v24.974m-21.732-46.838 21.732 21.864"/><path d="m78.974 46.967-16.697 16.74 16.673 16.673"/><path d="m31.428 63.739 30.85-.031v-30.331m-.001 30.331-9.088-21.442m-8.435 46.724 17.523-25.282"/></g><path d="m57.253 19.684a7.105 7.105 0 0 0 0 10.047l5.023 5.023 5.024-5.023a7.105 7.105 0 0 0 -10.047-10.047m-29.574 16.341a7.104 7.104 0 0 0 7.083 7.126l7.105.021.02-7.104a7.105 7.105 0 0 0 -14.208-.043m39.621 65.746a7.105 7.105 0 0 0 0-10.047l-5.023-5.023-5.023 5.023a7.105 7.105 0 0 0 10.046 10.047m-47.815-33.086a7.105 7.105 0 0 0 10.047 0l5.024-5.023-5.024-5.024a7.105 7.105 0 0 0 -10.047 10.047m78.622-10.047a7.105 7.105 0 0 0 -10.047 0l-5.024 5.023 5.024 5.024a7.105 7.105 0 0 0 10.047-10.047m-10.803 24.952a5.179 5.179 0 0 0 -5.168-5.19l-5.18-.013-.01 5.18a5.18 5.18 0 0 0 10.358.023m-40.768-47.7a5.18 5.18 0 0 0 2.843 6.75l4.798 1.955 1.953-4.797a5.18 5.18 0 0 0 -9.594-3.908" fill="#fff"/><path d="m62.277 63.708-20.847 10.382" stroke="#fff" stroke-linecap="round" stroke-linejoin="round" stroke-width="1.43"/><path d="m35.475 81.123a5.18 5.18 0 0 0 6.564-3.252l1.656-4.907-4.907-1.656a5.18 5.18 0 0 0 -3.313 9.814m48.579-46.315a7.105 7.105 0 0 0 -7.11 7.098l-.007 7.105 7.104.006a7.104 7.104 0 1 0 .013-14.209m-40.685 64.905a7.104 7.104 0 0 0 5.742-8.244l-1.251-6.993-6.993 1.251a7.105 7.105 0 1 0 2.502 13.986" fill="#fff"/></g></svg>