<svg height="18" viewBox="0 0 18 18" width="18" xmlns="http://www.w3.org/2000/svg"><g fill="none" fill-rule="evenodd"><circle cx="9" cy="9" fill="#c80707" r="9"/><g fill="#fff"><path d="m2 9a7 7 0 1 1 7 7 7.008 7.008 0 0 1 -7-7zm11.667.467a.467.467 0 1 1 0-.934h1.376a6.067 6.067 0 0 0 -5.576-5.576v1.376a.467.467 0 1 1 -.934 0v-1.376a6.067 6.067 0 0 0 -5.576 5.576h1.376a.467.467 0 1 1 0 .934h-1.376a6.067 6.067 0 0 0 5.576 5.576v-1.376a.467.467 0 1 1 .934 0v1.376a6.067 6.067 0 0 0 5.576-5.576z" fill-rule="nonzero"/><text font-family="Roboto-Bold, Roboto" font-size="6" font-weight="bold"><tspan x="5.458" y="11">10</tspan></text></g></g></svg>