<svg height="24" viewBox="0 0 21 24" width="21" xmlns="http://www.w3.org/2000/svg"><g fill="none" fill-rule="evenodd" transform="translate(1)"><rect fill="#f9d35b" height="19.5" rx="1" width="17" x="1" y="3"/><path d="m17.915 23.412h-16.915a1 1 0 0 1 -1-1v-19.277c0-.627.56-1.135 1.248-1.135h16.42c.689 0 1.247.508 1.247 1.135v19.277a1 1 0 0 1 -1 1z" stroke="#777" stroke-width=".726"/><path d="m5.482 3.79h8.55v-3.426h-8.55z" fill="#006eb2"/><path d="m6.482 3.79h6.55a1 1 0 0 0 1-1v-1.426a1 1 0 0 0 -1-1h-6.55a1 1 0 0 0 -1 1v1.426a1 1 0 0 0 1 1z" stroke="#fefefe" stroke-width=".726"/><g fill="#006eb2"><rect height="1" rx=".286" width="6.25" x="8.375" y="12"/><rect height="1" rx=".286" width="6.25" x="8.375" y="18"/><rect height="1" rx=".286" width="6.25" x="8.375" y="5"/><rect height="1" rx=".286" width="3" x="8.375" y="6.286"/><rect height="1" rx=".286" width="3" x="8.375" y="13.429"/><rect height="1" rx=".286" width="3" x="8.375" y="19.429"/><path d="m3.625 13.786h1.887v-1.7h-1.887zm1.912.445h-1.943c-.257 0-.469-.191-.469-.422v-1.752c0-.23.212-.422.469-.422h1.943c.256 0 .469.191.469.422v1.752c-.006.23-.213.422-.469.422zm-1.912 6.049h1.887v-1.7h-1.887zm1.912.445h-1.943c-.257 0-.469-.191-.469-.422v-1.751c0-.232.212-.423.469-.423h1.943c.256 0 .469.191.469.423v1.751c-.006.23-.213.422-.469.422z"/></g><path d="m7.808 9.599-3.3 3.093-.488-.628a.354.354 0 0 0 -.479-.074.313.313 0 0 0 -.078.449l.731.93a.36.36 0 0 0 .253.131h.026a.327.327 0 0 0 .244-.098l3.579-3.354a.302.302 0 0 0 0-.457.361.361 0 0 0 -.488.008" fill="#000"/><path d="m3.625 7.137h1.887v-1.7h-1.887zm1.912.445h-1.943c-.257 0-.469-.192-.469-.423v-1.751c0-.23.212-.422.469-.422h1.943c.256 0 .469.191.469.422v1.757c-.006.231-.213.417-.469.417z" fill="#006eb2"/></g></svg>