<svg xmlns="http://www.w3.org/2000/svg" xmlns:xlink="http://www.w3.org/1999/xlink" version="1.1" viewBox="0 0 224 224" width="26px" height="26px"><g fill="none" fill-rule="nonzero" stroke="none" stroke-width="1" stroke-linecap="butt" stroke-linejoin="miter" stroke-miterlimit="10" stroke-dasharray="" stroke-dashoffset="0" font-family="none" font-weight="none" font-size="none" text-anchor="none" style="mix-blend-mode: normal"><path d="M0,224v-224h224v224z" fill="none"/><g fill="#e33e3e"><g id="surface1"><path d="M137.84615,0c-19.04807,0 -35.50481,7.90866 -45.76923,20.73077c-10.26442,12.82211 -14.53846,29.44712 -14.53846,47.38462v9.42308h25.84615v-9.42308c0,-13.59615 3.36538,-24.29807 8.88462,-31.23077c5.51923,-6.93269 13.02404,-11.03846 25.57692,-11.03846c12.58654,0 20.05769,3.87019 25.57692,10.76923c5.51923,6.89904 8.88462,17.73558 8.88462,31.5v9.42308h25.84615v-9.42308c0,-18.03846 -4.54327,-34.83173 -14.80769,-47.65385c-10.26442,-12.82211 -26.48558,-20.46154 -45.5,-20.46154zM77.53846,86.15385c-14.26923,0 -25.84615,11.57692 -25.84615,25.84615v86.15385c0,14.26923 11.57692,25.84615 25.84615,25.84615h120.61538c14.26923,0 25.84615,-11.57692 25.84615,-25.84615v-86.15385c0,-14.26923 -11.57692,-25.84615 -25.84615,-25.84615zM137.84615,129.23077c9.52404,0 17.23077,7.70673 17.23077,17.23077c0,6.36057 -3.46635,11.8125 -8.61538,14.80769v19.65385c0,4.74519 -3.87019,8.61538 -8.61538,8.61538c-4.74519,0 -8.61538,-3.87019 -8.61538,-8.61538v-19.65385c-5.14904,-2.99519 -8.61538,-8.44712 -8.61538,-14.80769c0,-9.52404 7.70673,-17.23077 17.23077,-17.23077z"/></g></g></g></svg>