<svg height="122" viewBox="0 0 136 122" width="136" xmlns="http://www.w3.org/2000/svg" xmlns:xlink="http://www.w3.org/1999/xlink"><mask id="a" fill="#fff"><path d="m.143 52.22c0 28.408 23.031 51.438 51.44 51.438s51.439-23.03 51.439-51.438c0-28.41-23.03-51.44-51.439-51.44s-51.44 23.03-51.44 51.44" fill="#fff" fill-rule="evenodd"/></mask><mask id="b" fill="#fff"><path d="m.143 52.22c0 28.408 23.031 51.438 51.44 51.438s51.439-23.03 51.439-51.438c0-28.41-23.03-51.44-51.439-51.44s-51.44 23.03-51.44 51.44" fill="#fff" fill-rule="evenodd"/></mask><mask id="c" fill="#fff"><path d="m.143 52.22c0 28.408 23.031 51.438 51.44 51.438s51.439-23.03 51.439-51.438c0-28.41-23.03-51.44-51.439-51.44s-51.44 23.03-51.44 51.44" fill="#fff" fill-rule="evenodd"/></mask><mask id="d" fill="#fff"><path d="m.143 52.22c0 28.408 23.031 51.438 51.44 51.438s51.439-23.03 51.439-51.438c0-28.41-23.03-51.44-51.439-51.44s-51.44 23.03-51.44 51.44" fill="#fff" fill-rule="evenodd"/></mask><mask id="e" fill="#fff"><path d="m.143 52.22c0 28.408 23.031 51.438 51.44 51.438s51.439-23.03 51.439-51.438c0-28.41-23.03-51.44-51.439-51.44s-51.44 23.03-51.44 51.44" fill="#fff" fill-rule="evenodd"/></mask><mask id="f" fill="#fff"><path d="m.143 52.22c0 28.408 23.031 51.438 51.44 51.438s51.439-23.03 51.439-51.438c0-28.41-23.03-51.44-51.439-51.44s-51.44 23.03-51.44 51.44z" fill="#fff" fill-rule="evenodd"/></mask><mask id="g" fill="#fff"><path d="m.143 52.22c0 28.408 23.031 51.438 51.44 51.438s51.439-23.03 51.439-51.438c0-28.41-23.03-51.44-51.439-51.44s-51.44 23.03-51.44 51.44z" fill="#fff" fill-rule="evenodd"/></mask><g fill="none" fill-rule="evenodd"><path d="m9.143 60.58c0-28.409 23.03-51.439 51.44-51.439s51.44 23.03 51.44 51.44c0 28.408-23.03 51.438-51.44 51.438s-51.44-23.03-51.44-51.439" fill="#eaeaea"/><path d="m34.694 39.847c0-9.327 7.562-16.889 16.89-16.889 9.326 0 16.887 7.562 16.887 16.89 0 9.326-7.56 16.887-16.888 16.887-9.327 0-16.889-7.56-16.889-16.888" fill="#bcbcbc" mask="url(#a)" transform="translate(9 8.361)"/><path d="m42.352 39.847a9.23 9.23 0 0 1 9.23-9.23" mask="url(#b)" stroke="#e0e0e0" stroke-linecap="round" stroke-linejoin="round" stroke-width="3.228" transform="translate(9 8.361)"/><path d="m51.583 22.959c-1.522 0-2.991.22-4.394.598 7.193 1.936 12.495 8.486 12.495 16.29 0 7.805-5.302 14.355-12.495 16.29 1.403.379 2.872.599 4.394.599 9.327 0 16.888-7.561 16.888-16.888s-7.561-16.89-16.888-16.89" fill="#9b9b9b" mask="url(#c)" transform="translate(9 8.361)"/><path d="m60.24 72.036h-16.227c-17.69 0-32.03 11.33-32.03 29.02v13.288h80.287v-13.289c0-17.689-14.34-29.019-32.03-29.019" fill="#777" mask="url(#d)" transform="translate(9 8.361)"/><path d="m60.24 72.064h-16.227c-.616 0-1.302.004-1.909.03 16.836.757 30.12 11.888 30.12 28.962v14.008h20v-14.008c0-17.69-14.295-28.992-31.984-28.992" fill="#636363" mask="url(#e)" transform="translate(9 8.361)"/><g stroke-linecap="round" stroke-linejoin="round"><path d="m60.24 72.036h-16.227c-17.69 0-32.03 11.33-32.03 29.02v13.288h80.287v-13.289c0-17.689-14.34-29.019-32.03-29.019z" mask="url(#f)" stroke="#777" stroke-width="3.311" transform="translate(9 8.361)"/><path d="m34.694 39.847c0-9.327 7.562-16.889 16.89-16.889 9.326 0 16.887 7.562 16.887 16.89 0 9.326-7.56 16.887-16.888 16.887-9.327 0-16.889-7.56-16.889-16.888z" mask="url(#g)" stroke="#777" stroke-width="2.452" transform="translate(9 8.361)"/><path d="m60.583 116.176c-30.704 0-55.594-24.89-55.594-55.593 0-30.704 24.89-55.594 55.594-55.594 17.642 0 33.364 8.217 43.548 21.034" stroke="#1fbaea" stroke-width="9.979"/></g><path d="m115.686 53.425h-19.461v54.441l19-12.53 19 12.53v-54.44z" fill="#ffc431"/><path d="m115.225 53.045v42.36l19 12.462v-54.814s-17-.115-19-.008" fill="#efab22"/><path d="m94.725 53.925v53.941l19.5-12.53 19.5 12.53v-53.94z" stroke="#777" stroke-linecap="round" stroke-linejoin="round" stroke-width="3"/></g></svg>