<svg height="122" viewBox="0 0 167 122" width="167" xmlns="http://www.w3.org/2000/svg" xmlns:xlink="http://www.w3.org/1999/xlink"><mask id="a" fill="#fff"><path d="m.143 52.22c0 28.408 23.031 51.438 51.44 51.438s51.439-23.03 51.439-51.438c0-28.41-23.03-51.44-51.439-51.44s-51.44 23.03-51.44 51.44" fill="#fff" fill-rule="evenodd"/></mask><mask id="b" fill="#fff"><path d="m.143 52.22c0 28.408 23.031 51.438 51.44 51.438s51.439-23.03 51.439-51.438c0-28.41-23.03-51.44-51.439-51.44s-51.44 23.03-51.44 51.44" fill="#fff" fill-rule="evenodd"/></mask><mask id="c" fill="#fff"><path d="m.143 52.22c0 28.408 23.031 51.438 51.44 51.438s51.439-23.03 51.439-51.438c0-28.41-23.03-51.44-51.439-51.44s-51.44 23.03-51.44 51.44" fill="#fff" fill-rule="evenodd"/></mask><mask id="d" fill="#fff"><path d="m.143 52.22c0 28.408 23.031 51.438 51.44 51.438s51.439-23.03 51.439-51.438c0-28.41-23.03-51.44-51.439-51.44s-51.44 23.03-51.44 51.44" fill="#fff" fill-rule="evenodd"/></mask><mask id="e" fill="#fff"><path d="m.143 52.22c0 28.408 23.031 51.438 51.44 51.438s51.439-23.03 51.439-51.438c0-28.41-23.03-51.44-51.439-51.44s-51.44 23.03-51.44 51.44" fill="#fff" fill-rule="evenodd"/></mask><mask id="f" fill="#fff"><path d="m.143 52.22c0 28.408 23.031 51.438 51.44 51.438s51.439-23.03 51.439-51.438c0-28.41-23.03-51.44-51.439-51.44s-51.44 23.03-51.44 51.44z" fill="#fff" fill-rule="evenodd"/></mask><mask id="g" fill="#fff"><path d="m.143 52.22c0 28.408 23.031 51.438 51.44 51.438s51.439-23.03 51.439-51.438c0-28.41-23.03-51.44-51.439-51.44s-51.44 23.03-51.44 51.44z" fill="#fff" fill-rule="evenodd"/></mask><mask id="h" fill="#fff"><path d="m10.152.965a11.203 11.203 0 0 0 -5.893 3.105c-.006.005-.01.011-.015.018a11.233 11.233 0 0 0 -3.277 7.904c0 .014-.005.027-.005.042 0 .038.003.075.003.111a13.201 13.201 0 0 0 .041.854c.006.061.008.122.015.184a10.221 10.221 0 0 0 .126.87 11.026 11.026 0 0 0 .405 1.571c1.503 4.463 5.725 7.688 10.687 7.688a1.704 1.704 0 1 0 0-3.407c-3.25 0-6.046-1.981-7.246-4.8l-.004-.016a7.887 7.887 0 0 1 -.496-1.673l-.008-.048a7.875 7.875 0 0 1 -.077-.549l-.001-.02a7.57 7.57 0 0 1 -.031-.475l-.004-.179a7.85 7.85 0 0 1 2.298-5.667l.006-.007a7.84 7.84 0 0 1 8.611-1.674c.073.03.149.049.225.068 2.157.979 3.77 3.248 4.369 5.535.029.109-.006.664-.288.664h-10.085c-.942 0-1.704 1.06-1.704 2 0 .942.762 2 1.704 2h10.34c1.075 0 2.073-1.151 2.738-1.995.663-.843.902-2.581.658-3.623a11.306 11.306 0 0 0 -6.626-7.818 1.609 1.609 0 0 0 -.357-.103 11.301 11.301 0 0 0 -4.044-.752c-.688 0-1.379.064-2.065.192z" fill="#fff" fill-rule="evenodd"/></mask><g fill="none" fill-rule="evenodd"><path d="m9.143 60.58c0-28.409 23.03-51.439 51.44-51.439s51.44 23.03 51.44 51.44c0 28.408-23.03 51.438-51.44 51.438s-51.44-23.03-51.44-51.439" fill="#eaeaea"/><path d="m34.694 39.847c0-9.327 7.562-16.889 16.89-16.889 9.326 0 16.887 7.562 16.887 16.89 0 9.326-7.56 16.887-16.888 16.887-9.327 0-16.889-7.56-16.889-16.888" fill="#bcbcbc" mask="url(#a)" transform="translate(9 8.361)"/><path d="m42.352 39.847a9.23 9.23 0 0 1 9.23-9.23" mask="url(#b)" stroke="#e0e0e0" stroke-linecap="round" stroke-linejoin="round" stroke-width="3.228" transform="translate(9 8.361)"/><path d="m51.583 22.959c-1.522 0-2.991.22-4.394.598 7.193 1.936 12.495 8.486 12.495 16.29 0 7.805-5.302 14.355-12.495 16.29 1.403.379 2.872.599 4.394.599 9.327 0 16.888-7.561 16.888-16.888s-7.561-16.89-16.888-16.89" fill="#9b9b9b" mask="url(#c)" transform="translate(9 8.361)"/><path d="m60.24 72.036h-16.227c-17.69 0-32.03 11.33-32.03 29.02v13.288h80.287v-13.289c0-17.689-14.34-29.019-32.03-29.019" fill="#777" mask="url(#d)" transform="translate(9 8.361)"/><path d="m60.24 72.064h-16.227c-.616 0-1.302.004-1.909.03 16.836.757 30.12 11.888 30.12 28.962v14.008h20v-14.008c0-17.69-14.295-28.992-31.984-28.992" fill="#636363" mask="url(#e)" transform="translate(9 8.361)"/><g stroke-linecap="round" stroke-linejoin="round"><path d="m60.24 72.036h-16.227c-17.69 0-32.03 11.33-32.03 29.02v13.288h80.287v-13.289c0-17.689-14.34-29.019-32.03-29.019z" mask="url(#f)" stroke="#777" stroke-width="3.311" transform="translate(9 8.361)"/><path d="m34.694 39.847c0-9.327 7.562-16.889 16.89-16.889 9.326 0 16.887 7.562 16.887 16.89 0 9.326-7.56 16.887-16.888 16.887-9.327 0-16.889-7.56-16.889-16.888z" mask="url(#g)" stroke="#777" stroke-width="2.452" transform="translate(9 8.361)"/><path d="m60.583 116.176c-30.704 0-55.594-24.89-55.594-55.593 0-30.704 24.89-55.594 55.594-55.594 17.642 0 33.364 8.217 43.548 21.034" stroke="#1fbaea" stroke-width="9.979"/></g><path d="m136.24 52.164a14.472 14.472 0 0 0 -.688-.03 15.74 15.74 0 0 0 -.715.03c-11.26.762-19.69 9.954-19.69 21.103 0 13.592 12.078 18.41 12.078 23.727v.432h17v-.432c0-5.317 11.892-10.122 11.892-23.715 0-11.15-8.616-20.353-19.876-21.115" fill="#ffc431"/><path d="m142.032 53.364c5.33 4.269 8.62 10.501 8.62 17.421 0 14.946-14.427 20.216-14.427 26.062v.579h8v-.433c0-5.316 11.892-10.121 11.892-23.714 0-9.139-5.811-16.971-14.085-19.915" fill="#efab22"/><path d="m147.244 71.807a11.309 11.309 0 0 0 -6.625-7.818 1.742 1.742 0 0 0 -.357-.103 11.258 11.258 0 0 0 -12.003 2.545c-.006.005-.01.012-.015.018a11.232 11.232 0 0 0 -3.277 7.903c0 .015-.004.029-.004.043 0 .038.003.075.003.112a12.254 12.254 0 0 0 .041.853c.006.06.008.122.014.184.025.245.06.487.1.727l.026.142a11.325 11.325 0 0 0 .405 1.572c1.504 4.463 5.725 7.688 10.688 7.688a1.704 1.704 0 1 0 0-3.407c-3.25 0-6.047-1.981-7.246-4.8l-.005-.015a7.892 7.892 0 0 1 -.495-1.674l-.01-.047a7.982 7.982 0 0 1 -.075-.55l-.002-.02a7.52 7.52 0 0 1 -.035-.653 7.851 7.851 0 0 1 2.298-5.668l.007-.007a7.842 7.842 0 0 1 8.61-1.674c.074.03.15.048.226.068 2.156.979 3.77 3.249 4.369 5.535.028.109-.007.665-.288.665h-10.086c-.941 0-1.703 1.059-1.703 2 0 .94.762 2 1.703 2h10.34c1.075 0 2.073-1.152 2.738-1.996.663-.843.903-2.581.658-3.623" fill="#c80"/><path d="m51.697 4.792-51.135 51.135-9.145-8.611 51.133-51.134z" fill="#ef990f" mask="url(#h)" transform="translate(124 62.361)"/><path d="m144.588 103.385h-17.71a3.08 3.08 0 1 1 0-6.162h17.71a3.08 3.08 0 1 1 0 6.162m-1.95 7.612h-13.81a2.921 2.921 0 0 1 0-5.842h13.81a2.92 2.92 0 1 1 0 5.842m-11.611 1.64c-.22 0-.352.225-.229.39 1.066 1.432 2.878 2.398 4.935 2.398s3.868-.966 4.934-2.398c.123-.165-.009-.39-.228-.39z" fill="#777"/><path d="m122.003 70.837c-2.116-1.505-2.084-5.183.072-8.215 2.157-3.033 5.62-4.27 7.736-2.765 2.117 1.504 2.085 5.183-.072 8.214-2.156 3.033-5.62 4.271-7.736 2.766" fill="#fff" fill-opacity=".3"/><g stroke="#777" stroke-linecap="round" stroke-linejoin="round"><path d="m134.725 47.425v-3" stroke-width="3"/><path d="m153.023 54.698 2.558-2.558m-1.429 38.242 2.558 2.559" stroke-width="2.713"/><path d="m161.225 72.925h4" stroke-width="3"/><path d="m117.273 54.698-2.558-2.558m1.429 38.242-2.558 2.559" stroke-width="2.713"/><path d="m109.225 72.925h-4" stroke-width="3"/></g></g></svg>