<svg height="121" viewBox="0 0 85 121" width="85" xmlns="http://www.w3.org/2000/svg"><g fill="none" fill-rule="evenodd"><path d="m24.867 68-21.808 51.592 17.69-9.082 9.692 9.123 22.293-51.633z" fill="#ed6060"/><path d="m52.734 68h-27.867l-21.807 51.592 17.69-9.082 9.692 9.123z" stroke="#777" stroke-linecap="round" stroke-linejoin="round" stroke-width="2"/><path d="m24.867 68-21.808 51.592 17.69-9.082 9.692 9.123 22.293-51.633z" fill="#81ce74"/><path d="m52.734 68h-27.867l-21.807 51.592 17.69-9.082 9.692 9.123z" stroke="#777" stroke-linecap="round" stroke-linejoin="round" stroke-width="2"/><path d="m33.314 68 22.294 51.633 9.692-9.123 17.69 9.082-21.809-51.592z" fill="#62ba50"/><path d="m33.315 68h27.867l21.808 51.592-17.69-9.082-9.692 9.123z" stroke="#777" stroke-linecap="round" stroke-linejoin="round" stroke-width="2"/><path d="m33.63 18.394h17.122v-8.561h-17.122z" fill="#777"/><path d="m30.024 9.833h24.336v-9.833h-24.336z" fill="#aaa"/><path d="m1.327 55.435c0-22.512 18.25-40.762 40.762-40.762 22.513 0 40.762 18.25 40.762 40.762 0 22.513-18.25 40.763-40.762 40.763s-40.762-18.25-40.762-40.763" fill="#ffc431"/><path d="m13.269 84.309c16.257 16.256 41.727 15.918 57.646-.001 15.918-15.918 16.256-41.389 0-57.645z" fill="#efab22"/><path d="m10.772 55.435c0-17.296 14.021-31.317 31.317-31.317s31.317 14.021 31.317 31.317-14.02 31.317-31.317 31.317c-17.296 0-31.317-14.021-31.317-31.317" fill="#ffc431"/><path d="m10.772 55.435c0-17.296 14.021-31.317 31.317-31.317s31.317 14.021 31.317 31.317-14.02 31.317-31.317 31.317c-17.296 0-31.317-14.021-31.317-31.317z" stroke="#c80" stroke-width=".99"/><g stroke-linecap="round" stroke-linejoin="round"><path d="m1.327 55.435c0-22.512 18.25-40.762 40.762-40.762 22.513 0 40.762 18.25 40.762 40.762 0 22.513-18.25 40.763-40.762 40.763s-40.762-18.25-40.762-40.763z" stroke="#777" stroke-width="2.654"/><g stroke="#c80"><path d="m42.441 34v-3m0 50v-2" stroke-width="2"/><path d="m57.563 40.476 2.208-2.208m-1.234 33.014 2.208 2.209" stroke-width="2.342"/><path d="m64.441 56h2" stroke-width="2"/><path d="m26.7 40.476-2.209-2.208m1.234 33.014-2.208 2.209" stroke-width="2.342"/><path d="m20.441 56h-3" stroke-width="2"/></g></g><text fill="#ae7622" font-family="Roboto" font-size="24.595" font-weight="400" transform="translate(1)"><tspan x="20.311" y="65.061">1</tspan></text><text fill="#ae7622" font-family="Roboto" font-size="24.595" font-weight="400" letter-spacing=".02" transform="translate(1)"><tspan x="32.314" y="65.061">80</tspan></text><path d="m21.241 42.293c-2.752-1.54-4.737-4.835-5.791-6.952a.962.962 0 0 0 -1.728 0c-1.053 2.117-3.04 5.411-5.792 6.952a.966.966 0 0 0 0 1.698c2.752 1.54 4.739 4.834 5.792 6.952a.962.962 0 0 0 1.728 0c1.054-2.118 3.04-5.412 5.791-6.952a.965.965 0 0 0 0-1.698" fill="#fff"/></g></svg>