<svg height="95" viewBox="0 0 110 95" width="110" xmlns="http://www.w3.org/2000/svg" xmlns:xlink="http://www.w3.org/1999/xlink"><mask id="a" fill="#fff"><path d="m.11.6h79.283v79.207h-79.283z" fill="#fff" fill-rule="evenodd"/></mask><mask id="b" fill="#fff"><path d="m.11 40.205c0 21.871 17.749 39.602 39.642 39.602s39.641-17.73 39.641-39.602c0-21.873-17.748-39.605-39.641-39.605s-39.642 17.73-39.642 39.605" fill="#fff" fill-rule="evenodd"/></mask><mask id="c" fill="#fff"><path d="m.11 40.205c0 21.871 17.749 39.602 39.642 39.602s39.641-17.73 39.641-39.602c0-21.873-17.748-39.605-39.641-39.605s-39.642 17.73-39.642 39.605" fill="#fff" fill-rule="evenodd"/></mask><mask id="d" fill="#fff"><path d="m.11 40.205c0 21.871 17.749 39.602 39.642 39.602s39.641-17.73 39.641-39.602c0-21.873-17.748-39.605-39.641-39.605s-39.642 17.73-39.642 39.605" fill="#fff" fill-rule="evenodd"/></mask><mask id="e" fill="#fff"><path d="m.11 40.205c0 21.871 17.749 39.602 39.642 39.602s39.641-17.73 39.641-39.602c0-21.873-17.748-39.605-39.641-39.605s-39.642 17.73-39.642 39.605" fill="#fff" fill-rule="evenodd"/></mask><mask id="f" fill="#fff"><path d="m.11 40.205c0 21.871 17.749 39.602 39.642 39.602s39.641-17.73 39.641-39.602c0-21.873-17.748-39.605-39.641-39.605s-39.642 17.73-39.642 39.605" fill="#fff" fill-rule="evenodd"/></mask><mask id="g" fill="#fff"><path d="m.11 40.205c0 21.871 17.749 39.602 39.642 39.602s39.641-17.73 39.641-39.602c0-21.873-17.748-39.605-39.641-39.605s-39.642 17.73-39.642 39.605z" fill="#fff" fill-rule="evenodd"/></mask><mask id="h" fill="#fff"><path d="m.11 40.205c0 21.871 17.749 39.602 39.642 39.602s39.641-17.73 39.641-39.602c0-21.873-17.748-39.605-39.641-39.605s-39.642 17.73-39.642 39.605z" fill="#fff" fill-rule="evenodd"/></mask><g fill="none" fill-rule="evenodd"><path d="m.11 40.205c0-21.873 17.75-39.605 39.643-39.605 21.894 0 39.642 17.73 39.642 39.604 0 21.871-17.748 39.602-39.642 39.602-21.894.001-39.643-17.729-39.643-39.602" fill="#eaeaea" mask="url(#a)" transform="translate(7.853 7.358)"/><path d="m26.737 30.679c0-7.181 5.827-13.003 13.016-13.003 7.187 0 13.014 5.822 13.014 13.003 0 7.18-5.826 13.002-13.015 13.002-7.188 0-13.015-5.82-13.015-13.002" fill="#bcbcbc" mask="url(#b)" transform="translate(7.853 7.358)"/><path d="m32.638 30.679a7.11 7.11 0 0 1 7.113-7.107" mask="url(#c)" stroke="#e0e0e0" stroke-linecap="round" stroke-linejoin="round" stroke-width="2.486" transform="translate(7.853 7.358)"/><path d="m39.752 17.676a13 13 0 0 0 -3.386.46c5.543 1.491 9.629 6.534 9.629 12.543s-4.086 11.052-9.63 12.542c1.082.291 2.214.46 3.387.46 7.188 0 13.015-5.82 13.015-13.002 0-7.18-5.827-13.003-13.015-13.003" fill="#9b9b9b" mask="url(#d)" transform="translate(7.853 7.358)"/><path d="m46.423 55.461h-12.505c-13.632 0-24.683 8.723-24.683 22.343v10.23h61.872v-10.23c0-13.62-11.05-22.343-24.684-22.343" fill="#777" mask="url(#e)" transform="translate(7.853 7.358)"/><path d="m46.423 55.483h-12.505c-.474 0-1.003.003-1.47.023 12.974.583 23.21 9.153 23.21 22.298v10.786h15.414v-10.786c0-13.62-11.017-22.321-24.649-22.321" fill="#636363" mask="url(#f)" transform="translate(7.853 7.358)"/><g stroke-linecap="round" stroke-linejoin="round"><path d="m46.423 55.461h-12.505c-13.632 0-24.683 8.723-24.683 22.343v10.23h61.872v-10.23c0-13.62-11.05-22.343-24.684-22.343z" mask="url(#g)" stroke="#777" stroke-width="2.549" transform="translate(7.853 7.358)"/><path d="m26.737 30.679c0-7.181 5.827-13.003 13.016-13.003 7.187 0 13.014 5.822 13.014 13.003 0 7.18-5.826 13.002-13.015 13.002-7.188 0-13.015-5.82-13.015-13.002z" mask="url(#h)" stroke="#777" stroke-width="1.888" transform="translate(7.853 7.358)"/><path d="m47.605 90.366c-23.662 0-42.843-19.164-42.843-42.802 0-23.64 19.181-42.803 42.843-42.803 13.596 0 25.712 6.327 33.56 16.195" stroke="#1fbaea" stroke-width="7.684"/></g><path d="m86.672 58.143h7.65v-3.79h-7.65z" fill="#777"/><path d="m85.06 54.353h10.874v-4.353h-10.874z" fill="#aaa"/><path d="m72.237 74.54c0-9.966 8.155-18.045 18.214-18.045 10.06 0 18.214 8.079 18.214 18.045 0 9.965-8.155 18.044-18.214 18.044-10.06 0-18.214-8.079-18.214-18.044" fill="#81ce74"/><path d="m77.573 87.322c7.264 7.196 18.645 7.046 25.758 0 7.113-7.048 7.264-18.323 0-25.519l-25.758 25.518z" fill="#ffd217"/><path d="m76.458 74.54c0-7.657 6.265-13.864 13.993-13.864s13.993 6.207 13.993 13.864c0 7.656-6.265 13.863-13.993 13.863s-13.993-6.207-13.993-13.863" fill="#fff"/><g stroke="#777" stroke-linecap="round" stroke-linejoin="round"><path d="m72.237 74.54c0-9.966 8.155-18.045 18.214-18.045 10.06 0 18.214 8.079 18.214 18.045 0 9.965-8.155 18.044-18.214 18.044-10.06 0-18.214-8.079-18.214-18.044z" stroke-width="1.181"/><path d="m90.652 65.156v-1.41m0 22.205v-1.058" stroke-width="1.062"/><path d="m97.365 67.918.986-.978m-.55 14.615.986.977" stroke-width="1.042"/><path d="m100.26 74.848h1.424" stroke-width="1.062"/><path d="m83.575 67.918-.987-.978m.551 14.615-.987.977" stroke-width="1.042"/><path d="m80.694 74.848h-1.424" stroke-width="1.062"/><path d="m90.3 68.68v6.697h6.759" stroke-width="1.416"/></g></g></svg>