<svg height="95" viewBox="0 0 105 95" width="105" xmlns="http://www.w3.org/2000/svg" xmlns:xlink="http://www.w3.org/1999/xlink"><mask id="a" fill="#fff"><path d="m.11.6h79.283v79.207h-79.283z" fill="#fff" fill-rule="evenodd"/></mask><mask id="b" fill="#fff"><path d="m.11 40.205c0 21.871 17.749 39.602 39.642 39.602s39.641-17.73 39.641-39.602c0-21.873-17.748-39.605-39.641-39.605s-39.642 17.73-39.642 39.605" fill="#fff" fill-rule="evenodd"/></mask><mask id="c" fill="#fff"><path d="m.11 40.205c0 21.871 17.749 39.602 39.642 39.602s39.641-17.73 39.641-39.602c0-21.873-17.748-39.605-39.641-39.605s-39.642 17.73-39.642 39.605" fill="#fff" fill-rule="evenodd"/></mask><mask id="d" fill="#fff"><path d="m.11 40.205c0 21.871 17.749 39.602 39.642 39.602s39.641-17.73 39.641-39.602c0-21.873-17.748-39.605-39.641-39.605s-39.642 17.73-39.642 39.605" fill="#fff" fill-rule="evenodd"/></mask><mask id="e" fill="#fff"><path d="m.11 40.205c0 21.871 17.749 39.602 39.642 39.602s39.641-17.73 39.641-39.602c0-21.873-17.748-39.605-39.641-39.605s-39.642 17.73-39.642 39.605" fill="#fff" fill-rule="evenodd"/></mask><mask id="f" fill="#fff"><path d="m.11 40.205c0 21.871 17.749 39.602 39.642 39.602s39.641-17.73 39.641-39.602c0-21.873-17.748-39.605-39.641-39.605s-39.642 17.73-39.642 39.605" fill="#fff" fill-rule="evenodd"/></mask><mask id="g" fill="#fff"><path d="m.11 40.205c0 21.871 17.749 39.602 39.642 39.602s39.641-17.73 39.641-39.602c0-21.873-17.748-39.605-39.641-39.605s-39.642 17.73-39.642 39.605z" fill="#fff" fill-rule="evenodd"/></mask><mask id="h" fill="#fff"><path d="m.11 40.205c0 21.871 17.749 39.602 39.642 39.602s39.641-17.73 39.641-39.602c0-21.873-17.748-39.605-39.641-39.605s-39.642 17.73-39.642 39.605z" fill="#fff" fill-rule="evenodd"/></mask><mask id="i" fill="#fff"><path d="m0 .18h29.873v8.727h-29.873z" fill="#fff" fill-rule="evenodd"/></mask><mask id="j" fill="#fff"><path d="m0 36.517h29.873v-36.517h-29.873z" fill="#fff" fill-rule="evenodd"/></mask><g fill="none" fill-rule="evenodd"><path d="m.11 40.205c0-21.873 17.75-39.605 39.643-39.605 21.894 0 39.642 17.73 39.642 39.604 0 21.871-17.748 39.602-39.642 39.602-21.894.001-39.643-17.729-39.643-39.602" fill="#eaeaea" mask="url(#a)" transform="translate(7.853 7.358)"/><path d="m26.737 30.679c0-7.181 5.827-13.003 13.016-13.003 7.187 0 13.014 5.822 13.014 13.003 0 7.18-5.826 13.002-13.015 13.002-7.188 0-13.015-5.82-13.015-13.002" fill="#bcbcbc" mask="url(#b)" transform="translate(7.853 7.358)"/><path d="m32.638 30.679a7.11 7.11 0 0 1 7.113-7.107" mask="url(#c)" stroke="#e0e0e0" stroke-linecap="round" stroke-linejoin="round" stroke-width="2.486" transform="translate(7.853 7.358)"/><path d="m39.752 17.676a13 13 0 0 0 -3.386.46c5.543 1.491 9.629 6.534 9.629 12.543s-4.086 11.052-9.63 12.542c1.082.291 2.214.46 3.387.46 7.188 0 13.015-5.82 13.015-13.002 0-7.18-5.827-13.003-13.015-13.003" fill="#9b9b9b" mask="url(#d)" transform="translate(7.853 7.358)"/><path d="m46.423 55.461h-12.505c-13.632 0-24.683 8.723-24.683 22.343v10.23h61.872v-10.23c0-13.62-11.05-22.343-24.684-22.343" fill="#777" mask="url(#e)" transform="translate(7.853 7.358)"/><path d="m46.423 55.483h-12.505c-.474 0-1.003.003-1.47.023 12.974.583 23.21 9.153 23.21 22.298v10.786h15.414v-10.786c0-13.62-11.017-22.321-24.649-22.321" fill="#636363" mask="url(#f)" transform="translate(7.853 7.358)"/><g stroke-linecap="round" stroke-linejoin="round"><path d="m46.423 55.461h-12.505c-13.632 0-24.683 8.723-24.683 22.343v10.23h61.872v-10.23c0-13.62-11.05-22.343-24.684-22.343z" mask="url(#g)" stroke="#777" stroke-width="2.549" transform="translate(7.853 7.358)"/><path d="m26.737 30.679c0-7.181 5.827-13.003 13.016-13.003 7.187 0 13.014 5.822 13.014 13.003 0 7.18-5.826 13.002-13.015 13.002-7.188 0-13.015-5.82-13.015-13.002z" mask="url(#h)" stroke="#777" stroke-width="1.888" transform="translate(7.853 7.358)"/><path d="m47.605 90.366c-23.662 0-42.843-19.164-42.843-42.802 0-23.64 19.181-42.803 42.843-42.803 13.596 0 25.712 6.327 33.56 16.195" stroke="#1fbaea" stroke-width="7.684"/></g><path d="m102.801 62.486-.03 25.048c-.109 1.527-1.166 2.79-2.584 2.79h-20.5c-1.418 0-2.463-1.261-2.583-2.79v-25.048h25.696z" fill="#ed6060"/><path d="m81.275 63.344h2.102v20.452c0 1.582-2.102 1.582-2.102 0zm12.625 0h2.102v20.14c0 1.58-2.102 1.58-2.102 0zm-6.312 0h2.102v20.14c0 1.58-2.102 1.58-2.102 0z" fill="#e23b3b" fill-rule="nonzero"/><path d="m99.56 62.549-.023 21.312c-.095 1.528-1.018 2.647-2.258 2.647h-17.917c-1.239 0-2.338-1.037-2.638-2.566v-5.244 8.836c.3 1.529 1.546 2.916 2.964 2.916h20.5c1.419 0 2.475-1.294 2.583-2.821l.031-25.08h-3.24z" fill="#dd3636"/><path d="m12.747 4.398h4.38c.006-.07.01-.14.01-.21 0-1.24-.99-2.254-2.2-2.254s-2.2 1.014-2.2 2.255c0 .07.003.14.01.209m-9.804 0h8.09a3.713 3.713 0 0 1 -.007-.21c0-2.204 1.76-4.008 3.911-4.008s3.91 1.804 3.91 4.009c0 .07-.001.14-.005.209h8.09c1.614 0 3.068 1.363 2.933 3.006l-.123 1.503h-29.595l-.137-1.503c-.15-1.647 1.32-3.006 2.932-3.006" fill="#636363" fill-rule="nonzero" mask="url(#i)" transform="translate(75 54.123)"/><path d="m102.801 62.708-.03 24.607c0 .146-.004.293-.023.438-.189 1.427-1.21 2.57-2.56 2.57h-20.502c-1.277 0-2.251-1.02-2.52-2.34a3.692 3.692 0 0 1 -.063-.738v-24.537h25.697z" stroke="#777" stroke-linecap="round" stroke-linejoin="round" stroke-width=".983"/><path d="m.046 9.702h29.779v-2.03h-29.778z" fill="#d1d1d1" mask="url(#j)" transform="translate(75 54.303)"/></g></svg>