<svg height="123" viewBox="0 0 105 123" width="105" xmlns="http://www.w3.org/2000/svg" xmlns:xlink="http://www.w3.org/1999/xlink"><mask id="a" fill="#fff"><path d="m13.547.381c-3.129.582-5.976 2.083-8.235 4.337-.007.008-.013.018-.021.026-2.989 3.01-4.566 6.985-4.578 11.042 0 .021-.006.04-.006.061 0 .052.003.103.004.155.002.16.005.322.013.482.009.238.025.475.045.71.007.085.01.171.019.257.035.342.085.68.141 1.015.012.067.024.134.036.199.134.738.318 1.457.551 2.157.005.013.009.027.014.04 2.101 6.236 7.998 10.74 14.933 10.74 1.314 0 2.379-1.066 2.379-2.38s-1.065-2.379-2.379-2.379c-4.542 0-8.449-2.768-10.124-6.705-.004-.007-.004-.016-.008-.024-.32-.763-.549-1.547-.692-2.337-.003-.022-.008-.044-.011-.067-.044-.255-.08-.511-.107-.767 0-.009-.001-.019-.002-.028-.022-.222-.034-.443-.042-.663-.003-.083-.005-.167-.007-.25-.044-2.907 1.068-5.767 3.21-7.918.003-.004.006-.007.009-.011 3.178-3.161 7.898-4.08 12.031-2.339.102.043.209.069.314.096 3.013 1.368 5.268 4.093 6.105 7.287.039.152-.009.481-.403.481h-14.09c-1.315 0-2.381 1.686-2.381 3 0 1.315 1.066 3.001 2.381 3.001h14.432.015c1.501 0 2.894-1.369 3.824-2.548.926-1.177 1.262-3.364.92-4.821-1.151-4.893-4.611-8.977-9.258-10.922-.164-.068-.33-.114-.498-.144-1.814-.695-3.725-1.05-5.651-1.05-.961 0-1.925.088-2.883.267z" fill="none"/></mask><g fill="none" fill-rule="evenodd" transform="translate(0 1)"><g transform="translate(0 .646)"><path d="m67.3785 81.5984h-8.014v-25.85c0-1.373-.56-2.15-1.933-2.15h-9.943c-1.373 0-2.124.777-2.124 2.15v25.85h-7.823c-4.112 0-8.177 3.8-8.177 7.916v4.975c0 4.109 4.065 7.109 8.177 7.109h29.837c4.112 0 7.986-3 7.986-7.109v-4.975c0-4.116-3.874-7.916-7.986-7.916" fill="#ddd"/><path d="m67.3785 81.5984h-8.014v-25.85c0-1.373-.56-2.15-1.933-2.15h-9.943c-1.373 0-2.124.777-2.124 2.15v2.85h5.799c1.373 0 2.201 1 2.201 2.374v26.626h7.746c4.112 0 8.254 3.023 8.254 7.139v4.975c0 .777-.263 1.529-.5 2.239 3.642-.538 6.5-3.719 6.5-7.462v-4.975c0-4.116-3.874-7.916-7.986-7.916" fill="#b2b2b2"/><path d="m67.3785 82.0984h-7.514v-26.35c0-1.373-1.06-1.65-2.433-1.65h-9.943c-1.373 0-1.624.277-1.624 1.65v26.35h-8.323c-4.112 0-6.677 3.3-6.677 7.416v4.975c0 4.109 2.565 6.609 6.677 6.609h29.837c4.112 0 7.486-2.5 7.486-6.609v-4.975c0-4.116-3.374-7.416-7.486-7.416z" stroke="#777" stroke-linecap="round" stroke-linejoin="round" stroke-width="3"/><path d="m79.8096 89.5139h-54.699c-1.373 0-2.488 1.114-2.488 2.484v24.869c0 1.37 1.115 2.484 2.488 2.484h54.699c1.373 0 2.488-1.114 2.488-2.484v-24.869c-.001-1.37-1.115-2.484-2.488-2.484" fill="#777"/><path d="m81.1387 52.2175c-.979 0-1.909-.585-2.302-1.548-.517-1.271.092-2.723 1.366-3.242 9.608-3.915 15.814-11.274 18.448-21.871 1.351-5.44 1.377-10.412 1.246-13.121h-15.115c-1.373 0-2.484-1.115-2.484-2.488s1.111-2.486 2.484-2.486h17.406c1.242 0 2.291.915 2.462 2.142.047.322 1.071 7.958-1.129 16.98-2.969 12.143-10.381 20.943-21.442 25.45-.31.125-.627.184-.94.184" fill="#b2b2b2"/><path d="m23.7881 52.2175c-.313 0-.63-.059-.937-.184-11.062-4.507-18.476-13.307-21.442-25.45-2.202-9.022-1.177-16.658-1.131-16.98.171-1.228 1.221-2.142 2.462-2.142h17.406c1.373 0 2.486 1.112 2.486 2.486 0 1.373-1.113 2.487-2.486 2.487h-15.115c-.131 2.708-.104 7.68 1.247 13.121 2.632 10.598 8.838 17.956 18.448 21.872 1.273.519 1.883 1.971 1.366 3.242-.393.964-1.324 1.548-2.304 1.548" fill="#b2b2b2"/><path d="m84.7847.0027h-64.648c-1.373 0-2.486 1.112-2.486 2.486v32.325c0 9.298 3.621 18.04 10.195 24.614 6.574 6.572 15.317 10.193 24.614 10.193 9.299 0 18.04-3.621 24.614-10.193 6.575-6.574 10.195-15.316 10.195-24.614v-32.326c0-1.373-1.111-2.485-2.484-2.485" fill="#ddd"/><path d="m84.7847.0027h-11.387c1.374 0 2.488 1.112 2.488 2.486v32.325c0 25.914-17.551 34.136-25.912 34.719.823.058 1.652.088 2.486.088 9.299 0 18.04-3.621 24.614-10.193 6.575-6.574 10.195-15.316 10.195-24.614v-32.326c0-1.373-1.111-2.485-2.484-2.485" fill="#b2b2b2"/><path d="m84.7847.0027h-64.648c-1.373 0-2.486 1.112-2.486 2.486v32.325c0 9.298 3.621 18.04 10.195 24.614 6.574 6.572 15.317 10.193 24.614 10.193 9.299 0 18.04-3.621 24.614-10.193 6.575-6.574 10.195-15.316 10.195-24.614v-32.326c0-1.373-1.111-2.485-2.484-2.485z" stroke="#777" stroke-linecap="round" stroke-linejoin="round" stroke-width="3.298"/><path d="m79.8096 90.5984h-14.209c1.373 0 2.764.03 2.764 1.399v24.87c0 1.369-1.39 2.731-2.764 2.731h14.209c1.373 0 1.555-1.362 1.555-2.731v-24.87c0-1.369-.182-1.399-1.555-1.399" fill="#4f4f4f"/><path d="m35.9019 12.4099c-2.529-1.416-4.354-4.443-5.322-6.389-.329-.66-1.261-.66-1.589 0-.968 1.946-2.793 4.973-5.322 6.389-.621.347-.621 1.213 0 1.56 2.529 1.417 4.354 4.443 5.322 6.389.328.661 1.26.661 1.589 0 .968-1.946 2.793-4.972 5.322-6.389.62-.347.62-1.213 0-1.56" fill="#fff"/><path d="m67.8365 31.2302c-1.15-4.894-4.611-8.977-9.257-10.922-.164-.069-.331-.115-.499-.144-2.718-1.042-5.655-1.32-8.534-.784-3.128.583-5.976 2.083-8.234 4.338-.008.008-.013.018-.021.026-2.99 3.009-4.567 6.985-4.579 11.042 0 .021-.005.04-.005.06 0 .052.003.104.004.156.001.161.005.321.012.482.009.238.025.475.045.71.007.085.011.171.02.257.034.342.084.68.141 1.015.011.067.023.133.035.2.134.737.319 1.457.552 2.155.005.014.009.027.014.041 2.1 6.235 7.998 10.74 14.932 10.74 1.314 0 2.38-1.066 2.38-2.38s-1.066-2.38-2.38-2.38c-4.542 0-8.449-2.767-10.124-6.705-.003-.007-.003-.015-.007-.023-.321-.763-.55-1.547-.692-2.337-.004-.022-.008-.045-.012-.067-.044-.255-.08-.511-.106-.768-.001-.009-.001-.018-.002-.027-.022-.222-.035-.443-.043-.664-.003-.083-.005-.166-.006-.249-.044-2.907 1.067-5.767 3.21-7.918.003-.003.006-.007.009-.011 3.178-3.161 7.897-4.081 12.03-2.339.103.043.209.068.315.097 3.013 1.367 5.267 4.091 6.104 7.285.04.153-.009.482-.403.482h-14.09c-1.314 0-2.38 1.686-2.38 3 0 1.315 1.066 3 2.38 3h14.433.014c1.501 0 2.895-1.368 3.824-2.548.927-1.176 1.262-3.364.92-4.82" fill="#6d6d6d"/></g><path d="m71.5879 5.7278-71.44 71.44-12.777-12.029 71.44-71.441z" fill="#6d6d6d" mask="url(#a)" transform="translate(36 19.646)"/><path d="m79.8096 90.1599h-54.699c-1.373 0-2.488 1.114-2.488 2.484v24.869c0 1.37 1.115 2.484 2.488 2.484h54.699c1.373 0 2.488-1.114 2.488-2.484v-24.869c-.001-1.37-1.115-2.484-2.488-2.484z" stroke="#4f4f4f" stroke-linecap="round" stroke-linejoin="round" stroke-width="3.298"/></g></svg>