<svg height="95" viewBox="0 0 107 95" width="107" xmlns="http://www.w3.org/2000/svg" xmlns:xlink="http://www.w3.org/1999/xlink"><mask id="a" fill="#fff"><path d="m.11.6h79.283v79.207h-79.283z" fill="#fff" fill-rule="evenodd"/></mask><mask id="b" fill="#fff"><path d="m.11 40.205c0 21.871 17.749 39.602 39.642 39.602s39.641-17.73 39.641-39.602c0-21.873-17.748-39.605-39.641-39.605s-39.642 17.73-39.642 39.605" fill="#fff" fill-rule="evenodd"/></mask><mask id="c" fill="#fff"><path d="m.11 40.205c0 21.871 17.749 39.602 39.642 39.602s39.641-17.73 39.641-39.602c0-21.873-17.748-39.605-39.641-39.605s-39.642 17.73-39.642 39.605" fill="#fff" fill-rule="evenodd"/></mask><mask id="d" fill="#fff"><path d="m.11 40.205c0 21.871 17.749 39.602 39.642 39.602s39.641-17.73 39.641-39.602c0-21.873-17.748-39.605-39.641-39.605s-39.642 17.73-39.642 39.605" fill="#fff" fill-rule="evenodd"/></mask><mask id="e" fill="#fff"><path d="m.11 40.205c0 21.871 17.749 39.602 39.642 39.602s39.641-17.73 39.641-39.602c0-21.873-17.748-39.605-39.641-39.605s-39.642 17.73-39.642 39.605" fill="#fff" fill-rule="evenodd"/></mask><mask id="f" fill="#fff"><path d="m.11 40.205c0 21.871 17.749 39.602 39.642 39.602s39.641-17.73 39.641-39.602c0-21.873-17.748-39.605-39.641-39.605s-39.642 17.73-39.642 39.605" fill="#fff" fill-rule="evenodd"/></mask><mask id="g" fill="#fff"><path d="m.11 40.205c0 21.871 17.749 39.602 39.642 39.602s39.641-17.73 39.641-39.602c0-21.873-17.748-39.605-39.641-39.605s-39.642 17.73-39.642 39.605z" fill="#fff" fill-rule="evenodd"/></mask><mask id="h" fill="#fff"><path d="m.11 40.205c0 21.871 17.749 39.602 39.642 39.602s39.641-17.73 39.641-39.602c0-21.873-17.748-39.605-39.641-39.605s-39.642 17.73-39.642 39.605z" fill="#fff" fill-rule="evenodd"/></mask><g fill="none" fill-rule="evenodd"><path d="m.11 40.205c0-21.873 17.75-39.605 39.643-39.605 21.894 0 39.642 17.73 39.642 39.604 0 21.871-17.748 39.602-39.642 39.602-21.894.001-39.643-17.729-39.643-39.602" fill="#eaeaea" mask="url(#a)" transform="translate(7.853 7.358)"/><path d="m26.737 30.679c0-7.181 5.827-13.003 13.016-13.003 7.187 0 13.014 5.822 13.014 13.003 0 7.18-5.826 13.002-13.015 13.002-7.188 0-13.015-5.82-13.015-13.002" fill="#bcbcbc" mask="url(#b)" transform="translate(7.853 7.358)"/><path d="m32.638 30.679a7.11 7.11 0 0 1 7.113-7.107" mask="url(#c)" stroke="#e0e0e0" stroke-linecap="round" stroke-linejoin="round" stroke-width="2.486" transform="translate(7.853 7.358)"/><path d="m39.752 17.676a13 13 0 0 0 -3.386.46c5.543 1.491 9.629 6.534 9.629 12.543s-4.086 11.052-9.63 12.542c1.082.291 2.214.46 3.387.46 7.188 0 13.015-5.82 13.015-13.002 0-7.18-5.827-13.003-13.015-13.003" fill="#9b9b9b" mask="url(#d)" transform="translate(7.853 7.358)"/><path d="m46.423 55.461h-12.505c-13.632 0-24.683 8.723-24.683 22.343v10.23h61.872v-10.23c0-13.62-11.05-22.343-24.684-22.343" fill="#777" mask="url(#e)" transform="translate(7.853 7.358)"/><path d="m46.423 55.483h-12.505c-.474 0-1.003.003-1.47.023 12.974.583 23.21 9.153 23.21 22.298v10.786h15.414v-10.786c0-13.62-11.017-22.321-24.649-22.321" fill="#636363" mask="url(#f)" transform="translate(7.853 7.358)"/><g stroke-linecap="round" stroke-linejoin="round"><path d="m46.423 55.461h-12.505c-13.632 0-24.683 8.723-24.683 22.343v10.23h61.872v-10.23c0-13.62-11.05-22.343-24.684-22.343z" mask="url(#g)" stroke="#777" stroke-width="2.549" transform="translate(7.853 7.358)"/><path d="m26.737 30.679c0-7.181 5.827-13.003 13.016-13.003 7.187 0 13.014 5.822 13.014 13.003 0 7.18-5.826 13.002-13.015 13.002-7.188 0-13.015-5.82-13.015-13.002z" mask="url(#h)" stroke="#777" stroke-width="1.888" transform="translate(7.853 7.358)"/><path d="m47.605 90.366c-23.662 0-42.843-19.164-42.843-42.802 0-23.64 19.181-42.803 42.843-42.803 13.596 0 25.712 6.327 33.56 16.195" stroke="#1fbaea" stroke-width="7.684"/></g><path d="m88.805 58c9.833 0 17.804 7.971 17.804 17.805 0 9.833-7.971 17.804-17.804 17.804-9.835.001-17.805-7.971-17.805-17.804 0-9.835 7.971-17.805 17.805-17.805" fill="#fede40"/><path d="m93.325 68.78a1.675 1.675 0 0 1 2.375 0 1.69 1.69 0 0 1 0 2.383l-10.915 10.954a1.672 1.672 0 0 1 -2.374 0l-4.747-4.764a1.688 1.688 0 0 1 0-2.383 1.673 1.673 0 0 1 2.374 0l3.56 3.573 9.727-9.764zm7.068 6.246c.209 0 .378.23.378.514s-.17.514-.378.514h-7.473c-.21 0-.379-.23-.379-.514s.17-.514.379-.514h7.472zm-2.058 2.801c.21 0 .379.23.379.514s-.17.515-.379.515h-7.471c-.21 0-.379-.23-.379-.515 0-.284.17-.514.379-.514zm-3.085 2.803c.209 0 .378.23.378.514s-.17.514-.378.514h-7.472c-.21 0-.378-.23-.378-.514s.169-.514.378-.514z" fill="#fff" fill-rule="nonzero"/></g></svg>