<svg height="72" viewBox="0 0 76 72" width="76" xmlns="http://www.w3.org/2000/svg"><path d="m41.8989218 64.9291587-15.4679002 9.5480951c-1.8798357 1.1603935-4.3444283.5771703-5.5048218-1.3026654-.5619791-.9104054-.7358209-2.0079996-.4826778-3.0475076l4.3009341-17.661371c.3581111-1.4705489-.1444528-3.0172816-1.2985378-3.9964882l-13.86062206-11.7603236c-1.68450091-1.4292487-1.89142372-3.9534415-.46217504-5.6379424.69218586-.8158046 1.6823399-1.3203133 2.7491964-1.4007855l18.1260236-1.3672324c1.5092375-.1138407 2.824967-1.0697741 3.3996159-2.4699656l6.9015647-16.81637479c.8387568-2.0437177 3.1754641-3.02053146 5.2191818-2.1817746.9897736.40621038 1.7755643 1.19200108 2.1817746 2.1817746l6.9015647 16.81637479c.5746489 1.4001915 1.8903784 2.3561249 3.3996159 2.4699656l18.1260236 1.3672324c2.2028812.1661617 3.8539686 2.0866504 3.6878069 4.2895315-.0804722 1.0668565-.5849809 2.0570105-1.4007855 2.7491964l-13.8606221 11.7603236c-1.154085.9792066-1.6566489 2.5259393-1.2985378 3.9964882l4.3009341 17.661371c.5226985 2.1464112-.7935807 4.3101523-2.939992 4.8328508-1.039508.2531432-2.1371022.0793014-3.0475076-.4826778l-15.4679002-9.5480951c-1.2879127-.7950085-2.9142437-.7950085-4.2021564 0z" fill="#ffc431" fill-rule="evenodd" stroke="#777" stroke-width="3" transform="translate(-6 -5)"/></svg>