<svg height="51" viewBox="0 0 42 51" width="42" xmlns="http://www.w3.org/2000/svg" xmlns:xlink="http://www.w3.org/1999/xlink"><defs><circle id="a" cx="13" cy="32" r="9"/><filter id="b" height="133.3%" width="133.3%" x="-16.7%" y="-16.7%"><feOffset in="SourceAlpha" result="shadowOffsetOuter1"/><feGaussianBlur in="shadowOffsetOuter1" result="shadowBlurOuter1" stdDeviation="1"/><feColorMatrix in="shadowBlurOuter1" values="0 0 0 0 0 0 0 0 0 0 0 0 0 0 0 0 0 0 0.3 0"/></filter></defs><g fill="none" fill-rule="evenodd"><path d="m41 21c0 11.046-8.954 20-20 20s-20-8.954-20-20 8.954-20 20-20 20 8.954 20 20" fill="#ffebe7" stroke="#ed0240"/><g fill-rule="nonzero"><g fill="#ae2525" opacity=".123"><path d="m33.5 20.404h-5.7l-5.8-5.191v-2.52h3.65c.3 0 .5-.252.5-.504v-3.124a.503.503 0 0 0 -.5-.504h-4.15c-.3 0-.5.252-.5.504v6.148l-5.8 5.19h-5.7c-.3 0-.5.253-.5.505v11.742c0 .302.25.504.5.504h24c.3 0 .5-.252.5-.504v-11.742a.503.503 0 0 0 -.5-.504zm-8.5 4.938h-7c-.3 0-.5.252-.5.504v6.25h-1.65v-10.886l5.65-5.09 5.65 5.09v10.936h-1.65v-6.25c0-.302-.25-.554-.5-.554zm.15-13.707h-3.15v-2.066h3.15zm-15.1 9.827h4.8v10.684h-4.8zm8.5 4.939h2.45v5.745h-2.45v-5.746zm3.45 5.745v-5.746h2.45v5.745h-2.45zm10.95 0h-4.8v-10.684h4.8z"/><path d="m29.45 25.846h2.15c.3 0 .5-.252.5-.504v-2.167a.503.503 0 0 0 -.5-.504h-2.15c-.3 0-.5.252-.5.504v2.167c0 .303.25.504.5.504zm.55-2.116h1.1v1.108h-1.1zm-.55 7.206h2.15c.3 0 .5-.252.5-.504v-2.167a.503.503 0 0 0 -.5-.504h-2.15c-.3 0-.5.252-.5.504v2.167c0 .252.25.504.5.504zm.55-2.166h1.1v1.109h-1.1zm-16.5-6.099h-2.15c-.3 0-.5.252-.5.504v2.167c0 .303.25.504.5.504h2.15c.3 0 .5-.252.5-.504v-2.167c.05-.302-.2-.504-.5-.504zm-.5 2.117h-1.1v-1.108h1.1v1.11zm.5 2.923h-2.15c-.3 0-.5.252-.5.504v2.217c0 .303.25.504.5.504h2.15c.3 0 .5-.252.5-.504v-2.167c.05-.302-.2-.554-.5-.554zm-.5 2.167h-1.1v-1.109h1.1zm8.5-11.389c-1.15 0-2.05.907-2.05 2.066s.9 2.066 2.05 2.066 2.05-.907 2.05-2.066c0-1.109-.9-2.066-2.05-2.066zm0 3.124c-.55 0-1-.453-1-1.008 0-.554.45-1.008 1-1.008s1 .454 1 1.008c0 .555-.45 1.008-1 1.008z"/></g><g transform="translate(9 8)"><use fill="#000" filter="url(#b)" xlink:href="#a"/><use fill="#fff" xlink:href="#a"/></g><path d="m21.997 35c-1.478 0-2.682.94-2.982 2.112a.537.537 0 0 0 .383.633c.27.067.579-.115.644-.38.161-.63.958-1.33 1.955-1.33.49 0 1.006.176 1.369.463s.574.657.574 1.088c0 .566-.118.82-.276 1.019-.158.198-.41.352-.74.581-.33.23-.721.547-1.005 1.062-.283.514-.447 1.203-.447 2.166-.027.286.234.565.527.565.294 0 .555-.28.528-.565 0-.848.146-1.35.325-1.676.18-.326.402-.504.69-.706.289-.201.656-.408.961-.792.306-.383.497-.927.497-1.654 0-.776-.409-1.446-.972-1.891a3.293 3.293 0 0 0 -2.031-.695zm.005 8.62a.698.698 0 0 0 -.707.69c0 .381.317.69.707.69s.707-.309.707-.69c0-.38-.317-.69-.707-.69z" fill="#dd3636"/></g></g></svg>