<svg height="35" viewBox="0 0 31 35" width="31" xmlns="http://www.w3.org/2000/svg"><g fill="none" fill-rule="evenodd" transform="translate(1)"><g fill-rule="nonzero"><path d="m11.6659123 6.53521924h6.0828854v-3.04158416h-6.0828854z" fill="#777"/><path d="m10.3841584 3.49363508h8.6463932v-3.49363508h-8.6463932z" fill="#aaa"/><path d="m.18868458 19.6956153c0-7.9983027 6.48373409-14.48231968 14.48231962-14.48231968 7.9985856 0 14.4826026 6.48373408 14.4826026 14.48231968 0 7.9983027-6.484017 14.4823196-14.4826026 14.4823196-7.99830264 0-14.48231962-6.4840169-14.48231962-14.4823196" fill="#ed6060"/><path d="m4.43140028 29.9544554c5.77595472 5.7756719 14.82517682 5.6554456 20.48090522-.0002828 5.6557284-5.6557285 5.7759548-14.7052334.0002829-20.48090527l-20.48118812 20.48090527z" fill="#e23b3b"/><path d="m3.54455446 19.6956153c0-6.1451203 4.98161244-11.1267327 11.12644974-11.1267327 6.1451203 0 11.1267327 4.9816124 11.1267327 11.1267327 0 6.1451202-4.9816124 11.1267326-11.1267327 11.1267326-6.14512018 0-11.12644974-4.9816124-11.12644974-11.1267326" fill="#fff"/></g><g stroke="#777" stroke-linecap="round" stroke-linejoin="round" transform="translate(0 5.091938)"><path d="m.18868458 14.6036775c0-7.99830268 6.48373409-14.48231965 14.48231962-14.48231965 7.9985856 0 14.4826026 6.48373409 14.4826026 14.48231965 0 7.9983027-6.484017 14.4823197-14.4826026 14.4823197-7.99830264 0-14.48231962-6.484017-14.48231962-14.4823197z" stroke-width=".94314"/><path d="m14.7756719 7.07213579v-1.13154173m0 17.82178214v-.8486563" stroke-width=".848656"/><path d="m20.1685997 9.28882603.7844413-.78444131m-.4381895 11.72956158.7847242.7844413" stroke-width=".832249"/><path d="m22.6964639 14.8514851h.8486563" stroke-width=".848656"/><path d="m9.20339463 9.28882603-.78472419-.78444131m.43847242 11.72956158-.78500707.7844413" stroke-width=".832249"/><path d="m6.85487977 14.8514851h-1.13154172" stroke-width=".848656"/><path d="m14.4927864 9.9009901v5.3748232h5.3748232" stroke-width="1.131542"/></g><path d="m7.27637907 24.4186704c-.49533239-.2772277-.85261669-.8698727-1.04214993-1.2506365-.02917723-.0592852-.08951089-.0968366-.15558699-.0968366s-.12640976.0375514-.15558699.0968366c-.18953324.3807638-.54681754.9736917-1.04214993 1.2509194-.0560826.0303496-.0910252.0889902-.0910252.1527582 0 .0637679.0349426.1224085.0910252.1527581.49504951.2772277.85261669.8698727 1.04214993 1.2509194.02917723.0592852.08951089.0968366.15558699.0968366s.12640976-.0375514.15558699-.0968366c.18953324-.3810467.54681754-.9736917 1.04214993-1.2509194.0560826-.0303496.0910252-.0889902.0910252-.1527581 0-.063768-.0349426-.1224086-.0910252-.1527582" fill="#fff" fill-rule="nonzero"/></g></svg>