<svg height="34" viewBox="0 0 31 34" width="31" xmlns="http://www.w3.org/2000/svg"><g fill="none" fill-rule="evenodd" transform="translate(1)"><g fill-rule="nonzero"><path d="m11.6659123 6.35368537h6.0828854v-2.95709571h-6.0828854z" fill="#777"/><path d="m10.3841584 3.39658966h8.6463932v-3.39658966h-8.6463932z" fill="#aaa"/><path d="m.18868458 19.1485149c0-7.7761277 6.48373409-14.08003305 14.48231962-14.08003305 7.9985856 0 14.4826026 6.30363035 14.4826026 14.08003305 0 7.7761276-6.484017 14.080033-14.4826026 14.080033-7.99830264 0-14.48231962-6.3039054-14.48231962-14.080033" fill="#81ce74"/><path d="m4.43140028 29.1223872c5.77595472 5.6152366 14.82545972 5.4983499 20.48090522-.000275 5.6557284-5.4986249 5.7759548-14.2967547.0002829-19.91199119l-20.48118812 19.91199119z" fill="#ffd217"/><path d="m3.54455446 19.1485149c0-5.9744225 4.98161244-10.81765681 11.12644974-10.81765681 6.1451203 0 11.1267327 4.84323431 11.1267327 10.81765681 0 5.9744224-4.9816124 10.8176567-11.1267327 10.8176567-6.14512018 0-11.12644974-4.8432343-11.12644974-10.8176567" fill="#fff"/></g><g stroke="#777" stroke-linecap="round" stroke-linejoin="round" transform="translate(0 4.950495)"><path d="m.18868458 14.1980198c0-7.77612761 6.48373409-14.080033 14.48231962-14.080033 7.9985856 0 14.4826026 6.30363036 14.4826026 14.080033 0 7.7761276-6.484017 14.080033-14.4826026 14.080033-7.99830264 0-14.48231962-6.3039054-14.48231962-14.080033z" stroke-width=".94314"/><path d="m14.8414629 6.87568757v-1.10011001m0 17.32673264v-.8250825" stroke-width=".848656"/><path d="m20.1685997 9.03080308.7844413-.76265126m-.4381895 11.40374038.7847242.7626513" stroke-width=".832249"/><path d="m22.4712871 14.4389439h1.1315418" stroke-width=".848656"/><path d="m9.20339463 9.03080308-.78472419-.76265126m.43847242 11.40374038-.78500707.7626513" stroke-width=".832249"/><path d="m6.9125884 14.4389439h-1.13154172" stroke-width=".848656"/><path d="m14.550495 9.6259626v5.2255225h5.3748232" stroke-width="1.131542"/></g></g></svg>