<svg height="16" viewBox="0 0 26 16" width="26" xmlns="http://www.w3.org/2000/svg"><g fill="none" fill-rule="evenodd"><path d="m26 13c0-2.118-.563-4.147-1.594-6l-1.406.794a10.146 10.146 0 0 1 1.406 5.206zm-2-6.728c-1-1.726-2.455-3.271-4.181-4.272l-.819 1.364a11.578 11.578 0 0 1 3.635 3.636z" fill="#be0000"/><path d="m19 1.546c-1.78-.91-3.844-1.456-6-1.546v1.636c1.875.09 3.657.546 5.156 1.364zm-6-1.546c-2.157.09-4.219.636-6 1.546l.843 1.454c1.5-.818 3.282-1.273 5.157-1.364z" fill="#ba6603" fill-opacity=".769"/><path d="m6.273 2a12.024 12.024 0 0 0 -4.273 4.273l1.363.727a11.604 11.604 0 0 1 3.637-3.636zm-4.637 5a11.7 11.7 0 0 0 -1.636 6h1.636c0-1.853.456-3.617 1.364-5.206z" fill="#137700"/><path d="m21.652 12.846c0-4.758-3.893-8.615-8.695-8.615-4.803 0-8.696 3.857-8.696 8.615" fill="#f9d35b" stroke="#777" stroke-width=".825"/><g fill="#020303" transform="matrix(.96592583 -.25881905 .25881905 .96592583 9.066997 6.912678)"><path d="m2.988 7.86-.362-6.951-.486-.024-.072 7.023z"/><circle cx="2.6" cy="8.168" r="1.25"/></g></g></svg>