<svg height="17" viewBox="0 0 17 17" width="17" xmlns="http://www.w3.org/2000/svg"><g fill="#6e7375" fill-rule="evenodd"><path d="m15.4236364.27818182-14.83636367 14.83636368c-.29026168.2176962-.42688977.5846846-.34965866.9391967.07723111.3545122.35413155.6314126.70864369.7086437.35451215.0772311.72150053-.0593969.93919679-.3496586l14.83636365-14.83636366c.2768746-.3691661.2401624-.88574466-.0861374-1.21204447-.3262998-.32629982-.8428783-.36301192-1.2120444-.08613735z"/><g fill-rule="nonzero"><path d="m3.58545455 6.55272727c1.80948567 0 3.27636363-1.46687796 3.27636363-3.27636363s-1.46687796-3.27636364-3.27636363-3.27636364c-1.80948568 0-3.27636364 1.46687797-3.27636364 3.27636364.01676847 1.80249425 1.47386938 3.25959516 3.27636364 3.27636363zm0-4.69818182c.78524849 0 1.42181818.63656969 1.42181818 1.42181819s-.63656969 1.42181818-1.42181818 1.42181818c-.7852485 0-1.42181819-.63656968-1.42181819-1.42181818.01639189-.77835766.64346053-1.4054263 1.42181819-1.42181819z"/><path d="m13.7236364 10.1381818c-1.8094857 0-3.2763637 1.466878-3.2763637 3.2763637 0 1.8094856 1.466878 3.2763636 3.2763637 3.2763636 1.8094856 0 3.2763636-1.466878 3.2763636-3.2763636-.0167685-1.8024943-1.4738694-3.2595952-3.2763636-3.2763637zm0 4.6981818c-.7852485 0-1.4218182-.6365696-1.4218182-1.4218181s.6365697-1.4218182 1.4218182-1.4218182 1.4218181.6365697 1.4218181 1.4218182c-.0163918.7783576-.6434605 1.4054262-1.4218181 1.4218181z"/></g></g></svg>