<svg height="130" viewBox="0 0 4413 130" width="4413" xmlns="http://www.w3.org/2000/svg" xmlns:xlink="http://www.w3.org/1999/xlink"><mask id="a" fill="#fff"/><mask id="b" fill="#fff"/><mask id="c" fill="#fff"/><mask id="d" fill="#fff"/><mask id="e" fill="#fff"><path d="m.488 46.369c0 25.34 20.543 45.882 45.882 45.882 25.34 0 45.882-20.542 45.882-45.882 0-25.339-20.542-45.881-45.882-45.881-25.339 0-45.882 20.542-45.882 45.881z" fill="#fff" fill-rule="evenodd"/></mask><mask id="f" fill="#fff"><path d="m.488 46.369c0 25.34 20.543 45.882 45.882 45.882 25.34 0 45.882-20.542 45.882-45.882 0-25.339-20.542-45.881-45.882-45.881-25.339 0-45.882 20.542-45.882 45.881z" fill="#fff" fill-rule="evenodd"/></mask><mask id="g" fill="#fff"><path d="m.488 46.369c0 25.34 20.543 45.882 45.882 45.882 25.34 0 45.882-20.542 45.882-45.882 0-25.339-20.542-45.881-45.882-45.881-25.339 0-45.882 20.542-45.882 45.881z" fill="#fff" fill-rule="evenodd"/></mask><mask id="h" fill="#fff"><path d="m.488 46.369c0 25.34 20.543 45.882 45.882 45.882 25.34 0 45.882-20.542 45.882-45.882 0-25.339-20.542-45.881-45.882-45.881-25.339 0-45.882 20.542-45.882 45.881z" fill="#fff" fill-rule="evenodd"/></mask><mask id="i" fill="#fff"><path d="m20.361.831c-4.7461075.88061554-9.1130209 3.18141366-12.523 6.598-.012.012-.02.026-.031.038-4.4451933 4.4610744-6.94846903 10.4973294-6.965 16.795 0 .032-.008.061-.008.091 0 .08.005.159.006.238.00619465.6052122.03521528 1.2099755.087 1.813.012.13.017.261.03.39.06476877.619368.15450846 1.2358697.269 1.848.20519519 1.1330641.49262181 2.2496831.86 3.341 3.194 9.483 12.165 16.335 22.712 16.335 1.9989947 0 3.6195-1.6205053 3.6195-3.6195s-1.6205053-3.6195-3.6195-3.6195c-6.908 0-12.851-4.209-15.398-10.199-.006-.011-.007-.023-.011-.034-.48087113-1.1425972-.83401403-2.3348318-1.053-3.555l-.018-.102c-.07036409-.4007536-.12540416-.8040472-.165-1.209-.03158887-.3359546-.05326496-.6727676-.065-1.01-.004-.126-.008-.252-.01-.379-.06776381-4.5096606 1.69423874-8.8544183 4.884-12.043l.012-.016c4.8039583-4.80478061 12.0436013-6.21251096 18.298-3.558.158.066.318.104.478.147 4.584 2.08 8.012 6.581 9.285 11.439.061.231-.013 1.091-.612 1.091h-21.431c-1.999 0-3.62 2-3.62 3.999 0 2 1.621 4.001 3.62 4.001h21.973c2.284 0 4.404-1.877 5.817-3.671 1.408-1.79 1.919-4.912 1.398-7.126-1.748-7.444-7.012-13.655-14.079-16.613-.2442482-.10048431-.498765-.17392194-.759-.219-4.1331386-1.59177958-8.6272142-2.00410868-12.981-1.191z" fill="#fff" fill-rule="evenodd"/></mask><mask id="j" fill="#fff"><path d="m20.361.831c-4.7461075.88061554-9.1130209 3.18141366-12.523 6.598-.012.012-.02.026-.031.038-4.4451933 4.4610744-6.94846903 10.4973294-6.965 16.795 0 .032-.008.061-.008.091 0 .08.005.159.006.238.00619465.6052122.03521528 1.2099755.087 1.813.012.13.017.261.03.39.06476877.619368.15450846 1.2358697.269 1.848.20519519 1.1330641.49262181 2.2496831.86 3.341 3.194 9.483 12.165 16.335 22.712 16.335 1.9989947 0 3.6195-1.6205053 3.6195-3.6195s-1.6205053-3.6195-3.6195-3.6195c-6.908 0-12.851-4.209-15.398-10.199-.006-.011-.007-.023-.011-.034-.48087113-1.1425972-.83401403-2.3348318-1.053-3.555l-.018-.102c-.07036409-.4007536-.12540416-.8040472-.165-1.209-.03158887-.3359546-.05326496-.6727676-.065-1.01-.004-.126-.008-.252-.01-.379-.06776381-4.5096606 1.69423874-8.8544183 4.884-12.043l.012-.016c4.8039583-4.80478061 12.0436013-6.21251096 18.298-3.558.158.066.318.104.478.147 4.584 2.08 8.012 6.581 9.285 11.439.061.231-.013 1.091-.612 1.091h-21.431c-1.999 0-3.62 2-3.62 3.999 0 2 1.621 4.001 3.62 4.001h21.973c2.284 0 4.404-1.877 5.817-3.671 1.408-1.79 1.919-4.912 1.398-7.126-1.748-7.444-7.012-13.655-14.079-16.613-.2442482-.10048431-.498765-.17392194-.759-.219-4.1331386-1.59177958-8.6272142-2.00410868-12.981-1.191z" fill="#fff" fill-rule="evenodd"/></mask><mask id="k" fill="#fff"><path d="m0 .593h99.578v28.777h-99.578z" fill="#fff" fill-rule="evenodd"/></mask><mask id="l" fill="#fff"><path d="m0 120.407h99.578v-120.407h-99.578z" fill="#fff" fill-rule="evenodd"/></mask><mask id="m" fill="#fff"><path d="m13.547.381c-3.129.582-5.976 2.083-8.235 4.337-.007.008-.013.018-.021.026-2.989 3.01-4.566 6.985-4.578 11.042 0 .021-.006.04-.006.061 0 .052.003.103.004.155.002.16.005.322.013.482.009.238.025.475.045.71.007.085.01.171.019.257.035.342.085.68.141 1.015.012.067.024.134.036.199.134.738.318 1.457.551 2.157.005.013.009.027.014.04 2.101 6.236 7.998 10.74 14.933 10.74 1.314 0 2.379-1.066 2.379-2.38s-1.065-2.379-2.379-2.379c-4.542 0-8.449-2.768-10.124-6.705-.004-.007-.004-.016-.008-.024-.32-.763-.549-1.547-.692-2.337-.003-.022-.008-.044-.011-.067-.044-.255-.08-.511-.107-.767 0-.009-.001-.019-.002-.028-.022-.222-.034-.443-.042-.663-.003-.083-.005-.167-.007-.25-.044-2.907 1.068-5.767 3.21-7.918.003-.004.006-.007.009-.011 3.178-3.161 7.898-4.08 12.031-2.339.102.043.209.069.314.096 3.013 1.368 5.268 4.093 6.105 7.287.039.152-.009.481-.403.481h-14.09c-1.315 0-2.381 1.686-2.381 3 0 1.315 1.066 3.001 2.381 3.001h14.432.015c1.501 0 2.894-1.369 3.824-2.548.926-1.177 1.262-3.364.92-4.821-1.151-4.893-4.611-8.977-9.258-10.922-.164-.068-.33-.114-.498-.144-1.814-.695-3.725-1.05-5.651-1.05-.961 0-1.925.088-2.883.267z" fill="#fff" fill-rule="evenodd"/></mask><mask id="n" fill="#fff"><path d="m13.547.381c-3.129.582-5.976 2.083-8.235 4.337-.007.008-.013.018-.021.026-2.989 3.01-4.566 6.985-4.578 11.042 0 .021-.006.04-.006.061 0 .052.003.103.004.155.002.16.005.322.013.482.009.238.025.475.045.71.007.085.01.171.019.257.035.342.085.68.141 1.015.012.067.024.134.036.199.134.738.318 1.457.551 2.157.005.013.009.027.014.04 2.101 6.236 7.998 10.74 14.933 10.74 1.314 0 2.379-1.066 2.379-2.38s-1.065-2.379-2.379-2.379c-4.542 0-8.449-2.768-10.124-6.705-.004-.007-.004-.016-.008-.024-.32-.763-.549-1.547-.692-2.337-.003-.022-.008-.044-.011-.067-.044-.255-.08-.511-.107-.767 0-.009-.001-.019-.002-.028-.022-.222-.034-.443-.042-.663-.003-.083-.005-.167-.007-.25-.044-2.907 1.068-5.767 3.21-7.918.003-.004.006-.007.009-.011 3.178-3.161 7.898-4.08 12.031-2.339.102.043.209.069.314.096 3.013 1.368 5.268 4.093 6.105 7.287.039.152-.009.481-.403.481h-14.09c-1.315 0-2.381 1.686-2.381 3 0 1.315 1.066 3.001 2.381 3.001h14.432.015c1.501 0 2.894-1.369 3.824-2.548.926-1.177 1.262-3.364.92-4.821-1.151-4.893-4.611-8.977-9.258-10.922-.164-.068-.33-.114-.498-.144-1.814-.695-3.725-1.05-5.651-1.05-.961 0-1.925.088-2.883.267z" fill="#fff" fill-rule="evenodd"/></mask><mask id="o" fill="#fff"><path d="m105.003192.78621481v103.65783319h-104.85693238v-103.65783319z" fill="#fff" fill-rule="evenodd"/></mask><mask id="p" fill="#fff"><path d="m82.8330885 11.7844381c-9.5900002 12.2364493-24.5992809 20.1135351-41.4696462 20.1135351-16.2335828 0-30.7442454-7.2936574-40.36133461-18.7467397v-13.1147591h81.83098081z" fill="#fff" fill-rule="evenodd"/></mask><mask id="q" fill="#fff"><path d="m51.19005 11.8441713c-9.5919948 12.2023452-24.5798634 20.0538019-41.42276153 20.0538019-3.30046079 0-6.52970428-.301485-9.66108462-.8781153v-30.95486898h51.08384615z" fill="#fff" fill-rule="evenodd"/></mask><mask id="r" fill="#fff"><path d="m1.00210769 13.1512335c9.61708921 11.4530823 24.12775181 18.7467397 40.36133461 18.7467397 16.8703653 0 31.879646-7.8770858 41.4696462-20.1135351v-11.7479637h-81.83098081z" fill="#fff" fill-rule="evenodd"/></mask><mask id="s" fill="#fff"><path d="m15.5395263.42948529c-3.6881546.68367505-7.08165007 2.46998065-9.7315263 5.12258824-.00955263.00954412-.01563158.01995588-.02431579.0295-3.45443303 3.46313911-5.39934571 8.14972197-5.41113158 13.03899997-.00086842.0242941-.00781579.046853-.00781579.0711471 0 .0616029.00434211.1223382.00434211.1839412.00714582.4697602.03031716.9391406.06947368 1.4073235.00781579.1006471.0121579.2021618.02257895.3028088.04081579.4051912.09986842.8034412.16586842 1.1999559l.04255263.2351324c.15657562.8629638.3745227 1.7136786.65218421 2.5456764l.0165.0477206c2.48194737 7.362853 9.45276316 12.6823971 17.64805266 12.6823971 1.5534752 0 2.8128158-1.2582181 2.8128158-2.8103089 0-1.5520907-1.2593406-2.8103088-2.8128158-2.8103088-5.3677106 0-9.98510529-3.2675588-11.96510529-7.9172794-.00347368-.0086765-.0043421-.0182206-.00868421-.026897-.37273577-.887391-.64705606-1.812906-.81805263-2.7599853l-.01389474-.0789559c-.05210526-.3010736-.09465789-.60475-.12592105-.9075588l-.00260526-.032103c-.02428105-.2606129-.04078837-.5218905-.0495-.7834853-.00347369-.0980441-.00694737-.1952206-.00694737-.2941323-.05393182-3.5010138 1.3146674-6.874384 3.79326316-9.34976474l.01042105-.01301471c3.73315174-3.72998118 9.35871804-4.82264706 14.21865794-2.76172059.1215789.05119118.2466315.08069118.3716842.11366177 3.5613947 1.61555882 6.2257105 5.29785297 7.2148421 9.06951467.0468947.179603-.0104211 1.0359706-.4758948 1.0359706h-16.6537105c-1.5536053 0-2.8119474 1.4845441-2.8119474 3.0367647 0 1.551353 1.2583421 3.0367647 2.8119474 3.0367647h17.0748947c1.7741843 0 3.421579-1.5765147 4.5201316-2.9699558 1.095079-1.389103 1.491079-3.9330442 1.0863948-5.651853-1.359079-5.7785294-5.4493421-10.60091175-10.9403685-12.89757352-.1898569-.07791433-.3875445-.13521881-.5896579-.17092647-3.2120071-1.23406444-6.7036416-1.55393328-10.0867105-.92404412z" fill="#fff" fill-rule="evenodd"/></mask><g fill="none" fill-rule="evenodd" transform="translate(0 2)"><path d="m6.34798 94.924946c-.69736.688346-1.64318 1.075054-2.62942 1.075054-2.0537 0-3.71856-1.643324-3.71856-3.670466v-87.4355798c0-2.7028562 2.1911-4.8939542 4.89396-4.8939542h58.21208c2.70286 0 4.89396 2.191098 4.89396 4.8939542v87.4355798c0 2.027142-1.66486 3.670466-3.71856 3.670466-.98624 0-1.93206-.386708-2.62942-1.075054l-27.65202-27.294328zm54.21488-11.41989v-76.1641246h-53.12572v76.1608406l26.65072-25.883048 1.03116 1.215038z" fill="#fff" fill-rule="nonzero" transform="translate(3294)"/><path d="m6.34798 94.924946c-.69736.688346-1.64318 1.075054-2.62942 1.075054-2.0537 0-3.71856-1.643324-3.71856-3.670466v-87.4355798c0-2.7028562 2.1911-4.8939542 4.89396-4.8939542h58.21208c2.70286 0 4.89396 2.191098 4.89396 4.8939542v87.4355798c0 2.027142-1.66486 3.670466-3.71856 3.670466-.98624 0-1.93206-.386708-2.62942-1.075054l-27.65202-27.294328z" fill="#fff" fill-rule="nonzero" transform="translate(3407)"/><g transform="translate(1292 1)"><path d="m60.3376874 0c33.3232867 0 60.3376876 27.014401 60.3376876 60.3376874 0 33.3241116-27.0144009 60.3376876-60.3376876 60.3376876-33.3232864 0-60.3376874-27.013576-60.3376874-60.3376876 0-33.3232864 27.014401-60.3376874 60.3376874-60.3376874" fill="#fede40"/><path d="m75.6556739 36.5301004c2.2238953-2.23061 5.8247497-2.23061 8.048645 0 2.2211361 2.2306097 2.2211361 5.8459632 0 8.0779572l-36.988592 37.1233024c-1.1110855 1.1179006-2.5659796 1.6747743-4.0222532 1.6747743-1.4548944 0-2.913582-.5596424-4.0236329-1.6747743l-16.0876338-16.1451858c-2.223895-2.2292257-2.223895-5.8456171 0-8.0751888 2.2211363-2.2319944 5.8244049-2.2319944 8.045886 0l12.0626218 12.1068994zm23.9526976 21.1680774c.7080915 0 1.2821125.7803038 1.2821125 1.7428571 0 .9625535-.574021 1.7428571-1.2821125 1.7428571h-25.3214898c-.708091 0-1.2821122-.7803036-1.2821122-1.7428571 0-.9625533.5740212-1.7428571 1.2821122-1.7428571zm-6.9714284 9.4937682c.708091 0 1.2821122.7803038 1.2821122 1.7428571 0 .9625535-.5740212 1.7428571-1.2821122 1.7428571h-25.3214897c-.7080911 0-1.2821123-.7803036-1.2821123-1.7428571 0-.9625533.5740212-1.7428571 1.2821123-1.7428571zm-10.4571429 9.4937682c.708091 0 1.2821122.7803039 1.2821122 1.7428571 0 .9625535-.5740212 1.7428574-1.2821122 1.7428574h-25.3214897c-.7080911 0-1.2821123-.7803039-1.2821123-1.7428574 0-.9625532.5740212-1.7428571 1.2821123-1.7428571z" fill="#fff" fill-rule="nonzero"/></g><g transform="translate(499 1)"><path d="m106.164.653h-75.686l-29.911 40.437 67.791 79.562 67.755-79.562z" fill="#32d6af"/><path d="m.567 41.123 135.546-.033-29.95-40.438h-75.337z" fill="#25997a"/><path d="m.567 41.101 45.182-.01 22.61 79.561z" fill="#5be8c0"/><path d="m136.055 41.101-45.182-.01-22.61 79.561z" fill="#2baa85"/><path d="m30.869.215 14.88 40.438h-45.093z" fill="#32d6af"/><path d="m106.164.434-15.292 40.219h-45.123l-14.88-40.296z" fill="#1bc195"/><path d="m54.085 40.06c-3.447-1.93-5.935-6.055-7.254-8.708-.2023996-.4129062-.6221553-.6746218-1.082-.6746218s-.8796004.2617156-1.082.6746218c-1.32 2.653-3.807 6.778-7.254 8.708-.3906539.2108878-.6341577.6190584-.6341577 1.063s.2435038.8521122.6341577 1.063c3.447 1.93 5.935 6.055 7.254 8.707.447.9 1.717.9 2.164 0 1.319-2.652 3.807-6.777 7.254-8.707.3906539-.2108878.6341577-.6190584.6341577-1.063s-.2435038-.8521122-.6341577-1.063" fill="#fff"/><path d="m30.869.71 75.295-.04 29.891 40.43-67.792 79.551-67.607-79.528z" stroke="#777" stroke-linecap="round" stroke-linejoin="round" stroke-width="3.311"/></g><g transform="translate(166 1)"><path d="m2.23 61.37c0-32.982 26.736-59.72 59.718-59.72s59.72 26.738 59.72 59.72c0 32.981-26.738 59.718-59.72 59.718s-59.718-26.737-59.718-59.718" fill="#ddd"/><path d="m19.725 103.672c23.817 23.815 61.132 23.32 84.454-.001 23.321-23.322 23.817-60.637.001-84.454z" fill="#b2b2b2"/><path d="m16.067 61.37c0-25.34 20.542-45.882 45.882-45.882s45.88 20.542 45.88 45.881c0 25.34-20.54 45.882-45.88 45.882s-45.882-20.542-45.882-45.882" fill="#bcbcbc"/><path d="m147.677 45.964-108.659 108.659-19.434-18.297 108.66-108.659z" fill="#fff" fill-opacity=".3" mask="url(#a)"/><path d="m120.76 19.746-108.66 108.659-7.542-9.566 108.659-108.66z" fill="#fff" fill-opacity=".3" mask="url(#b)"/><path d="m16.067 61.37c0-25.34 20.542-45.882 45.882-45.882s45.88 20.542 45.88 45.881c0 25.34-20.54 45.882-45.88 45.882s-45.882-20.542-45.882-45.882z" stroke="#aaa" stroke-width="1.684"/><path d="m85.759 55.854c-1.75-7.444-7.012-13.654-14.08-16.613-.2439194-.100666-.4980881-.1744353-.758-.22-4.1331812-1.5901745-8.626577-2.0021268-12.98-1.19-4.7465687.8801237-9.1139407 3.1809797-12.524 6.598-.012.012-.02.026-.032.038-4.4453482 4.4612157-6.9480236 10.4981161-6.963 16.796-.001.03-.01.06-.01.091 0 .08.006.158.007.237.0045784.6052582.0336021 1.2100845.087 1.813.012.13.017.26.03.39.053.52.128 1.035.214 1.545l.054.303c.204 1.122.485 2.216.84 3.28l.02.06c3.195 9.484 12.166 16.336 22.712 16.336 1.3074619.021733 2.5250151-.6633471 3.1851004-1.7921591s.6600853-2.5258698 0-3.6546818-1.8776385-1.8138921-3.1851004-1.7921591c-6.908 0-12.85-4.21-15.398-10.199-.005-.01-.006-.023-.011-.034-.6471482-1.5385134-1.0623394-3.1645665-1.232-4.825l-.003-.042c-.0447961-.4617186-.069819-.9251423-.075-1.389-.0677564-4.5091698 1.6938563-8.8534948 4.883-12.042l.013-.017c4.80459-4.8036737 12.0437099-6.2109067 18.298-3.557.158.066.318.104.478.147 4.583 2.08 8.012 6.581 9.285 11.44.06.23-.013 1.09-.612 1.09h-21.432c-2 0-3.62 2-3.62 4 0 1.998 1.62 4 3.62 4h21.972c2.284 0 4.404-1.877 5.818-3.67 1.409-1.79 1.919-4.913 1.398-7.127" fill="#6d6d6d"/><path d="m146.22 45.964-108.657 108.659-19.434-18.297 108.658-108.659z" fill="#6d6d6d" mask="url(#c)"/><path d="m2.23 61.37c0-32.982 26.736-59.72 59.718-59.72s59.72 26.738 59.72 59.72c0 32.981-26.738 59.718-59.72 59.718s-59.718-26.737-59.718-59.718z" stroke="#777" stroke-linecap="round" stroke-linejoin="round" stroke-width="3.302"/><path d="m36.544 35.448c-4.459-2.497-7.677-7.833-9.383-11.264-.2623457-.5336986-.8053072-.871814-1.4-.871814s-1.1376543.3381154-1.4.871814c-1.707 3.43-4.925 8.767-9.384 11.264-.5050566.2729871-.8198015.8008884-.8198015 1.375s.3147449 1.1020129.8198015 1.375c4.46 2.498 7.677 7.834 9.383 11.265.2621377.5342564.8053982.8728321 1.4005.8728321s1.1383623-.3385757 1.4005-.8728321c1.706-3.431 4.924-8.767 9.383-11.264.5049885-.2732835.8196239-.8013073.8196239-1.3755s-.3146354-1.1022165-.8196239-1.3755" fill="#fff"/></g><g transform="translate(0 1)"><path d="m0 60.097c0-33.19 26.906-60.097 60.097-60.097s60.097 26.907 60.097 60.097c0 33.191-26.906 60.098-60.097 60.098s-60.097-26.907-60.097-60.098" fill="#81ce74"/><path d="m17.606 102.668c23.968 23.966 61.52 23.467 84.989-.002s23.968-61.02.001-84.989z" fill="#83c474" mask="url(#d)"/><path d="m9.707 60.097c0-27.829 22.56-50.389 50.39-50.389s50.39 22.56 50.39 50.39-22.56 50.39-50.39 50.39-50.39-22.56-50.39-50.39" fill="#8edb7d"/><g stroke="#fff" stroke-linecap="round" stroke-linejoin="round" stroke-width="1.43" transform="translate(31 33)"><path d="m53.635 30.662-22.358.046v24.974m-21.732-46.838 21.732 21.864"/><path d="m47.974 13.967-16.697 16.74 16.673 16.673"/><path d="m.428 30.739 30.85-.031v-30.331m-.001 30.331-9.088-21.442m-8.435 46.724 17.523-25.282"/></g><path d="m57.253 19.684c-2.7740169 2.7745621-2.7740169 7.2724379 0 10.047l5.023 5.023 5.024-5.023c2.7084279-2.7854516 2.6772743-7.2298549-.0699354-9.9770646s-7.191613-2.7783633-9.9770646-.0699354m-29.574 16.341c-.0058435 1.8842734.7371499 3.6936779 2.0655006 5.0300929 1.3283507 1.3364149 3.1332251 2.0903461 5.0174994 2.0959071l7.105.021.02-7.104c-.052263-3.8779191-3.2045984-6.9974841-7.0828519-7.0092215-3.8782536-.0117374-7.0494135 3.0886897-7.1251481 6.9662215m39.621 65.746c2.7740169-2.7745621 2.7740169-7.2724379 0-10.047l-5.023-5.023-5.023 5.023c-2.6935496 2.7875963-2.6556393 7.2196952.0852006 9.960808 2.7408399 2.741113 7.1729351 2.779464 9.9607994.086192m-47.815-33.086c2.7745621 2.7740169 7.2724379 2.7740169 10.047 0l5.024-5.023-5.024-5.024c-2.7854516-2.7084279-7.2298549-2.6772743-9.9770646.0699354s-2.7783633 7.191613-.0699354 9.9770646m78.622-10.047c-2.7745621-2.7740169-7.2724379-2.7740169-10.047 0l-5.024 5.023 5.024 5.024c2.7854516 2.7084279 7.2298549 2.6772743 9.9770646-.0699354 2.7472094-2.7472097 2.7783634-7.191613.0699354-9.9770646m-10.803 24.952c.0029205-1.3735571-.5399237-2.6920168-1.5091124-3.6653313-.9691887-.9733144-2.2853304-1.5217544-3.6588876-1.5246687l-5.18-.013-.01 5.18c.0488177 2.8209968 2.3463101 5.0840951 5.1677224 5.0903601 2.8214122.0062649 5.1289324-2.2466079 5.1902776-5.0673601m-40.768-47.7c-1.0783215 2.6490304.1943646 5.6707086 2.843 6.75l4.798 1.955 1.953-4.797c1.0428559-2.6407432-.2343791-5.6288536-2.8638071-6.6999193-2.6294279-1.0710658-5.6310401.1741079-6.7301929 2.7919193" fill="#fff" fill-rule="nonzero"/><path d="m62.277 63.708-20.847 10.382" stroke="#fff" stroke-linecap="round" stroke-linejoin="round" stroke-width="1.43"/><path d="m35.475 81.123c2.7106073.9144914 5.6493469-.5414472 6.564-3.252l1.656-4.907-4.907-1.656c-2.6908009-.8515497-5.5680851.6077233-6.4707955 3.2817951s.5014253 5.5786622 3.1577955 6.5322049m48.579-46.315c-3.9232032-.0027628-7.1061357 3.1747977-7.11 7.098l-.007 7.105 7.104.006c2.5381934.0023223 4.8848198-1.3496419 6.1559276-3.5466208 1.2711079-2.1969788 1.2735857-4.905199.0065-7.1045001-1.2670856-2.1993011-3.6112342-3.5555569-6.1494276-3.5578791m-40.685 64.905c1.854661-.3317818 3.5015593-1.386738 4.5783939-2.932789 1.0768347-1.546051 1.4953965-3.4565515 1.1636061-5.311211l-1.251-6.993-6.993 1.251c-2.5336127.4098648-4.6492359 2.1542821-5.5344206 4.5633545-.8851847 2.4090725-.4023159 5.1082745 1.2631734 7.0610488 1.6654894 1.9527743 4.2546744 2.8555337 6.7732472 2.3615967" fill="#fff" fill-rule="nonzero"/></g><g transform="translate(333 1)"><path d="m.65 60.37c0-32.983 26.739-59.72 59.72-59.72s59.719 26.738 59.719 59.72c0 32.981-26.737 59.718-59.72 59.718-32.98 0-59.717-26.737-59.717-59.718" fill="#ffc431"/><path d="m18.146 102.672c23.817 23.815 61.133 23.32 84.454-.001 23.321-23.322 23.817-60.637.001-84.454z" fill="#efab22"/><path d="m14.488 60.37c0-25.34 20.542-45.882 45.882-45.882s45.882 20.542 45.882 45.881c0 25.34-20.542 45.882-45.882 45.882s-45.882-20.542-45.882-45.882" fill="#ffc431"/><path d="m132.099 30.964-108.66 108.659-19.433-18.297 108.659-108.659z" fill="#fff" fill-opacity=".3" mask="url(#e)" transform="translate(14 14)"/><path d="m105.181 4.746-108.659 108.659-7.543-9.566 108.659-108.66z" fill="#fff" fill-opacity=".3" mask="url(#f)" transform="translate(14 14)"/><path d="m.488 46.37c0-25.34 20.542-45.882 45.882-45.882s45.882 20.542 45.882 45.881c0 25.34-20.542 45.882-45.882 45.882s-45.882-20.542-45.882-45.882z" mask="url(#g)" stroke="#c80" stroke-width="1.684" transform="translate(14 14)"/><path d="m70.18 40.854c-1.749-7.444-7.013-13.654-14.08-16.613-.2435987-.1005965-.4974284-.1743647-.757-.22-4.1338271-1.5903934-8.6279248-2.0023466-12.982-1.19-4.7460448.880796-9.1129075 3.1815674-12.523 6.598-.011.012-.02.026-.032.038-4.4448877 4.4615229-6.9474809 10.4982248-6.963 16.796 0 .03-.01.06-.01.091 0 .08.006.158.007.237.0051213.6052657.0344781 1.2100836.088 1.813.01.13.016.26.029.39.0658461.6191782.1552442 1.2356247.268 1.848.204 1.122.486 2.216.84 3.28l.02.06c3.196 9.484 12.166 16.336 22.712 16.336 1.9755414-.032838 3.5598356-1.6436857 3.5598356-3.6195s-1.5842942-3.586662-3.5598356-3.6195c-6.907 0-12.85-4.21-15.397-10.199-.005-.01-.006-.023-.011-.034-.4801056-1.1428706-.8332231-2.3350194-1.053-3.555l-.018-.102c-.0674557-.3873079-.1211561-.776886-.161-1.168l-.004-.042c-.0447997-.4617184-.0698226-.9251422-.075-1.389-.0682156-4.5092557 1.6934669-8.853753 4.883-12.042l.014-.017c4.8044062-4.8032471 12.0429857-6.210452 18.297-3.557.157.066.319.104.478.147 4.584 2.08 8.013 6.581 9.284 11.44.063.23-.013 1.09-.612 1.09h-21.43c-2 0-3.62 2-3.62 4 0 1.998 1.62 4 3.62 4h21.973c2.284 0 4.403-1.877 5.816-3.67 1.41-1.79 1.92-4.913 1.4-7.127" fill="#c80" mask="url(#h)" transform="translate(14 14)"/><path d="m108.642 8.964-108.659 108.659-19.434-18.297 108.659-108.659z" fill="#ef990f" mask="url(#i)" transform="translate(36 36)"/><path d="m-35.35 24.37c0-32.983 26.739-59.72 59.72-59.72s59.719 26.738 59.719 59.72c0 32.981-26.737 59.718-59.72 59.718-32.98 0-59.717-26.737-59.717-59.718z" mask="url(#j)" stroke="#777" stroke-linecap="round" stroke-linejoin="round" stroke-width="3.302" transform="translate(36 36)"/><path d="m33.97 34.448c-4.46-2.497-7.678-7.833-9.385-11.264-.2623457-.5336986-.8053072-.871814-1.4-.871814s-1.1376543.3381154-1.4.871814c-1.707 3.43-4.924 8.767-9.384 11.264-.504474.273443-.8187007.8011838-.8187007 1.375s.3142267 1.101557.8187007 1.375c4.46 2.498 7.677 7.834 9.384 11.265.2623457.5336986.8053072.871814 1.4.871814s1.1376543-.3381154 1.4-.871814c1.707-3.431 4.925-8.767 9.384-11.264.5049885-.2732835.8196239-.8013073.8196239-1.3755s-.3146354-1.1022165-.8196239-1.3755" fill="#fff"/></g><g transform="translate(682 1)"><path d="m41.239 23.102h21.503v-10.752h-21.503z" fill="#777"/><path d="m36.708 12.35h30.565v-12.35h-30.565z" fill="#aaa"/><path d="m.667 69.624c0-28.274 22.92-51.195 51.195-51.195s51.196 22.92 51.196 51.195c0 28.274-22.921 51.195-51.196 51.195-28.274 0-51.195-22.921-51.195-51.195" fill="#81ce74"/><path d="m15.665 105.889c20.418 20.417 52.408 19.992 72.4-.001 19.993-19.993 20.418-51.983.001-72.4l-72.401 72.4z" fill="#ffd217"/><path d="m12.53 69.624c0-21.723 17.61-39.333 39.332-39.333 21.723 0 39.333 17.61 39.333 39.333s-17.61 39.333-39.333 39.333-39.332-17.61-39.332-39.333" fill="#fff"/><g stroke="#777" stroke-linecap="round" stroke-linejoin="round" transform="translate(0 18)"><path d="m.667 51.624c0-28.274 22.92-51.195 51.195-51.195s51.196 22.92 51.196 51.195c0 28.274-22.921 51.195-51.196 51.195-28.274 0-51.195-22.921-51.195-51.195z" stroke-width="3.334"/><path d="m51.936 25v-4m0 63v-3" stroke-width="3"/><path d="m71.296 32.836 2.773-2.773m-1.549 41.464 2.774 2.773" stroke-width="2.942"/><path d="m79.436 52.5h4" stroke-width="3"/><path d="m32.534 32.836-2.774-2.773m1.55 41.464-2.775 2.773" stroke-width="2.942"/><path d="m24.436 52.5h-4" stroke-width="3"/><path d="m51.436 35v19h19" stroke-width="4"/></g></g><g transform="translate(1125 1)"><path d="m60.9163237 0c33.6445542 0 60.9163233 27.2717695 60.9163233 60.9163237s-27.2717691 60.9163233-60.9163233 60.9163233-60.9163237-27.2717691-60.9163237-60.9163233 27.2717695-60.9163237 60.9163237-60.9163237" fill="#ed6060"/><path d="m88.0909037 40.2037104-21.0020741 21.0020741 21.0020741 21.0067599c1.5891008 1.6363822 1.5891008 4.2397001 0 5.8760823-.8996872.8996873-1.7993745 1.1292949-2.9286694 1.1292949s-2.0289822-.4592153-2.9286694-1.124609l-21.0255034-21.00676-21.0255035 21.0020741c-.8996872.8996873-1.7993744 1.1292949-2.9286694 1.1292949-1.124609 0-2.0289821-.4592153-2.9239835-1.124609-1.5921368-1.6369693-1.5921368-4.2437989 0-5.8807682l21.0020741-21.0067599-21.0020741-21.0020741c-1.5891008-1.6363822-1.5891008-4.2397001 0-5.8760823 1.6363822-1.5891008 4.2397001-1.5891008 5.8760823 0l21.0020741 21.0020741 21.0067599-21.0020741c1.6363822-1.5891008 4.2397001-1.5891008 5.8760823 0 1.5931962 1.5885103 1.5931962 4.0579643 0 5.8760823" fill="#fff"/></g><g transform="translate(831 1)"><path d="m41.239 23.102h21.503v-10.752h-21.503z" fill="#777"/><path d="m36.708 12.35h30.565v-12.35h-30.565z" fill="#aaa"/><path d="m.667 69.624c0-28.274 22.92-51.195 51.195-51.195s51.196 22.92 51.196 51.195c0 28.274-22.921 51.195-51.196 51.195-28.274 0-51.195-22.921-51.195-51.195" fill="#ed6060"/><path d="m15.665 105.889c20.418 20.417 52.407 19.992 72.4-.001s20.418-51.983.001-72.4l-72.401 72.4z" fill="#e23b3b"/><path d="m12.53 69.624c0-21.723 17.61-39.333 39.332-39.333 21.723 0 39.333 17.61 39.333 39.333s-17.61 39.333-39.333 39.333-39.332-17.61-39.332-39.333" fill="#fff"/><g stroke="#777" stroke-linecap="round" stroke-linejoin="round" transform="translate(0 18)"><path d="m.667 51.624c0-28.274 22.92-51.195 51.195-51.195s51.196 22.92 51.196 51.195c0 28.274-22.921 51.195-51.196 51.195-28.274 0-51.195-22.921-51.195-51.195z" stroke-width="3.334"/><path d="m51.732 25v-4m0 63v-3" stroke-width="3"/><path d="m71.296 32.836 2.773-2.773m-1.549 41.464 2.774 2.773" stroke-width="2.942"/><path d="m80.232 52.5h3" stroke-width="3"/><path d="m32.534 32.836-2.774-2.773m1.55 41.464-2.775 2.773" stroke-width="2.942"/><path d="m24.232 52.5h-4" stroke-width="3"/><path d="m51.232 35v19h19" stroke-width="4"/></g><path d="m25.722 86.32c-1.751-.98-3.014-3.075-3.684-4.421-.1031415-.2095734-.316421-.3423175-.55-.3423175s-.4468585.1327441-.55.3423175c-.67 1.346-1.933 3.442-3.684 4.422-.198252.1072859-.3217741.3145802-.3217741.54s.1235221.4327141.3217741.54c1.75.98 3.014 3.075 3.684 4.422.1031415.2095734.316421.3423175.55.3423175s.4468585-.1327441.55-.3423175c.67-1.347 1.933-3.442 3.684-4.422.198252-.1072859.3217741-.3145802.3217741-.54s-.1235221-.4327141-.3217741-.54" fill="#fff"/></g><g transform="translate(980 1)"><path d="m92.67 27.982-.103 82.59c-.36 5.036-3.882 9.198-8.61 9.198h-68.335c-4.727 0-8.21-4.157-8.61-9.197l.001-82.591z" fill="#ed6060"/><path d="m20.917 30.809h7.006v67.438c0 5.214-7.006 5.214-7.006 0zm42.083 0h7.006v66.406c0 5.214-7.006 5.214-7.006 0zm-21.041 0h7.006v66.406c0 5.214-7.006 5.214-7.006 0z" fill="#e23b3b" fill-rule="nonzero"/><path d="m81.868 28.187-.078 70.275c-.315 5.036-3.393 8.725-7.525 8.725h-59.727c-4.131 0-7.795-3.418-8.795-8.458v-17.292 29.136c1 5.04 5.152 9.614 9.879 9.614h68.336c4.727 0 8.249-4.268 8.61-9.303l.103-82.697z" fill="#dd3636"/><path d="m42.49 14.907h14.6c.02-.228.032-.457.032-.689 0-4.09-3.3-7.435-7.332-7.435h-.001c-4.032 0-7.331 3.345-7.331 7.435 0 .232.01.462.032.689m-32.68 0h26.964c-.0132018-.2294304-.0198711-.4591901-.02-.689.001-7.27 5.866-13.218 13.036-13.218s13.035 5.948 13.035 13.218c0 .231-.006.46-.018.689h26.968c5.377 0 10.224 4.497 9.776 9.913l-.411 4.957h-98.651l-.454-4.957c-.496-5.429 4.399-9.913 9.775-9.913" fill="#636363" fill-rule="nonzero" mask="url(#k)"/><path d="m92.67 28.712-.102 81.136c0 .483-.01.968-.075 1.446-.629 4.706-4.036 8.475-8.536 8.475h-68.335c-4.255 0-7.502-3.367-8.4-7.714-.165-.8-.21-1.619-.21-2.436l.001-80.907z" stroke="#777" stroke-linecap="round" stroke-linejoin="round" stroke-width="3.275"/><path d="m.155 31.992h99.261v-6.698h-99.261z" fill="#d1d1d1" mask="url(#l)" transform="translate(0 1)"/></g><path d="m61.0909091 52.3636364 33.0414545-33.0414546c1.1953256-1.1367539 1.8720023-2.7140871 1.8720023-4.3636363 0-1.6495493-.6766767-3.2268825-1.8720023-4.3636364-1.1367539-1.19532552-2.7140871-1.8720023-4.3636363-1.8720023s-3.2268825.67667678-4.3636364 1.8720023l-33.0414545 33.0414545-33.0414546-33.0414545c-1.1367539-1.19532552-2.7140871-1.8720023-4.3636363-1.8720023-1.6495493 0-3.2268825.67667678-4.3636364 1.8720023-1.19532552 1.1367539-1.8720023 2.7140871-1.8720023 4.3636364 0 1.6495492.67667678 3.2268824 1.8720023 4.3636363l33.0414545 33.0414546-33.0414545 33.0414545c-1.19532552 1.1367539-1.8720023 2.7140872-1.8720023 4.3636364s.67667678 3.2268824 1.8720023 4.3636363c1.1102618 1.2323635 2.7055826 1.9151608 4.3636364 1.8676364 1.6580538.0475244 3.2533746-.6352729 4.3636363-1.8676364l33.0414546-33.0414545 33.0414545 33.0414545c1.1798381 1.1312586 2.7306968 1.7950262 4.3636364 1.8676364 1.6329395-.0726102 3.1837983-.7363778 4.3636363-1.8676364 1.1953256-1.1367539 1.8720023-2.7140871 1.8720023-4.3636363s-.6766767-3.2268825-1.8720023-4.3636364z" fill="#aeaeaf" stroke="#aeaeaf" stroke-width="8.8" transform="translate(3018)"/><g transform="translate(1459 1)"><g transform="translate(0 .646)"><path d="m67.3785 81.5984h-8.014v-25.85c0-1.373-.56-2.15-1.933-2.15h-9.943c-1.373 0-2.124.777-2.124 2.15v25.85h-7.823c-4.112 0-8.177 3.8-8.177 7.916v4.975c0 4.109 4.065 7.109 8.177 7.109h29.837c4.112 0 7.986-3 7.986-7.109v-4.975c0-4.116-3.874-7.916-7.986-7.916" fill="#ddd"/><path d="m67.3785 81.5984h-8.014v-25.85c0-1.373-.56-2.15-1.933-2.15h-9.943c-1.373 0-2.124.777-2.124 2.15v2.85h5.799c1.373 0 2.201 1 2.201 2.374v26.626h7.746c4.112 0 8.254 3.023 8.254 7.139v4.975c0 .777-.263 1.529-.5 2.239 3.642-.538 6.5-3.719 6.5-7.462v-4.975c0-4.116-3.874-7.916-7.986-7.916" fill="#b2b2b2"/><path d="m67.3785 82.0984h-7.514v-26.35c0-1.373-1.06-1.65-2.433-1.65h-9.943c-1.373 0-1.624.277-1.624 1.65v26.35h-8.323c-4.112 0-6.677 3.3-6.677 7.416v4.975c0 4.109 2.565 6.609 6.677 6.609h29.837c4.112 0 7.486-2.5 7.486-6.609v-4.975c0-4.116-3.374-7.416-7.486-7.416z" stroke="#777" stroke-linecap="round" stroke-linejoin="round" stroke-width="3"/><path d="m79.8096 89.5139h-54.699c-1.373 0-2.488 1.114-2.488 2.484v24.869c0 1.37 1.115 2.484 2.488 2.484h54.699c1.373 0 2.488-1.114 2.488-2.484v-24.869c-.001-1.37-1.115-2.484-2.488-2.484" fill="#777"/><path d="m81.1387 52.2175c-.979 0-1.909-.585-2.302-1.548-.517-1.271.092-2.723 1.366-3.242 9.608-3.915 15.814-11.274 18.448-21.871 1.351-5.44 1.377-10.412 1.246-13.121h-15.115c-1.373 0-2.484-1.115-2.484-2.488s1.111-2.486 2.484-2.486h17.406c1.242 0 2.291.915 2.462 2.142.047.322 1.071 7.958-1.129 16.98-2.969 12.143-10.381 20.943-21.442 25.45-.31.125-.627.184-.94.184" fill="#b2b2b2"/><path d="m23.7881 52.2175c-.313 0-.63-.059-.937-.184-11.062-4.507-18.476-13.307-21.442-25.45-2.202-9.022-1.177-16.658-1.131-16.98.171-1.228 1.221-2.142 2.462-2.142h17.406c1.373 0 2.486 1.112 2.486 2.486 0 1.373-1.113 2.487-2.486 2.487h-15.115c-.131 2.708-.104 7.68 1.247 13.121 2.632 10.598 8.838 17.956 18.448 21.872 1.273.519 1.883 1.971 1.366 3.242-.393.964-1.324 1.548-2.304 1.548" fill="#b2b2b2"/><path d="m84.7847.0027h-64.648c-1.373 0-2.486 1.112-2.486 2.486v32.325c0 9.298 3.621 18.04 10.195 24.614 6.574 6.572 15.317 10.193 24.614 10.193 9.299 0 18.04-3.621 24.614-10.193 6.575-6.574 10.195-15.316 10.195-24.614v-32.326c0-1.373-1.111-2.485-2.484-2.485" fill="#ddd"/><path d="m84.7847.0027h-11.387c1.374 0 2.488 1.112 2.488 2.486v32.325c0 25.914-17.551 34.136-25.912 34.719.823.058 1.652.088 2.486.088 9.299 0 18.04-3.621 24.614-10.193 6.575-6.574 10.195-15.316 10.195-24.614v-32.326c0-1.373-1.111-2.485-2.484-2.485" fill="#b2b2b2"/><path d="m84.7847.0027h-64.648c-1.373 0-2.486 1.112-2.486 2.486v32.325c0 9.298 3.621 18.04 10.195 24.614 6.574 6.572 15.317 10.193 24.614 10.193 9.299 0 18.04-3.621 24.614-10.193 6.575-6.574 10.195-15.316 10.195-24.614v-32.326c0-1.373-1.111-2.485-2.484-2.485z" stroke="#777" stroke-linecap="round" stroke-linejoin="round" stroke-width="3.298"/><path d="m79.8096 90.5984h-14.209c1.373 0 2.764.03 2.764 1.399v24.87c0 1.369-1.39 2.731-2.764 2.731h14.209c1.373 0 1.555-1.362 1.555-2.731v-24.87c0-1.369-.182-1.399-1.555-1.399" fill="#4f4f4f"/><path d="m35.9019 12.4099c-2.529-1.416-4.354-4.443-5.322-6.389-.329-.66-1.261-.66-1.589 0-.968 1.946-2.793 4.973-5.322 6.389-.621.347-.621 1.213 0 1.56 2.529 1.417 4.354 4.443 5.322 6.389.328.661 1.26.661 1.589 0 .968-1.946 2.793-4.972 5.322-6.389.62-.347.62-1.213 0-1.56" fill="#fff"/><path d="m67.8365 31.2302c-1.15-4.894-4.611-8.977-9.257-10.922-.164-.069-.331-.115-.499-.144-2.718-1.042-5.655-1.32-8.534-.784-3.128.583-5.976 2.083-8.234 4.338-.008.008-.013.018-.021.026-2.99 3.009-4.567 6.985-4.579 11.042 0 .021-.005.04-.005.06 0 .052.003.104.004.156.001.161.005.321.012.482.009.238.025.475.045.71.007.085.011.171.02.257.034.342.084.68.141 1.015.011.067.023.133.035.2.134.737.319 1.457.552 2.155.005.014.009.027.014.041 2.1 6.235 7.998 10.74 14.932 10.74 1.314 0 2.38-1.066 2.38-2.38s-1.066-2.38-2.38-2.38c-4.542 0-8.449-2.767-10.124-6.705-.003-.007-.003-.015-.007-.023-.321-.763-.55-1.547-.692-2.337-.004-.022-.008-.045-.012-.067-.044-.255-.08-.511-.106-.768-.001-.009-.001-.018-.002-.027-.022-.222-.035-.443-.043-.664-.003-.083-.005-.166-.006-.249-.044-2.907 1.067-5.767 3.21-7.918.003-.003.006-.007.009-.011 3.178-3.161 7.897-4.081 12.03-2.339.103.043.209.068.315.097 3.013 1.367 5.267 4.091 6.104 7.285.04.153-.009.482-.403.482h-14.09c-1.314 0-2.38 1.686-2.38 3 0 1.315 1.066 3 2.38 3h14.433.014c1.501 0 2.895-1.368 3.824-2.548.927-1.176 1.262-3.364.92-4.82" fill="#6d6d6d"/></g><path d="m107.5879 25.3738-71.44 71.44-12.777-12.029 71.44-71.441z" fill="#6d6d6d" mask="url(#m)"/><path d="m79.8096 90.1599h-54.699c-1.373 0-2.488 1.114-2.488 2.484v24.869c0 1.37 1.115 2.484 2.488 2.484h54.699c1.373 0 2.488-1.114 2.488-2.484v-24.869c-.001-1.37-1.115-2.484-2.488-2.484z" stroke="#4f4f4f" stroke-linecap="round" stroke-linejoin="round" stroke-width="3.298"/></g><path d="m30.183584 69.9180836-8.4521234 8.4529674 18.0277168.00478c3.5659134.1092968 5.5284634 2.3261476 5.4261068 5.4237774-.1031328 3.1011604-2.8960944 5.7029794-5.7993252 5.7999042-2.9017952.0954892-32.32151938-.008944-32.32151938-.008944-1.54936336.051198-2.93025242-.5301886-3.91273826-1.5127726s-1.56381448-2.363611-1.51193304-3.9124406c0 0-.10511142-29.4233508-.00963172-32.3254358.09691518-2.9035206 2.6984744-5.6967612 5.7993251-5.7999042 3.096632-.1030556 5.3139499 1.8603792 5.4225473 5.42596l.005241 18.0304328 47.9819902-47.9867821c.0678422-.067849.1368604-.1338145.2069894-.1978963l8.4521232-8.4529674-18.0277168-.0047799c-3.5659134-.1092969-5.5284634-2.3261476-5.4261068-5.42377746.103133-3.10116038 2.8960944-5.7029794 5.7993252-5.79990426 2.9017952-.09548924 32.3215194.0089441 32.3215194.0089441 1.5493634-.05119804 2.9302524.53018864 3.9127382 1.5127726.982486.98258398 1.5638146 2.36361094 1.5119332 3.91244046 0 0 .1051114 29.42335086.0096316 32.32543586-.0969152 2.9035208-2.6984744 5.6967612-5.799325 5.7999044-3.096632.1030554-5.31395-1.8603792-5.4225474-5.4259602l-.005241-18.0304326-47.9819902 47.986782c-.0678422.067849-.1368604.1338144-.2069892.1978962z" fill="#fff" transform="translate(3159)"/><path d="m30.183584 69.9180836-8.4521234 8.4529674 18.0277168.00478c3.5659134.1092968 5.5284634 2.3261476 5.4261068 5.4237774-.1031328 3.1011604-2.8960944 5.7029794-5.7993252 5.7999042-2.9017952.0954892-32.32151938-.008944-32.32151938-.008944-1.54936336.051198-2.93025242-.5301886-3.91273826-1.5127726s-1.56381448-2.363611-1.51193304-3.9124406c0 0-.10511142-29.4233508-.00963172-32.3254358.09691518-2.9035206 2.6984744-5.6967612 5.7993251-5.7999042 3.096632-.1030556 5.3139499 1.8603792 5.4225473 5.42596l.005241 18.0304328 47.9819902-47.9867821c.0678422-.067849.1368604-.1338145.2069894-.1978963l8.4521232-8.4529674-18.0277168-.0047799c-3.5659134-.1092969-5.5284634-2.3261476-5.4261068-5.42377746.103133-3.10116038 2.8960944-5.7029794 5.7993252-5.79990426 2.9017952-.09548924 32.3215194.0089441 32.3215194.0089441 1.5493634-.05119804 2.9302524.53018864 3.9127382 1.5127726.982486.98258398 1.5638146 2.36361094 1.5119332 3.91244046 0 0 .1051114 29.42335086.0096316 32.32543586-.0969152 2.9035208-2.6984744 5.6967612-5.799325 5.7999044-3.096632.1030554-5.31395-1.8603792-5.4225474-5.4259602l-.005241-18.0304326-47.9819902 47.986782c-.0678422.067849-.1368604.1338144-.2069892.1978962z" fill="#4f4f4f" transform="translate(3520)"/><g fill-rule="nonzero" transform="translate(1760 1)"><circle cx="60" cy="60" fill="#50b7e8" opacity=".47" r="60"/><path d="m49.6 46.8 25.716214 14.9107767-25.716214 15.0978073z" fill="#fff"/></g><path d="m69.52 16.166c.1.36.18.72.2 1.06v.88c-.02.36-.1.72-.2 1.06-.7 2.46-2.9 4.16-5.48 4.26h-32.12c-2.54-.1-4.74-1.8-5.44-4.26-.1-.34-.18-.7-.2-1.1v-.8c.02-.38.1-.76.2-1.1.18-.6.46-1.18.82-1.7.78-1.14 1.96-1.96 3.3-2.32.5-.14 1.02-.2 1.54-.2h3.46v1.5c.04-3.34 1.44-6.36 3.66-8.56 2.24-2.18 5.3-3.54 8.7-3.54h.18c6.68 0 12.18 5.42 12.26 12.1 0 0 0-.5 0-1.5h3.46c.52 0 1.04.06 1.54.2 1.34.36 2.52 1.18 3.3 2.32.36.52.64 1.1.82 1.7zm-14.94-2.22v-.52c-.1-3.46-2.98-6.26-6.44-6.26h-.28c-3.46 0-6.34 2.8-6.44 6.26v.52zm39.432 83.574c.026 7.634.054 5.42-.112 13.25-.094 4.178-1.824 8.142-4.874 11.162-3.076 3.042-7.09 4.72-11.31 4.72h-.066c-8.994-.04-17.762-.042-26.698-.042h-2.952-2.95c-8.938 0-17.706.002-26.698.042h-.066c-4.22 0-8.236-1.678-11.31-4.72-3.05-3.018-4.78-6.982-4.874-11.162-.17-7.83-.142-5.616-.114-13.25l.006-1.13c.008-2.668.018-5.424.016-8.13-.004-6.342 0-12.686.002-19.028v-3.26c.002-9.842.006-20.02-.01-30.002-.01-7.452 3.104-12.928 9.262-16.27 2.118-1.144 4.504-1.66 7.744-1.67l1.68-.002v7.84l-.376.002c-1.064.01-1.974.036-2.782.09-4.14.264-7.684 3.782-7.898 7.84-.206 3.954-.198 8.102-.19 11.766.002.808.002 1.618.002 2.426-.01 13.668-.01 27.332-.01 40.996 0 9.534 0 8.962-.002 18.496 0 2.17 0 4.414 1.036 6.35 1.794 3.344 4.368 4.968 7.876 4.968 4.74 0 9.48 0 14.218-.002l14.22-.002h1.218 1.218l14.22.002c4.738.002 9.478.002 14.218.002 3.508 0 6.082-1.626 7.876-4.968 1.036-1.936 1.036-4.18 1.036-6.35-.002-9.534-.002-8.962-.002-18.496 0-13.664 0-27.33-.01-40.996 0-.808 0-1.618.002-2.426.008-3.662.014-7.812-.19-11.766-.214-4.058-3.756-7.574-7.898-7.84-.808-.052-1.718-.08-2.782-.09l-.376-.002v-7.84l1.68.002c3.238.01 5.626.526 7.744 1.67 6.156 3.344 9.272 8.818 9.262 16.27-.016 9.984-.012 20.16-.01 30.002v3.26c.002 6.342.004 12.686.002 19.028-.002 2.706.008 5.462.016 8.13zm-72.138-11.422h27.9v6h-27.9c-1.6568542 0-3-1.3431459-3-3s1.3431458-3 3-3zm0 12.016h19.9v6h-19.9c-1.6568542 0-3-1.343146-3-3 0-1.6568541 1.3431458-3 3-3zm52.026-12.114c1.6568541 0 3 1.3431459 3 3s-1.3431459 3-3 3h-21.9v-6zm0 12c1.6568541 0 3 1.3431459 3 3 0 1.656854-1.3431459 3-3 3h-29.9v-6zm-37.4793867-45.3658269 8.0053331 8.095449c1.2993288-.9328026 2.8874464-1.4811832 4.6022192-1.4811832.9913141 0 1.9402997.1832702 2.8156323.5181328l8.9537797-14.287029c-1.6839021-1.4758024-2.7490037-3.6544982-2.7490037-6.0847622 0-4.4452186 3.5634477-8.0487805 7.9591837-8.0487805 4.3957357 0 7.9591835 3.6035619 7.9591835 8.0487805 0 4.4452187-3.5634478 8.0487806-7.9591835 8.0487806-.4580157 0-.9069952-.039123-1.3438493-.114244l-9.3883547 14.9804549c1.0719251 1.3712464 1.7117957 3.1037808 1.7117957 4.9874475 0 4.4452186-3.563448 8.0487805-7.9591837 8.0487805s-7.9591837-3.6035619-7.9591837-8.0487805c0-1.1453352.2365645-2.234796.6629773-3.2211403l-8.6205509-8.7175928c-.9753646.4312131-2.0526976.6704405-3.1852835.6704405-4.3957357 0-7.9591837-3.6035618-7.9591837-8.0487805s3.563448-8.0487805 7.9591837-8.0487805 7.9591837 3.6035618 7.9591837 8.0487805c0 1.734076-.5422762 3.3400712-1.4646952 4.6540267zm-6.4944885.1752416c2.6374416 0 4.7755101-2.1621371 4.7755101-4.8292683s-2.1380685-4.8292683-4.7755101-4.8292683c-2.6374413 0-4.7755102 2.1621371-4.7755102 4.8292683s2.1380689 4.8292683 4.7755102 4.8292683zm19.1020408 19.317073c2.6374416 0 4.7755101-2.162137 4.7755101-4.8292682s-2.1380685-4.8292683-4.7755101-4.8292683c-2.6374413 0-4.7755101 2.1621371-4.7755101 4.8292683s2.1380688 4.8292682 4.7755101 4.8292682zm16.979592-27.9024389c2.6374413 0 4.7755101-2.1621371 4.7755101-4.8292683s-2.1380688-4.8292682-4.7755101-4.8292682c-2.6374416 0-4.7755104 2.162137-4.7755104 4.8292682s2.1380688 4.8292683 4.7755104 4.8292683z" fill="#4a4a4a" fill-rule="nonzero" transform="translate(1925 1)"/><g transform="translate(1609 1)"><g transform="translate(0 .646)"><path d="m67.3785 81.5984h-8.014v-25.85c0-1.373-.56-2.15-1.933-2.15h-9.943c-1.373 0-2.124.777-2.124 2.15v25.85h-7.823c-4.112 0-8.177 3.8-8.177 7.916v4.975c0 4.109 4.065 7.109 8.177 7.109h29.837c4.112 0 7.986-3 7.986-7.109v-4.975c0-4.116-3.874-7.916-7.986-7.916" fill="#ffc431"/><path d="m67.3785 81.5984h-8.014v-25.85c0-1.373-.56-2.15-1.933-2.15h-9.943c-1.373 0-2.124.777-2.124 2.15v2.85h5.799c1.373 0 2.201 1 2.201 2.374v26.626h7.746c4.112 0 8.254 3.023 8.254 7.139v4.975c0 .777-.263 1.529-.5 2.239 3.642-.538 6.5-3.719 6.5-7.462v-4.975c0-4.116-3.874-7.916-7.986-7.916" fill="#efab22"/><path d="m67.3785 82.0984h-7.514v-26.35c0-1.373-1.06-1.65-2.433-1.65h-9.943c-1.373 0-1.624.277-1.624 1.65v26.35h-8.323c-4.112 0-6.677 3.3-6.677 7.416v4.975c0 4.109 2.565 6.609 6.677 6.609h29.837c4.112 0 7.486-2.5 7.486-6.609v-4.975c0-4.116-3.374-7.416-7.486-7.416z" stroke="#777" stroke-linecap="round" stroke-linejoin="round" stroke-width="3"/><path d="m79.8096 89.5139h-54.699c-1.373 0-2.488 1.114-2.488 2.484v24.869c0 1.37 1.115 2.484 2.488 2.484h54.699c1.373 0 2.488-1.114 2.488-2.484v-24.869c-.001-1.37-1.115-2.484-2.488-2.484" fill="#777"/><path d="m81.1387 52.2175c-.979 0-1.909-.585-2.302-1.548-.517-1.271.092-2.723 1.366-3.242 9.608-3.915 15.814-11.274 18.448-21.871 1.351-5.44 1.377-10.412 1.246-13.121h-15.115c-1.373 0-2.484-1.115-2.484-2.488s1.111-2.486 2.484-2.486h17.406c1.242 0 2.291.915 2.462 2.142.047.322 1.071 7.958-1.129 16.98-2.969 12.143-10.381 20.943-21.442 25.45-.31.125-.627.184-.94.184" fill="#efab22"/><path d="m23.7881 52.2175c-.313 0-.63-.059-.937-.184-11.062-4.507-18.476-13.307-21.442-25.45-2.202-9.022-1.177-16.658-1.131-16.98.171-1.228 1.221-2.142 2.462-2.142h17.406c1.373 0 2.486 1.112 2.486 2.486 0 1.373-1.113 2.487-2.486 2.487h-15.115c-.131 2.708-.104 7.68 1.247 13.121 2.632 10.598 8.838 17.956 18.448 21.872 1.273.519 1.883 1.971 1.366 3.242-.393.964-1.324 1.548-2.304 1.548" fill="#efab22"/><path d="m84.7847.0027h-64.648c-1.373 0-2.486 1.112-2.486 2.486v32.325c0 9.298 3.621 18.04 10.195 24.614 6.574 6.572 15.317 10.193 24.614 10.193 9.299 0 18.04-3.621 24.614-10.193 6.575-6.574 10.195-15.316 10.195-24.614v-32.326c0-1.373-1.111-2.485-2.484-2.485" fill="#ffc431"/><path d="m84.7847.0027h-11.387c1.374 0 2.488 1.112 2.488 2.486v32.325c0 25.914-17.551 34.136-25.912 34.719.823.058 1.652.088 2.486.088 9.299 0 18.04-3.621 24.614-10.193 6.575-6.574 10.195-15.316 10.195-24.614v-32.326c0-1.373-1.111-2.485-2.484-2.485" fill="#efab22"/><path d="m84.7847.0027h-64.648c-1.373 0-2.486 1.112-2.486 2.486v32.325c0 9.298 3.621 18.04 10.195 24.614 6.574 6.572 15.317 10.193 24.614 10.193 9.299 0 18.04-3.621 24.614-10.193 6.575-6.574 10.195-15.316 10.195-24.614v-32.326c0-1.373-1.111-2.485-2.484-2.485z" stroke="#777" stroke-linecap="round" stroke-linejoin="round" stroke-width="3.298"/><path d="m79.8096 90.5984h-14.209c1.373 0 2.764.03 2.764 1.399v24.87c0 1.369-1.39 2.731-2.764 2.731h14.209c1.373 0 1.555-1.362 1.555-2.731v-24.87c0-1.369-.182-1.399-1.555-1.399" fill="#4f4f4f"/><path d="m35.9019 12.4099c-2.529-1.416-4.354-4.443-5.322-6.389-.329-.66-1.261-.66-1.589 0-.968 1.946-2.793 4.973-5.322 6.389-.621.347-.621 1.213 0 1.56 2.529 1.417 4.354 4.443 5.322 6.389.328.661 1.26.661 1.589 0 .968-1.946 2.793-4.972 5.322-6.389.62-.347.62-1.213 0-1.56" fill="#fff"/><path d="m67.8365 31.2302c-1.15-4.894-4.611-8.977-9.257-10.922-.164-.069-.331-.115-.499-.144-2.718-1.042-5.655-1.32-8.534-.784-3.128.583-5.976 2.083-8.234 4.338-.008.008-.013.018-.021.026-2.99 3.009-4.567 6.985-4.579 11.042 0 .021-.005.04-.005.06 0 .052.003.104.004.156.001.161.005.321.012.482.009.238.025.475.045.71.007.085.011.171.02.257.034.342.084.68.141 1.015.011.067.023.133.035.2.134.737.319 1.457.552 2.155.005.014.009.027.014.041 2.1 6.235 7.998 10.74 14.932 10.74 1.314 0 2.38-1.066 2.38-2.38s-1.066-2.38-2.38-2.38c-4.542 0-8.449-2.767-10.124-6.705-.003-.007-.003-.015-.007-.023-.321-.763-.55-1.547-.692-2.337-.004-.022-.008-.045-.012-.067-.044-.255-.08-.511-.106-.768-.001-.009-.001-.018-.002-.027-.022-.222-.035-.443-.043-.664-.003-.083-.005-.166-.006-.249-.044-2.907 1.067-5.767 3.21-7.918.003-.003.006-.007.009-.011 3.178-3.161 7.897-4.081 12.03-2.339.103.043.209.068.315.097 3.013 1.367 5.267 4.091 6.104 7.285.04.153-.009.482-.403.482h-14.09c-1.314 0-2.38 1.686-2.38 3 0 1.315 1.066 3 2.38 3h14.433.014c1.501 0 2.895-1.368 3.824-2.548.927-1.176 1.262-3.364.92-4.82" fill="#c80"/></g><path d="m71.5879 5.7278-71.44 71.44-12.777-12.029 71.44-71.441z" fill="#0289b2" mask="url(#n)" transform="translate(36 19.646)"/><path d="m79.8096 90.1599h-54.699c-1.373 0-2.488 1.114-2.488 2.484v24.869c0 1.37 1.115 2.484 2.488 2.484h54.699c1.373 0 2.488-1.114 2.488-2.484v-24.869c-.001-1.37-1.115-2.484-2.488-2.484z" stroke="#4f4f4f" stroke-linecap="round" stroke-linejoin="round" stroke-width="3.298"/></g><path d="m.14625962 52.6151314c0-28.6243451 23.47288448-51.82891659 52.42821158-51.82891659 28.9563461 0 52.4292308 23.20457149 52.4292308 51.82891659 0 28.6243452-23.4728847 51.8289166-52.4292308 51.8289166-28.9553271 0-52.42821158-23.2045714-52.42821158-51.8289166" fill="#eaeaea" mask="url(#o)" transform="translate(2066 1.363737)"/><g transform="translate(2077.211538 23.530499)"><path d="m24.1499597 17.9824849c0-9.3977003 7.707423-17.01702158 17.2137883-17.01702158 9.5063655 0 17.2127693 7.61932128 17.2127693 17.01702158 0 9.3977002-7.7064038 17.0160141-17.2127693 17.0160141-9.5063653 0-17.2137883-7.6183139-17.2137883-17.0160141" fill="#bcbcbc"/><path d="m31.9554327 17.9824849c0-5.1366437 4.2114614-9.29996501 9.4075-9.29996501" stroke="#e0e0e0" stroke-linecap="round" stroke-linejoin="round" stroke-width="3.277661"/><path d="m41.3633403.96586636c-1.5512691 0-3.0485191.22166763-4.4785.60253294 7.331327 1.95067521 12.7352885 8.5503254 12.7352885 16.4144886 0 7.8631557-5.4039615 14.4628058-12.7352885 16.4134811 1.4299809.3808653 2.9272309.6025329 4.4785.6025329 9.5063656 0 17.2127694-7.6183136 17.2127694-17.016014 0-9.39770026-7.7064038-17.01702154-17.2127694-17.01702154" fill="#9b9b9b"/><path d="m50.187127.0364744h-16.5390579c-18.0301922 0-32.64596141 11.4158834-32.64596141 29.238969v13.3897331h81.83098081v-13.3897331c0-17.8230856-14.6167885-29.238969-32.6459615-29.238969" fill="#777" mask="url(#p)" transform="translate(0 50.379009)"/><path d="m18.5909731.06498892h-16.53905771c-.62784616 0-1.32703847.00302274-1.94571154.03022741 17.15976925.76173061 30.69923085 11.97710557 30.69923085 29.18052947v14.1151907h20.3846153v-14.1151907c0-17.8240933-14.5699038-29.21075688-32.5990769-29.21075688" fill="#636363" mask="url(#q)" transform="translate(31.596153 50.379009)"/><g stroke="#777" stroke-linecap="round" stroke-linejoin="round"><path d="m50.187127.0364744h-16.5390579c-18.0301922 0-32.64596141 11.4158834-32.64596141 29.238969v13.3897331h81.83098081v-13.3897331c0-17.8230856-14.6167885-29.238969-32.6459615-29.238969z" mask="url(#r)" stroke-width="3.361938" transform="translate(0 50.379009)"/><path d="m24.1499597 17.9824849c0-9.3977003 7.707423-17.01702158 17.2137883-17.01702158 9.5063655 0 17.2127693 7.61932128 17.2127693 17.01702158 0 9.3977002-7.7064038 17.0160141-17.2127693 17.0160141-9.5063653 0-17.2137883-7.6183139-17.2137883-17.0160141z" stroke-width="2.489723"/></g></g><path d="m33.9 103.68c2.892 2.88 6.672 4.32 10.458 4.32 3.78 0 7.56-1.44 10.458-4.32l78.852-78.54c2.772221-2.7548833 4.331104-6.501728 4.331104-10.41s-1.558883-7.65511666-4.331104-10.41c-5.781962-5.7552151-15.128038-5.7552151-20.91 0l-68.4 68.13-19.116-19.044c-5.7846713-5.748649-15.1253287-5.748649-20.91 0-2.77222074 2.7548833-4.33110387 6.501728-4.33110387 10.41s1.55888313 7.6551167 4.33110387 10.41l29.574 29.46z" fill="#8dbb01" transform="translate(2217 1)"/><path d="m105.708 13.62-40.404 40.44 40.404 40.446c3.054 3.15 3.054 8.16 0 11.316-1.722 1.746-3.456 2.178-5.628 2.178-2.178 0-3.912-.882-5.64-2.178l-40.44-40.434-40.44 40.44c-1.728 1.74-3.462 2.172-5.64 2.172-2.16 0-3.894-.882-5.622-2.178-3.05580679-3.153101-3.05580679-8.1628995 0-11.316l40.398-40.44-40.398-40.452c-3.05895118-3.1518262-3.05895118-8.1641738 0-11.316 3.14519582-3.06380559 8.1588042-3.06380559 11.304 0l40.398 40.446 40.404-40.446c3.1451958-3.06380559 8.158804-3.06380559 11.304 0 3.06 3.06 3.06 7.824 0 11.316" fill="#ed6060" stroke="#ed6060" stroke-width="6" transform="translate(2400 1)"/><path d="m54 107.15c-29.3539344 0-53.14999986-23.7960656-53.14999986-53.15s23.79606546-53.14999986 53.14999986-53.14999986 53.15 23.79606546 53.15 53.14999986-23.7960656 53.15-53.15 53.15zm0-6.3c25.8745406 0 46.85-20.9754594 46.85-46.85s-20.9754594-46.85000014-46.85-46.85000014-46.85000014 20.97545954-46.85000014 46.85000014 20.97545954 46.85 46.85000014 46.85zm.227028-49.9994245 14.2829111-13.4172802c1.2679747-1.1911277 3.2614711-1.128831 4.4525989.1391438 1.1911278 1.2679747 1.128831 3.2614711-.1391437 4.4525989l-13.4017741 12.5895453 13.4017741 12.5895454c1.2679747 1.1911277 1.3302715 3.1846242.1391437 4.4525989s-3.1846242 1.3302715-4.4525989.1391437l-14.2829111-13.4172801c-.0402659.0007677-.0805436.0007671-.1208094-.0000017l-14.6162034 13.7298248c-1.2679985 1.1911025-3.2614937 1.128766-4.4525962-.1392324-1.1911025-1.2679985-1.128766-3.2614937.1392325-4.4525962l13.7349379-12.9020024-13.7349379-12.9020023c-1.2679985-1.1911025-1.330335-3.1845977-.1392325-4.4525962 1.1911025-1.2679984 3.1845977-1.3303349 4.4525962-.1392324l14.6162034 13.7298247c.0402658-.0007687.0805435-.0007693.1208094-.0000016z" fill="#50b7e8" fill-rule="nonzero" transform="translate(2559)"/><path d="m57.3702603 0c31.6844364 0 57.3702607 25.6858239 57.3702607 57.3702603 0 31.6852206-25.6858243 57.3702607-57.3702607 57.3702607s-57.3702603-25.6850401-57.3702603-57.3702607c0-31.6844364 25.6858239-57.3702603 57.3702603-57.3702603zm21.1932307 38.047906-31.3437317 31.4605163-11.4693781-11.511478c-2.112228-2.1222241-5.5382867-2.1222241-7.6501867 0-2.1145232 2.1199205-2.1145232 5.5584567 0 7.6780482l15.2964388 15.3511603c1.0554582 1.0602893 2.442407 1.5924085 3.8257491 1.5924085 1.3846536 0 2.7679957-.5294865 3.8244376-1.5924085l35.1694808-35.297566c2.1119001-2.1222241 2.1119001-5.559773 0-7.6806808-2.1145231-2.1209078-5.5382866-2.1209078-7.6528098 0z" fill="#8DBA02" transform="translate(2713)"/><g transform="translate(2874)"><path d="m51.1187368 13.1995147c-.3838421-.0260294-.6400263-.0338382-1.1376315-.0477206-.4976053.0138824-.7963421.0216912-1.1793158.0477206-18.5928948 1.2572206-32.6092106 16.4210882-32.6092106 34.8152059 0 22.4243382 19.8468948 30.3711176 19.8468948 39.1430294v.0407794h28.6578947v-.0407794c0-8.7719118 19.4387369-16.6987353 19.4387369-39.1230735 0-18.39325-14.4244737-33.5779412-33.0173685-34.8351618" fill="#ffc431"/><path d="m60.6817895 15.1794853c8.8014473 7.0418235 14.0892631 17.3251765 14.0892631 28.7408088 0 24.6567941-23.968421 33.3506177-23.968421 42.99625v.2811177h13.8947368v-.0399118c0-8.7719118 19.4396053-16.6987353 19.4396053-39.1222059 0-15.0779706-9.7923158-27.9989706-23.4560526-32.8560588" fill="#efab22"/><path d="m69.2878421 45.6061324c-1.3590789-5.7785295-5.4493421-10.6009118-10.9412368-12.8975736-.1894222-.0783-.3868646-.1356178-.5887895-.1709264-3.2119342-1.234377-6.7036566-1.5542539-10.0867105-.9240442-3.6883557.6838226-7.0820877 2.4700933-9.7323948 5.1225883l-.0234473.0295c-3.4541147 3.4632803-5.3987081 8.1498459-5.4102632 13.039-.0017368.0242941-.0086842.0468529-.0086842.071147 0 .061603.0043421.1223383.0052105.1839412.0039773.4698173.026574.9392929.0677369 1.4073235.0095526.1015147.0121579.2021618.0234473.3036765.0497985.4807219.1193307.9591984.2084211 1.4342206.1565756.8629639.3745227 1.7136787.6521842 2.5456765l.0173684.0477206c2.481079 7.3628529 9.4518947 12.682397 17.6471842 12.682397 1.5534753 0 2.8128158-1.2582181 2.8128158-2.8103088s-1.2593405-2.8103088-2.8128158-2.8103088c-5.3668421 0-9.9851052-3.2675589-11.9651052-7.9172794-.0043421-.0086765-.0052106-.017353-.0086843-.0260295-.3729148-.8876267-.64724-1.8134491-.8180526-2.7608529l-.0138947-.0780882c-.0521053-.3028089-.0946579-.60475-.1259211-.9075589 0-.0112794 0-.0216911-.0026052-.0329705-.0241377-.2606384-.0409338-.5219034-.0503685-.7834853l-.0069473-.2941324c-.0529741-3.5011733 1.3161906-6.8743926 3.795-9.3497647.0026052-.0034706.0052105-.0086765.0095526-.0130147 3.7336204-3.7291005 9.3586138-4.821655 14.2186579-2.7617206.1215789.0520588.2466316.0806912.3716842.1145294 3.5605263 1.6138235 6.2248421 5.2969853 7.2139737 9.0686471.0477632.1796029-.0086842 1.0359706-.4750263 1.0359706h-16.6537105c-1.5536053 0-2.8128158 1.4845441-2.8128158 3.0367647 0 1.5513529 1.2592105 3.0367647 2.8136842 3.0367647h17.0740263c1.7733158 0 3.4215789-1.5765147 4.5192631-2.9699559 1.0942106-1.3882353 1.4902106-3.9330441 1.0863948-5.6518529" fill="#c80"/><path d="m84.1387105 6.74335294-84.43484208 84.35958826-15.10184212-14.2059853 84.436579-84.35872061z" fill="#ef990f" mask="url(#s)" transform="translate(32.131579 31.184103)"/><path d="m64.9031842 97.7022647h-29.2440789c-1.8334807.0239334-3.538031-.9396334-4.4617562-2.5221904s-.9237252-3.5392828 0-5.1218398 2.6282755-2.5461238 4.4617562-2.5221904h29.2440789c2.7839065.0363399 5.0216079 2.3014477 5.0216079 5.0831103 0 2.7816627-2.2377014 5.0467704-5.0216079 5.0831103zm-3.2201053 12.5565883h-22.8038684c-1.2792656.00023-2.5062019-.507401-3.4107793-1.411172-.9045774-.903772-1.4126616-2.129614-1.4124312-3.40774-.0002304-1.278125.5078538-2.503968 1.4124312-3.407739s2.1315137-1.411403 3.4107793-1.411173h22.803c2.6637856 0 4.8232106 2.157501 4.8232106 4.818912 0 2.661412-2.159425 4.818912-4.8232106 4.818912zm-19.1721315 2.707059c-.363 0-.5809737.370485-.3777632.643794 1.7602895 2.360868 4.7511316 3.95647 8.1475263 3.95647 3.3972632 0 6.3881053-1.595602 8.1483948-3.95647.2032105-.273309-.0147632-.643794-.3777632-.643794z" fill="#777" fill-rule="nonzero"/><path d="m27.6097105 44.0061912c-3.4945263-2.4823383-3.4415526-8.5506618.1189737-13.5535147 3.5605263-5.0019853 9.279079-7.0452941 12.7744737-4.5612206 3.4945263 2.4814706 3.4406842 8.5506617-.1198421 13.552647-3.5596579 5.0019853-9.279079 7.0444265-12.7736053 4.5620883" fill="#fff" fill-opacity=".3"/><g stroke="#777" stroke-linecap="round" stroke-linejoin="round"><path d="m48.6315789 5.63970588v-5.20588235" stroke-width="4.338235"/><path d="m78.8309211 17.3807059 4.224-4.2202353m-2.3595 63.0892206 4.224 4.2202353" stroke-width="4.476191"/><path d="m92.4868421 46.8529412h6.0789474" stroke-width="4.338235"/><path d="m19.8 17.3807059-4.2248684-4.2202353m2.3595 63.0892206-4.224 4.2202353" stroke-width="4.476191"/><path d="m6.51315789 46.8529412h-6.07894736" stroke-width="4.338235"/></g></g><g transform="translate(3656)"><g fill="#b3b3b3" transform="translate(0 12.222222)"><path d="m70.5235526 57.8910256h-69.68276313v27.8713676c1.78621053 7.1923077 16.00676313 11.7690598 35.09922373 11.7690598 19.0924605 0 34.3574605-4.575812 34.6386579-11.7690598l-.0560527-5.3053847v-22.5659829z"/><path d="m70.5235526 36.3112821h-69.68276313v27.8723076c1.78621053 7.1932479 16.00676313 11.7709402 35.09922373 11.7709402 19.0924605 0 34.3574605-4.5776923 34.6386579-11.7709402l-.0560527-5.3044444v-22.5678632z"/><path d="m70.5235526 14.7334188h-69.68276313v27.8723077c1.78621053 7.1932479 16.00676313 11.7690598 35.09922373 11.7690598 19.0924605 0 34.3574605-4.5758119 34.6386579-11.7690598l-.0560527-5.3044444v-22.5678633z"/><path d="m70.5235526.34786325h-69.68276313v20.67905985c1.78621053 7.1932478 16.00676313 11.7709401 35.09922373 11.7709401 19.0924605 0 34.3574605-4.5776923 34.6386579-11.7709401l-.0560527-5.3025641v-15.37649575z"/></g><path d="m30.1460395 109.753675-12.4044474-2.613675v-85.6683761l12.4044474 2.4754701zm14.7138158-.258547-7.6698685.244445v-85.6429918l7.6698685-.1504274z" fill="#fff" fill-opacity=".3" fill-rule="nonzero"/><path d="m62.2371053 106.142479 1.8497368-1.26171c-.5801447.284872-.9930658.558462-1.8497368.820769v.441881z" fill="#929494"/><path d="m68.6551316 102.039573-4.1656448 2.841196c1.7320264-.850854 3.1342764-1.802307 4.166579-2.841196" fill="#b3b3b3"/><path d="m70.6543421 14.7437607-8.3238158 5.731282v85.2264953c0-.262307 1.4237369.32718 2.0038816.042308l4.2431842-2.841196c1.22475-1.231624 1.8852368-3.4504278 1.9431579-4.9170944l.1326579-83.2417949z" fill="#929494"/><g stroke="#757575" stroke-linecap="round" stroke-linejoin="round" stroke-width="3.585938"><path d="m.83985526 70.1132479v27.8713675c1.78714474 7.1923076 16.00769734 11.7690596 35.10109214 11.7690596 19.0924605 0 34.3565263-4.575812 34.6377237-11.7690596l-.0560527-5.3053846v-22.5659829"/><path d="m.83985526 48.5335043v27.8723077c1.78714474 7.1932478 16.00769734 11.7709401 35.10109214 11.7709401 19.0924605 0 34.3565263-4.5776923 34.6377237-11.7709401l-.0560527-5.3044445v-22.5678632"/><path d="m.83985526 26.955641v27.8723077c1.78714474 7.1932479 16.00769734 11.7690598 35.10109214 11.7690598 19.0924605 0 34.3565263-4.5758119 34.6377237-11.7690598l-.0560527-5.3044444v-22.5678633"/><path d="m70.5235526 12.5700855h-69.68276313v20.6790598c1.78621053 7.1932479 16.00676313 11.7709402 35.09922373 11.7709402 19.0924605 0 34.3574605-4.5776923 34.6386579-11.7709402l-.0560527-5.3025641v-15.3764957z"/></g><path d="m70.4179868 12.1488889c0 6.5971795-15.5751579 11.9476923-34.79 11.9476923s-34.78813154-5.3505128-34.78813154-11.9476923 15.57328944-11.94769232 34.78813154-11.94769232 34.79 5.35051282 34.79 11.94769232" fill="#b3b3b3"/><path d="m42.4878947 1.06521368c-.9743815 0-1.9384868.01786324-2.134671-.65153847l-23.7765921 21.72923079c4.3562237 2.502735 5.9901579 1.391453 13.5694079 1.8032478l22.8321052-22.1504273c-5.1073289-1.01256411-4.1684473-.731453-10.4893158-.731453m14.2569869 3.49649573-19.8986842 19.53487177c3.4117368.6017094 5.9378421 0 9.3084737-.6571795l17.0736315-17.45615381c-5.1082631-1.01162393-5.5277236-1.44786325-6.483421-1.42153846" fill="#fff" fill-opacity=".3" fill-rule="nonzero"/><path d="m70.4179868 12.1488889c0 6.5971795-15.5751579 11.9476923-34.79 11.9476923s-34.78813154-5.3505128-34.78813154-11.9476923 15.57328944-11.94769232 34.78813154-11.94769232 34.79 5.35051282 34.79 11.94769232z" stroke="#757575" stroke-linecap="round" stroke-linejoin="round" stroke-width="3.585938"/></g><path d="m0 14v-14h76v14z" fill="#fff" transform="translate(4154)"/><g fill="#aeaeaf" transform="translate(3772)"><path d="m44.9734017 51.0202123c2.2631414 2.2633676 2.2502012 5.889205.0060946 8.1335356l-26.5067116 26.5111064 16.5342096.004384c3.2704952.1002422 5.0704576 2.1334378 4.9765808 4.9744444-.0945888 2.8442444-2.6561674 5.2305156-5.3188798 5.3194108-2.6613958.0875784-29.64384145-.0082032-29.64384145-.0082032-1.42100628.0469566-2.6874955-.486265-3.58858726-1.3874468s-1.4342602-2.1677974-1.38667688-3.5883142c0 0-.09640344-26.9857718-.00883376-29.6474334.08888624-2.6629784 2.47491914-5.2248126 5.3188797-5.319411 2.84009138-.0945178 4.87371545 1.706256 4.97331615 4.9764462l.0048068 16.5367006 26.5069197-26.5113146c2.2422968-2.2425208 5.8852508-2.2416018 8.1327234.0060952z" transform="matrix(-1 0 0 -1 46.66667 145.33333)"/><path d="m51.0265983 44.9797877c-2.2631414-2.2633676-2.2502012-5.889205-.0060946-8.1335356l26.5067116-26.5111065-16.5342096-.0043839c-3.2704952-.1002421-5.0704576-2.13343781-4.9765808-4.97444431.0945888-2.8442446 2.6561674-5.2305158 5.3188798-5.3194109 2.6613958-.08757842 29.6438414.00820312 29.6438414.00820312 1.4210064-.04695654 2.6874956.48626515 3.5885874 1.38744688.9010916.90118174 1.4342602 2.16779746 1.3866768 3.58831412 0 0 .0964034 26.98577189.0088338 29.64743349-.0888862 2.6629784-2.4749192 5.2248126-5.3188798 5.319411-2.8400912.0945178-4.8737154-1.706256-4.973316-4.9764462l-.0048068-16.5367006-26.5069198 26.5113146c-2.2422968 2.2425208-5.8852508 2.2416018-8.1327234-.0060952z" transform="matrix(-1 0 0 -1 145.33333 46.66667)"/></g><g fill="#fff" transform="translate(3913)"><path d="m46.2583546 53.7350769c2.3278027 2.3280352 2.3144927 6.0574679.0062688 8.3659223l-27.2640462 27.2685666 17.0066156.0045092c3.3639379.1031062 5.2153278 2.1943932 5.1187687 5.1165713-.0972913 2.9255087-2.7320577 5.3799591-5.4708477 5.4713941-2.7374357.0900806-30.49080835-.0084375-30.49080835-.0084375-1.46160646.0482981-2.76428109-.5001585-3.69111832-1.4270883-.92683723-.9269297-1.47523906-2.2297345-1.42629622-3.6908373 0 0-.09915783-27.7567939-.00908616-30.494503.09142584-2.7390635 2.54563112-5.374093 5.4708477-5.4713941 2.92123683-.0972183 5.01296445 1.7550061 5.11541085 5.1186303l.0049442 17.0091777 27.2642602-27.2687807c2.3063625-2.3065928 6.0534009-2.3056475 8.3650869.0062694z" transform="matrix(-1 0 0 -1 48 152)"/><path d="m53.7416454 46.2649231c-2.3278027-2.3280352-2.3144927-6.0574679-.0062688-8.3659223l27.2640462-27.2685666-17.0066156-.0045092c-3.3639379-.1031062-5.2153278-2.19439317-5.1187687-5.1165713.0972913-2.92550872 2.7320577-5.3799591 5.4708477-5.47139407 2.7374357-.09008066 30.4908083.00843751 30.4908083.00843751 1.4616065-.04829817 2.7642811.50015842 3.6911184 1.42708821.9268372.9269298 1.4752391 2.22973453 1.4262962 3.69083739 0 0 .0991579 27.75679386.0090861 30.49450296-.0914258 2.7390635-2.5456311 5.374093-5.4708477 5.4713941-2.9212368.0972183-5.0129644-1.7550061-5.1154108-5.1186303l-.0049442-17.0091777-27.2642602 27.2687807c-2.3063625 2.3065928-6.0534009 2.3056475-8.3650869-.0062694z" transform="matrix(-1 0 0 -1 152 48)"/></g><path d="m4064 6v40h46v-40zm-2-6h50c2.20914 0 4 1.790861 4 4v44c0 2.209139-1.79086 4-4 4h-50c-2.20914 0-4-1.790861-4-4v-44c0-2.209139 1.79086-4 4-4z" fill="#fff" fill-rule="nonzero"/><g transform="translate(4274)"><path d="m106.48.653h-76.318l-30.161 40.775 68.357 80.225 68.32-80.225z" fill="#1fd2fc"/><path d="m.002 41.46 136.676-.032-30.198-40.775h-75.968z" fill="#0289b2"/><path d="m.002 41.438 45.559-.01 22.797 80.224z" fill="#92edfc"/><path d="m136.619 41.438-45.559-.01-22.797 80.224z" fill="#0298d3"/><path d="m30.557.878 15.003 40.775h-45.468z" fill="#1fd2fc"/><path d="m106.48.765-15.42 40.887h-45.5l-15.003-40.798z" fill="#1fbaea"/><path d="m53.966 40.388c-3.476-1.946-5.984-6.105-7.314-8.78-.2044045-.4162543-.6277664-.6800114-1.0915-.6800114s-.8870955.2637571-1.0915.6800114c-1.33 2.675-3.838 6.834-7.314 8.78-.3935107.2130262-.6386751.6245284-.6386751 1.072s.2451644.8589738.6386751 1.072c3.476 1.946 5.984 6.106 7.314 8.78.2044045.4162543.6277664.6800114 1.0915.6800114s.8870955-.2637571 1.0915-.6800114c1.33-2.674 3.838-6.834 7.314-8.78.3935107-.2130262.6386751-.6245284.6386751-1.072s-.2451644-.8589738-.6386751-1.072" fill="#fff"/><path d="m30.557.71 75.922-.041 30.14 40.77-68.356 80.214-68.171-80.193z" stroke="#777" stroke-linecap="round" stroke-linejoin="round" stroke-width="3.339"/></g></g></svg>