<svg height="124" viewBox="0 0 1602 124" width="1602" xmlns="http://www.w3.org/2000/svg"><g fill="none" fill-rule="evenodd"><g transform="translate(1498)"><path d="m52 124c34.6666667-28.8541287 52-52.8541287 52-72 0-28.718807-23.281193-52-52-52s-52 23.281193-52 52c0 19.1458713 17.3333333 43.1458713 52 72z" fill="#f16661" fill-rule="nonzero"/><text fill="#fff" font-family="Roboto-Regular, Roboto" font-size="48" letter-spacing=".542492211"><tspan x="24" y="71">10</tspan></text></g><g transform="translate(1348)"><path d="m52 124c34.6666667-28.8541287 52-52.8541287 52-72 0-28.718807-23.281193-52-52-52s-52 23.281193-52 52c0 19.1458713 17.3333333 43.1458713 52 72z" fill="#f16661" fill-rule="nonzero"/><text fill="#fff" font-family="Roboto-Regular, Roboto" font-size="48" letter-spacing=".542492211"><tspan x="38" y="71">9</tspan></text></g><g transform="translate(449)"><path d="m52 124c34.6666667-28.8541287 52-52.8541287 52-72 0-28.718807-23.281193-52-52-52s-52 23.281193-52 52c0 19.1458713 17.3333333 43.1458713 52 72z" fill="#29b99a" fill-rule="nonzero"/><text fill="#fff" font-family="Roboto-Regular, Roboto" font-size="48" letter-spacing=".542492211"><tspan x="38" y="71">3</tspan></text></g><g transform="translate(300)"><path d="m52 124c34.6666667-28.8541287 52-52.8541287 52-72 0-28.718807-23.281193-52-52-52s-52 23.281193-52 52c0 19.1458713 17.3333333 43.1458713 52 72z" fill="#29b99a" fill-rule="nonzero"/><text fill="#fff" font-family="Roboto-Regular, Roboto" font-size="48" letter-spacing=".542492211"><tspan x="38" y="71">2</tspan></text></g><g transform="translate(150)"><path d="m52 124c34.6666667-28.8541287 52-52.8541287 52-72 0-28.718807-23.281193-52-52-52s-52 23.281193-52 52c0 19.1458713 17.3333333 43.1458713 52 72z" fill="#29b99a" fill-rule="nonzero"/><text fill="#fff" font-family="Roboto-Regular, Roboto" font-size="48" letter-spacing=".542492211"><tspan x="38" y="71">1</tspan></text></g><path d="m52 124c34.6666667-28.8541287 52-52.8541287 52-72 0-28.718807-23.281193-52-52-52s-52 23.281193-52 52c0 19.1458713 17.3333333 43.1458713 52 72z" fill="#29b99a" fill-rule="nonzero"/><text fill="#fff" font-family="Roboto-Regular, Roboto" font-size="48" letter-spacing=".542492211"><tspan x="38" y="71">0</tspan></text><g transform="translate(1049)"><path d="m52 124c34.6666667-28.8541287 52-52.8541287 52-72 0-28.718807-23.281193-52-52-52s-52 23.281193-52 52c0 19.1458713 17.3333333 43.1458713 52 72z" fill="#fede40" fill-rule="nonzero"/><text fill="#fff" font-family="Roboto-Regular, Roboto" font-size="48" letter-spacing=".542492211"><tspan x="38" y="71">7</tspan></text></g><g transform="translate(1198)"><path d="m52 124c34.6666667-28.8541287 52-52.8541287 52-72 0-28.718807-23.281193-52-52-52s-52 23.281193-52 52c0 19.1458713 17.3333333 43.1458713 52 72z" fill="#f16661" fill-rule="nonzero"/><text fill="#fff" font-family="Roboto-Regular, Roboto" font-size="48" letter-spacing=".542492211"><tspan x="38" y="71">8</tspan></text></g><g transform="translate(899)"><path d="m52 124c34.6666667-28.8541287 52-52.8541287 52-72 0-28.718807-23.281193-52-52-52s-52 23.281193-52 52c0 19.1458713 17.3333333 43.1458713 52 72z" fill="#fede40" fill-rule="nonzero"/><text fill="#fff" font-family="Roboto-Regular, Roboto" font-size="48" letter-spacing=".542492211"><tspan x="38" y="71">6</tspan></text></g><g transform="translate(749)"><path d="m52 124c34.6666667-28.8541287 52-52.8541287 52-72 0-28.718807-23.281193-52-52-52s-52 23.281193-52 52c0 19.1458713 17.3333333 43.1458713 52 72z" fill="#fede40" fill-rule="nonzero"/><text fill="#fff" font-family="Roboto-Regular, Roboto" font-size="48" letter-spacing=".542492211"><tspan x="38" y="71">5</tspan></text></g><g transform="translate(599)"><path d="m52 124c34.6666667-28.8541287 52-52.8541287 52-72 0-28.718807-23.281193-52-52-52s-52 23.281193-52 52c0 19.1458713 17.3333333 43.1458713 52 72z" fill="#fede40" fill-rule="nonzero"/><text fill="#fff" font-family="Roboto-Regular, Roboto" font-size="48" letter-spacing=".542492211"><tspan x="38" y="71">4</tspan></text></g></g></svg>