<svg height="124" viewBox="0 0 95 124" width="95" xmlns="http://www.w3.org/2000/svg"><g fill="none" fill-rule="evenodd" transform="translate(1 1)"><path d="m91.61.622h-90.988v120h65.934l5.274-19.781 19.78-5.275z" fill="#ffe197"/><path d="m91.61 95.5663-25.054 25.056h-33.627v-120h58.681z" fill="#ffd473"/><path d="m66.5558 95.5663v25.056l25.054-25.056z" fill="#aaa"/><g transform="translate(0 .244)"><path d="m66.5558 95.3223v25.056l25.054-25.056z" stroke="#777" stroke-linecap="round" stroke-linejoin="round" stroke-width="3.244"/><g fill="#1fbaea"><path d="m18.838 29.4502c-.507 0-1.013-.193-1.4-.579l-3.955-3.956c-.772-.773-.772-2.025 0-2.797s2.024-.772 2.797 0l2.558 2.557 7.349-7.149c.773-.772 2.025-.772 2.797 0 .772.774.772 2.026 0 2.798l-8.748 8.547c-.386.386-.893.579-1.398.579"/><path d="m75.7863 46.9756h-40.879c-1.092 0-1.978-.886-1.978-1.979 0-1.091.886-1.978 1.978-1.978h40.879c1.093 0 1.978.887 1.978 1.978 0 1.093-.885 1.979-1.978 1.979"/><path d="m75.7863 26.1534h-40.879c-1.092 0-1.978-.886-1.978-1.979 0-1.091.886-1.977 1.978-1.977h40.879c1.093 0 1.978.886 1.978 1.977 0 1.093-.885 1.979-1.978 1.979"/><path d="m75.7863 68.3526h-40.879c-1.092 0-1.978-.887-1.978-1.979s.886-1.978 1.978-1.978h40.879c1.093 0 1.978.886 1.978 1.978s-.885 1.979-1.978 1.979"/><path d="m75.7863 89.1426h-40.879c-1.092 0-1.978-.886-1.978-1.979 0-1.091.886-1.977 1.978-1.977h40.879c1.093 0 1.978.886 1.978 1.977 0 1.093-.885 1.979-1.978 1.979"/><path d="m13.5163 44.9971c0-2.938 2.382-5.321 5.321-5.321s5.321 2.383 5.321 5.321-2.382 5.321-5.321 5.321-5.321-2.383-5.321-5.321"/><path d="m13.5163 66.3741c0-2.938 2.382-5.321 5.321-5.321s5.321 2.383 5.321 5.321-2.382 5.321-5.321 5.321-5.321-2.383-5.321-5.321"/><path d="m13.5163 87.1641c0-2.938 2.382-5.321 5.321-5.321s5.321 2.383 5.321 5.321-2.382 5.321-5.321 5.321-5.321-2.383-5.321-5.321"/></g><path d="m91.61.378h-90.988v120h65.934l17.825-17.826 7.229-7.23z" stroke="#777" stroke-linecap="round" stroke-linejoin="round" stroke-width="3.244"/></g></g></svg>