<svg xmlns="http://www.w3.org/2000/svg" width="20" height="20" viewBox="0 0 20 20"><path fill="#ED6060" fill-rule="evenodd" stroke="#ED6060" d="M18.618 3.27l-6.734 6.74 6.734 6.741c.509.525.509 1.36 0 1.886-.287.291-.576.363-.938.363-.363 0-.652-.147-.94-.363L10 11.898l-6.74 6.74c-.288.29-.577.362-.94.362-.36 0-.649-.147-.937-.363a1.355 1.355 0 0 1 0-1.886l6.733-6.74-6.733-6.742a1.354 1.354 0 0 1 0-1.886 1.35 1.35 0 0 1 1.884 0L10 8.124l6.734-6.741a1.35 1.35 0 0 1 1.884 0c.51.51.51 1.304 0 1.886"/></svg>