<svg height="12" viewBox="0 0 9 12" width="9" xmlns="http://www.w3.org/2000/svg"><g fill="none" fill-rule="evenodd"><path d="m.929.929h6.735v7.897h-6.735z" fill="#52b9e7"/><g fill="#52b9e7" fill-rule="nonzero"><path d="m.72 11.137c0 .378.313.685.7.685l7.158-.012v-1.37l-7.159.012c-.386 0-.7.307-.7.685z"/><path d="m1.42 9.76h7.154v-9.76h-7.244c-.727 0-1.318.579-1.318 1.29v9.847c0-.76.631-1.378 1.407-1.378zm2.872-8.265h.02c1.46.01 2.644 1.176 2.644 2.608 0 .788-.401 1.39-.85 1.987l-1.82 2.414-1.808-2.414c-.448-.597-.85-1.199-.85-1.987 0-1.438 1.195-2.608 2.664-2.608z"/></g><text fill="#fff"><tspan x="1.895" y="7.626"/></text></g></svg>