<svg height="16" viewBox="0 0 16 16" width="16" xmlns="http://www.w3.org/2000/svg"><g fill="none" fill-rule="evenodd" stroke="#fff" transform="translate(1 1)"><circle cx="7" cy="7" fill="#ed6060" r="7.5"/><path d="m9.78772642 4.7457225-2.21220057 2.21417165 2.21220057 2.21450016c.16721267.17246886.16721267.44677647 0 .61957384-.09428297.09559703-.18922298.1192499-.30814436.1192499-.1192499 0-.2141899-.04829128-.30880139-.1192499l-2.21417165-2.21384313-2.21417164 2.21417164c-.09461149.09526852-.18955149.11892139-.30880139.11892139-.11826436 0-.21320436-.04829128-.30781585-.1192499-.16731159-.17263864-.16731159-.44693523 0-.61957384l2.21187206-2.21417165-2.21187206-2.21482867c-.16748375-.17256885-.16748375-.447005 0-.61957385.17220582-.16774954.446711-.16774954.61891682 0l2.21187206 2.21450016 2.21220058-2.21450016c.17220582-.16774954.44671099-.16774954.61891682 0 .16754118.16754118.16754118.4283798 0 .61957385" fill="#fff" fill-rule="nonzero" stroke-width=".5"/></g></svg>