<svg height="20" viewBox="0 0 20 20" width="20" xmlns="http://www.w3.org/2000/svg"><g fill="none" fill-rule="evenodd"><circle cx="6.953" cy="6.954" fill="#eceeff" r="6.563"/><path d="m19.192 19.192a1.426 1.426 0 0 1 -2.017 0l-4.42-4.42a.605.605 0 0 1 0-.855l1.161-1.16a.605.605 0 0 1 .856 0l4.42 4.419c.557.557.557 1.46 0 2.016z" fill="#9aa9ff"/><path d="m15.774 13.758-1.002-1.002a.605.605 0 0 0 -.856 0l-1.16 1.16a.605.605 0 0 0 0 .857l1.001 1.001z" fill="#fff"/><circle cx="6.875" cy="6.875" fill="#b0e6ff" r="4.375"/><circle cx="3.87" cy="17.266" fill="#bff6e9" r="2.344"/><g fill-rule="nonzero"><path d="m6.875 2.11a4.774 4.774 0 0 0 -4.766 4.765 4.771 4.771 0 0 0 4.766 4.766 4.771 4.771 0 0 0 4.766-4.766 4.771 4.771 0 0 0 -4.766-4.765zm3.444 6.767h-3.825a.39.39 0 1 0 0 .782h3.23a3.972 3.972 0 0 1 -2.849 1.2 3.989 3.989 0 0 1 -3.925-4.667h1.7c.092 0 .143.054.165.087.022.032.054.099.02.184l-.027.07a.979.979 0 0 0 .912 1.337h1.478a.39.39 0 1 0 0-.781h-1.478a.194.194 0 0 1 -.164-.089.194.194 0 0 1 -.02-.184l.026-.07a.979.979 0 0 0 -.911-1.337h-1.481a3.99 3.99 0 0 1 3.705-2.519 3.98 3.98 0 0 1 3.17 1.575h-2.31a.39.39 0 1 0 0 .78h2.776c.224.498.348 1.05.348 1.63a3.96 3.96 0 0 1 -.54 2.001z" fill="#777"/><path d="m18.641 16.073-.552.552.827.827c.195.196.303.455.303.732a1.036 1.036 0 0 1 -1.767.732l-3.142-3.142 1.464-1.464.248.249 2.067 2.066.552-.552-2.085-2.085-1.508-1.508a.99.99 0 0 0 -.704-.292.99.99 0 0 0 -.704.292l-.304.304-1.2-1.2a6.925 6.925 0 0 0 1.77-4.63 6.961 6.961 0 0 0 -6.953-6.954 6.961 6.961 0 0 0 -6.953 6.954 6.961 6.961 0 0 0 6.953 6.953c1.777 0 3.4-.67 4.63-1.77l1.2 1.2-.303.304a.99.99 0 0 0 -.292.704.99.99 0 0 0 .292.704l1 1.001 3.42 3.418c.353.354.818.532 1.284.532a1.819 1.819 0 0 0 1.284-3.1zm-17.86-9.12a6.179 6.179 0 0 1 6.172-6.17 6.179 6.179 0 0 1 6.172 6.172 6.179 6.179 0 0 1 -6.172 6.171 6.179 6.179 0 0 1 -6.172-6.172zm12.188 7.392c0-.058.022-.111.063-.152l1.16-1.16a.213.213 0 0 1 .304 0l.725.725-1.464 1.464-.725-.726a.213.213 0 0 1 -.063-.151zm-6.605 1.712a.394.394 0 0 0 -.048-.011 2.721 2.721 0 0 0 -.513-.713 2.717 2.717 0 0 0 -1.933-.8 2.739 2.739 0 0 0 -2.453 1.525.39.39 0 0 0 -.096.017c-1.092.35-1.321.841-1.321 1.191 0 .572.589.975 1.424 1.224a2.74 2.74 0 0 0 2.446 1.51 2.726 2.726 0 0 0 2.444-1.51c.837-.248 1.426-.652 1.426-1.224 0-.358-.239-.858-1.376-1.209zm-3.875-.172a1.94 1.94 0 0 1 1.38-.572 1.955 1.955 0 0 1 1.869 2.52 8.715 8.715 0 0 1 -1.868.188 8.715 8.715 0 0 1 -1.87-.188 1.955 1.955 0 0 1 .488-1.948zm-1.709 1.382c.004-.03.087-.148.37-.287a2.78 2.78 0 0 0 0 .573c-.283-.138-.366-.257-.37-.286zm1.788 1.456c.423.053.866.08 1.3.08.436 0 .879-.027 1.302-.08-.739.66-1.863.66-2.602 0zm4.019-1.169c.02-.191.02-.384 0-.575.282.138.367.257.37.287-.003.03-.087.149-.37.288z" fill="#777"/><path d="m17.578 4.844a2.425 2.425 0 0 0 2.422-2.422 2.425 2.425 0 0 0 -2.422-2.422 2.425 2.425 0 0 0 -2.422 2.422 2.425 2.425 0 0 0 2.422 2.422zm0-4.062c.905 0 1.64.736 1.64 1.64 0 .905-.735 1.64-1.64 1.64s-1.64-.735-1.64-1.64c0-.904.735-1.64 1.64-1.64z" fill="#f57673"/><path d="m19.065 9.73-1.289-1.29a.39.39 0 0 0 -.552 0l-1.289 1.29a.39.39 0 0 0 0 .552l1.289 1.288a.39.39 0 0 0 .552 0l1.288-1.288a.39.39 0 0 0 0-.553zm-1.565 1.01-.736-.736.736-.736.736.736z" fill="#9aa9ff"/></g><path d="m8.988 7.202a.392.392 0 0 0 -.667.277.393.393 0 0 0 .391.39.394.394 0 0 0 .39-.39.393.393 0 0 0 -.114-.277z" fill="#777"/><path d="m10.938 17.383a.393.393 0 0 0 -.391.39.393.393 0 0 0 .39.391.393.393 0 0 0 .391-.39.394.394 0 0 0 -.39-.39z" fill="#f266a0"/><path d="m16.643 6.916a.394.394 0 0 0 0-.553.393.393 0 0 0 -.552 0 .394.394 0 0 0 .276.667.394.394 0 0 0 .276-.114z" fill="#777"/><path d="m19.378 14.36a.392.392 0 0 0 .276-.666.394.394 0 0 0 -.553 0 .393.393 0 0 0 0 .552.394.394 0 0 0 .277.115z" fill="#bff6e9"/></g></svg>