<svg height="250" viewBox="0 0 350 250" width="350" xmlns="http://www.w3.org/2000/svg"><g fill="none" fill-rule="evenodd"><g transform="matrix(.95105652 .30901699 -.30901699 .95105652 273.63119 168)"><path d="m53.9928791 0h-53.9928791v70h39.1256703l3.1296264-11.5383333 11.7375824-3.0741667z" fill="#fcde94"/><path d="m53.9928791 55.3875-14.8672088 14.6125h-19.9544835v-70h34.8216923z" fill="#f9d073"/><path d="m39.1256703 55.3875v14.6125l14.8672088-14.6125z" fill="#a3a4a0"/><g fill="#32b3d9"><path d="m10.8094945 16.9633333c-.3008571 0-.6011209-.1166666-.83076923-.3383333l-2.34692307-2.31c-.45810989-.4491667-.45810989-1.1783333 0-1.6333333.45870329-.4491667 1.20164835-.4491667 1.65975824 0l1.51793406 1.4933333 4.3609451-4.1708333c.4587033-.4491667 1.2016483-.4491667 1.6597582 0 .4587033.455.4587033 1.1841666 0 1.6333333l-5.1905275 4.9875c-.2296483.2216667-.5305055.3383333-.8301758.3383333"/><path d="m44.6028132 27.1833333h-24.2578681c-.6474066 0-1.1737583-.5133333-1.1737583-1.155 0-.6358333.5263517-1.155 1.1737583-1.155h24.2578681c.6491868 0 1.1737582.5191667 1.1737582 1.155 0 .6416667-.5245714 1.155-1.1737582 1.155"/><path d="m44.6028132 15.0383333h-24.2578681c-.6474066 0-1.1737583-.5191666-1.1737583-1.155 0-.6358333.5263517-1.155 1.1737583-1.155h24.2578681c.6491868 0 1.1737582.5191667 1.1737582 1.155 0 .6358334-.5245714 1.155-1.1737582 1.155"/><path d="m44.6028132 39.655h-24.2578681c-.6474066 0-1.1737583-.5191667-1.1737583-1.155s.5263517-1.155 1.1737583-1.155h24.2578681c.6491868 0 1.1737582.5191667 1.1737582 1.155s-.5245714 1.155-1.1737582 1.155"/><path d="m44.6028132 51.7825h-24.2578681c-.6474066 0-1.1737583-.5191667-1.1737583-1.155s.5263517-1.155 1.1737583-1.155h24.2578681c.6491868 0 1.1737582.5191667 1.1737582 1.155s-.5245714 1.155-1.1737582 1.155"/><path d="m7.65138462 26.0283333c0-1.715 1.41408791-3.1033333 3.15810988-3.1033333 1.7434286 0 3.1569231 1.3883333 3.1569231 3.1033333s-1.4134945 3.1033334-3.1569231 3.1033334c-1.74402197 0-3.15810988-1.3883334-3.15810988-3.1033334"/><path d="m7.65138462 38.5c0-1.715 1.41408791-3.1033333 3.15810988-3.1033333 1.7434286 0 3.1569231 1.3883333 3.1569231 3.1033333s-1.4134945 3.1033333-3.1569231 3.1033333c-1.74402197 0-3.15810988-1.3883333-3.15810988-3.1033333"/><path d="m7.65138462 50.6275c0-1.715 1.41408791-3.1033333 3.15810988-3.1033333 1.7434286 0 3.1569231 1.3883333 3.1569231 3.1033333s-1.4134945 3.1033333-3.1569231 3.1033333c-1.74402197 0-3.15810988-1.3883333-3.15810988-3.1033333"/></g></g><g transform="translate(20 1)"><path d="m83.3429222 8.69083211v36.61923219c0 4.716625-3.8051725 8.5394642-8.4982759 8.5394642h-36.3293104l-17.2413793 19.0535715v-19.0535715h-12.19137927c-4.69310345 0-8.49827587-3.8228392-8.49827587-8.5377321v-36.61923214c0-4.716625 3.80517242-8.53946429 8.49827587-8.53946429h65.76034487c4.6948275 0 8.5 3.82283929 8.5 8.53773214z" fill="#0391fd" fill-rule="nonzero" transform="matrix(.99254615 .12186934 -.12186934 .99254615 106.165811 23.239457)"/><g transform="matrix(.98768834 -.15643447 .15643447 .98768834 1.150967 29.149974)"><path d="m45.4545455 55.2071669v-.2376206c0-2.906891-2.3490607-5.2830961-5.2206563-5.2830961h-.2338892c2.9991004 0 5.452981 2.479174 5.4545455 5.5207167" fill="#eb922f"/><path d="m39.2450054 49.266526c-3.5479312 0-6.4512232 2.9233997-6.4512232 6.4996921v51.0230699c2.3833283.302085 4.810148.458 7.2727273.458v-57.980762z" fill="#f6b72c"/><path d="m47.2727273 104.893617h.0018182v-47.8462113h-.0018182z" fill="#d56f2d"/><path d="m47.2727273 56.4784823c-.001933-3.7419517-3.0337663-6.7920321-6.7392329-6.7920321h-.5334944v57.9807618c2.4635458 0 4.8903654-.155915 7.2727273-.457999z" fill="#ea5a7d"/><path d="m40 0c5.0207605 0 9.0909091 11.1222046 9.0909091 24.8432251 0 13.7210204-4.0701486 24.8432251-9.0909091 24.8432251s-9.0909091-11.1222047-9.0909091-24.8432251c0-13.7210205 4.0701486-24.8432251 9.0909091-24.8432251" fill="#9b59b6"/><path d="m40 0v49.6864502c5.0207605 0 9.0909091-11.1222047 9.0909091-24.8432251 0-13.7210205-4.0701486-24.8432251-9.0909091-24.8432251" fill="#722f8e"/><path d="m79.6870389 65.0626405c-2.0640065 4.7647283-13.7720606 3.7965962-26.1515927-2.1545684-12.3795322-5.9511647-20.7410116-14.6358787-18.6770052-19.4006071 2.0631052-4.7552368 13.7720606-3.7965963 26.1515927 2.1545684 12.3786309 5.9511647 20.7410116 14.6358787 18.6770052 19.4006071" fill="#722f8e"/><path d="m45.1415921 43.5110171c2.0639553 4.7640398-6.2982184 13.4474989-18.6765429 19.3978036-12.3792258 5.9503047-24.08789137 6.9182969-26.15184674 2.154257-2.06485667-4.7640398 6.2973171-13.4474988 18.67564154-19.3978036 12.3792258-5.9503047 24.0878914-6.9182969 26.1527481-2.154257" fill="#9b59b6"/><path d="m40.9090909 34.964539c6.5271209 0 11.8181818 5.3600218 11.8181818 11.9569716 0 6.6061123-5.2910609 11.966134-11.8181818 11.966134-6.5262153 0-11.8181818-5.3600217-11.8181818-11.966134 0-6.5969498 5.2919665-11.9569716 11.8181818-11.9569716" fill="#f8da49"/><path d="m52.7272727 46.930673c0 6.5969499-5.6980656 11.9569716-12.7272727 11.9569716v-23.9231056c7.0292071 0 12.7272727 5.3600218 12.7272727 11.966134" fill="#ebaf34"/><path d="m40.9086321 38.6450168c4.51879 0 8.182277 3.7062804 8.182277 8.2764306 0 4.5794391-3.663487 8.2857195-8.182277 8.2857195-4.5187901 0-8.1813594-3.7062804-8.1813594-8.2857195 0-4.5701502 3.6625693-8.2764306 8.1813594-8.2764306" fill="#fffffe"/><path d="m47.2727273 46.9307363c0 4.5701502-3.254984 8.2764306-7.2727273 8.2764306v-16.5621501c4.0177433 0 7.2727273 3.7062804 7.2727273 8.2857195" fill="#dededb"/><path d="m40.9086312 40.4852557c3.5148713 0 6.3640961 2.8832624 6.3640961 6.4361857 0 3.5622242-2.8492248 6.4454866-6.3640961 6.4454866-3.5139519 0-6.3631767-2.8832624-6.3631767-6.4454866 0-3.5529233 2.8492248-6.4361857 6.3631767-6.4361857" fill="#32ac71"/><path d="m45.4545455 46.9307422c0 3.5529234-2.441581 6.4361858-5.4545455 6.4361858v-12.8816723c3.0129645 0 5.4545455 2.8832624 5.4545455 6.4454865" fill="#029c4e"/></g><g transform="matrix(.99254615 .12186934 -.12186934 .99254615 144.159324 92.645801)"><path d="m34.0909091 41.4053751v-.1782153c0-2.1801683-1.7617955-3.9623222-3.9154922-3.9623222h-.1754169c2.2493253 0 4.0897357 1.8593806 4.0909091 4.1405375" fill="#eb922f"/><path d="m29.433754 36.9498945c-2.6609483 0-4.8384174 2.1925498-4.8384174 4.8747691v38.2673027c1.7874963.2265635 3.607611.3434995 5.4545455.3434995v-43.4855713z" fill="#f6b72c"/><path d="m35.4545455 78.6702128h.0013636v-35.8846585h-.0013636z" fill="#d56f2d"/><path d="m35.4545455 42.3588617c-.0014498-2.8064638-2.2753247-5.0940241-5.0544247-5.0940241h-.4001208v43.4855713c1.8476593 0 3.6677741-.116936 5.4545455-.3434994z" fill="#ea5a7d"/><path d="m30 0c3.7655704 0 6.8181818 8.34165348 6.8181818 18.6324188 0 10.2907653-3.0526114 18.6324188-6.8181818 18.6324188s-6.8181818-8.3416535-6.8181818-18.6324188c0-10.29076532 3.0526114-18.6324188 6.8181818-18.6324188" fill="#9b59b6"/><path d="m30 0v37.2648376c3.7655704 0 6.8181818-8.3416535 6.8181818-18.6324188 0-10.29076532-3.0526114-18.6324188-6.8181818-18.6324188" fill="#722f8e"/><path d="m59.7652792 48.7969803c-1.5480049 3.5735463-10.3290455 2.8474473-19.6136946-1.6159263-9.2846491-4.4633735-15.5557587-10.976909-14.0077538-14.5504552 1.5473288-3.5664277 10.3290454-2.8474472 19.6136945 1.6159263 9.2839731 4.4633735 15.5557587 10.976909 14.0077539 14.5504552" fill="#722f8e"/><path d="m33.8561941 32.6332628c1.5479665 3.5730299-4.7236638 10.0856242-14.0074072 14.5483527-9.2844193 4.4627286-18.06591853 5.1887227-19.61388506 1.6156928-1.54864249-3.5730299 4.72298783-10.0856242 14.00673116-14.5483527 9.2844194-4.4627286 18.0659186-5.1887227 19.6145611-1.6156928" fill="#9b59b6"/><path d="m30.6818182 26.2234043c4.8953406 0 8.8636363 4.0200163 8.8636363 8.9677287 0 4.9545842-3.9682957 8.9746005-8.8636363 8.9746005-4.8946615 0-8.8636364-4.0200163-8.8636364-8.9746005 0-4.9477124 3.9689749-8.9677287 8.8636364-8.9677287" fill="#f8da49"/><path d="m39.5454545 35.1980048c0 4.9477124-4.2735492 8.9677287-9.5454545 8.9677287v-17.9423292c5.2719053 0 9.5454545 4.0200163 9.5454545 8.9746005" fill="#ebaf34"/><path d="m30.681474 28.9837626c3.3890926 0 6.1367078 2.7797103 6.1367078 6.2073229 0 3.4345794-2.7476152 6.2142896-6.1367078 6.2142896-3.3890925 0-6.1360195-2.7797102-6.1360195-6.2142896 0-3.4276126 2.746927-6.2073229 6.1360195-6.2073229" fill="#fffffe"/><path d="m35.4545455 35.1980522c0 3.4276127-2.441238 6.2073229-5.4545455 6.2073229v-12.4216125c3.0133075 0 5.4545455 2.7797103 5.4545455 6.2142896" fill="#dededb"/><path d="m30.6814734 30.3639418c2.6361535 0 4.7730721 2.1624468 4.7730721 4.8271393 0 2.6716681-2.1369186 4.8341149-4.7730721 4.8341149-2.6354639 0-4.7723825-2.1624468-4.7723825-4.8341149 0-2.6646925 2.1369186-4.8271393 4.7723825-4.8271393" fill="#32ac71"/><path d="m34.0909091 35.1980567c0 2.6646925-1.8311857 4.8271393-4.0909091 4.8271393v-9.6612542c2.2597234 0 4.0909091 2.1624468 4.0909091 4.8341149" fill="#029c4e"/></g><path d="m59.8255089 6.3801343v26.5865658c0 3.424399-2.750727 6.199885-6.1433319 6.199885h-26.2621521l-12.4636477 13.8334149v-13.8334149h-8.81304525c-3.3926049 0-6.14333195-2.775486-6.14333195-6.1986274v-26.58656582c0-3.42439897 2.75072705-6.19988503 6.14333195-6.19988503h47.53759865c3.3938513 0 6.1445783 2.77548606 6.1445783 6.19862745z" fill="#0391fd" fill-rule="nonzero" transform="matrix(.99254615 .12186934 -.12186934 .99254615 72.453153 120.541447)"/><text fill="#fff" font-family="National-Book, National" font-size="36.145" font-weight="300" transform="matrix(.99254615 .12186934 -.12186934 .99254615 17.875481 -11.261538)"><tspan x="83.145" y="154">En</tspan></text><g transform="translate(0 88)"><path d="m84 134.5676-24.528 26h108.528l-28-26z" fill="#caf5ff"/><path d="m86.5 132.5676h27l-29 28h-24.5z" fill="#46c4d1" opacity=".805"/><path d="m84 134.568h55.5v-27h-55.5z" fill="#caf5ff"/><path d="m111.4961 134.5676h27.504v-27z" fill="#46c4d1" opacity=".805"/><g fill-opacity=".5"><path d="m0 53.568h224v-53h-224z" fill="#caf5ff"/><path d="m113 1.5676v52h55z" fill="#46c4d1"/><path d="m1 1.5676v52h54.992z" fill="#46c4d1"/><g fill="#90edfc"><path d="m112 .5676h-55-2-55l55.992 53 .008-.009.008.009z"/><path d="m223 53.5676h-55-2-53l55 54.5-1-1.509 1 1.509z"/><path d="m113 53.5676h-57-2-53l57 54z"/><path d="m224 .5676h-55-2-55l55.992 53 .008-.009.008.009z"/></g><path d="m58 107.5676h110l-55-54z" fill="#caf5ff"/></g><path d="m139 107.5676h-27.009-.982-27.009l27.496 27h.008z" fill="#90edfc"/><path d="m84 160.5676h27.009.982 27.009l-27.496-26.014-.004.011-.004-.014z" fill="#90edfc"/><g fill="#46c4d1" fill-opacity=".5"><path d="m58 107.5676-2.008-54h57.008z"/><path d="m168 108.0676-.008-54.5h57.008z"/></g></g><text fill="#fff" font-family="National-Book, National" font-size="50" font-weight="300" transform="matrix(.99254615 .12186934 -.12186934 .99254615 7.185456 -17.481166)"><tspan x="121.8" y="69">En</tspan></text><g transform="translate(262 118)"><path d="m33.4478878 7.6001421v14.647692c0 1.8866499-1.5220689 3.4157855-3.3993102 3.4157855h-14.5317233l-6.89655128 7.6214281v-7.6214281h-4.87655143c-1.87724127 0-3.39931014-1.5291356-3.39931014-3.4150927v-14.64769194c0-1.88664989 1.52206887-3.41578551 3.39931014-3.41578551h26.30413641c1.8779309 0 3.3999998 1.52913562 3.3999998 3.41509265z" fill="#0391fd" fill-rule="nonzero"/><text fill="#fff" font-family="National-Book, National" font-size="20" font-weight="300"><tspan x="6.774" y="21">En</tspan></text></g><g fill="#ffc431"><path d="m228.505535 67.1856169c.659287.3621129.659287 1.2654165 0 1.6285189-2.689564 1.4781331-4.631131 4.6372223-5.660384 6.669408-.349804.6886083-1.339742.6886083-1.689546 0-1.030261-2.0321857-2.97082-5.1912749-5.660384-6.669408-.660295-.3631024-.660295-1.266406 0-1.6285189 2.689564-1.4781332 4.630123-4.6372223 5.660384-6.6684187.349804-.6895976 1.339742-.6895976 1.689546 0 1.029253 2.0311964 2.97082 5.1902855 5.660384 6.6684187z"/><path d="m198.505535 17.1856169c.659287.3621129.659287 1.2654165 0 1.6285189-2.689564 1.4781331-4.631131 4.6372223-5.660384 6.669408-.349804.6886083-1.339742.6886083-1.689546 0-1.030261-2.0321857-2.97082-5.1912749-5.660384-6.669408-.660295-.3631024-.660295-1.266406 0-1.6285189 2.689564-1.4781332 4.630123-4.6372223 5.660384-6.6684187.349804-.6895976 1.339742-.6895976 1.689546 0 1.029253 2.0311964 2.97082 5.1902855 5.660384 6.6684187z"/><path d="m148.505535 7.18561689c.659287.36211295.659287 1.26541655 0 1.62851887-2.689564 1.47813314-4.631131 4.63722234-5.660384 6.66940804-.349804.6886083-1.339742.6886083-1.689546 0-1.030261-2.0321857-2.97082-5.1912749-5.660384-6.66940804-.660295-.36310232-.660295-1.26640592 0-1.62851887 2.689564-1.47813316 4.630123-4.63722231 5.660384-6.66841869.349804-.6895976 1.339742-.6895976 1.689546 0 1.029253 2.03119638 2.97082 5.19028553 5.660384 6.66841869z"/><path d="m87.5055355 17.1856169c.659286.3621129.659286 1.2654165 0 1.6285189-2.6895646 1.4781331-4.6311318 4.6372223-5.6603842 6.669408-.3498047.6886083-1.3397419.6886083-1.6895465 0-1.0302605-2.0321857-2.9708196-5.1912749-5.6603842-6.669408-.6602941-.3631024-.6602941-1.266406 0-1.6285189 2.6895646-1.4781332 4.6301237-4.6372223 5.6603842-6.6684187.3498046-.6895976 1.3397418-.6895976 1.6895465 0 1.0292524 2.0311964 2.9708196 5.1902855 5.6603842 6.6684187z"/><path d="m15.5055355 57.1856169c.659286.3621129.659286 1.2654165 0 1.6285189-2.6895646 1.4781331-4.6311318 4.6372223-5.6603842 6.669408-.34980468.6886083-1.33974186.6886083-1.68954654 0-1.03026048-2.0321857-2.97081961-5.1912749-5.66038415-6.669408-.66029415-.3631024-.66029415-1.266406 0-1.6285189 2.68956454-1.4781332 4.63012367-4.6372223 5.66038415-6.6684187.34980468-.6895976 1.33974186-.6895976 1.68954654 0 1.0292524 2.0311964 2.9708196 5.1902855 5.6603842 6.6684187z"/></g></g></g></svg>