<svg height="250" viewBox="0 0 350 250" width="350" xmlns="http://www.w3.org/2000/svg"><g fill="none" fill-rule="evenodd" transform="translate(-816 -378)"><g transform="translate(850 381)"><g transform="matrix(.95105652 -.30901699 .30901699 .95105652 .505879 47.056481)"><path d="m53.9928791 0h-53.9928791v70h39.1256703l3.1296264-11.5383333 11.7375824-3.0741667z" fill="#fcde94"/><path d="m53.9928791 55.3875-14.8672088 14.6125h-19.9544835v-70h34.8216923z" fill="#f9d073"/><path d="m39.1256703 55.3875v14.6125l14.8672088-14.6125z" fill="#a3a4a0"/><g fill="#32b3d9"><path d="m10.8094945 16.9633333c-.3008571 0-.6011209-.1166666-.83076923-.3383333l-2.34692307-2.31c-.45810989-.4491667-.45810989-1.1783333 0-1.6333333.45870329-.4491667 1.20164835-.4491667 1.65975824 0l1.51793406 1.4933333 4.3609451-4.1708333c.4587033-.4491667 1.2016483-.4491667 1.6597582 0 .4587033.455.4587033 1.1841666 0 1.6333333l-5.1905275 4.9875c-.2296483.2216667-.5305055.3383333-.8301758.3383333"/><path d="m44.6028132 27.1833333h-24.2578681c-.6474066 0-1.1737583-.5133333-1.1737583-1.155 0-.6358333.5263517-1.155 1.1737583-1.155h24.2578681c.6491868 0 1.1737582.5191667 1.1737582 1.155 0 .6416667-.5245714 1.155-1.1737582 1.155"/><path d="m44.6028132 15.0383333h-24.2578681c-.6474066 0-1.1737583-.5191666-1.1737583-1.155 0-.6358333.5263517-1.155 1.1737583-1.155h24.2578681c.6491868 0 1.1737582.5191667 1.1737582 1.155 0 .6358334-.5245714 1.155-1.1737582 1.155"/><path d="m44.6028132 39.655h-24.2578681c-.6474066 0-1.1737583-.5191667-1.1737583-1.155s.5263517-1.155 1.1737583-1.155h24.2578681c.6491868 0 1.1737582.5191667 1.1737582 1.155s-.5245714 1.155-1.1737582 1.155"/><path d="m44.6028132 51.7825h-24.2578681c-.6474066 0-1.1737583-.5191667-1.1737583-1.155s.5263517-1.155 1.1737583-1.155h24.2578681c.6491868 0 1.1737582.5191667 1.1737582 1.155s-.5245714 1.155-1.1737582 1.155"/><path d="m7.65138462 26.0283333c0-1.715 1.41408791-3.1033333 3.15810988-3.1033333 1.7434286 0 3.1569231 1.3883333 3.1569231 3.1033333s-1.4134945 3.1033334-3.1569231 3.1033334c-1.74402197 0-3.15810988-1.3883334-3.15810988-3.1033334"/><path d="m7.65138462 38.5c0-1.715 1.41408791-3.1033333 3.15810988-3.1033333 1.7434286 0 3.1569231 1.3883333 3.1569231 3.1033333s-1.4134945 3.1033333-3.1569231 3.1033333c-1.74402197 0-3.15810988-1.3883333-3.15810988-3.1033333"/><path d="m7.65138462 50.6275c0-1.715 1.41408791-3.1033333 3.15810988-3.1033333 1.7434286 0 3.1569231 1.3883333 3.1569231 3.1033333s-1.4134945 3.1033333-3.1569231 3.1033333c-1.74402197 0-3.15810988-1.3883333-3.15810988-3.1033333"/></g></g><g fill="#ffc431"><path d="m250.505535 47.1856169c.659287.3621129.659287 1.2654165 0 1.6285189-2.689564 1.4781331-4.631131 4.6372223-5.660384 6.669408-.349804.6886083-1.339742.6886083-1.689546 0-1.030261-2.0321857-2.97082-5.1912749-5.660384-6.669408-.660295-.3631024-.660295-1.266406 0-1.6285189 2.689564-1.4781332 4.630123-4.6372223 5.660384-6.6684187.349804-.6895976 1.339742-.6895976 1.689546 0 1.029253 2.0311964 2.97082 5.1902855 5.660384 6.6684187z"/><path d="m200.505535 7.18561689c.659287.36211295.659287 1.26541655 0 1.62851887-2.689564 1.47813314-4.631131 4.63722234-5.660384 6.66940804-.349804.6886083-1.339742.6886083-1.689546 0-1.030261-2.0321857-2.97082-5.1912749-5.660384-6.66940804-.660295-.36310232-.660295-1.26640592 0-1.62851887 2.689564-1.47813316 4.630123-4.63722231 5.660384-6.66841869.349804-.6895976 1.339742-.6895976 1.689546 0 1.029253 2.03119638 2.97082 5.19028553 5.660384 6.66841869z"/><path d="m140.505535 17.1856169c.659287.3621129.659287 1.2654165 0 1.6285189-2.689564 1.4781331-4.631131 4.6372223-5.660384 6.669408-.349804.6886083-1.339742.6886083-1.689546 0-1.030261-2.0321857-2.97082-5.1912749-5.660384-6.669408-.660295-.3631024-.660295-1.266406 0-1.6285189 2.689564-1.4781332 4.630123-4.6372223 5.660384-6.6684187.349804-.6895976 1.339742-.6895976 1.689546 0 1.029253 2.0311964 2.97082 5.1902855 5.660384 6.6684187z"/><path d="m80.5055355 27.1856169c.659286.3621129.659286 1.2654165 0 1.6285189-2.6895646 1.4781331-4.6311318 4.6372223-5.6603842 6.669408-.3498047.6886083-1.3397419.6886083-1.6895465 0-1.0302605-2.0321857-2.9708196-5.1912749-5.6603842-6.669408-.6602941-.3631024-.6602941-1.266406 0-1.6285189 2.6895646-1.4781332 4.6301237-4.6372223 5.6603842-6.6684187.3498046-.6895976 1.3397418-.6895976 1.6895465 0 1.0292524 2.0311964 2.9708196 5.1902855 5.6603842 6.6684187z"/><path d="m20.5055355 17.1856169c.659286.3621129.659286 1.2654165 0 1.6285189-2.6895646 1.4781331-4.6311318 4.6372223-5.6603842 6.669408-.3498047.6886083-1.3397419.6886083-1.6895465 0-1.0302605-2.0321857-2.9708196-5.1912749-5.66038419-6.669408-.66029415-.3631024-.66029415-1.266406 0-1.6285189 2.68956459-1.4781332 4.63012369-4.6372223 5.66038419-6.6684187.3498046-.6895976 1.3397418-.6895976 1.6895465 0 1.0292524 2.0311964 2.9708196 5.1902855 5.6603842 6.6684187z"/></g><g transform="matrix(.99026807 .1391731 -.1391731 .99026807 60.133821 105.582944)"><path d="m53.9928791 0h-53.9928791v70h39.1256703l3.1296264-11.5383333 11.7375824-3.0741667z" fill="#fcde94"/><path d="m53.9928791 55.3875-14.8672088 14.6125h-19.9544835v-70h34.8216923z" fill="#f9d073"/><path d="m39.1256703 55.3875v14.6125l14.8672088-14.6125z" fill="#a3a4a0"/><g fill="#32b3d9"><path d="m10.8094945 16.9633333c-.3008571 0-.6011209-.1166666-.83076923-.3383333l-2.34692307-2.31c-.45810989-.4491667-.45810989-1.1783333 0-1.6333333.45870329-.4491667 1.20164835-.4491667 1.65975824 0l1.51793406 1.4933333 4.3609451-4.1708333c.4587033-.4491667 1.2016483-.4491667 1.6597582 0 .4587033.455.4587033 1.1841666 0 1.6333333l-5.1905275 4.9875c-.2296483.2216667-.5305055.3383333-.8301758.3383333"/><path d="m44.6028132 27.1833333h-24.2578681c-.6474066 0-1.1737583-.5133333-1.1737583-1.155 0-.6358333.5263517-1.155 1.1737583-1.155h24.2578681c.6491868 0 1.1737582.5191667 1.1737582 1.155 0 .6416667-.5245714 1.155-1.1737582 1.155"/><path d="m44.6028132 15.0383333h-24.2578681c-.6474066 0-1.1737583-.5191666-1.1737583-1.155 0-.6358333.5263517-1.155 1.1737583-1.155h24.2578681c.6491868 0 1.1737582.5191667 1.1737582 1.155 0 .6358334-.5245714 1.155-1.1737582 1.155"/><path d="m44.6028132 39.655h-24.2578681c-.6474066 0-1.1737583-.5191667-1.1737583-1.155s.5263517-1.155 1.1737583-1.155h24.2578681c.6491868 0 1.1737582.5191667 1.1737582 1.155s-.5245714 1.155-1.1737582 1.155"/><path d="m44.6028132 51.7825h-24.2578681c-.6474066 0-1.1737583-.5191667-1.1737583-1.155s.5263517-1.155 1.1737583-1.155h24.2578681c.6491868 0 1.1737582.5191667 1.1737582 1.155s-.5245714 1.155-1.1737582 1.155"/><path d="m7.65138462 26.0283333c0-1.715 1.41408791-3.1033333 3.15810988-3.1033333 1.7434286 0 3.1569231 1.3883333 3.1569231 3.1033333s-1.4134945 3.1033334-3.1569231 3.1033334c-1.74402197 0-3.15810988-1.3883334-3.15810988-3.1033334"/><path d="m7.65138462 38.5c0-1.715 1.41408791-3.1033333 3.15810988-3.1033333 1.7434286 0 3.1569231 1.3883333 3.1569231 3.1033333s-1.4134945 3.1033333-3.1569231 3.1033333c-1.74402197 0-3.15810988-1.3883333-3.15810988-3.1033333"/><path d="m7.65138462 50.6275c0-1.715 1.41408791-3.1033333 3.15810988-3.1033333 1.7434286 0 3.1569231 1.3883333 3.1569231 3.1033333s-1.4134945 3.1033333-3.1569231 3.1033333c-1.74402197 0-3.15810988-1.3883333-3.15810988-3.1033333"/></g></g><g transform="matrix(.99254615 -.12186934 .12186934 .99254615 119.935827 116.551357)"><path d="m53.9928791 0h-53.9928791v70h39.1256703l3.1296264-11.5383333 11.7375824-3.0741667z" fill="#fcde94"/><path d="m53.9928791 55.3875-14.8672088 14.6125h-19.9544835v-70h34.8216923z" fill="#f9d073"/><path d="m39.1256703 55.3875v14.6125l14.8672088-14.6125z" fill="#a3a4a0"/><g fill="#32b3d9"><path d="m10.8094945 16.9633333c-.3008571 0-.6011209-.1166666-.83076923-.3383333l-2.34692307-2.31c-.45810989-.4491667-.45810989-1.1783333 0-1.6333333.45870329-.4491667 1.20164835-.4491667 1.65975824 0l1.51793406 1.4933333 4.3609451-4.1708333c.4587033-.4491667 1.2016483-.4491667 1.6597582 0 .4587033.455.4587033 1.1841666 0 1.6333333l-5.1905275 4.9875c-.2296483.2216667-.5305055.3383333-.8301758.3383333"/><path d="m44.6028132 27.1833333h-24.2578681c-.6474066 0-1.1737583-.5133333-1.1737583-1.155 0-.6358333.5263517-1.155 1.1737583-1.155h24.2578681c.6491868 0 1.1737582.5191667 1.1737582 1.155 0 .6416667-.5245714 1.155-1.1737582 1.155"/><path d="m44.6028132 15.0383333h-24.2578681c-.6474066 0-1.1737583-.5191666-1.1737583-1.155 0-.6358333.5263517-1.155 1.1737583-1.155h24.2578681c.6491868 0 1.1737582.5191667 1.1737582 1.155 0 .6358334-.5245714 1.155-1.1737582 1.155"/><path d="m44.6028132 39.655h-24.2578681c-.6474066 0-1.1737583-.5191667-1.1737583-1.155s.5263517-1.155 1.1737583-1.155h24.2578681c.6491868 0 1.1737582.5191667 1.1737582 1.155s-.5245714 1.155-1.1737582 1.155"/><path d="m44.6028132 51.7825h-24.2578681c-.6474066 0-1.1737583-.5191667-1.1737583-1.155s.5263517-1.155 1.1737583-1.155h24.2578681c.6491868 0 1.1737582.5191667 1.1737582 1.155s-.5245714 1.155-1.1737582 1.155"/><path d="m7.65138462 26.0283333c0-1.715 1.41408791-3.1033333 3.15810988-3.1033333 1.7434286 0 3.1569231 1.3883333 3.1569231 3.1033333s-1.4134945 3.1033334-3.1569231 3.1033334c-1.74402197 0-3.15810988-1.3883334-3.15810988-3.1033334"/><path d="m7.65138462 38.5c0-1.715 1.41408791-3.1033333 3.15810988-3.1033333 1.7434286 0 3.1569231 1.3883333 3.1569231 3.1033333s-1.4134945 3.1033333-3.1569231 3.1033333c-1.74402197 0-3.15810988-1.3883333-3.15810988-3.1033333"/><path d="m7.65138462 50.6275c0-1.715 1.41408791-3.1033333 3.15810988-3.1033333 1.7434286 0 3.1569231 1.3883333 3.1569231 3.1033333s-1.4134945 3.1033333-3.1569231 3.1033333c-1.74402197 0-3.15810988-1.3883333-3.15810988-3.1033333"/></g></g><g transform="matrix(.99026807 .1391731 -.1391731 .99026807 91.133821 31.582944)"><path d="m53.9928791 0h-53.9928791v70h39.1256703l3.1296264-11.5383333 11.7375824-3.0741667z" fill="#fcde94"/><path d="m53.9928791 55.3875-14.8672088 14.6125h-19.9544835v-70h34.8216923z" fill="#f9d073"/><path d="m39.1256703 55.3875v14.6125l14.8672088-14.6125z" fill="#a3a4a0"/><g fill="#32b3d9"><path d="m10.8094945 16.9633333c-.3008571 0-.6011209-.1166666-.83076923-.3383333l-2.34692307-2.31c-.45810989-.4491667-.45810989-1.1783333 0-1.6333333.45870329-.4491667 1.20164835-.4491667 1.65975824 0l1.51793406 1.4933333 4.3609451-4.1708333c.4587033-.4491667 1.2016483-.4491667 1.6597582 0 .4587033.455.4587033 1.1841666 0 1.6333333l-5.1905275 4.9875c-.2296483.2216667-.5305055.3383333-.8301758.3383333"/><path d="m44.6028132 27.1833333h-24.2578681c-.6474066 0-1.1737583-.5133333-1.1737583-1.155 0-.6358333.5263517-1.155 1.1737583-1.155h24.2578681c.6491868 0 1.1737582.5191667 1.1737582 1.155 0 .6416667-.5245714 1.155-1.1737582 1.155"/><path d="m44.6028132 15.0383333h-24.2578681c-.6474066 0-1.1737583-.5191666-1.1737583-1.155 0-.6358333.5263517-1.155 1.1737583-1.155h24.2578681c.6491868 0 1.1737582.5191667 1.1737582 1.155 0 .6358334-.5245714 1.155-1.1737582 1.155"/><path d="m44.6028132 39.655h-24.2578681c-.6474066 0-1.1737583-.5191667-1.1737583-1.155s.5263517-1.155 1.1737583-1.155h24.2578681c.6491868 0 1.1737582.5191667 1.1737582 1.155s-.5245714 1.155-1.1737582 1.155"/><path d="m44.6028132 51.7825h-24.2578681c-.6474066 0-1.1737583-.5191667-1.1737583-1.155s.5263517-1.155 1.1737583-1.155h24.2578681c.6491868 0 1.1737582.5191667 1.1737582 1.155s-.5245714 1.155-1.1737582 1.155"/><path d="m7.65138462 26.0283333c0-1.715 1.41408791-3.1033333 3.15810988-3.1033333 1.7434286 0 3.1569231 1.3883333 3.1569231 3.1033333s-1.4134945 3.1033334-3.1569231 3.1033334c-1.74402197 0-3.15810988-1.3883334-3.15810988-3.1033334"/><path d="m7.65138462 38.5c0-1.715 1.41408791-3.1033333 3.15810988-3.1033333 1.7434286 0 3.1569231 1.3883333 3.1569231 3.1033333s-1.4134945 3.1033333-3.1569231 3.1033333c-1.74402197 0-3.15810988-1.3883333-3.15810988-3.1033333"/><path d="m7.65138462 50.6275c0-1.715 1.41408791-3.1033333 3.15810988-3.1033333 1.7434286 0 3.1569231 1.3883333 3.1569231 3.1033333s-1.4134945 3.1033333-3.1569231 3.1033333c-1.74402197 0-3.15810988-1.3883333-3.15810988-3.1033333"/></g></g><g transform="matrix(.99939083 -.0348995 .0348995 .99939083 163.794965 38.963607)"><path d="m53.9928791 0h-53.9928791v70h39.1256703l3.1296264-11.5383333 11.7375824-3.0741667z" fill="#fcde94"/><path d="m53.9928791 55.3875-14.8672088 14.6125h-19.9544835v-70h34.8216923z" fill="#f9d073"/><path d="m39.1256703 55.3875v14.6125l14.8672088-14.6125z" fill="#a3a4a0"/><g fill="#32b3d9"><path d="m10.8094945 16.9633333c-.3008571 0-.6011209-.1166666-.83076923-.3383333l-2.34692307-2.31c-.45810989-.4491667-.45810989-1.1783333 0-1.6333333.45870329-.4491667 1.20164835-.4491667 1.65975824 0l1.51793406 1.4933333 4.3609451-4.1708333c.4587033-.4491667 1.2016483-.4491667 1.6597582 0 .4587033.455.4587033 1.1841666 0 1.6333333l-5.1905275 4.9875c-.2296483.2216667-.5305055.3383333-.8301758.3383333"/><path d="m44.6028132 27.1833333h-24.2578681c-.6474066 0-1.1737583-.5133333-1.1737583-1.155 0-.6358333.5263517-1.155 1.1737583-1.155h24.2578681c.6491868 0 1.1737582.5191667 1.1737582 1.155 0 .6416667-.5245714 1.155-1.1737582 1.155"/><path d="m44.6028132 15.0383333h-24.2578681c-.6474066 0-1.1737583-.5191666-1.1737583-1.155 0-.6358333.5263517-1.155 1.1737583-1.155h24.2578681c.6491868 0 1.1737582.5191667 1.1737582 1.155 0 .6358334-.5245714 1.155-1.1737582 1.155"/><path d="m44.6028132 39.655h-24.2578681c-.6474066 0-1.1737583-.5191667-1.1737583-1.155s.5263517-1.155 1.1737583-1.155h24.2578681c.6491868 0 1.1737582.5191667 1.1737582 1.155s-.5245714 1.155-1.1737582 1.155"/><path d="m44.6028132 51.7825h-24.2578681c-.6474066 0-1.1737583-.5191667-1.1737583-1.155s.5263517-1.155 1.1737583-1.155h24.2578681c.6491868 0 1.1737582.5191667 1.1737582 1.155s-.5245714 1.155-1.1737582 1.155"/><path d="m7.65138462 26.0283333c0-1.715 1.41408791-3.1033333 3.15810988-3.1033333 1.7434286 0 3.1569231 1.3883333 3.1569231 3.1033333s-1.4134945 3.1033334-3.1569231 3.1033334c-1.74402197 0-3.15810988-1.3883334-3.15810988-3.1033334"/><path d="m7.65138462 38.5c0-1.715 1.41408791-3.1033333 3.15810988-3.1033333 1.7434286 0 3.1569231 1.3883333 3.1569231 3.1033333s-1.4134945 3.1033333-3.1569231 3.1033333c-1.74402197 0-3.15810988-1.3883333-3.15810988-3.1033333"/><path d="m7.65138462 50.6275c0-1.715 1.41408791-3.1033333 3.15810988-3.1033333 1.7434286 0 3.1569231 1.3883333 3.1569231 3.1033333s-1.4134945 3.1033333-3.1569231 3.1033333c-1.74402197 0-3.15810988-1.3883333-3.15810988-3.1033333"/></g></g><g transform="translate(210 189)"><path d="m42.9943297 0h-42.9943297v56h31.1556264l2.4921099-9.2306667 9.3465934-2.4593333z" fill="#fcde94"/><path d="m42.9943297 44.31-11.8387033 11.69h-15.8896813v-56h27.7283846z" fill="#f9d073"/><path d="m31.1556264 44.31v11.69l11.8387033-11.69z" fill="#a3a4a0"/><g fill="#32b3d9"><path d="m8.60756044 13.5706667c-.23957143 0-.47867033-.0933334-.66153846-.2706667l-1.86884616-1.848c-.3647912-.3593333-.3647912-.9426667 0-1.3066667.36526374-.3593333.95686814-.3593333 1.32165934 0l1.20872528 1.1946667 3.47260436-3.33666667c.3652638-.35933333.9568682-.35933333 1.3216594 0 .3652637.364.3652637.94733334 0 1.30666667l-4.13319783 3.99c-.18286813.1773333-.42243956.2706667-.66106593.2706667"/><path d="m35.5170549 21.7466667h-19.3164505c-.5155275 0-.9346593-.4106667-.9346593-.924 0-.5086667.4191318-.924.9346593-.924h19.3164505c.5169451 0 .9346594.4153333.9346594.924 0 .5133333-.4177143.924-.9346594.924"/><path d="m35.5170549 12.0306667h-19.3164505c-.5155275 0-.9346593-.4153334-.9346593-.924 0-.5086667.4191318-.924.9346593-.924h19.3164505c.5169451 0 .9346594.4153333.9346594.924 0 .5086666-.4177143.924-.9346594.924"/><path d="m35.5170549 31.724h-19.3164505c-.5155275 0-.9346593-.4153333-.9346593-.924s.4191318-.924.9346593-.924h19.3164505c.5169451 0 .9346594.4153333.9346594.924s-.4177143.924-.9346594.924"/><path d="m35.5170549 41.426h-19.3164505c-.5155275 0-.9346593-.4153333-.9346593-.924s.4191318-.924.9346593-.924h19.3164505c.5169451 0 .9346594.4153333.9346594.924s-.4177143.924-.9346594.924"/><path d="m6.09276923 20.8226667c0-1.372 1.12603297-2.4826667 2.51479121-2.4826667 1.38828571 0 2.51384616 1.1106667 2.51384616 2.4826667s-1.12556045 2.4826666-2.51384616 2.4826666c-1.38875824 0-2.51479121-1.1106666-2.51479121-2.4826666"/><path d="m6.09276923 30.8c0-1.372 1.12603297-2.4826667 2.51479121-2.4826667 1.38828571 0 2.51384616 1.1106667 2.51384616 2.4826667s-1.12556045 2.4826667-2.51384616 2.4826667c-1.38875824 0-2.51479121-1.1106667-2.51479121-2.4826667"/><path d="m6.09276923 40.502c0-1.372 1.12603297-2.4826667 2.51479121-2.4826667 1.38828571 0 2.51384616 1.1106667 2.51384616 2.4826667s-1.12556045 2.4826667-2.51384616 2.4826667c-1.38875824 0-2.51479121-1.1106667-2.51479121-2.4826667"/></g></g><g transform="translate(3 85)"><path d="m84 134.5676-24.528 26h108.528l-28-26z" fill="#caf5ff"/><path d="m86.5 132.5676h27l-29 28h-24.5z" fill="#46c4d1" opacity=".805"/><path d="m84 134.568h55.5v-27h-55.5z" fill="#caf5ff"/><path d="m111.4961 134.5676h27.504v-27z" fill="#46c4d1" opacity=".805"/><g fill-opacity=".5"><path d="m0 53.568h224v-53h-224z" fill="#caf5ff"/><path d="m113 1.5676v52h55z" fill="#46c4d1"/><path d="m1 1.5676v52h54.992z" fill="#46c4d1"/><g fill="#90edfc"><path d="m112 .5676h-55-2-55l55.992 53 .008-.009.008.009z"/><path d="m223 53.5676h-55-2-53l55 54.5-1-1.509 1 1.509z"/><path d="m113 53.5676h-57-2-53l57 54z"/><path d="m224 .5676h-55-2-55l55.992 53 .008-.009.008.009z"/></g><path d="m58 107.5676h110l-55-54z" fill="#caf5ff"/></g><path d="m139 107.5676h-27.009-.982-27.009l27.496 27h.008z" fill="#90edfc"/><path d="m84 160.5676h27.009.982 27.009l-27.496-26.014-.004.011-.004-.014z" fill="#90edfc"/><g fill="#46c4d1" fill-opacity=".5"><path d="m58 107.5676-2.008-54h57.008z"/><path d="m168 108.0676-.008-54.5h57.008z"/></g></g></g><g transform="matrix(.95105652 .30901699 -.30901699 .95105652 1107.137069 546.369563)"><path d="m53.9928791 0h-53.9928791v70h39.1256703l3.1296264-11.5383333 11.7375824-3.0741667z" fill="#fcde94"/><path d="m53.9928791 55.3875-14.8672088 14.6125h-19.9544835v-70h34.8216923z" fill="#f9d073"/><path d="m39.1256703 55.3875v14.6125l14.8672088-14.6125z" fill="#a3a4a0"/><g fill="#32b3d9"><path d="m10.8094945 16.9633333c-.3008571 0-.6011209-.1166666-.83076923-.3383333l-2.34692307-2.31c-.45810989-.4491667-.45810989-1.1783333 0-1.6333333.45870329-.4491667 1.20164835-.4491667 1.65975824 0l1.51793406 1.4933333 4.3609451-4.1708333c.4587033-.4491667 1.2016483-.4491667 1.6597582 0 .4587033.455.4587033 1.1841666 0 1.6333333l-5.1905275 4.9875c-.2296483.2216667-.5305055.3383333-.8301758.3383333"/><path d="m44.6028132 27.1833333h-24.2578681c-.6474066 0-1.1737583-.5133333-1.1737583-1.155 0-.6358333.5263517-1.155 1.1737583-1.155h24.2578681c.6491868 0 1.1737582.5191667 1.1737582 1.155 0 .6416667-.5245714 1.155-1.1737582 1.155"/><path d="m44.6028132 15.0383333h-24.2578681c-.6474066 0-1.1737583-.5191666-1.1737583-1.155 0-.6358333.5263517-1.155 1.1737583-1.155h24.2578681c.6491868 0 1.1737582.5191667 1.1737582 1.155 0 .6358334-.5245714 1.155-1.1737582 1.155"/><path d="m44.6028132 39.655h-24.2578681c-.6474066 0-1.1737583-.5191667-1.1737583-1.155s.5263517-1.155 1.1737583-1.155h24.2578681c.6491868 0 1.1737582.5191667 1.1737582 1.155s-.5245714 1.155-1.1737582 1.155"/><path d="m44.6028132 51.7825h-24.2578681c-.6474066 0-1.1737583-.5191667-1.1737583-1.155s.5263517-1.155 1.1737583-1.155h24.2578681c.6491868 0 1.1737582.5191667 1.1737582 1.155s-.5245714 1.155-1.1737582 1.155"/><path d="m7.65138462 26.0283333c0-1.715 1.41408791-3.1033333 3.15810988-3.1033333 1.7434286 0 3.1569231 1.3883333 3.1569231 3.1033333s-1.4134945 3.1033334-3.1569231 3.1033334c-1.74402197 0-3.15810988-1.3883334-3.15810988-3.1033334"/><path d="m7.65138462 38.5c0-1.715 1.41408791-3.1033333 3.15810988-3.1033333 1.7434286 0 3.1569231 1.3883333 3.1569231 3.1033333s-1.4134945 3.1033333-3.1569231 3.1033333c-1.74402197 0-3.15810988-1.3883333-3.15810988-3.1033333"/><path d="m7.65138462 50.6275c0-1.715 1.41408791-3.1033333 3.15810988-3.1033333 1.7434286 0 3.1569231 1.3883333 3.1569231 3.1033333s-1.4134945 3.1033333-3.1569231 3.1033333c-1.74402197 0-3.15810988-1.3883333-3.15810988-3.1033333"/></g></g></g></svg>