<svg height="250" viewBox="0 0 350 250" width="350" xmlns="http://www.w3.org/2000/svg" xmlns:xlink="http://www.w3.org/1999/xlink"><defs><circle id="a" cx="27.5" cy="27.5" r="27.5"/><circle id="b" cx="27.5" cy="27.5" r="27.5"/><circle id="c" cx="27.5" cy="27.5" r="27.5"/><circle id="d" cx="19.25" cy="19.25" r="19.25"/><mask id="e" fill="#fff"><use fill="none" xlink:href="#a"/></mask><mask id="f" fill="#fff"><use fill="none" xlink:href="#b"/></mask><mask id="g" fill="#fff"><use fill="none" xlink:href="#c"/></mask><mask id="h" fill="#fff"><use fill="none" xlink:href="#d"/></mask></defs><g fill="none" fill-rule="evenodd"><g transform="translate(29 55)"><use fill="#9b59b6" xlink:href="#a"/><path d="m10 1 32 56 15-16v-29l-18-15z" fill="#bd97c5" mask="url(#e)"/></g><g transform="translate(92 45)"><use fill="#9b59b6" xlink:href="#b"/><path d="m27-4h32v60h-32z" fill="#bd97c5" mask="url(#f)"/></g><g transform="translate(158 50)"><use fill="#9b59b6" xlink:href="#c"/><path d="m44 2-31 52 19 4 20-10 8-21-6-18z" fill="#bd97c5" mask="url(#g)"/></g><g fill="#9b59b6"><circle cx="79.5" cy="140.5" r="27.5"/><circle cx="148.5" cy="128.5" r="27.5"/><circle cx="212.5" cy="132.5" r="27.5"/></g><g fill="#fff" font-family="National-Book, National" font-size="50" font-weight="300" transform="translate(15 5)"><text><tspan x="90.375" y="77">0</tspan></text><text transform="matrix(.95630476 -.2923717 .2923717 .95630476 -18.539317 14.41673)"><tspan x="30.288" y="88.233">1</tspan></text><text transform="matrix(.95105652 .30901699 -.30901699 .95105652 42.414092 -13.81703)"><tspan x="53.626" y="145.988">7</tspan></text><text transform="matrix(.98162718 .190809 -.190809 .98162718 15.240075 -31.252296)"><tspan x="159.004" y="82.511">2</tspan></text><text><tspan x="185.15" y="141">8</tspan></text><text><tspan x="123.325" y="135">1</tspan></text></g><g transform="translate(24 88)"><path d="m84 134.5676-24.528 26h108.528l-28-26z" fill="#caf5ff"/><path d="m86.5 132.5676h27l-29 28h-24.5z" fill="#46c4d1" opacity=".805"/><path d="m84 134.568h55.5v-27h-55.5z" fill="#caf5ff"/><path d="m111.4961 134.5676h27.504v-27z" fill="#46c4d1" opacity=".805"/><g fill-opacity=".5"><path d="m0 53.568h224v-53h-224z" fill="#caf5ff"/><path d="m113 1.5676v52h55z" fill="#46c4d1"/><path d="m1 1.5676v52h54.992z" fill="#46c4d1"/><g fill="#90edfc"><path d="m112 .5676h-55-2-55l55.992 53 .008-.009.008.009z"/><path d="m223 53.5676h-55-2-53l55 54.5-1-1.509 1 1.509z"/><path d="m113 53.5676h-57-2-53l57 54z"/><path d="m224 .5676h-55-2-55l55.992 53 .008-.009.008.009z"/></g><path d="m58 107.5676h110l-55-54z" fill="#caf5ff"/></g><path d="m139 107.5676h-27.009-.982-27.009l27.496 27h.008z" fill="#90edfc"/><path d="m84 160.5676h27.009.982 27.009l-27.496-26.014-.004.011-.004-.014z" fill="#90edfc"/><g fill="#46c4d1" fill-opacity=".5"><path d="m58 107.5676-2.008-54h57.008z"/><path d="m168 108.0676-.008-54.5h57.008z"/></g></g><g fill="#ffc431" transform="translate(15 5)"><path d="m243.505535 47.1856169c.659287.3621129.659287 1.2654165 0 1.6285189-2.689564 1.4781331-4.631131 4.6372223-5.660384 6.669408-.349804.6886083-1.339742.6886083-1.689546 0-1.030261-2.0321857-2.97082-5.1912749-5.660384-6.669408-.660295-.3631024-.660295-1.266406 0-1.6285189 2.689564-1.4781332 4.630123-4.6372223 5.660384-6.6684187.349804-.6895976 1.339742-.6895976 1.689546 0 1.029253 2.0311964 2.97082 5.1902855 5.660384 6.6684187z"/><path d="m193.505535 7.18561689c.659287.36211295.659287 1.26541655 0 1.62851887-2.689564 1.47813314-4.631131 4.63722234-5.660384 6.66940804-.349804.6886083-1.339742.6886083-1.689546 0-1.030261-2.0321857-2.97082-5.1912749-5.660384-6.66940804-.660295-.36310232-.660295-1.26640592 0-1.62851887 2.689564-1.47813316 4.630123-4.63722231 5.660384-6.66841869.349804-.6895976 1.339742-.6895976 1.689546 0 1.029253 2.03119638 2.97082 5.19028553 5.660384 6.66841869z"/><path d="m133.505535 17.1856169c.659287.3621129.659287 1.2654165 0 1.6285189-2.689564 1.4781331-4.631131 4.6372223-5.660384 6.669408-.349804.6886083-1.339742.6886083-1.689546 0-1.030261-2.0321857-2.97082-5.1912749-5.660384-6.669408-.660295-.3631024-.660295-1.266406 0-1.6285189 2.689564-1.4781332 4.630123-4.6372223 5.660384-6.6684187.349804-.6895976 1.339742-.6895976 1.689546 0 1.029253 2.0311964 2.97082 5.1902855 5.660384 6.6684187z"/><path d="m73.5055355 27.1856169c.659286.3621129.659286 1.2654165 0 1.6285189-2.6895646 1.4781331-4.6311318 4.6372223-5.6603842 6.669408-.3498047.6886083-1.3397419.6886083-1.6895465 0-1.0302605-2.0321857-2.9708196-5.1912749-5.6603842-6.669408-.6602941-.3631024-.6602941-1.266406 0-1.6285189 2.6895646-1.4781332 4.6301237-4.6372223 5.6603842-6.6684187.3498046-.6895976 1.3397418-.6895976 1.6895465 0 1.0292524 2.0311964 2.9708196 5.1902855 5.6603842 6.6684187z"/><path d="m13.5055355 17.1856169c.659286.3621129.659286 1.2654165 0 1.6285189-2.6895646 1.4781331-4.6311318 4.6372223-5.6603842 6.669408-.34980468.6886083-1.33974186.6886083-1.68954654 0-1.03026048-2.0321857-2.97081961-5.1912749-5.66038415-6.669408-.66029415-.3631024-.66029415-1.266406 0-1.6285189 2.68956454-1.4781332 4.63012367-4.6372223 5.66038415-6.6684187.34980468-.6895976 1.33974186-.6895976 1.68954654 0 1.0292524 2.0311964 2.9708196 5.1902855 5.6603842 6.6684187z"/></g><g transform="matrix(.27563736 -.96126169 .96126169 .27563736 233.998188 239.896232)"><use fill="#9b59b6" xlink:href="#d"/><path d="m0 32.8999994.56222188-.4060491 37.23777752-26.8939504 4.8999999 15.3999997-6.9999999 16.0999998-18.8999997 3.4999999z" fill="#bd97c5" mask="url(#h)"/></g><text fill="#fff" font-family="National-Book, National" font-size="35" font-weight="300" transform="matrix(.92718386 -.3746066 .3746066 .92718386 221.669275 208.880789)"><tspan x="15.921" y="36.091">4</tspan></text><g transform="translate(281 198)"><path d="m37.994989 0h-37.994989v49h27.5328791l2.2023297-8.0768333 8.2597802-2.1519167z" fill="#fcde94"/><path d="m37.994989 38.77125-10.4621099 10.22875h-14.0420439v-49h24.5041538z" fill="#f9d073"/><path d="m27.5328791 38.77125v10.22875l10.4621099-10.22875z" fill="#a3a4a0"/><g fill="#32b3d9"><path d="m7.60668132 11.8743333c-.21171429 0-.42301099-.0816666-.58461539-.2368333l-1.65153846-1.617c-.32237362-.31441667-.32237362-.82483333 0-1.14333333.32279121-.31441667.8456044-.31441667 1.16797802 0l1.06817583 1.04533333 3.06881318-2.91958333c.3227912-.31441667.8456044-.31441667 1.167978 0 .3227912.3185.3227912.82891666 0 1.14333333l-3.65259338 3.49125c-.16160439.1551667-.37331868.2368333-.5841978.2368333"/><path d="m31.3871648 19.0283333h-17.0703516c-.4555824 0-.825978-.3593333-.825978-.8085 0-.4450833.3703956-.8085.825978-.8085h17.0703516c.4568352 0 .8259781.3634167.8259781.8085 0 .4491667-.3691429.8085-.8259781.8085"/><path d="m31.3871648 10.5268333h-17.0703516c-.4555824 0-.825978-.3634166-.825978-.80849997 0-.44508333.3703956-.8085.825978-.8085h17.0703516c.4568352 0 .8259781.36341667.8259781.8085 0 .44508337-.3691429.80849997-.8259781.80849997"/><path d="m31.3871648 27.7585h-17.0703516c-.4555824 0-.825978-.3634167-.825978-.8085s.3703956-.8085.825978-.8085h17.0703516c.4568352 0 .8259781.3634167.8259781.8085s-.3691429.8085-.8259781.8085"/><path d="m31.3871648 36.24775h-17.0703516c-.4555824 0-.825978-.3634167-.825978-.8085s.3703956-.8085.825978-.8085h17.0703516c.4568352 0 .8259781.3634167.8259781.8085s-.3691429.8085-.8259781.8085"/><path d="m5.38430769 18.2198333c0-1.2005.9950989-2.1723333 2.22237363-2.1723333 1.22685714 0 2.22153846.9718333 2.22153846 2.1723333s-.99468132 2.1723334-2.22153846 2.1723334c-1.22727473 0-2.22237363-.9718334-2.22237363-2.1723334"/><path d="m5.38430769 26.95c0-1.2005.9950989-2.1723333 2.22237363-2.1723333 1.22685714 0 2.22153846.9718333 2.22153846 2.1723333s-.99468132 2.1723333-2.22153846 2.1723333c-1.22727473 0-2.22237363-.9718333-2.22237363-2.1723333"/><path d="m5.38430769 35.43925c0-1.2005.9950989-2.1723333 2.22237363-2.1723333 1.22685714 0 2.22153846.9718333 2.22153846 2.1723333s-.99468132 2.1723333-2.22153846 2.1723333c-1.22727473 0-2.22237363-.9718333-2.22237363-2.1723333"/></g></g></g></svg>