<svg height="250" viewBox="0 0 350 250" width="350" xmlns="http://www.w3.org/2000/svg" xmlns:xlink="http://www.w3.org/1999/xlink"><defs><path id="a" d="m9.27082726.62299188c.40440057-.83065584 1.05380144-.83065584 1.45860204 0l2.5808037 5.29458053 5.8236082.79760845c.9344013.12732965 1.1454016.75328608.4730007 1.40140369l-4.251006 4.06502325 1.0428014 5.7932073c.1596003.9086088-.3818005 1.2795172-1.2076017.8415421l-5.1910073-2.7639281-5.19080735 2.7639281c-.82620117.4379751-1.36740193.0670667-1.20800171-.8415421l1.04280148-5.7932073-4.25080601-4.06502325c-.67240095-.64811761-.46160065-1.27407404.47300067-1.40140369l5.82320823-.79760845z"/><path id="b" d="m9.27082726.62299188c.40440057-.83065584 1.05380144-.83065584 1.45860204 0l2.5808037 5.29458053 5.8236082.79760845c.9344013.12732965 1.1454016.75328608.4730007 1.40140369l-4.251006 4.06502325 1.0428014 5.7932073c.1596003.9086088-.3818005 1.2795172-1.2076017.8415421l-5.1910073-2.7639281-5.19080735 2.7639281c-.82620117.4379751-1.36740193.0670667-1.20800171-.8415421l1.04280148-5.7932073-4.25080601-4.06502325c-.67240095-.64811761-.46160065-1.27407404.47300067-1.40140369l5.82320823-.79760845z"/><path id="c" d="m28.1057992 8.1084151c.4044005-.83065584 1.0538015-.83065584 1.458602 0l2.5808037 5.2945805 5.8236082.7976085c.9344013.1273296 1.1454016.7532861.4730007 1.4014037l-4.251006 4.0650232 1.0428015 5.7932073c.1596002.9086088-.3818006 1.2795172-1.2076018.8415421l-5.1910073-2.7639281-5.1908073 2.7639281c-.8262012.4379751-1.367402.0670667-1.2080017-.8415421l1.0428014-5.7932073-4.250806-4.0650232c-.6724009-.6481176-.4616006-1.2740741.4730007-1.4014037l5.8232082-.7976085z"/><path id="d" d="m9.27082726.62299188c.40440057-.83065584 1.05380144-.83065584 1.45860204 0l2.5808037 5.29458053 5.8236082.79760845c.9344013.12732965 1.1454016.75328608.4730007 1.40140369l-4.251006 4.06502325 1.0428014 5.7932073c.1596003.9086088-.3818005 1.2795172-1.2076017.8415421l-5.1910073-2.7639281-5.19080735 2.7639281c-.82620117.4379751-1.36740193.0670667-1.20800171-.8415421l1.04280148-5.7932073-4.25080601-4.06502325c-.67240095-.64811761-.46160065-1.27407404.47300067-1.40140369l5.82320823-.79760845z"/><mask id="e" fill="#fff"><use fill="none" xlink:href="#a"/></mask><mask id="f" fill="#fff"><use fill="none" xlink:href="#b"/></mask><mask id="g" fill="#fff"><use fill="none" xlink:href="#c"/></mask><mask id="h" fill="#fff"><use fill="none" xlink:href="#d"/></mask></defs><g fill="none" fill-rule="evenodd" transform="translate(32 2)"><g transform="matrix(.98768834 -.15643447 .15643447 .98768834 14 51.603895)"><path d="m27.5 0c15.1877917 0 27.5 12.3108333 27.5 27.5s-12.3122083 27.5-27.5 27.5-27.5-12.3108333-27.5-27.5 12.3122083-27.5 27.5-27.5" fill="#da5474"/><path d="m6.41666667 44.9166667c5.09203513 6.1715401 12.83786063 10.0833333 21.54166663 10.0833333 8.7038061 0 16.4500921-3.9117932 21.5416667-10.0833333z" fill="#c24f6d"/><path d="m30.156587 15.430692-.8232537.8057663 7.9433093 6.6802084c.0823254-.4681548.2055957-.8552828.3702464-1.1928944zm1.8516675-2.5973587c-.0823254.3826265-.2465405.8102679-.4525717 1.1478795l6.7498092 6.8512649c.3293014-.2565848.6995478-.4276414 1.1111747-.4681548z" fill="#2f424f"/><path d="m32.0170858 13.5883987-9.415588 8.4116013-1.955323-2.3253762c-.8192909-.9703974-2.0015345-1.5651571-3.2295081-1.6501228l9.9152495-8.9124516c1.3189525-1.18504751 3.4567146-1.14032873 4.7304183.08496567.5458731.54556904.8640583 1.18057563.9093071 1.85582913.1367089.9301505-.2272065 1.860301-.9545558 2.5355545" fill="#fffffe"/><path d="m26.5833333 28.3240351c-.1320397 0-6.5894339 2.4034449-7.1608312 5.5926316l-6.5452657-8.3011293c-1.5375191-1.964354-1.186498-4.8022679.7466754-6.3321531 1.9768767-1.5252632 4.8324685-1.1786125 6.3699876.7857416z" fill="#2f424f"/><path d="m15.5833333 43.9236111v.9930556h21.0833334v-.9930556c0-.9453125-.7470162-1.7569444-1.7134421-1.7569444h-17.656914c-.966426.047743-1.7129773.8116319-1.7129773 1.7569444" fill="#fffffe"/><path d="m17.4166667 41.5018769v.6647898h17.4166666v-.6647898c0-.6606607-.6220909-1.1685436-1.4219222-1.1685436h-14.5728222c-.799361 0-1.4219222.5450451-1.4219222 1.1685436" fill="#2f424f"/><path d="m26.125 28.4166667c-3.7698433 0-6.875 3.1109465-6.875 6.8902053v5.0264613h13.75v-5.0264613c0-3.7792588-3.1046873-6.8902053-6.875-6.8902053" fill="#fffffe"/><g fill="#da5474"><path d="m26.125 33.9166667c.7591815 0 1.375.6158631 1.375 1.3728616 0 .7612752-.6158185 1.3771384-1.375 1.3771384s-1.375-.6158632-1.375-1.3771384c0-.7569985.6158185-1.3728616 1.375-1.3728616"/><path d="m16.0416667 21.0833333c1.2656577 0 2.2916666 1.0235426 2.2916666 2.2896114s-1.0260089 2.293722-2.2916666 2.293722-2.2916667-1.0276532-2.2916667-2.293722 1.026009-2.2896114 2.2916667-2.2896114"/><path d="m28.4164357 10.0833333c1.0126412 0 1.8335643.8219984 1.8335643 1.8333334s-.8209231 1.8333333-1.8335643 1.8333333c-1.0121793 0-1.8331024-.8219983-1.8331024-1.8333333s.8209231-1.8333334 1.8331024-1.8333334"/></g><path d="m42.1666667 30.024563c0 .9779988-.1311999 2.0720313-.3931377 2.975437h-1.047751v-2.0761754c.3926757-.1574744.6546134-.4724232.6546134-.861965 0-.5097198-.4799882-.9407023-1.0472891-.9407023-.5677628 0-1.047751.4309825-1.047751.9407023 0 .3895418.2619378.7459312.6546134.861965v2.0761754h-1.047289c-.2619378-.9407022-.3926757-1.9974382-.3926757-2.975437 0-.6671941.0434253-1.1769138.1741632-1.6078963h3.273991c.1311999.4309825.2185125.9779988.2185125 1.6078963" fill="#2f424f"/><path d="m43.3394094 28.4166667c.4244157-1.2545675.6605906-2.7618216.6605906-4.1050511 0-3.222864-1.4624867-4.1449489-3.2080837-4.1449489-1.7930316 0-3.208583.9220849-3.208583 4.1449489 0 1.3432295.2361749 2.8504836.6605906 4.1050511z" fill="#fffffe"/><path d="m40.3335442 22c.5060962 0 .9164558.4130268.9164558.9187739 0 .5057472-.4103596.9145594-.9164558.9145594s-.9168775-.4088122-.9168775-.9145594c0-.5057471.4107813-.9187739.9168775-.9187739" fill="#da5474"/></g><g transform="matrix(.95105652 -.30901699 .30901699 .95105652 81 42.686918)"><path d="m53.9928791 0h-53.9928791v70h39.1256703l3.1296264-11.5383333 11.7375824-3.0741667z" fill="#fcde94"/><path d="m53.9928791 55.3875-14.8672088 14.6125h-19.9544835v-70h34.8216923z" fill="#f9d073"/><path d="m39.1256703 55.3875v14.6125l14.8672088-14.6125z" fill="#a3a4a0"/><g fill="#32b3d9"><path d="m44.6028132 39.655h-24.2578681c-.6474066 0-1.1737583-.5191667-1.1737583-1.155s.5263517-1.155 1.1737583-1.155h24.2578681c.6491868 0 1.1737582.5191667 1.1737582 1.155s-.5245714 1.155-1.1737582 1.155"/><path d="m44.6028132 51.7825h-24.2578681c-.6474066 0-1.1737583-.5191667-1.1737583-1.155s.5263517-1.155 1.1737583-1.155h24.2578681c.6491868 0 1.1737582.5191667 1.1737582 1.155s-.5245714 1.155-1.1737582 1.155"/><path d="m7.65138462 38.5c0-1.715 1.41408791-3.1033333 3.15810988-3.1033333 1.7434286 0 3.1569231 1.3883333 3.1569231 3.1033333s-1.4134945 3.1033333-3.1569231 3.1033333c-1.74402197 0-3.15810988-1.3883333-3.15810988-3.1033333"/><path d="m7.65138462 50.6275c0-1.715 1.41408791-3.1033333 3.15810988-3.1033333 1.7434286 0 3.1569231 1.3883333 3.1569231 3.1033333s-1.4134945 3.1033333-3.1569231 3.1033333c-1.74402197 0-3.15810988-1.3883333-3.15810988-3.1033333"/></g></g><g transform="matrix(.92718385 .37460659 -.37460659 .92718385 62.222462 96)"><path d="m53.9928791 0h-53.9928791v70h39.1256703l3.1296264-11.5383333 11.7375824-3.0741667z" fill="#fcde94"/><path d="m53.9928791 55.3875-14.8672088 14.6125h-19.9544835v-70h34.8216923z" fill="#f9d073"/><path d="m39.1256703 55.3875v14.6125l14.8672088-14.6125z" fill="#a3a4a0"/><g fill="#32b3d9"><path d="m44.6028132 39.655h-24.2578681c-.6474066 0-1.1737583-.5191667-1.1737583-1.155s.5263517-1.155 1.1737583-1.155h24.2578681c.6491868 0 1.1737582.5191667 1.1737582 1.155s-.5245714 1.155-1.1737582 1.155"/><path d="m44.6028132 51.7825h-24.2578681c-.6474066 0-1.1737583-.5191667-1.1737583-1.155s.5263517-1.155 1.1737583-1.155h24.2578681c.6491868 0 1.1737582.5191667 1.1737582 1.155s-.5245714 1.155-1.1737582 1.155"/><path d="m7.65138462 38.5c0-1.715 1.41408791-3.1033333 3.15810988-3.1033333 1.7434286 0 3.1569231 1.3883333 3.1569231 3.1033333s-1.4134945 3.1033333-3.1569231 3.1033333c-1.74402197 0-3.15810988-1.3883333-3.15810988-3.1033333"/><path d="m7.65138462 50.6275c0-1.715 1.41408791-3.1033333 3.15810988-3.1033333 1.7434286 0 3.1569231 1.3883333 3.1569231 3.1033333s-1.4134945 3.1033333-3.1569231 3.1033333c-1.74402197 0-3.15810988-1.3883333-3.15810988-3.1033333"/></g></g><g transform="matrix(.95105652 -.30901699 .30901699 .95105652 101 45.18034)"><use fill="#50b7e8" fill-rule="nonzero" xlink:href="#a"/><g fill="#72c9e9"><path d="m9.878-.356h10.366v19.712h-10.366z" mask="url(#e)"/><path d="m9.87804878-1.1875v10.2125l3.78048782-3.325z" mask="url(#e)"/></g></g><g transform="matrix(.92718385 .37460659 -.37460659 .92718385 73.117525 108)"><use fill="#50b7e8" fill-rule="nonzero" xlink:href="#b"/><g fill="#72c9e9"><path d="m9.878-.356h10.366v19.712h-10.366z" mask="url(#f)"/><path d="m9.87804878-1.1875v10.2125l3.78048782-3.325z" mask="url(#f)"/></g></g><g transform="matrix(.95105652 -.30901699 .30901699 .95105652 138 115.686918)"><path d="m53.9928791 0h-53.9928791v70h39.1256703l3.1296264-11.5383333 11.7375824-3.0741667z" fill="#fcde94"/><path d="m53.9928791 55.3875-14.8672088 14.6125h-19.9544835v-70h34.8216923z" fill="#f9d073"/><path d="m39.1256703 55.3875v14.6125l14.8672088-14.6125z" fill="#a3a4a0"/><g fill="#32b3d9"><path d="m44.6028132 39.655h-24.2578681c-.6474066 0-1.1737583-.5191667-1.1737583-1.155s.5263517-1.155 1.1737583-1.155h24.2578681c.6491868 0 1.1737582.5191667 1.1737582 1.155s-.5245714 1.155-1.1737582 1.155"/><path d="m44.6028132 51.7825h-24.2578681c-.6474066 0-1.1737583-.5191667-1.1737583-1.155s.5263517-1.155 1.1737583-1.155h24.2578681c.6491868 0 1.1737582.5191667 1.1737582 1.155s-.5245714 1.155-1.1737582 1.155"/><path d="m7.65138462 38.5c0-1.715 1.41408791-3.1033333 3.15810988-3.1033333 1.7434286 0 3.1569231 1.3883333 3.1569231 3.1033333s-1.4134945 3.1033333-3.1569231 3.1033333c-1.74402197 0-3.15810988-1.3883333-3.15810988-3.1033333"/><path d="m7.65138462 50.6275c0-1.715 1.41408791-3.1033333 3.15810988-3.1033333 1.7434286 0 3.1569231 1.3883333 3.1569231 3.1033333s-1.4134945 3.1033333-3.1569231 3.1033333c-1.74402197 0-3.15810988-1.3883333-3.15810988-3.1033333"/></g></g><g transform="matrix(.51503807 .8571673 -.8571673 .51503807 260.001711 165)"><path d="m53.9928791 0h-53.9928791v70h39.1256703l3.1296264-11.5383333 11.7375824-3.0741667z" fill="#fcde94"/><path d="m53.9928791 55.3875-14.8672088 14.6125h-19.9544835v-70h34.8216923z" fill="#f9d073"/><path d="m39.1256703 55.3875v14.6125l14.8672088-14.6125z" fill="#a3a4a0"/><g fill="#32b3d9"><path d="m44.6028132 39.655h-24.2578681c-.6474066 0-1.1737583-.5191667-1.1737583-1.155s.5263517-1.155 1.1737583-1.155h24.2578681c.6491868 0 1.1737582.5191667 1.1737582 1.155s-.5245714 1.155-1.1737582 1.155"/><path d="m44.6028132 51.7825h-24.2578681c-.6474066 0-1.1737583-.5191667-1.1737583-1.155s.5263517-1.155 1.1737583-1.155h24.2578681c.6491868 0 1.1737582.5191667 1.1737582 1.155s-.5245714 1.155-1.1737582 1.155"/><path d="m7.65138462 38.5c0-1.715 1.41408791-3.1033333 3.15810988-3.1033333 1.7434286 0 3.1569231 1.3883333 3.1569231 3.1033333s-1.4134945 3.1033333-3.1569231 3.1033333c-1.74402197 0-3.15810988-1.3883333-3.15810988-3.1033333"/><path d="m7.65138462 50.6275c0-1.715 1.41408791-3.1033333 3.15810988-3.1033333 1.7434286 0 3.1569231 1.3883333 3.1569231 3.1033333s-1.4134945 3.1033333-3.1569231 3.1033333c-1.74402197 0-3.15810988-1.3883333-3.15810988-3.1033333"/></g><use fill="#50b7e8" fill-rule="nonzero" xlink:href="#c"/><path d="m28.713 7.129h10.366v19.712h-10.366z" fill="#72c9e9" mask="url(#g)"/></g><g transform="matrix(.95105652 -.30901699 .30901699 .95105652 158 116.18034)"><use fill="#50b7e8" fill-rule="nonzero" xlink:href="#d"/><g fill="#72c9e9"><path d="m9.878-.356h10.366v19.712h-10.366z" mask="url(#h)"/><path d="m9.87804878-1.1875v10.2125l3.78048782-3.325z" mask="url(#h)"/></g></g><g transform="translate(108 129)"><path d="m25 0c13.8070833 0 25 11.1916667 25 25s-11.1929167 25-25 25-25-11.1916667-25-25 11.1929167-25 25-25" fill="#da5474"/><path d="m5.83333333 40.8333333c4.62912287 5.6104911 11.67078237 9.1666667 19.58333337 9.1666667 7.9125509 0 14.9546292-3.5561756 19.5833333-9.1666667z" fill="#c24f6d"/><path d="m27.4150791 14.0279018-.7484124.7325149 7.2211902 6.0729166c.0748413-.4255952.1869051-.7775297.3365876-1.0844494zm1.6833341-2.3612351c-.0748413.3478422-.2241278.7366071-.4114289 1.0435268l6.1361902 6.2284226c.299365-.233259.6359526-.3887649 1.0101588-.4255953z" fill="#2f424f"/><path d="m29.1064416 12.3530897-8.5596254 7.6469103-1.7775664-2.1139784c-.7448099-.8821794-1.8195768-1.4228701-2.9359165-1.5001116l9.0138632-8.10222873c1.1990478-1.07731591 3.1424678-1.03666248 4.3003803.07724152.4962483.49597185.7855076 1.07325057.8266428 1.68711741.1242809.8455913-.2065513 1.6911827-.867778 2.3050495" fill="#fffffe"/><path d="m24.1666667 25.7491228c-.1200362 0-5.9903945 2.18495-6.5098466 5.0842105l-5.9502416-7.5464811c-1.3977446-1.7857764-1.0786345-4.3656981.6787959-5.7565028 1.7971606-1.3866029 4.3931532-1.0714659 5.7908978.7143105z" fill="#2f424f"/><path d="m14.1666667 39.9305556v.9027777h19.1666666v-.9027777c0-.859375-.6791055-1.5972223-1.5576746-1.5972223h-16.05174c-.8785691.0434028-1.557252.7378473-1.557252 1.5972223" fill="#fffffe"/><path d="m15.8333333 37.728979v.6043543h15.8333334v-.6043543c0-.6006006-.5655373-1.0623123-1.2926566-1.0623123h-13.2480202c-.7266918 0-1.2926566.4954955-1.2926566 1.0623123" fill="#2f424f"/><path d="m23.75 25.8333333c-3.4271303 0-6.25 2.8281333-6.25 6.2638231v4.5695103h12.5v-4.5695103c0-3.4356898-2.822443-6.2638231-6.25-6.2638231" fill="#fffffe"/><g fill="#da5474"><path d="m23.75 30.8333333c.690165 0 1.25.5598756 1.25 1.248056 0 .6920685-.559835 1.251944-1.25 1.251944s-1.25-.5598755-1.25-1.251944c0-.6881804.559835-1.248056 1.25-1.248056"/><path d="m14.5833333 19.1666667c1.1505979 0 2.0833334.9304932 2.0833334 2.0814648s-.9327355 2.0852018-2.0833334 2.0852018-2.0833333-.9342302-2.0833333-2.0852018.9327354-2.0814648 2.0833333-2.0814648"/><path d="m25.8331233 9.16666667c.920583 0 1.6668767.7472712 1.6668767 1.66666663 0 .9193955-.7462937 1.6666667-1.6668767 1.6666667-.9201629 0-1.6664566-.7472712-1.6664566-1.6666667 0-.91939543.7462937-1.66666663 1.6664566-1.66666663"/></g><path d="m38.3333333 27.2950573c0 .8890898-.1192726 1.8836648-.3573978 2.7049427h-.952501v-1.8874322c.3569779-.1431585.5951032-.4294756.5951032-.7836046 0-.4633815-.436353-.8551838-.952081-.8551838-.516148 0-.952501.3918023-.952501.8551838 0 .354129.2381253.6781194.5951031.7836046v1.8874322h-.9520809c-.2381253-.8551838-.3569779-1.8158529-.3569779-2.7049427 0-.6065401.0394776-1.0699217.1583302-1.461724h2.9763554c.1192727.3918023.1986477.8890898.1986477 1.461724" fill="#2f424f"/><path d="m39.3994631 25.8333333c.3858325-1.1405158.6005369-2.5107469.6005369-3.7318646 0-2.9298764-1.3295334-3.7681354-2.9164397-3.7681354-1.6300288 0-2.9168936.838259-2.9168936 3.7681354 0 1.2211177.2147044 2.5913488.6005369 3.7318646z" fill="#fffffe"/><path d="m36.6668584 20c.4600874 0 .8331416.3754789.8331416.835249 0 .4597702-.3730542.8314177-.8331416.8314177s-.8335251-.3716475-.8335251-.8314177c0-.4597701.3734377-.835249.8335251-.835249" fill="#da5474"/></g><g transform="matrix(.98162718 .190809 -.190809 .98162718 174.540449 41)"><path d="m25 0c13.8070833 0 25 11.1916667 25 25s-11.1929167 25-25 25-25-11.1916667-25-25 11.1929167-25 25-25" fill="#da5474"/><path d="m5.83333333 40.8333333c4.62912287 5.6104911 11.67078237 9.1666667 19.58333337 9.1666667 7.9125509 0 14.9546292-3.5561756 19.5833333-9.1666667z" fill="#c24f6d"/><path d="m27.4150791 14.0279018-.7484124.7325149 7.2211902 6.0729166c.0748413-.4255952.1869051-.7775297.3365876-1.0844494zm1.6833341-2.3612351c-.0748413.3478422-.2241278.7366071-.4114289 1.0435268l6.1361902 6.2284226c.299365-.233259.6359526-.3887649 1.0101588-.4255953z" fill="#2f424f"/><path d="m29.1064416 12.3530897-8.5596254 7.6469103-1.7775664-2.1139784c-.7448099-.8821794-1.8195768-1.4228701-2.9359165-1.5001116l9.0138632-8.10222873c1.1990478-1.07731591 3.1424678-1.03666248 4.3003803.07724152.4962483.49597185.7855076 1.07325057.8266428 1.68711741.1242809.8455913-.2065513 1.6911827-.867778 2.3050495" fill="#fffffe"/><path d="m24.1666667 25.7491228c-.1200362 0-5.9903945 2.18495-6.5098466 5.0842105l-5.9502416-7.5464811c-1.3977446-1.7857764-1.0786345-4.3656981.6787959-5.7565028 1.7971606-1.3866029 4.3931532-1.0714659 5.7908978.7143105z" fill="#2f424f"/><path d="m14.1666667 39.9305556v.9027777h19.1666666v-.9027777c0-.859375-.6791055-1.5972223-1.5576746-1.5972223h-16.05174c-.8785691.0434028-1.557252.7378473-1.557252 1.5972223" fill="#fffffe"/><path d="m15.8333333 37.728979v.6043543h15.8333334v-.6043543c0-.6006006-.5655373-1.0623123-1.2926566-1.0623123h-13.2480202c-.7266918 0-1.2926566.4954955-1.2926566 1.0623123" fill="#2f424f"/><path d="m23.75 25.8333333c-3.4271303 0-6.25 2.8281333-6.25 6.2638231v4.5695103h12.5v-4.5695103c0-3.4356898-2.822443-6.2638231-6.25-6.2638231" fill="#fffffe"/><g fill="#da5474"><path d="m23.75 30.8333333c.690165 0 1.25.5598756 1.25 1.248056 0 .6920685-.559835 1.251944-1.25 1.251944s-1.25-.5598755-1.25-1.251944c0-.6881804.559835-1.248056 1.25-1.248056"/><path d="m14.5833333 19.1666667c1.1505979 0 2.0833334.9304932 2.0833334 2.0814648s-.9327355 2.0852018-2.0833334 2.0852018-2.0833333-.9342302-2.0833333-2.0852018.9327354-2.0814648 2.0833333-2.0814648"/><path d="m25.8331233 9.16666667c.920583 0 1.6668767.7472712 1.6668767 1.66666663 0 .9193955-.7462937 1.6666667-1.6668767 1.6666667-.9201629 0-1.6664566-.7472712-1.6664566-1.6666667 0-.91939543.7462937-1.66666663 1.6664566-1.66666663"/></g><path d="m38.3333333 27.2950573c0 .8890898-.1192726 1.8836648-.3573978 2.7049427h-.952501v-1.8874322c.3569779-.1431585.5951032-.4294756.5951032-.7836046 0-.4633815-.436353-.8551838-.952081-.8551838-.516148 0-.952501.3918023-.952501.8551838 0 .354129.2381253.6781194.5951031.7836046v1.8874322h-.9520809c-.2381253-.8551838-.3569779-1.8158529-.3569779-2.7049427 0-.6065401.0394776-1.0699217.1583302-1.461724h2.9763554c.1192727.3918023.1986477.8890898.1986477 1.461724" fill="#2f424f"/><path d="m39.3994631 25.8333333c.3858325-1.1405158.6005369-2.5107469.6005369-3.7318646 0-2.9298764-1.3295334-3.7681354-2.9164397-3.7681354-1.6300288 0-2.9168936.838259-2.9168936 3.7681354 0 1.2211177.2147044 2.5913488.6005369 3.7318646z" fill="#fffffe"/><path d="m36.6668584 20c.4600874 0 .8331416.3754789.8331416.835249 0 .4597702-.3730542.8314177-.8331416.8314177s-.8335251-.3716475-.8335251-.8314177c0-.4597701.3734377-.835249.8335251-.835249" fill="#da5474"/></g><g transform="translate(8 86)"><path d="m84 134.5676-24.528 26h108.528l-28-26z" fill="#caf5ff"/><path d="m86.5 132.5676h27l-29 28h-24.5z" fill="#46c4d1" opacity=".805"/><path d="m84 134.568h55.5v-27h-55.5z" fill="#caf5ff"/><path d="m111.4961 134.5676h27.504v-27z" fill="#46c4d1" opacity=".805"/><g fill-opacity=".5"><path d="m0 53.568h224v-53h-224z" fill="#caf5ff"/><path d="m113 1.5676v52h55z" fill="#46c4d1"/><path d="m1 1.5676v52h54.992z" fill="#46c4d1"/><g fill="#90edfc"><path d="m112 .5676h-55-2-55l55.992 53 .008-.009.008.009z"/><path d="m223 53.5676h-55-2-53l55 54.5-1-1.509 1 1.509z"/><path d="m113 53.5676h-57-2-53l57 54z"/><path d="m224 .5676h-55-2-55l55.992 53 .008-.009.008.009z"/></g><path d="m58 107.5676h110l-55-54z" fill="#caf5ff"/></g><path d="m139 107.5676h-27.009-.982-27.009l27.496 27h.008z" fill="#90edfc"/><path d="m84 160.5676h27.009.982 27.009l-27.496-26.014-.004.011-.004-.014z" fill="#90edfc"/><g fill="#46c4d1" fill-opacity=".5"><path d="m58 107.5676-2.008-54h57.008z"/><path d="m168 108.0676-.008-54.5h57.008z"/></g></g><g fill="#ffc431"><path d="m255.505535 59.1856169c.659287.3621129.659287 1.2654165 0 1.6285189-2.689564 1.4781331-4.631131 4.6372223-5.660384 6.669408-.349804.6886083-1.339742.6886083-1.689546 0-1.030261-2.0321857-2.97082-5.1912749-5.660384-6.669408-.660295-.3631024-.660295-1.266406 0-1.6285189 2.689564-1.4781332 4.630123-4.6372223 5.660384-6.6684187.349804-.6895976 1.339742-.6895976 1.689546 0 1.029253 2.0311964 2.97082 5.1902855 5.660384 6.6684187z"/><path d="m205.505535 19.1856169c.659287.3621129.659287 1.2654165 0 1.6285189-2.689564 1.4781331-4.631131 4.6372223-5.660384 6.669408-.349804.6886083-1.339742.6886083-1.689546 0-1.030261-2.0321857-2.97082-5.1912749-5.660384-6.669408-.660295-.3631024-.660295-1.266406 0-1.6285189 2.689564-1.4781332 4.630123-4.6372223 5.660384-6.6684187.349804-.6895976 1.339742-.6895976 1.689546 0 1.029253 2.0311964 2.97082 5.1902855 5.660384 6.6684187z"/><path d="m146.505535 7.18561689c.659287.36211295.659287 1.26541655 0 1.62851887-2.689564 1.47813314-4.631131 4.63722234-5.660384 6.66940804-.349804.6886083-1.339742.6886083-1.689546 0-1.030261-2.0321857-2.97082-5.1912749-5.660384-6.66940804-.660295-.36310232-.660295-1.26640592 0-1.62851887 2.689564-1.47813316 4.630123-4.63722231 5.660384-6.66841869.349804-.6895976 1.339742-.6895976 1.689546 0 1.029253 2.03119638 2.97082 5.19028553 5.660384 6.66841869z"/><path d="m65.5055355 29.1856169c.659286.3621129.659286 1.2654165 0 1.6285189-2.6895646 1.4781331-4.6311318 4.6372223-5.6603842 6.669408-.3498047.6886083-1.3397419.6886083-1.6895465 0-1.0302605-2.0321857-2.9708196-5.1912749-5.6603842-6.669408-.6602941-.3631024-.6602941-1.266406 0-1.6285189 2.6895646-1.4781332 4.6301237-4.6372223 5.6603842-6.6684187.3498046-.6895976 1.3397418-.6895976 1.6895465 0 1.0292524 2.0311964 2.9708196 5.1902855 5.6603842 6.6684187z"/><path d="m13.5055355 39.1856169c.659286.3621129.659286 1.2654165 0 1.6285189-2.6895646 1.4781331-4.6311318 4.6372223-5.6603842 6.669408-.34980468.6886083-1.33974186.6886083-1.68954654 0-1.03026048-2.0321857-2.97081961-5.1912749-5.66038415-6.669408-.66029415-.3631024-.66029415-1.266406 0-1.6285189 2.68956454-1.4781332 4.63012367-4.6372223 5.66038415-6.6684187.34980468-.6895976 1.33974186-.6895976 1.68954654 0 1.0292524 2.0311964 2.9708196 5.1902855 5.6603842 6.6684187z"/></g></g></svg>