<svg height="250" viewBox="0 0 350 250" width="350" xmlns="http://www.w3.org/2000/svg"><g fill="none" fill-rule="evenodd"><g transform="translate(27 2)"><g fill-rule="nonzero"><path d="m68.3216647 36.8962415v52.0219272c0 3.5781601-2.9738316 6.4668141-6.6581632 6.4668141h-44.6836735c-3.6843316 0-6.6581633-2.888654-6.6581633-6.4668141v-52.0219272c0-3.5784476 2.9738317-6.4668142 6.6581633-6.4668142h44.6836735c3.6843316 0 6.6581632 2.8883666 6.6581632 6.4668142z" fill="#f49c53" transform="matrix(.9612617 -.27563736 .27563736 .9612617 -15.816321 13.275438)"/><path d="m66.9438016 33.0732712v52.0219272c0 3.5781601-2.9307326 6.4668142-6.5616682 6.4668142h-22.018042v-64.9555556h22.018042c3.6309356 0 6.5616682 2.8883666 6.5616682 6.4668142z" fill="#f16661" transform="matrix(.9612617 -.27563736 .27563736 .9612617 -14.246098 16.802218)"/><path d="m16.7435685 91.3897193c-1.2153162 0-2.2027239-.9731503-2.2027239-2.1709183v-52.3914966c0-1.1977681.9874077-2.1709184 2.2027239-2.1709184h44.3481753c1.2153163 0 2.202724.9731503 2.202724 2.1709184v52.3914966c0 1.197768-.9874077 2.1709183-2.202724 2.1709183z" fill="#f6b72c" transform="matrix(.9612617 -.27563736 .27563736 .9612617 -15.863904 13.168566)"/><path d="m60.6195857 31.296806h-22.1740877v56.7333334h22.1740877c1.2153162 0 2.2027239-.9731504 2.2027239-2.1709184v-52.3914966c0-1.197768-.9874077-2.1709184-2.2027239-2.1709184z" fill="#f49c53" transform="matrix(.9612617 -.27563736 .27563736 .9612617 -14.48401 16.267857)"/><path d="m60.6962802 76.0771506 2.8983027-2.8349828c.875543-.8564148.875543-2.2440143 0-3.1004291-.875543-.8564147-2.2941348-.8564147-3.1696777 0l-2.8983028 2.8349829-2.8983027-2.8349829c-.875543-.8564147-2.2941348-.8564147-3.1696777 0-.875543.8564148-.875543 2.2440143 0 3.1004291l2.8983027 2.8349828-2.8983027 2.8349829c-.875543.8564147-.875543 2.2440142 0 3.100429.8756924.8565609 2.2939853.8565609 3.1696777 0l2.8983027-2.8349828 2.8983028 2.8349828c.8756924.8565609 2.2939853.8565609 3.1696777 0 .875543-.8564148.875543-2.2440143 0-3.100429z" fill="#fff" transform="matrix(.9612617 -.27563736 .27563736 .9612617 -18.741237 18.803582)"/><g transform="matrix(.9612617 -.27563736 .27563736 .9612617 12.928273 27.279844)"><path d="m35.2976322 29.8074826c-.8471468.8702957-2.273623.8702957-3.1209183 0l-.6689487-.609207v7.7892916c0 3.6115821-2.9871583 6.5272177-6.6880006 6.5272177h-18.13176403c-1.24857539 0-2.22933352.9571803-2.22933352 2.1757393v8.9930555c0 1.218269-.98075813 2.1757393-2.22933353 2.1757393-1.24857539 0-2.22933352-.9574703-2.22933352-2.1757393v-8.9930555c0-3.6118722 2.9871583-6.5272177 6.68800057-6.5272177h18.13191263c1.2485754 0 2.2293336-.9574704 2.2293336-2.1757393v-7.7892916l-.6689487.609207c-.8471468.8702957-2.273623.8702957-3.1209183 0-.8917334-.8267809-.8917334-2.219254 0-3.0460349l4.458667-4.3514785c.8471468-.8701507 2.273623-.8701507 3.1209183 0l4.4586671 4.3514785c.891882.8267809.891882 2.219254 0 3.0460349z" fill="#fff"/><path d="m24.8199132 4.35147849h-2.6307621c-.8914362-2.52400257-3.536912-4.35147849-6.4351942-4.35147849s-5.543758 1.82747592-6.43519415 4.35147849h-2.63076218c-3.70084227 0-6.68800057 2.91534555-6.68800057 6.52721771 0 3.6115821 2.9871583 6.5272178 6.68800057 6.5272178h18.13191263c3.7008423 0 6.6880006-2.9156357 6.6880006-6.5272178 0-3.61187216-2.9871583-6.52721771-6.6880006-6.52721771z" fill="#ffde3f"/></g><path d="m26.2275976 53.4573084 2.8983028-2.8349829c.8755429-.8564148.8755429-2.2440142 0-3.100429-.875543-.8564148-2.2941348-.8564148-3.1696778 0l-2.8983027 2.8349828-2.8983027-2.8349828c-.875543-.8564148-2.2941348-.8564148-3.1696778 0-.8755429.8564148-.8755429 2.2440142 0 3.100429l2.8983028 2.8349829-2.8983028 2.8349828c-.8755429.8564148-.8755429 2.2440143 0 3.100429.8756924.856561 2.2939854.856561 3.1696778 0l2.8983027-2.8349828 2.8983027 2.8349828c.8756924.856561 2.2939854.856561 3.1696778 0 .8755429-.8564147.8755429-2.2440142 0-3.100429z" fill="#fff" transform="matrix(.9612617 -.27563736 .27563736 .9612617 -13.841621 8.426472)"/><g transform="matrix(.9612617 -.27563736 .27563736 .9612617 27.47258 23.109331)"><path d="m19.775563 29.7712425c-.8507287.8692376-2.2832365.8692376-3.1341145 0l-.6717773-.6084663v7.7798213c0 3.6071911-2.999789 6.5192819-6.71627961 6.5192819h-9.10429018v-4.3461879h9.10429018c1.25385481 0 2.23875991-.9563062 2.23875991-2.173094v-7.7798213l-.6717772.6084663c-.8507288.8692376-2.28323662.8692376-3.13411462 0-.89550396-.8257757-.89550396-2.2165558 0-3.0423315l4.47751972-4.346188c.8507288-.8690927 2.2832366-.8690927 3.1341146 0l4.4775198 4.346188c.8958024.8257757.8958024 2.2165558.0001492 3.0423315z" fill="#fff"/><path d="m15.9698205 10.8654699c0 3.6071911-2.999789 6.5192819-6.71627966 6.5192819h-9.10429018v-17.3847518c2.9105371 0 5.56719882 1.82525406 6.46240427 4.34618794h2.64188591c3.71649066 0 6.71627966 2.91180105 6.71627966 6.51928196z" fill="#f6b72c"/></g><path d="m31.6700559 90.0692286c-3.7081146 0-6.7246376-2.9506449-6.7246376-6.5777778 0-3.6271328 3.016523-6.5777777 6.7246376-6.5777777 3.7081147 0 6.7246377 2.9506449 6.7246377 6.5777777 0 3.6271329-3.016523 6.5777778-6.7246377 6.5777778z" fill="#fff" transform="matrix(.9612617 -.27563736 .27563736 .9612617 -21.786519 11.963768)"/><path d="m138.720246 37.0110544v52.0219272c0 3.5781601-2.973832 6.4668142-6.658163 6.4668142h-44.6836739c-3.6843316 0-6.6581632-2.8886541-6.6581632-6.4668142v-52.0219272c0-3.5784476 2.9738316-6.4668142 6.6581632-6.4668142h44.6836739c3.684331 0 6.658163 2.8883666 6.658163 6.4668142z" fill="#f49c53" transform="matrix(.9998477 -.01745241 .01745241 .9998477 -1.083175 1.924481)"/><path d="m137.877554 36.7689971v52.0219272c0 3.5781601-2.930733 6.4668142-6.561668 6.4668142h-22.018042v-64.9555556h22.018042c3.630935 0 6.561668 2.8883666 6.561668 6.4668142z" fill="#f16661" transform="matrix(.9998477 -.01745241 .01745241 .9998477 -1.076838 2.166464)"/><path d="m87.1259324 91.3960197c-1.2153163 0-2.202724-.9731503-2.202724-2.1709184v-52.3914966c0-1.197768.9874077-2.1709183 2.202724-2.1709183h44.3481756c1.215316 0 2.202724.9731503 2.202724 2.1709183v52.3914966c0 1.1977681-.987408 2.1709184-2.202724 2.1709184z" fill="#f6b72c" transform="matrix(.9998477 -.01745241 .01745241 .9998477 -1.083367 1.917148)"/><path d="m131.472251 34.4499694h-22.174087v56.7333333h22.174087c1.215317 0 2.202724-.9731503 2.202724-2.1709184v-52.3914966c0-1.197768-.987407-2.1709183-2.202724-2.1709183z" fill="#f49c53" transform="matrix(.9998477 -.01745241 .01745241 .9998477 -1.077798 2.1298)"/><path d="m127.065896 80.4549912 2.898303-2.8349828c.875543-.8564148.875543-2.2440143 0-3.100429-.875543-.8564148-2.294135-.8564148-3.169678 0l-2.898303 2.8349828-2.898302-2.8349828c-.875543-.8564148-2.294135-.8564148-3.169678 0-.875543.8564147-.875543 2.2440142 0 3.100429l2.898303 2.8349828-2.898303 2.8349829c-.875543.8564148-.875543 2.2440142 0 3.100429.875692.856561 2.293985.856561 3.169678 0l2.898302-2.8349828 2.898303 2.8349828c.875693.856561 2.293985.856561 3.169678 0 .875543-.8564148.875543-2.2440142 0-3.100429z" fill="#fff" transform="matrix(.9998477 -.01745241 .01745241 .9998477 -1.385264 2.174541)"/><g transform="matrix(.9998477 -.01745241 .01745241 .9998477 93.447227 21.777517)"><path d="m35.2976322 29.8074826c-.8471468.8702957-2.273623.8702957-3.1209183 0l-.6689487-.609207v7.7892916c0 3.6115821-2.9871583 6.5272177-6.6880006 6.5272177h-18.13176403c-1.24857539 0-2.22933352.9571803-2.22933352 2.1757393v8.9930555c0 1.218269-.98075813 2.1757393-2.22933353 2.1757393-1.24857539 0-2.22933352-.9574703-2.22933352-2.1757393v-8.9930555c0-3.6118722 2.9871583-6.5272177 6.68800057-6.5272177h18.13191263c1.2485754 0 2.2293336-.9574704 2.2293336-2.1757393v-7.7892916l-.6689487.609207c-.8471468.8702957-2.273623.8702957-3.1209183 0-.8917334-.8267809-.8917334-2.219254 0-3.0460349l4.458667-4.3514785c.8471468-.8701507 2.273623-.8701507 3.1209183 0l4.4586671 4.3514785c.891882.8267809.891882 2.219254 0 3.0460349z" fill="#fff"/><path d="m24.8199132 4.35147849h-2.6307621c-.8914362-2.52400257-3.536912-4.35147849-6.4351942-4.35147849s-5.543758 1.82747592-6.43519415 4.35147849h-2.63076218c-3.70084227 0-6.68800057 2.91534555-6.68800057 6.52721771 0 3.6115821 2.9871583 6.5272178 6.68800057 6.5272178h18.13191263c3.7008423 0 6.6880006-2.9156357 6.6880006-6.5272178 0-3.61187216-2.9871583-6.52721771-6.6880006-6.52721771z" fill="#ffde3f"/></g><path d="m99.6261515 49.6847499 2.8983025-2.8349828c.875543-.8564148.875543-2.2440143 0-3.1004291-.875543-.8564147-2.294135-.8564147-3.1696775 0l-2.8983028 2.8349829-2.8983027-2.8349829c-.875543-.8564147-2.2941348-.8564147-3.1696777 0-.875543.8564148-.875543 2.2440143 0 3.1004291l2.8983027 2.8349828-2.8983027 2.8349829c-.875543.8564147-.875543 2.2440142 0 3.100429.8756924.8565609 2.2939853.8565609 3.1696777 0l2.8983027-2.8349829 2.8983028 2.8349829c.8756925.8565609 2.2939855.8565609 3.1696775 0 .875543-.8564148.875543-2.2440143 0-3.100429z" fill="#fff" transform="matrix(.9998477 -.01745241 .01745241 .9998477 -.852429 1.690965)"/><g transform="matrix(.9998477 -.01745241 .01745241 .9998477 108.575357 21.513455)"><path d="m19.775563 29.7712425c-.8507287.8692376-2.2832365.8692376-3.1341145 0l-.6717773-.6084663v7.7798213c0 3.6071911-2.999789 6.5192819-6.71627961 6.5192819h-9.10429018v-4.3461879h9.10429018c1.25385481 0 2.23875991-.9563062 2.23875991-2.173094v-7.7798213l-.6717772.6084663c-.8507288.8692376-2.28323662.8692376-3.13411462 0-.89550396-.8257757-.89550396-2.2165558 0-3.0423315l4.47751972-4.346188c.8507288-.8690927 2.2832366-.8690927 3.1341146 0l4.4775198 4.346188c.8958024.8257757.8958024 2.2165558.0001492 3.0423315z" fill="#fff"/><path d="m15.9698205 10.8654699c0 3.6071911-2.999789 6.5192819-6.71627966 6.5192819h-9.10429018v-17.3847518c2.9105371 0 5.56719882 1.82525406 6.46240427 4.34618794h2.64188591c3.71649066 0 6.71627966 2.91180105 6.71627966 6.51928196z" fill="#f6b72c"/></g><path d="m97.0017645 87.5022683c-3.7081147 0-6.7246377-2.950645-6.7246377-6.5777778s3.016523-6.5777778 6.7246377-6.5777778c3.7081145 0 6.7246375 2.950645 6.7246375 6.5777778s-3.016523 6.5777778-6.7246375 6.5777778z" fill="#fff" transform="matrix(.9998477 -.01745241 .01745241 .9998477 -1.397553 1.705239)"/><path d="m170.138468 117.536651v52.021927c0 3.57816-2.973831 6.466814-6.658163 6.466814h-44.683673c-3.684332 0-6.658164-2.888654-6.658164-6.466814v-52.021927c0-3.578448 2.973832-6.466815 6.658164-6.466815h44.683673c3.684332 0 6.658163 2.888367 6.658163 6.466815z" fill="#f49c53" transform="matrix(.98768834 -.15643447 .15643447 .98768834 -20.718145 23.84623)"/><path d="m169.127131 115.366973v52.021927c0 3.57816-2.930732 6.466814-6.561668 6.466814h-22.018042v-64.955556h22.018042c3.630936 0 6.561668 2.888367 6.561668 6.466815z" fill="#f16661" transform="matrix(.98768834 -.15643447 .15643447 .98768834 -20.210078 25.962483)"/><path d="m118.549265 171.980029c-1.215316 0-2.202723-.973151-2.202723-2.170919v-52.391496c0-1.197768.987407-2.170919 2.202723-2.170919h44.348176c1.215316 0 2.202724.973151 2.202724 2.170919v52.391496c0 1.197768-.987408 2.170919-2.202724 2.170919z" fill="#f6b72c" transform="matrix(.98768834 -.15643447 .15643447 .98768834 -20.733541 23.782101)"/><path d="m162.747381 113.340009h-22.174087v56.733333h22.174087c1.215316 0 2.202724-.97315 2.202724-2.170918v-52.391497c0-1.197768-.987408-2.170918-2.202724-2.170918z" fill="#f49c53" transform="matrix(.98768834 -.15643447 .15643447 .98768834 -20.287058 25.641839)"/><path d="m160.772368 158.838016 2.898303-2.834982c.875542-.856415.875542-2.244015 0-3.100429-.875543-.856415-2.294135-.856415-3.169678 0l-2.898303 2.834982-2.898303-2.834982c-.875543-.856415-2.294134-.856415-3.169677 0-.875543.856414-.875543 2.244014 0 3.100429l2.898302 2.834982-2.898302 2.834983c-.875543.856415-.875543 2.244015 0 3.100429.875692.856561 2.293985.856561 3.169677 0l2.898303-2.834983 2.898303 2.834983c.875692.856561 2.293985.856561 3.169678 0 .875542-.856414.875542-2.244014 0-3.100429z" fill="#fff" transform="matrix(.98768834 -.15643447 .15643447 .98768834 -22.907398 26.610053)"/><g transform="matrix(.98768834 -.15643447 .15643447 .98768834 119.283693 104.969268)"><path d="m35.2976322 29.8074826c-.8471468.8702957-2.273623.8702957-3.1209183 0l-.6689487-.609207v7.7892916c0 3.6115821-2.9871583 6.5272177-6.6880006 6.5272177h-18.13176403c-1.24857539 0-2.22933352.9571803-2.22933352 2.1757393v8.9930555c0 1.218269-.98075813 2.1757393-2.22933353 2.1757393-1.24857539 0-2.22933352-.9574703-2.22933352-2.1757393v-8.9930555c0-3.6118722 2.9871583-6.5272177 6.68800057-6.5272177h18.13191263c1.2485754 0 2.2293336-.9574704 2.2293336-2.1757393v-7.7892916l-.6689487.609207c-.8471468.8702957-2.273623.8702957-3.1209183 0-.8917334-.8267809-.8917334-2.219254 0-3.0460349l4.458667-4.3514785c.8471468-.8701507 2.273623-.8701507 3.1209183 0l4.4586671 4.3514785c.891882.8267809.891882 2.219254 0 3.0460349z" fill="#fff"/><path d="m24.8199132 4.35147849h-2.6307621c-.8914362-2.52400257-3.536912-4.35147849-6.4351942-4.35147849s-5.543758 1.82747592-6.43519415 4.35147849h-2.63076218c-3.70084227 0-6.68800057 2.91534555-6.68800057 6.52721771 0 3.6115821 2.9871583 6.5272178 6.68800057 6.5272178h18.13191263c3.7008423 0 6.6880006-2.9156357 6.6880006-6.5272178 0-3.61187216-2.9871583-6.52721771-6.6880006-6.52721771z" fill="#ffde3f"/></g><path d="m129.317275 132.186103 2.898303-2.834983c.875543-.856414.875543-2.244014 0-3.100429-.875543-.856414-2.294135-.856414-3.169678 0l-2.898303 2.834983-2.898303-2.834983c-.875543-.856414-2.294134-.856414-3.169677 0-.875543.856415-.875543 2.244015 0 3.100429l2.898302 2.834983-2.898302 2.834983c-.875543.856415-.875543 2.244014 0 3.100429.875692.856561 2.293985.856561 3.169677 0l2.898303-2.834983 2.898303 2.834983c.875692.856561 2.293985.856561 3.169678 0 .875543-.856415.875543-2.244014 0-3.100429z" fill="#fff" transform="matrix(.98768834 -.15643447 .15643447 .98768834 -19.125385 21.361263)"/><g transform="matrix(.98768834 -.15643447 .15643447 .98768834 134.227846 102.602347)"><path d="m19.775563 29.7712425c-.8507287.8692376-2.2832365.8692376-3.1341145 0l-.6717773-.6084663v7.7798213c0 3.6071911-2.999789 6.5192819-6.71627961 6.5192819h-9.10429018v-4.3461879h9.10429018c1.25385481 0 2.23875991-.9563062 2.23875991-2.173094v-7.7798213l-.6717772.6084663c-.8507288.8692376-2.28323662.8692376-3.13411462 0-.89550396-.8257757-.89550396-2.2165558 0-3.0423315l4.47751972-4.346188c.8507288-.8690927 2.2832366-.8690927 3.1341146 0l4.4775198 4.346188c.8958024.8257757.8958024 2.2165558.0001492 3.0423315z" fill="#fff"/><path d="m15.9698205 10.8654699c0 3.6071911-2.999789 6.5192819-6.71627966 6.5192819h-9.10429018v-17.3847518c2.9105371 0 5.56719882 1.82525406 6.46240427 4.34618794h2.64188591c3.71649066 0 6.71627966 2.91180105 6.71627966 6.51928196z" fill="#f6b72c"/></g><path d="m131.035305 169.623709c-3.708115 0-6.724638-2.950645-6.724638-6.577777 0-3.627133 3.016523-6.577778 6.724638-6.577778s6.724638 2.950645 6.724638 6.577778c0 3.627132-3.016523 6.577777-6.724638 6.577777z" fill="#fff" transform="matrix(.98768834 -.15643447 .15643447 .98768834 -23.892741 22.505804)"/><path d="m100.5972 116.970627v52.021928c0 3.57816-2.9738321 6.466814-6.6581637 6.466814h-44.6836735c-3.6843316 0-6.6581633-2.888654-6.6581633-6.466814v-52.021928c0-3.578447 2.9738317-6.466814 6.6581633-6.466814h44.6836735c3.6843316 0 6.6581637 2.888367 6.6581637 6.466814z" fill="#f49c53" transform="matrix(.97437006 -.22495105 .22495105 .97437006 -30.328828 19.770475)"/><path d="m99.4011438 113.850654v52.021927c0 3.57816-2.9307326 6.466814-6.5616682 6.466814h-22.018042v-64.955555h22.018042c3.6309356 0 6.5616682 2.888366 6.5616682 6.466814z" fill="#f16661" transform="matrix(.97437006 -.22495105 .22495105 .97437006 -29.280622 22.730518)"/><path d="m49.013594 171.442802c-1.2153162 0-2.2027239-.97315-2.2027239-2.170918v-52.391497c0-1.197768.9874077-2.170918 2.2027239-2.170918h44.3481753c1.2153163 0 2.202724.97315 2.202724 2.170918v52.391497c0 1.197768-.9874077 2.170918-2.202724 2.170918z" fill="#f6b72c" transform="matrix(.97437006 -.22495105 .22495105 .97437006 -30.360592 19.680776)"/><path d="m93.0493813 111.967674h-22.1740877v56.733334h22.1740877c1.2153162 0 2.2027239-.973151 2.2027239-2.170919v-52.391496c0-1.197768-.9874077-2.170919-2.2027239-2.170919z" fill="#f49c53" transform="matrix(.97437006 -.22495105 .22495105 .97437006 -29.439441 22.282027)"/><path d="m92.2576012 157.08626 2.8983027-2.834983c.875543-.856414.875543-2.244014 0-3.100429-.8755429-.856414-2.2941347-.856414-3.1696777 0l-2.8983027 2.834983-2.8983028-2.834983c-.8755429-.856414-2.2941347-.856414-3.1696777 0-.875543.856415-.875543 2.244015 0 3.100429l2.8983027 2.834983-2.8983027 2.834983c-.875543.856415-.875543 2.244014 0 3.100429.8756924.856561 2.2939853.856561 3.1696777 0l2.8983028-2.834983 2.8983027 2.834983c.8756924.856561 2.2939853.856561 3.1696777 0 .875543-.856415.875543-2.244014 0-3.100429z" fill="#fff" transform="matrix(.97437006 -.22495105 .22495105 .97437006 -33.053414 24.066534)"/><g transform="matrix(.97437006 -.22495105 .22495105 .97437006 47.104572 106.021732)"><path d="m35.2976322 29.8074826c-.8471468.8702957-2.273623.8702957-3.1209183 0l-.6689487-.609207v7.7892916c0 3.6115821-2.9871583 6.5272177-6.6880006 6.5272177h-18.13176403c-1.24857539 0-2.22933352.9571803-2.22933352 2.1757393v8.9930555c0 1.218269-.98075813 2.1757393-2.22933353 2.1757393-1.24857539 0-2.22933352-.9574703-2.22933352-2.1757393v-8.9930555c0-3.6118722 2.9871583-6.5272177 6.68800057-6.5272177h18.13191263c1.2485754 0 2.2293336-.9574704 2.2293336-2.1757393v-7.7892916l-.6689487.609207c-.8471468.8702957-2.273623.8702957-3.1209183 0-.8917334-.8267809-.8917334-2.219254 0-3.0460349l4.458667-4.3514785c.8471468-.8701507 2.273623-.8701507 3.1209183 0l4.4586671 4.3514785c.891882.8267809.891882 2.219254 0 3.0460349z" fill="#fff"/><path d="m24.8199132 4.35147849h-2.6307621c-.8914362-2.52400257-3.536912-4.35147849-6.4351942-4.35147849s-5.543758 1.82747592-6.43519415 4.35147849h-2.63076218c-3.70084227 0-6.68800057 2.91534555-6.68800057 6.52721771 0 3.6115821 2.9871583 6.5272178 6.68800057 6.5272178h18.13191263c3.7008423 0 6.6880006-2.9156357 6.6880006-6.5272178 0-3.61187216-2.9871583-6.52721771-6.6880006-6.52721771z" fill="#ffde3f"/></g><path d="m59.0199878 132.693466 2.8983028-2.834983c.8755429-.856414.8755429-2.244014 0-3.100429-.875543-.856414-2.2941348-.856414-3.1696777 0l-2.8983028 2.834983-2.8983027-2.834983c-.875543-.856414-2.2941348-.856414-3.1696777 0-.875543.856415-.875543 2.244015 0 3.100429l2.8983027 2.834983-2.8983027 2.834983c-.875543.856415-.875543 2.244014 0 3.100429.8756924.856561 2.2939853.856561 3.1696777 0l2.8983027-2.834983 2.8983028 2.834983c.8756924.856561 2.2939853.856561 3.1696777 0 .8755429-.856415.8755429-2.244014 0-3.100429z" fill="#fff" transform="matrix(.97437006 -.22495105 .22495105 .97437006 -28.418108 15.964512)"/><g transform="matrix(.97437006 -.22495105 .22495105 .97437006 61.847214 102.618125)"><path d="m19.775563 29.7712425c-.8507287.8692376-2.2832365.8692376-3.1341145 0l-.6717773-.6084663v7.7798213c0 3.6071911-2.999789 6.5192819-6.71627961 6.5192819h-9.10429018v-4.3461879h9.10429018c1.25385481 0 2.23875991-.9563062 2.23875991-2.173094v-7.7798213l-.6717772.6084663c-.8507288.8692376-2.28323662.8692376-3.13411462 0-.89550396-.8257757-.89550396-2.2165558 0-3.0423315l4.47751972-4.346188c.8507288-.8690927 2.2832366-.8690927 3.1341146 0l4.4775198 4.346188c.8958024.8257757.8958024 2.2165558.0001492 3.0423315z" fill="#fff"/><path d="m15.9698205 10.8654699c0 3.6071911-2.999789 6.5192819-6.71627966 6.5192819h-9.10429018v-17.3847518c2.9105371 0 5.56719882 1.82525406 6.46240427 4.34618794h2.64188591c3.71649066 0 6.71627966 2.91180105 6.71627966 6.51928196z" fill="#f6b72c"/></g><path d="m62.8787808 169.71495c-3.7081146 0-6.7246376-2.950645-6.7246376-6.577778 0-3.627132 3.016523-6.577777 6.7246376-6.577777 3.7081147 0 6.7246377 2.950645 6.7246377 6.577777 0 3.627133-3.016523 6.577778-6.7246377 6.577778z" fill="#fff" transform="matrix(.97437006 -.22495105 .22495105 .97437006 -35.0863 18.325843)"/><path d="m213.435579 42.3934882-8.138023 51.381451c-.559747 3.5341071-3.948851 5.9219872-7.587822 5.3456308l-44.133544-6.9900666c-3.638971-.5763564-6.124305-3.8946561-5.564557-7.4287631l8.138022-51.381451c.559792-3.5343909 3.948851-5.9219872 7.587823-5.3456308l44.133543 6.9900666c3.638972.5763564 6.12435 3.8943722 5.564558 7.4287631z" fill="#f49c53"/><path d="m208.712269 39.7063286v52.0219273c0 3.5781601-2.930733 6.4668141-6.561669 6.4668141h-22.018042v-64.9555555h22.018042c3.630936 0 6.561669 2.8883666 6.561669 6.4668141z" fill="#f16661" transform="matrix(.98768834 .15643447 -.15643447 .98768834 12.674112 -29.605277)"/><path d="m153.969878 88.0305008c-1.200354-.1901173-2.02337-1.3057512-1.835998-2.4887727l8.195836-51.7464703c.187372-1.1830215 1.314857-1.9897262 2.515211-1.7996088l43.802175 6.937583c1.200354.1901174 2.023371 1.3057512 1.835999 2.4887727l-8.195836 51.7464704c-.187372 1.1830215-1.314858 1.9897261-2.515211 1.7996088z" fill="#f6b72c"/><path d="m202.332518 37.0218865h-22.174087v56.7333333h22.174087c1.215317 0 2.202724-.9731503 2.202724-2.1709183v-52.3914966c0-1.1977681-.987407-2.1709184-2.202724-2.1709184z" fill="#f49c53" transform="matrix(.98768834 .15643447 -.15643447 .98768834 12.597132 -29.284633)"/><path d="m194.787662 83.67322 2.419131 3.2534739c.730791.982836.513722 2.3533518-.485014 3.0622576-.998907.7090268-2.399738.4871569-3.130654-.4958468l-2.419131-3.253474-3.306108 2.3466851c-.998907.7090268-2.399739.4871569-3.130654-.4958468-.730791-.982836-.513723-2.3533519.485014-3.0622576l3.306109-2.3466851-2.419131-3.253474c-.730791-.9828359-.513723-2.3533518.485014-3.0622576.998736-.7089058 2.399863-.4869891 3.130654.4958469l2.41913 3.2534739 3.306109-2.3466851c.998737-.7089057 2.399863-.4869891 3.130654.4958469s.513722 2.3533518-.485014 3.0622576z" fill="#fff"/><g transform="matrix(.98768834 .15643447 -.15643447 .98768834 171.859843 20.10393)"><path d="m35.2976322 29.8074826c-.8471468.8702957-2.273623.8702957-3.1209183 0l-.6689487-.609207v7.7892916c0 3.6115821-2.9871583 6.5272177-6.6880006 6.5272177h-18.13176403c-1.24857539 0-2.22933352.9571803-2.22933352 2.1757393v8.9930555c0 1.218269-.98075813 2.1757393-2.22933353 2.1757393-1.24857539 0-2.22933352-.9574703-2.22933352-2.1757393v-8.9930555c0-3.6118722 2.9871583-6.5272177 6.68800057-6.5272177h18.13191263c1.2485754 0 2.2293336-.9574704 2.2293336-2.1757393v-7.7892916l-.6689487.609207c-.8471468.8702957-2.273623.8702957-3.1209183 0-.8917334-.8267809-.8917334-2.219254 0-3.0460349l4.458667-4.3514785c.8471468-.8701507 2.273623-.8701507 3.1209183 0l4.4586671 4.3514785c.891882.8267809.891882 2.219254 0 3.0460349z" fill="#fff"/><path d="m24.8199132 4.35147849h-2.6307621c-.8914362-2.52400257-3.536912-4.35147849-6.4351942-4.35147849s-5.543758 1.82747592-6.43519415 4.35147849h-2.63076218c-3.70084227 0-6.68800057 2.91534555-6.68800057 6.52721771 0 3.6115821 2.9871583 6.5272178 6.68800057 6.5272178h18.13191263c3.7008423 0 6.6880006-2.9156357 6.6880006-6.5272178 0-3.61187216-2.9871583-6.52721771-6.6880006-6.52721771z" fill="#ffde3f"/></g><path d="m173.107985 48.6055861 2.419131 3.2534739c.730791.982836.513722 2.3533518-.485014 3.0622576-.998907.7090268-2.399738.4871569-3.130654-.4958468l-2.419131-3.2534739-3.306108 2.346685c-.998907.7090268-2.399739.4871569-3.130654-.4958468-.730791-.982836-.513723-2.3533518.485014-3.0622576l3.306109-2.3466851-2.419131-3.2534739c-.730791-.982836-.513723-2.3533519.485014-3.0622576.998736-.7089058 2.399863-.4869892 3.130654.4958468l2.41913 3.2534739 3.306109-2.346685c.998737-.7089058 2.399863-.4869892 3.130654.4958468s.513722 2.3533518-.485014 3.0622576z" fill="#fff"/><g transform="matrix(.98768834 .15643447 -.15643447 .98768834 186.803997 22.470852)"><path d="m19.775563 29.7712425c-.8507287.8692376-2.2832365.8692376-3.1341145 0l-.6717773-.6084663v7.7798213c0 3.6071911-2.999789 6.5192819-6.71627961 6.5192819h-9.10429018v-4.3461879h9.10429018c1.25385481 0 2.23875991-.9563062 2.23875991-2.173094v-7.7798213l-.6717772.6084663c-.8507288.8692376-2.28323662.8692376-3.13411462 0-.89550396-.8257757-.89550396-2.2165558 0-3.0423315l4.47751972-4.346188c.8507288-.8690927 2.2832366-.8690927 3.1341146 0l4.4775198 4.346188c.8958024.8257757.8958024 2.2165558.0001492 3.0423315z" fill="#fff"/><path d="m15.9698205 10.8654699c0 3.6071911-2.999789 6.5192819-6.71627966 6.5192819h-9.10429018v-17.3847518c2.9105371 0 5.56719882 1.82525406 6.46240427 4.34618794h2.64188591c3.71649066 0 6.71627966 2.91180105 6.71627966 6.51928196z" fill="#f6b72c"/></g><path d="m164.060624 85.4663613c-3.662462-.5800769-6.180264-3.9662827-5.612855-7.5487595.567408-3.5824768 4.008375-6.0249063 7.670837-5.4448293 3.662462.5800769 6.180264 3.9662827 5.612855 7.5487595-.567408 3.5824768-4.008376 6.0249062-7.670837 5.4448293z" fill="#fff"/></g><path d="m84 220.5676-24.528 26h108.528l-28-26z" fill="#caf5ff"/><path d="m86.5 218.5676h27l-29 28h-24.5z" fill="#46c4d1" opacity=".805"/><path d="m84 220.568h55.5v-27h-55.5z" fill="#caf5ff"/><path d="m111.4961 220.5676h27.504v-27z" fill="#46c4d1" opacity=".805"/><g fill-opacity=".5"><path d="m0 139.568h224v-53h-224z" fill="#caf5ff"/><path d="m113 87.5676v52h55z" fill="#46c4d1"/><path d="m1 87.5676v52h54.992z" fill="#46c4d1"/><g fill="#90edfc"><path d="m112 86.5676h-55-2-55l55.992 53 .008-.009.008.009z"/><path d="m223 139.5676h-55-2-53l55 54.5-1-1.509 1 1.509z"/><path d="m113 139.5676h-57-2-53l57 54z"/><path d="m224 86.5676h-55-2-55l55.992 53 .008-.009.008.009z"/></g><path d="m58 193.5676h110l-55-54z" fill="#caf5ff"/></g><path d="m139 193.5676h-27.009-.982-27.009l27.496 27h.008z" fill="#90edfc"/><path d="m84 246.5676h27.009.982 27.009l-27.496-26.014-.004.011-.004-.014z" fill="#90edfc"/><path d="m58 193.5676-2.008-54h57.008z" fill="#46c4d1" fill-opacity=".5"/><path d="m168 194.0676-.008-54.5h57.008z" fill="#46c4d1" fill-opacity=".5"/><g fill="#ffc431"><path d="m243.505535 30.1856169c.659287.3621129.659287 1.2654165 0 1.6285189-2.689564 1.4781331-4.631131 4.6372223-5.660384 6.669408-.349804.6886083-1.339742.6886083-1.689546 0-1.030261-2.0321857-2.97082-5.1912749-5.660384-6.669408-.660295-.3631024-.660295-1.266406 0-1.6285189 2.689564-1.4781332 4.630123-4.6372223 5.660384-6.6684187.349804-.6895976 1.339742-.6895976 1.689546 0 1.029253 2.0311964 2.97082 5.1902855 5.660384 6.6684187z"/><path d="m198.505535 7.18561689c.659287.36211295.659287 1.26541655 0 1.62851887-2.689564 1.47813314-4.631131 4.63722234-5.660384 6.66940804-.349804.6886083-1.339742.6886083-1.689546 0-1.030261-2.0321857-2.97082-5.1912749-5.660384-6.66940804-.660295-.36310232-.660295-1.26640592 0-1.62851887 2.689564-1.47813316 4.630123-4.63722231 5.660384-6.66841869.349804-.6895976 1.339742-.6895976 1.689546 0 1.029253 2.03119638 2.97082 5.19028553 5.660384 6.66841869z" opacity=".684"/><path d="m138.505535 17.1856169c.659287.3621129.659287 1.2654165 0 1.6285189-2.689564 1.4781331-4.631131 4.6372223-5.660384 6.669408-.349804.6886083-1.339742.6886083-1.689546 0-1.030261-2.0321857-2.97082-5.1912749-5.660384-6.669408-.660295-.3631024-.660295-1.266406 0-1.6285189 2.689564-1.4781332 4.630123-4.6372223 5.660384-6.6684187.349804-.6895976 1.339742-.6895976 1.689546 0 1.029253 2.0311964 2.97082 5.1902855 5.660384 6.6684187z" opacity=".684"/><path d="m73.5055355 10.1856169c.659286.3621129.659286 1.2654165 0 1.6285189-2.6895646 1.4781331-4.6311318 4.6372223-5.6603842 6.669408-.3498047.6886083-1.3397419.6886083-1.6895465 0-1.0302605-2.0321857-2.9708196-5.1912749-5.6603842-6.669408-.6602941-.3631024-.6602941-1.266406 0-1.6285189 2.6895646-1.47813317 4.6301237-4.63722232 5.6603842-6.6684187.3498046-.6895976 1.3397418-.6895976 1.6895465 0 1.0292524 2.03119638 2.9708196 5.19028553 5.6603842 6.6684187z"/><path d="m18.5055355 17.1856169c.659286.3621129.659286 1.2654165 0 1.6285189-2.6895646 1.4781331-4.6311318 4.6372223-5.6603842 6.669408-.3498047.6886083-1.3397419.6886083-1.6895465 0-1.0302605-2.0321857-2.97081965-5.1912749-5.66038419-6.669408-.66029415-.3631024-.66029415-1.266406 0-1.6285189 2.68956454-1.4781332 4.63012369-4.6372223 5.66038419-6.6684187.3498046-.6895976 1.3397418-.6895976 1.6895465 0 1.0292524 2.0311964 2.9708196 5.1902855 5.6603842 6.6684187z" opacity=".684"/></g></g><g fill-rule="nonzero" transform="translate(225 190)"><path d="m36.5363593 11.2175439v29.2208272c0 2.0098601-1.6820076 3.6324232-3.765876 3.6324232h-25.27321249c-2.08386842 0-3.76587603-1.6225631-3.76587603-3.6324232v-29.2208272c0-2.01002164 1.68200761-3.63242332 3.76587603-3.63242332h25.27321249c2.0838684 0 3.765876 1.62240168 3.765876 3.63242332z" fill="#f49c53" transform="matrix(.92050485 -.39073112 .39073112 .92050485 45.91564 19.057641)"/><path d="m35.8598668 9.4650482v29.2208272c0 2.0098602-1.6576307 3.6324233-3.7112981 3.6324233h-12.4534671v-36.48567377h12.4534671c2.0536674 0 3.7112981 1.62240167 3.7112981 3.63242327z" fill="#f16661" transform="matrix(.92050485 -.39073112 .39073112 .92050485 46.787583 20.604247)"/><path d="m7.36052571 41.8146804c-.68738631 0-1.24586691-.5466206-1.24586691-1.2194095v-29.4284151c0-.6727888.5584806-1.21940943 1.24586691-1.21940943h25.08345379c.6873863 0 1.2458669.54662063 1.2458669 1.21940943v29.4284151c0 .6727889-.5584806 1.2194095-1.2458669 1.2194095z" fill="#f6b72c" transform="matrix(.92050485 -.39073112 .39073112 .92050485 45.889217 19.010774)"/><path d="m32.2672919 8.40737443h-12.5417269v31.86723407h12.5417269c.6873863 0 1.2458669-.5466206 1.2458669-1.2194095v-29.4284151c0-.67278885-.5584806-1.21940947-1.2458669-1.21940947z" fill="#f49c53" transform="matrix(.92050485 -.39073112 .39073112 .92050485 46.65547 20.369913)"/><path d="m31.8194588 33.7505802 1.6392883-1.5924159c.4952096-.48105.4952096-1.2604675 0-1.7415175s-1.2975692-.48105-1.7927787 0l-1.6392883 1.5924159-1.6392882-1.5924159c-.4952096-.48105-1.2975692-.48105-1.7927788 0-.4952095.48105-.4952095 1.2604675 0 1.7415175l1.6392883 1.5924159-1.6392883 1.5924159c-.4952095.48105-.4952095 1.2604676 0 1.7415176.4952942.4811321 1.2974847.4811321 1.7927788 0l1.6392882-1.5924159 1.6392883 1.5924159c.4952941.4811321 1.2974846.4811321 1.7927787 0 .4952096-.48105.4952096-1.2604676 0-1.7415176z" fill="#fff" transform="matrix(.92050485 -.39073112 .39073112 .92050485 44.831902 21.714649)"/><g transform="matrix(.92050485 -.39073112 .39073112 .92050485 57.320729 16.937233)"><path d="m19.9644409 16.7429264c-.4791486.488847-1.2859676.488847-1.7652003 0l-.3783592-.3421928v4.3752616c0 2.0286333-1.6895452 3.6663521-3.7827521 3.6663521h-10.2553772c-.70619779 0-1.26091737.5376502-1.26091737 1.2221174v5.0514184c0 .6843042-.55471958 1.2221174-1.26091736 1.2221174-.70619779 0-1.26091737-.5378132-1.26091737-1.2221174v-5.0514184c0-2.0287963 1.68954521-3.6663521 3.7827521-3.6663521h10.2554612c.7061978 0 1.2609174-.5378132 1.2609174-1.2221174v-4.3752616l-.3783593.3421928c-.4791486.488847-1.2859676.488847-1.7652002 0-.504367-.4644046-.504367-1.2465597 0-1.7109643l2.5218347-2.4442347c.4791486-.4887655 1.2859676-.4887655 1.7652003 0l2.5218347 2.4442347c.504451.4644046.504451 1.2465597 0 1.7109643z" fill="#fff"/><path d="m14.0382133 2.44423473h-1.4879665c-.5041988-1.41773762-2.0004874-2.44423473-3.63976408-2.44423473-1.63927664 0-3.13556525 1.02649711-3.63976407 2.44423473h-1.48796655c-2.09320689 0-3.7827521 1.63755579-3.7827521 3.66635209 0 2.02863335 1.68954521 3.6663521 3.7827521 3.6663521h10.2554612c2.0932069 0 3.7827521-1.63771875 3.7827521-3.6663521 0-2.0287963-1.6895452-3.66635209-3.7827521-3.66635209z" fill="#ffde3f"/></g><path d="m13.0201704 20.0490959 1.6392883-1.5924159c.4952096-.48105.4952096-1.2604675 0-1.7415175s-1.2975691-.48105-1.7927787 0l-1.6392883 1.5924159-1.63928823-1.5924159c-.49520959-.48105-1.29756913-.48105-1.79277871 0-.49520959.48105-.49520959 1.2604675 0 1.7415175l1.63928825 1.5924159-1.63928825 1.5924159c-.49520959.48105-.49520959 1.2604676 0 1.7415176.4952941.4811321 1.2974846.4811321 1.79277871 0l1.63928823-1.5924159 1.6392883 1.5924159c.4952941.4811321 1.2974846.4811321 1.7927787 0 .4952096-.48105.4952096-1.2604676 0-1.7415176z" fill="#fff" transform="matrix(.92050485 -.39073112 .39073112 .92050485 46.597412 16.752599)"/><g transform="matrix(.92050485 -.39073112 .39073112 .92050485 65.193353 13.601029)"><path d="m11.1851146 16.7225703c-.4811746.4882526-1.29140513.4882526-1.77266415 0l-.37995909-.3417768v4.3699421c0 2.026167-1.69668917 3.6618945-3.79874682 3.6618945h-5.14941236v-2.441263h5.14941236c.70918382 0 1.26624894-.5371592 1.26624894-1.2206315v-4.3699421l-.3799591.3417768c-.4811746.4882526-1.29140509.4882526-1.7726641 0-.50649958-.46384-.50649958-1.2450442 0-1.7088841l2.53249788-2.441263c.48117459-.4881713 1.29140508-.4881713 1.7726641 0l2.53249784 2.441263c.5066684.4638399.5066684 1.2450441.0000845 1.7088841z" fill="#fff"/><path d="m9.03257577 6.10315754c0 2.02616692-1.69668916 3.66189452-3.79874682 3.66189452h-5.14941235v-9.76505206c1.64620803 0 3.14882344 1.02524909 3.65515419 2.44126301h1.49425816c2.10205766 0 3.79874682 1.63556485 3.79874682 3.66189453z" fill="#f6b72c"/></g><path d="m15.2027147 40.8441422c-2.0973202 0-3.8034742-1.6573835-3.8034742-3.6947517 0-2.0373683 1.706154-3.6947518 3.8034742-3.6947518s3.8034741 1.6573835 3.8034741 3.6947518c0 2.0373682-1.7061539 3.6947517-3.8034741 3.6947517z" fill="#fff" transform="matrix(.92050485 -.39073112 .39073112 .92050485 43.140861 18.715171)"/><path d="m44.3312651 13.0150951v36.526034c0 2.5123252-2.0880094 4.5405291-4.6748806 4.5405291h-31.37364305c-2.58687115 0-4.67488059-2.0282039-4.67488059-4.5405291v-36.526034c0-2.512527 2.08800944-4.54052907 4.67488059-4.54052907h31.37364305c2.5868712 0 4.6748806 2.02800207 4.6748806 4.54052907z" fill="#f49c53" transform="matrix(.99984769 .0174524 -.0174524 .99984769 5.030409 3.778243)"/><path d="m43.6211774 11.4917042v36.526034c0 2.5123252-2.0577485 4.5405291-4.6071287 4.5405291h-15.4594763v-45.60709221h15.4594763c2.5493802 0 4.6071287 2.02800209 4.6071287 4.54052911z" fill="#f16661" transform="matrix(.99984769 .0174524 -.0174524 .99984769 5.123698 5.303495)"/><path d="m8.10905872 51.2412968c-.85330713 0-1.5465934-.6832758-1.5465934-1.5242619v-36.7855188c0-.8409861.69328627-1.5242619 1.5465934-1.5242619h31.13808058c.8533071 0 1.5465934.6832758 1.5465934 1.5242619v36.7855188c0 .8409861-.6932863 1.5242619-1.5465934 1.5242619z" fill="#f6b72c" transform="matrix(.99984769 .0174524 -.0174524 .99984769 5.027582 3.732024)"/><path d="m39.1417783 10.0685167h-15.5690402v39.8340426h15.5690402c.8533072 0 1.5465934-.6832758 1.5465934-1.5242619v-36.7855188c0-.8409861-.6932862-1.5242619-1.5465934-1.5242619z" fill="#f49c53" transform="matrix(.99984769 .0174524 -.0174524 .99984769 5.109563 5.072396)"/><path d="m37.7550667 42.0139264 2.0349786-1.9905198c.6147429-.6013125.6147429-1.5755845 0-2.176897-.614743-.6013125-1.6107755-.6013125-2.2255184 0l-2.0349786 1.9905198-2.0349785-1.9905198c-.6147429-.6013125-1.6107754-.6013125-2.2255184 0-.6147429.6013125-.6147429 1.5755845 0 2.176897l2.0349785 1.9905198-2.0349785 1.9905199c-.6147429.6013125-.6147429 1.5755845 0 2.176897.6148479.6014151 1.6106706.6014151 2.2255184 0l2.0349785-1.9905199 2.0349786 1.9905199c.6148478.6014151 1.6106705.6014151 2.2255184 0 .6147429-.6013125.6147429-1.5755845 0-2.176897z" fill="#fff" transform="matrix(.99984769 .0174524 -.0174524 .99984769 3.179654 5.422397)"/><g transform="matrix(.99984769 .0174524 -.0174524 .99984769 18.042318 6.129902)"><path d="m24.7834439 20.928658c-.5948052.6110587-1.5963736.6110587-2.1912831 0l-.4696874-.4277411v5.4690771c0 2.5357917-2.0973664 4.5829401-4.6958302 4.5829401h-12.73081301c-.87665932 0-1.56527673.6720627-1.56527673 1.5276467v6.3142731c0 .8553803-.68861741 1.5276467-1.56527673 1.5276467s-1.56527673-.6722664-1.56527673-1.5276467v-6.3142731c0-2.5359954 2.09736647-4.5829401 4.69583019-4.5829401h12.73091741c.8766593 0 1.5652767-.6722664 1.5652767-1.5276467v-5.4690771l-.4696874.4277411c-.5948051.6110587-1.5963735.6110587-2.191283 0-.6261107-.5805057-.6261107-1.5581996 0-2.1387054l3.1305534-3.0552934c.5948052-.6109568 1.5963736-.6109568 2.1912831 0l3.1305535 3.0552934c.626215.5805058.626215 1.5581997 0 2.1387054z" fill="#fff"/><path d="m17.4267476 3.05529341h-1.8471309c-.625902-1.77217202-2.4833637-3.05529341-4.5183278-3.05529341-2.03496411 0-3.89242583 1.28312139-4.51832782 3.05529341h-1.84713089c-2.59846372 0-4.69583019 2.04694474-4.69583019 4.58294012 0 2.53579167 2.09736647 4.58294007 4.69583019 4.58294007h12.73091741c2.5984637 0 4.6958302-2.0471484 4.6958302-4.58294007 0-2.53599538-2.0973665-4.58294012-4.6958302-4.58294012z" fill="#ffde3f"/></g><path d="m15.669576 23.3008811 2.0349785-1.9905199c.6147429-.6013125.6147429-1.5755845 0-2.176897s-1.6107755-.6013125-2.2255184 0l-2.0349785 1.9905199-2.0349785-1.9905199c-.614743-.6013125-1.61077549-.6013125-2.22551842 0s-.61474293 1.5755845 0 2.176897l2.03497852 1.9905199-2.03497852 1.9905198c-.61474293.6013125-.61474293 1.5755845 0 2.176897.61484785.6014151 1.61067052.6014151 2.22551842 0l2.0349785-1.9905199 2.0349785 1.9905199c.6148479.6014151 1.6106706.6014151 2.2255184 0 .6147429-.6013125.6147429-1.5755845 0-2.176897z" fill="#fff" transform="matrix(.99984769 .0174524 -.0174524 .99984769 6.434716 2.254181)"/><g transform="matrix(.99984769 .0174524 -.0174524 .99984769 28.664197 6.315308)"><path d="m13.8849698 20.9032128c-.5973202.6103158-1.6031236.6103158-2.2005485 0l-.4716734-.427221v5.4624277c0 2.5327087-2.10623483 4.5773682-4.71568572 4.5773682h-6.39237396v-3.0515788h6.39237396c.88036613 0 1.57189524-.671449 1.57189524-1.5257894v-5.4624277l-.47167337.427221c-.59732019.6103158-1.60312355.6103158-2.20054853 0-.6287581-.5797999-.6287581-1.5563051 0-2.1361051l3.14379047-3.0515788c.59732019-.610214 1.60312351-.610214 2.20054851 0l3.1437905 3.0515788c.6289677.5798.6289677 1.5563052.0001048 2.1361051z" fill="#fff"/><path d="m11.2128527 7.62894692c0 2.53270868-2.10623484 4.57736818-4.71568572 4.57736818h-6.39237396v-12.2063151c2.0435686 0 3.90888428 1.28156136 4.53743278 3.05157877h1.85494118c2.60945088 0 4.71568572 2.04445605 4.71568572 4.57736815z" fill="#f6b72c"/></g><path d="m16.8758525 49.5868598c-2.6035698 0-4.7215541-2.0717294-4.7215541-4.6184397s2.1179843-4.6184397 4.7215541-4.6184397c2.6035699 0 4.7215542 2.0717294 4.7215542 4.6184397s-2.1179843 4.6184397-4.7215542 4.6184397z" fill="#fff" transform="matrix(.99984769 .0174524 -.0174524 .99984769 2.99873 2.464335)"/></g></g></svg>