<svg height="250" viewBox="0 0 350 250" width="350" xmlns="http://www.w3.org/2000/svg"><g fill="none" fill-rule="evenodd" transform="translate(-1608 -728)"><g transform="translate(1645 732)"><g transform="matrix(.9998477 .01745241 -.01745241 .9998477 87.448549 31)"><path d="m35.2272727 42.4277301v-.1826158c0-2.2339995-1.820522-4.0601572-4.0460086-4.0601572h-.1812641c2.3243028 0 4.2260603 1.9052912 4.2272727 4.242773" fill="#eb922f"/><path d="m30.4148792 37.8622376c-2.7496467 0-4.999698 2.2466868-4.999698 4.9951337v39.2121744c1.8470794.2321577 3.7278647.351981 5.6363636.351981v-44.5592891z" fill="#f6b72c"/><path d="m36.6363636 80.6126872h.0014091v-36.7706994h-.0014091z" fill="#d56f2d"/><path d="m36.6363636 43.4047595c-.001498-2.8757592-2.3511688-5.2198024-5.2229054-5.2198024h-.4134582v44.5592891c1.909248 0 3.7900332-.1198233 5.6363636-.351981z" fill="#ea5a7d"/><path d="m31 0c3.8910894 0 7.0454545 8.54762024 7.0454545 19.0924785 0 10.5448583-3.1543651 19.0924786-7.0454545 19.0924786s-7.0454545-8.5476203-7.0454545-19.0924786c0-10.54485826 3.1543651-19.0924785 7.0454545-19.0924785" fill="#9b59b6"/><path d="m31 0v38.1849571c3.8910894 0 7.0454545-8.5476203 7.0454545-19.0924786 0-10.54485826-3.1543651-19.0924785-7.0454545-19.0924785" fill="#722f8e"/><path d="m61.7574551 50.0018441c-1.599605 3.6617819-10.6733469 2.9177545-20.2674843-1.6558258-9.5941375-4.5735802-16.074284-11.2479438-14.474679-14.9097257 1.5989065-3.6544876 10.6733469-2.9177546 20.2674843 1.6558257 9.593439 4.5735802 16.074284 11.2479438 14.474679 14.9097258" fill="#722f8e"/><path d="m34.9847339 33.4390224c1.5995654 3.6612528-4.8811193 10.3346519-14.4743208 14.9075713-9.5938999 4.5729194-18.66811578 5.3168393-20.2676812 1.6555864-1.60026391-3.6612528 4.88042076-10.3346519 14.4736222-14.9075713 9.5939-4.5729194 18.6681158-5.3168393 20.2683798-1.6555864" fill="#9b59b6"/><path d="m31.7045455 26.8708957c5.0585186 0 9.1590909 4.119276 9.1590909 9.1891541 0 5.0769196-4.1005723 9.1961956-9.1590909 9.1961956-5.0578169 0-9.159091-4.119276-9.159091-9.1961956 0-5.0698781 4.1012741-9.1891541 9.159091-9.1891541" fill="#f8da49"/><path d="m40.8636364 36.0670913c0 5.0698781-4.4160009 9.1891541-9.8636364 9.1891541v-18.3853497c5.4476355 0 9.8636364 4.119276 9.8636364 9.1961956" fill="#ebaf34"/><path d="m31.7041898 29.6994111c3.5020623 0 6.3412647 2.848345 6.3412647 6.3605901 0 3.5193838-2.8392024 6.3677289-6.3412647 6.3677289-3.5020622 0-6.3405534-2.8483451-6.3405534-6.3677289 0-3.5122451 2.8384912-6.3605901 6.3405534-6.3605901" fill="#fffffe"/><path d="m36.6363636 36.0671399c0 3.5122451-2.5226125 6.3605902-5.6363636 6.3605902v-12.728319c3.1137511 0 5.6363636 2.848345 5.6363636 6.3677288" fill="#dededb"/><path d="m31.7041892 31.1136687c2.7240253 0 4.9321744 2.2158406 4.9321744 4.9463279 0 2.7376353-2.2081491 4.9534758-4.9321744 4.9534758-2.7233127 0-4.9314619-2.2158405-4.9314619-4.9534758 0-2.7304873 2.2081492-4.9463279 4.9314619-4.9463279" fill="#32ac71"/><path d="m35.2272727 36.0671445c0 2.7304874-1.8922252 4.9463279-4.2272727 4.9463279v-9.8998037c2.3350475 0 4.2272727 2.2158406 4.2272727 4.9534758" fill="#029c4e"/></g><g transform="matrix(.94551858 -.32556815 .32556815 .94551858 41 109.185225)"><path d="m35.2272727 44.4277301v-.1826158c0-2.2339995-1.820522-4.0601572-4.0460086-4.0601572h-.1812641c2.3243028 0 4.2260603 1.9052912 4.2272727 4.242773" fill="#eb922f"/><path d="m30.4148792 39.8622376c-2.7496467 0-4.999698 2.2466868-4.999698 4.9951337v39.2121744c1.8470794.2321577 3.7278647.351981 5.6363636.351981v-44.5592891z" fill="#f6b72c"/><path d="m36.6363636 82.6126872h.0014091v-36.7706994h-.0014091z" fill="#d56f2d"/><path d="m36.6363636 45.4047595c-.001498-2.8757592-2.3511688-5.2198024-5.2229054-5.2198024h-.4134582v44.5592891c1.909248 0 3.7900332-.1198233 5.6363636-.351981z" fill="#ea5a7d"/><path d="m31 2c3.8910894 0 7.0454545 8.5476202 7.0454545 19.0924785s-3.1543651 19.0924786-7.0454545 19.0924786-7.0454545-8.5476203-7.0454545-19.0924786 3.1543651-19.0924785 7.0454545-19.0924785" fill="#9b59b6"/><path d="m31 2v38.1849571c3.8910894 0 7.0454545-8.5476203 7.0454545-19.0924786s-3.1543651-19.0924785-7.0454545-19.0924785" fill="#722f8e"/><path d="m61.7574551 52.0018441c-1.599605 3.6617819-10.6733469 2.9177545-20.2674843-1.6558258-9.5941375-4.5735802-16.074284-11.2479438-14.474679-14.9097257 1.5989065-3.6544876 10.6733469-2.9177546 20.2674843 1.6558257 9.593439 4.5735802 16.074284 11.2479438 14.474679 14.9097258" fill="#722f8e"/><path d="m34.9847339 35.4390224c1.5995654 3.6612528-4.8811193 10.3346519-14.4743208 14.9075713-9.5938999 4.5729194-18.66811578 5.3168393-20.2676812 1.6555864-1.60026391-3.6612528 4.88042076-10.3346519 14.4736222-14.9075713 9.5939-4.5729194 18.6681158-5.3168393 20.2683798-1.6555864" fill="#9b59b6"/><path d="m31.7045455 28.8708957c5.0585186 0 9.1590909 4.119276 9.1590909 9.1891541 0 5.0769196-4.1005723 9.1961956-9.1590909 9.1961956-5.0578169 0-9.159091-4.119276-9.159091-9.1961956 0-5.0698781 4.1012741-9.1891541 9.159091-9.1891541" fill="#f8da49"/><path d="m40.8636364 38.0670913c0 5.0698781-4.4160009 9.1891541-9.8636364 9.1891541v-18.3853497c5.4476355 0 9.8636364 4.119276 9.8636364 9.1961956" fill="#ebaf34"/><path d="m31.7041898 31.6994111c3.5020623 0 6.3412647 2.848345 6.3412647 6.3605901 0 3.5193838-2.8392024 6.3677289-6.3412647 6.3677289-3.5020622 0-6.3405534-2.8483451-6.3405534-6.3677289 0-3.5122451 2.8384912-6.3605901 6.3405534-6.3605901" fill="#fffffe"/><path d="m36.6363636 38.0671399c0 3.5122451-2.5226125 6.3605902-5.6363636 6.3605902v-12.728319c3.1137511 0 5.6363636 2.848345 5.6363636 6.3677288" fill="#dededb"/><path d="m31.7041892 33.1136687c2.7240253 0 4.9321744 2.2158406 4.9321744 4.9463279 0 2.7376353-2.2081491 4.9534758-4.9321744 4.9534758-2.7233127 0-4.9314619-2.2158405-4.9314619-4.9534758 0-2.7304873 2.2081492-4.9463279 4.9314619-4.9463279" fill="#32ac71"/><path d="m35.2272727 38.0671445c0 2.7304874-1.8922252 4.9463279-4.2272727 4.9463279v-9.8998037c2.3350475 0 4.2272727 2.2158406 4.2272727 4.9534758l25.0655749-37.12864237" fill="#029c4e"/></g><g transform="matrix(.93358043 -.35836795 .35836795 .93358043 0 40.918397)"><path d="m25.7026547.03551567c-.2824678-.01937218-.4709927-.0245381-.8371784-.03551567-.3661857.01097757-.5860249.01614349-.8684927.03551567-13.6817955.93567645-23.9969836 12.22191043-23.9969836 25.91158663 0 16.6884902 14.605248 22.6028178 14.605248 29.1312436v.0303498h21.0898657v-.0303498c0-6.5284258 14.3048863-12.4279013 14.3048863-29.1163915 0-13.6896763-10.6149107-24.99076228-24.2973453-25.92643873" fill="#f6b72c"/><path d="m32.1617297.84782609c6.3822817 5.30554211 10.2153024 13.05270571 10.2153024 21.65427331 0 18.577242-17.3770321 25.1274554-17.3770321 32.3941392v.2124571h10.0736418v-.0307246c0-6.6090477 14.0930249-12.5807242 14.0930249-29.4759603 0-11.3595867-7.0987695-21.09534795-17.004937-24.75418471" fill="#f49c53"/><g fill="#71716e"><path d="m35.402604 63.5869565h-21.6378988c-2.0792944 0-3.7647052-1.7081702-3.7647052-3.8148918 0-2.1073727 1.6854108-3.815543 3.7647052-3.815543h21.6378988c2.0786519 0 3.7640627 1.7081703 3.7640627 3.815543 0 2.1067216-1.6854108 3.8148918-3.7640627 3.8148918"/><path d="m33.908016 72.9130435h-16.9826987c-1.9841928 0-3.591984-1.7083986-3.591984-3.8152174 0-2.1075058 1.6077912-3.8152174 3.591984-3.8152174h16.9826987c1.9835461 0 3.591984 1.7077116 3.591984 3.8152174 0 2.1068188-1.6084379 3.8152174-3.591984 3.8152174"/><path d="m19.512929 74.6086957c-.2758108 0-.4414293.2731724-.287028.474693 1.3374845 1.7407544 3.6099544 2.9166113 6.190567 2.9166113 2.5812725 0 4.8537425-1.1758569 6.1905671-2.9166113.1550611-.2015206-.0105573-.474693-.2863681-.474693z"/></g><path d="m11.1420339 24.5869565c-.94025 0-1.82153398-.2565952-2.5662991-.797278-2.57911773-1.8727523-2.54002077-6.4502277.08716701-10.2251884 1.86896309-2.6837765 4.54422089-4.23840314 6.86119669-4.23840314.9408908 0 1.8228158.25659521 2.5675809.79727794 1.5343956 1.1147492 2.1413599 3.1864937 1.8285842 5.4775224-1.3690346.6761808-2.624624 1.5860465-3.7212618 2.7040685l-.0179462.0229103c-1.6786057 1.7254719-2.847028 3.8076897-3.4687338 6.0371879-.5326161.1459713-1.0601046.2219025-1.5702879.2219025" fill="#f8e494"/></g><g transform="matrix(.9781476 .20791169 -.20791169 .9781476 180.335788 29)"><path d="m30.8431856.04234561c-.3389614-.02309761-.5651912-.02925697-1.004614-.04234561-.4394228.01308864-.7032299.019248-1.0421913.04234561-16.4181546 1.11561423-28.7963803 14.57227789-28.7963803 30.89458409 0 19.8978153 17.5262976 26.9495135 17.5262976 34.7334058v.0361862h25.3078388v-.0361862c0-7.7838923 17.1658636-14.8178824 17.1658636-34.7156976 0-16.3223063-12.7378929-29.79667806-29.1568144-30.91229229" fill="#f6b72c"/><path d="m38.5940757 1.01086957c7.658738 6.32583867 12.2583628 15.56284143 12.2583628 25.81855663 0 22.1497885-20.8524385 29.9596583-20.8524385 38.6237814v.2533141h12.0883702v-.0366331c0-7.8800183 16.9116298-15.0000943 16.9116298-35.1444142 0-13.5441225-8.5185233-25.15214561-20.4059243-29.51460483" fill="#f49c53"/><g fill="#71716e"><path d="m42.4831248 75.8152174h-25.9654785c-2.4951533 0-4.5176463-2.0366645-4.5176463-4.5485248 0-2.5126368 2.022493-4.5493013 4.5176463-4.5493013h25.9654785c2.4943822 0 4.5168752 2.0366645 4.5168752 4.5493013 0 2.5118603-2.022493 4.5485248-4.5168752 4.5485248"/><path d="m40.6896192 86.9347826h-20.3792384c-2.3810314 0-4.3103808-2.0369367-4.3103808-4.548913 0-2.5127954 1.9293494-4.5489131 4.3103808-4.5489131h20.3792384c2.3802553 0 4.3103808 2.0361177 4.3103808 4.5489131 0 2.5119763-1.9301255 4.548913-4.3103808 4.548913"/><path d="m23.4155148 88.9565217c-.330973 0-.5297152.3257056-.3444336.5659802 1.6049813 2.0755149 4.3319453 3.4774981 7.4286805 3.4774981 3.0975269 0 5.8244909-1.4019832 7.4286805-3.4774981.1860733-.2402746-.0126689-.5659802-.3436418-.5659802z"/></g><path d="m13.3704406 29.3152174c-1.1282999 0-2.1858407-.3059405-3.0795588-.9506007-3.09494132-2.232897-3.04802496-7.6906561.1046004-12.1915708 2.2427556-3.1998874 5.453065-5.0534807 8.233436-5.0534807 1.129069 0 2.1873789.3059405 3.0810971.9506007 1.8412747 1.3291239 2.5696319 3.7992809 2.194301 6.5308921-1.6428416.8062155-3.1495488 1.8910553-4.4655141 3.2240816l-.0215354.0273161c-2.0143269 2.0572934-3.4164337 4.5399377-4.1624807 7.1981856-.6391392.1740427-1.2721255.2645761-1.8843455.2645761" fill="#f8e494"/></g><g transform="matrix(.90630779 -.42261826 .42261826 .90630779 117 115.285676)"><path d="m24.6745485.03369435c-.2711691-.01837873-.452153-.02327973-.8036913-.03369435-.3515382.01041462-.5625838.01531562-.8337529.03369435-13.13452375.88769305-23.0371043 11.59514585-23.0371043 24.58278735 0 15.8326702 14.0210381 21.4436989 14.0210381 27.6373336v.0287934h20.246271v-.0287934c0-6.1936347 13.7326909-11.790573 13.7326909-27.6232432 0-12.9876416-10.1903143-23.7091847-23.3254515-24.59687775" fill="#f6bf3e"/><path d="m30.8752605.80434783c6.1269904 5.03346302 9.8066903 12.38333617 9.8066903 20.54379777 0 17.6245629-16.6819508 23.8388679-16.6819508 30.7329013v.2015618h9.6706961v-.0291489c0-6.2701222 13.5293039-11.9355589 13.5293039-27.9643726 0-10.7770438-6.8148187-20.01353526-16.3247395-23.48473937" fill="#e4a530"/><g fill="#71716e"><path d="m33.9864998 60.326087h-20.7723828c-1.9961226 0-3.614117-1.6205718-3.614117-3.6192563 0-1.9993024 1.6179944-3.6198742 3.614117-3.6198742h20.7723828c1.9955058 0 3.6135002 1.6205718 3.6135002 3.6198742 0 1.9986845-1.6179944 3.6192563-3.6135002 3.6192563"/><path d="m32.5516953 69.173913h-16.3033906c-1.9048252 0-3.4483047-1.6207883-3.4483047-3.6195652 0-1.9994285 1.5434795-3.6195652 3.4483047-3.6195652h16.3033906c1.9042043 0 3.4483047 1.6201367 3.4483047 3.6195652 0 1.9987769-1.5441004 3.6195652-3.4483047 3.6195652"/><path d="m18.7324118 70.7826087c-.2647784 0-.4237721.2591636-.2755469.4503498 1.2839851 1.651485 3.4655563 2.7670415 5.9429444 2.7670415 2.4780216 0 4.6595928-1.1155565 5.9429444-2.7670415.1488587-.1911862-.010135-.4503498-.2749134-.4503498z"/></g><path d="m10.6963525 23.326087c-.90263992 0-1.74867258-.2434365-2.46364709-.756392-2.47595303-1.7767137-2.43841994-6.1194468.08368032-9.7008198 1.79420457-2.5461469 4.36245207-4.02104911 6.58674877-4.02104911.9032553 0 1.7499032.24343648 2.4648777.75639194 1.4730198 1.05758247 2.0557056 3.02308377 1.7554409 5.19662377-1.3142733.6415048-2.5196391 1.5047108-3.5724114 2.5653983l-.0172283.0217354c-1.6114615 1.6369862-2.7331469 3.6124236-3.3299845 5.7275886-.5113114.1384855-1.0177004.2105229-1.5074764.2105229" fill="#fbd880"/></g><g transform="translate(3 84)"><path d="m84 134.5676-24.528 26h108.528l-28-26z" fill="#caf5ff"/><path d="m86.5 132.5676h27l-29 28h-24.5z" fill="#46c4d1" opacity=".805"/><path d="m84 134.568h55.5v-27h-55.5z" fill="#caf5ff"/><path d="m111.4961 134.5676h27.504v-27z" fill="#46c4d1" opacity=".805"/><g fill-opacity=".5"><path d="m0 53.568h224v-53h-224z" fill="#caf5ff"/><path d="m113 1.5676v52h55z" fill="#46c4d1"/><path d="m1 1.5676v52h54.992z" fill="#46c4d1"/><g fill="#90edfc"><path d="m112 .5676h-55-2-55l55.992 53 .008-.009.008.009z"/><path d="m223 53.5676h-55-2-53l55 54.5-1-1.509 1 1.509z"/><path d="m113 53.5676h-57-2-53l57 54z"/><path d="m224 .5676h-55-2-55l55.992 53 .008-.009.008.009z"/></g><path d="m58 107.5676h110l-55-54z" fill="#caf5ff"/></g><path d="m139 107.5676h-27.009-.982-27.009l27.496 27h.008z" fill="#90edfc"/><path d="m84 160.5676h27.009.982 27.009l-27.496-26.014-.004.011-.004-.014z" fill="#90edfc"/><g fill="#46c4d1" fill-opacity=".5"><path d="m58 107.5676-2.008-54h57.008z"/><path d="m168 108.0676-.008-54.5h57.008z"/></g></g><g fill="#ffc431"><path d="m244.505535 47.1856169c.659287.3621129.659287 1.2654165 0 1.6285189-2.689564 1.4781331-4.631131 4.6372223-5.660384 6.669408-.349804.6886083-1.339742.6886083-1.689546 0-1.030261-2.0321857-2.97082-5.1912749-5.660384-6.669408-.660295-.3631024-.660295-1.266406 0-1.6285189 2.689564-1.4781332 4.630123-4.6372223 5.660384-6.6684187.349804-.6895976 1.339742-.6895976 1.689546 0 1.029253 2.0311964 2.97082 5.1902855 5.660384 6.6684187z"/><path d="m194.505535 7.18561689c.659287.36211295.659287 1.26541655 0 1.62851887-2.689564 1.47813314-4.631131 4.63722234-5.660384 6.66940804-.349804.6886083-1.339742.6886083-1.689546 0-1.030261-2.0321857-2.97082-5.1912749-5.660384-6.66940804-.660295-.36310232-.660295-1.26640592 0-1.62851887 2.689564-1.47813316 4.630123-4.63722231 5.660384-6.66841869.349804-.6895976 1.339742-.6895976 1.689546 0 1.029253 2.03119638 2.97082 5.19028553 5.660384 6.66841869z"/><path d="m134.505535 17.1856169c.659287.3621129.659287 1.2654165 0 1.6285189-2.689564 1.4781331-4.631131 4.6372223-5.660384 6.669408-.349804.6886083-1.339742.6886083-1.689546 0-1.030261-2.0321857-2.97082-5.1912749-5.660384-6.669408-.660295-.3631024-.660295-1.266406 0-1.6285189 2.689564-1.4781332 4.630123-4.6372223 5.660384-6.6684187.349804-.6895976 1.339742-.6895976 1.689546 0 1.029253 2.0311964 2.97082 5.1902855 5.660384 6.6684187z"/><path d="m74.5055355 27.1856169c.659286.3621129.659286 1.2654165 0 1.6285189-2.6895646 1.4781331-4.6311318 4.6372223-5.6603842 6.669408-.3498047.6886083-1.3397419.6886083-1.6895465 0-1.0302605-2.0321857-2.9708196-5.1912749-5.6603842-6.669408-.6602941-.3631024-.6602941-1.266406 0-1.6285189 2.6895646-1.4781332 4.6301237-4.6372223 5.6603842-6.6684187.3498046-.6895976 1.3397418-.6895976 1.6895465 0 1.0292524 2.0311964 2.9708196 5.1902855 5.6603842 6.6684187z"/><path d="m14.5055355 17.1856169c.659286.3621129.659286 1.2654165 0 1.6285189-2.6895646 1.4781331-4.6311318 4.6372223-5.6603842 6.669408-.34980468.6886083-1.33974186.6886083-1.68954654 0-1.03026048-2.0321857-2.97081961-5.1912749-5.66038415-6.669408-.66029415-.3631024-.66029415-1.266406 0-1.6285189 2.68956454-1.4781332 4.63012367-4.6372223 5.66038415-6.6684187.34980468-.6895976 1.33974186-.6895976 1.68954654 0 1.0292524 2.0311964 2.9708196 5.1902855 5.6603842 6.6684187z"/></g></g><g transform="matrix(.98768834 .15643447 -.15643447 .98768834 1877.644866 908.981385)"><path d="m42.9943297 0h-42.9943297v56h31.1556264l2.4921099-9.2306667 9.3465934-2.4593333z" fill="#fcde94"/><path d="m42.9943297 44.31-11.8387033 11.69h-15.8896813v-56h27.7283846z" fill="#f9d073"/><path d="m31.1556264 44.31v11.69l11.8387033-11.69z" fill="#a3a4a0"/><g fill="#32b3d9"><path d="m8.60756044 13.5706667c-.23957143 0-.47867033-.0933334-.66153846-.2706667l-1.86884616-1.848c-.3647912-.3593333-.3647912-.9426667 0-1.3066667.36526374-.3593333.95686814-.3593333 1.32165934 0l1.20872528 1.1946667 3.47260436-3.33666667c.3652638-.35933333.9568682-.35933333 1.3216594 0 .3652637.364.3652637.94733334 0 1.30666667l-4.13319783 3.99c-.18286813.1773333-.42243956.2706667-.66106593.2706667"/><path d="m35.5170549 21.7466667h-19.3164505c-.5155275 0-.9346593-.4106667-.9346593-.924 0-.5086667.4191318-.924.9346593-.924h19.3164505c.5169451 0 .9346594.4153333.9346594.924 0 .5133333-.4177143.924-.9346594.924"/><path d="m35.5170549 12.0306667h-19.3164505c-.5155275 0-.9346593-.4153334-.9346593-.924 0-.5086667.4191318-.924.9346593-.924h19.3164505c.5169451 0 .9346594.4153333.9346594.924 0 .5086666-.4177143.924-.9346594.924"/><path d="m35.5170549 31.724h-19.3164505c-.5155275 0-.9346593-.4153333-.9346593-.924s.4191318-.924.9346593-.924h19.3164505c.5169451 0 .9346594.4153333.9346594.924s-.4177143.924-.9346594.924"/><path d="m35.5170549 41.426h-19.3164505c-.5155275 0-.9346593-.4153333-.9346593-.924s.4191318-.924.9346593-.924h19.3164505c.5169451 0 .9346594.4153333.9346594.924s-.4177143.924-.9346594.924"/><path d="m6.09276923 20.8226667c0-1.372 1.12603297-2.4826667 2.51479121-2.4826667 1.38828571 0 2.51384616 1.1106667 2.51384616 2.4826667s-1.12556045 2.4826666-2.51384616 2.4826666c-1.38875824 0-2.51479121-1.1106666-2.51479121-2.4826666"/><path d="m6.09276923 30.8c0-1.372 1.12603297-2.4826667 2.51479121-2.4826667 1.38828571 0 2.51384616 1.1106667 2.51384616 2.4826667s-1.12556045 2.4826667-2.51384616 2.4826667c-1.38875824 0-2.51479121-1.1106667-2.51479121-2.4826667"/><path d="m6.09276923 40.502c0-1.372 1.12603297-2.4826667 2.51479121-2.4826667 1.38828571 0 2.51384616 1.1106667 2.51384616 2.4826667s-1.12556045 2.4826667-2.51384616 2.4826667c-1.38875824 0-2.51479121-1.1106667-2.51479121-2.4826667"/></g></g></g></svg>