<svg height="250" viewBox="0 0 350 250" width="350" xmlns="http://www.w3.org/2000/svg" xmlns:xlink="http://www.w3.org/1999/xlink"><defs><circle id="a" cx="19" cy="19" r="19"/><circle id="b" cx="19" cy="19" r="19"/><circle id="c" cx="19" cy="19" r="19"/><ellipse id="d" cx="3.026" cy="3.023" rx="3.026" ry="3.023"/><ellipse id="e" cx="3.026" cy="3.023" rx="3.026" ry="3.023"/><ellipse id="f" cx="3.026" cy="3.023" rx="3.026" ry="3.023"/><ellipse id="g" cx="3.8" cy="3.778" rx="3.8" ry="3.778"/><ellipse id="h" cx="3.8" cy="3.778" rx="3.8" ry="3.778"/><ellipse id="i" cx="3.8" cy="3.778" rx="3.8" ry="3.778"/><mask id="j" fill="#fff"><use fill="none" xlink:href="#a"/></mask><mask id="k" fill="#fff"><use fill="none" xlink:href="#b"/></mask><mask id="l" fill="#fff"><use fill="none" xlink:href="#c"/></mask><mask id="m" fill="#fff"><use fill="none" xlink:href="#d"/></mask><mask id="n" fill="#fff"><use fill="none" xlink:href="#e"/></mask><mask id="o" fill="#fff"><use fill="none" xlink:href="#f"/></mask><mask id="p" fill="#fff"><use fill="none" xlink:href="#g"/></mask><mask id="q" fill="#fff"><use fill="none" xlink:href="#h"/></mask><mask id="r" fill="#fff"><use fill="none" xlink:href="#i"/></mask></defs><g fill="none" fill-rule="evenodd"><g transform="translate(24 2)"><path d="m113 32-80 51 59 72 96-88-146 16 122 78-35-126z" stroke="#a2c0c5" stroke-width="2"/><g transform="translate(14 61)"><use fill="#ffde3f" xlink:href="#a"/><path d="m19-5h20v46h-20z" fill="#f6b72c" mask="url(#j)"/></g><g transform="translate(103 8)"><use fill="#f49c53" xlink:href="#b"/><path d="m19-1h22v40h-22z" fill="#e87f27" mask="url(#k)"/></g><circle cx="91" cy="165" fill="#39bb9c" r="19"/><g fill="#ffc431"><path d="m103.505535 7.18561689c.659287.36211295.659287 1.26541655 0 1.62851887-2.689564 1.47813314-4.6311313 4.63722234-5.6603837 6.66940804-.3498047.6886083-1.3397419.6886083-1.6895465 0-1.0302605-2.0321857-2.9708196-5.1912749-5.6603842-6.66940804-.6602941-.36310232-.6602941-1.26640592 0-1.62851887 2.6895646-1.47813316 4.6301237-4.63722231 5.6603842-6.66841869.3498046-.6895976 1.3397418-.6895976 1.6895465 0 1.0292524 2.03119638 2.9708197 5.19028553 5.6603837 6.66841869z"/><path d="m61.5055355 48.1856169c.659286.3621129.659286 1.2654165 0 1.6285189-2.6895646 1.4781331-4.6311318 4.6372223-5.6603842 6.669408-.3498047.6886083-1.3397419.6886083-1.6895465 0-1.0302605-2.0321857-2.9708196-5.1912749-5.6603842-6.669408-.6602941-.3631024-.6602941-1.266406 0-1.6285189 2.6895646-1.4781332 4.6301237-4.6372223 5.6603842-6.6684187.3498046-.6895976 1.3397418-.6895976 1.6895465 0 1.0292524 2.0311964 2.9708196 5.1902855 5.6603842 6.6684187z"/><path d="m13.5055355 38.1856169c.659286.3621129.659286 1.2654165 0 1.6285189-2.6895646 1.4781331-4.6311318 4.6372223-5.6603842 6.669408-.34980468.6886083-1.33974186.6886083-1.68954654 0-1.03026048-2.0321857-2.97081961-5.1912749-5.66038415-6.669408-.66029415-.3631024-.66029415-1.266406 0-1.6285189 2.68956454-1.4781332 4.63012367-4.6372223 5.66038415-6.6684187.34980468-.6895976 1.33974186-.6895976 1.68954654 0 1.0292524 2.0311964 2.9708196 5.1902855 5.6603842 6.6684187z"/></g><circle cx="163" cy="152" fill="#ea5a7d" r="19"/><g transform="translate(171 49)"><use fill="#4183d7" xlink:href="#c"/><path d="m19-3h23v42h-23z" fill="#3171c2" mask="url(#l)"/></g><g fill="#ffc431"><path d="m253.505535 52.1856169c.659287.3621129.659287 1.2654165 0 1.6285189-2.689564 1.4781331-4.631131 4.6372223-5.660384 6.669408-.349804.6886083-1.339742.6886083-1.689546 0-1.030261-2.0321857-2.97082-5.1912749-5.660384-6.669408-.660295-.3631024-.660295-1.266406 0-1.6285189 2.689564-1.4781332 4.630123-4.6372223 5.660384-6.6684187.349804-.6895976 1.339742-.6895976 1.689546 0 1.029253 2.0311964 2.97082 5.1902855 5.660384 6.6684187z"/><path d="m193.505535 23.1856169c.659287.3621129.659287 1.2654165 0 1.6285189-2.689564 1.4781331-4.631131 4.6372223-5.660384 6.669408-.349804.6886083-1.339742.6886083-1.689546 0-1.030261-2.0321857-2.97082-5.1912749-5.660384-6.669408-.660295-.3631024-.660295-1.266406 0-1.6285189 2.689564-1.4781332 4.630123-4.6372223 5.660384-6.6684187.349804-.6895976 1.339742-.6895976 1.689546 0 1.029253 2.0311964 2.97082 5.1902855 5.660384 6.6684187z"/></g></g><g transform="translate(25 87)"><path d="m84 134.5676-24.528 26h108.528l-28-26z" fill="#caf5ff"/><path d="m86.5 132.5676h27l-29 28h-24.5z" fill="#46c4d1" opacity=".805"/><path d="m84 134.568h55.5v-27h-55.5z" fill="#caf5ff"/><path d="m111.4961 134.5676h27.504v-27z" fill="#46c4d1" opacity=".805"/><g fill-opacity=".5"><path d="m0 53.568h224v-53h-224z" fill="#caf5ff"/><path d="m113 1.5676v52h55z" fill="#46c4d1"/><path d="m1 1.5676v52h54.992z" fill="#46c4d1"/><g fill="#90edfc"><path d="m112 .5676h-55-2-55l55.992 53 .008-.009.008.009z"/><path d="m223 53.5676h-55-2-53l55 54.5-1-1.509 1 1.509z"/><path d="m113 53.5676h-57-2-53l57 54z"/><path d="m224 .5676h-55-2-55l55.992 53 .008-.009.008.009z"/></g><path d="m58 107.5676h110l-55-54z" fill="#caf5ff"/></g><path d="m139 107.5676h-27.009-.982-27.009l27.496 27h.008z" fill="#90edfc"/><path d="m84 160.5676h27.009.982 27.009l-27.496-26.014-.004.011-.004-.014z" fill="#90edfc"/><g fill="#46c4d1" fill-opacity=".5"><path d="m58 107.5676-2.008-54h57.008z"/><path d="m168 108.0676-.008-54.5h57.008z"/></g></g><g transform="matrix(.8660254 -.5 .5 .8660254 216.880454 199.501289)"><path d="m42.9943297 0h-42.9943297v56h31.1556264l2.4921099-9.2306667 9.3465934-2.4593333z" fill="#fcde94"/><path d="m42.9943297 44.31-11.8387033 11.69h-15.8896813v-56h27.7283846z" fill="#f9d073"/><path d="m31.1556264 44.31v11.69l11.8387033-11.69z" fill="#a3a4a0"/><g transform="matrix(-1 0 0 1 37.425926 14.4)"><path d="m15.7666667 3.81818182-12.74074077 8.11363638 9.39629627 11.4545454 15.2888889-13.99999996-23.25185184 2.54545456 19.42962964 12.4090909-5.5740741-20.04545455z" stroke="#a2c0c5" stroke-width=".5"/><g transform="translate(0 8.431818)"><use fill="#ffde3f" xlink:href="#d"/><path d="m3.026-.795h3.185v7.318h-3.185z" fill="#f6b72c" mask="url(#m)"/></g><g transform="translate(14.174074)"><use fill="#f49c53" xlink:href="#e"/><path d="m3.026-.159h3.504v6.364h-3.504z" fill="#e87f27" mask="url(#n)"/></g><ellipse cx="12.263" cy="24.977" fill="#39bb9c" rx="3.026" ry="3.023"/><ellipse cx="23.73" cy="22.909" fill="#ea5a7d" rx="3.026" ry="3.023"/><g transform="translate(25.003704 6.522727)"><use fill="#4183d7" xlink:href="#f"/><path d="m3.026-.477h3.663v6.682h-3.663z" fill="#3171c2" mask="url(#o)"/></g></g></g><g transform="translate(270 178)"><path d="m53.9928791 0h-53.9928791v70h39.1256703l3.1296264-11.5383333 11.7375824-3.0741667z" fill="#fcde94"/><path d="m53.9928791 55.3875-14.8672088 14.6125h-19.9544835v-70h34.8216923z" fill="#f9d073"/><path d="m39.1256703 55.3875v14.6125l14.8672088-14.6125z" fill="#a3a4a0"/><g transform="matrix(-1 0 0 1 47 18)"><path d="m19.8 4.77272727-16 10.14204543 11.8 14.3181818 19.2-17.5-29.2 3.1818182 24.4 15.5113637-7-25.05681822z" stroke="#a2c0c5" stroke-width=".5"/><g transform="translate(0 10.539773)"><use fill="#ffde3f" xlink:href="#g"/><path d="m3.8-.994h4v9.148h-4z" fill="#f6b72c" mask="url(#p)"/></g><g transform="translate(17.8)"><use fill="#f49c53" xlink:href="#h"/><path d="m3.8-.199h4.4v7.955h-4.4z" fill="#e87f27" mask="url(#q)"/></g><ellipse cx="15.4" cy="31.222" fill="#39bb9c" rx="3.8" ry="3.778"/><ellipse cx="29.8" cy="28.636" fill="#ea5a7d" rx="3.8" ry="3.778"/><g transform="translate(31.4 8.153409)"><use fill="#4183d7" xlink:href="#i"/><path d="m3.8-.597h4.6v8.352h-4.6z" fill="#3171c2" mask="url(#r)"/></g></g></g></g></svg>