<svg height="250" viewBox="0 0 350 250" width="350" xmlns="http://www.w3.org/2000/svg"><g fill="none" fill-rule="evenodd" transform="translate(-816 -728)"><g transform="matrix(.96592583 .25881905 -.25881905 .96592583 1090.979528 914.389467)"><path d="m42.9943297 0h-42.9943297v56h31.1556264l2.4921099-9.2306667 9.3465934-2.4593333z" fill="#fcde94"/><path d="m42.9943297 44.31-11.8387033 11.69h-15.8896813v-56h27.7283846z" fill="#f9d073"/><path d="m31.1556264 44.31v11.69l11.8387033-11.69z" fill="#a3a4a0"/><path d="m8.60756044 13.5706667c-.23957143 0-.47867033-.0933334-.66153846-.2706667l-1.86884616-1.848c-.3647912-.3593333-.3647912-.9426667 0-1.3066667.36526374-.3593333.95686814-.3593333 1.32165934 0l1.20872528 1.1946667 3.47260436-3.33666667c.3652638-.35933333.9568682-.35933333 1.3216594 0 .3652637.364.3652637.94733334 0 1.30666667l-4.13319783 3.99c-.18286813.1773333-.42243956.2706667-.66106593.2706667" fill="#87d37c"/><path d="m35.5170549 21.7466667h-19.3164505c-.5155275 0-.9346593-.4106667-.9346593-.924 0-.5086667.4191318-.924.9346593-.924h19.3164505c.5169451 0 .9346594.4153333.9346594.924 0 .5133333-.4177143.924-.9346594.924" fill="#f16661"/><path d="m35.5170549 12.0306667h-19.3164505c-.5155275 0-.9346593-.4153334-.9346593-.924 0-.5086667.4191318-.924.9346593-.924h19.3164505c.5169451 0 .9346594.4153333.9346594.924 0 .5086666-.4177143.924-.9346594.924" fill="#87d37c"/><path d="m35.5170549 31.724h-19.3164505c-.5155275 0-.9346593-.4153333-.9346593-.924s.4191318-.924.9346593-.924h19.3164505c.5169451 0 .9346594.4153333.9346594.924s-.4177143.924-.9346594.924" fill="#f16661"/><path d="m35.5170549 41.426h-19.3164505c-.5155275 0-.9346593-.4153333-.9346593-.924s.4191318-.924.9346593-.924h19.3164505c.5169451 0 .9346594.4153333.9346594.924s-.4177143.924-.9346594.924" fill="#32b3d9"/><path d="m6.09276923 20.8226667c0-1.372 1.12603297-2.4826667 2.51479121-2.4826667 1.38828571 0 2.51384616 1.1106667 2.51384616 2.4826667s-1.12556045 2.4826666-2.51384616 2.4826666c-1.38875824 0-2.51479121-1.1106666-2.51479121-2.4826666" fill="#f16661"/><path d="m6.09276923 30.8c0-1.372 1.12603297-2.4826667 2.51479121-2.4826667 1.38828571 0 2.51384616 1.1106667 2.51384616 2.4826667s-1.12556045 2.4826667-2.51384616 2.4826667c-1.38875824 0-2.51479121-1.1106667-2.51479121-2.4826667" fill="#f16661"/><path d="m6.09276923 40.502c0-1.372 1.12603297-2.4826667 2.51479121-2.4826667 1.38828571 0 2.51384616 1.1106667 2.51384616 2.4826667s-1.12556045 2.4826667-2.51384616 2.4826667c-1.38875824 0-2.51479121-1.1106667-2.51479121-2.4826667" fill="#32b3d9"/></g><g transform="translate(846 729)"><rect fill="#f16661" height="54" rx="4" width="54" x="24" y="41"/><rect fill="#87d37c" height="54" rx="4" width="54" x="85" y="30"/><g fill="#f16661"><rect height="54" rx="4" width="54" x="145" y="41"/><rect height="54" rx="4" width="54" x="34" y="109"/><rect height="54" rx="4" width="54" x="95" y="98"/><rect height="54" rx="4" width="54" x="155" y="109"/></g><g transform="translate(7 88)"><path d="m84 134.5676-24.528 26h108.528l-28-26z" fill="#caf5ff"/><path d="m86.5 132.5676h27l-29 28h-24.5z" fill="#46c4d1" opacity=".805"/><path d="m84 134.568h55.5v-27h-55.5z" fill="#caf5ff"/><path d="m111.4961 134.5676h27.504v-27z" fill="#46c4d1" opacity=".805"/><g fill-opacity=".5"><path d="m0 53.568h224v-53h-224z" fill="#caf5ff"/><path d="m113 1.5676v52h55z" fill="#46c4d1"/><path d="m1 1.5676v52h54.992z" fill="#46c4d1"/><g fill="#90edfc"><path d="m112 .5676h-55-2-55l55.992 53 .008-.009.008.009z"/><path d="m223 53.5676h-55-2-53l55 54.5-1-1.509 1 1.509z"/><path d="m113 53.5676h-57-2-53l57 54z"/><path d="m224 .5676h-55-2-55l55.992 53 .008-.009.008.009z"/></g><path d="m58 107.5676h110l-55-54z" fill="#caf5ff"/></g><path d="m139 107.5676h-27.009-.982-27.009l27.496 27h.008z" fill="#90edfc"/><path d="m84 160.5676h27.009.982 27.009l-27.496-26.014-.004.011-.004-.014z" fill="#90edfc"/><g fill="#46c4d1" fill-opacity=".5"><path d="m58 107.5676-2.008-54h57.008z"/><path d="m168 108.0676-.008-54.5h57.008z"/></g></g><path d="m102.765036 70.3366652c.990886 1.0360981 2.372525 1.6380217 3.824041 1.6626907 1.451516.0222021 2.853336-.5303835 3.87979-1.5344119l19.961748-19.5205808c2.092513-2.0475271 2.092513-5.3630409 0-7.410568-2.092262-2.0450603-5.484682-2.0450603-7.576943 0l-16.041848 15.687018-5.538665-5.7972154c-2.0198624-2.1141334-5.4102643-2.2276108-7.5726545-.2540907-2.1623902 1.975987-2.2779263 5.2915008-.2580641 7.4056343z" fill="#fff"/><g fill="#ffc431"><path d="m243.505535 47.1856169c.659287.3621129.659287 1.2654165 0 1.6285189-2.689564 1.4781331-4.631131 4.6372223-5.660384 6.669408-.349804.6886083-1.339742.6886083-1.689546 0-1.030261-2.0321857-2.97082-5.1912749-5.660384-6.669408-.660295-.3631024-.660295-1.266406 0-1.6285189 2.689564-1.4781332 4.630123-4.6372223 5.660384-6.6684187.349804-.6895976 1.339742-.6895976 1.689546 0 1.029253 2.0311964 2.97082 5.1902855 5.660384 6.6684187z"/><path d="m193.505535 7.18561689c.659287.36211295.659287 1.26541655 0 1.62851887-2.689564 1.47813314-4.631131 4.63722234-5.660384 6.66940804-.349804.6886083-1.339742.6886083-1.689546 0-1.030261-2.0321857-2.97082-5.1912749-5.660384-6.66940804-.660295-.36310232-.660295-1.26640592 0-1.62851887 2.689564-1.47813316 4.630123-4.63722231 5.660384-6.66841869.349804-.6895976 1.339742-.6895976 1.689546 0 1.029253 2.03119638 2.97082 5.19028553 5.660384 6.66841869z"/><path d="m133.505535 17.1856169c.659287.3621129.659287 1.2654165 0 1.6285189-2.689564 1.4781331-4.631131 4.6372223-5.660384 6.669408-.349804.6886083-1.339742.6886083-1.689546 0-1.030261-2.0321857-2.97082-5.1912749-5.660384-6.669408-.660295-.3631024-.660295-1.266406 0-1.6285189 2.689564-1.4781332 4.630123-4.6372223 5.660384-6.6684187.349804-.6895976 1.339742-.6895976 1.689546 0 1.029253 2.0311964 2.97082 5.1902855 5.660384 6.6684187z"/><path d="m73.5055355 27.1856169c.659286.3621129.659286 1.2654165 0 1.6285189-2.6895646 1.4781331-4.6311318 4.6372223-5.6603842 6.669408-.3498047.6886083-1.3397419.6886083-1.6895465 0-1.0302605-2.0321857-2.9708196-5.1912749-5.6603842-6.669408-.6602941-.3631024-.6602941-1.266406 0-1.6285189 2.6895646-1.4781332 4.6301237-4.6372223 5.6603842-6.6684187.3498046-.6895976 1.3397418-.6895976 1.6895465 0 1.0292524 2.0311964 2.9708196 5.1902855 5.6603842 6.6684187z"/><path d="m13.5055355 17.1856169c.659286.3621129.659286 1.2654165 0 1.6285189-2.6895646 1.4781331-4.6311318 4.6372223-5.6603842 6.669408-.34980468.6886083-1.33974186.6886083-1.68954654 0-1.03026048-2.0321857-2.97081961-5.1912749-5.66038415-6.669408-.66029415-.3631024-.66029415-1.266406 0-1.6285189 2.68956454-1.4781332 4.63012367-4.6372223 5.66038415-6.6684187.34980468-.6895976 1.33974186-.6895976 1.68954654 0 1.0292524 2.0311964 2.9708196 5.1902855 5.6603842 6.6684187z"/></g></g></g></svg>