<svg height="250" viewBox="0 0 350 250" width="350" xmlns="http://www.w3.org/2000/svg"><g fill="none" fill-rule="evenodd"><g transform="translate(47 3)"><path d="m20.0415 32.7326c.654.366.654 1.279 0 1.646-2.668 1.494-4.594 4.687-5.615 6.741-.347.696-1.329.696-1.676 0-1.022-2.054-2.947-5.247-5.615-6.741-.655-.367-.655-1.28 0-1.646 2.668-1.494 4.593-4.687 5.615-6.74.347-.697 1.329-.697 1.676 0 1.021 2.053 2.947 5.246 5.615 6.74z" fill="#ffc431"/><path d="m179.2617 27.7512c-2.668-1.493-4.594-4.687-5.615-6.74-.347-.697-1.329-.697-1.676 0-1.021 2.053-2.947 5.247-5.615 6.74-.655.367-.655 1.28 0 1.646 2.668 1.495 4.594 4.688 5.615 6.741.347.697 1.329.697 1.676 0 1.021-2.053 2.947-5.246 5.615-6.741.654-.366.654-1.279 0-1.646" fill="#ffc431"/><path d="m131.5908 7.2629c-2.668-1.494-4.594-4.687-5.615-6.74-.347-.697-1.329-.697-1.676 0-1.021 2.053-2.947 5.246-5.615 6.74-.655.366-.655 1.279 0 1.646 2.668 1.494 4.594 4.688 5.615 6.741.347.696 1.329.696 1.676 0 1.021-2.053 2.947-5.247 5.615-6.741.654-.367.654-1.28 0-1.646" fill="#ffc431"/><path d="m78.6567 19.6653c-2.668-1.493-4.594-4.687-5.615-6.74-.347-.697-1.329-.697-1.676 0-1.021 2.053-2.947 5.247-5.615 6.74-.655.367-.655 1.28 0 1.646 2.668 1.495 4.594 4.688 5.615 6.741.347.697 1.329.697 1.676 0 1.021-2.053 2.947-5.246 5.615-6.741.654-.366.654-1.279 0-1.646" fill="#ffc431"/><path d="m150.002 114.66h10.602v-5.301h-10.602z" fill="#777"/><path d="m147.768 109.36h15.069v-6.089h-15.069z" fill="#ffdd12"/><path d="m129.9995 137.5969c0-13.94 11.3-25.241 25.24-25.241s25.24 11.301 25.24 25.241c0 13.939-11.3 25.24-25.24 25.24s-25.24-11.301-25.24-25.24" fill="#ffdd12"/><path d="m137.394 155.4758c10.066 10.065 25.837 9.856 35.694-.001 9.857-9.856 10.067-25.628.001-35.694z" fill="#eac800"/><path d="m135.8477 137.5969c0-10.71 8.682-19.393 19.392-19.393s19.392 8.683 19.392 19.393-8.682 19.392-19.392 19.392-19.392-8.682-19.392-19.392" fill="#fff"/><g stroke="#777" stroke-linecap="round" stroke-linejoin="round"><path d="m129.9995 137.5969c0-13.94 11.3-25.241 25.24-25.241s25.24 11.301 25.24 25.241c0 13.939-11.3 25.24-25.24 25.24s-25.24-11.301-25.24-25.24z" stroke-width="1.644"/><path d="m157.5 124.5676v-4"/><g stroke-width="1.45"><path d="m164.8213 128.3342 1.367-1.368"/><path d="m165.4248 147.4094 1.367 1.367"/><path d="m145.7104 128.3342-1.368-1.368"/><path d="m145.1069 147.4094-1.368 1.367"/></g><path d="m157.5 132.5676v6.5h5.5"/></g><path d="m142.3521 145.8283c-.863-.483-1.486-1.517-1.816-2.181-.113-.224-.431-.224-.542 0-.331.664-.954 1.698-1.817 2.181-.212.118-.212.414 0 .532.863.484 1.486 1.517 1.817 2.181.111.225.429.225.542 0 .33-.664.953-1.697 1.816-2.181.211-.118.211-.414 0-.532" fill="#fff"/><path d="m61.0063 119.7551-8.962-5.663 2.831-4.481 8.963 5.664z" fill="#777"/><path d="m68.9785 111.3205-12.739-8.05-3.252 5.148 12.739 8.049z" fill="#ffdd12"/><path d="m22.8818 122.7961c7.447-11.784 23.036-15.301 34.821-7.854 11.784 7.447 15.3 23.037 7.854 34.821-7.447 11.784-23.036 15.301-34.821 7.853-11.784-7.446-15.3-23.036-7.854-34.82" fill="#ffdd12"/><path d="m19.582 141.8606c3.133 13.887 16.577 22.135 30.175 19.067 13.598-3.067 22.2-16.288 19.069-30.174z" fill="#eac800"/><path d="m27.8262 125.9201c5.721-9.054 17.698-11.755 26.752-6.034 9.054 5.722 11.755 17.699 6.035 26.753-5.722 9.053-17.699 11.755-26.753 6.034-9.054-5.722-11.755-17.698-6.034-26.753" fill="#fff"/><g stroke="#777" stroke-linecap="round" stroke-linejoin="round"><path d="m22.8818 122.7961c7.447-11.784 23.036-15.301 34.821-7.854 11.784 7.447 15.3 23.037 7.854 34.821-7.447 11.784-23.036 15.301-34.821 7.853-11.784-7.446-15.3-23.036-7.854-34.82z" stroke-width="1.644"/><path d="m51.0767 125.5012 1.033-1.635" stroke-width="1.934"/><g stroke-width="1.45"><path d="m57.2671 133.5676 1.886-.426"/><path d="m47.5874 150.0158.426 1.886"/><path d="m41.1113 123.3586-.425-1.887"/><path d="m30.4116 139.1613-1.887.426"/></g><path d="m47.9766 130.4065-4.65 7.359 7.359 4.65" stroke-width="1.934"/></g><path d="m28.9268 136.3537c-.471-.869-.446-2.075-.371-2.813.026-.25-.243-.42-.458-.29-.634.385-1.712.925-2.7.874-.242-.014-.4.236-.284.449.471.87.446 2.076.371 2.813-.026.251.242.421.458.29.633-.385 1.712-.926 2.7-.873.242.013.4-.237.284-.45" fill="#fff"/><path d="m148.0063 64.7551-8.962-5.663 2.831-4.481 8.963 5.664z" fill="#777"/><path d="m155.9785 56.3205-12.739-8.05-3.252 5.148 12.739 8.049z" fill="#ffdd12"/><path d="m109.8818 67.7961c7.447-11.784 23.036-15.301 34.821-7.854 11.784 7.447 15.3 23.037 7.854 34.821-7.447 11.784-23.036 15.301-34.821 7.853-11.784-7.446-15.3-23.036-7.854-34.82" fill="#ffdd12"/><path d="m106.582 86.8606c3.133 13.887 16.577 22.135 30.175 19.067 13.598-3.067 22.2-16.288 19.069-30.174z" fill="#eac800"/><path d="m114.8262 70.9201c5.721-9.054 17.698-11.755 26.752-6.034 9.054 5.722 11.755 17.699 6.035 26.753-5.722 9.053-17.699 11.755-26.753 6.034-9.054-5.722-11.755-17.698-6.034-26.753" fill="#fff"/><g stroke="#777" stroke-linecap="round" stroke-linejoin="round"><path d="m109.8818 67.7961c7.447-11.784 23.036-15.301 34.821-7.854 11.784 7.447 15.3 23.037 7.854 34.821-7.447 11.784-23.036 15.301-34.821 7.853-11.784-7.446-15.3-23.036-7.854-34.82z" stroke-width="1.644"/><path d="m138.0767 70.5012 1.033-1.635" stroke-width="1.934"/><g stroke-width="1.45"><path d="m144.2671 78.5676 1.886-.426"/><path d="m134.5874 95.0158.426 1.886"/><path d="m128.1113 68.3586-.425-1.887"/><path d="m117.4116 84.1613-1.887.426"/></g><path d="m134.9766 75.4065-4.65 7.359 7.359 4.65" stroke-width="1.934"/></g><path d="m115.9268 81.3537c-.471-.869-.446-2.075-.371-2.813.026-.25-.243-.42-.458-.29-.634.385-1.712.925-2.7.874-.242-.014-.4.236-.284.449.471.87.446 2.076.371 2.813-.026.251.242.421.458.29.633-.385 1.712-.926 2.7-.873.242.013.4-.237.284-.45" fill="#fff"/><path d="m197.0063 202.7551-8.962-5.663 2.831-4.481 8.963 5.664z" fill="#777"/><path d="m204.9785 194.3205-12.739-8.05-3.252 5.148 12.739 8.049z" fill="#ffdd12"/><path d="m158.8818 205.7961c7.447-11.784 23.036-15.301 34.821-7.854 11.784 7.447 15.3 23.037 7.854 34.821-7.447 11.784-23.036 15.301-34.821 7.853-11.784-7.446-15.3-23.036-7.854-34.82" fill="#ffdd12"/><path d="m155.582 224.8606c3.133 13.887 16.577 22.135 30.175 19.067 13.598-3.067 22.2-16.288 19.069-30.174z" fill="#eac800"/><path d="m163.8262 208.9201c5.721-9.054 17.698-11.755 26.752-6.034 9.054 5.722 11.755 17.699 6.035 26.753-5.722 9.053-17.699 11.755-26.753 6.034-9.054-5.722-11.755-17.698-6.034-26.753" fill="#fff"/><g stroke="#777" stroke-linecap="round" stroke-linejoin="round"><path d="m158.8818 205.7961c7.447-11.784 23.036-15.301 34.821-7.854 11.784 7.447 15.3 23.037 7.854 34.821-7.447 11.784-23.036 15.301-34.821 7.853-11.784-7.446-15.3-23.036-7.854-34.82z" stroke-width="1.644"/><path d="m187.0767 208.5012 1.033-1.635" stroke-width="1.934"/><path d="m193.2671 216.5676 1.886-.426" stroke-width="1.45"/><path d="m183.5874 233.0158.426 1.886" stroke-width="1.45"/><path d="m177.1113 206.3586-.425-1.887" stroke-width="1.45"/><path d="m166.4116 222.1613-1.887.426" stroke-width="1.45"/><path d="m183.9766 213.4065-4.65 7.359 7.359 4.65" stroke-width="1.934"/></g><path d="m164.9268 219.3537c-.471-.869-.446-2.075-.371-2.813.026-.25-.243-.42-.458-.29-.634.385-1.712.925-2.7.874-.242-.014-.4.236-.284.449.471.87.446 2.076.371 2.813-.026.251.242.421.458.29.633-.385 1.712-.926 2.7-.873.242.013.4-.237.284-.45" fill="#fff"/><path d="m99.9033 114.8723-10.342 2.333-1.166-5.171 10.341-2.333z" fill="#777"/><path d="m99.5762 103.2707-14.7 3.315 1.34 5.94 14.7-3.316z" fill="#ffdd12"/><path d="m75.3359 143.9807c-3.067-13.599 5.47-27.108 19.068-30.176 13.598-3.067 27.108 5.47 30.176 19.069 3.067 13.598-5.471 27.108-19.069 30.175-13.598 3.068-27.108-5.469-30.175-19.068" fill="#ffdd12"/><path d="m86.4829 159.7951c12.035 7.604 27.374 3.929 34.82-7.854 7.446-11.785 4.18-27.216-7.854-34.821z" fill="#eac800"/><path d="m81.041 142.6936c-2.356-10.447 4.202-20.827 14.65-23.184 10.447-2.356 20.827 4.204 23.183 14.651 2.357 10.447-4.202 20.827-14.649 23.183-10.448 2.357-20.828-4.202-23.184-14.65" fill="#fff"/><path d="m75.3359 143.9807c-3.067-13.599 5.47-27.108 19.068-30.176 13.598-3.067 27.108 5.47 30.176 19.069 3.067 13.598-5.471 27.108-19.069 30.175-13.598 3.068-27.108-5.469-30.175-19.068z" stroke="#777" stroke-linecap="round" stroke-linejoin="round" stroke-width="1.644"/><path d="m97.1851 125.9563-.426-1.887" stroke="#777" stroke-linecap="round" stroke-linejoin="round" stroke-width="1.934"/><path d="m107.2661 127.2834 1.033-1.635" stroke="#777" stroke-linecap="round" stroke-linejoin="round" stroke-width="1.45"/><path d="m112.0522 145.758 1.635 1.033" stroke="#777" stroke-linecap="round" stroke-linejoin="round" stroke-width="1.45"/><path d="m88.6235 131.4885-1.635-1.033" stroke="#777" stroke-linecap="round" stroke-linejoin="round" stroke-width="1.45"/><path d="m92.2319 150.2287-1.033 1.635" stroke="#777" stroke-linecap="round" stroke-linejoin="round" stroke-width="1.45"/><path d="m98.4619 131.6174 1.916 8.491 8.49-1.915" stroke="#777" stroke-linecap="round" stroke-linejoin="round" stroke-width="1.934"/><path d="m88.9565 149.2932c-.948-.282-1.783-1.152-2.251-1.728-.159-.195-.469-.125-.529.12-.176.72-.556 1.865-1.292 2.526-.18.162-.115.45.117.519.948.282 1.783 1.153 2.251 1.728.16.195.47.125.529-.119.176-.721.557-1.865 1.292-2.527.181-.163.116-.451-.117-.519" fill="#fff"/><path d="m85.9033 51.8723-10.342 2.333-1.166-5.171 10.341-2.333z" fill="#777"/><path d="m85.5762 40.2707-14.7 3.315 1.34 5.94 14.7-3.316z" fill="#ffdd12"/><path d="m61.3359 80.9807c-3.067-13.599 5.47-27.108 19.068-30.176 13.598-3.067 27.108 5.47 30.176 19.069 3.067 13.598-5.471 27.108-19.069 30.175-13.598 3.068-27.108-5.469-30.175-19.068" fill="#ffdd12"/><path d="m72.4829 96.7951c12.035 7.604 27.374 3.929 34.82-7.854 7.446-11.785 4.18-27.216-7.854-34.821z" fill="#eac800"/><path d="m67.041 79.6936c-2.356-10.447 4.202-20.827 14.65-23.184 10.447-2.356 20.827 4.204 23.183 14.651 2.357 10.447-4.202 20.827-14.649 23.183-10.448 2.357-20.828-4.202-23.184-14.65" fill="#fff"/><path d="m61.3359 80.9807c-3.067-13.599 5.47-27.108 19.068-30.176 13.598-3.067 27.108 5.47 30.176 19.069 3.067 13.598-5.471 27.108-19.069 30.175-13.598 3.068-27.108-5.469-30.175-19.068z" stroke="#777" stroke-linecap="round" stroke-linejoin="round" stroke-width="1.644"/><path d="m83.1851 62.9563-.426-1.887" stroke="#777" stroke-linecap="round" stroke-linejoin="round" stroke-width="1.934"/><path d="m93.2661 64.2834 1.033-1.635" stroke="#777" stroke-linecap="round" stroke-linejoin="round" stroke-width="1.45"/><path d="m98.0522 82.758 1.635 1.033" stroke="#777" stroke-linecap="round" stroke-linejoin="round" stroke-width="1.45"/><path d="m74.6235 68.4885-1.635-1.033" stroke="#777" stroke-linecap="round" stroke-linejoin="round" stroke-width="1.45"/><path d="m78.2319 87.2287-1.033 1.635" stroke="#777" stroke-linecap="round" stroke-linejoin="round" stroke-width="1.45"/><path d="m84.4619 68.6174 1.916 8.491 8.49-1.915" stroke="#777" stroke-linecap="round" stroke-linejoin="round" stroke-width="1.934"/><path d="m74.9565 86.2932c-.948-.282-1.783-1.152-2.251-1.728-.159-.195-.469-.125-.529.12-.176.72-.556 1.865-1.292 2.526-.18.162-.115.45.117.519.948.282 1.783 1.153 2.251 1.728.16.195.47.125.529-.119.176-.721.557-1.865 1.292-2.527.181-.163.116-.451-.117-.519" fill="#fff"/><path d="m40.4341 62.7961-9.576-4.55 2.274-4.788 9.576 4.55z" fill="#777"/><path d="m47.3389 53.466-13.611-6.466-2.613 5.5 13.611 6.466z" fill="#ffdd12"/><path d="m3.1372 70.5295c5.981-12.592 21.038-17.95 33.629-11.969 12.592 5.982 17.95 21.038 11.969 33.629-5.982 12.592-21.038 17.95-33.629 11.969-12.592-5.982-17.95-21.037-11.969-33.629" fill="#ffdd12"/><path d="m2.1445 89.8518c4.773 13.411 19.109 19.989 32.242 15.315 13.133-4.673 20.09-18.829 15.317-32.241z" fill="#eac800"/><path d="m8.4199 73.0393c4.596-9.674 16.163-13.791 25.837-9.195 9.674 4.595 13.791 16.163 9.195 25.837-4.595 9.673-16.163 13.79-25.837 9.195-9.674-4.596-13.79-16.163-9.195-25.837" fill="#fff"/><path d="m3.1372 70.5295c5.981-12.592 21.038-17.95 33.629-11.969 12.592 5.982 17.95 21.038 11.969 33.629-5.982 12.592-21.038 17.95-33.629 11.969-12.592-5.982-17.95-21.037-11.969-33.629z" stroke="#777" stroke-linecap="round" stroke-linejoin="round" stroke-width="1.644"/><path d="m31.4531 69.8381.83-1.748" stroke="#777" stroke-linecap="round" stroke-linejoin="round" stroke-width="1.934"/><path d="m38.5649 77.1047 1.822-.648" stroke="#777" stroke-linecap="round" stroke-linejoin="round" stroke-width="1.45"/><path d="m30.9253 94.593.648 1.822" stroke="#777" stroke-linecap="round" stroke-linejoin="round" stroke-width="1.45"/><path d="m21.3027 68.9045-.648-1.822" stroke="#777" stroke-linecap="round" stroke-linejoin="round" stroke-width="1.45"/><path d="m12.5728 85.8752-1.822.648" stroke="#777" stroke-linecap="round" stroke-linejoin="round" stroke-width="1.45"/><path d="m28.9629 75.0793-3.735 7.862 7.862 3.736" stroke="#777" stroke-linecap="round" stroke-linejoin="round" stroke-width="1.934"/><path d="m10.5737 83.1174c-.572-.808-.691-2.008-.705-2.749-.004-.252-.292-.388-.49-.232-.583.458-1.589 1.124-2.576 1.189-.242.017-.369.283-.228.481.572.807.691 2.007.705 2.748.004.252.292.389.489.234.584-.459 1.59-1.124 2.576-1.191.243-.016.37-.283.229-.48" fill="#fff"/><path d="m258.8481 196.2444-10.582-.655.328-5.291 10.582.656z" fill="#777"/><path d="m261.7817 185.0149-15.041-.932-.376 6.078 15.041.931z" fill="#ffdd12"/><path d="m226.8843 217.2453c.862-13.913 12.839-24.494 26.752-23.632 13.914.861 24.494 12.839 23.632 26.752s-12.839 24.494-26.752 23.632c-13.913-.861-24.494-12.839-23.632-26.752" fill="#ffdd12"/><path d="m233.1597 235.5471c9.425 10.669 25.179 11.435 35.626 2.206 10.447-9.228 11.631-24.957 2.207-35.626z" fill="#eac800"/><path d="m232.7217 217.6067c.662-10.689 9.864-18.818 20.553-18.156 10.69.662 18.819 9.864 18.156 20.553-.661 10.69-9.863 18.819-20.553 18.157-10.689-.662-18.818-9.865-18.156-20.554" fill="#fff"/><path d="m226.8843 217.2453c.862-13.913 12.839-24.494 26.752-23.632 13.914.861 24.494 12.839 23.632 26.752s-12.839 24.494-26.752 23.632c-13.913-.861-24.494-12.839-23.632-26.752z" stroke="#777" stroke-linecap="round" stroke-linejoin="round" stroke-width="1.644"/><path d="m252.9053 206.0578.12-1.931" stroke="#777" stroke-linecap="round" stroke-linejoin="round" stroke-width="1.934"/><path d="m262.2119 210.1526 1.45-1.28" stroke="#777" stroke-linecap="round" stroke-linejoin="round" stroke-width="1.45"/><path d="m261.6353 229.2287 1.28 1.449" stroke="#777" stroke-linecap="round" stroke-linejoin="round" stroke-width="1.45"/><path d="m243.1377 208.9719-1.28-1.45" stroke="#777" stroke-linecap="round" stroke-linejoin="round" stroke-width="1.45"/><path d="m241.3564 227.9729-1.45 1.28" stroke="#777" stroke-linecap="round" stroke-linejoin="round" stroke-width="1.45"/><path d="m252.5464 211.8498-.538 8.688 8.688.538" stroke="#777" stroke-linecap="round" stroke-linejoin="round" stroke-width="1.934"/><path d="m238.7046 226.2248c-.832-.536-1.39-1.605-1.678-2.288-.098-.233-.415-.252-.541-.034-.371.642-1.056 1.635-1.948 2.064-.218.105-.237.4-.033.531.832.536 1.389 1.606 1.678 2.289.098.232.416.251.541.033.371-.642 1.057-1.635 1.948-2.064.219-.105.237-.4.033-.531" fill="#fff"/></g><g transform="translate(27 88)"><path d="m84 134.5676-24.528 26h108.528l-28-26z" fill="#caf5ff"/><path d="m84.1106251 134.5676h27.3893749l-27.3893749 25.955303h-24.7863348z" fill="#46c4d1" opacity=".805"/><path d="m84 134.568h55.5v-27h-55.5z" fill="#caf5ff"/><path d="m111.4961 134.5676h27.504v-27z" fill="#46c4d1" opacity=".805"/><g fill-opacity=".5"><path d="m0 53.568h224v-53h-224z" fill="#caf5ff"/><path d="m113 1.5676v52h55z" fill="#46c4d1"/><path d="m1 1.5676v52h54.992z" fill="#46c4d1"/><g fill="#90edfc"><path d="m112 .5676h-55-2-55l55.992 53 .008-.009.008.009z"/><path d="m223 53.5676h-55-2-53l55 54.5-1-1.509 1 1.509z"/><path d="m113 53.5676h-57-2-53l57 54z"/><path d="m224 .5676h-55-2-55l55.992 53 .008-.009.008.009z"/></g><path d="m58 107.5676h110l-55-54z" fill="#caf5ff"/></g><path d="m139 107.5676h-27.009-.982-27.009l27.496 27h.008z" fill="#90edfc"/><path d="m84 160.5676h27.009.982 27.009l-27.496-26.014-.004.011-.004-.014z" fill="#90edfc"/><g fill="#46c4d1" fill-opacity=".5"><path d="m58 107.5676-2.008-54h57.008z"/><path d="m168 108.0676-.008-54.5h57.008z"/></g></g></g></svg>