<svg height="250" viewBox="0 0 350 250" width="350" xmlns="http://www.w3.org/2000/svg"><g fill="none" fill-rule="evenodd" transform="translate(28 9)"><path d="m167.153 110.1h10.681v-5.341h-10.681z" fill="#777"/><path d="m164.902 104.759h15.182v-6.135h-15.182z" fill="#aaa"/><g transform="translate(0 .592)"><path d="m147 132.6162c0-14.045 11.385-25.43 25.43-25.43 14.044 0 25.429 11.385 25.429 25.43 0 14.044-11.385 25.429-25.429 25.429-14.045 0-25.43-11.385-25.43-25.429z" fill="#ed6060"/><path d="m154.4497 150.6289c10.142 10.142 26.032 9.931 35.962 0 9.931-9.931 10.142-25.821.001-35.963z" fill="#e23b3b"/><path d="m152.8921 132.6162c0-10.791 8.747-19.538 19.538-19.538 10.79 0 19.537 8.747 19.537 19.538 0 10.79-8.747 19.537-19.537 19.537-10.791 0-19.538-8.747-19.538-19.537" fill="#fff"/><g stroke="#777" stroke-linecap="round" stroke-linejoin="round"><path d="m147 132.6162c0-14.045 11.385-25.43 25.43-25.43 14.044 0 25.429 11.385 25.429 25.43 0 14.044-11.385 25.429-25.429 25.429-14.045 0-25.43-11.385-25.43-25.429z" stroke-width="1.656"/><path d="m172.3647 119.3916v-1.987" stroke-width="1.49"/><path d="m172.3647 148.6972v-1.489" stroke-width="1.49"/><path d="m182.0825 123.2841 1.378-1.378" stroke-width="1.461"/><path d="m182.6909 142.5019 1.377 1.378" stroke-width="1.461"/><path d="m186.521 133.0508h1.49" stroke-width="1.49"/><path d="m162.8286 123.2841-1.377-1.378" stroke-width="1.461"/><path d="m162.2207 142.5019-1.378 1.378" stroke-width="1.461"/><path d="m158.7051 133.0508h-1.987" stroke-width="1.49"/><path d="m172.1162 124.3584v9.438h9.438" stroke-width="1.987"/></g><path d="m159.4448 140.9091c-.87-.487-1.497-1.527-1.83-2.196-.113-.228-.433-.228-.546 0-.332.669-.96 1.709-1.83 2.196-.213.119-.213.417 0 .536.87.487 1.498 1.528 1.83 2.197.113.227.433.227.546 0 .333-.669.96-1.71 1.83-2.197.213-.119.213-.417 0-.536" fill="#fff"/><path d="m164.833 58.9941-9.062-5.653 2.827-4.532 9.062 5.654z" fill="#777"/><path d="m172.8164 50.4502-12.881-8.036-3.247 5.204 12.881 8.036z" fill="#aaa"/><path d="m126.4414 62.2783c7.434-11.915 23.12-15.548 35.035-8.114 11.916 7.434 15.549 23.12 8.115 35.035-7.434 11.916-23.12 15.549-35.036 8.115-11.915-7.434-15.548-23.12-8.114-35.036" fill="#ed6060"/><path d="m123.2271 81.5049c3.236 13.972 16.829 22.204 30.511 19.035s22.272-16.538 19.036-30.511z" fill="#e23b3b"/><path d="m131.4404 65.3974c5.711-9.154 17.763-11.945 26.917-6.234 9.155 5.712 11.946 17.762 6.235 26.918-5.712 9.154-17.763 11.945-26.918 6.234-9.154-5.712-11.945-17.764-6.234-26.918" fill="#fff"/><g stroke="#777" stroke-linecap="round" stroke-linejoin="round"><path d="m126.4414 62.2783c7.434-11.915 23.12-15.548 35.035-8.114 11.916 7.434 15.549 23.12 8.115 35.035-7.434 11.916-23.12 15.549-35.036 8.115-11.915-7.434-15.548-23.12-8.114-35.036z" stroke-width="1.656"/><path d="m154.9614 64.4853 1.051-1.686" stroke-width="1.49"/><path d="m139.4487 89.3486.789-1.264" stroke-width="1.49"/><path d="m161.146 72.9316 1.898-.44" stroke-width="1.461"/><path d="m151.4893 89.5586.439 1.897" stroke-width="1.461"/><path d="m159.7412 83.5674 1.264.789" stroke-width="1.49"/><path d="m144.8105 62.7392-.44-1.897" stroke-width="1.461"/><path d="m134.1216 78.7226-1.898.439" stroke-width="1.461"/><path d="m136.1416 68.8437-1.686-1.052" stroke-width="1.49"/><path d="m152.1211 68.5674-4.996 8.008 8.008 4.995" stroke-width="1.987"/></g><path d="m132.6099 75.9023c-.48-.873-.461-2.089-.39-2.832.025-.253-.247-.422-.463-.289-.637.392-1.72.942-2.715.894-.245-.011-.402.242-.284.456.48.874.461 2.088.39 2.833-.025.251.247.421.463.289.636-.392 1.72-.943 2.715-.896.244.012.402-.241.284-.455" fill="#fff"/><path d="m56.833 58.9941-9.062-5.653 2.827-4.532 9.062 5.654z" fill="#777"/><path d="m64.8164 50.4502-12.881-8.036-3.247 5.204 12.881 8.036z" fill="#aaa"/><path d="m18.4414 62.2783c7.434-11.915 23.12-15.548 35.035-8.114 11.916 7.434 15.549 23.12 8.115 35.035-7.434 11.916-23.12 15.549-35.036 8.115-11.915-7.434-15.548-23.12-8.114-35.036" fill="#ed6060"/><path d="m15.2271 81.5049c3.236 13.972 16.829 22.204 30.511 19.035s22.272-16.538 19.036-30.511z" fill="#e23b3b"/><path d="m23.4404 65.3974c5.711-9.154 17.763-11.945 26.917-6.234 9.155 5.712 11.946 17.762 6.235 26.918-5.712 9.154-17.763 11.945-26.918 6.234-9.154-5.712-11.945-17.764-6.234-26.918" fill="#fff"/><g stroke="#777" stroke-linecap="round" stroke-linejoin="round"><path d="m18.4414 62.2783c7.434-11.915 23.12-15.548 35.035-8.114 11.916 7.434 15.549 23.12 8.115 35.035-7.434 11.916-23.12 15.549-35.036 8.115-11.915-7.434-15.548-23.12-8.114-35.036z" stroke-width="1.656"/><path d="m46.9614 64.4853 1.051-1.686" stroke-width="1.49"/><path d="m31.4487 89.3486.789-1.264" stroke-width="1.49"/><path d="m53.146 72.9316 1.898-.44" stroke-width="1.461"/><path d="m43.4893 89.5586.439 1.897" stroke-width="1.461"/><path d="m51.7412 83.5674 1.264.789" stroke-width="1.49"/><path d="m36.8105 62.7392-.44-1.897" stroke-width="1.461"/><path d="m26.1216 78.7226-1.898.439" stroke-width="1.461"/><path d="m28.1416 68.8437-1.686-1.052" stroke-width="1.49"/><path d="m44.1211 68.5674-4.996 8.008 8.008 4.995" stroke-width="1.987"/></g><path d="m24.6099 75.9023c-.48-.873-.461-2.089-.39-2.832.025-.253-.247-.422-.463-.289-.637.392-1.72.942-2.715.894-.245-.011-.402.242-.284.456.48.874.461 2.088.39 2.833-.025.251.247.421.463.289.636-.392 1.72-.943 2.715-.896.244.012.402-.241.284-.455" fill="#fff"/><path d="m77.833 113.9941-9.062-5.653 2.827-4.532 9.062 5.654z" fill="#777"/><path d="m85.8164 105.4502-12.881-8.036-3.247 5.204 12.881 8.036z" fill="#aaa"/><path d="m39.4414 117.2783c7.434-11.915 23.12-15.548 35.035-8.114 11.916 7.434 15.549 23.12 8.115 35.035-7.434 11.916-23.12 15.549-35.036 8.115-11.915-7.434-15.548-23.12-8.114-35.036" fill="#ed6060"/><path d="m36.2271 136.5049c3.236 13.972 16.829 22.204 30.511 19.035s22.272-16.538 19.036-30.511z" fill="#e23b3b"/><path d="m44.4404 120.3974c5.711-9.154 17.763-11.945 26.917-6.234 9.155 5.712 11.946 17.762 6.235 26.918-5.712 9.154-17.763 11.945-26.918 6.234-9.154-5.712-11.945-17.764-6.234-26.918" fill="#fff"/><g stroke="#777" stroke-linecap="round" stroke-linejoin="round"><path d="m39.4414 117.2783c7.434-11.915 23.12-15.548 35.035-8.114 11.916 7.434 15.549 23.12 8.115 35.035-7.434 11.916-23.12 15.549-35.036 8.115-11.915-7.434-15.548-23.12-8.114-35.036z" stroke-width="1.656"/><path d="m67.9614 119.4853 1.051-1.686" stroke-width="1.49"/><path d="m52.4487 144.3486.789-1.264" stroke-width="1.49"/><path d="m74.146 127.9316 1.898-.44" stroke-width="1.461"/><path d="m64.4893 144.5586.439 1.897" stroke-width="1.461"/><path d="m72.7412 138.5674 1.264.789" stroke-width="1.49"/><path d="m57.8105 117.7392-.44-1.897" stroke-width="1.461"/><path d="m47.1216 133.7226-1.898.439" stroke-width="1.461"/><path d="m49.1416 123.8437-1.686-1.052" stroke-width="1.49"/><path d="m65.1211 123.5674-4.996 8.008 8.008 4.995" stroke-width="1.987"/></g><path d="m45.6099 130.9023c-.48-.873-.461-2.089-.39-2.832.025-.253-.247-.422-.463-.289-.637.392-1.72.942-2.715.894-.245-.011-.402.242-.284.456.48.874.461 2.088.39 2.833-.025.251.247.421.463.289.636-.392 1.72-.943 2.715-.896.244.012.402-.241.284-.455" fill="#fff"/><path d="m102.2744 45.792-10.337 2.691-1.345-5.169 10.336-2.69z" fill="#777"/><path d="m101.561 34.1201-14.692 3.825 1.545 5.937 14.692-3.825z" fill="#aaa"/><path d="m78.2568 75.9228c-3.538-13.591 4.611-27.478 18.203-31.016 13.591-3.538 27.477 4.612 31.016 18.203 3.538 13.591-4.612 27.477-18.203 31.016-13.591 3.538-27.477-4.611-31.016-18.203" fill="#ed6060"/><path d="m90.0049 91.4785c12.37 7.259 27.693 3.051 34.802-9.061 7.108-12.112 3.309-27.543-9.06-34.802z" fill="#e23b3b"/><path d="m83.959 74.4384c-2.718-10.441 3.543-21.11 13.985-23.829s21.111 3.543 23.829 13.984c2.719 10.443-3.543 21.112-13.984 23.83-10.443 2.718-21.111-3.543-23.83-13.985" fill="#fff"/><path d="m78.2568 75.9228c-3.538-13.591 4.611-27.478 18.203-31.016 13.591-3.538 27.477 4.612 31.016 18.203 3.538 13.591-4.612 27.477-18.203 31.016-13.591 3.538-27.477-4.611-31.016-18.203z" stroke="#777" stroke-linecap="round" stroke-linejoin="round" stroke-width="1.656"/><path d="m99.4717 56.7353-.5-1.923" stroke="#777" stroke-linecap="round" stroke-linejoin="round" stroke-width="1.49"/><path d="m106.855 85.0957-.375-1.441" stroke="#777" stroke-linecap="round" stroke-linejoin="round" stroke-width="1.49"/><path d="m109.8569 58.0537.986-1.681" stroke="#777" stroke-linecap="round" stroke-linejoin="round" stroke-width="1.461"/><path d="m115.2871 76.498 1.681.986" stroke="#777" stroke-linecap="round" stroke-linejoin="round" stroke-width="1.461"/><path d="m116.6128 66.3877 1.442-.376" stroke="#777" stroke-linecap="round" stroke-linejoin="round" stroke-width="1.49"/><path d="m91.2236 62.9043-1.68-.986" stroke="#777" stroke-linecap="round" stroke-linejoin="round" stroke-width="1.461"/><path d="m95.4771 81.6552-.986 1.681" stroke="#777" stroke-linecap="round" stroke-linejoin="round" stroke-width="1.461"/><path d="m89.6943 73.3955-1.923.501" stroke="#777" stroke-linecap="round" stroke-linejoin="round" stroke-width="1.49"/><path d="m100.4829 61.6045 2.377 9.133 9.134-2.377" stroke="#777" stroke-linecap="round" stroke-linejoin="round" stroke-width="1.987"/><path d="m92.3901 80.8134c-.964-.252-1.834-1.101-2.325-1.664-.166-.191-.476-.111-.528.137-.153.731-.499 1.897-1.217 2.587-.177.169-.102.458.135.519.964.252 1.833 1.101 2.324 1.665.167.191.476.11.528-.138.154-.731.499-1.896 1.218-2.586.176-.169.101-.458-.135-.52" fill="#fff"/><path d="m116.2744 108.792-10.337 2.691-1.345-5.169 10.336-2.69z" fill="#777"/><path d="m115.561 97.1201-14.692 3.825 1.545 5.937 14.692-3.825z" fill="#aaa"/><path d="m92.2568 138.9228c-3.538-13.591 4.611-27.478 18.203-31.016 13.591-3.538 27.477 4.612 31.016 18.203 3.538 13.591-4.612 27.477-18.203 31.016-13.591 3.538-27.477-4.611-31.016-18.203" fill="#ed6060"/><path d="m104.0049 154.4785c12.37 7.259 27.693 3.051 34.802-9.061 7.108-12.112 3.309-27.543-9.06-34.802z" fill="#e23b3b"/><path d="m97.959 137.4384c-2.718-10.441 3.543-21.11 13.985-23.829s21.111 3.543 23.829 13.984c2.719 10.443-3.543 21.112-13.984 23.83-10.443 2.718-21.111-3.543-23.83-13.985" fill="#fff"/><path d="m92.2568 138.9228c-3.538-13.591 4.611-27.478 18.203-31.016 13.591-3.538 27.477 4.612 31.016 18.203 3.538 13.591-4.612 27.477-18.203 31.016-13.591 3.538-27.477-4.611-31.016-18.203z" stroke="#777" stroke-linecap="round" stroke-linejoin="round" stroke-width="1.656"/><path d="m113.4717 119.7353-.5-1.923" stroke="#777" stroke-linecap="round" stroke-linejoin="round" stroke-width="1.49"/><path d="m120.855 148.0957-.375-1.441" stroke="#777" stroke-linecap="round" stroke-linejoin="round" stroke-width="1.49"/><path d="m123.8569 121.0537.986-1.681" stroke="#777" stroke-linecap="round" stroke-linejoin="round" stroke-width="1.461"/><path d="m129.2871 139.498 1.681.986" stroke="#777" stroke-linecap="round" stroke-linejoin="round" stroke-width="1.461"/><path d="m130.6128 129.3877 1.442-.376" stroke="#777" stroke-linecap="round" stroke-linejoin="round" stroke-width="1.49"/><path d="m105.2236 125.9043-1.68-.986" stroke="#777" stroke-linecap="round" stroke-linejoin="round" stroke-width="1.461"/><path d="m109.4771 144.6552-.986 1.681" stroke="#777" stroke-linecap="round" stroke-linejoin="round" stroke-width="1.461"/><path d="m103.6943 136.3955-1.923.501" stroke="#777" stroke-linecap="round" stroke-linejoin="round" stroke-width="1.49"/><path d="m114.4829 124.6045 2.377 9.133 9.134-2.377" stroke="#777" stroke-linecap="round" stroke-linejoin="round" stroke-width="1.987"/><path d="m106.3901 143.8134c-.964-.252-1.834-1.101-2.325-1.664-.166-.191-.476-.111-.528.137-.153.731-.499 1.897-1.217 2.587-.177.169-.102.458.135.519.964.252 1.833 1.101 2.324 1.665.167.191.476.11.528-.138.154-.731.499-1.896 1.218-2.586.176-.169.101-.458-.135-.52" fill="#fff"/><path d="m37.0415 27.1406c-2.668-1.494-4.594-4.687-5.615-6.74-.347-.697-1.329-.697-1.676 0-1.022 2.053-2.947 5.246-5.615 6.74-.655.366-.655 1.279 0 1.646 2.668 1.494 4.593 4.687 5.615 6.741.347.696 1.329.696 1.676 0 1.021-2.054 2.947-5.247 5.615-6.741.654-.367.654-1.28 0-1.646" fill="#ffc431"/><path d="m196.2617 22.1591c-2.668-1.493-4.594-4.687-5.615-6.74-.347-.697-1.329-.697-1.676 0-1.021 2.053-2.947 5.247-5.615 6.74-.655.367-.655 1.28 0 1.646 2.668 1.495 4.594 4.688 5.615 6.741.347.697 1.329.697 1.676 0 1.021-2.053 2.947-5.246 5.615-6.741.654-.366.654-1.279 0-1.646" fill="#ffc431"/><path d="m148.5908 7.6709c-2.668-1.494-4.594-4.687-5.615-6.74-.347-.697-1.329-.697-1.676 0-1.021 2.053-2.947 5.246-5.615 6.74-.655.366-.655 1.279 0 1.646 2.668 1.494 4.594 4.688 5.615 6.741.347.696 1.329.696 1.676 0 1.021-2.053 2.947-5.247 5.615-6.741.654-.367.654-1.28 0-1.646" fill="#ffc431"/><path d="m95.6567 14.0732c-2.668-1.493-4.594-4.687-5.615-6.74-.347-.697-1.329-.697-1.676 0-1.021 2.053-2.947 5.247-5.615 6.74-.655.367-.655 1.28 0 1.646 2.668 1.495 4.594 4.688 5.615 6.741.347.697 1.329.697 1.676 0 1.021-2.053 2.947-5.246 5.615-6.741.654-.366.654-1.279 0-1.646" fill="#ffc431"/><path d="m84 208.9756-24.528 26h108.528l-28-26z" fill="#caf5ff"/><path d="m83.9701157 208.9756h27.5298843l-27 26.017367h-25.397691z" fill="#46c4d1" opacity=".846"/><path d="m84 208.976h55.5v-27h-55.5z" fill="#caf5ff"/><path d="m111.4961 208.9756h27.504v-27z" fill="#46c4d1" opacity=".846"/><path d="m0 127.976h224v-53h-224z" fill="#caf5ff" fill-opacity=".5"/><path d="m113 75.9756v52h55z" fill="#46c4d1" fill-opacity=".5"/><path d="m1 75.9756v52h54.992z" fill="#46c4d1" fill-opacity=".5"/><path d="m112 74.9756h-55-2-55l55.992 53 .008-.009.008.009z" fill="#90edfc" fill-opacity=".5"/><path d="m223 127.9756h-55-2-53l55 54.5-1-1.509 1 1.509z" fill="#90edfc" fill-opacity=".5"/><path d="m113 127.9756h-57-2-53l57 54z" fill="#90edfc" fill-opacity=".5"/><path d="m224 74.9756h-55-2-55l55.992 53 .008-.009.008.009z" fill="#90edfc" fill-opacity=".5"/><path d="m58 181.9756h110l-55-54z" fill="#caf5ff" fill-opacity=".5"/><path d="m139 181.9756h-27.009-.982-27.009l27.496 27h.008z" fill="#90edfc"/><path d="m84 234.9756h27.009.982 27.009l-27.496-26.014-.004.011-.004-.014z" fill="#90edfc"/><path d="m58 181.9756-2.008-54h57.008z" fill="#46c4d1" fill-opacity=".5"/><path d="m168 182.4756-.008-54.5h57.008z" fill="#46c4d1" fill-opacity=".5"/><path d="m264.153 190.508h10.681v-5.341h-10.681z" fill="#777"/><path d="m261.902 185.167h15.182v-6.135h-15.182z" fill="#aaa"/><path d="m244 213.6162c0-14.045 11.385-25.43 25.43-25.43 14.044 0 25.429 11.385 25.429 25.43 0 14.044-11.385 25.429-25.429 25.429-14.045 0-25.43-11.385-25.43-25.429" fill="#ed6060"/><path d="m251.4497 231.6289c10.142 10.142 26.032 9.931 35.962 0 9.931-9.931 10.142-25.821.001-35.963z" fill="#e23b3b"/><path d="m249.8921 213.6162c0-10.791 8.747-19.538 19.538-19.538 10.79 0 19.537 8.747 19.537 19.538 0 10.79-8.747 19.537-19.537 19.537-10.791 0-19.538-8.747-19.538-19.537" fill="#fff"/><path d="m244 213.6162c0-14.045 11.385-25.43 25.43-25.43 14.044 0 25.429 11.385 25.429 25.43 0 14.044-11.385 25.429-25.429 25.429-14.045 0-25.43-11.385-25.43-25.429z" stroke="#777" stroke-linecap="round" stroke-linejoin="round" stroke-width="1.656"/><path d="m269.3647 200.3916v-1.987" stroke="#777" stroke-linecap="round" stroke-linejoin="round" stroke-width="1.49"/><path d="m269.3647 229.6972v-1.489" stroke="#777" stroke-linecap="round" stroke-linejoin="round" stroke-width="1.49"/><path d="m279.0825 204.2841 1.378-1.378" stroke="#777" stroke-linecap="round" stroke-linejoin="round" stroke-width="1.461"/><path d="m279.6909 223.5019 1.377 1.378" stroke="#777" stroke-linecap="round" stroke-linejoin="round" stroke-width="1.461"/><path d="m283.521 214.0508h1.49" stroke="#777" stroke-linecap="round" stroke-linejoin="round" stroke-width="1.49"/><path d="m259.8286 204.2841-1.377-1.378" stroke="#777" stroke-linecap="round" stroke-linejoin="round" stroke-width="1.461"/><path d="m259.2207 223.5019-1.378 1.378" stroke="#777" stroke-linecap="round" stroke-linejoin="round" stroke-width="1.461"/><path d="m255.7051 214.0508h-1.987" stroke="#777" stroke-linecap="round" stroke-linejoin="round" stroke-width="1.49"/><path d="m269.1162 205.3584v9.438h9.438" stroke="#777" stroke-linecap="round" stroke-linejoin="round" stroke-width="1.987"/><path d="m256.4448 221.9091c-.87-.487-1.497-1.527-1.83-2.196-.113-.228-.433-.228-.546 0-.332.669-.96 1.709-1.83 2.196-.213.119-.213.417 0 .536.87.487 1.498 1.528 1.83 2.197.113.227.433.227.546 0 .333-.669.96-1.71 1.83-2.197.213-.119.213-.417 0-.536" fill="#fff"/><path d="m213.833 196.9941-9.062-5.653 2.827-4.532 9.062 5.654z" fill="#777"/><path d="m221.8164 188.4502-12.881-8.036-3.247 5.204 12.881 8.036z" fill="#aaa"/><path d="m175.4414 200.2783c7.434-11.915 23.12-15.548 35.035-8.114 11.916 7.434 15.549 23.12 8.115 35.035-7.434 11.916-23.12 15.549-35.036 8.115-11.915-7.434-15.548-23.12-8.114-35.036" fill="#ed6060"/><path d="m172.2271 219.5049c3.236 13.972 16.829 22.204 30.511 19.035s22.272-16.538 19.036-30.511z" fill="#e23b3b"/><path d="m180.4404 203.3974c5.711-9.154 17.763-11.945 26.917-6.234 9.155 5.712 11.946 17.762 6.235 26.918-5.712 9.154-17.763 11.945-26.918 6.234-9.154-5.712-11.945-17.764-6.234-26.918" fill="#fff"/><path d="m175.4414 200.2783c7.434-11.915 23.12-15.548 35.035-8.114 11.916 7.434 15.549 23.12 8.115 35.035-7.434 11.916-23.12 15.549-35.036 8.115-11.915-7.434-15.548-23.12-8.114-35.036z" stroke="#777" stroke-linecap="round" stroke-linejoin="round" stroke-width="1.656"/><path d="m203.9614 202.4853 1.051-1.686" stroke="#777" stroke-linecap="round" stroke-linejoin="round" stroke-width="1.49"/><path d="m188.4487 227.3486.789-1.264" stroke="#777" stroke-linecap="round" stroke-linejoin="round" stroke-width="1.49"/><path d="m210.146 210.9316 1.898-.44" stroke="#777" stroke-linecap="round" stroke-linejoin="round" stroke-width="1.461"/><path d="m200.4893 227.5586.439 1.897" stroke="#777" stroke-linecap="round" stroke-linejoin="round" stroke-width="1.461"/><path d="m208.7412 221.5674 1.264.789" stroke="#777" stroke-linecap="round" stroke-linejoin="round" stroke-width="1.49"/><path d="m193.8105 200.7392-.44-1.897" stroke="#777" stroke-linecap="round" stroke-linejoin="round" stroke-width="1.461"/><path d="m183.1216 216.7226-1.898.439" stroke="#777" stroke-linecap="round" stroke-linejoin="round" stroke-width="1.461"/><path d="m185.1416 206.8437-1.686-1.052" stroke="#777" stroke-linecap="round" stroke-linejoin="round" stroke-width="1.49"/><path d="m201.1211 206.5674-4.996 8.008 8.008 4.995" stroke="#777" stroke-linecap="round" stroke-linejoin="round" stroke-width="1.987"/><path d="m181.6099 213.9023c-.48-.873-.461-2.089-.39-2.832.025-.253-.247-.422-.463-.289-.637.392-1.72.942-2.715.894-.245-.011-.402.242-.284.456.48.874.461 2.088.39 2.833-.025.251.247.421.463.289.636-.392 1.72-.943 2.715-.896.244.012.402-.241.284-.455" fill="#fff"/></g></g></svg>