<svg height="250" viewBox="0 0 350 250" width="350" xmlns="http://www.w3.org/2000/svg" xmlns:xlink="http://www.w3.org/1999/xlink"><mask id="a" fill="#fff"><path d="m0 249.345h296.139v-249.345h-296.139z" fill="none"/></mask><g fill="none" fill-rule="evenodd" transform="translate(29 -1)"><path d="m38.0415 36.7326c.654.366.654 1.279 0 1.646-2.668 1.494-4.594 4.687-5.615 6.741-.347.696-1.329.696-1.676 0-1.022-2.054-2.947-5.247-5.615-6.741-.655-.367-.655-1.28 0-1.646 2.668-1.494 4.593-4.687 5.615-6.74.347-.697 1.329-.697 1.676 0 1.021 2.053 2.947 5.246 5.615 6.74z" fill="#ffc431"/><path d="m197.2617 31.7512c-2.668-1.493-4.594-4.687-5.615-6.74-.347-.697-1.329-.697-1.676 0-1.021 2.053-2.947 5.247-5.615 6.74-.655.367-.655 1.28 0 1.646 2.668 1.495 4.594 4.688 5.615 6.741.347.697 1.329.697 1.676 0 1.021-2.053 2.947-5.246 5.615-6.741.654-.366.654-1.279 0-1.646" fill="#ffc431"/><path d="m149.5908 7.2629c-2.668-1.494-4.594-4.687-5.615-6.74-.347-.697-1.329-.697-1.676 0-1.021 2.053-2.947 5.246-5.615 6.74-.655.366-.655 1.279 0 1.646 2.668 1.494 4.594 4.688 5.615 6.741.347.696 1.329.696 1.676 0 1.021-2.053 2.947-5.247 5.615-6.741.654-.367.654-1.28 0-1.646" fill="#ffc431"/><path d="m96.6567 23.6653c-2.668-1.493-4.594-4.687-5.615-6.74-.347-.697-1.329-.697-1.676 0-1.021 2.053-2.947 5.247-5.615 6.74-.655.367-.655 1.28 0 1.646 2.668 1.495 4.594 4.688 5.615 6.741.347.697 1.329.697 1.676 0 1.021-2.053 2.947-5.246 5.615-6.741.654-.366.654-1.279 0-1.646" fill="#ffc431"/><path d="m168.002 118.66h10.602v-5.301h-10.602z" fill="#777" mask="url(#a)"/><path d="m165.768 113.36h15.069v-6.089h-15.069z" fill="#81ce74" mask="url(#a)"/><path d="m147.9995 141.5969c0-13.94 11.3-25.241 25.24-25.241s25.24 11.301 25.24 25.241c0 13.939-11.3 25.24-25.24 25.24s-25.24-11.301-25.24-25.24" fill="#81ce74" mask="url(#a)"/><path d="m155.394 159.4758c10.066 10.065 25.837 9.856 35.694-.001 9.857-9.856 10.067-25.628.001-35.694z" fill="#ffdd12" mask="url(#a)"/><path d="m153.8477 141.5969c0-10.71 8.682-19.393 19.392-19.393s19.392 8.683 19.392 19.393-8.682 19.392-19.392 19.392-19.392-8.682-19.392-19.392" fill="#fff" mask="url(#a)"/><g stroke="#777" stroke-linecap="round" stroke-linejoin="round"><path d="m147.9995 141.5969c0-13.94 11.3-25.241 25.24-25.241s25.24 11.301 25.24 25.241c0 13.939-11.3 25.24-25.24 25.24s-25.24-11.301-25.24-25.24z" mask="url(#a)" stroke-width="1.644"/><path d="m175.5 128.5676v-4" mask="url(#a)"/><g stroke-width="1.45"><path d="m182.8213 132.3342 1.367-1.368" mask="url(#a)"/><path d="m183.4248 151.4094 1.367 1.367" mask="url(#a)"/><path d="m163.7104 132.3342-1.368-1.368" mask="url(#a)"/><path d="m163.1069 151.4094-1.368 1.367" mask="url(#a)"/></g><path d="m175.5 136.5676v6.5h5.5" mask="url(#a)"/></g><path d="m160.3521 149.8283c-.863-.483-1.486-1.517-1.816-2.181-.113-.224-.431-.224-.542 0-.331.664-.954 1.698-1.817 2.181-.212.118-.212.414 0 .532.863.484 1.486 1.517 1.817 2.181.111.225.429.225.542 0 .33-.664.953-1.697 1.816-2.181.211-.118.211-.414 0-.532" fill="#fff" mask="url(#a)"/><path d="m79.0063 123.7551-8.962-5.663 2.831-4.481 8.963 5.664z" fill="#777" mask="url(#a)"/><path d="m86.9785 115.3205-12.739-8.05-3.252 5.148 12.739 8.049z" fill="#81ce74" mask="url(#a)"/><path d="m40.8818 126.7961c7.447-11.784 23.036-15.301 34.821-7.854 11.784 7.447 15.3 23.037 7.854 34.821-7.447 11.784-23.036 15.301-34.821 7.853-11.784-7.446-15.3-23.036-7.854-34.82" fill="#81ce74" mask="url(#a)"/><path d="m37.582 145.8606c3.133 13.887 16.577 22.135 30.175 19.067 13.598-3.067 22.2-16.288 19.069-30.174z" fill="#ffdd12" mask="url(#a)"/><path d="m45.8262 129.9201c5.721-9.054 17.698-11.755 26.752-6.034 9.054 5.722 11.755 17.699 6.035 26.753-5.722 9.053-17.699 11.755-26.753 6.034-9.054-5.722-11.755-17.698-6.034-26.753" fill="#fff" mask="url(#a)"/><g stroke="#777" stroke-linecap="round" stroke-linejoin="round"><path d="m40.8818 126.7961c7.447-11.784 23.036-15.301 34.821-7.854 11.784 7.447 15.3 23.037 7.854 34.821-7.447 11.784-23.036 15.301-34.821 7.853-11.784-7.446-15.3-23.036-7.854-34.82z" mask="url(#a)" stroke-width="1.644"/><path d="m69.0767 129.5012 1.033-1.635" mask="url(#a)" stroke-width="1.934"/><g stroke-width="1.45"><path d="m75.2671 137.5676 1.886-.426" mask="url(#a)"/><path d="m65.5874 154.0158.426 1.886" mask="url(#a)"/><path d="m59.1113 127.3586-.425-1.887" mask="url(#a)"/><path d="m48.4116 143.1613-1.887.426" mask="url(#a)"/></g><path d="m65.9766 134.4065-4.65 7.359 7.359 4.65" mask="url(#a)" stroke-width="1.934"/></g><path d="m46.9268 140.3537c-.471-.869-.446-2.075-.371-2.813.026-.25-.243-.42-.458-.29-.634.385-1.712.925-2.7.874-.242-.014-.4.236-.284.449.471.87.446 2.076.371 2.813-.026.251.242.421.458.29.633-.385 1.712-.926 2.7-.873.242.013.4-.237.284-.45" fill="#fff" mask="url(#a)"/><path d="m166.0063 68.7551-8.962-5.663 2.831-4.481 8.963 5.664z" fill="#777" mask="url(#a)"/><path d="m173.9785 60.3205-12.739-8.05-3.252 5.148 12.739 8.049z" fill="#81ce74" mask="url(#a)"/><path d="m127.8818 71.7961c7.447-11.784 23.036-15.301 34.821-7.854 11.784 7.447 15.3 23.037 7.854 34.821-7.447 11.784-23.036 15.301-34.821 7.853-11.784-7.446-15.3-23.036-7.854-34.82" fill="#81ce74" mask="url(#a)"/><path d="m124.582 90.8606c3.133 13.887 16.577 22.135 30.175 19.067 13.598-3.067 22.2-16.288 19.069-30.174z" fill="#ffdd12" mask="url(#a)"/><path d="m132.8262 74.9201c5.721-9.054 17.698-11.755 26.752-6.034 9.054 5.722 11.755 17.699 6.035 26.753-5.722 9.053-17.699 11.755-26.753 6.034-9.054-5.722-11.755-17.698-6.034-26.753" fill="#fff" mask="url(#a)"/><g stroke="#777" stroke-linecap="round" stroke-linejoin="round"><path d="m127.8818 71.7961c7.447-11.784 23.036-15.301 34.821-7.854 11.784 7.447 15.3 23.037 7.854 34.821-7.447 11.784-23.036 15.301-34.821 7.853-11.784-7.446-15.3-23.036-7.854-34.82z" mask="url(#a)" stroke-width="1.644"/><path d="m156.0767 74.5012 1.033-1.635" mask="url(#a)" stroke-width="1.934"/><path d="m162.2671 82.5676 1.886-.426" mask="url(#a)" stroke-width="1.45"/><path d="m152.5874 99.0158.426 1.886" mask="url(#a)" stroke-width="1.45"/><path d="m146.1113 72.3586-.425-1.887" mask="url(#a)" stroke-width="1.45"/><path d="m135.4116 88.1613-1.887.426" mask="url(#a)" stroke-width="1.45"/><path d="m152.9766 79.4065-4.65 7.359 7.359 4.65" mask="url(#a)" stroke-width="1.934"/></g><path d="m133.9268 85.3537c-.471-.869-.446-2.075-.371-2.813.026-.25-.243-.42-.458-.29-.634.385-1.712.925-2.7.874-.242-.014-.4.236-.284.449.471.87.446 2.076.371 2.813-.026.251.242.421.458.29.633-.385 1.712-.926 2.7-.873.242.013.4-.237.284-.45" fill="#fff" mask="url(#a)"/><path d="m215.0063 206.7551-8.962-5.663 2.831-4.481 8.963 5.664z" fill="#777" mask="url(#a)"/><path d="m222.9785 198.3205-12.739-8.05-3.252 5.148 12.739 8.049z" fill="#81ce74" mask="url(#a)"/><path d="m176.8818 209.7961c7.447-11.784 23.036-15.301 34.821-7.854 11.784 7.447 15.3 23.037 7.854 34.821-7.447 11.784-23.036 15.301-34.821 7.853-11.784-7.446-15.3-23.036-7.854-34.82" fill="#81ce74" mask="url(#a)"/><path d="m173.582 228.8606c3.133 13.887 16.577 22.135 30.175 19.067 13.598-3.067 22.2-16.288 19.069-30.174z" fill="#ffdd12" mask="url(#a)"/><path d="m181.8262 212.9201c5.721-9.054 17.698-11.755 26.752-6.034 9.054 5.722 11.755 17.699 6.035 26.753-5.722 9.053-17.699 11.755-26.753 6.034-9.054-5.722-11.755-17.698-6.034-26.753" fill="#fff" mask="url(#a)"/><path d="m176.8818 209.7961c7.447-11.784 23.036-15.301 34.821-7.854 11.784 7.447 15.3 23.037 7.854 34.821-7.447 11.784-23.036 15.301-34.821 7.853-11.784-7.446-15.3-23.036-7.854-34.82z" mask="url(#a)" stroke="#777" stroke-linecap="round" stroke-linejoin="round" stroke-width="1.644"/><path d="m205.0767 212.5012 1.033-1.635" mask="url(#a)" stroke="#777" stroke-linecap="round" stroke-linejoin="round" stroke-width="1.934"/><path d="m211.2671 220.5676 1.886-.426" mask="url(#a)" stroke="#777" stroke-linecap="round" stroke-linejoin="round" stroke-width="1.45"/><path d="m201.5874 237.0158.426 1.886" mask="url(#a)" stroke="#777" stroke-linecap="round" stroke-linejoin="round" stroke-width="1.45"/><path d="m195.1113 210.3586-.425-1.887" mask="url(#a)" stroke="#777" stroke-linecap="round" stroke-linejoin="round" stroke-width="1.45"/><path d="m184.4116 226.1613-1.887.426" mask="url(#a)" stroke="#777" stroke-linecap="round" stroke-linejoin="round" stroke-width="1.45"/><path d="m201.9766 217.4065-4.65 7.359 7.359 4.65" mask="url(#a)" stroke="#777" stroke-linecap="round" stroke-linejoin="round" stroke-width="1.934"/><path d="m182.9268 223.3537c-.471-.869-.446-2.075-.371-2.813.026-.25-.243-.42-.458-.29-.634.385-1.712.925-2.7.874-.242-.014-.4.236-.284.449.471.87.446 2.076.371 2.813-.026.251.242.421.458.29.633-.385 1.712-.926 2.7-.873.242.013.4-.237.284-.45" fill="#fff" mask="url(#a)"/><path d="m117.9033 118.8723-10.342 2.333-1.166-5.171 10.341-2.333z" fill="#777" mask="url(#a)"/><path d="m117.5762 107.2707-14.7 3.315 1.34 5.94 14.7-3.316z" fill="#81ce74" mask="url(#a)"/><path d="m93.3359 147.9807c-3.067-13.599 5.47-27.108 19.068-30.176 13.598-3.067 27.108 5.47 30.176 19.069 3.067 13.598-5.471 27.108-19.069 30.175-13.598 3.068-27.108-5.469-30.175-19.068" fill="#81ce74" mask="url(#a)"/><path d="m104.4829 163.7951c12.035 7.604 27.374 3.929 34.82-7.854 7.446-11.785 4.18-27.216-7.854-34.821z" fill="#ffdd12" mask="url(#a)"/><path d="m99.041 146.6936c-2.356-10.447 4.202-20.827 14.65-23.184 10.447-2.356 20.827 4.204 23.183 14.651 2.357 10.447-4.202 20.827-14.649 23.183-10.448 2.357-20.828-4.202-23.184-14.65" fill="#fff" mask="url(#a)"/><path d="m93.3359 147.9807c-3.067-13.599 5.47-27.108 19.068-30.176 13.598-3.067 27.108 5.47 30.176 19.069 3.067 13.598-5.471 27.108-19.069 30.175-13.598 3.068-27.108-5.469-30.175-19.068z" mask="url(#a)" stroke="#777" stroke-linecap="round" stroke-linejoin="round" stroke-width="1.644"/><path d="m115.1851 129.9563-.426-1.887" mask="url(#a)" stroke="#777" stroke-linecap="round" stroke-linejoin="round" stroke-width="1.934"/><path d="m125.2661 131.2834 1.033-1.635" mask="url(#a)" stroke="#777" stroke-linecap="round" stroke-linejoin="round" stroke-width="1.45"/><path d="m130.0522 149.758 1.635 1.033" mask="url(#a)" stroke="#777" stroke-linecap="round" stroke-linejoin="round" stroke-width="1.45"/><path d="m106.6235 135.4885-1.635-1.033" mask="url(#a)" stroke="#777" stroke-linecap="round" stroke-linejoin="round" stroke-width="1.45"/><path d="m110.2319 154.2287-1.033 1.635" mask="url(#a)" stroke="#777" stroke-linecap="round" stroke-linejoin="round" stroke-width="1.45"/><path d="m116.4619 135.6174 1.916 8.491 8.49-1.915" mask="url(#a)" stroke="#777" stroke-linecap="round" stroke-linejoin="round" stroke-width="1.934"/><path d="m106.9565 153.2932c-.948-.282-1.783-1.152-2.251-1.728-.159-.195-.469-.125-.529.12-.176.72-.556 1.865-1.292 2.526-.18.162-.115.45.117.519.948.282 1.783 1.153 2.251 1.728.16.195.47.125.529-.119.176-.721.557-1.865 1.292-2.527.181-.163.116-.451-.117-.519" fill="#fff" mask="url(#a)"/><path d="m103.9033 55.8723-10.342 2.333-1.166-5.171 10.341-2.333z" fill="#777" mask="url(#a)"/><path d="m103.5762 44.2707-14.7 3.315 1.34 5.94 14.7-3.316z" fill="#81ce74" mask="url(#a)"/><path d="m79.3359 84.9807c-3.067-13.599 5.47-27.108 19.068-30.176 13.598-3.067 27.108 5.47 30.176 19.069 3.067 13.598-5.471 27.108-19.069 30.175-13.598 3.068-27.108-5.469-30.175-19.068" fill="#81ce74" mask="url(#a)"/><path d="m90.4829 100.7951c12.035 7.604 27.374 3.929 34.82-7.854 7.446-11.785 4.18-27.216-7.854-34.821z" fill="#ffdd12" mask="url(#a)"/><path d="m85.041 83.6936c-2.356-10.447 4.202-20.827 14.65-23.184 10.447-2.356 20.827 4.204 23.183 14.651 2.357 10.447-4.202 20.827-14.649 23.183-10.448 2.357-20.828-4.202-23.184-14.65" fill="#fff" mask="url(#a)"/><path d="m79.3359 84.9807c-3.067-13.599 5.47-27.108 19.068-30.176 13.598-3.067 27.108 5.47 30.176 19.069 3.067 13.598-5.471 27.108-19.069 30.175-13.598 3.068-27.108-5.469-30.175-19.068z" mask="url(#a)" stroke="#777" stroke-linecap="round" stroke-linejoin="round" stroke-width="1.644"/><path d="m101.1851 66.9563-.426-1.887" mask="url(#a)" stroke="#777" stroke-linecap="round" stroke-linejoin="round" stroke-width="1.934"/><path d="m111.2661 68.2834 1.033-1.635" mask="url(#a)" stroke="#777" stroke-linecap="round" stroke-linejoin="round" stroke-width="1.45"/><path d="m116.0522 86.758 1.635 1.033" mask="url(#a)" stroke="#777" stroke-linecap="round" stroke-linejoin="round" stroke-width="1.45"/><path d="m92.6235 72.4885-1.635-1.033" mask="url(#a)" stroke="#777" stroke-linecap="round" stroke-linejoin="round" stroke-width="1.45"/><path d="m96.2319 91.2287-1.033 1.635" mask="url(#a)" stroke="#777" stroke-linecap="round" stroke-linejoin="round" stroke-width="1.45"/><path d="m102.4619 72.6174 1.916 8.491 8.49-1.915" mask="url(#a)" stroke="#777" stroke-linecap="round" stroke-linejoin="round" stroke-width="1.934"/><path d="m92.9565 90.2932c-.948-.282-1.783-1.152-2.251-1.728-.159-.195-.469-.125-.529.12-.176.72-.556 1.865-1.292 2.526-.18.162-.115.45.117.519.948.282 1.783 1.153 2.251 1.728.16.195.47.125.529-.119.176-.721.557-1.865 1.292-2.527.181-.163.116-.451-.117-.519" fill="#fff" mask="url(#a)"/><path d="m58.4341 66.7961-9.576-4.55 2.274-4.788 9.576 4.55z" fill="#777" mask="url(#a)"/><path d="m65.3389 57.466-13.611-6.466-2.613 5.5 13.611 6.466z" fill="#81ce74" mask="url(#a)"/><path d="m21.1372 74.5295c5.981-12.592 21.038-17.95 33.629-11.969 12.592 5.982 17.95 21.038 11.969 33.629-5.982 12.592-21.038 17.95-33.629 11.969-12.592-5.982-17.95-21.037-11.969-33.629" fill="#81ce74" mask="url(#a)"/><path d="m20.1445 93.8518c4.773 13.411 19.109 19.989 32.242 15.315 13.133-4.673 20.09-18.829 15.317-32.241z" fill="#ffdd12" mask="url(#a)"/><path d="m26.4199 77.0393c4.596-9.674 16.163-13.791 25.837-9.195 9.674 4.595 13.791 16.163 9.195 25.837-4.595 9.673-16.163 13.79-25.837 9.195-9.674-4.596-13.79-16.163-9.195-25.837" fill="#fff" mask="url(#a)"/><path d="m21.1372 74.5295c5.981-12.592 21.038-17.95 33.629-11.969 12.592 5.982 17.95 21.038 11.969 33.629-5.982 12.592-21.038 17.95-33.629 11.969-12.592-5.982-17.95-21.037-11.969-33.629z" mask="url(#a)" stroke="#777" stroke-linecap="round" stroke-linejoin="round" stroke-width="1.644"/><path d="m49.4531 73.8381.83-1.748" mask="url(#a)" stroke="#777" stroke-linecap="round" stroke-linejoin="round" stroke-width="1.934"/><path d="m56.5649 81.1047 1.822-.648" mask="url(#a)" stroke="#777" stroke-linecap="round" stroke-linejoin="round" stroke-width="1.45"/><path d="m48.9253 98.593.648 1.822" mask="url(#a)" stroke="#777" stroke-linecap="round" stroke-linejoin="round" stroke-width="1.45"/><path d="m39.3027 72.9045-.648-1.822" mask="url(#a)" stroke="#777" stroke-linecap="round" stroke-linejoin="round" stroke-width="1.45"/><path d="m30.5728 89.8752-1.822.648" mask="url(#a)" stroke="#777" stroke-linecap="round" stroke-linejoin="round" stroke-width="1.45"/><path d="m46.9629 79.0793-3.735 7.862 7.862 3.736" mask="url(#a)" stroke="#777" stroke-linecap="round" stroke-linejoin="round" stroke-width="1.934"/><path d="m28.5737 87.1174c-.572-.808-.691-2.008-.705-2.749-.004-.252-.292-.388-.49-.232-.583.458-1.589 1.124-2.576 1.189-.242.017-.369.283-.228.481.572.807.691 2.007.705 2.748.004.252.292.389.489.234.584-.459 1.59-1.124 2.576-1.191.243-.016.37-.283.229-.48" fill="#fff" mask="url(#a)"/><path d="m85 218.5676-24.528 26h108.528l-28-26z" fill="#caf5ff" mask="url(#a)"/><path d="m85.5 218.5676h27l-27 25.800465h-25.0557004z" fill="#46c4d1" mask="url(#a)" opacity=".805"/><path d="m85 218.568h55.5v-27h-55.5z" fill="#caf5ff" mask="url(#a)"/><path d="m112.4961 218.5676h27.504v-27z" fill="#46c4d1" mask="url(#a)" opacity=".805"/><g fill-opacity=".5"><path d="m1 137.568h224v-53h-224z" fill="#caf5ff" mask="url(#a)"/><path d="m114 85.5676v52h55z" fill="#46c4d1" mask="url(#a)"/><path d="m2 85.5676v52h54.992z" fill="#46c4d1" mask="url(#a)"/><g fill="#90edfc"><path d="m113 84.5676h-55-2-55l55.992 53 .008-.009.008.009z" mask="url(#a)"/><path d="m224 137.5676h-55-2-53l55 54.5-1-1.509 1 1.509z" mask="url(#a)"/><path d="m114 137.5676h-57-2-53l57 54z" mask="url(#a)"/><path d="m225 84.5676h-55-2-55l55.992 53 .008-.009.008.009z" mask="url(#a)"/></g><path d="m59 191.5676h110l-55-54z" fill="#caf5ff" mask="url(#a)"/></g><path d="m140 191.5676h-27.009-.982-27.009l27.496 27h.008z" fill="#90edfc" mask="url(#a)"/><path d="m85 244.5676h27.009.982 27.009l-27.496-26.014-.004.011-.004-.014z" fill="#90edfc" mask="url(#a)"/><path d="m59 191.5676-2.008-54h57.008z" fill="#46c4d1" fill-opacity=".5" mask="url(#a)"/><path d="m169 192.0676-.008-54.5h57.008z" fill="#46c4d1" fill-opacity=".5" mask="url(#a)"/><path d="m276.8481 200.2444-10.582-.655.328-5.291 10.582.656z" fill="#777" mask="url(#a)"/><path d="m279.7817 189.0149-15.041-.932-.376 6.078 15.041.931z" fill="#81ce74" mask="url(#a)"/><path d="m244.8843 221.2453c.862-13.913 12.839-24.494 26.752-23.632 13.914.861 24.494 12.839 23.632 26.752s-12.839 24.494-26.752 23.632c-13.913-.861-24.494-12.839-23.632-26.752" fill="#81ce74" mask="url(#a)"/><path d="m251.1597 239.5471c9.425 10.669 25.179 11.435 35.626 2.206 10.447-9.228 11.631-24.957 2.207-35.626z" fill="#ffdd12" mask="url(#a)"/><path d="m250.7217 221.6067c.662-10.689 9.864-18.818 20.553-18.156 10.69.662 18.819 9.864 18.156 20.553-.661 10.69-9.863 18.819-20.553 18.157-10.689-.662-18.818-9.865-18.156-20.554" fill="#fff" mask="url(#a)"/><path d="m244.8843 221.2453c.862-13.913 12.839-24.494 26.752-23.632 13.914.861 24.494 12.839 23.632 26.752s-12.839 24.494-26.752 23.632c-13.913-.861-24.494-12.839-23.632-26.752z" mask="url(#a)" stroke="#777" stroke-linecap="round" stroke-linejoin="round" stroke-width="1.644"/><path d="m270.9053 210.0578.12-1.931" mask="url(#a)" stroke="#777" stroke-linecap="round" stroke-linejoin="round" stroke-width="1.934"/><path d="m280.2119 214.1526 1.45-1.28" mask="url(#a)" stroke="#777" stroke-linecap="round" stroke-linejoin="round" stroke-width="1.45"/><path d="m279.6353 233.2287 1.28 1.449" mask="url(#a)" stroke="#777" stroke-linecap="round" stroke-linejoin="round" stroke-width="1.45"/><path d="m261.1377 212.9719-1.28-1.45" mask="url(#a)" stroke="#777" stroke-linecap="round" stroke-linejoin="round" stroke-width="1.45"/><path d="m259.3564 231.9729-1.45 1.28" mask="url(#a)" stroke="#777" stroke-linecap="round" stroke-linejoin="round" stroke-width="1.45"/><path d="m270.5464 215.8498-.538 8.688 8.688.538" mask="url(#a)" stroke="#777" stroke-linecap="round" stroke-linejoin="round" stroke-width="1.934"/><path d="m256.7046 230.2248c-.832-.536-1.39-1.605-1.678-2.288-.098-.233-.415-.252-.541-.034-.371.642-1.056 1.635-1.948 2.064-.218.105-.237.4-.033.531.832.536 1.389 1.606 1.678 2.289.098.232.416.251.541.033.371-.642 1.057-1.635 1.948-2.064.219-.105.237-.4.033-.531" fill="#fff" mask="url(#a)"/></g></svg>