<svg height="250" viewBox="0 0 350 250" width="350" xmlns="http://www.w3.org/2000/svg"><g fill="none" fill-rule="evenodd" transform="translate(11 7)"><path d="m170.1016 33.2299-14.983-7.722-15.014-7.736-20.087 9.867 10.631 45.354 43.083-17.658z" fill="#32d6af"/><path d="m120.0103 27.6518 53.715 27.696-3.624-22.118-29.859-15.388z" fill="#25997a"/><path d="m120.041 27.5932 17.909 9.223-7.288 36.151z" fill="#5be8c0"/><path d="m173.7393 55.2641-17.905-9.232-25.21 26.916z" fill="#2baa85"/><path d="m140.3672 17.643-2.361 19.066-17.872-9.21z" fill="#32d6af"/><path d="m170.1816 33.0747-14.292 12.851-17.884-9.216 2.341-19.027z" fill="#1bc195"/><g transform="translate(0 .038)"><path d="m141.4648 38.0728c.238.359-.003.827-.435.843-1.76.06-3.588 1.187-4.652 1.969-.362.265-.865.006-.858-.442.018-1.321-.125-3.464-1.097-4.933-.238-.36.002-.828.434-.842 1.76-.061 3.589-1.188 4.653-1.97.362-.265.865-.006.858.442-.019 1.321.125 3.463 1.097 4.933z" fill="#fff"/><path d="m140.3003 17.7349 29.85 15.362 3.589 22.129-43.115 17.684-10.553-45.328z" stroke="#777" stroke-linecap="round" stroke-linejoin="round" stroke-width="1.476"/><path d="m238.0811 189.9537-15.999-8.244-16.029-8.261-21.448 10.535 11.351 48.425 46.001-18.852z" fill="#32d6af"/><path d="m184.5977 183.9986 57.353 29.57-3.87-23.615-31.881-16.429z" fill="#25997a"/><path d="m184.6304 183.9351 19.122 9.848-7.782 38.598z" fill="#5be8c0"/><path d="m241.9648 213.48-19.117-9.857-26.918 28.738z" fill="#2baa85"/><path d="m206.333 173.3111-2.521 20.357-19.083-9.833z" fill="#32d6af"/><path d="m238.166 189.7876-15.259 13.721-19.095-9.84 2.499-20.315z" fill="#1bc195"/><path d="m207.5049 195.1646c-1.038-1.568-1.191-3.856-1.171-5.267.007-.478-.53-.754-.916-.471-1.137.835-3.089 2.038-4.968 2.102-.461.017-.718.516-.464.901 1.038 1.568 1.191 3.856 1.171 5.265-.007.479.53.756.916.473 1.137-.835 3.089-2.038 4.968-2.104.461-.015.718-.514.464-.899" fill="#fff"/><path d="m206.2612 173.4507 31.872 16.401 3.832 23.628-46.035 18.881-11.267-48.397z" stroke="#777" stroke-linecap="round" stroke-linejoin="round" stroke-width="1.576"/><g fill="#ffc431"><path d="m33.6401 13.2066c-2.668-1.494-4.594-4.687-5.615-6.741-.347-.696-1.329-.696-1.676 0-1.022 2.054-2.947 5.247-5.615 6.741-.655.366-.655 1.279 0 1.646 2.668 1.494 4.593 4.687 5.615 6.74.347.697 1.329.697 1.676 0 1.021-2.053 2.947-5.246 5.615-6.74.654-.367.654-1.28 0-1.646"/><path d="m174.0796 8.2251c-2.668-1.494-4.594-4.687-5.615-6.74-.347-.697-1.329-.697-1.676 0-1.021 2.053-2.947 5.246-5.615 6.74-.655.366-.655 1.28 0 1.646 2.668 1.495 4.594 4.688 5.615 6.741.347.696 1.329.696 1.676 0 1.021-2.053 2.947-5.246 5.615-6.741.654-.366.654-1.28 0-1.646"/><path d="m212.355 34.6099c-2.669-1.493-4.594-4.687-5.616-6.74-.346-.697-1.329-.697-1.675 0-1.022 2.053-2.947 5.247-5.615 6.74-.655.366-.655 1.28 0 1.646 2.668 1.495 4.593 4.688 5.615 6.741.346.697 1.329.697 1.675 0 1.022-2.053 2.947-5.246 5.616-6.741.654-.366.654-1.28 0-1.646"/><path d="m100.3027 9.7281c-2.669-1.494-4.594-4.687-5.616-6.74-.346-.697-1.329-.697-1.675 0-1.022 2.053-2.947 5.246-5.616 6.74-.654.366-.654 1.28 0 1.646 2.669 1.495 4.594 4.688 5.616 6.741.346.696 1.329.696 1.675 0 1.022-2.053 2.947-5.246 5.616-6.741.654-.366.654-1.28 0-1.646"/></g><path d="m51.0381 22.4966-15.113 7.465-15.143 7.479-3.908 22.202 42.842 18.485 11.327-45.282z" fill="#32d6af"/><path d="m16.8804 59.6558 54.147-26.843-19.989-10.316-30.117 14.876z" fill="#25997a"/><path d="m16.9404 59.7769 18.06-8.926 24.748 27.341z" fill="#5be8c0"/><path d="m71.1025 33.024-18.064 8.917 6.672 36.271z" fill="#2baa85"/><path d="m20.8345 37.1529 13.933 13.228-18.026 8.904z" fill="#32d6af"/><path d="m51.0508 22.521 1.755 18.949-18.038 8.91-13.868-13.096z" fill="#1bc195"/><path d="m38.1289 48.7935c-1.759-.091-3.568-1.249-4.619-2.049-.357-.271-.864-.02-.865.428-.004 1.32-.183 3.461-1.181 4.913-.244.356-.011.828.42.85 1.76.09 3.568 1.249 4.62 2.048.356.272.863.021.865-.427.003-1.321.183-3.461 1.18-4.913.245-.356.012-.828-.42-.85" fill="#fff"/><path d="m21.0786 37.647 30.091-14.884 19.933 10.261-11.392 45.187-42.73-18.443z" stroke="#777" stroke-linecap="round" stroke-linejoin="round" stroke-width="1.476"/><path d="m124.2041 39.5513h-16.856-16.89l-13.336 17.883 30.226 35.4 30.209-35.364z" fill="#32d6af"/><path d="m77.1221 57.4488 60.435.059-13.353-17.956h-33.591z" fill="#25997a"/><path d="m77.1221 57.2915 20.145-.005 10.081 35.474z" fill="#5be8c0"/><path d="m137.5312 57.2915-20.145-.005-10.081 35.474z" fill="#2baa85"/><path d="m90.6328 39.522 6.634 18.029h-20.105z" fill="#32d6af"/><path d="m124.2041 39.3892-6.818 18.162h-20.119l-6.634-18.081z" fill="#1bc195"/><path d="m100.9839 56.8277c-1.537-.86-2.646-2.7-3.234-3.882-.2-.401-.766-.401-.965 0-.589 1.182-1.697 3.022-3.235 3.882-.376.211-.376.737 0 .948 1.538.861 2.646 2.699 3.235 3.882.199.401.765.401.965 0 .588-1.183 1.697-3.021 3.234-3.882.377-.211.377-.737 0-.948" fill="#fff"/><path d="m90.6328 39.2828 33.571-.019 13.327 18.028-30.226 35.469-30.143-35.459z" stroke="#777" stroke-linecap="round" stroke-linejoin="round" stroke-width="1.476"/><path d="m192.5747 54.5513h-16.856-16.89l-13.336 17.875 30.226 35.396 30.209-35.357z" fill="#32d6af"/><path d="m145.4927 72.441 60.435.062-13.353-17.952h-33.591z" fill="#25997a"/><path d="m145.4927 72.2769 20.145-.005 10.081 35.474z" fill="#5be8c0"/><path d="m205.9019 72.2769-20.145-.005-10.081 35.474z" fill="#2baa85"/><path d="m159.0034 54.522 6.634 18.029h-20.105z" fill="#32d6af"/><path d="m192.5747 54.3824-6.818 18.169h-20.119l-6.634-18.085z" fill="#1bc195"/><path d="m169.3545 71.813c-1.537-.86-2.646-2.7-3.234-3.883-.2-.4-.766-.4-.965 0-.589 1.183-1.697 3.023-3.235 3.883-.377.211-.377.737 0 .948 1.538.861 2.646 2.699 3.235 3.882.199.401.765.401.965 0 .588-1.183 1.697-3.021 3.234-3.882.377-.211.377-.737 0-.948" fill="#fff"/><path d="m159.0034 54.2681 33.571-.019 13.327 18.028-30.226 35.469-30.143-35.459z" stroke="#777" stroke-linecap="round" stroke-linejoin="round" stroke-width="1.476"/><path d="m75.7012 87.8804-14.553 8.506-14.581 8.521-2.446 22.247 43.981 15.35 8.203-45.833z" fill="#32d6af"/><path d="m44.1289 127.1675 52.184-30.483-20.612-8.804-29.001 16.95z" fill="#25997a"/><path d="m44.0952 127.1099 17.39-10.17 26.603 25.54z" fill="#5be8c0"/><path d="m96.25 96.6275-17.395 10.161 9.197 35.713z" fill="#2baa85"/><path d="m46.5986 104.6177 14.826 12.218-17.358 10.145z" fill="#32d6af"/><path d="m75.6133 87.73 3.181 18.954-17.37 10.151-14.803-12.178z" fill="#1bc195"/><path d="m64.4624 114.6685c-1.761.032-3.647-.996-4.751-1.72-.375-.246-.864.039-.833.487.088 1.318.059 3.465-.834 4.984-.219.372.047.826.479.818 1.761-.033 3.647.995 4.751 1.72.375.245.863-.04.833-.487-.089-1.318-.06-3.465.833-4.984.219-.372-.046-.827-.478-.818" fill="#fff"/><path d="m46.6729 104.7437 28.975-16.955 20.602 8.839-8.198 45.874-43.917-15.404z" stroke="#777" stroke-linecap="round" stroke-linejoin="round" stroke-width="1.476"/><path d="m162.0913 122.8218-10.378-13.283-10.398-13.309-22.373.557-9.322 45.64 46.518 1.991z" fill="#32d6af"/><path d="m118.9302 96.7955 37.197 47.631 5.964-21.605-20.681-26.469z" fill="#25997a"/><path d="m118.9829 96.7544 12.407 15.871-21.747 29.784z" fill="#5be8c0"/><path d="m156.1748 144.357-12.398-15.878-34.161 13.897z" fill="#2baa85"/><path d="m141.6074 96.2232-10.123 16.328-12.378-15.843z" fill="#32d6af"/><path d="m162.229 122.7144-18.358 5.69-12.386-15.853 10.087-16.301z" fill="#1bc195"/><path d="m134.04 115.271c-.269-1.74.498-3.747 1.068-4.938.193-.405-.155-.85-.594-.761-1.294.264-3.427.523-5.051-.158-.398-.167-.813.157-.747.584.268 1.741-.498 3.747-1.068 4.938-.193.404.155.851.594.761 1.294-.265 3.426-.524 5.051.158.398.167.812-.156.747-.584" fill="#fff"/><path d="m141.4922 96.313 20.683 26.443-6 21.601-46.559-1.982 9.383-45.583z" stroke="#777" stroke-linecap="round" stroke-linejoin="round" stroke-width="1.476"/><path d="m84 202.5513-24.528 26h108.528l-28-26z" fill="#caf5ff"/><path d="m83.9118978 202.5513h27.5881022l-27.5881022 26.020986h-25.8906727z" fill="#46c4d1"/><path d="m84 202.551h55.5v-27h-55.5z" fill="#caf5ff"/><path d="m111.4961 202.5513h27.504v-27z" fill="#46c4d1"/><g fill-opacity=".5"><path d="m0 121.551h224v-53h-224z" fill="#caf5ff"/><path d="m113 69.5513v52h55z" fill="#46c4d1"/><path d="m1 69.5513v52h54.992z" fill="#46c4d1"/><path d="m112 68.5513h-55-2-55l55.992 53 .008-.009.008.009z" fill="#90edfc"/></g><path d="m223 121.5513h-55-2-53l55 54.5-1-1.509 1 1.509z" fill="#90edfc" opacity=".5"/><path d="m113 121.5513h-57-2-53l57 54z" fill="#90edfc" opacity=".5"/><g fill-opacity=".5"><path d="m224 68.5513h-55-2-55l55.992 53 .008-.009.008.009z" fill="#90edfc"/><path d="m58 175.5513h110l-55-54z" fill="#caf5ff"/><path d="m139 175.5513h-27.009-.982-27.009l27.496 27h.008z" fill="#90edfc"/><path d="m84 228.5513h27.009.982 27.009l-27.496-26.014-.004.011-.004-.014z" fill="#90edfc"/><g fill="#46c4d1"><path d="m58 175.5513-2.008-54h57.008z"/><path d="m168 176.0513-.008-54.5h57.008z"/></g></g><path d="m311.8984 176.6207-17.987.618-18.022.62-13.572 19.668 33.554 36.714 30.936-38.916z" fill="#32d6af"/><path d="m262.3179 197.5425 64.49-2.203-14.909-18.719-35.845 1.233z" fill="#25997a"/><path d="m262.3154 197.4712 21.497-.744 12.058 37.483z" fill="#5be8c0"/><path d="m326.7769 195.2544-21.497.734-9.455 38.223z" fill="#2baa85"/><path d="m276.0664 177.6021 7.741 18.996-21.454.737z" fill="#32d6af"/><path d="m311.8921 176.4351-6.616 19.425-21.469.738-7.739-18.948z" fill="#1bc195"/><path d="m287.7607 196.1001c-1.671-.861-2.922-2.784-3.593-4.023-.228-.421-.832-.401-1.03.035-.585 1.283-1.7 3.286-3.309 4.26-.394.24-.375.801.035 1.012 1.671.862 2.922 2.784 3.593 4.025.228.42.832.399 1.031-.037.584-1.283 1.7-3.286 3.308-4.26.394-.24.375-.801-.035-1.012" fill="#fff"/><path d="m276.0718 177.7583 35.823-1.251 14.882 18.747-30.952 38.957-33.466-36.731z" stroke="#777" stroke-linecap="round" stroke-linejoin="round" stroke-width="1.576"/></g></g></svg>