<svg height="250" viewBox="0 0 350 250" width="350" xmlns="http://www.w3.org/2000/svg"><g fill="none" fill-rule="evenodd" transform="translate(7)"><path d="m198.6582 110.1871c2.653.02 4.87 2.542 4.85 5.197l-.024 3.21c-.02 2.652-2.271 4.613-4.924 4.592l-19.252-.145c-2.653-.02-4.843-2.015-4.823-4.666l.024-3.209c.02-2.657 2.244-5.145 4.897-5.125l5.142.039.125-16.625c.007-.887.402-1.372 1.287-1.365l6.416.048c.886.007 1.303.498 1.297 1.384l-.126 16.626z" fill="#ffc431"/><path d="m198.6582 110.1871-5.111-.039.126-16.626c.006-.886-.411-1.377-1.297-1.384l-6.416-.048c-.885-.007-1.28.478-1.287 1.365l-.012 1.626 3.648.027c.886.007 1.345.868 1.339 1.755l-.131 17.255 5.066.038c2.653.02 4.92 1.913 4.9 4.568l-.025 3.211c-.004.5-.113.985-.269 1.442 2.352-.329 4.276-2.367 4.295-4.783l.024-3.21c.02-2.655-2.197-5.177-4.85-5.197" fill="#efab22"/><path d="m198.6582 110.1871-5.111-.039.126-16.626c.006-.886-.411-1.377-1.297-1.384l-6.416-.048c-.885-.007-1.28.478-1.287 1.365l-.125 16.625-5.142-.039c-2.653-.02-3.877 2.476-3.897 5.131l-.024 3.21c-.021 2.652 1.17 4.639 3.823 4.659l19.252.145c2.653.021 4.904-1.94 4.924-4.592l.024-3.21c.02-2.655-2.197-5.177-4.85-5.197z" stroke="#777" stroke-linecap="round" stroke-linejoin="round" stroke-width="2"/><path d="m206.6396 115.4078-35.293-.267c-.886-.006-1.61.707-1.617 1.591l-.122 16.046c-.006.884.707 1.609 1.594 1.615l35.292.267c.887.007 1.611-.707 1.618-1.591l.121-16.046c.007-.884-.707-1.608-1.593-1.615" fill="#777"/><path d="m207.6797 91.3502c-.632-.005-1.229-.387-1.478-1.01-.327-.823.072-1.757.897-2.085 6.219-2.479 10.259-7.198 12.01-14.022.899-3.503.939-6.711.868-8.46l-9.753-.074c-.886-.007-1.597-.731-1.59-1.618.006-.885.729-1.598 1.614-1.591l11.231.085c.802.005 1.474.601 1.578 1.394.029.208.653 5.14-.811 10.95-1.975 7.821-6.8 13.462-13.959 16.317-.2.079-.405.115-.607.114" fill="#efab22"/><path d="m170.6753 91.0699c-.202-.001-.406-.04-.604-.123-7.115-2.962-11.856-8.676-13.71-16.525-1.377-5.832-.679-10.754-.647-10.962.116-.791.798-1.376 1.599-1.37l11.23.084c.886.007 1.599.731 1.592 1.617-.006.885-.73 1.599-1.616 1.592l-9.753-.073c-.097 1.746-.104 4.954.742 8.472 1.646 6.85 5.614 11.629 11.796 14.202.819.342 1.205 1.281.865 2.099-.258.62-.862.992-1.494.987" fill="#efab22"/><path d="m210.2866 57.6774-41.712-.315c-.887-.007-1.61.706-1.617 1.591l-.157 20.857c-.046 6 2.248 11.658 6.458 15.931 4.209 4.273 9.833 6.652 15.832 6.698 5.999.045 11.657-2.248 15.931-6.457 4.274-4.21 6.653-9.832 6.698-15.832l.158-20.857c.007-.887-.705-1.609-1.591-1.616" fill="#ffc431"/><path d="m210.2866 57.6774-7.347-.056c.886.007 1.6.731 1.593 1.617l-.158 20.856c-.126 16.722-11.49 21.94-16.888 22.276.531.041 1.066.065 1.604.069 5.999.045 11.657-2.248 15.931-6.457 4.274-4.21 6.653-9.832 6.698-15.832l.158-20.857c.007-.887-.705-1.609-1.591-1.616" fill="#efab22"/><path d="m210.2866 57.6774-41.712-.315c-.887-.007-1.61.706-1.617 1.591l-.157 20.857c-.046 6 2.248 11.658 6.458 15.931 4.209 4.273 9.833 6.652 15.832 6.698 5.999.045 11.657-2.248 15.931-6.457 4.274-4.21 6.653-9.832 6.698-15.832l.158-20.857c.007-.887-.705-1.609-1.591-1.616z" stroke="#777" stroke-linecap="round" stroke-linejoin="round" stroke-width="2.128"/><path d="m206.6333 116.2477-9.167-.069c.885.006 2.037-.106 2.03.778l-.121 16.047c-.007.884-1.167 2.181-2.054 2.174l9.168.069c.887.007.878-1.3.885-2.183l.122-16.046c.006-.884.023-.764-.863-.77" fill="#4f4f4f"/><path d="m178.6855 65.4449c-1.625-.927-2.788-2.889-3.403-4.148-.209-.428-.809-.433-1.025-.008-.634 1.251-1.826 3.194-3.465 4.095-.402.222-.406.781-.008 1.007 1.626.926 2.788 2.889 3.403 4.149.209.427.81.432 1.025.008.634-1.251 1.827-3.196 3.466-4.097.402-.221.405-.779.007-1.006" fill="#fff"/><path d="m206.6396 115.4078-35.293-.267c-.886-.006-1.61.707-1.617 1.591l-.122 16.046c-.006.884.707 1.609 1.594 1.615l35.292.267c.887.007 1.611-.707 1.618-1.591l.121-16.046c.007-.884-.707-1.608-1.593-1.615z" stroke="#4f4f4f" stroke-linecap="round" stroke-linejoin="round" stroke-width="2.128"/><g fill="#c80"><path d="m189.1445 87.1695c-5.108.038-9.295-4.087-9.333-9.196-.006-.773.616-1.404 1.389-1.409.772-.006 1.403.616 1.409 1.388.027 3.566 2.949 6.445 6.514 6.418.773-.006 1.404.616 1.41 1.389.006.772-.616 1.404-1.389 1.41"/><path d="m181.8623 82.4107c-.546.004-1.068-.314-1.297-.848-1.49-3.47-.743-7.454 1.903-10.149.542-.552 1.428-.56 1.979-.018.552.541.56 1.427.019 1.979-1.848 1.881-2.369 4.662-1.329 7.084.305.71-.024 1.533-.734 1.838-.176.076-.36.112-.541.114"/><path d="m183.4766 73.7926c-.358.003-.718-.132-.993-.403-.55-.543-.556-1.429-.013-1.979 1.318-1.336 2.986-2.231 4.822-2.587 1.792-.347 3.628-.165 5.309.53.715.294 1.055 1.112.76 1.827-.295.714-1.113 1.054-1.827.759-2.441-1.007-5.217-.443-7.072 1.437-.272.274-.628.413-.986.416"/><path d="m195.3286 79.2672-8.487.062c-.773.006-1.404-.615-1.41-1.388-.005-.773.616-1.403 1.389-1.409 0 0 8.053-.061 8.285-.063.232-.001.26-.161.235-.251-.522-1.934-1.929-3.535-3.794-4.3-.715-.293-1.057-1.11-.764-1.825.294-.716 1.111-1.057 1.826-.764 2.741 1.124 4.793 3.509 5.491 6.381.208.855.017 1.745-.522 2.44-.542.698-1.358 1.105-2.241 1.117z"/></g><path d="m72.0068 98.2242-4.938 1.318-4.288-16.063c-.228-.857-.761-1.22-1.617-.991l-6.199 1.655c-.856.228-1.108.801-.879 1.656l4.288 16.064-4.968 1.326c-2.564.684-4.048 3.674-3.363 6.239l.828 3.102c.683 2.561 3.324 3.904 5.887 3.219l18.602-4.964c2.564-.685 4.213-3.172 3.53-5.734l-.828-3.101c-.685-2.567-3.492-4.411-6.055-3.726" fill="#ffc431"/><path d="m72.0068 98.2242-4.938 1.318-4.288-16.063c-.228-.857-.761-1.22-1.617-.991l-6.199 1.655c-.856.228-1.108.801-.879 1.656l.419 1.571 3.524-.94c.857-.228 1.528.481 1.757 1.337l4.45 16.671 4.895-1.306c2.564-.684 5.251.539 5.935 3.106l.828 3.101c.13.484.153.981.123 1.462 2.181-.941 3.495-3.416 2.873-5.75l-.828-3.101c-.685-2.567-3.492-4.411-6.055-3.726" fill="#efab22"/><path d="m72.0068 98.2242-4.938 1.318-4.288-16.063c-.228-.857-.761-1.22-1.617-.991l-6.199 1.655c-.856.228-1.108.801-.879 1.656l4.288 16.064-4.968 1.326c-2.564.684-3.082 3.416-2.397 5.981l.828 3.102c.684 2.561 2.358 4.162 4.921 3.477l18.602-4.964c2.564-.685 4.213-3.172 3.53-5.734l-.828-3.101c-.685-2.567-3.492-4.411-6.055-3.726z" stroke="#777" stroke-linecap="round" stroke-linejoin="round" stroke-width="2"/><path d="m81.0874 101.1422-34.1 9.102c-.857.228-1.366 1.109-1.138 1.962l4.139 15.504c.227.854 1.108 1.364 1.964 1.135l34.1-9.102c.856-.229 1.366-1.109 1.138-1.962l-4.139-15.505c-.228-.854-1.108-1.363-1.964-1.134" fill="#777"/><path d="m75.71 77.6695c-.611.163-1.287-.047-1.693-.582-.534-.706-.396-1.713.312-2.248 5.339-4.04 7.983-9.66 7.861-16.705-.063-3.616-.874-6.72-1.406-8.388l-9.424 2.516c-.856.228-1.733-.281-1.962-1.138-.229-.855.279-1.734 1.135-1.963l10.851-2.896c.775-.207 1.58.188 1.891.925.084.194 1.993 4.784 2.122 10.774.17 8.064-2.986 14.783-9.132 19.434-.172.129-.36.218-.555.271" fill="#efab22"/><path d="m39.9565 87.2125c-.195.053-.403.069-.615.042-7.646-.97-13.733-5.222-17.603-12.298-2.873-5.258-3.505-10.189-3.531-10.397-.097-.794.406-1.539 1.179-1.745l10.852-2.897c.856-.228 1.735.28 1.963 1.136.229.856-.28 1.736-1.136 1.965l-9.423 2.514c.369 1.71 1.213 4.806 2.961 7.973 3.404 6.169 8.498 9.724 15.141 10.565.879.112 1.502.915 1.391 1.794-.085.666-.568 1.185-1.179 1.348" fill="#efab22"/><path d="m69.2939 44.5113-40.303 10.758c-.856.228-1.364 1.107-1.136 1.963l5.379 20.152c1.548 5.797 5.259 10.644 10.452 13.648 5.192 3.003 11.245 3.806 17.041 2.258 5.797-1.547 10.644-5.258 13.649-10.45 3.004-5.192 3.807-11.244 2.259-17.041l-5.379-20.152c-.228-.856-1.106-1.365-1.962-1.136" fill="#ffc431"/><path d="m69.2939 44.5113-7.099 1.895c.856-.229 1.736.279 1.965 1.135l5.379 20.152c4.312 16.156-5.261 24.203-10.376 25.957.523-.101 1.044-.22 1.564-.36 5.797-1.547 10.644-5.258 13.649-10.45 3.004-5.192 3.807-11.244 2.259-17.041l-5.379-20.152c-.228-.856-1.106-1.365-1.962-1.136" fill="#efab22"/><path d="m69.2939 44.5113-40.303 10.758c-.856.228-1.364 1.107-1.136 1.963l5.379 20.152c1.548 5.797 5.259 10.644 10.452 13.648 5.192 3.003 11.245 3.806 17.041 2.258 5.797-1.547 10.644-5.258 13.649-10.45 3.004-5.192 3.807-11.244 2.259-17.041l-5.379-20.152c-.228-.856-1.106-1.365-1.962-1.136z" stroke="#777" stroke-linecap="round" stroke-linejoin="round" stroke-width="2.128"/><path d="m81.3037 101.9527-8.858 2.364c.856-.228 1.937-.64 2.165.213l4.138 15.504c.228.854-.547 2.412-1.403 2.641l8.858-2.365c.856-.228.502-1.486.274-2.339l-4.138-15.504c-.228-.854-.18-.743-1.036-.514" fill="#4f4f4f"/><path d="m40.8843 60.3805c-1.812-.462-3.454-2.045-4.381-3.098-.315-.356-.896-.201-.991.265-.279 1.374-.914 3.565-2.254 4.869-.33.319-.186.86.259.973 1.812.462 3.454 2.045 4.381 3.096.315.358.896.203.99-.263.28-1.375.914-3.566 2.255-4.869.329-.32.185-.86-.259-.973" fill="#fff"/><path d="m81.0874 101.1422-34.1 9.102c-.857.228-1.366 1.109-1.138 1.962l4.139 15.504c.227.854 1.108 1.364 1.964 1.135l34.1-9.102c.856-.229 1.366-1.109 1.138-1.962l-4.139-15.505c-.228-.854-1.108-1.363-1.964-1.134z" stroke="#4f4f4f" stroke-linecap="round" stroke-linejoin="round" stroke-width="2.128"/><g fill="#c80"><path d="m56.73 78.5533c-4.916 1.392-10.046-1.476-11.438-6.391-.21-.743.222-1.516.965-1.727.744-.211 1.517.222 1.728.965.971 3.43 4.552 5.431 7.983 4.461.743-.211 1.517.221 1.727.964.211.745-.221 1.518-.965 1.728"/><path d="m48.4463 75.8971c-.526.148-1.113-.021-1.475-.474-2.357-2.951-2.693-6.99-.857-10.29.376-.675 1.228-.919 1.903-.543.676.376.919 1.229.543 1.904-1.282 2.303-1.048 5.123.598 7.182.482.605.383 1.485-.22 1.967-.151.12-.318.204-.492.254"/><path d="m47.7173 67.1588c-.345.098-.727.064-1.064-.125-.675-.378-.915-1.23-.538-1.904.917-1.638 2.288-2.944 3.964-3.774 1.635-.81 3.454-1.121 5.259-.897.767.095 1.312.793 1.217 1.56-.094.767-.793 1.312-1.56 1.217-2.621-.324-5.148.956-6.438 3.261-.189.337-.496.565-.84.662"/><path d="m60.5967 69.2945-8.167 2.312c-.743.21-1.517-.222-1.727-.965-.21-.744.222-1.518.965-1.728 0 0 7.75-2.194 7.972-2.257.224-.063.207-.225.161-.304-1.017-1.728-2.798-2.898-4.799-3.14-.767-.094-1.314-.791-1.221-1.558s.791-1.314 1.558-1.22c2.94.356 5.552 2.112 6.987 4.697.427.768.479 1.676.143 2.49-.337.817-1.017 1.425-1.864 1.671-.003 0-.006.001-.008.002"/></g><path d="m129.6055 85.3551-5.083-.534 1.737-16.535c.093-.881-.275-1.41-1.156-1.503l-6.381-.67c-.881-.093-1.321.351-1.413 1.232l-1.738 16.535-5.113-.537c-2.639-.277-5.094 1.985-5.371 4.625l-.336 3.193c-.276 2.636 1.71 4.834 4.349 5.111l19.147 2.012c2.638.277 5.068-1.456 5.346-4.093l.335-3.192c.278-2.641-1.684-5.367-4.323-5.644" fill="#ffc431"/><path d="m129.6055 85.3551-5.083-.534 1.737-16.535c.093-.881-.275-1.41-1.156-1.503l-6.381-.67c-.881-.093-1.321.351-1.413 1.232l-.17 1.617 3.628.382c.881.093 1.255.995 1.162 1.876l-1.803 17.161 5.039.53c2.638.277 4.711 2.381 4.433 5.022l-.336 3.193c-.052.498-.208.969-.407 1.409 2.373-.099 4.485-1.942 4.738-4.344l.335-3.192c.278-2.641-1.684-5.367-4.323-5.644" fill="#efab22"/><path d="m129.6055 85.3551-5.083-.534 1.737-16.535c.093-.881-.275-1.41-1.156-1.503l-6.381-.67c-.881-.093-1.321.351-1.413 1.232l-1.738 16.535-5.113-.537c-2.639-.277-4.099 2.089-4.376 4.73l-.336 3.192c-.277 2.637.715 4.73 3.354 5.007l19.147 2.012c2.638.277 5.068-1.456 5.346-4.093l.335-3.192c.278-2.641-1.684-5.367-4.323-5.644z" stroke="#777" stroke-linecap="round" stroke-linejoin="round" stroke-width="2"/><path d="m137.0435 91.3258-35.101-3.688c-.881-.092-1.671.547-1.764 1.426l-1.677 15.959c-.092.879.548 1.669 1.429 1.762l35.101 3.688c.881.093 1.672-.547 1.764-1.426l1.677-15.959c.092-.879-.548-1.669-1.429-1.762" fill="#777"/><path d="m140.4111 67.482c-.629-.066-1.186-.504-1.373-1.148-.246-.851.242-1.742 1.095-1.989 6.43-1.864 10.909-6.169 13.313-12.791 1.234-3.399 1.586-6.589 1.684-8.336l-9.699-1.019c-.881-.093-1.519-.883-1.427-1.764.093-.881.881-1.52 1.762-1.428l11.17 1.174c.797.084 1.408.741 1.435 1.54.009.21.151 5.18-1.869 10.821-2.724 7.592-8.073 12.739-15.476 14.885-.207.06-.414.076-.615.055" fill="#efab22"/><path d="m103.6084 63.6149c-.201-.021-.4-.079-.589-.181-6.795-3.638-10.959-9.785-12.044-17.777-.805-5.938.368-10.769.419-10.973.193-.776.929-1.292 1.725-1.209l11.17 1.174c.881.093 1.52.882 1.427 1.763-.092.882-.881 1.521-1.763 1.429l-9.699-1.019c-.267 1.729-.585 4.921-.084 8.504.974 6.977 4.46 12.118 10.363 15.279.782.419 1.075 1.392.658 2.172-.317.592-.954.904-1.583.838" fill="#efab22"/><path d="m146.2715 34.2213-41.485-4.359c-.882-.093-1.671.546-1.764 1.427l-2.179 20.744c-.627 5.966 1.107 11.82 4.883 16.482 3.775 4.661 9.142 7.574 15.108 8.201 5.967.627 11.82-1.107 16.482-4.882s7.575-9.14 8.202-15.107l2.179-20.743c.093-.882-.545-1.671-1.426-1.763" fill="#ffc431"/><path d="m146.2715 34.2213-7.307-.768c.881.092 1.521.881 1.429 1.763l-2.18 20.743c-1.747 16.63-13.565 20.723-18.969 20.533.525.093 1.054.167 1.59.224 5.967.627 11.82-1.107 16.482-4.882s7.575-9.14 8.202-15.107l2.179-20.743c.093-.882-.545-1.671-1.426-1.763" fill="#efab22"/><path d="m146.2715 34.2213-41.485-4.359c-.882-.093-1.671.546-1.764 1.427l-2.179 20.744c-.627 5.966 1.107 11.82 4.883 16.482 3.775 4.661 9.142 7.574 15.108 8.201 5.967.627 11.82-1.107 16.482-4.882s7.575-9.14 8.202-15.107l2.179-20.743c.093-.882-.545-1.671-1.426-1.763z" stroke="#777" stroke-linecap="round" stroke-linejoin="round" stroke-width="2.128"/><path d="m136.9556 92.1607-9.118-.958c.881.093 2.038.093 1.946.972l-1.677 15.959c-.093.879-1.373 2.057-2.255 1.964l9.119.959c.881.092 1-1.209 1.092-2.087l1.677-15.959c.092-.879.097-.757-.784-.85" fill="#4f4f4f"/><path d="m114.0659 38.8873c-1.527-1.079-2.495-3.145-2.984-4.459-.167-.446-.765-.509-1.02-.107-.752 1.183-2.127 3.003-3.846 3.741-.421.18-.48.736-.106 1.001 1.528 1.08 2.496 3.145 2.985 4.459.167.446.764.509 1.02.107.752-1.183 2.127-3.003 3.846-3.741.421-.181.48-.736.105-1.001" fill="#fff"/><path d="m137.0435 91.3258-35.101-3.688c-.881-.092-1.671.547-1.764 1.426l-1.677 15.959c-.092.879.548 1.669 1.429 1.762l35.101 3.688c.881.093 1.672-.547 1.764-1.426l1.677-15.959c.092-.879-.548-1.669-1.429-1.762z" stroke="#4f4f4f" stroke-linecap="round" stroke-linejoin="round" stroke-width="2.128"/><path d="m122.3691 61.524c-5.088-.458-8.855-4.97-8.398-10.058.069-.769.75-1.338 1.519-1.268.77.069 1.337.749 1.269 1.519-.32 3.551 2.31 6.7 5.86 7.019.771.069 1.338.749 1.269 1.519s-.749 1.337-1.519 1.269" fill="#c80"/><path d="m115.5825 56.0816c-.544-.05-1.032-.417-1.208-.97-1.147-3.598-.017-7.491 2.878-9.917.592-.496 1.475-.418 1.971.174.496.593.419 1.476-.174 1.972-2.02 1.693-2.809 4.41-2.009 6.922.235.736-.172 1.523-.909 1.757-.182.059-.369.078-.549.062" fill="#c80"/><path d="m118.0249 47.6607c-.357-.032-.702-.201-.95-.498-.494-.594-.414-1.476.179-1.971 1.442-1.202 3.188-1.93 5.051-2.107 1.817-.172 3.626.188 5.233 1.042.682.362.942 1.21.579 1.892-.363.683-1.21.942-1.892.58-2.333-1.24-5.15-.948-7.179.743-.296.247-.665.351-1.021.319" fill="#c80"/><path d="m129.29 54.2584-8.453-.76c-.77-.069-1.338-.75-1.269-1.519.07-.77.75-1.338 1.519-1.269 0 0 8.022.722 8.253.742.23.021.273-.135.258-.227-.332-1.977-1.578-3.706-3.359-4.648-.683-.361-.945-1.208-.584-1.89.362-.684 1.208-.945 1.891-.584 2.619 1.384 4.431 3.958 4.847 6.884.124.871-.152 1.738-.757 2.377-.606.643-1.458.968-2.338.895-.003-.001-.006-.001-.008-.001" fill="#c80"/><path d="m234.6099 224.9947-4.561-.479 1.559-14.837c.083-.79-.247-1.266-1.038-1.349l-5.725-.602c-.791-.083-1.186.316-1.269 1.107l-1.559 14.837-4.588-.482c-2.368-.249-4.57 1.781-4.819 4.15l-.301 2.865c-.249 2.365 1.533 4.338 3.901 4.586l17.181 1.806c2.368.249 4.549-1.307 4.797-3.673l.301-2.865c.249-2.37-1.511-4.815-3.879-5.064" fill="#ffc431"/><path d="m234.6099 224.9947-4.561-.479 1.559-14.837c.083-.79-.247-1.266-1.038-1.349l-5.725-.602c-.791-.083-1.186.316-1.269 1.107l-.152 1.451 3.255.342c.791.083 1.126.893 1.043 1.683l-1.617 15.4 4.521.474c2.367.249 4.227 2.137 3.978 4.507l-.302 2.865c-.046.447-.186.87-.365 1.264 2.129-.089 4.025-1.741 4.251-3.897l.301-2.865c.249-2.37-1.511-4.815-3.879-5.064" fill="#efab22"/><path d="m234.6099 224.9947-4.561-.479 1.559-14.837c.083-.79-.247-1.266-1.038-1.349l-5.725-.602c-.791-.083-1.186.316-1.269 1.107l-1.559 14.837-4.588-.482c-2.368-.249-3.678 1.874-3.927 4.243l-.301 2.866c-.249 2.365.641 4.244 3.009 4.492l17.181 1.806c2.368.249 4.549-1.307 4.797-3.673l.301-2.865c.249-2.37-1.511-4.815-3.879-5.064z" stroke="#777" stroke-linecap="round" stroke-linejoin="round" stroke-width="1.795"/><path d="m241.2837 230.3531-31.497-3.31c-.79-.083-1.499.492-1.582 1.28l-1.504 14.32c-.084.789.491 1.498 1.281 1.581l31.497 3.31c.791.083 1.5-.492 1.583-1.281l1.504-14.32c.083-.788-.491-1.497-1.282-1.58" fill="#777"/><path d="m244.3057 208.9566c-.564-.059-1.063-.452-1.231-1.03-.222-.763.216-1.563.982-1.784 5.77-1.673 9.789-5.536 11.946-11.478 1.107-3.051 1.423-5.912 1.511-7.48l-8.704-.915c-.79-.083-1.362-.792-1.279-1.583.083-.79.79-1.363 1.58-1.28l10.023 1.053c.715.075 1.264.665 1.288 1.382.008.188.135 4.647-1.678 9.709-2.443 6.813-7.244 11.431-13.886 13.357-.185.054-.371.069-.552.049" fill="#efab22"/><path d="m211.2822 205.4869c-.18-.019-.359-.071-.529-.162-6.096-3.265-9.833-8.78-10.806-15.952-.722-5.328.33-9.663.376-9.846.172-.696.833-1.159 1.547-1.084l10.023 1.053c.79.083 1.364.791 1.281 1.582-.083.79-.791 1.365-1.582 1.282l-8.704-.915c-.239 1.552-.524 4.416-.075 7.631.874 6.262 4.002 10.874 9.299 13.71.702.376.965 1.249.59 1.949-.284.531-.856.812-1.42.752" fill="#efab22"/><path d="m249.5645 179.1119-37.226-3.912c-.79-.083-1.498.49-1.581 1.281l-1.956 18.613c-.563 5.355.993 10.607 4.381 14.79s8.203 6.796 13.557 7.359c5.354.562 10.606-.993 14.789-4.38 4.184-3.388 6.798-8.202 7.36-13.557l1.956-18.613c.083-.79-.489-1.498-1.28-1.581" fill="#ffc431"/><path d="m249.5645 179.1119-6.557-.689c.791.083 1.366.791 1.282 1.582l-1.955 18.613c-1.568 14.922-12.172 18.595-17.021 18.425.47.083.945.149 1.426.2 5.354.562 10.606-.993 14.789-4.38 4.184-3.388 6.798-8.202 7.36-13.557l1.956-18.613c.083-.79-.489-1.498-1.28-1.581" fill="#efab22"/><path d="m249.5645 179.1119-37.226-3.912c-.79-.083-1.498.49-1.581 1.281l-1.956 18.613c-.563 5.355.993 10.607 4.381 14.79s8.203 6.796 13.557 7.359c5.354.562 10.606-.993 14.789-4.38 4.184-3.388 6.798-8.202 7.36-13.557l1.956-18.613c.083-.79-.489-1.498-1.28-1.581z" stroke="#777" stroke-linecap="round" stroke-linejoin="round" stroke-width="1.909"/><path d="m241.2051 231.1012-8.182-.859c.791.083 1.829.084 1.746.872l-1.504 14.32c-.083.789-1.232 1.847-2.023 1.764l8.182.859c.79.083.897-1.084.98-1.873l1.504-14.32c.083-.788.088-.68-.703-.763" fill="#4f4f4f"/><path d="m220.666 183.2984c-1.371-.969-2.238-2.822-2.678-4.001-.149-.4-.686-.456-.915-.096-.675 1.062-1.909 2.695-3.451 3.357-.378.162-.431.661-.095.898 1.371.969 2.239 2.822 2.679 4.001.149.401.685.456.915.096.674-1.062 1.909-2.694 3.451-3.357.378-.162.43-.661.094-.898" fill="#fff"/><path d="m241.2837 230.3531-31.497-3.31c-.79-.083-1.499.492-1.582 1.28l-1.504 14.32c-.084.789.491 1.498 1.281 1.581l31.497 3.31c.791.083 1.5-.492 1.583-1.281l1.504-14.32c.083-.788-.491-1.497-1.282-1.58z" stroke="#4f4f4f" stroke-linecap="round" stroke-linejoin="round" stroke-width="1.909"/><path d="m228.1167 203.61c-4.566-.41-7.946-4.458-7.536-9.023.062-.692.673-1.202 1.363-1.139.691.062 1.201.673 1.138 1.363-.286 3.187 2.073 6.012 5.26 6.298.691.063 1.2.673 1.138 1.363-.062.691-.673 1.2-1.363 1.138" fill="#c80"/><path d="m222.0269 198.7272c-.488-.044-.926-.374-1.084-.87-1.029-3.23-.015-6.722 2.582-8.899.532-.445 1.324-.375 1.769.157.445.531.376 1.323-.156 1.768-1.813 1.52-2.521 3.957-1.802 6.212.21.66-.155 1.366-.816 1.577-.164.052-.331.07-.493.055" fill="#c80"/><path d="m224.2183 191.1705c-.32-.028-.63-.18-.852-.446-.444-.533-.372-1.325.161-1.769 1.293-1.078 2.86-1.732 4.532-1.89 1.63-.155 3.254.168 4.695.934.612.326.845 1.086.52 1.698-.326.613-1.086.845-1.698.52-2.093-1.112-4.621-.85-6.441.667-.267.223-.597.315-.917.286" fill="#c80"/><path d="m234.3267 197.0914-7.585-.683c-.691-.061-1.2-.671-1.138-1.362s.672-1.2 1.363-1.139c0 0 7.197.648 7.405.666.207.019.245-.122.231-.204-.298-1.773-1.415-3.325-3.014-4.17-.613-.324-.847-1.084-.523-1.697s1.084-.848 1.697-.523c2.35 1.242 3.975 3.551 4.348 6.177.112.782-.136 1.559-.679 2.133-.544.576-1.309.868-2.098.802z" fill="#c80"/><path d="m122.7993 164.4205-4.496-1.229 3.996-14.625c.213-.779-.04-1.309-.819-1.522l-5.643-1.542c-.78-.213-1.241.122-1.454.901l-3.996 14.625-4.523-1.236c-2.334-.638-4.875 1.036-5.514 3.372l-.771 2.824c-.637 2.331.827 4.602 3.161 5.24l16.934 4.627c2.334.637 4.776-.565 5.414-2.897l.771-2.823c.638-2.336-.726-5.077-3.06-5.715" fill="#ffc431"/><path d="m122.7993 164.4205-4.496-1.229 3.996-14.625c.213-.779-.04-1.309-.819-1.522l-5.643-1.542c-.78-.213-1.241.122-1.454.901l-.391 1.431 3.209.877c.78.213.983 1.08.77 1.859l-4.148 15.178 4.457 1.218c2.334.638 3.889 2.836 3.25 5.172l-.771 2.823c-.121.441-.33.843-.574 1.209 2.15.26 4.322-1.087 4.903-3.212l.771-2.823c.638-2.336-.726-5.077-3.06-5.715" fill="#efab22"/><path d="m122.7993 164.4205-4.496-1.229 3.996-14.625c.213-.779-.04-1.309-.819-1.522l-5.643-1.542c-.78-.213-1.241.122-1.454.901l-3.996 14.625-4.523-1.236c-2.334-.638-3.996 1.276-4.634 3.612l-.771 2.825c-.638 2.332-.053 4.361 2.281 4.999l16.934 4.627c2.334.637 4.776-.565 5.414-2.897l.771-2.823c.638-2.336-.726-5.077-3.06-5.715z" stroke="#777" stroke-linecap="round" stroke-linejoin="round" stroke-width="1.824"/><path d="m128.6143 170.8873-31.045-8.482c-.78-.213-1.585.246-1.797 1.023l-3.857 14.115c-.213.778.247 1.583 1.027 1.796l31.045 8.483c.779.212 1.585-.247 1.797-1.024l3.857-14.115c.212-.777-.248-1.583-1.027-1.796" fill="#777"/><path d="m135.1528 149.9254c-.556-.151-.993-.628-1.066-1.235-.097-.802.474-1.532 1.277-1.628 6.061-.733 10.725-3.947 13.863-9.553 1.611-2.877 2.396-5.695 2.742-7.254l-8.579-2.344c-.779-.213-1.237-1.017-1.024-1.797.213-.779 1.016-1.238 1.795-1.025l9.879 2.699c.705.193 1.159.874 1.066 1.598-.024.189-.627 4.683-3.275 9.462-3.568 6.431-9.139 10.276-16.116 11.119-.195.023-.384.007-.562-.042" fill="#efab22"/><path d="m102.603 141.0318c-.178-.049-.349-.131-.504-.25-5.579-4.273-8.422-10.418-8.223-17.77.15-5.461 1.916-9.636 1.992-9.813.287-.67 1.026-1.025 1.73-.833l9.879 2.699c.779.213 1.238 1.017 1.025 1.796s-1.017 1.239-1.797 1.026l-8.579-2.343c-.494 1.516-1.25 4.342-1.326 7.64-.15 6.423 2.231 11.562 7.078 15.275.642.492.763 1.41.272 2.052-.372.485-.991.672-1.547.521" fill="#efab22"/><path d="m145.3198 120.8561-36.691-10.026c-.78-.213-1.584.246-1.797 1.025l-5.013 18.347c-1.442 5.277-.743 10.8 1.969 15.55s7.112 8.162 12.389 9.603c5.278 1.442 10.8.743 15.551-1.968 4.751-2.712 8.161-7.111 9.603-12.388l5.013-18.347c.213-.779-.245-1.583-1.024-1.796" fill="#ffc431"/><path d="m145.3198 120.8561-6.462-1.766c.779.213 1.239 1.017 1.026 1.796l-5.013 18.347c-4.019 14.708-15.256 16.653-20.092 15.687.459.161.925.306 1.398.435 5.278 1.442 10.8.743 15.551-1.968 4.751-2.712 8.161-7.111 9.603-12.388l5.013-18.347c.213-.779-.245-1.583-1.024-1.796" fill="#efab22"/><path d="m145.3198 120.8561-36.691-10.026c-.78-.213-1.584.246-1.797 1.025l-5.013 18.347c-1.442 5.277-.743 10.8 1.969 15.55s7.112 8.162 12.389 9.603c5.278 1.442 10.8.743 15.551-1.968 4.751-2.712 8.161-7.111 9.603-12.388l5.013-18.347c.213-.779-.245-1.583-1.024-1.796z" stroke="#777" stroke-linecap="round" stroke-linejoin="round" stroke-width="1.94"/><path d="m128.4126 171.6256-8.064-2.203c.779.213 1.819.384 1.607 1.161l-3.856 14.114c-.213.778-1.539 1.65-2.318 1.437l8.064 2.204c.779.213 1.078-.941 1.29-1.718l3.857-14.114c.212-.777.199-.668-.58-.881" fill="#4f4f4f"/><path d="m115.6519 120.317c-1.216-1.196-1.783-3.197-2.03-4.451-.084-.426-.613-.57-.902-.247-.851.955-2.356 2.389-4.011 2.801-.406.101-.54.592-.243.885 1.217 1.197 1.783 3.198 2.031 4.451.084.426.613.571.901.248.851-.956 2.357-2.39 4.012-2.801.406-.102.54-.593.242-.886" fill="#fff"/><path d="m128.6143 170.8873-31.045-8.482c-.78-.213-1.585.246-1.797 1.023l-3.857 14.115c-.213.778.247 1.583 1.027 1.796l31.045 8.483c.779.212 1.585-.247 1.797-1.024l3.857-14.115c.212-.777-.248-1.583-1.027-1.796z" stroke="#4f4f4f" stroke-linecap="round" stroke-linejoin="round" stroke-width="1.94"/><path d="m119.7935 141.9098c-4.512-1.161-7.238-5.775-6.078-10.286.176-.683.871-1.094 1.554-.918.682.175 1.093.871.918 1.554-.81 3.148 1.093 6.368 4.241 7.178.683.175 1.094.871.918 1.554-.175.682-.871 1.093-1.553.918" fill="#c80"/><path d="m114.4868 136.0133c-.482-.124-.868-.526-.945-1.05-.502-3.407 1.087-6.744 4.049-8.501.606-.359 1.389-.159 1.749.447.359.606.159 1.388-.447 1.749-2.068 1.225-3.177 3.554-2.826 5.933.103.696-.379 1.346-1.077 1.448-.173.026-.343.015-.503-.026" fill="#c80"/><path d="m117.9233 128.7945c-.316-.081-.602-.283-.781-.588-.358-.606-.156-1.389.451-1.747 1.474-.869 3.153-1.268 4.855-1.153 1.661.113 3.236.703 4.556 1.708.561.426.669 1.227.242 1.788-.427.56-1.227.669-1.788.242-1.916-1.458-4.494-1.61-6.569-.387-.303.179-.65.218-.966.137" fill="#c80"/><path d="m127.0903 136.3893-7.495-1.928c-.683-.175-1.093-.871-.918-1.553s.871-1.093 1.554-.918c0 0 7.112 1.829 7.317 1.881.204.053.266-.082.265-.166-.008-1.828-.874-3.567-2.339-4.676-.562-.426-.672-1.226-.247-1.788.426-.562 1.226-.672 1.788-.247 2.153 1.631 3.405 4.213 3.348 6.909-.016.801-.392 1.541-1.03 2.028-.64.488-1.455.656-2.236.46-.002-.001-.005-.001-.007-.002" fill="#c80"/><g fill="#ffc431"><path d="m23.1445 29.7516c-2.668-1.493-4.594-4.687-5.615-6.74-.347-.697-1.329-.697-1.676 0-1.021 2.053-2.947 5.247-5.615 6.74-.655.367-.655 1.28 0 1.646 2.668 1.495 4.594 4.688 5.615 6.741.347.697 1.329.697 1.676 0 1.021-2.053 2.947-5.246 5.615-6.741.654-.366.654-1.279 0-1.646"/><path d="m196.2617 29.7516c-2.668-1.493-4.594-4.687-5.615-6.74-.347-.697-1.329-.697-1.676 0-1.021 2.053-2.947 5.247-5.615 6.74-.655.367-.655 1.28 0 1.646 2.668 1.495 4.594 4.688 5.615 6.741.347.697 1.329.697 1.676 0 1.021-2.053 2.947-5.246 5.615-6.741.654-.366.654-1.279 0-1.646"/><path d="m148.5908 7.2633c-2.668-1.494-4.594-4.687-5.615-6.74-.347-.697-1.329-.697-1.676 0-1.021 2.053-2.947 5.246-5.615 6.74-.655.366-.655 1.279 0 1.646 2.668 1.494 4.594 4.688 5.615 6.741.347.696 1.329.696 1.676 0 1.021-2.053 2.947-5.247 5.615-6.741.654-.367.654-1.28 0-1.646"/><path d="m95.6567 21.6656c-2.668-1.493-4.594-4.687-5.615-6.74-.347-.697-1.329-.697-1.676 0-1.021 2.053-2.947 5.247-5.615 6.74-.655.367-.655 1.28 0 1.646 2.668 1.495 4.594 4.688 5.615 6.741.347.697 1.329.697 1.676 0 1.021-2.053 2.947-5.246 5.615-6.741.654-.366.654-1.279 0-1.646"/></g><path d="m84 216.568-24.528 26h108.528l-28-26z" fill="#caf5ff"/><path d="m83.9581388 216.568h27.5418612l-27 25.969796h-25.2848355z" fill="#46c4d1" fill-opacity=".8"/><path d="m84 216.568h55.5v-27h-55.5z" fill="#caf5ff"/><path d="m111.4961 216.568h27.504v-27z" fill="#46c4d1" fill-opacity=".8"/><g fill-opacity=".5"><path d="m0 135.568h224v-53h-224z" fill="#caf5ff"/><path d="m113 83.568v52h55z" fill="#46c4d1"/><path d="m1 83.568v52h54.992z" fill="#46c4d1"/><g fill="#90edfc"><path d="m112 82.568h-55-2-55l55.992 53 .008-.009.008.009z"/><path d="m223 135.568h-55-2-53l55 54.5-1-1.509 1 1.509z"/><path d="m113 135.568h-57-2-53l57 54z"/><path d="m224 82.568h-55-2-55l55.992 53 .008-.009.008.009z"/></g><path d="m58 189.568h110l-55-54z" fill="#caf5ff"/></g><path d="m139 189.568h-27.009-.982-27.009l27.496 27h.008z" fill="#90edfc" fill-opacity=".8"/><path d="m84 242.568h27.009.982 27.009l-27.496-26.014-.004.011-.004-.014z" fill="#90edfc" fill-opacity=".8"/><path d="m58 189.568-2.008-54h57.008z" fill="#46c4d1" fill-opacity=".5"/><path d="m168 190.068-.008-54.5h57.008z" fill="#46c4d1" fill-opacity=".5"/><path d="m316.4858 224.2018-4.583.182-.591-14.908c-.032-.794-.427-1.216-1.222-1.185l-5.752.228c-.794.033-1.127.484-1.096 1.278l.592 14.907-4.61.184c-2.379.093-4.267 2.418-4.172 4.799l.114 2.878c.094 2.377 2.142 4.073 4.521 3.978l17.262-.686c2.379-.094 4.313-1.947 4.219-4.324l-.115-2.878c-.094-2.382-2.188-4.548-4.567-4.453" fill="#ffc431"/><path d="m316.4858 224.2018-4.583.182-.591-14.908c-.032-.794-.427-1.216-1.222-1.185l-5.752.228c-.794.033-1.127.484-1.096 1.278l.058 1.458 3.271-.13c.794-.031 1.243.722 1.274 1.516l.615 15.471 4.542-.18c2.379-.094 4.49 1.506 4.585 3.887l.114 2.878c.018.449-.059.889-.18 1.305 2.095-.395 3.733-2.303 3.647-4.469l-.115-2.878c-.094-2.382-2.188-4.548-4.567-4.453" fill="#efab22"/><path d="m316.4858 224.2018-4.583.182-.591-14.908c-.032-.794-.427-1.216-1.222-1.185l-5.752.228c-.794.033-1.127.484-1.096 1.278l.592 14.907-4.61.184c-2.379.093-3.37 2.382-3.276 4.764l.115 2.878c.094 2.377 1.245 4.108 3.624 4.013l17.262-.686c2.379-.094 4.313-1.947 4.219-4.324l-.115-2.878c-.094-2.382-2.188-4.548-4.567-4.453z" stroke="#777" stroke-linecap="round" stroke-linejoin="round" stroke-width="1.795"/><path d="m323.8613 228.5426-31.645 1.257c-.794.032-1.414.702-1.382 1.494l.571 14.388c.032.793.702 1.412 1.497 1.38l31.645-1.257c.794-.032 1.413-.701 1.382-1.494l-.571-14.388c-.032-.792-.703-1.411-1.497-1.38" fill="#777"/><path d="m323.7734 206.9352c-.567.022-1.118-.294-1.367-.843-.329-.723-.01-1.577.716-1.906 5.468-2.486 8.89-6.886 10.17-13.077.656-3.179.557-6.056.419-7.62l-8.745.347c-.794.032-1.463-.588-1.494-1.381-.032-.795.586-1.464 1.38-1.497l10.07-.399c.719-.028 1.347.477 1.474 1.183.034.185.802 4.579-.264 9.849-1.438 7.093-5.524 12.355-11.819 15.216-.177.08-.359.121-.54.128" fill="#efab22"/><path d="m290.5942 208.2525c-.181.008-.366-.019-.546-.085-6.503-2.353-10.995-7.273-12.99-14.23-1.481-5.169-1.063-9.611-1.045-9.798.071-.714.658-1.267 1.376-1.295l10.07-.401c.794-.031 1.464.587 1.495 1.381.032.795-.587 1.465-1.381 1.496l-8.745.348c-.013 1.569.117 4.445 1.024 7.563 1.765 6.07 5.525 10.184 11.175 12.229.748.271 1.134 1.097.864 1.844-.205.566-.73.926-1.297.948" fill="#efab22"/><path d="m324.6831 176.6432-37.401 1.485c-.794.033-1.412.702-1.381 1.496l.743 18.701c.213 5.38 2.509 10.353 6.463 14.006 3.955 3.651 9.096 5.544 14.474 5.332 5.38-.214 10.354-2.51 14.006-6.463 3.653-3.954 5.547-9.095 5.333-14.475l-.743-18.7c-.031-.795-.7-1.413-1.494-1.382" fill="#ffc431"/><path d="m324.6831 176.6432-6.587.262c.794-.032 1.464.587 1.496 1.381l.742 18.701c.596 14.992-9.369 20.152-14.193 20.681.478.015.958.013 1.44-.005 5.38-.214 10.354-2.51 14.006-6.463 3.653-3.954 5.547-9.095 5.333-14.475l-.743-18.7c-.031-.795-.7-1.413-1.494-1.382" fill="#efab22"/><path d="m324.6831 176.6432-37.401 1.485c-.794.033-1.412.702-1.381 1.496l.743 18.701c.213 5.38 2.509 10.353 6.463 14.006 3.955 3.651 9.096 5.544 14.474 5.332 5.38-.214 10.354-2.51 14.006-6.463 3.653-3.954 5.547-9.095 5.333-14.475l-.743-18.7c-.031-.795-.7-1.413-1.494-1.382z" stroke="#777" stroke-linecap="round" stroke-linejoin="round" stroke-width="1.909"/><path d="m323.8911 229.2955-8.22.326c.794-.031 1.822-.18 1.853.612l.571 14.388c.032.792-.953 2.004-1.747 2.035l8.22-.326c.794-.031.732-1.201.7-1.994l-.571-14.388c-.032-.792-.012-.684-.806-.653" fill="#4f4f4f"/><path d="m296.688 184.9449c-1.496-.762-2.621-2.471-3.226-3.574-.205-.374-.744-.353-.919.037-.515 1.147-1.501 2.94-2.932 3.818-.351.215-.331.716.035.903 1.497.76 2.622 2.47 3.227 3.574.205.374.744.352.919-.037.515-1.148 1.501-2.941 2.932-3.819.351-.215.331-.715-.036-.902" fill="#fff"/><path d="m323.8613 228.5426-31.645 1.257c-.794.032-1.414.702-1.382 1.494l.571 14.388c.032.793.702 1.412 1.497 1.38l31.645-1.257c.794-.032 1.413-.701 1.382-1.494l-.571-14.388c-.032-.792-.703-1.411-1.497-1.38z" stroke="#4f4f4f" stroke-linecap="round" stroke-linejoin="round" stroke-width="1.909"/><path d="m306.9834 203.9732c-4.577.251-8.505-3.269-8.755-7.846-.038-.692.492-1.285 1.185-1.322.692-.038 1.284.492 1.322 1.185.175 3.194 2.916 5.651 6.111 5.476.692-.038 1.284.492 1.322 1.185.038.692-.493 1.284-1.185 1.322" fill="#c80"/><path d="m300.2544 200.0172c-.49.026-.97-.236-1.198-.705-1.483-3.047-.982-6.649 1.275-9.177.462-.517 1.256-.562 1.773-.1.517.461.562 1.255.1 1.772-1.575 1.765-1.925 4.279-.89 6.406.303.624.044 1.375-.58 1.679-.155.075-.318.116-.48.125" fill="#c80"/><path d="m301.3359 192.2242c-.321.018-.649-.088-.907-.319-.516-.463-.559-1.257-.096-1.774 1.125-1.253 2.582-2.126 4.213-2.522 1.591-.388 3.244-.302 4.781.249.653.234.992.953.759 1.605-.234.654-.953.992-1.606.759-2.231-.8-4.695-.177-6.278 1.587-.232.258-.545.397-.866.415" fill="#c80"/><path d="m312.1909 196.6285-7.604.416c-.692.038-1.285-.492-1.323-1.185-.037-.692.493-1.284 1.185-1.322 0 0 7.217-.395 7.424-.407.208-.011.225-.155.2-.234-.55-1.713-1.879-3.088-3.583-3.694-.653-.232-.994-.951-.762-1.604.233-.654.951-.994 1.604-.762 2.504.891 4.445 2.942 5.192 5.487.222.757.089 1.563-.365 2.209-.455.649-1.17 1.048-1.961 1.096z" fill="#c80"/></g></svg>