<svg height="250" viewBox="0 0 350 250" width="350" xmlns="http://www.w3.org/2000/svg" xmlns:xlink="http://www.w3.org/1999/xlink"><mask id="a" fill="#fff"><path d="m0 250.75h311.028v-249.75h-311.028z" fill="none"/></mask><g fill="none" fill-rule="evenodd" transform="translate(19 -1)"><g fill="#ffc431"><path d="m38.0415 37.7324c.654.366.654 1.279 0 1.646-2.668 1.494-4.594 4.687-5.615 6.741-.347.696-1.329.696-1.676 0-1.022-2.054-2.947-5.247-5.615-6.741-.655-.367-.655-1.28 0-1.646 2.668-1.494 4.593-4.687 5.615-6.74.347-.697 1.329-.697 1.676 0 1.021 2.053 2.947 5.246 5.615 6.74z"/><path d="m197.2617 32.751c-2.668-1.493-4.594-4.687-5.615-6.74-.347-.697-1.329-.697-1.676 0-1.021 2.053-2.947 5.247-5.615 6.74-.655.367-.655 1.28 0 1.646 2.668 1.495 4.594 4.688 5.615 6.741.347.697 1.329.697 1.676 0 1.021-2.053 2.947-5.246 5.615-6.741.654-.366.654-1.279 0-1.646"/><path d="m13.5908 7.5127c-2.668-1.494-4.594-4.687-5.615-6.74-.347-.697-1.329-.697-1.676 0-1.021 2.053-2.947 5.246-5.615 6.74-.655.366-.655 1.279 0 1.646 2.668 1.494 4.594 4.688 5.615 6.741.347.696 1.329.696 1.676 0 1.021-2.053 2.947-5.247 5.615-6.741.654-.367.654-1.28 0-1.646" transform="translate(136 .75)"/><path d="m96.6567 24.665c-2.668-1.493-4.594-4.687-5.615-6.74-.347-.697-1.329-.697-1.676 0-1.021 2.053-2.947 5.247-5.615 6.74-.655.367-.655 1.28 0 1.646 2.668 1.495 4.594 4.688 5.615 6.741.347.697 1.329.697 1.676 0 1.021-2.053 2.947-5.246 5.615-6.741.654-.366.654-1.279 0-1.646"/></g><path d="m155.252 48.8496-.047 38.237c-.167 2.331-1.798 4.258-3.987 4.258h-31.637c-2.188 0-3.801-1.925-3.986-4.258v-38.237z" fill="#ed6060"/><g fill="#e23b3b"><path d="m122.0322 50.1582h3.244v31.222c0 2.414-3.244 2.414-3.244 0z"/><path d="m141.5161 50.1582h3.244v30.744c0 2.414-3.244 2.414-3.244 0z"/><path d="m131.7744 50.1582h3.243v30.744c0 2.414-3.243 2.414-3.243 0z"/></g><path d="m150.2505 49.5674-.036 32.748c-.146 2.331-1.57 4.252-3.484 4.252h-27.651c-1.913 0-4.079-2.631-4.079-4.964v-8.006 13.49c0 2.333 2.392 4.48 4.581 4.48h31.637c2.189 0 3.819-1.679 3.986-4.011l.047-37.989z" fill="#dd3636"/><path d="m132.02 42.7959h6.759c.01-.105.015-.211.015-.318v-.001c0-1.893-1.527-3.442-3.395-3.442-1.867 0-3.394 1.549-3.394 3.442v.001c0 .107.005.214.015.318m-15.129 0h12.483c-.006-.105-.009-.212-.009-.318v-.001c0-3.366 2.716-6.119 6.034-6.119 3.32 0 6.035 2.753 6.035 6.119v.001c0 .106-.003.213-.008.318h12.485c2.489 0 4.734 2.082 4.526 4.59l-.19 2.295h-45.672l-.21-2.295c-.23-2.514 2.036-4.59 4.526-4.59" fill="#636363"/><path d="m155.252 49.1875-.047 37.563c0 .224-.005.449-.035.67-.291 2.178-1.868 3.924-3.952 3.924h-31.637c-1.97 0-3.473-1.559-3.889-3.572-.076-.37-.097-.749-.097-1.127v-37.458z" stroke="#777" stroke-linecap="round" stroke-linejoin="round" stroke-width="2.411"/><path d="m112.42 51.169h45.955v-3.101h-45.955z" fill="#d1d1d1" mask="url(#a)"/><path d="m73.4287 68.2891-.048 38.237c-.167 2.331-1.797 4.258-3.986 4.258h-31.637c-2.189 0-3.802-1.925-3.986-4.258v-38.237z" fill="#ed6060" mask="url(#a)"/><g fill="#e23b3b"><path d="m40.209 69.5977h3.244v31.222c0 2.414-3.244 2.414-3.244 0z" mask="url(#a)"/><path d="m59.6924 69.5977h3.244v30.744c0 2.414-3.244 2.414-3.244 0z" mask="url(#a)"/><path d="m49.9507 69.5977h3.244v30.744c0 2.414-3.244 2.414-3.244 0z" mask="url(#a)"/></g><path d="m68.6445 68.5674-.034 33.248c-.14 2.331-1.503 4.752-3.333 4.752h-26.448c-1.83 0-4.83-3.025-4.83-5.358v-8.006 13.489c0 2.333 3.216 3.875 5.31 3.875h30.26c2.094 0 3.654-1.679 3.813-4.011l.046-37.989z" fill="#dd3636" mask="url(#a)"/><path d="m50.1963 62.2363h6.759c.01-.105.015-.212.015-.319 0-1.894-1.527-3.443-3.395-3.443-1.866 0-3.394 1.549-3.394 3.443 0 .107.005.214.015.319m-15.129 0h12.483c-.006-.106-.009-.213-.009-.319 0-3.367 2.716-6.12 6.034-6.12 3.32 0 6.035 2.753 6.035 6.12 0 .106-.003.213-.008.319h12.485c2.489 0 4.734 2.081 4.526 4.589l-.19 2.295h-45.672l-.21-2.295c-.23-2.514 2.036-4.589 4.526-4.589" fill="#636363" mask="url(#a)"/><path d="m73.4287 68.627-.047 37.563c-.001.224-.006.449-.035.67-.292 2.179-1.869 3.924-3.952 3.924h-31.637c-1.97 0-3.474-1.558-3.889-3.571-.076-.371-.097-.75-.097-1.128v-37.458z" mask="url(#a)" stroke="#777" stroke-linecap="round" stroke-linejoin="round" stroke-width="2.411"/><path d="m30.596 70.608h45.956v-3.101h-45.956z" fill="#d1d1d1" mask="url(#a)"/><path d="m190.2876 71.2891-.048 38.237c-.167 2.331-1.797 4.258-3.986 4.258h-31.637c-2.189 0-3.802-1.925-3.986-4.258v-38.237z" fill="#ed6060" mask="url(#a)"/><path d="m157.0679 72.5977h3.244v31.222c0 2.414-3.244 2.414-3.244 0z" fill="#e23b3b" mask="url(#a)"/><path d="m176.5513 72.5977h3.244v30.744c0 2.414-3.244 2.414-3.244 0z" fill="#e23b3b" mask="url(#a)"/><path d="m166.8096 72.5977h3.244v30.744c0 2.414-3.244 2.414-3.244 0z" fill="#e23b3b" mask="url(#a)"/><path d="m185.2861 71.5674-.036 33.248c-.146 2.331-1.571 4.752-3.484 4.752h-27.652c-1.912 0-4.114-3.191-4.114-5.524v-8.006 13.489c0 2.333 2.428 4.041 4.616 4.041h31.637c2.189 0 3.82-1.679 3.987-4.011l.047-37.989z" fill="#dd3636" mask="url(#a)"/><path d="m167.0552 65.2363h6.759c.01-.105.015-.212.015-.319 0-1.894-1.527-3.443-3.395-3.443-1.866 0-3.394 1.549-3.394 3.443 0 .107.005.214.015.319m-15.129 0h12.483c-.006-.106-.009-.213-.009-.319 0-3.367 2.716-6.12 6.034-6.12 3.32 0 6.035 2.753 6.035 6.12 0 .106-.002.213-.008.319h12.485c2.489 0 4.734 2.081 4.526 4.589l-.19 2.295h-45.672l-.21-2.295c-.23-2.514 2.036-4.589 4.526-4.589" fill="#636363" mask="url(#a)"/><path d="m190.2876 71.627-.047 37.563c-.001.224-.006.449-.035.67-.292 2.179-1.869 3.924-3.952 3.924h-31.637c-1.97 0-3.473-1.558-3.889-3.571-.076-.371-.097-.75-.097-1.128v-37.458z" mask="url(#a)" stroke="#777" stroke-linecap="round" stroke-linejoin="round" stroke-width="2.411"/><path d="m147.456 73.608h45.955v-3.101h-45.955z" fill="#d1d1d1" mask="url(#a)"/><path d="m169.9253 136.7842-7.917 37.408c-.643 2.247-2.635 3.797-4.777 3.346l-30.96-6.512c-2.141-.45-3.324-2.665-3.024-4.986l7.87-37.419z" fill="#ed6060" mask="url(#a)"/><path d="m137.1475 131.2275 3.174.667-6.426 30.554c-.497 2.362-3.671 1.694-3.174-.668z" fill="#e23b3b" mask="url(#a)"/><path d="m156.2139 135.2373 3.174.668-6.328 30.085c-.497 2.362-3.671 1.695-3.174-.667z" fill="#e23b3b" mask="url(#a)"/><path d="m146.6807 133.2324 3.174.668-6.328 30.085c-.496 2.362-3.671 1.695-3.174-.667z" fill="#e23b3b" mask="url(#a)"/><path d="m164.9644 136.0713-6.858 32.432c-.622 2.251-2.495 4.229-4.367 3.836l-27.06-5.692c-1.872-.393-3.595-3.86-3.114-6.144l1.647-7.834-2.776 13.2c-.48 2.283 1.644 4.942 3.785 5.392l30.96 6.512c2.142.451 4.126-1.057 4.769-3.305l7.908-37.368z" fill="#dd3636" mask="url(#a)"/><path d="m148.4365 126.0781 6.614 1.392c.032-.102.058-.205.08-.31.39-1.853-.786-3.683-2.613-4.066-1.827-.385-3.64.816-4.03 2.669v.001c-.022.104-.039.21-.051.314m-14.806-3.113 12.216 2.569c.016-.105.035-.21.057-.314.693-3.294 3.917-5.43 7.165-4.746 3.248.682 5.339 3.936 4.646 7.23-.022.104-.047.208-.074.311l12.218 2.569c2.436.513 4.204 3.012 3.485 5.423l-.659 2.207-44.694-9.401.267-2.289c.292-2.507 2.937-4.072 5.373-3.559" fill="#636363" mask="url(#a)"/><path d="m169.8555 137.1152-7.778 36.749c-.046.219-.097.438-.171.648-.734 2.072-2.636 3.456-4.676 3.026l-30.959-6.512c-1.928-.405-3.078-2.24-3.07-4.295.001-.378.059-.754.136-1.123l7.71-36.656z" mask="url(#a)" stroke="#777" stroke-linecap="round" stroke-linejoin="round" stroke-width="2.411"/><path d="m173.1421 136.6621-.638 3.034-44.971-9.458.638-3.035z" fill="#d1d1d1" mask="url(#a)"/><path d="m133.1621 74.9648-7.359 37.522c-.61 2.256-2.578 3.835-4.726 3.417l-31.054-6.049c-2.148-.419-3.363-2.617-3.098-4.942l7.312-37.532z" fill="#ed6060" mask="url(#a)"/><path d="m100.3052 69.8965 3.184.621-5.971 30.646c-.461 2.369-3.645 1.749-3.183-.621z" fill="#e23b3b" mask="url(#a)"/><path d="m119.4292 73.623 3.184.62-5.879 30.176c-.462 2.37-3.646 1.75-3.184-.62z" fill="#e23b3b" mask="url(#a)"/><path d="m109.8672 71.7598 3.184.62-5.879 30.177c-.462 2.369-3.646 1.749-3.184-.62z" fill="#e23b3b" mask="url(#a)"/><path d="m128.1631 74.4707-6.262 31.953c-.589 2.261-2.319 3.69-4.197 3.323l-27.142-5.287c-1.877-.366-3.298-2.69-2.852-4.98l1.531-7.859-2.579 13.241c-.446 2.29 1.125 5.028 3.272 5.446l31.054 6.05c2.149.419 4.116-1.157 4.726-3.412l7.358-37.519z" fill="#dd3636" mask="url(#a)"/><path d="m111.5161 64.5801 6.635 1.293c.029-.102.054-.205.075-.311.362-1.858-.841-3.67-2.673-4.027-1.833-.357-3.628.871-3.991 2.73-.02.105-.035.211-.046.315m-14.85-2.893 12.252 2.387c.015-.104.033-.21.053-.314.644-3.304 3.836-5.488 7.093-4.853 3.259.635 5.397 3.857 4.754 7.16-.021.106-.044.209-.07.312l12.255 2.388c2.444.476 4.248 2.948 3.565 5.37l-.625 2.216-44.83-8.734.233-2.292c.255-2.512 2.877-4.116 5.32-3.64" fill="#636363" mask="url(#a)"/><path d="m133.0977 75.2969-7.23 36.86c-.043.22-.09.44-.162.652-.702 2.082-2.584 3.494-4.629 3.095l-31.054-6.049c-1.933-.377-3.111-2.195-3.133-4.25-.004-.378.047-.754.12-1.125l7.163-36.767z" mask="url(#a)" stroke="#777" stroke-linecap="round" stroke-linejoin="round" stroke-width="2.411"/><path d="m136.377 74.7949-.593 3.044-45.107-8.788.593-3.044z" fill="#d1d1d1" mask="url(#a)"/><path d="m110.4473 133.0459-.339 38.235c-.184 2.33-1.829 4.244-4.018 4.228l-31.636-.241c-2.189-.017-3.787-1.953-3.954-4.288l.292-38.236z" fill="#ed6060" mask="url(#a)"/><path d="m77.2188 134.1016 3.244.024-.238 31.221c-.019 2.414-3.262 2.39-3.244-.024z" fill="#e23b3b" mask="url(#a)"/><path d="m96.7017 134.25 3.244.024-.235 30.744c-.018 2.414-3.261 2.388-3.243-.025z" fill="#e23b3b" mask="url(#a)"/><path d="m86.96 134.1758 3.244.024-.234 30.744c-.019 2.414-3.262 2.389-3.244-.025z" fill="#e23b3b" mask="url(#a)"/><path d="m105.4424 133.4785-.284 32.56c-.163 2.33-1.601 4.052-3.514 4.038l-27.651-.21c-1.913-.015-3.737-2.038-3.719-4.372l.061-8.005-.103 13.488c-.018 2.333 2.03 4.735 4.218 4.752l31.636.241c2.189.017 3.834-1.892 4.019-4.222l.338-38.232z" fill="#dd3636" mask="url(#a)"/><path d="m87.2617 126.8154 6.759.052c.011-.106.017-.212.017-.32.015-1.893-1.501-3.453-3.368-3.467s-3.406 1.523-3.42 3.416c-.001.108.003.214.012.319m-15.129-.115 12.483.095c-.005-.106-.007-.212-.006-.319.025-3.366 2.761-6.098 6.081-6.073 3.319.025 6.013 2.799 5.988 6.165-.001.106-.005.213-.011.319l12.485.095c2.489.019 4.717 2.117 4.49 4.624l-.207 2.293-45.671-.348-.192-2.296c-.211-2.515 2.071-4.574 4.56-4.555" fill="#636363" mask="url(#a)"/><path d="m110.4448 133.3838-.333 37.562c-.002.223-.009.448-.04.669-.308 2.176-1.898 3.91-3.981 3.894l-31.637-.241c-1.969-.015-3.461-1.585-3.861-3.601-.074-.371-.092-.751-.089-1.129l.285-37.456z" mask="url(#a)" stroke="#777" stroke-linecap="round" stroke-linejoin="round" stroke-width="2.411"/><path d="m113.5762 132.2881-.023 3.101-45.954-.35.023-3.101z" fill="#d1d1d1" mask="url(#a)"/><path d="m85 219.5674-24.528 26h108.528l-28-26z" fill="#caf5ff" mask="url(#a)"/><path d="m84.806158 219.5674h27.693842l-27 26.068999h-25.0260013z" fill="#46c4d1" mask="url(#a)"/><path d="m85 219.567h55.5v-27h-55.5z" fill="#caf5ff" mask="url(#a)"/><path d="m112.4961 219.5674h27.504v-27z" fill="#46c4d1" mask="url(#a)"/><g fill-opacity=".5"><path d="m1 138.567h224v-53h-224z" fill="#caf5ff" mask="url(#a)"/><path d="m114 86.5674v52h55z" fill="#46c4d1" mask="url(#a)"/><path d="m2 86.5674v52h54.992z" fill="#46c4d1" mask="url(#a)"/><g fill="#90edfc"><path d="m113 85.5674h-55-2-55l55.992 53 .008-.009.008.009z" mask="url(#a)"/><path d="m224 138.5674h-55-2-53l55 54.5-1-1.509 1 1.509z" mask="url(#a)"/><path d="m114 138.5674h-57-2-53l57 54z" mask="url(#a)"/><path d="m225 85.5674h-55-2-55l55.992 53 .008-.009.008.009z" mask="url(#a)"/></g><path d="m59 192.5674h110l-55-54z" fill="#caf5ff" mask="url(#a)"/><path d="m140 192.5674h-27.009-.982-27.009l27.496 27h.008z" fill="#90edfc" mask="url(#a)"/><path d="m85 245.5674h27.009.982 27.009l-27.496-26.014-.004.011-.004-.014z" fill="#90edfc" mask="url(#a)"/><g fill="#46c4d1"><path d="m59 192.5674-2.008-54h57.008z" mask="url(#a)"/><path d="m169 193.0674-.008-54.5h57.008z" mask="url(#a)"/></g></g><path d="m244.896 209.9092-12.766 35.565c-.931 2.115-3.089 3.365-5.126 2.636l-29.44-10.526c-2.037-.728-2.897-3.055-2.293-5.288l12.723-35.581z" fill="#ed6060" mask="url(#a)"/><path d="m213.5483 200.0742 3.018 1.079-10.388 29.054c-.803 2.246-3.821 1.167-3.018-1.079z" fill="#e23b3b" mask="url(#a)"/><path d="m231.6787 206.5566 3.018 1.079-10.228 28.609c-.804 2.247-3.822 1.167-3.019-1.08z" fill="#e23b3b" mask="url(#a)"/><path d="m222.6133 203.3154 3.019 1.079-10.229 28.609c-.804 2.247-3.822 1.167-3.019-1.08z" fill="#e23b3b" mask="url(#a)"/><path d="m240.1343 208.5469-11.062 30.834c-.912 2.121-3.01 3.807-4.79 3.171l-25.731-9.2c-1.781-.637-3.003-4.263-2.227-6.434l2.664-7.449-4.488 12.552c-.776 2.171.947 5.059 2.984 5.787l29.44 10.526c2.037.729 4.181-.483 5.112-2.597l12.752-35.526z" fill="#dd3636" mask="url(#a)"/><path d="m225.2915 196.5469 6.29 2.249c.044-.096.084-.192.12-.292v-.001c.63-1.762-.276-3.711-2.014-4.332-1.737-.621-3.674.312-4.304 2.073v.001c-.035.1-.066.2-.092.302m-14.079-5.034 11.616 4.153c.03-.1.063-.2.098-.3h.001c1.119-3.131 4.562-4.791 7.651-3.686 3.088 1.104 4.699 4.57 3.58 7.702-.036.1-.074.197-.115.294l11.619 4.154c2.316.828 3.712 3.512 2.684 5.777l-.94 2.072-42.5-15.195.568-2.207c.622-2.415 3.422-3.592 5.738-2.764" fill="#636363" mask="url(#a)"/><path d="m244.7837 210.2236-12.542 34.938c-.074.208-.153.416-.255.613-.995 1.929-3.044 3.029-4.983 2.336l-29.44-10.527c-1.833-.655-2.713-2.605-2.43-4.617.052-.369.159-.729.284-1.081l12.464-34.856z" mask="url(#a)" stroke="#777" stroke-linecap="round" stroke-linejoin="round" stroke-width="2.383"/><path d="m248.0625 210.2207-1.032 2.886-42.763-15.289 1.031-2.886z" fill="#d1d1d1" mask="url(#a)"/><path d="m307.8828 207.2656.274 37.786c-.146 2.306-1.741 4.223-3.904 4.241l-31.264.266c-2.162.019-3.773-1.87-3.975-4.174l-.32-37.786z" fill="#ed6060" mask="url(#a)"/><path d="m275.0659 208.8379 3.205-.027.262 30.853c.021 2.386-3.185 2.412-3.205.028z" fill="#e23b3b" mask="url(#a)"/><path d="m294.3193 208.6738 3.206-.027.258 30.381c.02 2.386-3.186 2.413-3.206.028z" fill="#e23b3b" mask="url(#a)"/><path d="m284.6929 208.7559 3.205-.027.258 30.381c.02 2.385-3.185 2.413-3.205.027z" fill="#e23b3b" mask="url(#a)"/><path d="m302.9429 207.6279.243 32.758c-.125 2.305-1.513 4.61-3.404 4.627l-27.326.231c-1.89.017-4.287-2.966-4.306-5.271l-.068-7.911.113 13.33c.02 2.305 2.634 4.423 4.796 4.404l31.264-.266c2.163-.018 3.758-1.894 3.904-4.199l-.274-37.745z" fill="#dd3636" mask="url(#a)"/><path d="m284.8735 201.4785 6.68-.057c.008-.104.012-.209.012-.315-.016-1.871-1.539-3.389-3.383-3.373h-.001c-1.845.016-3.341 1.558-3.325 3.43.001.106.007.211.017.315m-14.951.127 12.336-.105c-.007-.104-.01-.209-.011-.315-.028-3.326 2.632-6.07 5.912-6.098s5.986 2.67 6.015 5.996c.001.106-.001.211-.006.316l12.338-.105c2.46-.021 4.695 2.018 4.511 4.497l-.168 2.27-45.134.383-.227-2.266c-.248-2.481 1.974-4.553 4.434-4.573" fill="#636363" mask="url(#a)"/><path d="m307.8857 207.5996.269 37.12c.001.222-.002.443-.029.662-.27 2.156-1.814 3.894-3.873 3.911l-31.263.266c-1.947.017-3.446-1.512-3.874-3.497-.078-.365-.102-.74-.105-1.113l-.314-37.016z" mask="url(#a)" stroke="#777" stroke-linecap="round" stroke-linejoin="round" stroke-width="2.383"/><path d="m310.9624 206.4668.026 3.064-45.413.386-.026-3.064z" fill="#d1d1d1" mask="url(#a)"/></g></svg>