<svg height="64" viewBox="0 0 64 64" width="64" xmlns="http://www.w3.org/2000/svg" xmlns:xlink="http://www.w3.org/1999/xlink"><mask id="a" fill="#fff"><path d="m.00002634 0h53.94715906v53.9360956h-53.94715906z" fill="#fff" fill-rule="evenodd"/></mask><path d="m42.1833776 22.4447444c0 10.8802097-8.8583708 19.7385805-19.7385805 19.7385805-10.879683 0-19.73858051-8.8583708-19.73858051-19.7385805 0-10.8798146 8.85889751-19.7385805 19.73858051-19.7385805 10.8802097 0 19.7385805 8.8475707 19.7385805 19.7385805m-42.18335126 0c0 12.3825951 10.07350246 22.4452976 22.44477076 22.4452976 5.6998975 0 10.9131366-2.1434049 14.8788439-5.6557757l14.3040731 14.3043366c.2649952.2648634.6075659.3974927.9610683.3974927.3535025 0 .6955464-.1326293.9610683-.3974927.5298586-.5299902.5298586-1.3805561 0-1.9109414l-14.3155317-14.3040732c3.5123708-3.9657073 5.6557756-9.1681463 5.6557756-14.8788439 0-12.3820683-10.0741609-22.44477074-22.4452975-22.44477074-12.3712683 0-22.44477076 10.06270244-22.44477076 22.44477074" fill="#b8babc" fill-rule="evenodd" mask="url(#a)" transform="translate(5 5)"/></svg>