<svg height="48" viewBox="0 0 36 48" width="36" xmlns="http://www.w3.org/2000/svg"><path d="m26.07 6.06225c.0375.135.0675.27.075.3975v.33c-.0075.135-.0375.27-.075.3975-.2625.9225-1.0875 1.56-2.055 1.5975h-12.045c-.9525-.0375-1.7775-.675-2.04-1.5975-.0375-.1275-.0675-.2625-.075-.4125v-.3c.0075-.1425.0375-.285.075-.4125.0675-.225.1725-.4425.3075-.6375.2925-.4275.735-.735 1.2375-.87.1875-.0525.3825-.075.5775-.075h1.2975v.5625c.015-1.2525.54-2.385 1.3725-3.21.84-.8175 1.9875-1.3275 3.2625-1.3275h.0675c2.505 0 4.5675 2.0325 4.5975 4.5375 0 0 0-.1875 0-.5625h1.2975c.195 0 .39.0225.5775.075.5025.135.945.4425 1.2375.87.135.195.24.4125.3075.6375zm-5.6025-.8325v-.195c-.0375-1.2975-1.1175-2.3475-2.415-2.3475h-.105c-1.2975 0-2.3775 1.05-2.415 2.3475v.195zm14.787 31.34025c.00975 2.86275.02025 2.0325-.042 4.96875-.03525 1.56675-.684 3.05325-1.82775 4.18575-1.1535 1.14075-2.65875 1.77-4.24125 1.77h-.02475c-3.37275-.015-6.66075-.01575-10.01175-.01575h-1.107-1.10625c-3.35175 0-6.63975.00075-10.01175.01575h-.02475c-1.5825 0-3.0885-.62925-4.24125-1.77-1.14375-1.13175-1.7925-2.61825-1.82775-4.18575-.06375-2.93625-.05325-2.106-.04275-4.96875l.00225-.42375c.003-1.0005.00675-2.034.006-3.04875-.0015-2.37825 0-4.75725.00075-7.1355v-1.2225c.00075-3.69075.00225-7.5075-.00375-11.25075-.00375-2.7945 1.164-4.848 3.47325-6.10125.79425-.429 1.689-.6225 2.904-.62625l.63-.00075v2.94l-.141.00075c-.399.00375-.74025.0135-1.04325.03375-1.5525.099-2.8815 1.41825-2.96175 2.94-.07725 1.48275-.07425 3.03825-.07125 4.41225.00075.303.00075.60675.00075.90975-.00375 5.1255-.00375 10.2495-.00375 15.3735 0 3.57525 0 3.36075-.00075 6.936 0 .81375 0 1.65525.3885 2.38125.67275 1.254 1.638 1.863 2.9535 1.863 1.7775 0 3.555 0 5.33175-.00075l5.3325-.00075h.45675.45675l5.3325.00075c1.77675.00075 3.55425.00075 5.33175.00075 1.3155 0 2.28075-.60975 2.9535-1.863.3885-.726.3885-1.5675.3885-2.38125-.00075-3.57525-.00075-3.36075-.00075-6.936 0-5.124 0-10.24875-.00375-15.3735 0-.303 0-.60675.00075-.90975.003-1.37325.00525-2.9295-.07125-4.41225-.08025-1.52175-1.4085-2.84025-2.96175-2.94-.303-.0195-.64425-.03-1.04325-.03375l-.141-.00075v-2.94l.63.00075c1.21425.00375 2.10975.19725 2.904.62625 2.3085 1.254 3.477 3.30675 3.47325 6.10125-.006 3.744-.0045 7.56-.00375 11.25075v1.2225c.00075 2.37825.0015 4.75725.00075 7.1355-.00075 1.01475.003 2.04825.006 3.04875zm-27.05175-4.28325h10.4625v2.25h-10.4625c-.62132034 0-1.125-.5036797-1.125-1.125s.50367966-1.125 1.125-1.125zm0 4.506h7.4625v2.25h-7.4625c-.62132034 0-1.125-.5036797-1.125-1.125s.50367966-1.125 1.125-1.125zm19.50975-4.54275c.6213203 0 1.125.5036797 1.125 1.125s-.5036797 1.125-1.125 1.125h-8.2125v-2.25zm0 4.5c.6213203 0 1.125.5036797 1.125 1.125s-.5036797 1.125-1.125 1.125h-11.2125v-2.25zm-14.05477-17.0121851 3.0019999 3.0357934c.4872483-.349801 1.0827924-.5554437 1.7258322-.5554437.3717428 0 .7276124.0687263 1.0558621.1942998l3.3576674-5.3576359c-.6314633-.5534259-1.0308764-1.3704368-1.0308764-2.2817858 0-1.666957 1.3362929-3.0182927 2.9846939-3.0182927 1.6484009 0 2.9846938 1.3513357 2.9846938 3.0182927s-1.3362929 3.0182927-2.9846938 3.0182927c-.1717559 0-.3401232-.0146711-.5039435-.0428415l-3.520633 5.6176706c.4019719.5142174.6419234 1.1639178.6419234 1.8702928 0 1.666957-1.336293 3.0182927-2.9846939 3.0182927s-2.9846939-1.3513357-2.9846939-3.0182927c0-.4295007.0887117-.8380485.2486165-1.2079276l-3.2327066-3.2690973c-.3657617.1617049-.7697616.2514152-1.1944813.2514152-1.6484009 0-2.98469387-1.3513357-2.98469387-3.0182927s1.33629297-3.0182927 2.98469387-3.0182927 2.9846939 1.3513357 2.9846939 3.0182927c0 .6502785-.2033536 1.2525267-.5492607 1.74526zm-2.4354332.0657156c.9890406 0 1.7908163-.8108014 1.7908163-1.8109756s-.8017757-1.8109756-1.7908163-1.8109756c-.9890405 0-1.79081631.8108014-1.79081631 1.8109756s.80177581 1.8109756 1.79081631 1.8109756zm7.1632653 7.2439024c.9890406 0 1.7908163-.8108014 1.7908163-1.8109756s-.8017757-1.8109756-1.7908163-1.8109756c-.9890405 0-1.7908163.8108014-1.7908163 1.8109756s.8017758 1.8109756 1.7908163 1.8109756zm6.367347-10.4634146c.9890405 0 1.7908163-.8108014 1.7908163-1.8109756s-.8017758-1.8109756-1.7908163-1.8109756c-.9890406 0-1.7908164.8108014-1.7908164 1.8109756s.8017758 1.8109756 1.7908164 1.8109756z" fill="#4a4a4a"/></svg>