<svg height="123" viewBox="0 0 124 123" width="124" xmlns="http://www.w3.org/2000/svg" xmlns:xlink="http://www.w3.org/1999/xlink"><mask id="a" fill="#fff"><path d="m.067 46.746c0 25.34 20.542 45.882 45.882 45.882 25.339 0 45.881-20.542 45.881-45.882 0-25.339-20.542-45.881-45.881-45.881-25.34 0-45.882 20.542-45.882 45.881z" fill="#fff" fill-rule="evenodd"/></mask><mask id="b" fill="#fff"><path d="m45.949 92.628c25.339 0 45.881-20.542 45.881-45.882 0-25.339-20.542-45.881-45.881-45.881-25.34 0-45.882 20.542-45.882 45.881 0 25.34 20.542 45.882 45.882 45.882z" fill="#fff" fill-rule="evenodd"/></mask><mask id="c" fill="#fff"><path d="m19.94 1.208a23.833 23.833 0 0 0 -12.523 6.598c-.013.012-.02.026-.032.038a23.882 23.882 0 0 0 -6.964 16.795c0 .032-.009.061-.009.091 0 .08.005.159.006.238a24.068 24.068 0 0 0 .088 1.813c.011.13.016.261.029.39a24.53 24.53 0 0 0 .27 1.848c.203 1.122.484 2.217.838 3.279.007.02.015.041.021.062 3.195 9.483 12.165 16.335 22.712 16.335a3.619 3.619 0 1 0 0-7.239c-6.908 0-12.85-4.209-15.398-10.199-.005-.011-.006-.023-.011-.034a16.825 16.825 0 0 1 -1.071-3.657 17.16 17.16 0 0 1 -.165-1.209 18.068 18.068 0 0 1 -.074-1.389 16.673 16.673 0 0 1 4.883-12.043l.013-.016a16.667 16.667 0 0 1 18.298-3.558c.157.066.318.104.478.147 4.583 2.08 8.011 6.581 9.284 11.439.061.231-.012 1.091-.612 1.091h-21.431c-1.998 0-3.619 2-3.619 3.999 0 2 1.621 4.001 3.619 4.001h21.973c2.284 0 4.404-1.877 5.817-3.671 1.409-1.79 1.919-4.912 1.398-7.126-1.748-7.444-7.012-13.655-14.079-16.613a3.626 3.626 0 0 0 -.758-.219 23.907 23.907 0 0 0 -12.981-1.191z" fill="#fff" fill-rule="evenodd"/></mask><g fill="none" fill-rule="evenodd"><path d="m2.23 61.37c0-32.982 26.736-59.72 59.718-59.72s59.72 26.738 59.72 59.72c0 32.981-26.738 59.718-59.72 59.718s-59.718-26.737-59.718-59.718" fill="#ddd"/><path d="m19.725 103.672c23.817 23.815 61.132 23.32 84.454-.001 23.321-23.322 23.817-60.637.001-84.454z" fill="#b2b2b2"/><path d="m16.067 61.37c0-25.34 20.542-45.882 45.882-45.882s45.88 20.542 45.88 45.881c0 25.34-20.54 45.882-45.88 45.882s-45.882-20.542-45.882-45.882" fill="#bcbcbc"/><path d="m131.677 31.341-108.659 108.659-19.434-18.297 108.66-108.659z" fill="#fff" fill-opacity=".3" mask="url(#a)" transform="translate(16 14.623)"/><path d="m104.76 5.123-108.66 108.659-7.542-9.566 108.659-108.66z" fill="#fff" fill-opacity=".3" mask="url(#b)" transform="translate(16 14.623)"/><path d="m16.067 61.37c0-25.34 20.542-45.882 45.882-45.882s45.88 20.542 45.88 45.881c0 25.34-20.54 45.882-45.88 45.882s-45.882-20.542-45.882-45.882z" stroke="#aaa" stroke-width="1.684"/><path d="m85.759 55.854c-1.75-7.444-7.012-13.654-14.08-16.613a3.63 3.63 0 0 0 -.758-.22 23.928 23.928 0 0 0 -12.98-1.19 23.832 23.832 0 0 0 -12.524 6.598c-.012.012-.02.026-.032.038a23.876 23.876 0 0 0 -6.963 16.796c-.001.03-.01.06-.01.091 0 .08.006.158.007.237a22.478 22.478 0 0 0 .087 1.813c.012.13.017.26.03.39.053.52.128 1.035.214 1.545l.054.303c.204 1.122.485 2.216.84 3.28l.02.06c3.195 9.484 12.166 16.336 22.712 16.336a3.62 3.62 0 1 0 0-7.239c-6.908 0-12.85-4.21-15.398-10.199-.005-.01-.006-.023-.011-.034a16.866 16.866 0 0 1 -1.232-4.825l-.003-.042a16.265 16.265 0 0 1 -.075-1.389 16.674 16.674 0 0 1 4.883-12.042l.013-.017a16.67 16.67 0 0 1 18.298-3.557c.158.066.318.104.478.147 4.583 2.08 8.012 6.581 9.285 11.44.06.23-.013 1.09-.612 1.09h-21.432c-2 0-3.62 2-3.62 4 0 1.998 1.62 4 3.62 4h21.972c2.284 0 4.404-1.877 5.818-3.67 1.409-1.79 1.919-4.913 1.398-7.127" fill="#6d6d6d"/><path d="m108.22 9.341-108.657 108.659-19.434-18.297 108.658-108.659z" fill="#6d6d6d" mask="url(#c)" transform="translate(38 36.623)"/><path d="m2.23 61.37c0-32.982 26.736-59.72 59.718-59.72s59.72 26.738 59.72 59.72c0 32.981-26.738 59.718-59.72 59.718s-59.718-26.737-59.718-59.718z" stroke="#777" stroke-linecap="round" stroke-linejoin="round" stroke-width="3.302"/><path d="m36.544 35.448c-4.459-2.497-7.677-7.833-9.383-11.264a1.56 1.56 0 0 0 -2.8 0c-1.707 3.43-4.925 8.767-9.384 11.264a1.563 1.563 0 0 0 0 2.75c4.46 2.498 7.677 7.834 9.383 11.265a1.56 1.56 0 0 0 2.801 0c1.706-3.431 4.924-8.767 9.383-11.264a1.564 1.564 0 0 0 0-2.751" fill="#fff"/></g></svg>