<svg height="40" viewBox="0 0 80 121" width="25" xmlns="http://www.w3.org/2000/svg"><g fill="none" fill-rule="evenodd"><g fill="#b3b3b3"><path d="m77.49 76.575h-74.59v29.645c1.912 7.65 17.134 12.518 37.571 12.518s36.777-4.867 37.078-12.518l-.06-5.643v-24.002z"/><path d="m77.49 53.622h-74.59v29.646c1.912 7.651 17.134 12.52 37.571 12.52s36.777-4.869 37.078-12.52l-.06-5.642v-24.004z"/><path d="m77.49 30.671h-74.59v29.646c1.912 7.651 17.134 12.518 37.571 12.518s36.777-4.867 37.078-12.518l-.06-5.642v-24.004z"/><path d="m77.49 15.37h-74.59v21.995c1.912 7.651 17.134 12.52 37.571 12.52s36.777-4.869 37.078-12.52l-.06-5.64v-16.355z"/></g><path d="m34.269 118.738-13.278-2.78v-91.12l13.278 2.633zm15.75-.275-8.21.26v-91.093l8.21-.16z" fill="#fff" fill-opacity=".3"/><path d="m68.62 114.897 1.98-1.342c-.621.303-1.063.594-1.98.873v.47z" fill="#929494"/><path d="m75.49 110.533-4.459 3.022c1.854-.905 3.355-1.917 4.46-3.022" fill="#b3b3b3"/><path d="m77.63 17.682-8.91 6.096v90.65c0-.279 1.524.348 2.145.045l4.542-3.022c1.311-1.31 2.018-3.67 2.08-5.23l.142-88.539z" fill="#929494"/><g stroke="#757575" stroke-linecap="round" stroke-linejoin="round" stroke-width="3.825"><path d="m2.899 76.575v29.645c1.913 7.65 17.135 12.518 37.573 12.518 20.437 0 36.776-4.867 37.077-12.518l-.06-5.643v-24.002"/><path d="m2.899 53.622v29.646c1.913 7.651 17.135 12.52 37.573 12.52 20.437 0 36.776-4.869 37.077-12.52l-.06-5.642v-24.004"/><path d="m2.899 30.671v29.646c1.913 7.651 17.135 12.518 37.573 12.518 20.437 0 36.776-4.867 37.077-12.518l-.06-5.642v-24.004"/><path d="m77.49 15.37h-74.59v21.995c1.912 7.651 17.134 12.52 37.571 12.52s36.777-4.869 37.078-12.52l-.06-5.64v-16.355z"/></g><path d="m77.377 14.922c0 7.017-16.672 12.708-37.24 12.708s-37.238-5.691-37.238-12.708 16.67-12.708 37.238-12.708 37.24 5.691 37.24 12.708" fill="#b3b3b3"/><path d="m47.48 3.133c-1.043 0-2.075.019-2.285-.693l-25.451 23.112c4.663 2.662 6.412 1.48 14.525 1.918l24.44-23.56c-5.467-1.077-4.462-.778-11.228-.778m15.261 3.719-21.3 20.778c3.652.64 6.356 0 9.964-.699l18.276-18.567c-5.468-1.076-5.917-1.54-6.94-1.512" fill="#fff" fill-opacity=".3"/><path d="m77.377 14.922c0 7.017-16.672 12.708-37.24 12.708s-37.238-5.691-37.238-12.708 16.67-12.708 37.238-12.708 37.24 5.691 37.24 12.708z" stroke="#757575" stroke-linecap="round" stroke-linejoin="round" stroke-width="3.825"/></g></svg>