<svg height="48" viewBox="0 0 48 48" width="48" xmlns="http://www.w3.org/2000/svg"><g fill="#fff" fill-rule="evenodd"><path d="m22.4867002 25.5101068c1.1315707 1.1316838 1.1251006 2.9446025.0030473 4.0667678l-13.2533558 13.2555532 8.2671048.002192c1.6352476.0501211 2.5352288 1.0667189 2.4882904 2.4872222-.0472944 1.4221222-1.3280837 2.6152578-2.6594399 2.6597054-1.3306979.0437892-14.82192074-.0041016-14.82192074-.0041016-.71050314.0234783-1.34374775-.2431325-1.79429363-.6937234s-.7171301-1.0838987-.69333844-1.7941571c0 0-.04820172-13.4928859-.00441688-14.8237167.04444312-1.3314892 1.23745957-2.6124063 2.65943985-2.6597055 1.42004569-.0472589 2.43685772.853128 2.48665806 2.4882231l.00240341 8.2683503 13.25345987-13.2556573c1.1211484-1.1212604 2.9426254-1.1208009 4.0663617.0030476z" transform="matrix(-1 0 0 -1 23.333334 72.666666)"/><path d="m25.5132998 22.4898932c-1.1315707-1.1316838-1.1251006-2.9446025-.0030473-4.0667678l13.2533558-13.25555323-8.2671048-.00219197c-1.6352476-.05012107-2.5352288-1.0667189-2.4882904-2.48722215.0472944-1.4221223 1.3280837-2.6152579 2.6594399-2.65970545 1.3306979-.04378921 14.8219207.00410156 14.8219207.00410156.7105032-.02347827 1.3437478.24313257 1.7942937.69372344.4505458.45059087.7171301 1.08389873.6933384 1.79415706 0 0 .0482017 13.49288594.0044169 14.82371674-.0444431 1.3314892-1.2374596 2.6124063-2.6594399 2.6597055-1.4200456.0472589-2.4368577-.853128-2.486658-2.4882231l-.0024034-8.2683503-13.2534599 13.2556573c-1.1211484 1.1212604-2.9426254 1.1208009-4.0663617-.0030476z" transform="matrix(-1 0 0 -1 72.666666 23.333334)"/></g></svg>