<svg height="100" viewBox="0 0 109 100" width="109" xmlns="http://www.w3.org/2000/svg" xmlns:xlink="http://www.w3.org/1999/xlink"><defs><path id="a" d="m20 52c0 5.523-4.477 10-10 10s-10-4.477-10-10 4.477-10 10-10 10 4.477 10 10"/><filter id="b" height="135%" width="135%" x="-17.5%" y="-12.5%"><feOffset dy="1" in="SourceAlpha" result="shadowOffsetOuter1"/><feGaussianBlur in="shadowOffsetOuter1" result="shadowBlurOuter1" stdDeviation="1"/><feColorMatrix in="shadowBlurOuter1" values="0 0 0 0 0 0 0 0 0 0 0 0 0 0 0 0 0 0 0.4 0"/></filter><path id="c" d="m30 10c0 5.523-4.477 10-10 10s-10-4.477-10-10 4.477-10 10-10 10 4.477 10 10"/><filter id="d" height="135%" width="135%" x="-17.5%" y="-12.5%"><feOffset dy="1" in="SourceAlpha" result="shadowOffsetOuter1"/><feGaussianBlur in="shadowOffsetOuter1" result="shadowBlurOuter1" stdDeviation="1"/><feColorMatrix in="shadowBlurOuter1" values="0 0 0 0 0 0 0 0 0 0 0 0 0 0 0 0 0 0 0.4 0"/></filter><path id="e" d="m20 66c-5.523 0-10-4.477-10-10s4.477-10 10-10 10 4.477 10 10-4.477 10-10 10z"/><filter id="f" height="135%" width="135%" x="-17.5%" y="-12.5%"><feOffset dy="1" in="SourceAlpha" result="shadowOffsetOuter1"/><feGaussianBlur in="shadowOffsetOuter1" result="shadowBlurOuter1" stdDeviation="1"/><feColorMatrix in="shadowBlurOuter1" values="0 0 0 0 0 0 0 0 0 0 0 0 0 0 0 0 0 0 0.4 0"/></filter><path id="g" d="m10 20c-5.523 0-10-4.477-10-10s4.477-10 10-10 10 4.477 10 10-4.477 10-10 10z"/><filter id="h" height="135%" width="135%" x="-17.5%" y="-12.5%"><feOffset dy="1" in="SourceAlpha" result="shadowOffsetOuter1"/><feGaussianBlur in="shadowOffsetOuter1" result="shadowBlurOuter1" stdDeviation="1"/><feColorMatrix in="shadowBlurOuter1" values="0 0 0 0 0 0 0 0 0 0 0 0 0 0 0 0 0 0 0.4 0"/></filter><path id="i" d="m20 10c0 5.523-4.477 10-10 10s-10-4.477-10-10 4.477-10 10-10 10 4.477 10 10"/><filter id="j" height="135%" width="135%" x="-17.5%" y="-12.5%"><feOffset dy="1" in="SourceAlpha" result="shadowOffsetOuter1"/><feGaussianBlur in="shadowOffsetOuter1" result="shadowBlurOuter1" stdDeviation="1"/><feColorMatrix in="shadowBlurOuter1" values="0 0 0 0 0 0 0 0 0 0 0 0 0 0 0 0 0 0 0.4 0"/></filter></defs><g fill="none" fill-rule="evenodd" transform="translate(-2 1)"><g stroke="#d54e4e"><path d="m55.79 95.92c1.672 0 3.616.18 5.24 0 22.198-2.45 37.97-18.677 37.97-41.45 0-6.492-1.243-14.312-3.763-19.866-3.648-8.042-6.207-13.877-13.24-18.378-6.398-4.096-17.012-7.226-25.59-7.226-9.555 0-17.496 2.241-24.47 7.396-3.894 2.88-7.852 7.23-10.739 11.248-1.881 2.618-4.31 5.034-5.741 8.013-2.535 5.273-3.457 11.46-3.457 17.596 0 2.826 1.16 5.586 1.667 8.266 3.887 20.487 20.435 34.401 42.123 34.401z"/><path d="m58.783 95.92c1.671 0 3.616.18 5.239 0 22.194-2.45 37.963-18.677 37.963-41.451 0-.744.033-1.195 0-1.969-.252-5.975-1.03-14.008-3.261-18.926-3.648-8.042-6.707-12.848-13.74-17.35-6.395-4.094-17.007-7.224-25.584-7.224-9.553 0-17.493 2.241-24.465 7.396-3.894 2.88-7.85 7.23-10.737 11.248-1.882 2.618-4.309 5.034-5.74 8.013-2.537 5.273-3.458 11.46-3.458 17.596 0 2.826 1.159 5.586 1.667 8.266 3.886 20.487 20.431 34.401 42.116 34.401z"/><path d="m50.594 6.079c-1.672 0 .264-.178-1.36 0-22.197 2.431-41.234 23.233-41.234 45.822 0 6.439 1.243 14.195 3.763 19.704 3.648 7.976 6.207 13.764 13.24 18.229 6.398 4.061 17.012 7.166 25.59 7.166 9.555 0 17.496-2.223 24.47-7.336 3.894-2.856 7.852-7.172 10.739-11.156 1.881-2.597 4.31-4.994 5.741-7.949 2.535-5.229 3.457-11.367 3.457-17.452 0-2.804-1.16-5.541-1.667-8.199-3.887-20.32-21.05-38.829-42.74-38.829z"/><path d="m55.21 9.08c-1.672 0-3.616-.18-5.24 0-22.198 2.452-37.97 18.683-37.97 41.464 0 6.494 1.243 14.316 3.763 19.872 3.647 8.044 6.207 13.881 13.24 18.384 6.398 4.096 17.584 9.2 26.163 9.2 9.554 0 16.923-4.215 23.897-9.371 3.894-2.88 7.852-7.233 10.739-11.252 1.881-2.618 4.31-5.035 5.741-8.015 2.535-5.275 3.457-11.465 3.457-17.602 0-2.828-1.16-5.589-1.667-8.269-3.887-20.491-20.435-34.411-42.123-34.411z"/><path d="m56.445 93.92c-.945 0-3.597.18-5.212 0-22.078-2.452-40.233-17.945-40.233-40.73 0-6.496.718-14.005 3.224-19.562 3.629-8.046 9.452-15.842 16.448-20.346 6.363-4.096 19.338-8.282 27.872-8.282 5.973 0 10.038 1.747 14.903 3.686 2.875 1.145 4.146 3.755 6.723 5.671 3.873 2.88 7.81 7.234 10.681 11.253 1.872 2.62 4.286 5.037 5.71 8.018 2.523 5.275 3.439 11.466 3.439 17.604 0 2.828-1.153 5.589-1.659 8.27-3.865 20.497-20.324 34.418-41.896 34.418z"/></g><g opacity=".7" stroke="#c80707"><path d="m56.868 11.9c4.93 5.155 32.89 65.25 30.912 75.31m-34.312-74.007c8.613 7.115 38.967 60.514 39.509 72.703m-35.287-77.772c8.493 9.696 34.572 67.926 31.065 80.146m-35.043-75.563c13.273 14.724 32.973 64.199 31.833 72.777" fill-rule="nonzero" stroke-width=".84"/><path d="m60.537 7.565c-5.405 5.378-36.734 67.445-34.825 77.69m39.124-77.285c-9.309 7.433-42.625 62.605-43.423 75.084m38.483-79.128c-9.166 9.94-37.896 69.134-34.44 81.375m31.822-74.941c-14.253 15.39-35.71 66.827-34.596 75.695" fill-rule="nonzero" stroke-width=".84"/><g stroke-width=".8"><path d="m13.923 43.145c33.351 17.172 56.937 30.314 70.757 39.427m-69.498-42.748c30.203 16.235 52.06 29.06 65.569 38.473m-65.471-36.845c31.063 14.682 53.4 26.638 67.013 35.867m-66.559-38.491c29.601 17.32 51.112 30.768 64.532 40.344"/><path d="m92.101 39.618c-30.82 21.385-53.496 36.04-68.03 43.964m70.371-41.294c-28.514 19.046-50.098 32.323-64.752 39.832m63.269-40.51c-27.547 20.535-48.59 34.645-63.13 42.33m65.233-40.697c-29.19 18.005-51.162 30.685-65.917 38.038"/></g></g><g transform="translate(79 32)"><use fill="#000" filter="url(#b)" xlink:href="#a"/><use fill="#1f92ff" xlink:href="#a"/></g><g transform="translate(79 32)"><use fill="#000" filter="url(#d)" xlink:href="#c"/><use fill="#009da3" xlink:href="#c"/></g><g transform="translate(4 29)"><use fill="#000" filter="url(#f)" xlink:href="#e"/><use fill="#0fb956" xlink:href="#e"/></g><g transform="translate(4 29)"><use fill="#000" filter="url(#h)" xlink:href="#g"/><use fill="#743feb" xlink:href="#g"/></g><g transform="translate(46)"><use fill="#000" filter="url(#j)" xlink:href="#i"/><use fill="#ebb981" xlink:href="#i"/></g><circle cx="56.5" cy="52.5" fill="#fff" fill-rule="nonzero" opacity=".9" r="19.5"/></g></svg>