<svg height="18" viewBox="0 0 18 18" width="18" xmlns="http://www.w3.org/2000/svg"><g fill="none" fill-rule="evenodd"><circle cx="9" cy="9" fill="#c80707" fill-rule="nonzero" r="9"/><path d="m2.006 3h13.44v13h-13.44z"/><path d="m8.72 5.167v-.97c0-.244-.302-.363-.476-.19l-1.568 1.513a.262.262 0 0 0 0 .384l1.562 1.512c.18.168.482.048.482-.195v-.97c1.854 0 3.36 1.457 3.36 3.25 0 .428-.084.845-.246 1.219a.509.509 0 0 0 .128.563.57.57 0 0 0 .919-.184 4.12 4.12 0 0 0 .319-1.599c0-2.394-2.005-4.333-4.48-4.333zm0 7.583c-1.854 0-3.36-1.457-3.36-3.25 0-.428.084-.845.246-1.219a.509.509 0 0 0 -.128-.563.57.57 0 0 0 -.919.184 4.12 4.12 0 0 0 -.319 1.598c0 2.394 2.005 4.333 4.48 4.333v.97c0 .244.302.363.476.19l1.562-1.512a.262.262 0 0 0 0-.384l-1.562-1.512c-.174-.168-.476-.048-.476.195z" fill="#fff" fill-rule="nonzero"/></g></svg>