<svg height="48" viewBox="0 0 46 48" width="46" xmlns="http://www.w3.org/2000/svg"><g fill="none" transform="translate(.530612 .428571)"><path d="m35.0423245 46.657046h-4.1901211v-43.7605569h4.1901211c.8829297 0 1.5980629.71513318 1.5980629 1.59806296v40.56443104c0 .8821307-.7151332 1.5980629-1.5980629 1.5980629z" fill="#52b8d9"/><path d="m35.0423245 47.0565617h-4.1901211c-.2205327 0-.3995157-.178983-.3995157-.3995157v-43.7605569c0-.22053268.178983-.39951573.3995157-.39951573h4.1901211c1.1018644 0 1.9975786.89571428 1.9975786 1.99757869v40.56443104c0 1.1018644-.8957142 1.9975786-1.9975786 1.9975786zm-3.7906054-.7990314h3.7906054c.660799 0 1.1985472-.5377482 1.1985472-1.1985472v-40.56443104c0-.66079903-.5377482-1.19854722-1.1985472-1.19854722h-3.7906054z" fill="#63312d"/><path d="m32.4502663 46.657046h-30.35440674c-.88292978 0-1.59806295-.7151332-1.59806295-1.5980629v-40.56443104c0-.88292978.71513317-1.59806296 1.59806295-1.59806296h30.35520584c.8829298 0 1.5980629.71513318 1.5980629 1.59806296v40.56443104c-.000799.8821307-.7159322 1.5980629-1.598862 1.5980629z" fill="#82d9ff"/><path d="m2.89489104 4.49455206h31.15423726c0-.88292978-.7151331-1.59806296-1.5980629-1.59806296h-30.35520584c-.88292978 0-1.59806295.71513318-1.59806295 1.59806296v40.56443104c0 .8829297.71513317 1.5980629 1.59806295 1.5980629v-41.36346246c0-.44106538.35716707-.79903148.79903148-.79903148z" fill="#caf4ff"/><path d="m32.4502663 47.0565617h-30.35440674c-1.1018644 0-1.99757869-.8957142-1.99757869-1.9975786v-40.56443104c0-1.10186441.89571429-1.99757869 1.99757869-1.99757869h30.35440674c1.1018645 0 1.9975787.89571428 1.9975787 1.99757869v40.56443104c0 1.1018644-.8957142 1.9975786-1.9975787 1.9975786zm-30.35440674-43.76055686c-.66079903 0-1.19854721.53774819-1.19854721 1.19854722v40.56443104c0 .660799.53774818 1.1985472 1.19854721 1.1985472h30.35440674c.6607991 0 1.1985473-.5377482 1.1985473-1.1985472v-40.56443104c0-.66079903-.5377482-1.19854722-1.1985473-1.19854722z" fill="#63312d"/><path d="m3.693923 6.092615h27.15908v37.368305h-27.15908z" fill="#f8f3f3"/><path d="m30.8522034 43.8604358h-27.15828088c-.22053269 0-.39951574-.178983-.39951574-.3995157v-37.36830509c0-.22053269.17898305-.39951574.39951574-.39951574h27.15828088c.2205327 0 .3995157.17898305.3995157.39951574v37.36830509c0 .2205327-.178184.3995157-.3995157.3995157zm-26.75876514-.7990314h26.35924944v-36.56927365h-26.35924944z" fill="#63312d"/><path d="m9.479709.485811h16.546344v7.504504h-16.546344z" fill="#f9dd9d"/><path d="m11.0777724 2.08387409h14.9490799v-1.59806295h-16.54714286v7.50450363h1.59806296z" fill="#ffeecf"/><g fill="#63312d"><path d="m26.0260533 8.38983051h-16.54634386c-.22053268 0-.39951574-.17898305-.39951574-.39951574v-7.50450363c0-.22053269.17898306-.39951574.39951574-.39951574h16.54634386c.2205327 0 .3995157.17898305.3995157.39951574v7.50450363c0 .22053269-.178184.39951574-.3995157.39951574zm-16.14682812-.79903148h15.74731232v-6.70547215h-15.74731232z"/><path d="m13.352615 20.7748184h-5.72665858c-.22053269 0-.39951574-.178983-.39951574-.3995157v-5.7266586c0-.2205327.17898305-.3995158.39951574-.3995158h5.72665858c.2205327 0 .3995158.1789831.3995158.3995158v5.7266586c0 .2205327-.1789831.3995157-.3995158.3995157zm-5.32714285-.7990315h4.92762715v-4.9276271h-4.92762715z"/><path d="m15.949467 17.112857h11.119322v1h-11.119322z"/><path d="m13.352615 29.497845h-5.72665858c-.22053269 0-.39951574-.178983-.39951574-.3995157v-5.7266586c0-.2205327.17898305-.3995157.39951574-.3995157h5.72665858c.2205327 0 .3995158.178983.3995158.3995157v5.7266586c0 .2205327-.1789831.3995157-.3995158.3995157zm-5.32714285-.7990314h4.92762715v-4.9276272h-4.92762715z"/><path d="m15.949467 25.835085h11.119322v1h-11.119322z"/><path d="m13.352615 38.2200726h-5.72665858c-.22053269 0-.39951574-.178983-.39951574-.3995157v-5.7258596c0-.2205327.17898305-.3995157.39951574-.3995157h5.72665858c.2205327 0 .3995158.178983.3995158.3995157v5.7258596c0 .2205327-.1789831.3995157-.3995158.3995157zm-5.32714285-.7990314h4.92762715v-4.9268281h-4.92762715z"/><path d="m15.949467 34.558111h11.119322v1h-11.119322z"/></g><circle cx="34.903293" cy="36.7123" fill="#f9a287" r="9.944746"/><path d="m34.903293 47.0565617c-5.7042857 0-10.3442615-4.6407748-10.3442615-10.3434624 0-5.7042857 4.6407748-10.3442615 10.3442615-10.3442615s10.3434624 4.6407748 10.3434624 10.3442615c0 5.7026876-4.6407748 10.3434624-10.3434624 10.3434624zm0-19.8894915c-5.2632204 0-9.54523 4.2820097-9.54523 9.54523 0 5.2632204 4.2820096 9.544431 9.54523 9.544431 5.2632203 0 9.544431-4.2812106 9.544431-9.544431 0-5.2632203-4.2812107-9.54523-9.544431-9.54523z" fill="#63312d"/><path d="m33.4258838 40.9527603c-.3276029 0-.6552058-.1214528-.9108959-.3651574l-3.1042373-2.9636077c-.5265617-.5025908-.5457385-1.3375787-.0431477-1.8641405.5025908-.5265617 1.3375787-.5457385 1.8641404-.0431477l2.1885473 2.0894673 5.1457627-4.9643825c.5241646-.505787 1.3591525-.4906054 1.8649394.0335593.505787.5241646.4906054 1.3591525-.0335593 1.8649395l-6.0574576 5.8433171c-.254092.2461017-.583293.3691526-.914092.3691526z" fill="#f8f3f3"/><path d="m33.4258838 41.352276c-.4434625 0-.8645521-.1685956-1.1857627-.4762227l-3.1050364-2.9636078c-.331598-.3164164-.5201694-.7438983-.5305569-1.2025424-.0103874-.458644.1582083-.8941162.4754238-1.2257142.6552058-.685569 1.7450847-.710339 2.4282566-.0567313l1.9128814 1.8241889 4.8708959-4.6975061c.3292009-.3196126.7686683-.4961985 1.2233172-.482615.457845.0087894.8861259.1949637 1.2057385.5249637.6576029.6815739.6392251 1.7714528-.0431477 2.4298547l-6.0582567 5.8433172c-.3212106.3116223-.7454964.482615-1.193753.482615zm-3.1034383-5.6004116c-.2429055 0-.4842131.0950848-.6655932.2836562-.1693947.177385-.2588862.4107022-.253293.6552058.0055932.2461017.1062712.4746247.2828572.6440194l3.1050363 2.9636077c.3451816.329201.9308717.3276029 1.2728571-.0031961l6.0582567-5.8433172c.3643583-.3515739.3755448-.9348668.0231719-1.2992252-.1709927-.177385-.4003148-.2772639-.6464165-.2820635-.2580871-.0007936-.4778208.0870998-.6536077.2572935l-5.1465618 4.9651816c-.152615.150218-.3979176.150218-.5521307.0015981l-2.1893463-2.0894673c-.178184-.1693947-.407506-.253293-.63523-.253293z" fill="#63312d"/></g></svg>