<svg height="16" viewBox="0 0 16 16" width="16" xmlns="http://www.w3.org/2000/svg"><g fill="#52b9e7"><path d="m7.931 0c-4.373 0-7.931 3.558-7.931 7.931 0 4.374 3.558 7.932 7.931 7.932 4.374 0 7.932-3.558 7.932-7.932 0-4.373-3.558-7.931-7.933-7.931zm0 14.175a6.25 6.25 0 0 1 -6.243-6.244 6.25 6.25 0 0 1 6.242-6.243 6.25 6.25 0 0 1 6.244 6.243 6.25 6.25 0 0 1 -6.244 6.244z"/><path d="m11.87 7.939h-3.563v-4.286a.653.653 0 0 0 -1.306 0v4.939c0 .36.292.653.653.653h4.218a.653.653 0 0 0 0-1.306z"/></g></svg>