<svg height="62" viewBox="0 0 40 62" width="40" xmlns="http://www.w3.org/2000/svg"><g fill="none"><path d="m20.6315789 31.2583333c-.2631578-.3616666.4736843-1.085.4736843-1.085 3.4736842-2.79 13.368421-11.2633333 13.368421-17.825 0-7.95666663-6.5263158-7.3883333-14.5263158-7.3883333s-14.52631577-.56833333-14.52631577 7.3883333c0 6.5616667 9.89473687 15.0866667 13.36842107 17.825 0 0 .7368421.7233334.4736842 1.085-2.8947368 2.2733334-13.84210527 11.315-13.84210527 18.2383334 0 7.9566666 6.52631577 7.3883333 14.52631577 7.3883333s14.5263158.5683333 14.5263158-7.3883333c0-6.9233334-10.8947368-15.965-13.8421053-18.2383334z" fill="#96c7e2"/><g transform="translate(10 16.016667)"><path d="m10 2.325c.0526316 0 .0526316 0 0 0 0-.05166667-.05263158-.05166667-.10526316-.05166667.05263158.05166667.10526316.05166667.10526316.05166667z" fill="#f8bd38"/><g fill="#f5df74"><path d="m19.5263158 4.65c.0526316-.05166667.1052631-.155.1052631-.20666667 0-.05166666 0-.05166666 0-.10333333v-.05166667c-.0526315-1.91166666-4.3157894-6.665-8.8421052-2.58333333-.2631579.20666667-.5263158.41333333-.7894737.62 0 0 0 0-.05263158.05166667-2.05263158 1.55-4.36842105 2.58333333-6.21052631 2.84166666-1.84210527.31-3.2631579-.20666666-3.57894737-.67166666.05263158.05166666.05263158.10333333.10526315.20666666.84210527.93 4.78947369 1.60166667 9.57894737 1.60166667 4.89473684-.05166667 8.89473684-.775 9.68421054-1.705z"/><path d="m9.94736842 6.30333333c-4.7368421 0-8.68421053-.67166666-9.57894737-1.60166666 2.52631579 4.03 7.36842106 7.64666663 9.21052632 9.35166663 0 0 .05263158.1033334.10526316.2583334.26315789 4.8566666.26315789 9.7133333 0 14.57.26315789 4.4433333.52631577 4.4433333.84210527 0-.2631579-4.8566667-.2631579-9.7133334 0-14.57v-.0516667c.0526316-.1033333.1052631-.2066667.1052631-.2066667 1.9473685-1.7566666 6.631579-5.3733333 8.8947369-9.4033333-.7894737.93-4.7894737 1.65333333-9.57894738 1.65333333z"/></g><path d="m10.4210526 28.7783333c-.2631579-4.8566666-.2631579-9.7133333 0-14.57v-.0516666c.0526316-.1033334.1052632-.2066667.1052632-.2066667 1.9473684-1.7566667 6.6315789-5.37333333 8.8947368-9.40333333.0526316-.05166667.1052632-.155.1052632-.20666667s0-.05166667 0-.10333333v-.05166667c0-.67166667-.631579-1.91166667-1.6842105-2.79.0526315.20666667 0 1.49833333-.0526316 1.55-1.631579 2.945-4.4210526 5.47666667-6.5263158 7.3366667s-.0526316.0516666-.0526316.0516666c-.368421.31-.6842105.62-1 .8783334-.63157893.465-1.26315788.6716666-1.68421051.3616666-2.31578947-1.75666663-6.05263158-4.39166663-8.05263158-6.81999997-.15789474-.10333333-.26315789-.20666666-.31578947-.25833333.05263158.05166667.05263158.10333333.10526315.20666667 2.10526316 3.35833333 6.68421053 7.18166663 8.94736843 9.09333333.10526315.1033333.63157894.3616667.68421052.5166667" fill="#f2d350"/></g><path d="m33.1578947 52.3383333c-.2631579-.9816666-2.4210526-3.2033333-4.1578947-4.2366666-1.7368421-1.085-3.6842105-1.705-5.0526316-2.5316667-1.7894737-1.085-2.6315789-2.4283333-3.4210526-2.79-.2105263-.2066667-.9473684-.0516667-1.1578947.155-1 .6716667-3 2.8416667-5.4736843 4.4433333-1.5789473.775-3.5263157 1.395-4.78947364 2.325-1.42105263 1.0333334-2.42105263 2.1183334-2.42105263 3.0483334 0 .5166666.10526315.93.36842105 1.2916666.47368421.775 1.36842105 1.24 2.63157895 1.55 2.42105267.5683334 6.15789477.5166667 10.31578947.5166667 7.3157895 0 13.2631579.2583333 13.2631579-3.3066667-.0526316-.155-.0526316-.31-.1052632-.465z" fill="#f5df74"/><g fill="#604218"><ellipse cx="19.947368" cy="57.763333" rx="15.157895" ry="1.756667"/><g transform="translate(3.157895 3.1)"><path d="m1.73684211.20666667h-1.2631579c.42105263 18.60000003.42105263 37.14833333 0 55.74833333h1.2631579c-.42105264-18.6-.42105264-37.1483333 0-55.74833333z"/><path d="m31.8421053.20666667c.4210526 18.60000003.4210526 37.14833333 0 55.74833333h1.2631579c-.4210527-18.6-.4210527-37.1483333 0-55.74833333z"/></g><path d="m31.1052632 3.30666667h-22.36842109c.78947368.72333333.7368421 1.44666666-.21052632 2.17 7.57894741.10333333 15.15789471.10333333 22.73684211 0-.8421053-.72333334-.9473684-1.44666667-.1578947-2.17z"/></g><path d="m31 58.745c-7.4210526.1033333-14.8947368.1033333-22.31578947 0 .05263158-.0516667.10526315-.1033333.21052631-.155h21.94736846s.1052631.1033333.1578947.155z" fill="#392713"/><path d="m.052632 0h39.736842v3.306667h-39.736842z" fill="#604218"/><path d="m.052632 58.693333h39.736842v3.306667h-39.736842z" fill="#604218"/><path d="m8.78947368 3.35833333c.05263158.05166667.10526316.10333334.21052632.155h21.9473684c.0526316-.05166666.1052632-.10333333.2105263-.155" fill="#392713"/></g></svg>