<svg height="98" viewBox="0 0 92 98" width="92" xmlns="http://www.w3.org/2000/svg"><g fill="none"><g fill="#483c3d" transform="translate(20.353982 26.133333)"><path d="m3.84279435-.31823435 2.03680345-.0026666-.01727959 13.21982815-2.03680345.0026666z" transform="matrix(.87333524 -.48711965 .48711965 .87333524 -2.449503 3.160541)"/><path d="m40.5784447 6.76764601 11.5055175-.01574289-.0027913 2.03713421-11.5055175.01574288z" transform="matrix(.522093 -.85288856 .85288856 .522093 15.507281 43.231487)"/></g><g fill="#483c3d"><path d="m44.3574954 1.23639526 2.0369811-.00266668-.0142934 10.93587602-2.036981.0026667z" transform="matrix(.87335897 -.48707711 .48707711 .87335897 23.648821 107.880331)"/><path d="m-1.31845952 5.17764424 11.50491952-.01574069-.0027909 2.03702738-11.50491952.01574069z" transform="matrix(.52202025 -.85293309 .85293309 .52202025 18.008642 91.671925)"/><ellipse cx="23.529204" cy="94.406666" rx="3.582301" ry="3.593333"/><ellipse cx="67.819469" cy="94.406666" rx="3.582301" ry="3.593333"/></g><ellipse cx="46.081416" cy="61.985" fill="#cf6f69" rx="32.322124" ry="31.523333"/><ellipse cx="46.081416" cy="61.985" fill="#fdf6e3" rx="26.785841" ry="26.133333"/><path d="m74.8212389 22.3766667c-3.8265486-1.47-5.2920354-5.4716667-5.2920354-5.635v-.0816667-.0816667c-.0814159-3.5933333-1.3026548-6.61499997-3.8265486-8.9833333-6.5946903-6.28833333-19.621239-5.88-19.7840708-5.88-19.8654868.08166667-21.5752213 8.33-22.5522124 12.8216667-.0814159.49-.1628319.8983333-.3256637 1.3066666-1.139823 4.2466667-4.1522124 5.4716667-4.3150443 5.5533334l-.4070796-.98c.0814159-.0816667 2.6867256-1.1433334 3.6637168-4.8183334.0814159-.3266666.1628318-.8166666.2442478-1.225.4884955-2.2866666 1.2212389-5.71666663 4.3964601-8.57499997 3.7451328-3.34833333 10.1769912-5.06333333 19.1327434-5.06333333.0814159 0 3.419469-.08166667 7.5716814.57166667 7.1646018 1.06166666 11.0725664 3.59333333 13.0265487 5.47166666 2.6867257 2.53166667 4.0707965 5.79833337 4.1522124 9.63666667.2442478.5716667 1.6283186 3.7566667 4.640708 4.9z" fill="#483c3d"/><g fill="#cf6f69" transform="translate(9.769912 17.966667)"><path d="m2.44247788 23.1116667s16.52743362-7.2683334 26.78584072-15.35333337c0 0-6.5132744-13.14833333-20.67964603-4.655 0-.08166666-12.45663717 7.83999997-6.10619469 20.00833337z"/><path d="m43.9646018 7.595s14.2477876 11.1066667 26.2159292 16.2516667c0 0 8.4672566-12.005-5.780531-20.4166667 0 0-12.8637168-7.18666667-20.4353982 4.165z"/></g><ellipse cx="45.837169" cy="61.658334" fill="#fff" opacity=".5" rx="16.283186" ry="16.333333"/><g fill="#483c3d"><g transform="translate(0 51.45)"><path d="m11.8867257 32.4216667c-.4884956-.49-.8955753-1.0616667-1.221239-1.715-.4070796-.5716667-.73274334-1.225-1.05840705-1.7966667-.65132744-1.225-1.22123894-2.5316667-1.70973452-3.8383333-.48849557-1.3066667-.89557522-2.695-1.22123894-4.0016667-.32566371-1.3883333-.5699115-2.7766667-.73274336-4.165s-.24424779-2.7766667-.24424779-4.165.08141593-2.77666667.16283186-4.165c0-.32666667.08141593-.735.08141593-1.06166667l.16283186-1.06166666c.08141593-.65333334.24424779-1.38833334.32566372-2.04166667.08141593-.32666667.16283186-.65333333.24424778-1.06166667l.24424779-.98c.16283186-.65333333.32566372-1.38833333.56991151-2.04166666-.56991151 2.695-.97699115 5.47166666-1.13982301 8.24833333-.16283186 2.7766667-.16283186 5.5533333.16283186 8.33.16283185 1.3883333.40707964 2.7766667.65132743 4.0833333.32566372 1.3883334.65132743 2.695 1.13982301 4.0016667.40707964 1.3066667.97699115 2.6133333 1.54690265 3.8383333.56991147 1.225 1.22123897 2.45 2.03539827 3.5933334z"/><path d="m3.9079646 28.42c-.89557522-1.47-1.62831858-3.1033333-2.11681416-4.7366667-.48849557-1.6333333-.89557522-3.3483333-1.05840708-5.145l-.08141593-1.3066666c0-.245-.08141593-.4083334-.08141593-.6533334v-.6533333c0-.4083333 0-.8983333 0-1.3066667l.08141593-1.3066666v-.6533334l.08141593-.6533333.16283186-1.3066667c0-.245.08141593-.4083333.08141593-.6533333l.08141593-.65333333c.08141593-.40833334.16283186-.81666667.24424779-1.30666667-.08141593.89833333-.16283186 1.715-.24424779 2.6133333l-.24424779 1.3883334v.6533333.6533333 1.3066667 1.3066667.6533333c0 .245 0 .4083333.08141593.6533333l.16283186 1.3066667c.24424779 1.715.5699115 3.43.97699115 5.0633333l.16283186.6533334.24424779.49c.08141593.245.16283185.4083333.24424778.6533333l.24424779.5716667c.24424779.8166666.56991151 1.6333333.97699115 2.3683333z"/></g><g transform="translate(79.787611 51.45)"><path d="m.5699115 32.2583333c.8141593-1.1433333 1.46548673-2.3683333 2.03539823-3.5933333.56991151-1.225 1.13982301-2.5316667 1.54690266-3.8383333.40707965-1.3066667.81415929-2.6133334 1.13982301-4.0016667s.48849557-2.695.65132743-4.0833333c.32566372-2.7766667.32566372-5.5533334.16283186-8.33000003-.16283186-2.77666667-.5699115-5.55333334-1.13982301-8.24833334.16283186.65333334.40707965 1.30666667.56991151 2.04166667l.24424778.98c.08141593.32666667.16283186.65333333.24424779 1.06166667.08141593.65333333.24424779 1.38833333.32566372 2.04166666l.16283186 1.06166667c.08141593.32666667.08141593.735.08141593 1.06166667.16283185 1.38833333.16283185 2.77666663.16283185 4.16500003 0 1.3883333-.08141593 2.7766666-.24424778 4.165-.16283186 1.3883333-.40707965 2.7766666-.73274337 4.165-.32566371 1.3883333-.73274336 2.695-1.22123893 4.0016666-.48849558 1.3066667-1.05840708 2.6133334-1.70973452 3.8383334-.32566371.6533333-.65132743 1.225-1.05840708 1.7966666-.40707964.6533334-.81415929 1.225-1.22123894 1.715z"/><path d="m8.54867257 28.2566667c.40707964-.735.73274336-1.5516667 1.05840708-2.3683334l.16283185-.5716666c.08141593-.1633334.16283186-.4083334.2442478-.6533334l.1628319-.6533333.1628318-.6533333c.4884956-1.6333334.8141593-3.3483334.9769912-5.0633334l.1628318-1.3066666c0-.245.0814159-.4083334.0814159-.6533334v-.6533333c0-.4083333.081416-.8983333.081416-1.3066667v-1.3066666-.6533334-.6533333l-.081416-1.3066667c-.0814159-.8983333-.1628318-1.71499997-.2442477-2.6133333.0814159.40833333.1628318.81666667.2442477 1.30666667l.081416.65333333c0 .245.0814159.4083333.0814159.6533333l.1628319 1.3066667.0814159.6533333v.6533334l.0814159 1.3066666v1.3066667.6533333c0 .245 0 .4083334-.0814159.6533334l-.0814159 1.3066666c-.2442478 1.715-.5699115 3.43-1.0584071 5.145-.7327434 1.7966667-1.38407081 3.3483334-2.27964603 4.8183334z"/></g><path d="m11.8053097 21.3966667c-.4070796.49-.8141593.98-1.139823 1.47s-.6513274 1.0616666-.97699112 1.5516666c-.56991151 1.0616667-1.05840708 2.205-1.3840708 3.3483334-.32566372 1.1433333-.56991151 2.3683333-.73274336 3.5933333-.08141593 1.225-.08141593 2.45 0 3.675-.24424779-1.225-.32566372-2.45-.32566372-3.675.08141593-1.225.24424779-2.45.65132743-3.675.16283186-.5716667.40707965-1.225.65132744-1.715.24424778-.5716667.5699115-1.1433333.89557522-1.6333333.65132741-1.1433334 1.46548671-2.1233334 2.36106191-2.94z"/><path d="m80.9274336 21.3966667c.8955752.8166666 1.7097345 1.7966666 2.279646 2.94.3256638.5716666.5699116 1.0616666.8955753 1.6333333.2442478.5716667.4884955 1.1433333.6513274 1.715.3256637 1.225.5699115 2.45.6513274 3.675.081416 1.225-.0814159 2.5316667-.3256637 3.675.0814159-1.225.0814159-2.45 0-3.675s-.3256637-2.45-.7327433-3.5933333c-.3256638-1.1433334-.8141593-2.2866667-1.3840708-3.3483334-.3256638-.5716666-.5699115-1.0616666-.9769912-1.5516666-.3256637-.49-.6513274-.98-1.0584071-1.47z"/></g><g transform="translate(21.168142 37.566667)"><g fill="#483c3d"><path d="m36.1486726 2.77666667v5.22666666h-.4884956v-4.81833333l-.3256637.08166667c-.1628319 0-.3256637.08166666-.3256637.08166666v-.245s.3256637-.245.4884955-.32666666z"/><path d="m46.3256637 15.5166667v.3266666h-3.5008849c0-1.47.8141593-1.96 1.9539823-2.5316666.6513274-.3266667.9769911-.8166667.9769911-1.225 0-.49-.3256637-.98-1.139823-.98-.6513274 0-.9769911.3266666-1.139823.5716666-.1628319-.0816666-.2442478-.1633333-.3256637-.245.2442478-.3266666.8141593-.6533333 1.4654867-.6533333 1.139823 0 1.6283186.6533333 1.6283186 1.3883333 0 .6533334-.4070797 1.225-1.3026549 1.715-.7327433.4083334-1.3840708.8983334-1.4654867 1.7966667h2.8495575z"/><path d="m46.1628319 22.7033333v-.4083333c.4884955-.245 1.058407-.49 1.7911504-.49.8141593 0 1.6283186.3266667 1.6283186 1.225 0 .6533333-.2442478 1.0616667-.8955752 1.225.6513274.1633333 1.2212389.4083333 1.2212389 1.3066667 0 .8166666-.8141593 1.5516666-2.1168142 1.5516666-.9769911 0-1.5469026-.1633333-1.7097345-.245v-.4083333c.5699115.245 1.139823.3266667 1.7097345.3266667 1.221239 0 1.6283186-.8166667 1.6283186-1.225 0-.49-.4884955-1.1433334-1.4654867-1.1433334h-.6513274v-.3266666h.6513274c.8955752 0 1.139823-.49 1.139823-.98s-.3256637-.98-1.139823-.98c-.7327434.0816666-1.3840708.4083333-1.7911504.5716666z"/><path d="m42.0106195 36.75v-.4083333c.9769911-1.1433334 1.8725663-2.205 2.7681416-3.3483334h.4070796v3.43h1.2212389v.3266667h-1.139823v1.47h-.4884955v-1.47zm2.7681416-.3266667v-3.1033333c-1.221239 1.47-2.0353983 2.45-2.5238938 3.1033333z"/><path d="m39.5681416 41.2416667c0 .0816666 0 .1633333-.0814159.245h-2.8495576l-.2442477 1.6333333c.2442477-.0816667.6513274-.245 1.139823-.245 1.2212389 0 2.0353982.49 2.0353982 1.6333333 0 1.1433334-.8955752 1.7966667-2.0353982 1.7966667-1.0584071 0-1.6283186-.245-1.7911505-.4083333v-.4083334c.5699115.245 1.221239.49 1.7911505.49 1.139823 0 1.5469026-.8166666 1.5469026-1.47 0-.6533333-.4070796-1.3883333-1.5469026-1.3883333-.4884956 0-1.139823.245-1.3026549.3266667l-.4070797-.245c.1628319-.98.2442478-1.47.3256638-1.715 0-.0816667 0-.1633334.0814159-.245z"/><path d="m27.1929204 44.9983333c-.3256638-.245-.9769912-.5716666-1.6283186-.5716666-1.4654868 0-1.6283186 1.7966666-1.5469027 2.7766666.0814159-.3266666.6513274-1.1433333 1.5469027-1.1433333 2.279646 0 2.3610619 3.2666667-.1628319 3.2666667-1.139823 0-1.8725664-.5716667-1.8725664-2.6133334 0-1.96.8955753-2.6133333 2.0353983-2.6133333.6513274 0 1.139823.245 1.6283186.49zm-1.7911505 4.0833334c1.7911505 0 1.8725664-2.6133334.1628319-2.6133334-.7327434 0-1.221239.6533334-1.4654868 1.3066667 0 .49.4884956 1.3066667 1.3026549 1.3066667z"/><path d="m12.4566372 41.7316667h3.5823009c0 .49-.1628319.5716666-.3256638.8983333 0 0-.4884955.6533333-1.139823 1.3883333-.2442478.4083334-.4070796.8166667-.4070796 1.3066667v1.47h-.4884956v-1.47c0-.6533333.2442478-1.0616667.4884956-1.3883333.4884956-.6533334.9769911-1.3066667 1.4654867-1.8783334h-3.3380531z"/><path d="m3.66371681 34.7083333c0-.735.56991151-1.1433333 1.70973452-1.1433333s1.62831858.49 1.62831858 1.1433333c0 .49-.40707964.8166667-.97699115 1.0616667.65132743.3266667 1.30265487.8166667 1.30265487 1.6333333 0 .98-.81415929 1.5516667-1.9539823 1.5516667-1.05840708 0-1.87256637-.3266667-1.87256637-1.5516667 0-.8983333.89557522-1.3883333 1.22123893-1.5516666-.32566371-.1633334-1.05840708-.5716667-1.05840708-1.1433334zm.24424779 2.695c0 .8166667.73274336 1.1433334 1.3840708 1.1433334.73274336 0 1.46548672-.4083334 1.46548672-1.1433334 0-.8983333-.89557522-1.3883333-1.70973451-1.47-.65132743.245-1.13982301.735-1.13982301 1.47zm2.60530974-2.695c0-.6533333-.65132744-.735-1.13982301-.735-.48849558 0-1.13982301.1633334-1.13982301.735 0 .49 1.05840708.8166667 1.3840708.8983334 0 0 .89557522-.4083334.89557522-.8983334z"/><path d="m.24424779 27.1133333c.32566371.245.97699115.5716667 1.62831858.5716667 1.46548673 0 1.62831859-1.7966667 1.54690266-2.7766667-.08141593.3266667-.65132744 1.1433334-1.54690266 1.1433334-2.27964602 0-2.36106195-3.2666667.16283186-3.2666667 1.13982301 0 1.87256637.5716667 1.87256637 2.6133333 0 1.96-.89557522 2.6133334-2.03539823 2.6133334-.65132743 0-1.13982301-.245-1.62831858-.49zm1.79115044-4.0833333c-1.79115044 0-1.79115044 2.6133333-.16283186 2.6133333.73274336 0 1.22123894-.6533333 1.46548673-1.3066666-.08141593-.5716667-.48849558-1.3066667-1.30265487-1.3066667z"/><g transform="translate(2.442478 11.433333)"><path d="m1.70973451.16333333v5.22666667h-.48849557v-4.81833333l-.32566372.08166666c-.16283186.08166667-.32566372.08166667-.32566372.08166667v-.245s.32566372-.245.48849558-.32666667z"/><path d="m7.40884956 2.85833333c0 2.28666667-1.30265487 2.61333334-1.9539823 2.61333334-.73274337 0-2.03539823-.32666667-2.03539823-2.61333334 0-2.28666666 1.05840708-2.695 2.03539823-2.695.73274336 0 1.9539823.32666667 1.9539823 2.695zm-3.58230089.08166667c0 1.79666667.73274337 2.28666667 1.54690266 2.28666667s1.54690265-.65333334 1.54690265-2.28666667c0-1.715-.65132743-2.36833333-1.54690265-2.36833333-.89557522-.08166667-1.54690266.49-1.54690266 2.36833333z"/></g><g transform="translate(12.212389 3.266667)"><path d="m1.54690265 0v5.22666667h-.48849557v-4.81833334l-.24424779.08166667c-.16283186.08166667-.32566371.08166667-.32566371.08166667v-.245s.32566371-.245.48849557-.32666667z"/><path d="m4.64070796 0v5.22666667h-.48849557v-4.81833334l-.32566372.08166667c-.16283186.08166667-.32566371.08166667-.32566371.08166667v-.245s.32566371-.245.48849557-.32666667z"/></g><g transform="translate(21.982301)"><path d="m1.13982301.245v5.22666667h-.48849558v-4.81833334l-.32566371.08166667c-.16283186.08166667-.32566372.08166667-.32566372.08166667v-.245s.32566372-.245.48849558-.32666667z"/><path d="m6.18761062 5.06333333v.32666667h-3.50088496c0-1.47.8141593-1.96 1.9539823-2.53166667.65132744-.32666666.97699116-.81666666.97699116-1.225 0-.49-.32566372-.98-1.13982301-.98-.65132744 0-.97699115.32666667-1.13982301.57166667-.16283186-.08166667-.24424779-.16333333-.32566372-.245.24424779-.32666667.81415929-.65333333 1.46548673-.65333333 1.13982301 0 1.62831858.65333333 1.62831858 1.38833333 0 .65333333-.40707965 1.225-1.30265487 1.715-.73274336.40833333-1.38407079.89833333-1.46548672 1.79666667h2.84955752z"/></g></g><path d="m24.6690265 40.5066667c-.4070796 0-.8955752 0-1.3026548-.0816667v-.1633333c.4070796 0 .8141593.0816666 1.2212389.0816666zm1.3026549 0v-.1633334c.4070797 0 .8141593-.0816666 1.3026549-.1633333v.1633333c-.4884956.0816667-.8955752.0816667-1.3026549.1633334zm-3.8265487-.1633334c-.4070796-.0816666-.8141592-.1633333-1.3026548-.245l.0814159-.1633333c.4070797.0816667.8141593.1633333 1.2212389.245zm6.3504425-.245v-.1633333c.4070797-.0816667.8141593-.245 1.221239-.3266667l.0814159.1633334c-.4884956.0816666-.8955752.245-1.3026549.3266666zm-8.8743363-.3266666c-.4070796-.1633334-.8141593-.245-1.2212389-.4083334l.0814159-.1633333c.4070797.1633333.8141593.3266667 1.221239.4083333zm11.3168142-.49-.0814159-.1633334c.4070796-.1633333.8141593-.3266666 1.139823-.5716666l.0814159.1633333c-.3256637.245-.7327434.4083333-1.139823.5716667zm-13.6778761-.49c-.4070797-.1633334-.7327434-.4083334-1.139823-.6533334l.0814159-.1633333c.3256637.245.7327434.4083333 1.139823.6533333zm15.9575221-.6533334-.0814159-.1633333c.3256637-.245.7327433-.49 1.0584071-.735l.0814159.1633333c-.3256637.245-.6513274.49-1.0584071.735zm-18.1557522-.735c-.3256637-.245-.6513274-.49-.9769911-.8166666l.0814159-.1633334c.3256637.245.6513274.5716667.9769911.8166667zm20.2725664-.8166666-.081416-.1633334c.3256638-.245.6513275-.5716666.8955753-.8983333l.1628318.1633333c-.3256637.3266667-.6513274.6533334-.9769911.8983334zm-22.2265487-.8166667c-.3256637-.3266667-.5699115-.6533333-.8955752-.98l.1628318-.0816667c.2442478.3266667.5699115.6533334.8955753.8983334zm24.0176991-.98-.1628318-.0816667c.2442477-.3266666.5699115-.6533333.8141593-.98l.1628318.0816667c-.2442478.3266667-.4884956.6533333-.8141593.98zm-25.7274336-.98c-.2442478-.3266667-.4884956-.735-.7327434-1.0616667l.1628319-.0816666c.2442478.3266666.4884956.735.7327433 1.0616666zm27.2743363-1.1433333-.1628319-.0816667c.2442478-.3266667.4070797-.735.6513274-1.1433333l.1628319.0816666c-.2442478.4083334-.4070796.8166667-.6513274 1.1433334zm-28.5769912-1.0616667c-.16283184-.4083333-.40707962-.735-.56991148-1.1433333l.16283186-.0816667c.16283185.4083333.32566372.8166667.56991152 1.1433333zm29.7168142-1.225-.1628319-.0816667c.1628319-.4083333.3256637-.8166666.4070797-1.225l.1628318.0816667c-.0814159.4083333-.2442478.8166667-.4070796 1.225zm-30.77522126-1.225c-.16283186-.4083333-.24424779-.8166667-.32566372-1.225l.16283186-.0816667c.08141593.4083334.24424779.8166667.32566372 1.225zm31.58938056-1.225-.1628319-.0816667c.0814159-.4083333.1628319-.8166666.2442478-1.225h.1628319c-.081416.49-.1628319.8983334-.2442478 1.3066667zm-32.15929206-1.225c-.08141593-.4083333-.08141593-.8166667-.16283186-1.3066667h.16283186c0 .4083334.08141593.8166667.16283186 1.3066667zm32.56637166-1.3066667h-.1628318c0-.4083333.0814159-.8166666.0814159-1.3066666h.1628318c-.0814159.4083333-.0814159.8983333-.0814159 1.3066666zm-32.56637166-1.3066666h-.16283186c0-.4083334 0-.8166667.08141593-1.3066667h.16283186c-.08141593.49-.08141593.8983333-.08141593 1.3066667zm32.40353986-1.3066667c0-.4083333-.081416-.8166667-.1628319-1.3066667h.1628319c.0814159.4083334.0814159.8166667.1628318 1.3066667zm-32.240708-1.225h-.16283186c.08141593-.4083333.16283186-.8166667.24424778-1.3066667l.16283186.0816667c-.08141593.4083333-.16283186.8166667-.24424778 1.225zm31.8336283-1.3066667c-.0814159-.4083333-.2442478-.8166666-.3256637-1.225l.1628319-.0816666c.1628318.4083333.2442477.8166666.3256637 1.225zm-31.2637168-1.1433333-.16283186-.0816667c.16283186-.4083333.24424779-.8166666.40707965-1.225l.16283186.0816667c-.08141593.4083333-.24424779.8166667-.40707965 1.225zm30.4495575-1.3066667c-.1628318-.4083333-.3256637-.8166666-.5699115-1.1433333l.1628319-.0816667c.1628318.4083334.4070796.735.5699115 1.1433334zm-29.4725663-1.0616666-.1628319-.0816667c.1628319-.4083333.4070796-.735.6513274-1.1433333l.1628319.0816666c-.2442478.4083334-.4070797.735-.6513274 1.1433334zm28.3327433-1.1433334c-.2442478-.3266666-.4884956-.735-.7327433-1.0616666l.1628318-.0816667c.2442478.3266667.4884956.735.7327434 1.0616667zm-26.9486726-1.0616666-.1628318-.0816667c.2442478-.3266667.4884956-.6533333.8141593-.98l.1628318.0816667c-.3256637.3266666-.5699115.6533333-.8141593.98zm25.40177-1.0616667c-.2442478-.3266667-.5699115-.6533333-.8955753-.8983333l.1628319-.1633334c.3256637.3266667.5699115.6533334.8955752.98zm-23.7734514-.8983333-.1628318-.0816667c.3256637-.3266667.6513274-.5716667.9769911-.8983333l.081416.1633333c-.2442478.245-.5699116.5716667-.8955753.8166667zm21.9823009-.8983334c-.3256637-.245-.6513274-.5716666-.9769911-.8166666l.0814159-.1633334c.3256637.245.6513274.49.9769911.8166667zm-20.0283186-.735-.0814159-.1633333c.3256637-.245.7327434-.49 1.0584071-.735l.0814159.1633333c-.4070796.245-.7327434.49-1.0584071.735zm17.9929204-.735c-.3256637-.24499997-.7327434-.4083333-1.139823-.6533333l.0814159-.16333333c.4070797.16333333.7327434.40833333 1.139823.65333333zm-15.8761062-.57166663-.0814159-.16333334c.4070796-.16333333.7327433-.40833333 1.139823-.57166666l.0814159.16333333c-.3256637.16333333-.7327434.32666667-1.139823.57166667zm13.5964602-.57166667c-.4070797-.16333333-.8141593-.32666667-1.221239-.40833333l.081416-.16333334c.4070796.16333334.8141593.245 1.2212389.40833334zm-11.2353983-.40833333-.0814159-.245c.4070797-.16333334.8141593-.245 1.2212389-.32666667l.081416.16333333c-.4070797.16333334-.8141593.245-1.221239.40833334zm8.7929204-.40833334c-.4070797-.08166666-.8141593-.16333333-1.2212389-.245v-.16333333c.4070796.08166667.8141592.16333333 1.3026548.245zm-6.3504425-.245v-.16333333c.4070797-.08166667.8141593-.08166667 1.3026549-.16333333v.16333333c-.4070797.08166667-.8141593.08166667-1.3026549.16333333zm3.8265487-.16333333c-.4070797 0-.8141593-.08166667-1.221239-.08166667v-.16333333c.4070797 0 .8141593 0 1.221239.08166667z" fill="#717c80"/><path d="m23.7734513 7.595h1.7911505l-.8955753 1.715z" fill="#2b2e30"/><path d="m32.3942971 23.6118657.3262437-.0004964-.0232096 15.2452725-.3262437.0004964z" fill="#f05454" transform="matrix(.65528452 -.75538216 .75538216 .65528452 -12.374752 35.351458)"/><g fill="#483c3d" transform="translate(14.654867 1.633333)"><path d="m9.93274336 19.6816667-1.05840708-6.9416667 1.54690262-12.495.6513275 12.495-.6513275 7.105z"/><path d="m8.38584071 24.99-2.93097345 5.39-5.21061947 5.39 3.58230088-6.5333333 4.15221239-4.9z"/><path d="m9.60707965 25.8883333c-1.70973452-.1633333-3.01238938-1.715-2.84955753-3.43.16283186-1.715 1.70973452-3.0216666 3.41946908-2.8583333 1.7097345.1633333 3.0123893 1.715 2.8495575 3.43-.1628319 1.7966667-1.7097345 3.0216667-3.41946905 2.8583333z"/></g><g fill="#2b2e30"><path d="m25.5646018 40.5883333h-1.7911505l.8955752-1.715z"/><path d="m8.30442478 26.6233333v-1.7966666l1.62831858.8983333z"/><path d="m41.0336283 24.8266667v1.8783333l-1.7097345-.98z"/></g></g></g></svg>