<svg height="35" viewBox="0 0 35 35" width="35" xmlns="http://www.w3.org/2000/svg"><g fill="none"><path d="m17.0686527 0c9.4266724 0 17.0686528 7.64198048 17.0686528 17.0686527 0 9.4269057-7.6419804 17.0686528-17.0686528 17.0686528-9.42667222 0-17.0686527-7.6417471-17.0686527-17.0686528 0-9.42667222 7.64198048-17.0686527 17.0686527-17.0686527" fill="#fede40"/><path d="m21.4018879 10.3338332c.6291076-.63100706 1.6477369-.63100706 2.2768445 0 .628327.631007.628327 1.6537378 0 2.2851364l-10.4635338 10.5016414c-.3143099.3162378-.7258783.4737693-1.1378369.4737693-.4115684 0-.8242099-.1583147-1.1382271-.4737693l-4.55095723-4.5672378c-.6291075-.6306155-.6291075-1.6536399 0-2.2843533.6283271-.6313987 1.64763929-.6313987 2.27606393 0l3.41234 3.4248655zm6.7758692 5.9881407c.2003088 0 .362691.2207366.362691.4930289 0 .2722924-.1623822.4930289-.362691.4930289h-7.1630805c-.2003087 0-.3626909-.2207365-.3626909-.4930289 0-.2722923.1623822-.4930289.3626909-.4930289zm-1.9721155 2.6856487c.2003086 0 .3626909.2207366.3626909.4930289 0 .2722924-.1623823.4930289-.3626909.4930289h-7.1630805c-.2003087 0-.3626909-.2207365-.3626909-.4930289 0-.2722923.1623822-.4930289.3626909-.4930289zm-2.9581734 2.6856487c.2003087 0 .3626909.2207366.3626909.4930289 0 .2722924-.1623822.493029-.3626909.493029h-7.1630805c-.2003087 0-.3626909-.2207366-.3626909-.493029 0-.2722923.1623822-.4930289.3626909-.4930289z" fill="#fff"/></g></svg>