<svg xmlns="http://www.w3.org/2000/svg" xmlns:xlink="http://www.w3.org/1999/xlink" width="171" height="121" viewBox="0 0 171 121"><defs><path id="a" d="M0 .133h170.208v51.612H0z"/><path id="c" d="M0 .745h170.208v51.61H0z"/></defs><g fill="none" fill-rule="evenodd"><path fill="#323436" d="M131.994 105.302l-36.935 13.224a29.545 29.545 0 0 1-19.912 0l-36.935-13.224a7.418 7.418 0 0 1-4.91-6.987v-65.25c0-4.098 3.313-7.42 7.4-7.42h88.803c4.088 0 7.4 3.322 7.4 7.42v65.25a7.417 7.417 0 0 1-4.911 6.987"/><g transform="translate(0 3.255)"><mask id="b" fill="#fff"><use xlink:href="#a"/></mask><path fill="#242627" d="M166.627 30.585L86.314 51.59a4.789 4.789 0 0 1-2.42 0L3.582 30.585A4.801 4.801 0 0 1 0 25.939V22.23L83.895.289a4.767 4.767 0 0 1 2.419 0l83.894 21.942v3.708a4.8 4.8 0 0 1-3.581 4.646" mask="url(#b)"/></g><g transform="translate(0 -.745)"><mask id="d" fill="#fff"><use xlink:href="#c"/></mask><path fill="#4A4C4E" d="M166.627 31.197L86.314 52.2a4.812 4.812 0 0 1-2.42 0L3.582 31.197A4.801 4.801 0 0 1 0 26.55a4.798 4.798 0 0 1 3.58-4.645L83.896.9a4.767 4.767 0 0 1 2.419 0l80.313 21.005a4.797 4.797 0 0 1 3.58 4.645 4.8 4.8 0 0 1-3.58 4.646" mask="url(#d)"/></g><path fill="#FFB600" d="M140.605 62.739v50.078a1.853 1.853 0 0 1-1.85 1.856h-3.7a1.854 1.854 0 0 1-1.85-1.856V62.739h1.85V39.772c0-.868-.615-1.631-1.462-1.812L84.716 27.459a1.855 1.855 0 0 1 .776-3.628l48.877 10.5c2.542.546 4.387 2.835 4.387 5.441v22.967h1.849z"/><path fill="#876531" d="M133.205 63.74a7.339 7.339 0 0 1 7.4 0v12.837a7.344 7.344 0 0 1-7.4 0V63.74z"/><path fill="#FFB600" d="M144.306 62.739c0 4.098-3.313 7.42-7.4 7.42-4.088 0-7.401-3.322-7.401-7.42 0-4.097 3.313-7.418 7.4-7.418 4.088 0 7.4 3.321 7.4 7.418"/><path fill="#323436" d="M96.203 25.806c0 3.072-4.969 5.564-11.1 5.564-6.13 0-11.1-2.492-11.1-5.564 0-3.073 4.97-5.564 11.1-5.564 6.131 0 11.1 2.491 11.1 5.564"/></g></svg>