<svg height="192" viewBox="0 0 255 192" width="255" xmlns="http://www.w3.org/2000/svg"><g fill="none" fill-rule="evenodd"><path d="m38.12 0v113.097h68.076v60.343h31.528v-60.343h68.076v-113.097zm97.454 171.29h-27.228v-58.193h27.228zm68.076-60.343h-163.38v-9.35h163.38zm0-11.5h-163.38v-85.797h163.38zm0-87.947h-163.38v-9.35h163.38z" fill="#0a8dc8" fill-rule="nonzero"/><path d="m50.543 64.544 1.591 1.238c.402.317.74.706.995 1.147l4.05 6.8c3.263 5.478 9.204 8.842 15.624 8.846h6.943a1.44 1.44 0 0 0 1.447-1.433 1.44 1.44 0 0 0 -1.447-1.434h-6.943c-5.403-.005-10.4-2.84-13.14-7.453l-4.051-6.8a6.935 6.935 0 0 0 -1.713-1.92l-1.62-1.244a.824.824 0 0 1 -.11-1.193 3.694 3.694 0 0 1 5.283-.258l7.372 8.027a1.456 1.456 0 0 0 2.01.057 1.424 1.424 0 0 0 .125-1.99l-7.413-8.026-.069-.069a6.602 6.602 0 0 0 -4.805-1.792 6.592 6.592 0 0 0 -4.638 2.182 3.67 3.67 0 0 0 .509 5.315zm32.403-31.832c-.736 0-1.464.163-2.13.476-.092-2.667-2.262-4.803-4.955-4.876-2.692-.073-4.977 1.943-5.216 4.6a5.133 5.133 0 0 0 -4.969.227 5.035 5.035 0 0 0 -2.403 4.315v21.666a1.44 1.44 0 0 0 1.446 1.433 1.44 1.44 0 0 0 1.447-1.433v-21.666a2.2 2.2 0 0 1 2.21-2.19 2.2 2.2 0 0 1 2.21 2.19v15.64a1.44 1.44 0 0 0 1.447 1.434 1.44 1.44 0 0 0 1.447-1.434v-19.682a2.2 2.2 0 0 1 2.21-2.19 2.2 2.2 0 0 1 2.21 2.19v19.596a1.44 1.44 0 0 0 1.447 1.434 1.44 1.44 0 0 0 1.447-1.434v-15.33c0-1.16.948-2.1 2.118-2.1s2.117.94 2.117 2.1v15.709a1.44 1.44 0 0 0 1.447 1.433 1.44 1.44 0 0 0 1.447-1.433v-11.1c0-1.07.875-1.938 1.955-1.938s1.956.868 1.956 1.938v12.893a1.44 1.44 0 0 0 1.447 1.434 1.44 1.44 0 0 0 1.446-1.434v-12.893a4.788 4.788 0 0 0 -2.198-4.003 4.882 4.882 0 0 0 -4.583-.377v-.23c-.004-2.736-2.238-4.955-5-4.965zm-12.51 28.283h-1.416a1.44 1.44 0 0 0 -1.447 1.433 1.44 1.44 0 0 0 1.447 1.433h1.393c3.028.014 5.6 2.198 6.076 5.16.066.518.41.959.898 1.152a1.457 1.457 0 0 0 1.453-.22c.407-.331.601-.854.507-1.367-.698-4.349-4.467-7.56-8.91-7.591z" fill="#4a4a4a"/><path d="m93.304 59.39c-4.819.002-9.162 2.88-11.006 7.291a11.732 11.732 0 0 0 2.58 12.867c3.815 3.783 9.718 4.554 14.392 1.881s6.952-8.124 5.554-13.289c-1.398-5.164-6.124-8.754-11.52-8.75zm6.365 18.134a9.063 9.063 0 0 1 -6.383 2.622 9.063 9.063 0 0 1 -6.382-2.622 8.884 8.884 0 0 1 -1.957-9.747c1.397-3.343 4.688-5.522 8.34-5.522 3.65 0 6.942 2.18 8.34 5.522a8.884 8.884 0 0 1 -1.958 9.747z" fill="#4a4a4a" fill-rule="nonzero"/><path d="m97.412 67.147a1.453 1.453 0 0 0 -2.048 0l-2.002 1.972-2.008-1.972a1.456 1.456 0 0 0 -1.964.072 1.424 1.424 0 0 0 -.079 1.946l2.002 1.995-2.002 1.967a1.43 1.43 0 0 0 -.011 2.035c.564.565 1.483.57 2.054.011l2.008-2 1.996 2c.369.364.906.505 1.408.37a1.45 1.45 0 0 0 1.027-1.023 1.434 1.434 0 0 0 -.38-1.393l-2.009-1.967 2.008-1.995a1.424 1.424 0 0 0 0-2.018z" fill="#e74c3c"/><text fill="#4a4a4a" font-family="Roboto" font-size="25.6" font-weight="bold" letter-spacing="1.28" transform="translate(1)"><tspan x="120.96" y="68.16">STOP</tspan></text><g stroke="#0a8dc8" stroke-linecap="square"><path d="m4.52 172.8h239.36" stroke-width="1.92"/><path d="m225.32 159.04h28.16m-252.16 0h20.8m60.16 32h85.12" stroke-width="1.28"/></g></g></svg>