<svg height="62" viewBox="0 0 52 62" width="52" xmlns="http://www.w3.org/2000/svg" xmlns:xlink="http://www.w3.org/1999/xlink"><defs><text id="a" fill="#777" font-family="Gilroy-ExtraBold, Gilroy" font-size="18" font-weight="600" letter-spacing="-.99"><tspan x="12" y="29">100</tspan></text><filter id="b" height="118.2%" width="111.1%" x="-3.7%" y="-4.5%"><feOffset dy="2" in="SourceAlpha" result="shadowOffsetOuter1"/><feColorMatrix in="shadowOffsetOuter1" values="0 0 0 0 1 0 0 0 0 1 0 0 0 0 1 0 0 0 1 0"/></filter></defs><g fill="none" fill-rule="evenodd"><path d="m13.285 27.836-12.154 22.904a1.194 1.194 0 0 0 1.165 1.752l8.996-.832c.474-.043.929.2 1.158.617l4.355 7.916c.46.833 1.659.823 2.105-.014l12.157-22.905-17.782-9.437z" fill="#e85554"/><path d="m13.285 27.836-12.154 22.904a1.194 1.194 0 0 0 1.165 1.752l8.996-.832c.474-.043.929.2 1.158.617l4.355 7.916c.46.833 1.659.823 2.105-.014l12.157-22.905-17.782-9.437z" stroke="#777" stroke-width="1.975"/><path d="m37.968 27.836 12.255 23.09c.403.761-.2 1.664-1.053 1.585l-9.285-.858c-.428-.04-.84.178-1.048.555l-4.492 8.171a1.082 1.082 0 0 1 -1.904-.016l-12.255-23.09z" fill="#e76666"/><path d="m37.968 27.836 12.255 23.09c.403.761-.2 1.664-1.053 1.585l-9.285-.858c-.428-.04-.84.178-1.048.555l-4.492 8.171a1.082 1.082 0 0 1 -1.904-.016l-12.255-23.09z" stroke="#777" stroke-width="1.975"/><path d="m25.58 1.716c12.15 0 22 9.849 22 22s-9.85 22-22 22-22-9.849-22-22 9.85-22 22-22" fill="#fecb5c"/><path d="m25.627 1.716c12.174 0 22.046 9.87 22.046 22.046s-9.873 22.045-22.046 22.045c-12.176 0-22.047-9.87-22.047-22.045 0-12.177 9.871-22.046 22.047-22.046z" stroke="#777" stroke-width="1.481"/><path d="m25.567 40.072c-8.677-.022-15.717-7.104-15.692-15.78.022-8.675 7.1-15.716 15.779-15.692 8.676.024 15.717 7.104 15.694 15.78-.024 8.677-7.103 15.716-15.78 15.692" fill="#ffda70"/><g fill="#777" transform="translate(0 1)"><use filter="url(#b)" xlink:href="#a"/><use xlink:href="#a"/></g></g></svg>