<svg height="98" viewBox="0 0 102 98" width="102" xmlns="http://www.w3.org/2000/svg"><g fill="none" fill-rule="evenodd"><g fill-rule="nonzero"><path d="m10.053448.168966h91.832759v97.324138h-91.832759z" fill="#cf6f69"/><path d="m14.277586 6.251724h83.384483v91.325862h-83.384483z" fill="#dea16a"/><path d="m14.277586 72.824138h83.384483v24.668966h-83.384483z" fill="#e6b68b"/><path d="m22.134482 14.108621h64.375862v53.984483h-64.375862z" fill="#cf6f69"/><path d="m25.42931 17.656897h57.786207v46.887931h-57.786207z" fill="#fbefba"/><path d="m26.95 18.417241h54.82931v44.522414h-54.82931z" fill="#fdf6e3"/><path d="m22.134482 76.963793h64.375862v20.52931h-64.375862z" fill="#efc7a8"/><path d="m23.993103 78.484483h60.743103v19.093103h-60.743103z" fill="#cf6f69"/><path d="m90.143103 63.024138h5.575862v15.460345h-5.575862z" fill="#cf6f69"/><g transform="translate(83.637931 67.586207)"><path d="m.76034483 2.53448276v.16896552c0 .92931034.92931034 1.68965517 1.85862069 1.52068965l5.57586207-.67586207v-1.85862069l-5.57586207-.67586207c-1.01379311-.16896551-1.85862069.59137931-1.85862069 1.52068966z" fill="#f5df74"/><path d="m.42241379.67586207c.08448276 0 .08448276 0 0 0z" fill="#dab66b" opacity=".55" transform="translate(6.758621 .844828)"/><path d="m9.37758621.50689655c-1.09827587 0-2.02758621.92931035-2.02758621 2.02758621s.92931034 2.02758621 2.02758621 2.02758621c1.09827589 0 2.02758619-.92931035 2.02758619-2.02758621s-.9293103-2.02758621-2.02758619-2.02758621z" fill="#f5df74"/></g><g transform="translate(36.327586 8.448276)"><path d="m3.21034483 23.9086207.67586207.4224138 14.5310345-21.8810345 14.8689655 21.8810345.6758621-.4224138-15.5448276-22.8948276z" fill="#6b646e"/><path d="m.168966 23.739655h36.412069v13.77069h-36.412069z" fill="#fff"/><path d="m18.4172414.42241379c-.6758621 0-1.2672414.59137931-1.2672414 1.26724138s.5913793 1.26724138 1.2672414 1.26724138c.675862 0 1.2672414-.59137931 1.2672414-1.26724138s-.5913794-1.26724138-1.2672414-1.26724138z" fill="#d3d0d3"/></g><g transform="translate(0 48.155172)"><path d="m35.8206897 25.9362069.9293103-1.3517241h4.4775862c.5913793 0 6.0827586-2.3655173 6.7586207-3.2948276.1689655-.2534483 3.2103448-6.2517242 3.2103448-6.2517242l1.4362069-6.84310341s.1689655-.67586207-.7603448-.76034483c-.9293104-.08448276-2.5344828.59137931-3.9706897 4.47758624-.0844827.2534482-.1689655.5913793-.1689655.9293103 0 .5068966-.2534483 1.5206897-1.0982758 3.2103448 0 .0844828-1.9431035 1.3517242-2.1965518 1.6051725 0-.5068966.1689656-1.0137932.5068966-1.6051725.2534483-.5068965.8448276-1.4362069 1.3517241-2.1965517 0 0 2.1965517-3.5482758 2.9568966-4.64655171.4224138-.67586207.2534483-1.60517241-.3379311-2.02758621l-.4224138-.25344827c-.675862-.50689655-1.6896551-.33793104-2.1965517.42241379l-.5068965.76034483c-.1689655 0-.2534483-.08448276-.4224138-.08448276l.1689655-.16896552c.5913793-.84482758.337931-1.94310345-.4224138-2.45s-1.8586207-.33793103-2.45.50689655l-.5913793.92931035c-.0844828-.08448276-.2534483-.08448276-.337931-.16896552 0 0 1.1827586-1.52068965-.4224138-2.45-.7603449-.50689655-1.8586207-.33793103-2.45.50689655l-.5068966.76034483c-.1689655-.08448276-.1689655-.08448276-.2534483-.16896552.4224138-.84482758 0-1.52068965-.5913793-1.94310345-.675862-.50689655-1.6896551-.25344827-2.2810345.59137932l-6.8431034 9.54655174c-.337931.5068965-.5913793 4.4775862-.6758621 5.1534483l-.675862 1.0137931-.5913794-.4224138-21.37413788 30.075862h14.95344828l16.3051724-23.0637931z" fill="#bfbebf" opacity=".85"/><path d="m51.8724138 4.73103448c-.9293104-.16896551-2.5344828.50689655-4.1396552 4.39310345-.0844827.25344828-.1689655.59137931-.1689655.92931037-.0844828.5068965-.2534483 1.5206896-1.2672414 3.2103448 0 .0844828-1.9431034 1.2672414-2.2810345 1.5206897 0-.5068966.2534483-1.0137931.5068966-1.6051725.2534483-.5068965.8448276-1.3517241 1.4362069-2.1120689 0 0 2.3655172-3.46379312 3.0413793-4.47758623.5068966-.67586207.337931-1.52068965-.2534483-2.0275862l-.4224138-.33793104c-.675862-.50689655-1.6896551-.33793103-2.1965517.33793104l-.5913793.76034482c-.1689655 0-.2534483-.08448276-.4224138-.08448276l.1689655-.16896551c.5913793-.76034483.4224138-1.94310345-.337931-2.45-.7603448-.59137931-1.8586207-.4224138-2.45.42241379l-.6758621.92931035c-.0844827-.08448276-.2534483-.08448276-.337931-.16896552 0 0 1.1827586-1.4362069-.3379311-2.45-.7603448-.59137931-1.8586206-.42241379-2.45.42241379l-.5068965.76034483c-.1689655-.08448276-.1689655-.08448276-.2534483-.16896552.4224138-.84482758 0-1.52068965-.5068965-1.94310345-.6758621-.50689655-1.6896552-.25344827-2.2810345.50689656l-6.9275862 9.20862065c-.3379311.5068966-.7603448 4.4775862-.8448276 5.0689656l-3.1258621 4.2241379 8.6172414 6.5051724 3.4637931-4.562069 4.4775862.0844828c.5913793.0844827 6.1672414-2.1965517 6.8431035-3.0413793.1689655-.2534483 3.3793103-6.1672414 3.3793103-6.1672414l1.6051724-6.75862069s.1689655-.67586207-.7603448-.76034483z" fill="#e19d83"/><path d="m51.1965517 6.25172414s-1.0982758 1.35172414-.4224138 2.61896552c.0844828.25344827.3379311.42241379.5913793.42241379.1689656 0 .4224138-.08448276.5068966-.42241379.1689655-.76034483.6758621-2.95689656.6758621-2.95689656s-.6758621-.59137931-1.3517242.33793104z" fill="#e9c3b9"/><path d="m27.287931 15.2068966-5.4913793 7.35 8.6172414 6.5896551 5.8293103-7.7724138" fill="#c6b19d" opacity=".5"/><path d="m26.0206897 15.7137931-25.51379315 33.6241379h15.37586205l19.9379311-26.1896551z" fill="#333232"/></g></g><text fill="#000" font-family="Helvetica" font-size="7.369853"><tspan x="43.616674" y="42.486538">HELLO</tspan></text></g></svg>