<svg height="98" viewBox="0 0 120 98" width="120" xmlns="http://www.w3.org/2000/svg"><g fill="none"><path d="m68.5 7.9h-12.8c-.3-1.6-1.7-2.7-3.4-2.7h-10.8c-.8-2.1-2.7-3.5-5.1-3.5-2.3 0-4.3 1.5-5.1 3.5h-10.8c-1.7 0-3.1 1.2-3.4 2.7h-12.8c-1.3 0-2.4 1-2.4 2.3v.1 80 2.9c0 1.3 1.1 2.4 2.4 2.4h64.1c1.3 0 2.4-1.1 2.4-2.4v-2.9-80-.1c0-1.3-1-2.3-2.3-2.3z" fill="#b3b5b7" opacity=".4"/><g transform="translate(40 10)"><path d="m5.361375 15.281023h67.401169v55.000954h-67.401169z" transform="matrix(.39499315 -.91868406 .91868406 .39499315 -15.669929 61.768701)"/><g fill="#d3d3d3"><path d="m64.9 30.2c-.1.2-1 .1-2-.4l-30.9-13.2c-1-.4-1.8-1-1.7-1.2s1-.1 2 .4l31 13.2c1 .4 1.7 1 1.6 1.2z"/><path d="m52.4 26.7c-.1.2-1 .1-2-.4l-19.1-8.2c-1-.4-1.8-1-1.7-1.2s1-.1 2 .4l19.1 8.2c1.1.4 1.8.9 1.7 1.2z"/><path d="m46.3 25.9c-.1.2-1 .1-2-.4l-13.6-5.9c-1-.4-1.8-1-1.7-1.2s1-.1 2 .4l13.6 5.9c1 .4 1.8.9 1.7 1.2z"/><path d="m61.7 37.8c-.1.2-1 .1-2-.4l-30.9-13.3c-1-.4-1.8-1-1.7-1.2s1-.1 2 .4l30.9 13.3c1 .4 1.7 1 1.7 1.2z"/><path d="m49.1 34.2c-.1.2-1 .1-2-.4l-19.1-8.2c-1-.4-1.8-1-1.7-1.2s1-.1 2 .4l19.1 8.2c1.1.5 1.8 1 1.7 1.2z"/><path d="m43 33.5c-.1.2-1 .1-2-.4l-13.6-5.9c-1-.4-1.8-1-1.7-1.2s1-.1 2 .4l13.6 5.9c1.1.4 1.8.9 1.7 1.2z"/><path d="m57.9 46.6c-.1.2-1 .1-2-.4l-31-13.2c-1-.4-1.8-1-1.7-1.2s1-.1 2 .4l30.9 13.3c1.1.3 1.9.9 1.8 1.1z"/><path d="m45.3 43.1c-.1.2-1 .1-2-.4l-19.1-8.2c-1-.4-1.8-1-1.7-1.2s1-.1 2 .4l19.1 8.2c1.1.4 1.8.9 1.7 1.2z"/><path d="m39.2 42.3c-.1.2-1 .1-2-.4l-13.6-5.9c-1-.4-1.8-1-1.7-1.2s1-.1 2 .4l13.6 5.9c1.1.4 1.8.9 1.7 1.2z"/><path d="m49.6 65.8c-.1.2-1 .1-2-.4l-30.9-13.3c-1-.4-1.8-1-1.7-1.2s1-.1 2 .4l31 13.3c1 .4 1.7 1 1.6 1.2z"/><path d="m37.1 62.3c-.1.2-1 .1-2-.4l-19.1-8.2c-1-.4-1.8-1-1.7-1.2s1-.1 2 .4l19.1 8.2c1 .4 1.8.9 1.7 1.2z"/><path d="m31 61.5c-.1.2-1 .1-2-.4l-13.6-5.9c-1-.4-1.8-1-1.7-1.2s1-.1 2 .4l13.6 5.9c1 .4 1.8.9 1.7 1.2z"/><path d="m54.6 54.1c-.1.2-1 .1-2-.4l-30.9-13.3c-1-.4-1.8-1-1.7-1.2s1-.1 2 .4l31 13.3c1 .5 1.7 1 1.6 1.2z"/><path d="m42.1 50.6c-.1.2-1 .1-2-.4l-19.1-8.2c-1-.4-1.8-1-1.7-1.2s1-.1 2 .4l19.1 8.2c1.1.4 1.8.9 1.7 1.2z"/><path d="m40 55.4c-.1.2-1 .1-2-.4l-19.1-8.2c-1-.4-1.8-1-1.7-1.2s1-.1 2 .4l19.1 8.2c1.1.4 1.8 1 1.7 1.2z"/><path d="m36 49.8c-.1.2-1 .1-2-.4l-13.6-5.9c-1-.4-1.8-1-1.7-1.2s1-.1 2 .4l13.6 5.9c1.1.4 1.8 1 1.7 1.2z"/><path d="m32.3 50.2c-.1.2-1 .1-2-.4l-10.7-4.6c-1-.4-1.8-1-1.7-1.2s1-.1 2 .4l10.7 4.6c1.1.4 1.8.9 1.7 1.2z"/></g><g fill="#a5cd8c" stroke="#a5cd8b"><path d="m59.7 31.8.9 1.5 3.4-1.1-3.7 2z"/><path d="m44.6 66.8 1 1.6 3.3-1.2-3.7 2.1z"/><path d="m52.5 48.6.9 1.6 3.3-1.2-3.7 2.1z"/></g></g><path d="m69.5 91.8c0 1.3-1.1 2.4-2.4 2.4h-64.1c-1.3 0-2.4-1.1-2.4-2.4v-82.9c0-1.3 1.1-2.4 2.4-2.4h64.1c1.3 0 2.4 1.1 2.4 2.4z" fill="#efc7a8"/><path d="m69.5 88.9c0 1.3-1.1 2.3-2.4 2.3h-64.1c-1.3 0-2.4-1-2.4-2.3v-80.1c0-1.3 1.1-2.3 2.4-2.3h64.1c1.3 0 2.4 1 2.4 2.3z" fill="#dea16a"/><path d="m4.7 11.2h60.8v74.5h-60.8z" fill="#fdf8ed"/><g transform="translate(15)"><path d="m39.4 7.3c0-1.9-1.6-3.5-3.5-3.5h-31.8c-1.9 0-3.5 1.6-3.5 3.5v6.1h38.7v-6.1z" fill="#b6b5b6"/><circle cx="20.1" cy="5.6" fill="#b6b5b6" r="5.4"/><path d="m21.7 4c0 .9-.7 1.7-1.7 1.7s-1.7-.7-1.7-1.7c0-.9.7-1.7 1.7-1.7s1.7.8 1.7 1.7z" fill="#edeec6"/><path d="m.7 9.1h38.7v4.3h-38.7z" fill="#d4d3d3"/></g><g fill="#d3d3d3"><path d="m54.8 27.4c0 .3-.9.5-2 .5h-37.6c-1.1 0-2-.2-2-.5s.9-.5 2-.5h37.6c1.1 0 2 .2 2 .5z"/><path d="m40.6 29.2c0 .3-.9.5-2 .5h-23.4c-1.1 0-2-.2-2-.5s.9-.5 2-.5h23.4c1.1 0 2 .3 2 .5z"/><path d="m34 31.1c0 .3-.9.5-2 .5h-16.8c-1.1 0-2-.2-2-.5s.9-.5 2-.5h16.8c1.1 0 2 .2 2 .5z"/><path d="m55.1 40.2c0 .4-.9.8-2 .8h-29.1c-1.1 0-2-.4-2-.8s.9-.8 2-.8h29.1c1.1 0 2 .3 2 .8z"/><path d="m55.1 48.1c0 .4-.9.8-2 .8h-29.1c-1.1 0-2-.4-2-.8s.9-.8 2-.8h29.1c1.1 0 2 .4 2 .8z"/><path d="m55.1 56.2c0 .4-.9.8-2 .8h-29.1c-1.1 0-2-.4-2-.8s.9-.8 2-.8h29.1c1.1 0 2 .3 2 .8z"/><path d="m55.1 63.7c0 .4-.9.8-2 .8h-29.1c-1.1 0-2-.4-2-.8s.9-.8 2-.8h29.1c1.1 0 2 .3 2 .8z"/><path d="m18.8 37.3v4.9h-4.9v-4.9zm.6-.6h-6.2v6.2h6.2z"/><path d="m18.8 45.4v4.9h-4.9v-4.9zm.6-.7h-6.2v6.2h6.2z"/><path d="m18.8 53.4v4.9h-4.9v-4.9zm.6-.7h-6.2v6.2h6.2z"/><path d="m18.8 61.5v4.9h-4.9v-4.9zm.6-.6h-6.2v6.1h6.2z"/></g><path d="m14.3 38.6 2 1.4 3.6-3.2-3.6 4.5z" fill="#a5cd8c" stroke="#a5cd8b"/><path d="m14.3 46 2 1.4 3.6-3.2-3.6 4.5z" fill="#a5cd8c" stroke="#a5cd8b"/><path d="m4.7 67.5v18.2h8.9c-.5 0-8.4-9.1-8.9-18.2z" fill="#f7e4c6"/><path d="m14.7 77.1c-2.6-.8-4.6-1.9-6-3.1-3.4-2.8-3.9-6.3-4-7.8v1.2c.5 9.1 8.5 18.3 8.9 18.3-.4-.5-.6-1.1-.6-1.8-.1-1.7.8-4.1 1.7-6.8z" fill="#f9f0df"/><path d="m69.5 10.3 50.1 21.5-28 65.6-22.1-9.9v-2.2l21.5 9.3 26.6-62-48.1-20.7z" fill="#b3b5b7" opacity=".4"/></g></svg>