<svg height="50" viewBox="0 0 42 50" width="42" xmlns="http://www.w3.org/2000/svg"><g fill="#2ab80b"><path d="m33.385 25.994c-.056-1.451-.041-2.908-.028-4.318.006-.634.013-1.267.013-1.9l.001-1.641v-.463c-.003-1.762-.006-3.58.01-5.382-2.244-.545-4.508-1.111-6.701-1.66-1.791-.448-3.642-.909-5.462-1.357a.995.995 0 0 0 -.42-.004c-1.787.437-3.605.892-5.364 1.333a995.422 995.422 0 0 1 -6.82 1.686l.007 1.509c.021 4.055.045 8.249-.014 12.38-.041 2.89.858 5.404 2.747 7.695 2.31 2.797 5.377 4.987 9.641 6.88 3.628-1.581 6.506-3.513 8.791-5.904 2.548-2.667 3.726-5.563 3.6-8.854zm-4.3-5.876c-1.097 1.406-2.198 2.81-3.293 4.217-1.782 2.294-3.555 4.594-5.341 6.884-1.005 1.29-1.814 1.275-2.769-.031-1.58-2.159-3.16-4.317-4.738-6.478-.533-.73-.527-1.483.007-1.979.532-.493 1.297-.445 1.976.142 1.159 1.002 2.31 2.014 3.468 3.02.186.161.386.307.767.608.15-.24.248-.492.423-.668 2.437-2.45 4.88-4.893 7.336-7.323.265-.262.61-.51.959-.604.58-.156 1.093.072 1.393.618.312.564.197 1.101-.187 1.594z"/><path d="m41.66 25.902a69.619 69.619 0 0 1 -.042-2.704h.033l-.002-6.783c-.004-2.219-.007-4.514.016-6.755.03-2.737-1.53-4.753-4.177-5.393-2.577-.623-5.205-1.28-7.747-1.915l-1.133-.283c-1.922-.48-3.909-.977-5.866-1.457a7.374 7.374 0 0 0 -3.458-.006c-2.151.526-4.292 1.06-6.284 1.56-2.467.617-5.538 1.384-8.462 2.089-2.646.637-4.218 2.673-4.206 5.448l.012 2.414c.024 4.644.05 9.447-.018 14.15-.068 4.831 1.488 9.208 4.624 13.01 3.383 4.098 7.771 7.236 13.812 9.876.668.29 1.43.444 2.206.444.796 0 1.593-.162 2.306-.467 5.098-2.191 9.177-4.932 12.474-8.38 4.134-4.327 6.124-9.323 5.913-14.848zm-9.404 11.765c-2.933 3.07-6.62 5.562-11.26 7.609-5.46-2.451-9.4-5.28-12.368-8.874-2.42-2.933-3.571-6.154-3.519-9.85.078-5.496.049-11.071.02-16.463l-.007-1.536c2.877-.698 5.775-1.422 8.587-2.126 2.346-.586 4.77-1.192 7.16-1.777a.755.755 0 0 1 .292.007c2.366.582 4.773 1.183 7.101 1.766 2.816.704 5.717 1.43 8.608 2.134-.016 2.23-.013 4.474-.009 6.655v.124l-.001 2.721c0 .84-.008 1.68-.016 2.52-.019 1.873-.037 3.81.035 5.746.162 4.21-1.35 7.92-4.623 11.344z"/></g></svg>