<svg height="35" viewBox="0 0 29 35" width="29" xmlns="http://www.w3.org/2000/svg" xmlns:xlink="http://www.w3.org/1999/xlink"><mask id="a" fill="#fff"><path d="m0 .16775106h28.1691655v8.14059406h-28.1691655z" fill="#fff" fill-rule="evenodd"/></mask><mask id="b" fill="#fff"><path d="m0 34.0613861h28.1691655v-34.0613861h-28.1691655z" fill="#fff" fill-rule="evenodd"/></mask><g fill="none" fill-rule="evenodd"><g fill-rule="nonzero"><path d="m26.2149929 7.91570014-.0291372 23.36350776c-.1018387 1.4246111-1.0981612 2.6019802-2.4356435 2.6019802h-19.33097599c-1.33719943 0-2.32248939-1.1759547-2.43564357-2.6016973l.00028289-23.36379066z" fill="#ed6060"/><path d="m5.91711457 8.71541726h1.98189533v19.07722774c0 1.4749646-1.98189533 1.4749646-1.98189533 0zm11.90466763 0h1.9818953v18.78528994c0 1.4749647-1.9818953 1.4749647-1.9818953 0zm-5.9521924 0h1.9818953v18.78528994c0 1.4749647-1.9818953 1.4749647-1.9818953 0z" fill="#e23b3b"/><path d="m23.1592645 7.97369165-.0220651 19.87977365c-.0891089 1.4246111-.9598302 2.4681754-2.1287128 2.4681754h-16.8958982c-1.16859972 0-2.20509194-.9669024-2.48797737-2.3926449v-4.8916549 8.2421499c.28288543 1.4257426 1.45742575 2.7196605 2.79462518 2.7196605h19.33125879c1.3371995 0 2.333522-1.207355 2.4356436-2.6316831l.0291372-23.39377655z" fill="#dd3636"/><path d="m12.019802 4.21697313h4.1301273c.0056577-.06449788.0090523-.12927865.0090523-.19490807 0-1.15700141-.9335219-2.10325318-2.074116-2.10325318h-.0002829c-1.140594 0-2.0738331.94625177-2.0738331 2.10325318 0 .06562942.0028289.13069307.0090524.19490807m-9.24469592 0h7.62772282c-.0037346-.06490252-.0056213-.12989819-.0056578-.19490807.0002829-2.05657708 1.659406-3.73917963 3.6876945-3.73917963 2.0282886 0 3.6874116 1.68260255 3.6874116 3.73917963 0 .06534654-.0016973.1301273-.0050919.19490807h7.6288543c1.521075 0 2.8922207 1.27213578 2.765488 2.80424328l-.1162659 1.40226308h-27.90693072l-.12842999-1.40226308c-.14031117-1.53578501 1.24441301-2.80424328 2.76520509-2.80424328" fill="#636363" mask="url(#a)"/></g><path d="m26.2149929 8.12220651-.0288543 22.95219239c0 .1366336-.0028288.2738331-.0212164.4090523-.1779349 1.3312588-1.1417256 2.397454-2.41471 2.397454h-19.33097599c-1.20367751 0-2.12220651-.9524752-2.37623762-2.1821782-.0466761-.2263083-.05940595-.4579915-.05940595-.6891089l.00028289-22.88741159z" stroke="#777" stroke-linecap="round" stroke-linejoin="round" stroke-width=".92645"/><path d="m.04384724 9.05007072h28.07949076v-1.89476662h-28.07949076z" fill="#d1d1d1" fill-rule="nonzero" mask="url(#b)" transform="translate(0 .282885)"/></g></svg>