<svg height="84" viewBox="0 0 86 84" width="86" xmlns="http://www.w3.org/2000/svg"><g fill="none" transform="translate(1 1)"><path d="m62 81.77378h-25c-9.1 0-16.4-7.3-16.4-16.4v-38.4c0-.2 0-.4.1-.6l6.1-24.39999997c.4-1.7 2.4-2.5 3.9-1.6 2.6 1.6 5.5 4.8 5.1 9.79999997l-1.1 13.7c-.1 1.5 1.1 2.8 2.6 2.8h31.6c7.6 0 13.8 7.2 13.8 13.8 0 6.4-6.5 26.3-6.9 27.5v.1c-1.9 7.4-6.2 13.7-13.8 13.7z" fill="#29b99a" stroke="#787878" stroke-width="1.5"/><path d="m10.2 81.77378h-6.7c-2 0-3.5-1.6-3.5-3.5v-48c0-2 1.6-3.5 3.5-3.5h6.7c2 0 3.5 1.6 3.5 3.5v48c.1 1.9-1.5 3.5-3.5 3.5z" fill="#29b99a" stroke="#787878" stroke-width="1.5"/><path d="m83.1 23.47378c-7-3.9-12-12.3-14.7-17.59999997-.9-1.8-3.5-1.8-4.4 0-2.7 5.39999997-7.7 13.69999997-14.7 17.59999997-1.7 1-1.7 3.4 0 4.3 7 3.9 12 12.3 14.7 17.6.9 1.8 3.5 1.8 4.4 0 2.7-5.4 7.7-13.7 14.7-17.6 1.7-.9 1.7-3.3 0-4.3z" fill="#eea541"/><path d="m64 45.47378c.9 1.8 3.5 1.8 4.4 0 2.7-5.4 7.7-13.7 14.7-17.6 1.7-1 1.7-3.4 0-4.3-7-3.9-12-12.3-14.7-17.59999997-.9-1.8-3.5-1.8-4.4 0" fill="#010101" opacity=".09"/></g></svg>