<svg height="10" viewBox="0 0 16 10" width="16" xmlns="http://www.w3.org/2000/svg"><g fill="none" fill-rule="evenodd"><path d="m-1-4h18v18h-18z"/><path d="m5.758 6.5h-4.508a.752.752 0 0 0 -.75.75c0 .412.337.75.75.75h4.508v1.342c0 .338.404.503.637.263l2.085-2.093a.385.385 0 0 0 0-.532l-2.085-2.093c-.232-.24-.637-.067-.637.263zm4.484-1.658v-1.342h4.508c.413 0 .75-.338.75-.75a.752.752 0 0 0 -.75-.75h-4.508v-1.343a.371.371 0 0 0 -.637-.262l-2.085 2.092a.385.385 0 0 0 0 .533l2.085 2.093a.375.375 0 0 0 .637-.27z" fill="#1f92ff" fill-rule="nonzero"/></g></svg>