<svg height="55" viewBox="0 0 40 55" width="40" xmlns="http://www.w3.org/2000/svg" xmlns:xlink="http://www.w3.org/1999/xlink"><defs><text id="a" fill="#777" font-family="Gilroy-ExtraBold, Gilroy" font-size="11.25" font-weight="600"><tspan x="18" y="41">1</tspan></text><filter id="b" height="125%" width="122.2%" x="-11.1%" y="-6.2%"><feOffset dy="2" in="SourceAlpha" result="shadowOffsetOuter1"/><feColorMatrix in="shadowOffsetOuter1" values="0 0 0 0 1 0 0 0 0 1 0 0 0 0 1 0 0 0 0.5 0"/></filter></defs><g fill="none" fill-rule="evenodd"><path d="m10.063 1.455h19.68c.958 0 1.735.763 1.735 1.706v30.724h-23.15v-30.724c0-.943.776-1.706 1.735-1.706" fill="#e85554"/><path d="m10.063 1.455h19.68c.958 0 1.735.763 1.735 1.706v30.724h-23.15v-30.724c0-.943.776-1.706 1.735-1.706z" stroke="#777" stroke-width="1.05"/><path d="m20.425 19.271 5.194 10.321a.876.876 0 0 0 .658.47l11.603 1.658c.716.103 1.003.967.486 1.463l-8.398 8.043a.848.848 0 0 0 -.251.76l1.983 11.357c.122.7-.626 1.235-1.268.905l-10.385-5.361a.89.89 0 0 0 -.811 0l-10.373 5.36c-.641.33-1.391-.204-1.267-.906l1.982-11.354a.853.853 0 0 0 -.252-.761l-8.397-8.044c-.518-.496-.23-1.36.484-1.463l11.604-1.657a.873.873 0 0 0 .657-.47l5.184-10.321c.32-.638 1.246-.638 1.567 0" fill="#fecb5c"/><path d="m20.425 19.271 5.194 10.321a.876.876 0 0 0 .658.47l11.603 1.658c.716.103 1.003.967.486 1.463l-8.398 8.043a.848.848 0 0 0 -.251.76l1.983 11.357c.122.7-.626 1.235-1.268.905l-10.385-5.361a.89.89 0 0 0 -.811 0l-10.373 5.36c-.641.33-1.391-.204-1.267-.906l1.982-11.354a.853.853 0 0 0 -.252-.761l-8.397-8.044c-.518-.496-.23-1.36.484-1.463l11.604-1.657a.873.873 0 0 0 .657-.47l5.184-10.321c.32-.638 1.246-.638 1.567 0z" stroke="#777" stroke-width=".787"/><path d="m20.44 24.944 3.523 6.996a.87.87 0 0 0 .656.47l7.866 1.122c.717.103 1.003.968.483 1.465l-5.69 5.45a.851.851 0 0 0 -.252.76l1.344 7.697c.122.702-.626 1.235-1.267.906l-7.04-3.633a.89.89 0 0 0 -.812 0l-7.03 3.632c-.642.33-1.39-.204-1.268-.906l1.344-7.696a.846.846 0 0 0 -.252-.76l-5.69-5.45c-.518-.497-.233-1.362.483-1.465l7.866-1.122a.876.876 0 0 0 .658-.47l3.513-6.996c.32-.637 1.245-.637 1.566 0" fill="#ffda70"/><g fill="#777" transform="translate(0 1)"><use filter="url(#b)" xlink:href="#a"/><use xlink:href="#a"/></g></g></svg>