<svg height="114" viewBox="0 0 88 114" width="88" xmlns="http://www.w3.org/2000/svg"><g fill="none" fill-rule="evenodd"><g stroke="#787878" stroke-width="1.5"><path d="m1.5 11.2h84.8v101.1h-84.8z" fill="#4588bc" fill-rule="nonzero"/><path d="m72.8 91.2h-69.8c-1.4 0-2.6-1.2-2.6-2.6v-85.9c0-1.4 1.2-2.6 2.6-2.6h69.8c1.4 0 2.6 1.2 2.6 2.6v86c0 1.4-1.2 2.5-2.6 2.5" transform="translate(6 16)"/></g><g transform="translate(8)"><path d="m.7 18.1h71v87h-71z" fill="#fff" fill-rule="nonzero"/><path d="m21.8.1h28.3v28.3h-28.3z" fill="#f7c655" fill-rule="nonzero"/><path d="m45.2 14.3c0 5.1-4.1 9.2-9.2 9.2s-9.2-4.1-9.2-9.2 4.1-9.2 9.2-9.2c5 .1 9.2 4.2 9.2 9.2z" stroke="#797979" stroke-width="1.35"/><g fill-rule="nonzero"><g fill="#627ca2"><path d="m10.8 72.6h40v12.5h-40z"/><path d="m43.4 72.6h17.7v12.5h-17.7z"/><path d="m21.3 78.8h40v12.5h-40z"/><path d="m10.9 78.8h18.2v12.5h-18.2z"/></g><path d="m13 9.1h45.9v20.8h-45.9z" fill="#f7c655"/></g><path d="m51.6 24.9h-31.2c-1.3 0-2.3-1.1-2.3-2.3v-6.2c0-1.3 1.1-2.3 2.3-2.3h31.2c1.3 0 2.3 1.1 2.3 2.3v6.2c0 1.3-1 2.3-2.3 2.3z" stroke="#797979" stroke-width="1.35"/></g><g stroke="#d14b43" stroke-linecap="round" stroke-linejoin="round" stroke-width="4" transform="translate(32 41)"><path d="m23 .5-22.4 22.3"/><path d="m23 22.8-22.4-22.3"/></g></g></svg>