<svg height="75" viewBox="0 0 64 75" width="64" xmlns="http://www.w3.org/2000/svg"><g fill="none" fill-rule="evenodd"><path d="m36.459 13.602-1.75 1.676 16.88 13.846c.176-.971.438-1.765.788-2.471l-15.918-13.05zm3.935-5.38a8.018 8.018 0 0 1 -.961 2.381l14.343 14.2c.7-.53 1.487-.883 2.361-.971z" fill="#324a5e"/><path d="m38.558 11.573-18.104 17.55-3.761-4.85c-1.574-2.028-3.849-3.264-6.21-3.44l19.067-18.607c2.536-2.469 6.647-2.38 9.095.177 1.05 1.146 1.662 2.47 1.75 3.88.262 1.94-.437 3.88-1.837 5.291" fill="#fff"/><path d="m29.724 41.029c-.263 0-13.118 4.85-14.256 11.288l-13.03-16.757c-3.063-3.968-2.363-9.7 1.486-12.788a8.993 8.993 0 0 1 12.682 1.588l13.118 16.67z" fill="#324a5e"/><path d="m7.86 72.159v1.94h41.98v-1.94c0-1.851-1.487-3.44-3.411-3.44h-35.159c-1.924.09-3.41 1.589-3.41 3.44" fill="#fff"/><path d="m11.707 67.22v1.5h34.285v-1.5c0-1.498-1.224-2.645-2.799-2.645h-28.687c-1.574 0-2.799 1.234-2.799 2.646" fill="#324a5e"/><path d="m28.85 40.94c-7.435 0-13.557 6.174-13.557 13.67v9.964h27.113v-9.964c0-7.496-6.123-13.67-13.556-13.67" fill="#fff"/><path d="m28.85 51.435c1.642 0 2.973 1.342 2.973 2.999 0 1.655-1.331 2.998-2.973 2.998s-2.974-1.343-2.974-2.998c0-1.657 1.332-2.999 2.974-2.999m-19.154-26.193c2.85 0 5.16 2.33 5.16 5.204s-2.31 5.203-5.16 5.203-5.16-2.33-5.16-5.203c0-2.874 2.31-5.204 5.16-5.204m24.226-21.606c2.03 0 3.674 1.659 3.674 3.705 0 2.045-1.645 3.703-3.674 3.703-2.028 0-3.673-1.658-3.673-3.703 0-2.046 1.645-3.705 3.673-3.705" fill="#e95a7e"/><path d="m60.948 44.645c0 2.204-.263 4.674-.788 6.702h-2.098v-4.674c.786-.353 1.311-1.059 1.311-1.94 0-1.147-.961-2.117-2.099-2.117-1.137 0-2.098.97-2.098 2.116 0 .882.524 1.677 1.311 1.94v4.675h-2.1c-.524-2.117-.786-4.498-.786-6.702 0-1.5.087-2.646.35-3.616h6.559c.263.97.438 2.205.438 3.616" fill="#324a5e"/><path d="m61.997 41.029c.787-2.646 1.225-5.82 1.225-8.643 0-6.79-2.711-8.73-5.948-8.73-3.323 0-5.947 1.94-5.947 8.73 0 2.823.437 5.997 1.224 8.643z" fill="#fff"/><path d="m57.274 28.33a2.02 2.02 0 0 1 2.012 2.028c0 1.12-.901 2.029-2.012 2.029a2.02 2.02 0 0 1 -2.011-2.03c0-1.12.9-2.027 2.011-2.027" fill="#e95a7e"/></g></svg>