<svg height="75" viewBox="0 0 66 75" width="66" xmlns="http://www.w3.org/2000/svg"><g fill="none" fill-rule="evenodd"><path d="m.735 65.845h27.109v4.417h-23.907c-1.77 0-3.202-1.423-3.202-3.176z" fill="#414141"/><path d="m22.766 28.268-20.81 31.542a7.382 7.382 0 0 0 -1.221 4.064v1.971h23.905l-1.875-37.577z" fill="#e9e9e9"/><path d="m38.156 65.845h27.11v1.24c0 1.754-1.434 3.177-3.203 3.177h-23.907z" fill="#414141"/><path d="m43.234 28.268 20.81 31.542a7.376 7.376 0 0 1 1.221 4.064v1.971h-23.905l1.875-37.577z" fill="#e9e9e9"/><path d="m25.188 10.06c-2.891 6.818-4.688 15.65-4.688 19.525v40.599h25v-40.6c0-3.95-1.797-12.706-4.687-19.524z" fill="#bbb"/><path d="m28.781 10.06c-1.562 6.818-2.5 15.65-2.5 19.525v40.599h13.516v-40.6c0-3.95-1.016-12.706-2.5-19.524z" fill="#e9e9e9"/><path d="m36.467 19.069c-2.12-1.334-4.82-1.345-6.91-.034a1.931 1.931 0 0 1 -2.382-.262 1.902 1.902 0 0 1 .341-2.973 10.579 10.579 0 0 1 11.019-.017 1.901 1.901 0 0 1 .322 2.992l-.041.039a1.92 1.92 0 0 1 -2.35.255m-17.528 51.115h10.781v2.292c0 1.26-1.029 2.279-2.299 2.279h-6.184a2.289 2.289 0 0 1 -2.298-2.28z" fill="#414141"/><path d="m29.64 70.184h-10.702v-12.552c0-2.634 2.188-4.803 4.845-4.803h1.015c2.656 0 4.844 2.169 4.844 4.803v12.552z" fill="#fff"/><path d="m36.36 70.184h10.78v2.292c0 1.26-1.029 2.279-2.299 2.279h-6.184a2.289 2.289 0 0 1 -2.299-2.28v-2.291z" fill="#414141"/><path d="m47.063 70.184h-10.704v-12.552c0-2.634 2.188-4.803 4.844-4.803h1.016c2.656 0 4.844 2.169 4.844 4.803z" fill="#fff"/><path d="m12.063 54.92c1.941 0 3.515 1.562 3.515 3.487 0 1.926-1.574 3.487-3.515 3.487-1.942 0-3.516-1.561-3.516-3.487 0-1.925 1.574-3.487 3.516-3.487m41.875 0c1.941 0 3.516 1.562 3.516 3.487 0 1.926-1.575 3.487-3.516 3.487-1.942 0-3.516-1.561-3.516-3.487 0-1.925 1.574-3.487 3.516-3.487" fill="#e95a7e"/><path d="m33 .917c-2.969 0-5.703 4.03-7.812 9.143h15.625c-2.11-5.114-4.844-9.143-7.813-9.143" fill="#414141"/></g></svg>