<svg height="94" viewBox="0 0 74 94" width="74" xmlns="http://www.w3.org/2000/svg"><g fill="none" fill-rule="evenodd"><path d="m43.27 50.059v-.242c0-3.01-2.502-5.471-5.561-5.471h-.25c3.195 0 5.81 2.57 5.812 5.713" fill="#f7991c"/><path d="m37 44.346h-.71c-3.058 0-5.561 2.462-5.561 5.471v42.921c2.054.254 4.148.385 6.27.385v-48.777z" fill="#717578"/><path d="m43.27 50.059v42.68-42.677z" fill="#e37625"/><path d="m43.27 92.738v-42.68c-.001-3.142-2.616-5.712-5.81-5.712h-.46v48.777c2.124 0 4.216-.131 6.27-.385" fill="#324a5e"/><path d="m37 .05c4.595 0 8.32 10.031 8.32 22.406 0 12.377-3.725 22.409-8.32 22.409s-8.32-10.032-8.32-22.409c0-12.375 3.725-22.406 8.32-22.406" fill="#fff"/><path d="m37 .048v44.818c4.595 0 8.32-10.032 8.32-22.409 0-12.376-3.725-22.409-8.32-22.409" fill="#bbb"/><path d="m73.345 57.112c-1.908 4.112-12.734 3.277-24.18-1.862-11.445-5.14-19.177-12.638-17.268-16.75 1.908-4.112 12.733-3.279 24.179 1.86 11.446 5.14 19.177 12.64 17.27 16.753" fill="#bbb"/><path d="m42.101 38.497c1.91 4.112-5.822 11.612-17.268 16.752-11.446 5.141-22.273 5.976-24.18 1.864-1.908-4.111 5.822-11.611 17.267-16.753 11.446-5.14 22.272-5.975 24.181-1.863" fill="#fff"/><path d="m37 31.467c6.007 0 10.876 4.79 10.876 10.699 0 5.908-4.87 10.697-10.876 10.697-6.007 0-10.876-4.79-10.876-10.697 0-5.909 4.87-10.699 10.876-10.699" fill="#324a5e"/><path d="m47.876 42.165c0 5.909-4.87 10.698-10.876 10.698v-21.394c6.006 0 10.876 4.787 10.876 10.696" fill="#717578"/><path d="m37 34.857c4.103 0 7.43 3.272 7.43 7.308s-3.327 7.308-7.43 7.308-7.43-3.272-7.43-7.308 3.327-7.308 7.43-7.308" fill="#fff"/><path d="m44.429 42.165c0 4.036-3.325 7.308-7.43 7.308v-14.616c4.105 0 7.43 3.271 7.43 7.308" fill="#e0e0e2"/><path d="m37 36.492c3.186 0 5.767 2.54 5.767 5.673s-2.581 5.673-5.767 5.673c-3.185 0-5.768-2.54-5.768-5.673 0-3.132 2.583-5.673 5.768-5.673" fill="#e95a7e"/><path d="m42.767 42.165c0 3.134-2.581 5.673-5.767 5.673v-11.345c3.186 0 5.767 2.54 5.767 5.672" fill="#d35478"/></g></svg>