<svg height="24" viewBox="0 0 24 24" width="24" xmlns="http://www.w3.org/2000/svg"><g fill="none" fill-rule="evenodd"><circle cx="12" cy="12" fill="#ca7bbd" r="12"/><path d="m10.2 16.8v-9h2.882c.957 0 1.676.202 2.158.606.483.404.724 1.001.724 1.792 0 .42-.117.793-.351 1.116a2.283 2.283 0 0 1 -.957.751c.476.136.853.395 1.13.776.276.381.414.835.414 1.363 0 .808-.256 1.442-.769 1.904-.513.461-1.237.692-2.173.692zm1.162-4.21v3.24h1.92c.54 0 .967-.144 1.28-.43s.47-.681.47-1.184c0-1.084-.578-1.625-1.732-1.625h-1.938zm0-.951h1.756c.509 0 .915-.13 1.22-.39s.457-.612.457-1.057c0-.494-.14-.854-.423-1.078-.283-.225-.713-.337-1.29-.337h-1.72z" fill="#fff"/></g></svg>