<svg xmlns="http://www.w3.org/2000/svg" width="48" height="48" viewBox="0 0 48 48"><g fill="none" fill-rule="evenodd"><text fill="#FFF" font-family="Roboto" font-size="10" font-weight="400" letter-spacing=".053" transform="translate(-29)"><tspan x="55" y="35">8</tspan></text><path fill="#CA7BBD" d="M41.898 23.949C41.898 14.036 33.862 6 23.95 6 14.036 6 6 14.036 6 23.949c0 9.913 8.036 17.95 17.949 17.95 9.913 0 17.95-8.037 17.95-17.95"/><path fill="#F4D6F0" d="M14.02 26.964h19.858V15.616H14.02zM14.02 28.027h19.858v-1.063H14.02z"/><path fill="#FFF" d="M14.02 29.09h19.858v-1.063H14.02z"/><path fill="#F4D6F0" d="M14.02 30.154h19.858V29.09H14.02z"/><path fill="#FFF" d="M14.02 31.217h19.858v-1.062H14.02z"/><path fill="#F4D6F0" d="M14.02 32.282h19.858v-1.065H14.02z"/><path fill="#FFF" d="M21.5 25.19a4.602 4.602 0 0 1 0-7.802h-3.588a1.951 1.951 0 0 1-2.12 2.12l.001 3.563a1.951 1.951 0 0 1 2.12 2.12H21.5zM31.926 19.517a1.95 1.95 0 0 1-1.94-2.128h-3.588a4.606 4.606 0 0 1 2.161 3.9 4.608 4.608 0 0 1-2.16 3.902h3.587a1.95 1.95 0 0 1 2.12-2.12l-.001-3.563a1.993 1.993 0 0 1-.179.009M14.02 24.537v2.427h2.427zM16.447 15.616H14.02v2.427zM33.878 24.537v2.427H31.45zM31.451 15.616h2.427v2.427z"/><path fill="#F4D6F0" d="M23.95 32.282h9.928v-5.318h-9.929z"/></g></svg>