<svg version="1.1" xmlns="http://www.w3.org/2000/svg" width='100%' height='100%' viewport = '0 0 100 100'>  
    <symbol id='Incorrect' width="100%" height="100%" viewBox="0 0 122 122">
        <g  fill="none" fill-rule="evenodd" stroke="#ED6060" stroke-linecap="round" stroke-linejoin="round" stroke-width="30" ><path d="M21.239 100.37l79.13-79.13M21.239 21.24l79.13 79.13"/></g>
     </symbol>
     <symbol id ='Perfect' height="100%" viewBox="0 0 40 36" width="100%">
        <g fill="none" fill-rule="evenodd" transform="translate(1 1)"><g fill-rule="nonzero"><path d="m30.0322489.18472419h-21.41046672l-8.46138614 11.43903821 19.17708626 22.5069307 19.1669024-22.5069307z" fill="#32d6af"/><path d="m.16039604 11.6330976 38.34398866-.0093352-8.4724186-11.4393211h-21.31173979z" fill="#25997a"/><path d="m.16039604 11.6268741 12.78132956-.0028288 6.3960396 22.5066478z" fill="#5be8c0"/><path d="m38.4879774 11.6268741-12.7813296-.0028288-6.3960396 22.5066478z" fill="#2baa85"/><path d="m8.73239038.06082037 4.20933522 11.43932103h-12.75615276z" fill="#32d6af"/><path d="m30.0322489.12277228-4.325884 11.37736912h-12.7646393l-4.20933522-11.3991513z" fill="#1bc195"/><path d="m15.2998586 11.3323904c-.9751061-.5459689-1.6789251-1.71287131-2.052051-2.46336635-.0572559-.11680515-.1759986-.19084068-.306082-.19084068s-.2488261.07403553-.306082.19084068c-.3734088.75049504-1.0769449 1.91739745-2.052051 2.46336635-.1105103.0596571-.1793939.1751226-.1793939.3007072s.0688836.2410501.1793939.3007072c.9751061.5459689 1.6789251 1.7128713 2.052051 2.4630835.1264498.2545968.4857143.2545968.612164 0 .3731259-.7502122 1.0769449-1.9171146 2.052051-2.4630835.1105103-.0596571.1793939-.1751226.1793939-.3007072s-.0688836-.2410501-.1793939-.3007072" fill="#fff"/></g><path d="m8.73239038.20084866 21.29985852-.01131542 8.4557285 11.43705796-19.1773692 22.503819-19.12503536-22.4973126z" stroke="#777" stroke-linecap="round" stroke-linejoin="round" stroke-width=".936634"/></g>
     </symbol>
     <symbol id ='TooFastCorrect' height="100%" viewBox="0 0 35 35" width="100%">
        <g fill="none"><path d="m17.0686527 0c9.4266724 0 17.0686528 7.64198048 17.0686528 17.0686527 0 9.4269057-7.6419804 17.0686528-17.0686528 17.0686528-9.42667222 0-17.0686527-7.6417471-17.0686527-17.0686528 0-9.42667222 7.64198048-17.0686527 17.0686527-17.0686527" fill="#fede40"/><path d="m21.4018879 10.3338332c.6291076-.63100706 1.6477369-.63100706 2.2768445 0 .628327.631007.628327 1.6537378 0 2.2851364l-10.4635338 10.5016414c-.3143099.3162378-.7258783.4737693-1.1378369.4737693-.4115684 0-.8242099-.1583147-1.1382271-.4737693l-4.55095723-4.5672378c-.6291075-.6306155-.6291075-1.6536399 0-2.2843533.6283271-.6313987 1.64763929-.6313987 2.27606393 0l3.41234 3.4248655zm6.7758692 5.9881407c.2003088 0 .362691.2207366.362691.4930289 0 .2722924-.1623822.4930289-.362691.4930289h-7.1630805c-.2003087 0-.3626909-.2207365-.3626909-.4930289 0-.2722923.1623822-.4930289.3626909-.4930289zm-1.9721155 2.6856487c.2003086 0 .3626909.2207366.3626909.4930289 0 .2722924-.1623823.4930289-.3626909.4930289h-7.1630805c-.2003087 0-.3626909-.2207365-.3626909-.4930289 0-.2722923.1623822-.4930289.3626909-.4930289zm-2.9581734 2.6856487c.2003087 0 .3626909.2207366.3626909.4930289 0 .2722924-.1623822.493029-.3626909.493029h-7.1630805c-.2003087 0-.3626909-.2207366-.3626909-.493029 0-.2722923.1623822-.4930289.3626909-.4930289z" fill="#fff"/></g>
     </symbol>
     <symbol id ='OvertimeIncorrect' height="100%" viewBox="0 0 31 35" width="100%">
        <g fill="none" fill-rule="evenodd" transform="translate(1)"><g fill-rule="nonzero"><path d="m11.6659123 6.53521924h6.0828854v-3.04158416h-6.0828854z" fill="#777"/><path d="m10.3841584 3.49363508h8.6463932v-3.49363508h-8.6463932z" fill="#aaa"/><path d="m.18868458 19.6956153c0-7.9983027 6.48373409-14.48231968 14.48231962-14.48231968 7.9985856 0 14.4826026 6.48373408 14.4826026 14.48231968 0 7.9983027-6.484017 14.4823196-14.4826026 14.4823196-7.99830264 0-14.48231962-6.4840169-14.48231962-14.4823196" fill="#ed6060"/><path d="m4.43140028 29.9544554c5.77595472 5.7756719 14.82517682 5.6554456 20.48090522-.0002828 5.6557284-5.6557285 5.7759548-14.7052334.0002829-20.48090527l-20.48118812 20.48090527z" fill="#e23b3b"/><path d="m3.54455446 19.6956153c0-6.1451203 4.98161244-11.1267327 11.12644974-11.1267327 6.1451203 0 11.1267327 4.9816124 11.1267327 11.1267327 0 6.1451202-4.9816124 11.1267326-11.1267327 11.1267326-6.14512018 0-11.12644974-4.9816124-11.12644974-11.1267326" fill="#fff"/></g><g stroke="#777" stroke-linecap="round" stroke-linejoin="round" transform="translate(0 5.091938)"><path d="m.18868458 14.6036775c0-7.99830268 6.48373409-14.48231965 14.48231962-14.48231965 7.9985856 0 14.4826026 6.48373409 14.4826026 14.48231965 0 7.9983027-6.484017 14.4823197-14.4826026 14.4823197-7.99830264 0-14.48231962-6.484017-14.48231962-14.4823197z" stroke-width=".94314"/><path d="m14.7756719 7.07213579v-1.13154173m0 17.82178214v-.8486563" stroke-width=".848656"/><path d="m20.1685997 9.28882603.7844413-.78444131m-.4381895 11.72956158.7847242.7844413" stroke-width=".832249"/><path d="m22.6964639 14.8514851h.8486563" stroke-width=".848656"/><path d="m9.20339463 9.28882603-.78472419-.78444131m.43847242 11.72956158-.78500707.7844413" stroke-width=".832249"/><path d="m6.85487977 14.8514851h-1.13154172" stroke-width=".848656"/><path d="m14.4927864 9.9009901v5.3748232h5.3748232" stroke-width="1.131542"/></g><path d="m7.27637907 24.4186704c-.49533239-.2772277-.85261669-.8698727-1.04214993-1.2506365-.02917723-.0592852-.08951089-.0968366-.15558699-.0968366s-.12640976.0375514-.15558699.0968366c-.18953324.3807638-.54681754.9736917-1.04214993 1.2509194-.0560826.0303496-.0910252.0889902-.0910252.1527582 0 .0637679.0349426.1224085.0910252.1527581.49504951.2772277.85261669.8698727 1.04214993 1.2509194.02917723.0592852.08951089.0968366.15558699.0968366s.12640976-.0375514.15558699-.0968366c.18953324-.3810467.54681754-.9736917 1.04214993-1.2509194.0560826-.0303496.0910252-.0889902.0910252-.1527581 0-.063768-.0349426-.1224086-.0910252-.1527582" fill="#fff" fill-rule="nonzero"/></g>
     </symbol>
     <symbol id="OvertimeCorrect" height='100%' width='100%'  viewBox="0 0 31 34">
        <g fill="none" fill-rule="evenodd" transform="translate(1)"><g fill-rule="nonzero"><path d="m11.6659123 6.35368537h6.0828854v-2.95709571h-6.0828854z" fill="#777"/><path d="m10.3841584 3.39658966h8.6463932v-3.39658966h-8.6463932z" fill="#aaa"/><path d="m.18868458 19.1485149c0-7.7761277 6.48373409-14.08003305 14.48231962-14.08003305 7.9985856 0 14.4826026 6.30363035 14.4826026 14.08003305 0 7.7761276-6.484017 14.080033-14.4826026 14.080033-7.99830264 0-14.48231962-6.3039054-14.48231962-14.080033" fill="#81ce74"/><path d="m4.43140028 29.1223872c5.77595472 5.6152366 14.82545972 5.4983499 20.48090522-.000275 5.6557284-5.4986249 5.7759548-14.2967547.0002829-19.91199119l-20.48118812 19.91199119z" fill="#ffd217"/><path d="m3.54455446 19.1485149c0-5.9744225 4.98161244-10.81765681 11.12644974-10.81765681 6.1451203 0 11.1267327 4.84323431 11.1267327 10.81765681 0 5.9744224-4.9816124 10.8176567-11.1267327 10.8176567-6.14512018 0-11.12644974-4.8432343-11.12644974-10.8176567" fill="#fff"/></g><g stroke="#777" stroke-linecap="round" stroke-linejoin="round" transform="translate(0 4.950495)"><path d="m.18868458 14.1980198c0-7.77612761 6.48373409-14.080033 14.48231962-14.080033 7.9985856 0 14.4826026 6.30363036 14.4826026 14.080033 0 7.7761276-6.484017 14.080033-14.4826026 14.080033-7.99830264 0-14.48231962-6.3039054-14.48231962-14.080033z" stroke-width=".94314"/><path d="m14.8414629 6.87568757v-1.10011001m0 17.32673264v-.8250825" stroke-width=".848656"/><path d="m20.1685997 9.03080308.7844413-.76265126m-.4381895 11.40374038.7847242.7626513" stroke-width=".832249"/><path d="m22.4712871 14.4389439h1.1315418" stroke-width=".848656"/><path d="m9.20339463 9.03080308-.78472419-.76265126m.43847242 11.40374038-.78500707.7626513" stroke-width=".832249"/><path d="m6.9125884 14.4389439h-1.13154172" stroke-width=".848656"/><path d="m14.550495 9.6259626v5.2255225h5.3748232" stroke-width="1.131542"/></g></g>
     </symbol>
     <symbol id='Wasted' height='100%' width='100%' viewBox="0 0 29 35">
        <mask id="a" fill="#fff"><path d="m0 .16775106h28.1691655v8.14059406h-28.1691655z" fill="#fff" fill-rule="evenodd"/></mask><mask id="b" fill="#fff"><path d="m0 34.0613861h28.1691655v-34.0613861h-28.1691655z" fill="#fff" fill-rule="evenodd"/></mask><g fill="none" fill-rule="evenodd"><g fill-rule="nonzero"><path d="m26.2149929 7.91570014-.0291372 23.36350776c-.1018387 1.4246111-1.0981612 2.6019802-2.4356435 2.6019802h-19.33097599c-1.33719943 0-2.32248939-1.1759547-2.43564357-2.6016973l.00028289-23.36379066z" fill="#ed6060"/><path d="m5.91711457 8.71541726h1.98189533v19.07722774c0 1.4749646-1.98189533 1.4749646-1.98189533 0zm11.90466763 0h1.9818953v18.78528994c0 1.4749647-1.9818953 1.4749647-1.9818953 0zm-5.9521924 0h1.9818953v18.78528994c0 1.4749647-1.9818953 1.4749647-1.9818953 0z" fill="#e23b3b"/><path d="m23.1592645 7.97369165-.0220651 19.87977365c-.0891089 1.4246111-.9598302 2.4681754-2.1287128 2.4681754h-16.8958982c-1.16859972 0-2.20509194-.9669024-2.48797737-2.3926449v-4.8916549 8.2421499c.28288543 1.4257426 1.45742575 2.7196605 2.79462518 2.7196605h19.33125879c1.3371995 0 2.333522-1.207355 2.4356436-2.6316831l.0291372-23.39377655z" fill="#dd3636"/><path d="m12.019802 4.21697313h4.1301273c.0056577-.06449788.0090523-.12927865.0090523-.19490807 0-1.15700141-.9335219-2.10325318-2.074116-2.10325318h-.0002829c-1.140594 0-2.0738331.94625177-2.0738331 2.10325318 0 .06562942.0028289.13069307.0090524.19490807m-9.24469592 0h7.62772282c-.0037346-.06490252-.0056213-.12989819-.0056578-.19490807.0002829-2.05657708 1.659406-3.73917963 3.6876945-3.73917963 2.0282886 0 3.6874116 1.68260255 3.6874116 3.73917963 0 .06534654-.0016973.1301273-.0050919.19490807h7.6288543c1.521075 0 2.8922207 1.27213578 2.765488 2.80424328l-.1162659 1.40226308h-27.90693072l-.12842999-1.40226308c-.14031117-1.53578501 1.24441301-2.80424328 2.76520509-2.80424328" fill="#636363" mask="url(#a)"/></g><path d="m26.2149929 8.12220651-.0288543 22.95219239c0 .1366336-.0028288.2738331-.0212164.4090523-.1779349 1.3312588-1.1417256 2.397454-2.41471 2.397454h-19.33097599c-1.20367751 0-2.12220651-.9524752-2.37623762-2.1821782-.0466761-.2263083-.05940595-.4579915-.05940595-.6891089l.00028289-22.88741159z" stroke="#777" stroke-linecap="round" stroke-linejoin="round" stroke-width=".92645"/><path d="m.04384724 9.05007072h28.07949076v-1.89476662h-28.07949076z" fill="#d1d1d1" fill-rule="nonzero" mask="url(#b)" transform="translate(0 .282885)"/></g>
     </symbol>
</svg>
