<svg height="40" viewBox="0 0 40 40" width="40" xmlns="http://www.w3.org/2000/svg"><g fill="none" fill-rule="evenodd"><path d="m20 0c-11.038 0-20 8.962-20 20s8.962 20 20 20 20-8.962 20-20-8.962-20-20-20z" fill="#50b9e9" opacity=".5"/><path d="m20 0c-11.038 0-20 8.962-20 20s8.962 20 20 20 20-8.962 20-20-8.962-20-20-20z" fill="#50b7e8"/><g fill="#fff" fill-rule="nonzero"><path d="m11.671 11.004h-.002a.855.855 0 0 0 -.601.245.831.831 0 0 0 -.253.598v12.637c0 .463.385.84.86.842 1.999.005 5.348.414 7.658 2.786v-13.225a.796.796 0 0 0 -.118-.426c-1.896-2.997-5.54-3.453-7.544-3.457zm17.514 13.48v-12.637a.831.831 0 0 0 -.253-.599.855.855 0 0 0 -.601-.244h-.002c-2.004.004-5.648.46-7.544 3.457a.796.796 0 0 0 -.118.426v13.225c2.31-2.373 5.66-2.781 7.658-2.786a.854.854 0 0 0 .86-.842z"/><path d="m31.141 13.918h-.622v10.566c0 1.183-.983 2.147-2.19 2.15-1.696.004-4.492.33-6.472 2.169 3.425-.823 7.035-.288 9.092.172a.87.87 0 0 0 .728-.163c.205-.16.323-.4.323-.658v-13.394a.852.852 0 0 0 -.859-.843zm-21.66 10.566v-10.566h-.621a.852.852 0 0 0 -.859.843v13.392c0 .258.118.498.323.659.205.16.47.22.728.163 2.057-.46 5.667-.995 9.092-.173-1.98-1.838-4.776-2.164-6.472-2.168-1.207-.003-2.19-.967-2.19-2.15z"/></g><path d="m20 0v40c11.038 0 20-8.962 20-20s-8.962-20-20-20z" fill="#000" opacity=".085"/></g></svg>