<svg height="40" viewBox="0 0 40 40" width="40" xmlns="http://www.w3.org/2000/svg"><g fill="none" fill-rule="evenodd"><path d="m20 0c-11.038 0-20 8.962-20 20s8.962 20 20 20 20-8.962 20-20-8.962-20-20-20z" fill="#50b7e8"/><path d="m31 18.948v-1.835l-10.5-6.113-10.5 6.113v1.835h1.853v9.17h-1.235v1.834h19.764v-1.834h-1.235v-9.17zm-14.206 7.336h-2.47v-7.336h2.47zm4.941 0h-2.47v-7.336h2.47zm-1.235-9.17a1.844 1.844 0 0 1 -1.853-1.835c0-1.012.83-1.834 1.853-1.834s1.853.822 1.853 1.834c0 1.013-.83 1.834-1.853 1.834zm6.176 9.17h-2.47v-7.336h2.47z" fill="#fff" fill-rule="nonzero"/><path d="m20 0v40c11.038 0 20-8.962 20-20s-8.962-20-20-20z" fill="#000" opacity=".085"/></g></svg>