<svg height="40" viewBox="0 0 40 40" width="40" xmlns="http://www.w3.org/2000/svg"><g fill="none" fill-rule="evenodd"><path d="m20 0c-11.038 0-20 8.962-20 20s8.962 20 20 20 20-8.962 20-20-8.962-20-20-20z" fill="#50b7e8"/><path d="m33.291 17.31h-.002l-12.57-4.05a.713.713 0 0 0 -.441 0l-12.569 4.05a.678.678 0 0 0 -.477.64c0 .29.193.548.477.64l3.712 1.195v3.565c0 .18.074.351.205.478.123.118 3.063 2.897 8.873 2.897 2.114 0 4.083-.367 5.86-1.093a.667.667 0 0 0 .37-.885.708.708 0 0 0 -.914-.358c-1.6.655-3.39.986-5.313.986-2.717 0-4.716-.682-5.914-1.251a9.23 9.23 0 0 1 -1.767-1.078v-2.81l7.46 2.406c.07.022.145.035.22.035a.774.774 0 0 0 .222-.035l7.46-2.405v1.204c-.813.279-1.397 1.028-1.397 1.909 0 .824.513 1.534 1.244 1.85l-1.225 4.736a.656.656 0 0 0 .128.58.71.71 0 0 0 .551.259h2.793a.706.706 0 0 0 .549-.26.655.655 0 0 0 .128-.578l-1.225-4.737c.734-.315 1.247-1.025 1.247-1.85 0-.88-.584-1.63-1.397-1.908v-1.656l3.712-1.196a.68.68 0 0 0 .478-.64.678.678 0 0 0 -.478-.64" fill="#fff" fill-rule="nonzero"/><path d="m20 0v40c11.038 0 20-8.962 20-20s-8.962-20-20-20z" fill="#000" opacity=".085"/></g></svg>