<svg height="123" viewBox="0 0 106 123" width="106" xmlns="http://www.w3.org/2000/svg"><g fill="none" fill-rule="evenodd"><path d="m42.239 23.102h21.503v-10.752h-21.503z" fill="#777"/><path d="m37.708 12.35h30.565v-12.35h-30.565z" fill="#aaa"/><path d="m1.667 69.624c0-28.274 22.92-51.195 51.195-51.195s51.196 22.92 51.196 51.195c0 28.274-22.921 51.195-51.196 51.195-28.274 0-51.195-22.921-51.195-51.195" fill="#81ce74"/><path d="m16.665 105.889c20.418 20.417 52.408 19.992 72.4-.001 19.993-19.993 20.418-51.983.001-72.4l-72.401 72.4z" fill="#ffd217"/><path d="m13.53 69.624c0-21.723 17.61-39.333 39.332-39.333 21.723 0 39.333 17.61 39.333 39.333s-17.61 39.333-39.333 39.333-39.332-17.61-39.332-39.333" fill="#fff"/><g stroke="#777" stroke-linecap="round" stroke-linejoin="round"><path d="m1.667 69.624c0-28.274 22.92-51.195 51.195-51.195s51.196 22.92 51.196 51.195c0 28.274-22.921 51.195-51.196 51.195-28.274 0-51.195-22.921-51.195-51.195z" stroke-width="3.334"/><path d="m52.936 43v-4m0 63v-3" stroke-width="3"/><path d="m72.296 50.836 2.773-2.773m-1.549 41.464 2.774 2.773" stroke-width="2.942"/><path d="m80.436 70.5h4" stroke-width="3"/><path d="m33.534 50.836-2.774-2.773m1.55 41.464-2.775 2.773" stroke-width="2.942"/><path d="m25.436 70.5h-4" stroke-width="3"/><path d="m52.436 53v19h19" stroke-width="4"/></g></g></svg>