<svg xmlns="http://www.w3.org/2000/svg" width="106" height="123" viewBox="0 0 106 123"><g fill="none" fill-rule="evenodd"><path fill="#777" d="M42.239 23.102h21.503V12.35H42.239z"/><path fill="#AAA" d="M37.708 12.35h30.565V0H37.708z"/><path fill="#ED6060" d="M1.667 69.624c0-28.274 22.92-51.195 51.195-51.195s51.196 22.92 51.196 51.195c0 28.274-22.921 51.195-51.196 51.195-28.274 0-51.195-22.921-51.195-51.195"/><path fill="#E23B3B" d="M16.665 105.889c20.418 20.417 52.407 19.992 72.4-.001 19.993-19.993 20.418-51.983.001-72.4l-72.401 72.4z"/><path fill="#FFF" d="M13.53 69.624c0-21.723 17.61-39.333 39.332-39.333 21.723 0 39.333 17.61 39.333 39.333s-17.61 39.333-39.333 39.333S13.53 91.347 13.53 69.624"/><path stroke="#777" stroke-linecap="round" stroke-linejoin="round" stroke-width="3.334" d="M1.667 69.624c0-28.274 22.92-51.195 51.195-51.195s51.196 22.92 51.196 51.195c0 28.274-22.921 51.195-51.196 51.195-28.274 0-51.195-22.921-51.195-51.195z"/><path stroke="#777" stroke-linecap="round" stroke-linejoin="round" stroke-width="3" d="M52.732 43v-4M52.732 102v-3"/><path stroke="#777" stroke-linecap="round" stroke-linejoin="round" stroke-width="2.942" d="M72.296 50.836l2.773-2.773M73.52 89.527l2.774 2.773"/><path stroke="#777" stroke-linecap="round" stroke-linejoin="round" stroke-width="3" d="M81.232 70.5h3"/><path stroke="#777" stroke-linecap="round" stroke-linejoin="round" stroke-width="2.942" d="M33.534 50.836l-2.774-2.773M32.31 89.527L29.535 92.3"/><path stroke="#777" stroke-linecap="round" stroke-linejoin="round" stroke-width="3" d="M25.232 70.5h-4"/><path stroke="#777" stroke-linecap="round" stroke-linejoin="round" stroke-width="4" d="M52.232 53v19h19"/><path fill="#FFF" d="M26.722 86.32c-1.751-.98-3.014-3.075-3.684-4.421a.613.613 0 0 0-1.1 0c-.67 1.346-1.933 3.442-3.684 4.422a.614.614 0 0 0 0 1.08c1.75.98 3.014 3.075 3.684 4.422a.613.613 0 0 0 1.1 0c.67-1.347 1.933-3.442 3.684-4.422a.614.614 0 0 0 0-1.08"/></g></svg>