<svg xmlns="http://www.w3.org/2000/svg" width="21" height="18" viewBox="0 0 21 18"><g fill="none" fill-rule="evenodd"><path fill="#32D6AF" d="M15.704 1.085H5.221L1.08 6.482l9.389 10.62 9.384-10.62z"/><path fill="#25997A" d="M1.078 6.487l18.774-.005-4.148-5.397H5.27z"/><path fill="#5BE8C0" d="M1.078 6.484l6.258-.002 3.132 10.62z"/><path fill="#2BAA85" d="M19.844 6.484l-6.258-.002-3.131 10.62z"/><path fill="#32D6AF" d="M5.275 1.027l2.061 5.397H1.091z"/><path fill="#1BC195" d="M15.704 1.056l-2.118 5.368h-6.25l-2.06-5.378z"/><path fill="#FFF" d="M8.491 6.345c-.477-.258-.822-.808-1.005-1.162a.17.17 0 0 0-.3 0c-.182.354-.527.904-1.004 1.162a.159.159 0 0 0 0 .284c.477.257.822.808 1.005 1.162a.17.17 0 0 0 .3 0c.182-.354.527-.905 1.004-1.162a.159.159 0 0 0 0-.284"/><path stroke="#777" stroke-linecap="round" stroke-linejoin="round" stroke-width=".5" d="M5.275 1.093l10.43-.005 4.139 5.396-9.39 10.617L1.092 6.487z"/></g></svg>