<svg height="18" viewBox="0 0 15 18" width="15" xmlns="http://www.w3.org/2000/svg" xmlns:xlink="http://www.w3.org/1999/xlink"><mask id="a" fill="#fff"><path d="m14.744 4.335v-4.247h-14.744v4.247z" fill="none"/></mask><mask id="b" fill="#fff"><path d="m0 17.92h14.744v-17.771h-14.744z" fill="none"/></mask><g fill="none" fill-rule="evenodd"><path d="m13.721 4.13-.015 12.191c-.053.744-.575 1.358-1.275 1.358h-10.118c-.7 0-1.216-.614-1.275-1.358v-12.19h12.683z" fill="#ed6060" opacity=".8"/><path d="m3.097 4.548h1.037v9.954c0 .77-1.037.77-1.037 0zm6.231 0h1.038v9.802c0 .77-1.038.77-1.038 0zm-3.115 0h1.037v9.802c0 .77-1.037.77-1.037 0z" fill="#e23b3b" opacity=".8"/><path d="m12.122 4.16-.012 10.374c-.046.743-.502 1.288-1.114 1.288h-8.844c-.611 0-1.154-.505-1.302-1.249v-2.552 4.3c.148.744.763 1.42 1.463 1.42h10.118c.7 0 1.222-.63 1.275-1.374l.015-12.206h-1.6z" fill="#dd3636" opacity=".8"/><path d="m6.291 2.14h2.162a1.095 1.095 0 0 0 -1.08-1.2v.001c-.598 0-1.086.494-1.086 1.098 0 .034.001.068.004.101m-4.838 0h3.992a1.93 1.93 0 0 1 -.003-.101c0-1.073.869-1.951 1.93-1.951 1.062 0 1.93.878 1.93 1.95 0 .035 0 .069-.003.102h3.993c.797 0 1.514.664 1.448 1.464l-.061.731h-14.607l-.067-.731c-.073-.802.651-1.464 1.448-1.464" fill="#636363" mask="url(#a)" opacity=".8" transform="translate(0 .06)"/><path d="m13.721 4.238-.015 11.976c0 .072-.001.143-.01.214-.094.694-.598 1.25-1.265 1.25h-10.118c-.63 0-1.11-.496-1.244-1.138a1.773 1.773 0 0 1 -.03-.36v-11.941h12.681z" opacity=".8" stroke="#777" stroke-linecap="round" stroke-linejoin="round" stroke-width=".5"/><path d="m.023 4.87h14.697v-.99h-14.697z" fill="#d1d1d1" mask="url(#b)" opacity=".8"/></g></svg>