<svg height="250" viewBox="0 0 350 250" width="350" xmlns="http://www.w3.org/2000/svg"><g fill="none" fill-rule="evenodd"><path d="m324.981 184.685-51.35-16.685-21.631 66.574 37.21 12.09 6.543-10.006 12.113.703z" fill="#fcde94"/><path d="m307.866 237.361-18.655 9.303-18.978-6.166 21.631-66.574 33.117 10.76z" fill="#f9d073"/><path d="m293.726 232.767-4.515 13.897 18.655-9.303z" fill="#a3a4a0"/><path d="m278.67 187.473a1.199 1.199 0 0 1 -.686-.578l-1.518-2.922a1.142 1.142 0 0 1 .505-1.554 1.19 1.19 0 0 1 1.578.513l.982 1.89 5.437-2.62a1.19 1.19 0 0 1 1.578.513c.296.575.07 1.268-.505 1.554l-6.477 3.14a1.2 1.2 0 0 1 -.894.064m28.98 20.163-23.07-7.496c-.615-.2-.957-.851-.76-1.461a1.166 1.166 0 0 1 1.474-.736l23.07 7.496c.618.2.957.856.76 1.461-.198.61-.856.937-1.473.736m3.753-11.551-23.07-7.496a1.166 1.166 0 0 1 -.76-1.46 1.166 1.166 0 0 1 1.473-.737l23.07 7.496c.618.201.957.857.76 1.462a1.165 1.165 0 0 1 -1.473.735m-7.607 23.412-23.07-7.496a1.166 1.166 0 0 1 -.76-1.461 1.166 1.166 0 0 1 1.473-.736l23.07 7.496c.618.2.957.857.76 1.461a1.165 1.165 0 0 1 -1.473.736m-3.747 11.534-23.071-7.496a1.166 1.166 0 0 1 -.76-1.461 1.166 1.166 0 0 1 1.474-.736l23.07 7.496c.618.2.956.857.76 1.461a1.165 1.165 0 0 1 -1.474.736m-27.184-35.912c.53-1.631 2.304-2.515 3.962-1.976 1.659.539 2.574 2.296 2.044 3.927s-2.303 2.515-3.962 1.976c-1.658-.539-2.574-2.296-2.044-3.927m-3.855 11.861c.53-1.631 2.305-2.514 3.963-1.975 1.659.538 2.574 2.295 2.044 3.927-.53 1.63-2.303 2.514-3.962 1.975-1.658-.538-2.574-2.296-2.044-3.927m-3.748 11.534c.53-1.631 2.304-2.514 3.963-1.976 1.658.54 2.573 2.296 2.043 3.927-.53 1.632-2.303 2.515-3.961 1.976-1.659-.539-2.575-2.296-2.045-3.927" fill="#32b3d9"/><path d="m207.828 43.022-4.462 36.347c-.575 4.681-4.818 8.012-9.476 7.44l-36.059-4.428-19.434 16.81 2.322-18.91-12.1-1.487c-4.659-.571-7.97-4.83-7.395-9.51l4.462-36.346c.575-4.681 4.818-8.012 9.476-7.44l65.27 8.014c4.66.573 7.971 4.83 7.396 9.51z" fill="#0391fd" fill-rule="nonzero"/><path d="m74.682 77.567-.037-.235c-.455-2.871-3.147-4.85-5.983-4.401l-.23.036c2.961-.469 5.773 1.596 6.25 4.6" fill="#eb922f"/><path d="m67.62 72.67c-3.504.556-5.915 3.897-5.355 7.43l7.982 50.394c2.4-.074 4.822-.3 7.254-.685l-9.07-57.267-.811.129z" fill="#f6b72c"/><path d="m84.25 126.357h.002l-7.484-47.257h-.002z" fill="#d56f2d"/><path d="m76.677 78.538c-.587-3.696-4.06-6.234-7.719-5.654l-.527.083 9.07 57.267a57.79 57.79 0 0 0 7.112-1.59z" fill="#ea5a7d"/><path d="m60.659 23.893c4.958-.786 10.718 9.563 12.865 23.115 2.146 13.552-.134 25.174-5.093 25.96-4.959.785-10.719-9.564-12.865-23.116-2.147-13.552.134-25.174 5.093-25.96" fill="#9b59b6"/><path d="m60.659 23.893 7.772 49.074c4.96-.785 7.24-12.407 5.093-25.96-2.147-13.551-7.907-23.9-12.865-23.114" fill="#722f8e"/><path d="m110.035 81.946c-1.293 5.029-13.009 5.904-26.167 1.963-13.158-3.942-22.775-11.211-21.482-16.24 1.294-5.02 13.009-5.905 26.167-1.963 13.157 3.941 22.775 11.21 21.482 16.24" fill="#722f8e"/><path d="m72.543 66.064c2.784 4.382-4.117 14.267-15.412 22.08-11.296 7.814-22.709 10.602-25.493 6.219-2.784-4.382 4.117-14.267 15.412-22.08 11.296-7.814 22.709-10.602 25.493-6.22" fill="#9b59b6"/><path d="m67.026 58.284c6.447-1.02 12.511 3.446 13.543 9.961 1.034 6.525-3.354 12.647-9.8 13.668-6.446 1.02-12.512-3.445-13.545-9.97-1.032-6.516 3.356-12.638 9.802-13.659" fill="#f8da49"/><path d="m80.57 68.254c1.033 6.516-3.757 12.702-10.7 13.801l-3.742-23.628c6.943-1.1 13.41 3.303 14.443 9.827" fill="#ebaf34"/><path d="m67.601 61.92c4.464-.707 8.662 2.38 9.377 6.894.716 4.523-2.323 8.757-6.786 9.464s-8.66-2.38-9.377-6.904c-.714-4.514 2.323-8.747 6.786-9.454" fill="#fffffe"/><path d="m75.183 69.108c.715 4.514-1.92 8.684-5.888 9.312l-2.591-16.358c3.968-.629 7.763 2.523 8.48 7.046" fill="#dededb"/><path d="m67.89 63.737c3.47-.55 6.736 1.852 7.292 5.362.557 3.518-1.806 6.811-5.278 7.361-3.47.55-6.736-1.852-7.293-5.37-.556-3.51 1.808-6.803 5.278-7.353" fill="#32ac71"/><path d="m73.387 69.392c.556 3.51-1.404 6.74-4.38 7.21l-2.015-12.722c2.976-.47 5.838 1.995 6.395 5.513" fill="#029c4e"/><path d="m192.95 138.897.022-.177c.265-2.164-1.266-4.147-3.404-4.41l-.174-.021c2.233.274 3.833 2.344 3.556 4.608" fill="#eb922f"/><path d="m188.87 133.907c-2.64-.324-5.069 1.587-5.396 4.25l-4.663 37.981a43.36 43.36 0 0 0 5.372 1.006l5.3-43.162-.612-.075z" fill="#f6b72c"/><path d="m189.762 176.05h.001l4.374-35.617h-.002z" fill="#d56f2d"/><path d="m194.187 140.01c.34-2.786-1.637-5.334-4.396-5.672l-.397-.049-5.3 43.161c1.835.226 3.655.331 5.456.324z" fill="#ea5a7d"/><path d="m193.936 97.302c3.737.459 5.75 9.11 4.496 19.324s-5.3 18.122-9.038 17.663c-3.737-.459-5.75-9.11-4.496-19.325 1.254-10.214 5.3-18.121 9.038-17.662" fill="#9b59b6"/><path d="m193.936 97.302-4.542 36.987c3.738.459 7.784-7.449 9.038-17.663s-.759-18.865-4.496-19.324" fill="#722f8e"/><path d="m217.532 149.363c-1.972 3.358-10.599 1.567-19.27-3.995-8.672-5.561-14.102-12.79-12.13-16.149 1.97-3.351 10.599-1.567 19.27 3.994 8.671 5.562 14.102 12.791 12.13 16.15" fill="#722f8e"/><path d="m193.786 130.162c1.101 3.735-5.917 9.435-15.676 12.733s-18.563 2.948-19.664-.787c-1.102-3.735 5.916-9.435 15.675-12.733s18.564-2.948 19.665.787" fill="#9b59b6"/><path d="m191.417 123.413c4.858.597 8.307 5.07 7.704 9.981-.604 4.918-5.032 8.424-9.891 7.828-4.858-.597-8.308-5.07-7.704-9.988.603-4.911 5.032-8.418 9.89-7.821" fill="#f8da49"/><path d="m199.12 133.4c-.603 4.912-5.334 8.38-10.567 7.738l2.187-17.808c5.232.642 8.984 5.153 8.38 10.07" fill="#ebaf34"/><path d="m191.08 126.153c3.364.413 5.752 3.507 5.334 6.909-.418 3.409-3.484 5.833-6.848 5.42s-5.751-3.507-5.333-6.916c.418-3.402 3.483-5.826 6.847-5.413" fill="#fffffe"/><path d="m195.06 132.902c-.418 3.402-3.18 5.864-6.17 5.497l1.513-12.33c2.991.368 5.076 3.424 4.657 6.833" fill="#dededb"/><path d="m190.912 127.523c2.616.32 4.474 2.728 4.149 5.372-.326 2.652-2.71 4.538-5.327 4.217-2.616-.321-4.473-2.728-4.147-5.38.324-2.645 2.709-4.53 5.325-4.21" fill="#32ac71"/><path d="m193.707 132.736c-.325 2.645-2.406 4.568-4.65 4.293l1.178-9.59c2.243.276 3.797 2.645 3.472 5.297" fill="#029c4e"/><path d="m151.055 135.165-3.24 26.388c-.417 3.4-3.486 5.819-6.853 5.405l-26.066-3.2-14.057 12.211 1.686-13.73-8.748-1.074c-3.367-.414-5.759-3.504-5.342-6.901l3.24-26.389c.418-3.399 3.486-5.818 6.854-5.405l47.183 5.794c3.368.413 5.76 3.503 5.343 6.9z" fill="#0391fd" fill-rule="nonzero"/><text fill="#fff" font-family="National-Book, National" font-size="36.145" font-weight="300" transform="matrix(.99254615 .12186934 -.12186934 .99254615 37.875535 -10.261526)"><tspan x="83.145" y="154">En</tspan></text><path d="m104 223.568-24.528 26h108.528l-28-26z" fill="#caf5ff"/><path d="m106.5 221.568h27l-29 28h-24.5z" fill="#46c4d1" opacity=".805"/><path d="m104 223.568h55.5v-27h-55.5z" fill="#caf5ff"/><path d="m131.496 223.568h27.504v-27z" fill="#46c4d1" opacity=".805"/><g fill-opacity=".5"><path d="m20 142.568h224v-53h-224z" fill="#caf5ff"/><path d="m133 90.568v52h55zm-112 0v52h54.992z" fill="#46c4d1"/><path d="m132 89.568h-112l55.992 53 .008-.01.008.01zm111 53h-110l55 54.5-1-1.51 1 1.51zm-110 0h-112l57 54zm111-53h-112l55.992 53 .008-.01.008.01z" fill="#90edfc"/><path d="m78 196.568h110l-55-54z" fill="#caf5ff"/></g><path d="m159 196.568h-55l27.496 27h.008z" fill="#90edfc"/><path d="m104 249.568h55l-27.496-26.014-.004.01-.004-.013z" fill="#90edfc"/><path d="m78 196.568-2.008-54h57.008zm110 .5-.008-54.5h57.008z" fill="#46c4d1" fill-opacity=".5"/><text fill="#fff" font-family="National-Book, National" font-size="50" font-weight="300" transform="matrix(.99254615 .12186934 -.12186934 .99254615 27.18551 -16.481154)"><tspan x="121.8" y="69">En</tspan></text><path d="m315.448 126.6v14.648a3.408 3.408 0 0 1 -3.4 3.416h-14.531l-6.897 7.621v-7.621h-4.876c-1.877 0-3.4-1.53-3.4-3.415v-14.649a3.408 3.408 0 0 1 3.4-3.416h26.304c1.878 0 3.4 1.53 3.4 3.415z" fill="#0391fd" fill-rule="nonzero"/><text fill="#fff" font-family="National-Book, National" font-size="20" font-weight="300" transform="translate(282 119)"><tspan x="6.774" y="21">En</tspan></text><path d="m248.506 68.186a.918.918 0 0 1 0 1.628c-2.69 1.478-4.632 4.637-5.66 6.67a.95.95 0 0 1 -1.69 0c-1.03-2.033-2.971-5.192-5.66-6.67a.917.917 0 0 1 0-1.628c2.689-1.479 4.63-4.638 5.66-6.669a.949.949 0 0 1 1.69 0c1.028 2.031 2.97 5.19 5.66 6.669zm-30-50a.918.918 0 0 1 0 1.628c-2.69 1.478-4.632 4.637-5.66 6.67a.95.95 0 0 1 -1.69 0c-1.03-2.033-2.971-5.192-5.66-6.67a.917.917 0 0 1 0-1.628c2.689-1.479 4.63-4.638 5.66-6.669a.949.949 0 0 1 1.69 0c1.028 2.031 2.97 5.19 5.66 6.669zm-50-10a.918.918 0 0 1 0 1.628c-2.69 1.478-4.632 4.637-5.66 6.67a.95.95 0 0 1 -1.69 0c-1.03-2.033-2.971-5.192-5.66-6.67a.917.917 0 0 1 0-1.628c2.689-1.479 4.63-4.638 5.66-6.669a.949.949 0 0 1 1.69 0c1.028 2.031 2.97 5.19 5.66 6.669zm-61 10a.918.918 0 0 1 0 1.628c-2.69 1.478-4.632 4.637-5.66 6.67a.95.95 0 0 1 -1.69 0c-1.03-2.033-2.971-5.192-5.66-6.67a.917.917 0 0 1 0-1.628c2.689-1.479 4.63-4.638 5.66-6.669a.949.949 0 0 1 1.69 0c1.028 2.031 2.97 5.19 5.66 6.669zm-72 40a.918.918 0 0 1 0 1.628c-2.69 1.478-4.632 4.637-5.66 6.67a.95.95 0 0 1 -1.69 0c-1.03-2.033-2.971-5.192-5.66-6.67a.917.917 0 0 1 0-1.628c2.689-1.479 4.63-4.638 5.66-6.669a.949.949 0 0 1 1.69 0c1.028 2.031 2.97 5.19 5.66 6.669z" fill="#ffc431"/></g></svg>