<svg height="250" viewBox="0 0 350 250" width="350" xmlns="http://www.w3.org/2000/svg"><g fill="none" fill-rule="evenodd"><path d="m158.93 78.036.003-.183c.04-2.233-1.75-4.09-3.974-4.13l-.182-.003c2.324.04 4.193 1.979 4.153 4.316" fill="#eb922f"/><path d="m154.198 73.387c-2.75-.048-5.038 2.16-5.086 4.907l-.684 39.207c1.842.264 3.72.417 5.629.45l.778-44.553-.637-.01z" fill="#f6b72c"/><path d="m159.672 116.24h.002l.642-36.765h-.002z" fill="#d56f2d"/><path d="m160.322 79.038a5.235 5.235 0 0 0 -5.131-5.31l-.414-.008-.777 44.553a45.16 45.16 0 0 0 5.641-.254l.68-38.981z" fill="#ea5a7d"/><path d="m155.444 35.541c3.89.068 6.895 8.67 6.711 19.213s-3.487 19.034-7.378 18.966c-3.89-.068-6.895-8.67-6.71-19.212.183-10.544 3.486-19.035 7.377-18.967" fill="#9b59b6"/><path d="m155.444 35.541-.667 38.18c3.89.067 7.194-8.424 7.378-18.967.184-10.544-2.82-19.145-6.711-19.213" fill="#722f8e"/><path d="m185.324 86.072c-1.663 3.633-10.723 2.731-20.236-2.01-9.512-4.74-15.875-11.526-14.212-15.16 1.663-3.625 10.723-2.73 20.236 2.01 9.512 4.74 15.875 11.527 14.212 15.16" fill="#722f8e"/><path d="m158.844 69.044c1.536 3.69-5.06 10.248-14.732 14.653s-18.758 4.99-20.293 1.302c-1.537-3.689 5.06-10.248 14.731-14.653 9.672-4.405 18.758-4.99 20.294-1.302" fill="#9b59b6"/><path d="m155.68 62.42c5.057.088 9.085 4.279 8.997 9.348-.089 5.076-4.26 9.123-9.319 9.035-5.057-.089-9.085-4.279-8.997-9.355.089-5.07 4.261-9.116 9.318-9.028" fill="#f8da49"/><path d="m164.677 71.775c-.089 5.069-4.576 9.11-10.023 9.015l.32-18.382c5.448.095 9.791 4.29 9.703 9.367" fill="#ebaf34"/><path d="m155.63 65.248c3.501.061 6.29 2.959 6.229 6.47-.062 3.52-2.95 6.318-6.452 6.257-3.501-.062-6.29-2.959-6.228-6.478.061-3.512 2.95-6.31 6.45-6.249" fill="#fffffe"/><path d="m160.45 71.701c-.061 3.512-2.633 6.316-5.747 6.261l.223-12.726c3.113.054 5.585 2.946 5.524 6.465" fill="#dededb"/><path d="m155.605 66.662c2.724.048 4.893 2.302 4.845 5.032-.048 2.737-2.294 4.914-5.018 4.867-2.723-.048-4.892-2.302-4.844-5.04.048-2.73 2.294-4.906 5.017-4.859" fill="#32ac71"/><path d="m159.041 71.676c-.048 2.73-1.978 4.913-4.313 4.872l.173-9.898c2.335.04 4.188 2.29 4.14 5.026" fill="#029c4e"/><path d="m125.772 143.724-.06-.173c-.726-2.112-3.042-3.246-5.147-2.522l-.171.06c2.198-.757 4.616.425 5.378 2.635" fill="#eb922f"/><path d="m119.736 140.974c-2.6.895-3.996 3.752-3.101 6.35l12.765 37.076c1.822-.382 3.64-.88 5.444-1.502l-14.507-42.132-.602.208z" fill="#f6b72c"/><path d="m139.536 179.37.002-.001-11.972-34.767z" fill="#d56f2d"/><path d="m127.423 144.189a5.235 5.235 0 0 0 -6.638-3.235l-.391.134 14.507 42.132a45.16 45.16 0 0 0 5.215-2.168z" fill="#ea5a7d"/><path d="m107.962 104.984c3.68-1.267 9.445 5.788 12.878 15.758s3.233 19.08-.446 20.346c-3.68 1.267-9.444-5.788-12.877-15.758-3.434-9.97-3.234-19.08.445-20.346" fill="#9b59b6"/><path d="m107.962 104.984 12.432 36.104c3.68-1.267 3.879-10.375.446-20.346-3.433-9.97-9.199-17.025-12.878-15.758" fill="#722f8e"/><path d="m153.323 142.248c-.32 3.983-9.142 6.233-19.702 5.033-10.56-1.201-18.86-5.402-18.54-9.385.321-3.976 9.141-6.234 19.702-5.033 10.56 1.2 18.86 5.402 18.54 9.385" fill="#722f8e"/><path d="m122.617 135.304c2.704 2.94-1.251 11.36-8.833 18.807-7.582 7.448-15.92 11.105-18.624 8.164-2.705-2.94 1.25-11.36 8.831-18.807 7.583-7.448 15.92-11.105 18.626-8.164" fill="#9b59b6"/><path d="m117.377 130.161c4.783-1.647 10 .913 11.651 5.707 1.653 4.8-.883 10.03-5.666 11.677-4.782 1.647-10-.913-11.654-5.713-1.65-4.794.886-10.024 5.669-11.67" fill="#f8da49"/><path d="m129.03 135.874c1.651 4.794-1.183 10.127-6.334 11.9l-5.985-17.383c5.15-1.774 10.667.683 12.32 5.483" fill="#ebaf34"/><path d="m118.297 132.836c3.311-1.14 6.923.628 8.067 3.95 1.146 3.327-.612 6.944-3.923 8.085-3.311 1.14-6.922-.63-8.068-3.957-1.144-3.32.613-6.938 3.924-8.078" fill="#fffffe"/><path d="m125.034 137.25c1.143 3.322-.315 6.836-3.259 7.85l-4.144-12.035c2.945-1.014 6.257.858 7.403 4.186" fill="#dededb"/><path d="m118.758 134.173c2.575-.887 5.385.49 6.273 3.071.892 2.589-.475 5.403-3.05 6.29-2.575.886-5.384-.49-6.276-3.079-.889-2.581.478-5.395 3.053-6.282" fill="#32ac71"/><path d="m123.701 137.71c.89 2.581-.178 5.292-2.386 6.053l-3.223-9.36c2.208-.761 4.718.718 5.61 3.307l11.612-43.267" fill="#029c4e"/><path d="m61.008 35.74c-.27.084-.448.146-.794.267-.338.142-.541.225-.798.345-12.438 5.776-18.023 20.01-13.117 32.79 5.98 15.58 21.735 15.868 24.074 21.962l.011.029 19.69-7.558-.011-.029c-2.34-6.094 8.9-16.728 2.92-32.308-4.906-12.78-18.866-19.527-31.975-15.497" fill="#f6b72c"/><path d="m67.33 34.184c7.86 2.666 14.214 8.525 17.296 16.555 6.658 17.344-7.218 29.686-4.613 36.47l.076.199 9.404-3.61-.01-.03c-2.37-6.17 8.648-16.795 2.593-32.568-4.07-10.605-14.187-17.15-24.747-17.016" fill="#f49c53"/><path d="m92.839 91.595-20.201 7.754c-1.941.745-4.127-.245-4.882-2.212-.755-1.968.206-4.166 2.147-4.912l20.201-7.754c1.94-.745 4.126.246 4.882 2.213.755 1.967-.207 4.166-2.147 4.91m1.947 9.243-15.855 6.086c-1.853.711-3.966-.308-4.72-2.274-.756-1.968.133-4.138 1.985-4.85l15.855-6.086c1.852-.71 3.965.307 4.72 2.275.756 1.967-.134 4.138-1.985 4.849m-12.832 6.742c-.257.099-.314.413-.098.546 1.873 1.146 4.416 1.429 6.825.504 2.41-.925 4.11-2.837 4.734-4.941.073-.244-.18-.44-.437-.34l-11.024 4.23" fill="#71716e"/><path d="m56.213 63.88c-.878.336-1.792.413-2.681.175-3.08-.824-4.683-5.112-3.583-9.578.783-3.175 2.723-5.585 4.886-6.415.879-.337 1.794-.414 2.683-.176 1.832.49 3.141 2.207 3.67 4.458a13.724 13.724 0 0 0 -2.505 3.858l-.009.028a14.06 14.06 0 0 0 -1.074 6.88c-.445.327-.91.587-1.387.77" fill="#f8e494"/><path d="m247.496 39.454c-.327-.093-.547-.146-.974-.25-.432-.079-.692-.128-1.028-.175-16.291-2.323-31.197 8.266-34.59 24.232-4.137 19.463 11.54 30.004 9.921 37.618l-.007.036 24.755 5.261.007-.035c1.619-7.614 19.872-10.925 24.009-30.388 3.393-15.966-6.265-31.794-22.093-36.299" fill="#f6b72c"/><path d="m254.876 42.013c6.176 7.78 8.755 17.771 6.623 27.803-4.605 21.666-26.626 24.97-28.427 33.444l-.053.248 11.824 2.513.008-.035c1.638-7.708 19.66-11.157 23.849-30.86 2.816-13.249-3.103-26.374-13.824-33.113" fill="#f49c53"/><path d="m243.128 115.991-25.398-5.398c-2.441-.52-3.996-2.932-3.474-5.389.523-2.457 2.925-4.03 5.365-3.51l25.398 5.398c2.44.519 3.995 2.931 3.473 5.39-.523 2.456-2.924 4.028-5.364 3.51m-4.067 10.503-19.933-4.237c-2.33-.495-3.793-2.889-3.27-5.346.522-2.458 2.832-4.048 5.161-3.553l19.934 4.237c2.328.495 3.793 2.888 3.27 5.346-.522 2.457-2.833 4.048-5.162 3.553m-17.316-1.614c-.324-.069-.586.208-.455.482 1.138 2.364 3.514 4.302 6.543 4.946 3.03.644 5.989-.16 7.99-1.857.232-.196.105-.556-.219-.625l-13.86-2.946" fill="#71716e"/><path d="m224.32 64.454c-1.105-.234-2.075-.753-2.816-1.57-2.563-2.827-1.382-8.156 2.638-11.903 2.859-2.664 6.384-3.81 9.104-3.231 1.104.234 2.076.754 2.816 1.57 1.525 1.683 1.723 4.25.788 6.845a16.465 16.465 0 0 0 -5.038 2.225l-.027.022a16.737 16.737 0 0 0 -5.568 6.175 7.187 7.187 0 0 1 -1.898-.133" fill="#f8e494"/><path d="m176.377 108.888c-.254.098-.42.17-.743.31-.314.157-.503.251-.741.382-11.529 6.356-15.978 20.245-10.49 32.016 6.692 14.35 21.77 13.509 24.388 19.122l.012.026 18.35-8.556-.013-.026c-2.617-5.614 7.463-16.49.772-30.84-5.489-11.77-19.255-17.18-31.535-12.434" fill="#f6bf3e"/><path d="m182.322 106.966c7.68 1.973 14.122 7.079 17.57 14.475 7.449 15.973-5.044 28.655-2.13 34.903l.085.183 8.765-4.087-.013-.026c-2.65-5.683 7.218-16.535.444-31.063-4.555-9.767-14.635-15.258-24.72-14.385" fill="#e4a530"/><path d="m210.297 159.596-18.826 8.78a3.617 3.617 0 0 1 -4.805-1.754 3.617 3.617 0 0 1 1.746-4.808l18.826-8.779a3.617 3.617 0 0 1 4.805 1.754 3.617 3.617 0 0 1 -1.746 4.807m2.439 8.626-14.776 6.89c-1.726.805-3.81-.012-4.655-1.823-.845-1.813-.13-3.933 1.596-4.738l14.776-6.89c1.725-.805 3.81.01 4.655 1.823.844 1.811.13 3.933-1.596 4.738m-11.845 7.298c-.24.112-.274.414-.06.524 1.863.955 4.311 1.044 6.556-.003 2.246-1.048 3.752-2.98 4.217-5.02.054-.236-.2-.404-.44-.292l-10.273 4.79" fill="#71716e"/><path d="m173.552 135.906c-.818.381-1.687.518-2.552.355-2.995-.563-4.796-4.515-4.024-8.827.55-3.066 2.254-5.488 4.27-6.428.819-.382 1.689-.519 2.554-.356 1.782.336 3.14 1.871 3.787 3.968a13.17 13.17 0 0 0 -2.154 3.835l-.006.027a13.301 13.301 0 0 0 -.598 6.598c-.404.342-.833.62-1.277.828" fill="#fbd880"/><path d="m124 222.568-24.528 26h108.528l-28-26z" fill="#caf5ff"/><path d="m126.5 220.568h27l-29 28h-24.5z" fill="#46c4d1" opacity=".805"/><path d="m124 222.568h55.5v-27h-55.5z" fill="#caf5ff"/><path d="m151.496 222.568h27.504v-27z" fill="#46c4d1" opacity=".805"/><g fill-opacity=".5"><path d="m40 141.568h224v-53h-224z" fill="#caf5ff"/><path d="m153 89.568v52h55zm-112 0v52h54.992z" fill="#46c4d1"/><path d="m152 88.568h-112l55.992 53 .008-.01.008.01zm111 53h-110l55 54.5-1-1.51 1 1.51zm-110 0h-112l57 54zm111-53h-112l55.992 53 .008-.01.008.01z" fill="#90edfc"/><path d="m98 195.568h110l-55-54z" fill="#caf5ff"/></g><path d="m179 195.568h-55l27.496 27h.008z" fill="#90edfc"/><path d="m124 248.568h55l-27.496-26.014-.004.01-.004-.013z" fill="#90edfc"/><path d="m98 195.568-2.008-54h57.008zm110 .5-.008-54.5h57.008z" fill="#46c4d1" fill-opacity=".5"/><path d="m281.506 51.186a.918.918 0 0 1 0 1.628c-2.69 1.478-4.632 4.637-5.66 6.67a.95.95 0 0 1 -1.69 0c-1.03-2.033-2.971-5.192-5.66-6.67a.917.917 0 0 1 0-1.628c2.689-1.479 4.63-4.638 5.66-6.669a.949.949 0 0 1 1.69 0c1.028 2.031 2.97 5.19 5.66 6.669zm-50-40a.918.918 0 0 1 0 1.628c-2.69 1.478-4.632 4.637-5.66 6.67a.95.95 0 0 1 -1.69 0c-1.03-2.033-2.971-5.192-5.66-6.67a.917.917 0 0 1 0-1.628c2.689-1.479 4.63-4.638 5.66-6.669a.949.949 0 0 1 1.69 0c1.028 2.031 2.97 5.19 5.66 6.669zm-60 10a.918.918 0 0 1 0 1.628c-2.69 1.478-4.632 4.637-5.66 6.67a.95.95 0 0 1 -1.69 0c-1.03-2.033-2.971-5.192-5.66-6.67a.917.917 0 0 1 0-1.628c2.689-1.479 4.63-4.638 5.66-6.669a.949.949 0 0 1 1.69 0c1.028 2.031 2.97 5.19 5.66 6.669zm-60 10a.918.918 0 0 1 0 1.628c-2.69 1.478-4.632 4.637-5.66 6.67a.95.95 0 0 1 -1.69 0c-1.03-2.033-2.971-5.192-5.66-6.67a.917.917 0 0 1 0-1.628c2.689-1.479 4.63-4.638 5.66-6.669a.949.949 0 0 1 1.69 0c1.028 2.031 2.97 5.19 5.66 6.669zm-60-10a.918.918 0 0 1 0 1.628c-2.69 1.478-4.632 4.637-5.66 6.67a.95.95 0 0 1 -1.69 0c-1.03-2.033-2.971-5.192-5.66-6.67a.917.917 0 0 1 0-1.628c2.689-1.479 4.63-4.638 5.66-6.669a.949.949 0 0 1 1.69 0c1.028 2.031 2.97 5.19 5.66 6.669z" fill="#ffc431"/><path d="m312.11 187.707-42.465-6.726-8.76 55.31 30.772 4.875 3.905-8.727 9.616-.967z" fill="#fcde94"/><path d="m305.178 231.472-13.521 9.694-15.694-2.486 8.76-55.31 27.387 4.337z" fill="#f9d073"/><path d="m293.485 229.62-1.828 11.546 13.521-9.694z" fill="#a3a4a0"/><path d="m276.024 195.731a.952.952 0 0 1 -.612-.37l-1.556-2.118a.917.917 0 0 1 .204-1.29.945.945 0 0 1 1.306.206l1.006 1.37 3.952-2.753a.945.945 0 0 1 1.306.207.916.916 0 0 1 -.205 1.29l-4.706 3.295a.953.953 0 0 1 -.695.163m25.299 12.285-19.079-3.021a.928.928 0 0 1 -.779-1.06.93.93 0 0 1 1.068-.766l19.079 3.022a.93.93 0 0 1 .778 1.059.927.927 0 0 1 -1.067.766m1.52-9.596-19.079-3.022a.93.93 0 0 1 -.779-1.059.93.93 0 0 1 1.068-.766l19.079 3.022a.93.93 0 0 1 .778 1.059.93.93 0 0 1 -1.067.766m-3.081 19.45-19.079-3.02a.93.93 0 0 1 -.778-1.06.93.93 0 0 1 1.067-.766l19.079 3.022a.93.93 0 0 1 .779 1.058.93.93 0 0 1 -1.068.767m-1.518 9.582-19.078-3.021a.93.93 0 0 1 -.779-1.06.93.93 0 0 1 1.068-.766l19.078 3.022a.93.93 0 0 1 .779 1.059.93.93 0 0 1 -1.068.766m-25.839-24.953c.215-1.354 1.5-2.275 2.872-2.058s2.31 1.49 2.095 2.845c-.215 1.356-1.5 2.276-2.871 2.06-1.372-.218-2.31-1.491-2.096-2.846m-1.561 9.854c.215-1.355 1.501-2.276 2.873-2.058 1.37.217 2.309 1.49 2.094 2.845-.214 1.355-1.5 2.276-2.871 2.059-1.372-.217-2.31-1.49-2.096-2.846m-1.517 9.583c.214-1.355 1.5-2.276 2.872-2.059 1.371.217 2.31 1.49 2.094 2.846-.214 1.355-1.5 2.276-2.87 2.058-1.372-.217-2.31-1.49-2.096-2.845" fill="#32b3d9"/></g></svg>