<svg height="250" viewBox="0 0 350 250" width="350" xmlns="http://www.w3.org/2000/svg"><g fill="none" fill-rule="evenodd"><path d="m339 133.929v21.141a4.93 4.93 0 0 1 -4.929 4.93h-41.071l-10 11v-11h-7.071a4.93 4.93 0 0 1 -4.929-4.929v-21.141a4.93 4.93 0 0 1 4.929-4.93h58.141a4.93 4.93 0 0 1 4.93 4.929z" fill="#0391fd" fill-rule="nonzero"/><text fill="#fff" font-family="National-Book, National" font-size="18" font-weight="300" transform="translate(-816 -1078)"><tspan x="1103.336" y="1228">Easy</tspan></text><path d="m85.856 33.372-51.35 16.684 21.631 66.574 37.21-12.09-.588-11.94 10.213-6.552z" fill="#fcde94"/><path d="m102.972 86.048-9.624 18.492-18.978 6.166-21.631-66.574 33.117-10.76z" fill="#f9d073"/><path d="m88.832 90.643 4.516 13.897 9.624-18.492z" fill="#a3a4a0"/><path d="m50.028 62.85a1.199 1.199 0 0 1 -.894-.066l-2.946-1.472c-.575-.285-.8-.979-.505-1.553a1.19 1.19 0 0 1 1.579-.513l1.905.951 2.858-5.314a1.19 1.19 0 0 1 1.579-.513c.577.291.802.985.505 1.554l-3.396 6.347a1.2 1.2 0 0 1 -.685.578m35.298-.723-23.07 7.496a1.163 1.163 0 0 1 -1.474-.735 1.166 1.166 0 0 1 .76-1.462l23.07-7.496c.617-.2 1.277.131 1.473.736.198.61-.142 1.26-.76 1.461m-3.752-11.55-23.07 7.496a1.166 1.166 0 0 1 -1.474-.736 1.166 1.166 0 0 1 .76-1.461l23.07-7.496c.617-.2 1.277.13 1.473.736a1.165 1.165 0 0 1 -.76 1.46m7.608 23.413-23.07 7.496a1.166 1.166 0 0 1 -1.474-.736 1.166 1.166 0 0 1 .76-1.461l23.07-7.496c.617-.201 1.277.13 1.473.735a1.165 1.165 0 0 1 -.76 1.462m3.748 11.534-23.07 7.496a1.166 1.166 0 0 1 -1.473-.736 1.166 1.166 0 0 1 .759-1.461l23.07-7.496c.618-.201 1.277.13 1.474.735a1.165 1.165 0 0 1 -.76 1.462m-43.101-13.076c-.53-1.63.386-3.388 2.045-3.927 1.658-.539 3.431.345 3.96 1.976.53 1.631-.384 3.388-2.043 3.927-1.658.539-3.432-.344-3.962-1.976m3.854 11.862c-.53-1.631.386-3.389 2.044-3.928 1.659-.538 3.432.345 3.962 1.976s-.385 3.389-2.044 3.927c-1.658.54-3.432-.344-3.962-1.975m3.748 11.534c-.53-1.631.385-3.389 2.044-3.928 1.658-.538 3.432.345 3.961 1.976.53 1.631-.385 3.388-2.043 3.927-1.659.54-3.432-.344-3.962-1.975" fill="#32b3d9"/><path d="m284.506 50.186a.918.918 0 0 1 0 1.628c-2.69 1.478-4.632 4.637-5.66 6.67a.95.95 0 0 1 -1.69 0c-1.03-2.033-2.971-5.192-5.66-6.67a.917.917 0 0 1 0-1.628c2.689-1.479 4.63-4.638 5.66-6.669a.949.949 0 0 1 1.69 0c1.028 2.031 2.97 5.19 5.66 6.669zm-50-40a.918.918 0 0 1 0 1.628c-2.69 1.478-4.632 4.637-5.66 6.67a.95.95 0 0 1 -1.69 0c-1.03-2.033-2.971-5.192-5.66-6.67a.917.917 0 0 1 0-1.628c2.689-1.479 4.63-4.638 5.66-6.669a.949.949 0 0 1 1.69 0c1.028 2.031 2.97 5.19 5.66 6.669zm-60 10a.918.918 0 0 1 0 1.628c-2.69 1.478-4.632 4.637-5.66 6.67a.95.95 0 0 1 -1.69 0c-1.03-2.033-2.971-5.192-5.66-6.67a.917.917 0 0 1 0-1.628c2.689-1.479 4.63-4.638 5.66-6.669a.949.949 0 0 1 1.69 0c1.028 2.031 2.97 5.19 5.66 6.669zm-60 10a.918.918 0 0 1 0 1.628c-2.69 1.478-4.632 4.637-5.66 6.67a.95.95 0 0 1 -1.69 0c-1.03-2.033-2.971-5.192-5.66-6.67a.917.917 0 0 1 0-1.628c2.689-1.479 4.63-4.638 5.66-6.669a.949.949 0 0 1 1.69 0c1.028 2.031 2.97 5.19 5.66 6.669zm-60-10a.918.918 0 0 1 0 1.628c-2.69 1.478-4.632 4.637-5.66 6.67a.95.95 0 0 1 -1.69 0c-1.03-2.033-2.971-5.192-5.66-6.67a.917.917 0 0 1 0-1.628c2.689-1.479 4.63-4.638 5.66-6.669a.949.949 0 0 1 1.69 0c1.028 2.031 2.97 5.19 5.66 6.669z" fill="#ffc431"/><path d="m147.601 116.097-53.467-7.514-9.742 69.319 38.745 5.445 4.705-10.99 12.05-1.411 7.71-54.849" fill="#fcde94"/><path d="m139.893 170.946-16.756 12.4-19.76-2.776 9.741-69.319 34.483 4.846z" fill="#f9d073"/><path d="m125.17 168.877-2.033 14.47 16.756-12.401-14.723-2.07" fill="#a3a4a0"/><path d="m102.477 126.886a1.199 1.199 0 0 1 -.775-.451l-2.003-2.614a1.142 1.142 0 0 1 .227-1.618 1.19 1.19 0 0 1 1.644.231l1.295 1.69 4.9-3.523a1.19 1.19 0 0 1 1.643.231c.39.514.29 1.237-.227 1.617l-5.835 4.217a1.2 1.2 0 0 1 -.869.22m32.043 14.824-24.022-3.377a1.163 1.163 0 0 1 -1.002-1.307c.088-.63.682-1.07 1.323-.98l24.022 3.376c.643.09 1.09.677 1.001 1.307-.089.635-.68 1.07-1.323.98m1.691-12.027-24.022-3.376a1.166 1.166 0 0 1 -1.002-1.307c.089-.63.682-1.07 1.323-.98l24.022 3.376c.643.09 1.09.677 1.002 1.307-.089.63-.68 1.07-1.323.98m-3.426 24.378-24.022-3.377a1.166 1.166 0 0 1 -1.002-1.307c.089-.63.682-1.07 1.323-.98l24.022 3.376c.643.09 1.09.677 1.002 1.307-.089.63-.68 1.07-1.323.98m-1.688 12.01-24.022-3.376a1.166 1.166 0 0 1 -1.002-1.307c.089-.63.682-1.07 1.324-.98l24.021 3.375c.643.09 1.09.678 1.002 1.308-.089.63-.68 1.07-1.323.98m-33.008-30.646c.239-1.698 1.833-2.876 3.56-2.634 1.726.243 2.933 1.814 2.694 3.513-.239 1.698-1.832 2.876-3.558 2.633-1.727-.242-2.934-1.814-2.696-3.512m-1.735 12.35c.238-1.698 1.832-2.876 3.559-2.633 1.726.242 2.933 1.814 2.694 3.512s-1.831 2.876-3.558 2.634c-1.727-.243-2.934-1.815-2.695-3.513m-1.688 12.01c.238-1.699 1.832-2.877 3.559-2.634 1.726.243 2.933 1.814 2.694 3.512-.238 1.699-1.831 2.877-3.558 2.634-1.727-.242-2.934-1.814-2.695-3.512" fill="#32b3d9"/><path d="m207.526 112.971-53.59 6.58 8.53 69.479 38.835-4.769 1.7-11.833 11.275-4.482z" fill="#fcde94"/><path d="m214.276 167.946-12.975 16.315-19.806 2.432-8.53-69.478 34.561-4.244z" fill="#f9d073"/><path d="m199.52 169.758 1.78 14.503 12.976-16.315z" fill="#a3a4a0"/><path d="m166.732 135.07a1.199 1.199 0 0 1 -.866-.234l-2.61-2.006a1.142 1.142 0 0 1 -.2-1.622 1.19 1.19 0 0 1 1.648-.202l1.688 1.297 3.82-4.67a1.19 1.19 0 0 1 1.648-.203c.51.396.6 1.12.199 1.621l-4.544 5.583a1.2 1.2 0 0 1 -.783.437m34.787 6.025-24.077 2.957a1.163 1.163 0 0 1 -1.306-1.004 1.166 1.166 0 0 1 1.024-1.29l24.077-2.955a1.165 1.165 0 0 1 1.306 1.003c.078.637-.38 1.21-1.024 1.29m-1.48-12.055-24.077 2.956a1.166 1.166 0 0 1 -1.306-1.003 1.166 1.166 0 0 1 1.024-1.29l24.077-2.956a1.165 1.165 0 0 1 1.306 1.003c.078.632-.38 1.21-1.024 1.29m3 24.433-24.077 2.956a1.166 1.166 0 0 1 -1.306-1.003 1.166 1.166 0 0 1 1.024-1.29l24.077-2.956a1.165 1.165 0 0 1 1.306 1.004c.078.63-.38 1.21-1.024 1.29m1.478 12.036-24.077 2.956a1.166 1.166 0 0 1 -1.306-1.003 1.166 1.166 0 0 1 1.024-1.29l24.077-2.956a1.165 1.165 0 0 1 1.306 1.004c.078.63-.38 1.21-1.024 1.29m-39.815-21.06c-.209-1.702 1.026-3.252 2.757-3.465 1.73-.212 3.302.993 3.511 2.696.21 1.702-1.025 3.252-2.755 3.465-1.731.212-3.304-.994-3.513-2.696m1.52 12.379c-.209-1.702 1.025-3.253 2.757-3.465 1.73-.213 3.302.993 3.511 2.695.21 1.703-1.025 3.253-2.755 3.465-1.731.213-3.304-.993-3.513-2.695m1.478 12.037c-.209-1.702 1.025-3.253 2.756-3.465 1.73-.213 3.303.993 3.512 2.695.21 1.703-1.025 3.253-2.755 3.465-1.731.213-3.304-.993-3.513-2.695" fill="#32b3d9"/><path d="m178.601 42.097-53.467-7.514-9.742 69.319 38.745 5.445 4.705-10.99 12.05-1.411 7.71-54.849" fill="#fcde94"/><path d="m170.893 96.946-16.756 12.4-19.76-2.776 9.741-69.319 34.483 4.846z" fill="#f9d073"/><path d="m156.17 94.877-2.033 14.47 16.756-12.401-14.723-2.07" fill="#a3a4a0"/><path d="m133.477 52.886a1.199 1.199 0 0 1 -.775-.451l-2.003-2.614a1.142 1.142 0 0 1 .227-1.618 1.19 1.19 0 0 1 1.644.231l1.295 1.69 4.9-3.523a1.19 1.19 0 0 1 1.643.231c.39.514.29 1.237-.227 1.617l-5.835 4.217a1.2 1.2 0 0 1 -.869.22m32.043 14.824-24.022-3.377a1.163 1.163 0 0 1 -1.002-1.307c.088-.63.682-1.07 1.323-.98l24.022 3.376c.643.09 1.09.677 1.001 1.307-.089.635-.68 1.07-1.323.98m1.691-12.027-24.022-3.376a1.166 1.166 0 0 1 -1.002-1.306c.089-.63.682-1.07 1.323-.98l24.022 3.376c.643.09 1.09.677 1.002 1.307-.089.63-.68 1.07-1.323.98m-3.426 24.377-24.022-3.377a1.166 1.166 0 0 1 -1.002-1.307c.089-.63.682-1.07 1.323-.98l24.022 3.376c.643.09 1.09.677 1.002 1.307-.089.63-.68 1.07-1.323.98m-1.688 12.01-24.022-3.376a1.166 1.166 0 0 1 -1.002-1.307c.089-.63.682-1.07 1.324-.98l24.021 3.375c.643.09 1.09.678 1.002 1.308-.089.63-.68 1.07-1.323.98m-33.008-30.646c.239-1.698 1.833-2.876 3.56-2.634 1.726.243 2.933 1.814 2.694 3.513-.239 1.698-1.832 2.876-3.558 2.633-1.727-.242-2.934-1.814-2.696-3.512m-1.735 12.35c.238-1.698 1.832-2.876 3.559-2.633 1.726.242 2.933 1.814 2.694 3.512s-1.831 2.876-3.558 2.634c-1.727-.243-2.934-1.815-2.695-3.513m-1.688 12.01c.238-1.699 1.832-2.877 3.559-2.634 1.726.243 2.933 1.814 2.694 3.512-.238 1.699-1.831 2.877-3.558 2.634-1.727-.242-2.934-1.814-2.695-3.512" fill="#32b3d9"/><path d="m251.755 40.08-53.96 1.884 2.443 69.957 39.102-1.366 2.725-11.64 11.623-3.482-1.933-55.354" fill="#fcde94"/><path d="m253.688 95.433-14.348 15.122-19.943.697-2.443-69.957 34.801-1.216z" fill="#f9d073"/><path d="m238.83 95.952.51 14.603 14.348-15.122z" fill="#a3a4a0"/><path d="m209.19 58.54c-.3.01-.605-.096-.842-.31l-2.426-2.226a1.142 1.142 0 0 1 -.057-1.633 1.19 1.19 0 0 1 1.658-.058l1.57 1.44 4.212-4.32a1.19 1.19 0 0 1 1.66-.059c.473.439.499 1.168.056 1.633l-5.013 5.165a1.2 1.2 0 0 1 -.818.367m34.13 9.035-24.244.846a1.163 1.163 0 0 1 -1.213-1.113 1.166 1.166 0 0 1 1.133-1.195l24.243-.847a1.165 1.165 0 0 1 1.213 1.114 1.161 1.161 0 0 1 -1.133 1.195m-.424-12.138-24.243.847a1.166 1.166 0 0 1 -1.213-1.114 1.166 1.166 0 0 1 1.133-1.195l24.243-.846a1.165 1.165 0 0 1 1.213 1.113 1.165 1.165 0 0 1 -1.133 1.195m.86 24.602-24.244.846a1.166 1.166 0 0 1 -1.213-1.113 1.166 1.166 0 0 1 1.133-1.195l24.243-.847a1.165 1.165 0 0 1 1.213 1.114 1.165 1.165 0 0 1 -1.132 1.195m.423 12.12-24.243.847a1.166 1.166 0 0 1 -1.214-1.114 1.166 1.166 0 0 1 1.133-1.195l24.243-.847a1.165 1.165 0 0 1 1.214 1.114 1.165 1.165 0 0 1 -1.133 1.195m-37.828-24.448c-.06-1.715 1.305-3.152 3.048-3.213 1.742-.06 3.203 1.278 3.263 2.992s-1.304 3.15-3.046 3.211c-1.743.061-3.205-1.277-3.265-2.99m.435 12.463c-.06-1.714 1.305-3.15 3.048-3.212 1.743-.06 3.204 1.278 3.264 2.992s-1.305 3.15-3.047 3.211c-1.743.061-3.205-1.277-3.265-2.99m.424 12.119c-.06-1.714 1.304-3.15 3.047-3.211s3.204 1.277 3.264 2.99c.06 1.715-1.305 3.152-3.047 3.212-1.743.061-3.205-1.277-3.264-2.99" fill="#32b3d9"/><path d="m286.994 192h-42.994v56h31.156l2.492-9.23 9.346-2.46z" fill="#fcde94"/><path d="m286.994 236.31-11.838 11.69h-15.89v-56h27.728z" fill="#f9d073"/><path d="m275.156 236.31v11.69l11.838-11.69z" fill="#a3a4a0"/><path d="m252.608 205.57a.952.952 0 0 1 -.662-.27l-1.869-1.848a.917.917 0 0 1 0-1.307.945.945 0 0 1 1.322 0l1.209 1.195 3.472-3.337a.945.945 0 0 1 1.322 0 .916.916 0 0 1 0 1.307l-4.133 3.99a.953.953 0 0 1 -.661.27m26.909 8.177h-19.316a.928.928 0 0 1 -.935-.924.93.93 0 0 1 .935-.924h19.316a.93.93 0 0 1 .935.924.927.927 0 0 1 -.935.924m0-9.717h-19.316a.93.93 0 0 1 -.935-.923.93.93 0 0 1 .935-.924h19.316a.93.93 0 0 1 .935.924.93.93 0 0 1 -.935.924m0 19.693h-19.316a.93.93 0 0 1 -.935-.924.93.93 0 0 1 .935-.924h19.316a.93.93 0 0 1 .935.924.93.93 0 0 1 -.935.924m0 9.702h-19.316a.93.93 0 0 1 -.935-.924.93.93 0 0 1 .935-.924h19.316a.93.93 0 0 1 .935.924.93.93 0 0 1 -.935.924m-29.424-20.603c0-1.372 1.126-2.483 2.515-2.483 1.388 0 2.513 1.11 2.513 2.483 0 1.372-1.125 2.482-2.513 2.482-1.39 0-2.515-1.11-2.515-2.482m0 9.977c0-1.372 1.126-2.483 2.515-2.483 1.388 0 2.513 1.111 2.513 2.483s-1.125 2.483-2.513 2.483c-1.39 0-2.515-1.111-2.515-2.483m0 9.702c0-1.372 1.126-2.483 2.515-2.483 1.388 0 2.513 1.111 2.513 2.483s-1.125 2.483-2.513 2.483c-1.39 0-2.515-1.111-2.515-2.483" fill="#32b3d9"/><path d="m121 222.568-24.528 26h108.528l-28-26z" fill="#caf5ff"/><path d="m123.5 220.568h27l-29 28h-24.5z" fill="#46c4d1" opacity=".805"/><path d="m121 222.568h55.5v-27h-55.5z" fill="#caf5ff"/><path d="m148.496 222.568h27.504v-27z" fill="#46c4d1" opacity=".805"/><g fill-opacity=".5"><path d="m37 141.568h224v-53h-224z" fill="#caf5ff"/><path d="m150 89.568v52h55zm-112 0v52h54.992z" fill="#46c4d1"/><path d="m149 88.568h-112l55.992 53 .008-.01.008.01zm111 53h-110l55 54.5-1-1.51 1 1.51zm-110 0h-112l57 54zm111-53h-112l55.992 53 .008-.01.008.01z" fill="#90edfc"/><path d="m95 195.568h110l-55-54z" fill="#caf5ff"/></g><path d="m176 195.568h-55l27.496 27h.008z" fill="#90edfc"/><path d="m121 248.568h55l-27.496-26.014-.004.01-.004-.013z" fill="#90edfc"/><path d="m95 195.568-2.008-54h57.008zm110 .5-.008-54.5h57.008z" fill="#46c4d1" fill-opacity=".5"/><path d="m342.487 185.054-51.35-16.684-21.631 66.574 37.21 12.09 6.543-10.006 12.113.703z" fill="#fcde94"/><path d="m325.372 237.73-18.655 9.304-18.978-6.166 21.631-66.574 33.117 10.76-17.115 52.677" fill="#f9d073"/><path d="m311.232 233.137-4.515 13.897 18.655-9.303z" fill="#a3a4a0"/><path d="m296.176 187.843a1.199 1.199 0 0 1 -.686-.579l-1.518-2.922a1.142 1.142 0 0 1 .504-1.553 1.19 1.19 0 0 1 1.579.513l.982 1.89 5.437-2.62a1.19 1.19 0 0 1 1.578.513c.296.574.07 1.268-.505 1.553l-6.477 3.14a1.2 1.2 0 0 1 -.894.065m28.981 20.162-23.07-7.496c-.617-.2-.959-.85-.76-1.46a1.166 1.166 0 0 1 1.473-.737l23.07 7.497c.618.2.956.856.76 1.46-.198.611-.856.937-1.473.736m3.753-11.55-23.07-7.496a1.166 1.166 0 0 1 -.76-1.461 1.166 1.166 0 0 1 1.473-.736l23.07 7.496c.618.2.956.856.76 1.461a1.165 1.165 0 0 1 -1.473.736m-7.607 23.412-23.07-7.496a1.166 1.166 0 0 1 -.76-1.462 1.166 1.166 0 0 1 1.473-.735l23.07 7.496c.618.2.957.856.76 1.461a1.165 1.165 0 0 1 -1.473.736m-3.748 11.533-23.07-7.495a1.166 1.166 0 0 1 -.76-1.462 1.166 1.166 0 0 1 1.473-.735l23.071 7.496c.617.2.956.856.76 1.46a1.165 1.165 0 0 1 -1.474.737m-27.185-35.913c.53-1.63 2.305-2.514 3.963-1.975s2.574 2.296 2.044 3.927c-.53 1.63-2.304 2.514-3.962 1.976-1.658-.54-2.574-2.297-2.044-3.928m-3.854 11.862c.53-1.631 2.304-2.515 3.962-1.976s2.574 2.296 2.044 3.927-2.304 2.515-3.962 1.976-2.574-2.296-2.044-3.927m-3.747 11.534c.53-1.631 2.303-2.515 3.962-1.976 1.658.539 2.573 2.296 2.043 3.927s-2.303 2.515-3.961 1.976c-1.659-.539-2.575-2.296-2.045-3.927" fill="#32b3d9"/></g></svg>