<svg height="250" viewBox="0 0 350 250" width="350" xmlns="http://www.w3.org/2000/svg" xmlns:xlink="http://www.w3.org/1999/xlink"><defs><circle id="a" cx="27.5" cy="27.5" r="27.5"/><circle id="b" cx="27.5" cy="27.5" r="27.5"/><circle id="c" cx="27.5" cy="27.5" r="27.5"/><circle id="d" cx="19.25" cy="19.25" r="19.25"/><mask id="e" fill="#fff"><use fill="#fff" fill-rule="evenodd" xlink:href="#a"/></mask><mask id="f" fill="#fff"><use fill="#fff" fill-rule="evenodd" xlink:href="#b"/></mask><mask id="g" fill="#fff"><use fill="#fff" fill-rule="evenodd" xlink:href="#c"/></mask><mask id="h" fill="#fff"><use fill="#fff" fill-rule="evenodd" xlink:href="#d"/></mask></defs><g fill="none" fill-rule="evenodd"><g transform="translate(15 5)"><g transform="translate(14 50)"><use fill="#9b59b6" xlink:href="#a"/><path d="m10 1 32 56 15-16v-29l-18-15z" fill="#bd97c5" mask="url(#e)"/></g><g transform="translate(77 40)"><use fill="#9b59b6" xlink:href="#b"/><path d="m27-4h32v60h-32z" fill="#bd97c5" mask="url(#f)"/></g><g transform="translate(143 45)"><use fill="#9b59b6" xlink:href="#c"/><path d="m44 2-31 52 19 4 20-10 8-21-6-18z" fill="#bd97c5" mask="url(#g)"/></g><circle cx="64.5" cy="135.5" fill="#9b59b6" r="27.5"/><circle cx="133.5" cy="123.5" fill="#9b59b6" r="27.5"/><circle cx="197.5" cy="127.5" fill="#9b59b6" r="27.5"/><g fill="#fff" font-family="National-Book, National" font-size="50" font-weight="300"><text><tspan x="90.375" y="77">0</tspan></text><text transform="matrix(.95630476 -.2923717 .2923717 .95630476 -18.539272 14.416832)"><tspan x="30.288" y="88.233">1</tspan></text><text transform="matrix(.95105652 .30901699 -.30901699 .95105652 42.41426 -13.817101)"><tspan x="53.626" y="145.988">7</tspan></text><text transform="matrix(.98162718 .190809 -.190809 .98162718 15.240085 -31.252336)"><tspan x="159.004" y="82.511">2</tspan></text><text><tspan x="185.15" y="141">8</tspan></text><text><tspan x="123.325" y="135">1</tspan></text></g><path d="m93 217.568-24.528 26h108.528l-28-26z" fill="#caf5ff"/><path d="m95.5 215.568h27l-29 28h-24.5z" fill="#46c4d1" opacity=".805"/><path d="m93 217.568h55.5v-27h-55.5z" fill="#caf5ff"/><path d="m120.496 217.568h27.504v-27z" fill="#46c4d1" opacity=".805"/><path d="m9 136.568h224v-53h-224z" fill="#caf5ff" fill-opacity=".5"/><path d="m122 84.568v52h55zm-112 0v52h54.992z" fill="#46c4d1" fill-opacity=".5"/><path d="m121 83.568h-112l55.992 53 .008-.01.008.01zm111 53h-110l55 54.5-1-1.51 1 1.51zm-110 0h-112l57 54zm111-53h-112l55.992 53 .008-.01.008.01z" fill="#90edfc" fill-opacity=".5"/><path d="m67 190.568h110l-55-54z" fill="#caf5ff" fill-opacity=".5"/><path d="m148 190.568h-55l27.496 27h.008z" fill="#90edfc"/><path d="m93 243.568h55l-27.496-26.014-.004.01-.004-.013z" fill="#90edfc"/><path d="m67 190.568-2.008-54h57.008zm110 .5-.008-54.5h57.008z" fill="#46c4d1" fill-opacity=".5"/><path d="m243.506 47.186a.918.918 0 0 1 0 1.628c-2.69 1.478-4.632 4.637-5.66 6.67a.95.95 0 0 1 -1.69 0c-1.03-2.033-2.971-5.192-5.66-6.67a.917.917 0 0 1 0-1.628c2.689-1.479 4.63-4.638 5.66-6.669a.949.949 0 0 1 1.69 0c1.028 2.031 2.97 5.19 5.66 6.669zm-50-40a.918.918 0 0 1 0 1.628c-2.69 1.478-4.632 4.637-5.66 6.67a.95.95 0 0 1 -1.69 0c-1.03-2.033-2.971-5.192-5.66-6.67a.917.917 0 0 1 0-1.628c2.689-1.479 4.63-4.638 5.66-6.669a.949.949 0 0 1 1.69 0c1.028 2.031 2.97 5.19 5.66 6.669zm-60 10a.918.918 0 0 1 0 1.628c-2.69 1.478-4.632 4.637-5.66 6.67a.95.95 0 0 1 -1.69 0c-1.03-2.033-2.971-5.192-5.66-6.67a.917.917 0 0 1 0-1.628c2.689-1.479 4.63-4.638 5.66-6.669a.949.949 0 0 1 1.69 0c1.028 2.031 2.97 5.19 5.66 6.669zm-60 10a.918.918 0 0 1 0 1.628c-2.69 1.478-4.632 4.637-5.66 6.67a.95.95 0 0 1 -1.69 0c-1.03-2.033-2.971-5.192-5.66-6.67a.917.917 0 0 1 0-1.628c2.689-1.479 4.63-4.638 5.66-6.669a.949.949 0 0 1 1.69 0c1.028 2.031 2.97 5.19 5.66 6.669zm-60-10a.918.918 0 0 1 0 1.628c-2.69 1.478-4.632 4.637-5.66 6.67a.95.95 0 0 1 -1.69 0c-1.03-2.033-2.971-5.192-5.66-6.67a.917.917 0 0 1 0-1.628c2.689-1.479 4.63-4.638 5.66-6.669a.949.949 0 0 1 1.69 0c1.028 2.031 2.97 5.19 5.66 6.669z" fill="#ffc431"/></g><g transform="matrix(.27563736 -.9612617 .9612617 .27563736 233.998534 239.896543)"><use fill="#9b59b6" xlink:href="#d"/><path d="m0 32.9.562-.406 37.238-26.894 4.9 15.4-7 16.1-18.9 3.5z" fill="#bd97c5" mask="url(#h)"/></g><text fill="#fff" font-family="National-Book, National" font-size="35" font-weight="300" transform="matrix(.92718385 -.37460659 .37460659 .92718385 221.669139 208.880859)"><tspan x="15.921" y="36.091">4</tspan></text><path d="m318.995 198h-37.995v49h27.533l2.202-8.077 8.26-2.152z" fill="#fcde94"/><path d="m318.995 236.771-10.462 10.229h-14.043v-49h24.504v38.771" fill="#f9d073"/><path d="m308.533 236.771v10.229l10.462-10.229z" fill="#a3a4a0"/><path d="m288.607 209.874a.846.846 0 0 1 -.585-.237l-1.651-1.617a.797.797 0 0 1 0-1.143.841.841 0 0 1 1.168 0l1.068 1.045 3.068-2.92a.841.841 0 0 1 1.168 0 .796.796 0 0 1 0 1.144l-3.652 3.492a.846.846 0 0 1 -.584.236m23.78 7.154h-17.07a.816.816 0 0 1 -.826-.808c0-.445.37-.809.826-.809h17.07c.457 0 .826.364.826.809 0 .449-.369.808-.826.808m0-8.501h-17.07a.819.819 0 0 1 -.826-.809c0-.445.37-.808.826-.808h17.07c.457 0 .826.363.826.808s-.369.809-.826.809m0 17.231h-17.07a.819.819 0 0 1 -.826-.808c0-.445.37-.808.826-.808h17.07c.457 0 .826.363.826.808s-.369.809-.826.809m0 8.489h-17.07a.819.819 0 0 1 -.826-.809c0-.445.37-.808.826-.808h17.07c.457 0 .826.363.826.808s-.369.809-.826.809m-26.003-18.028c0-1.2.995-2.172 2.223-2.172 1.227 0 2.221.971 2.221 2.172 0 1.2-.994 2.172-2.221 2.172-1.228 0-2.223-.972-2.223-2.172m0 8.73c0-1.2.995-2.172 2.223-2.172 1.227 0 2.221.972 2.221 2.172s-.994 2.172-2.221 2.172c-1.228 0-2.223-.972-2.223-2.172m0 8.49c0-1.201.995-2.173 2.223-2.173 1.227 0 2.221.972 2.221 2.172s-.994 2.173-2.221 2.173c-1.228 0-2.223-.972-2.223-2.173" fill="#32b3d9"/></g></svg>