<svg height="250" viewBox="0 0 350 250" width="350" xmlns="http://www.w3.org/2000/svg" xmlns:xlink="http://www.w3.org/1999/xlink"><mask id="a" fill="#fff"><path d="m0 249.345h296.139v-249.345h-296.139z" fill="#fff" fill-rule="evenodd"/></mask><g fill="none" fill-rule="evenodd"><g transform="translate(29)"><path d="m38.041 36.733a.936.936 0 0 1 0 1.646c-2.667 1.494-4.593 4.687-5.614 6.74a.934.934 0 0 1 -1.677 0c-1.021-2.053-2.947-5.246-5.614-6.74a.935.935 0 0 1 0-1.646c2.668-1.494 4.593-4.687 5.614-6.74a.933.933 0 0 1 1.676 0c1.021 2.053 2.947 5.246 5.615 6.74zm159.221-4.982c-2.668-1.493-4.594-4.687-5.615-6.74a.933.933 0 0 0 -1.676 0c-1.021 2.053-2.947 5.247-5.615 6.74a.935.935 0 0 0 0 1.646c2.668 1.495 4.594 4.688 5.615 6.741a.933.933 0 0 0 1.676 0c1.02-2.053 2.947-5.246 5.615-6.74a.936.936 0 0 0 0-1.647m-47.672-24.488c-2.667-1.494-4.593-4.687-5.614-6.74a.933.933 0 0 0 -1.676 0c-1.021 2.053-2.947 5.246-5.615 6.74a.935.935 0 0 0 0 1.646c2.668 1.494 4.594 4.688 5.615 6.74a.934.934 0 0 0 1.676 0c1.02-2.052 2.947-5.246 5.615-6.74a.936.936 0 0 0 0-1.646m-52.934 16.402c-2.668-1.493-4.594-4.687-5.615-6.74a.933.933 0 0 0 -1.676 0c-1.021 2.053-2.947 5.247-5.615 6.74a.935.935 0 0 0 0 1.646c2.668 1.495 4.594 4.688 5.615 6.741a.933.933 0 0 0 1.676 0c1.02-2.053 2.947-5.246 5.615-6.74a.936.936 0 0 0 0-1.647" fill="#ffc431"/><path d="m168.002 118.66h10.602v-5.301h-10.602z" fill="#777" mask="url(#a)"/><path d="m165.768 113.36h15.069v-6.089h-15.069z" fill="#aaa" mask="url(#a)"/><path d="m148 141.597c0-13.94 11.3-25.241 25.24-25.241s25.24 11.3 25.24 25.24-11.3 25.24-25.24 25.24-25.24-11.3-25.24-25.24" fill="#ed6060" mask="url(#a)"/><path d="m155.394 159.476c10.066 10.065 25.837 9.856 35.694-.001 9.857-9.856 10.067-25.628.001-35.694z" fill="#e23b3b" mask="url(#a)"/><path d="m153.848 141.597c0-10.71 8.682-19.393 19.392-19.393s19.392 8.683 19.392 19.393-8.682 19.392-19.392 19.392-19.392-8.682-19.392-19.392" fill="#fff" mask="url(#a)"/><g stroke="#777" stroke-linecap="round" stroke-linejoin="round"><path d="m148 141.241c0-13.94 11.3-25.241 25.24-25.241s25.24 11.301 25.24 25.241c0 13.939-11.3 25.24-25.24 25.24s-25.24-11.301-25.24-25.24z" mask="url(#a)" stroke-width="1.644"/><path d="m175.5 128.568v-4" mask="url(#a)"/><path d="m182.821 132.334 1.367-1.368m-.763 20.444 1.367 1.366m-21.082-20.442-1.368-1.368m.765 20.444-1.368 1.366" mask="url(#a)" stroke-width="1.45"/><path d="m175.5 136.568v6.5h5.5" mask="url(#a)"/></g><path d="m160.352 149.828c-.863-.483-1.486-1.517-1.816-2.18a.303.303 0 0 0 -.542 0c-.33.663-.954 1.697-1.817 2.18a.302.302 0 0 0 0 .532c.863.484 1.486 1.517 1.817 2.181a.302.302 0 0 0 .542 0c.33-.664.953-1.697 1.816-2.18a.303.303 0 0 0 0-.533" fill="#fff" mask="url(#a)"/><path d="m79.006 123.755-8.962-5.663 2.831-4.48 8.963 5.663z" fill="#777" mask="url(#a)"/><path d="m86.978 115.32-12.738-8.05-3.252 5.148 12.739 8.05z" fill="#aaa" mask="url(#a)"/><path d="m40.882 126.796c7.447-11.784 23.036-15.3 34.82-7.854 11.785 7.447 15.3 23.037 7.855 34.821-7.447 11.784-23.036 15.301-34.821 7.853-11.784-7.446-15.3-23.036-7.854-34.82" fill="#ed6060" mask="url(#a)"/><path d="m37.582 145.86c3.133 13.888 16.577 22.136 30.175 19.068 13.598-3.067 22.2-16.288 19.069-30.174z" fill="#e23b3b" mask="url(#a)"/><path d="m45.826 129.92c5.721-9.054 17.698-11.755 26.752-6.034 9.054 5.722 11.755 17.7 6.035 26.753-5.722 9.053-17.699 11.755-26.753 6.034-9.054-5.722-11.755-17.698-6.034-26.753" fill="#fff" mask="url(#a)"/><path d="m40.882 126.796c7.447-11.784 23.036-15.3 34.82-7.854 11.785 7.447 15.3 23.037 7.855 34.821-7.447 11.784-23.036 15.301-34.821 7.853-11.784-7.446-15.3-23.036-7.854-34.82z" mask="url(#a)" stroke="#777" stroke-linecap="round" stroke-linejoin="round" stroke-width="1.644"/><path d="m69.077 129.501 1.033-1.635" mask="url(#a)" stroke="#777" stroke-linecap="round" stroke-linejoin="round" stroke-width="1.934"/><path d="m75.267 137.568 1.886-.426m-11.566 16.874.426 1.886m-6.902-28.543-.425-1.887m-10.274 17.689-1.887.426" mask="url(#a)" stroke="#777" stroke-linecap="round" stroke-linejoin="round" stroke-width="1.45"/><path d="m65.977 134.406-4.65 7.36 7.359 4.65" mask="url(#a)" stroke="#777" stroke-linecap="round" stroke-linejoin="round" stroke-width="1.934"/><path d="m46.927 140.354c-.471-.87-.446-2.075-.371-2.813a.302.302 0 0 0 -.458-.29c-.634.385-1.712.925-2.7.874a.301.301 0 0 0 -.284.449c.47.87.446 2.076.37 2.813a.301.301 0 0 0 .459.29c.633-.385 1.712-.926 2.7-.873.242.013.4-.237.284-.45m85.899-65.434c5.721-9.054 17.698-11.755 26.752-6.034 9.054 5.722 11.755 17.7 6.035 26.753-5.722 9.053-17.699 11.755-26.753 6.034-9.054-5.722-11.755-17.698-6.034-26.753" fill="#fff" mask="url(#a)"/><path d="m133.927 85.354c-.471-.87-.446-2.075-.371-2.813a.302.302 0 0 0 -.458-.29c-.634.385-1.712.925-2.7.874a.301.301 0 0 0 -.284.449c.47.87.446 2.076.37 2.813a.301.301 0 0 0 .459.29c.633-.385 1.712-.926 2.7-.873.242.013.4-.237.284-.45" fill="#fff" mask="url(#a)"/><path d="m215.006 206.755-8.962-5.663 2.831-4.48 8.963 5.663z" fill="#777" mask="url(#a)"/><path d="m222.978 198.32-12.739-8.05-3.251 5.148 12.738 8.05z" fill="#aaa" mask="url(#a)"/><path d="m176.882 209.796c7.447-11.784 23.036-15.3 34.82-7.854 11.785 7.447 15.3 23.037 7.855 34.821-7.447 11.784-23.036 15.301-34.821 7.853-11.784-7.446-15.3-23.036-7.854-34.82" fill="#ed6060" mask="url(#a)"/><path d="m173.582 228.86c3.133 13.888 16.577 22.136 30.175 19.068 13.598-3.067 22.2-16.288 19.069-30.174l-49.244 11.107z" fill="#e23b3b" mask="url(#a)"/><path d="m181.826 212.92c5.721-9.054 17.698-11.755 26.752-6.034 9.054 5.722 11.755 17.7 6.035 26.753-5.722 9.053-17.699 11.755-26.753 6.034-9.054-5.722-11.755-17.698-6.034-26.753" fill="#fff" mask="url(#a)"/><path d="m176.882 209.796c7.447-11.784 23.036-15.3 34.82-7.854 11.785 7.447 15.3 23.037 7.855 34.821-7.447 11.784-23.036 15.301-34.821 7.853-11.784-7.446-15.3-23.036-7.854-34.82z" mask="url(#a)" stroke="#777" stroke-linecap="round" stroke-linejoin="round" stroke-width="1.644"/><path d="m205.077 212.501 1.033-1.635" mask="url(#a)" stroke="#777" stroke-linecap="round" stroke-linejoin="round" stroke-width="1.934"/><path d="m211.267 220.568 1.886-.426m-11.566 16.874.426 1.886m-6.902-28.543-.425-1.887m-10.274 17.689-1.887.426" mask="url(#a)" stroke="#777" stroke-linecap="round" stroke-linejoin="round" stroke-width="1.45"/><path d="m201.977 217.406-4.65 7.36 7.359 4.65" mask="url(#a)" stroke="#777" stroke-linecap="round" stroke-linejoin="round" stroke-width="1.934"/><path d="m182.927 223.354c-.471-.87-.446-2.075-.371-2.813a.302.302 0 0 0 -.458-.29c-.634.385-1.712.925-2.7.874a.301.301 0 0 0 -.284.449c.47.87.446 2.076.37 2.813a.301.301 0 0 0 .459.29c.633-.385 1.712-.926 2.7-.873.242.013.4-.237.284-.45m-75.97-70.061c-.948-.282-1.783-1.152-2.251-1.728a.302.302 0 0 0 -.53.12c-.175.72-.555 1.865-1.291 2.526a.303.303 0 0 0 .116.52c.948.281 1.783 1.152 2.251 1.727.16.195.47.125.53-.119.175-.72.556-1.865 1.291-2.527a.302.302 0 0 0 -.116-.519" fill="#fff" mask="url(#a)"/><path d="m103.903 55.872-10.342 2.333-1.166-5.17 10.341-2.334z" fill="#777" mask="url(#a)"/><path d="m103.576 44.27-14.7 3.316 1.34 5.94 14.7-3.316z" fill="#aaa" mask="url(#a)"/><path d="m79.336 84.98c-3.067-13.598 5.47-27.107 19.068-30.175 13.598-3.067 27.108 5.47 30.176 19.069 3.067 13.598-5.471 27.108-19.07 30.175-13.597 3.068-27.107-5.47-30.174-19.068" fill="#ed6060" mask="url(#a)"/><path d="m90.483 100.795c12.035 7.604 27.374 3.93 34.82-7.854 7.446-11.785 4.18-27.216-7.854-34.82z" fill="#e23b3b" mask="url(#a)"/><path d="m85.041 83.694c-2.356-10.447 4.202-20.827 14.65-23.184 10.447-2.356 20.827 4.204 23.183 14.65 2.357 10.448-4.202 20.828-14.649 23.184-10.448 2.357-20.828-4.202-23.184-14.65" fill="#fff" mask="url(#a)"/><path d="m79.624 84.8c-3.067-13.599 5.47-27.108 19.068-30.176 13.598-3.067 27.108 5.47 30.176 19.069 3.067 13.598-5.471 27.108-19.069 30.175-13.598 3.068-27.108-5.469-30.175-19.068z" mask="url(#a)" stroke="#777" stroke-linecap="round" stroke-linejoin="round" stroke-width="1.644"/><path d="m101.185 66.956-.426-1.887" mask="url(#a)" stroke="#777" stroke-linecap="round" stroke-linejoin="round" stroke-width="1.934"/><path d="m111.266 68.283 1.033-1.635m3.753 20.11 1.635 1.033m-25.063-15.302-1.635-1.034m5.243 19.774-1.033 1.635" mask="url(#a)" stroke="#777" stroke-linecap="round" stroke-linejoin="round" stroke-width="1.45"/><path d="m102.462 72.617 1.916 8.491 8.49-1.915" mask="url(#a)" stroke="#777" stroke-linecap="round" stroke-linejoin="round" stroke-width="1.934"/><path d="m92.957 90.293c-.948-.282-1.783-1.152-2.251-1.728a.302.302 0 0 0 -.53.12c-.175.72-.555 1.865-1.291 2.526a.303.303 0 0 0 .116.52c.948.281 1.783 1.152 2.251 1.727.16.195.47.125.53-.119.175-.72.556-1.865 1.291-2.527a.302.302 0 0 0 -.116-.519m-66.537-13.253c4.596-9.675 16.163-13.792 25.837-9.196 9.674 4.595 13.79 16.163 9.195 25.837-4.595 9.673-16.163 13.79-25.837 9.195-9.674-4.596-13.79-16.163-9.195-25.837" fill="#fff" mask="url(#a)"/><path d="m28.574 87.117c-.572-.808-.691-2.008-.705-2.749a.302.302 0 0 0 -.49-.232c-.583.458-1.59 1.124-2.576 1.19a.302.302 0 0 0 -.228.48c.572.807.69 2.007.705 2.748a.302.302 0 0 0 .489.234c.584-.459 1.59-1.124 2.576-1.19a.302.302 0 0 0 .229-.48m228.131 143.107c-.832-.536-1.39-1.605-1.678-2.288a.301.301 0 0 0 -.541-.034c-.371.642-1.056 1.635-1.948 2.064a.302.302 0 0 0 -.033.53c.832.537 1.389 1.607 1.678 2.29a.302.302 0 0 0 .54.033c.372-.642 1.058-1.635 1.949-2.064a.302.302 0 0 0 .033-.531" fill="#fff" mask="url(#a)"/></g><path d="m310.189 206 .274 37.786c-.146 2.306-1.741 4.223-3.904 4.241l-31.264.266c-2.162.019-3.773-1.87-3.975-4.174l-.32-37.786z" fill="#ed6060"/><path d="m277.066 206.838 3.205-.027.262 30.853c.02 2.386-3.185 2.412-3.205.028zm19.254-.164 3.205-.027.258 30.38c.02 2.387-3.186 2.414-3.206.029l-.258-30.382zm-9.627.082 3.205-.027.258 30.38c.02 2.386-3.185 2.414-3.205.028z" fill="#e23b3b"/><path d="m304.943 205.628.243 32.758c-.125 2.305-1.513 4.61-3.404 4.627l-27.326.23c-1.89.018-4.287-2.965-4.306-5.27l-.068-7.911.113 13.33c.02 2.305 2.634 4.423 4.796 4.404l31.264-.266c2.163-.018 3.758-1.894 3.904-4.2l-.274-37.744z" fill="#dd3636"/><path d="m286.873 199.478 6.68-.057c.008-.103.012-.208.012-.314-.016-1.871-1.539-3.39-3.383-3.373-1.845.016-3.341 1.558-3.325 3.43 0 .106.007.21.017.315m-14.951.127 12.336-.105a5.46 5.46 0 0 1 -.011-.315c-.028-3.326 2.632-6.07 5.912-6.098s5.985 2.67 6.014 5.996c.001.106 0 .21-.006.316l12.338-.105c2.46-.021 4.696 2.018 4.512 4.497l-.168 2.27-45.134.383-.227-2.266c-.248-2.481 1.974-4.553 4.434-4.573" fill="#636363"/><path d="m309.886 205.6.269 37.12c0 .222-.002.443-.03.662-.27 2.156-1.813 3.894-3.872 3.91l-31.263.267c-1.947.017-3.446-1.512-3.874-3.497a5.538 5.538 0 0 1 -.105-1.113l-.314-37.016z" stroke="#777" stroke-linecap="round" stroke-linejoin="round" stroke-width="2.383"/><path d="m312.962 204.467.026 3.064-45.413.386-.026-3.064z" fill="#d1d1d1"/><path d="m203.285 58.809 6.831 37.164c.257 2.297-.98 4.461-3.108 4.855l-30.743 5.69c-2.125.395-4.04-1.186-4.639-3.42l-6.877-37.156z" fill="#ed6060"/><path d="m170.81 65.386 3.152-.583 5.616 30.339c.435 2.346-2.718 2.928-3.151.584l-5.616-30.34zm18.933-3.506 3.153-.582 5.53 29.874c.433 2.347-2.72 2.93-3.153.585l-5.53-29.876zm-9.466 1.753 3.152-.583 5.53 29.875c.433 2.345-2.718 2.93-3.152.583z" fill="#e23b3b"/><path d="m198.054 59.353 5.928 32.219c.277 2.291-.69 4.802-2.549 5.147l-26.87 4.973c-1.86.345-4.738-2.177-5.157-4.443l-1.44-7.78 2.426 13.109c.42 2.266 3.362 3.898 5.488 3.504l30.742-5.691c2.127-.393 3.372-2.518 3.116-4.813l-6.824-37.124-4.86.9z" fill="#dd3636"/><path d="m179.191 56.435 6.569-1.216a4.106 4.106 0 0 0 -.043-.312c-.34-1.84-2.104-3.07-3.917-2.735h-.001c-1.814.337-3.02 2.115-2.679 3.956.02.104.044.207.071.307m-14.701 2.721 12.13-2.245a5.46 5.46 0 0 1 -.066-.308c-.605-3.271 1.538-6.435 4.764-7.032 3.225-.597 6.358 1.59 6.965 4.86.019.104.035.208.048.312l12.133-2.246c2.419-.447 4.974 1.173 5.223 3.646l.229 2.264-44.382 8.215-.617-2.192c-.675-2.4 1.153-4.827 3.573-5.274" fill="#636363"/><path d="m202.917 58.467 6.71 36.51c.04.218.076.436.087.657.109 2.17-1.11 4.15-3.135 4.524l-30.742 5.69c-1.914.355-3.656-.89-4.422-2.77a5.538 5.538 0 0 1 -.297-1.079l-6.737-36.399z" stroke="#777" stroke-linecap="round" stroke-linejoin="round" stroke-width="2.383"/><path d="m205.75 56.817.558 3.013-44.656 8.266-.558-3.013z" fill="#d1d1d1"/><path d="m162.285 124.809 6.831 37.164c.257 2.297-.98 4.461-3.108 4.855l-30.743 5.69c-2.125.395-4.04-1.186-4.639-3.42l-6.877-37.156z" fill="#ed6060"/><path d="m129.81 131.386 3.152-.583 5.616 30.339c.435 2.346-2.718 2.928-3.151.584l-5.616-30.34zm18.933-3.506 3.153-.582 5.53 29.874c.433 2.347-2.72 2.93-3.153.585l-5.53-29.876zm-9.466 1.753 3.152-.583 5.53 29.875c.433 2.345-2.718 2.93-3.152.583z" fill="#e23b3b"/><path d="m157.054 125.353 5.928 32.219c.277 2.291-.69 4.802-2.549 5.147l-26.87 4.973c-1.86.345-4.738-2.177-5.157-4.443l-1.44-7.78 2.426 13.109c.42 2.266 3.362 3.898 5.488 3.504l30.742-5.691c2.127-.393 3.372-2.518 3.116-4.813l-6.824-37.124-4.86.9z" fill="#dd3636"/><path d="m138.191 122.435 6.569-1.216a4.106 4.106 0 0 0 -.043-.312c-.34-1.84-2.104-3.07-3.917-2.735h-.001c-1.814.337-3.02 2.115-2.679 3.956.02.104.044.207.071.307m-14.701 2.721 12.13-2.245a5.46 5.46 0 0 1 -.066-.308c-.605-3.271 1.538-6.435 4.764-7.032 3.225-.597 6.358 1.59 6.965 4.86.019.104.035.208.048.312l12.133-2.246c2.419-.447 4.974 1.173 5.223 3.646l.229 2.264-44.382 8.215-.617-2.192c-.675-2.4 1.153-4.827 3.573-5.274" fill="#636363"/><path d="m161.917 124.467 6.71 36.51c.04.218.076.436.087.657.109 2.17-1.11 4.15-3.135 4.524l-30.742 5.69c-1.914.355-3.656-.89-4.422-2.77a5.538 5.538 0 0 1 -.297-1.079l-6.737-36.399z" stroke="#777" stroke-linecap="round" stroke-linejoin="round" stroke-width="2.383"/><path d="m164.75 122.817.558 3.013-44.656 8.266-.558-3.013z" fill="#d1d1d1"/><path d="m97.69 72.032-6.942 37.144c-.583 2.236-2.514 3.814-4.641 3.419l-30.74-5.705c-2.126-.394-3.347-2.555-3.106-4.855l6.896-37.153 38.532 7.15z" fill="#ed6060"/><path d="m65.015 66.535 3.151.585-5.63 30.336c-.434 2.346-3.586 1.76-3.151-.584zm18.931 3.512 3.152.586-5.544 29.872c-.435 2.346-3.587 1.76-3.152-.585zm-9.466-1.756 3.152.585-5.544 29.872c-.435 2.345-3.587 1.761-3.151-.585l5.544-29.872z" fill="#e23b3b"/><path d="m92.61 70.666-6.01 32.204c-.563 2.238-2.365 4.236-4.225 3.892l-26.868-4.987c-1.858-.344-3.642-3.73-3.22-5.996l1.44-7.779-2.433 13.107c-.42 2.267 1.742 4.844 3.868 5.238l30.74 5.705c2.127.395 4.05-1.142 4.634-3.377l6.933-37.104-4.86-.902z" fill="#dd3636"/><path d="m76.047 61.182 6.568 1.219c.027-.101.051-.203.072-.307.341-1.84-.864-3.62-2.678-3.957-1.815-.336-3.577.892-3.919 2.732-.02.105-.033.209-.043.313m-14.7-2.728 12.128 2.25a5.46 5.46 0 0 1 .05-.31c.607-3.271 3.742-5.457 6.967-4.859 3.225.599 5.366 3.763 4.76 7.034-.02.104-.041.207-.066.309l12.131 2.251c2.42.449 4.224 2.877 3.57 5.275l-.598 2.196-44.378-8.236.21-2.267c.23-2.483 2.806-4.093 5.225-3.643" fill="#636363"/><path d="m97.468 71.582-6.818 36.488a5.213 5.213 0 0 1 -.154.644c-.677 2.065-2.524 3.476-4.549 3.1l-30.739-5.704c-1.914-.355-3.094-2.142-3.136-4.172a5.538 5.538 0 0 1 .11-1.112l6.755-36.396 38.532 7.15z" stroke="#777" stroke-linecap="round" stroke-linejoin="round" stroke-width="2.383"/><path d="m100.704 71.057-.559 3.012-44.652-8.286.56-3.013z" fill="#d1d1d1"/><path d="m114 222.568-24.528 26h108.528l-28-26z" fill="#caf5ff"/><path d="m113.765 222.568h27.735l-26.75 26.09h-25.745z" fill="#46c4d1" opacity=".805"/><path d="m114 222.568h55.5v-27h-55.5z" fill="#caf5ff"/><path d="m141.496 222.568h27.504v-27z" fill="#46c4d1" opacity=".805"/><g fill-opacity=".5"><path d="m30 141.568h224v-53h-224z" fill="#caf5ff"/><path d="m143 89.568v52h55zm-112 0v52h54.992z" fill="#46c4d1"/><path d="m142 88.568h-112l55.992 53 .008-.01.008.01zm111 53h-110l55 54.5-1-1.51 1 1.51zm-110 0h-112l57 54zm111-53h-112l55.992 53 .008-.01.008.01z" fill="#90edfc"/><path d="m88 195.568h110l-55-54z" fill="#caf5ff"/></g><path d="m169 195.568h-55l27.496 27h.008z" fill="#90edfc"/><path d="m114 248.568h55l-27.496-26.014-.004.01-.004-.013z" fill="#90edfc"/><path d="m88 195.568-2.008-54h57.008zm110 .5-.008-54.5h57.008z" fill="#46c4d1" fill-opacity=".5"/></g></svg>