<svg height="250" viewBox="0 0 350 250" width="350" xmlns="http://www.w3.org/2000/svg" xmlns:xlink="http://www.w3.org/1999/xlink"><defs><path id="a" d="m9.27.623c.405-.83 1.055-.83 1.46 0l2.58 5.295 5.824.797c.934.128 1.145.753.473 1.402l-4.251 4.065 1.043 5.793c.16.908-.382 1.28-1.208.841l-5.191-2.764-5.19 2.764c-.827.438-1.368.067-1.209-.841l1.043-5.793-4.25-4.065c-.673-.649-.462-1.274.472-1.402l5.823-.797 2.582-5.295z"/><path id="b" d="m9.27.623c.405-.83 1.055-.83 1.46 0l2.58 5.295 5.824.797c.934.128 1.145.753.473 1.402l-4.251 4.065 1.043 5.793c.16.908-.382 1.28-1.208.841l-5.191-2.764-5.19 2.764c-.827.438-1.368.067-1.209-.841l1.043-5.793-4.25-4.065c-.673-.649-.462-1.274.472-1.402l5.823-.797 2.582-5.295z"/><path id="c" d="m28.106 8.108c.404-.83 1.054-.83 1.458 0l2.581 5.295 5.824.798c.934.127 1.145.753.473 1.401l-4.251 4.065 1.043 5.793c.16.909-.382 1.28-1.208.842l-5.191-2.764-5.19 2.764c-.827.438-1.368.067-1.209-.842l1.043-5.793-4.25-4.065c-.673-.648-.462-1.274.472-1.401l5.823-.798z"/><path id="d" d="m9.27.623c.405-.83 1.055-.83 1.46 0l2.58 5.295 5.824.797c.934.128 1.145.753.473 1.402l-4.251 4.065 1.043 5.793c.16.908-.382 1.28-1.208.841l-5.191-2.764-5.19 2.764c-.827.438-1.368.067-1.209-.841l1.043-5.793-4.25-4.065c-.673-.649-.462-1.274.472-1.402l5.823-.797 2.582-5.295z"/><mask id="e" fill="#fff"><use fill="#fff" fill-rule="evenodd" xlink:href="#a"/></mask><mask id="f" fill="#fff"><use fill="#fff" fill-rule="evenodd" xlink:href="#b"/></mask><mask id="g" fill="#fff"><use fill="#fff" fill-rule="evenodd" xlink:href="#c"/></mask><mask id="h" fill="#fff"><use fill="#fff" fill-rule="evenodd" xlink:href="#d"/></mask></defs><g fill="none" fill-rule="evenodd"><path d="m73.161 49.302c15.001-2.376 29.088 7.857 31.464 22.86 2.376 15.002-7.859 29.087-22.86 31.463-15 2.376-29.087-7.858-31.463-22.86s7.859-29.087 22.86-31.463" fill="#da5474"/><path d="m59.364 96.964c5.995 5.299 14.257 7.95 22.854 6.59 8.597-1.362 15.636-6.438 19.7-13.33z" fill="#c24f6d"/><path d="m78.2 64.127-.688.925 8.89 5.355c.009-.475.07-.877.18-1.236l-8.383-5.044zm1.422-2.855c-.022.39-.117.839-.268 1.205l7.739 5.71a2.14 2.14 0 0 1 1.024-.636z" fill="#2f424f"/><path d="m79.749 62.016-7.984 9.781-2.295-1.99a4.682 4.682 0 0 0 -3.448-1.125l8.399-10.354c1.117-1.377 3.236-1.667 4.685-.656.625.453 1.038 1.03 1.189 1.69.28.898.066 1.874-.546 2.654" fill="#fffffe"/><path d="m76.687 77.42c-.13.021-6.132 3.405-6.198 6.645l-7.763-7.175a4.53 4.53 0 0 1 -.253-6.371c1.714-1.816 4.588-1.92 6.414-.22l7.8 7.122" fill="#2f424f"/><path d="m68.263 94.549.155.98 20.824-3.297-.156-.981c-.147-.934-1.012-1.619-1.967-1.467l-17.44 2.762c-.946.198-1.564 1.07-1.416 2.003" fill="#fffffe"/><path d="m69.695 91.87.104.657 17.201-2.725-.104-.656c-.104-.653-.797-1.057-1.587-.932l-14.394 2.28c-.79.125-1.319.76-1.221 1.376" fill="#2f424f"/><path d="m76.249 77.584c-3.724.59-6.304 4.148-5.713 7.88l.787 4.965 13.58-2.15-.786-4.965c-.591-3.733-4.144-6.32-7.868-5.73" fill="#fffffe"/><path d="m77.11 83.016a1.375 1.375 0 1 1 .43 2.716 1.375 1.375 0 0 1 -.43-2.716m-11.968-11.098a2.29 2.29 0 0 1 2.622 1.903 2.293 2.293 0 0 1 -1.905 2.624 2.293 2.293 0 0 1 -2.622-1.907 2.29 2.29 0 0 1 1.905-2.62m10.502-12.8a1.834 1.834 0 1 1 .573 3.623 1.834 1.834 0 0 1 -.573-3.623" fill="#da5474"/><path d="m92.344 76.662c.153.966.195 2.068.078 3l-1.035.165-.325-2.05c.363-.218.573-.57.512-.955-.08-.503-.622-.854-1.182-.765s-.967.59-.888 1.093c.061.385.376.696.782.749l.325 2.05-1.035.164c-.406-.888-.7-1.911-.853-2.877-.104-.659-.141-1.17-.08-1.615l3.234-.512c.197.405.369.931.467 1.553" fill="#2f424f"/><path d="m93.251 74.89c.223-1.305.22-2.83.01-4.157-.504-3.183-2.092-3.865-3.817-3.592-1.77.28-3.024 1.413-2.52 4.596.21 1.327.679 2.778 1.294 3.951l5.033-.797" fill="#fffffe"/><path d="m89.279 69.023c.5-.079.97.265 1.048.765.08.5-.262.967-.762 1.046a.915.915 0 1 1 -.286-1.81" fill="#da5474"/><path d="m164.35 28.002-51.35 16.685 21.631 66.574 37.21-12.09-.588-11.941 10.213-6.551z" fill="#fcde94"/><path d="m181.466 80.679-9.624 18.491-18.978 6.167-21.631-66.574 33.117-10.76z" fill="#f9d073"/><path d="m167.326 85.273 4.516 13.897 9.624-18.491z" fill="#a3a4a0"/><path d="m167.674 68.618-23.07 7.496a1.166 1.166 0 0 1 -1.474-.736 1.166 1.166 0 0 1 .76-1.46l23.07-7.497c.617-.2 1.277.131 1.473.736a1.165 1.165 0 0 1 -.76 1.461m3.748 11.534-23.07 7.496a1.166 1.166 0 0 1 -1.473-.736 1.166 1.166 0 0 1 .759-1.46l23.07-7.497c.618-.2 1.277.131 1.474.736a1.165 1.165 0 0 1 -.76 1.461m-39.247-1.214c-.53-1.63.386-3.388 2.045-3.927 1.658-.539 3.431.345 3.961 1.976.53 1.63-.385 3.388-2.043 3.927-1.66.539-3.433-.345-3.963-1.976m3.748 11.534c-.53-1.63.386-3.388 2.044-3.927s3.432.345 3.962 1.976c.53 1.63-.386 3.388-2.044 3.927s-3.432-.345-3.962-1.976" fill="#32b3d9"/><path d="m144.284 118.226-50.062-20.226-26.222 64.903 36.277 14.657 7.224-9.526 12.034 1.546z" fill="#fcde94"/><path d="m123.535 169.58-19.258 7.98-18.502-7.475 26.223-64.903 32.286 13.044z" fill="#f9d073"/><path d="m109.75 164.011-5.473 13.549 19.258-7.98-13.784-5.569" fill="#a3a4a0"/><path d="m120.722 151.476-22.491-9.087a1.166 1.166 0 0 1 -.656-1.51c.239-.59.921-.874 1.521-.632l22.492 9.087c.602.243.894.921.655 1.51-.238.59-.919.875-1.52.632m-4.543 11.244-22.492-9.087a1.166 1.166 0 0 1 -.656-1.51c.238-.59.921-.874 1.521-.632l22.492 9.088c.602.243.894.92.655 1.51-.238.59-.919.875-1.52.631m-29.286-26.157c.643-1.59 2.474-2.348 4.091-1.694 1.617.653 2.407 2.47 1.765 4.06-.643 1.59-2.474 2.347-4.09 1.694-1.617-.653-2.408-2.47-1.766-4.06m-4.543 11.244c.643-1.59 2.474-2.347 4.091-1.694 1.616.653 2.407 2.47 1.765 4.06-.643 1.59-2.474 2.348-4.09 1.695-1.617-.654-2.408-2.47-1.766-4.06" fill="#32b3d9"/><g transform="matrix(.95105652 -.30901699 .30901699 .95105652 132.999882 47.180209)"><use fill="#50b7e8" fill-rule="nonzero" xlink:href="#a"/><g fill="#72c9e9"><path d="m9.878-.356h10.366v19.712h-10.366z" mask="url(#e)"/><path d="m9.878-1.188v10.213l3.78-3.325z" mask="url(#e)"/></g></g><g transform="matrix(.92718385 .37460659 -.37460659 .92718385 105.117357 110.000081)"><use fill="#50b7e8" fill-rule="nonzero" xlink:href="#b"/><g fill="#72c9e9"><path d="m9.878-.356h10.366v19.712h-10.366z" mask="url(#f)"/><path d="m9.878-1.188v10.213l3.78-3.325z" mask="url(#f)"/></g></g><path d="m221.35 101.002-51.35 16.685 21.631 66.574 37.21-12.09-.588-11.941 10.213-6.551z" fill="#fcde94"/><path d="m238.466 153.679-9.624 18.491-18.978 6.167-21.631-66.574 33.117-10.76z" fill="#f9d073"/><path d="m224.326 158.273 4.516 13.897 9.624-18.491z" fill="#a3a4a0"/><path d="m224.674 141.618-23.07 7.496a1.166 1.166 0 0 1 -1.474-.736 1.166 1.166 0 0 1 .76-1.46l23.07-7.497c.617-.2 1.277.131 1.473.736a1.165 1.165 0 0 1 -.76 1.461m3.748 11.534-23.07 7.496a1.166 1.166 0 0 1 -1.473-.736 1.166 1.166 0 0 1 .759-1.46l23.07-7.497c.618-.2 1.277.131 1.474.736a1.165 1.165 0 0 1 -.76 1.461m-39.247-1.214c-.53-1.63.386-3.388 2.045-3.927 1.658-.539 3.431.345 3.961 1.976.53 1.63-.385 3.388-2.043 3.927-1.66.539-3.433-.345-3.963-1.976m3.748 11.534c-.53-1.63.386-3.388 2.044-3.927s3.432.345 3.962 1.976c.53 1.63-.386 3.388-2.044 3.927s-3.432-.345-3.962-1.976" fill="#32b3d9"/><g transform="matrix(.51503807 .8571673 -.8571673 .51503807 292.00197 167.000265)"><path d="m53.993 0h-53.993v70h39.126l3.13-11.538 11.737-3.075z" fill="#fcde94"/><path d="m53.993 55.388-14.867 14.612h-19.956v-70h34.822v55.388" fill="#f9d073"/><path d="m39.126 55.388v14.612l14.867-14.612z" fill="#a3a4a0"/><path d="m44.603 39.655h-24.258c-.647 0-1.174-.52-1.174-1.155 0-.636.527-1.155 1.174-1.155h24.258c.649 0 1.174.52 1.174 1.155 0 .636-.525 1.155-1.174 1.155m0 12.127h-24.258c-.647 0-1.174-.519-1.174-1.154 0-.636.527-1.156 1.174-1.156h24.258c.649 0 1.174.52 1.174 1.155 0 .636-.525 1.155-1.174 1.155m-36.952-13.282c0-1.715 1.414-3.103 3.158-3.103s3.157 1.388 3.157 3.103-1.413 3.103-3.157 3.103-3.158-1.388-3.158-3.103m0 12.127c0-1.715 1.414-3.103 3.158-3.103s3.157 1.389 3.157 3.103c0 1.715-1.413 3.104-3.157 3.104s-3.158-1.389-3.158-3.104" fill="#32b3d9"/><use fill="#50b7e8" fill-rule="nonzero" xlink:href="#c"/><path d="m28.713 7.129h10.366v19.712h-10.366z" fill="#72c9e9" mask="url(#g)"/></g><g transform="matrix(.95105652 -.30901699 .30901699 .95105652 189.999899 118.18015)"><use fill="#50b7e8" fill-rule="nonzero" xlink:href="#d"/><g fill="#72c9e9"><path d="m9.878-.356h10.366v19.712h-10.366z" mask="url(#h)"/><path d="m9.878-1.188v10.213l3.78-3.325z" mask="url(#h)"/></g></g><path d="m165 131c13.807 0 25 11.192 25 25s-11.193 25-25 25-25-11.192-25-25 11.193-25 25-25" fill="#da5474"/><path d="m145.833 171.833c4.63 5.61 11.671 9.167 19.584 9.167 7.912 0 14.954-3.556 19.583-9.167z" fill="#c24f6d"/><path d="m167.415 145.028-.748.732 7.22 6.073c.076-.425.188-.777.337-1.084zm1.683-2.361a3.528 3.528 0 0 1 -.411 1.043l6.136 6.229c.3-.234.636-.39 1.01-.426z" fill="#2f424f"/><path d="m169.106 143.353-8.56 7.647-1.777-2.114a4.256 4.256 0 0 0 -2.936-1.5l9.014-8.102c1.2-1.078 3.143-1.037 4.3.077.497.496.786 1.073.827 1.687.125.846-.206 1.691-.868 2.305" fill="#fffffe"/><path d="m164.167 156.75c-.12 0-5.99 2.184-6.51 5.083l-5.95-7.546a4.118 4.118 0 0 1 .678-5.757c1.798-1.386 4.394-1.071 5.791.715l5.99 7.504" fill="#2f424f"/><path d="m154.167 170.93v.903h19.166v-.902c0-.86-.679-1.598-1.557-1.598h-16.052c-.879.044-1.557.738-1.557 1.598" fill="#fffffe"/><path d="m155.833 168.729v.604h15.834v-.604c0-.6-.566-1.062-1.293-1.062h-13.248c-.727 0-1.293.495-1.293 1.062" fill="#2f424f"/><path d="m163.75 156.833c-3.427 0-6.25 2.828-6.25 6.264v4.57h12.5v-4.57c0-3.436-2.822-6.264-6.25-6.264" fill="#fffffe"/><path d="m163.75 161.833a1.25 1.25 0 1 1 0 2.5 1.25 1.25 0 0 1 0-2.5m-9.167-11.666c1.15 0 2.084.93 2.084 2.081a2.085 2.085 0 0 1 -2.084 2.085 2.085 2.085 0 0 1 -2.083-2.085c0-1.15.933-2.081 2.083-2.081m11.25-10a1.667 1.667 0 1 1 -.001 3.335 1.667 1.667 0 0 1 .001-3.335" fill="#da5474"/><path d="m178.333 158.295c0 .89-.119 1.884-.357 2.705h-.953v-1.887c.357-.144.596-.43.596-.784 0-.463-.437-.855-.953-.855s-.952.392-.952.855c0 .354.238.678.595.784v1.887h-.952a10.362 10.362 0 0 1 -.357-2.705c0-.606.04-1.07.158-1.462h2.977c.119.392.198.89.198 1.462" fill="#2f424f"/><path d="m179.4 156.833c.385-1.14.6-2.51.6-3.732 0-2.93-1.33-3.768-2.916-3.768-1.63 0-2.917.839-2.917 3.768 0 1.222.214 2.592.6 3.732h4.632" fill="#fffffe"/><path d="m176.667 151c.46 0 .833.375.833.835a.832.832 0 1 1 -.833-.835" fill="#da5474"/><path d="m231.081 47.77c13.554 2.635 22.405 15.756 19.77 29.311-2.634 13.555-15.757 22.405-29.31 19.77-13.554-2.634-22.406-15.756-19.77-29.31 2.634-13.555 15.757-22.405 29.31-19.77" fill="#da5474"/><path d="m204.475 84.196c3.474 6.39 9.708 11.225 17.475 12.735s15.358-.637 20.972-5.261z" fill="#c24f6d"/><path d="m230.775 62.001-.874.576 5.93 7.34c.154-.404.331-.728.537-1l-5.593-6.917zm2.103-1.996c-.14.327-.36.68-.603.945l4.835 7.285c.339-.172.699-.26 1.073-.225z" fill="#2f424f"/><path d="m232.755 60.68-9.861 5.873-1.342-2.414a4.256 4.256 0 0 0 -2.596-2.033l10.395-6.233c1.382-.83 3.282-.418 4.206.896.393.581.566 1.203.49 1.814-.04.854-.526 1.62-1.292 2.097" fill="#fffffe"/><path d="m225.35 72.887c-.118-.023-6.297 1.002-7.36 3.749l-4.401-8.543a4.118 4.118 0 0 1 1.764-5.521c2.029-1.019 4.517-.214 5.549 1.806l4.448 8.51" fill="#2f424f"/><path d="m212.828 84.9-.173.886 18.815 3.657.172-.886c.164-.843-.362-1.697-1.224-1.865l-15.757-3.063c-.87-.125-1.67.427-1.833 1.271" fill="#fffffe"/><path d="m214.884 83.057-.115.593 15.542 3.021.115-.593c.115-.59-.352-1.15-1.066-1.29l-13.005-2.527c-.713-.139-1.363.24-1.471.796" fill="#2f424f"/><path d="m224.925 72.89c-3.364-.654-6.675 1.584-7.33 4.957l-.872 4.485 12.27 2.385.872-4.485c.655-3.373-1.576-6.688-4.94-7.342" fill="#fffffe"/><path d="m223.97 77.799a1.25 1.25 0 1 1 -.476 2.453 1.25 1.25 0 0 1 .477-2.453m-6.772-13.202a2.081 2.081 0 0 1 1.648 2.44 2.085 2.085 0 0 1 -2.443 1.65 2.085 2.085 0 0 1 -1.648-2.444 2.081 2.081 0 0 1 2.443-1.646m12.951-7.67a1.667 1.667 0 1 1 -.638 3.274 1.667 1.667 0 0 1 .638-3.274" fill="#da5474"/><path d="m238.961 77.108c-.17.873-.476 1.826-.867 2.587l-.935-.182.36-1.853c.378-.072.667-.308.734-.655.089-.455-.265-.923-.771-1.021-.507-.099-1.01.203-1.098.657a.824.824 0 0 0 .434.883l-.36 1.853-.934-.182c-.071-.885-.004-1.85.165-2.723.116-.596.243-1.043.435-1.405l2.921.568c.043.408.026.91-.084 1.473" fill="#2f424f"/><path d="m240.287 75.876a12.17 12.17 0 0 0 1.301-3.548c.56-2.876-.586-3.953-2.143-4.256-1.6-.31-3.024.267-3.583 3.143a12.17 12.17 0 0 0 -.122 3.778z" fill="#fffffe"/><path d="m238.717 69.629a.835.835 0 0 1 .659.979.832.832 0 1 1 -.658-.979" fill="#da5474"/><path d="m124 222.568-24.528 26h108.528l-28-26z" fill="#caf5ff"/><path d="m126.5 220.568h27l-29 28h-24.5z" fill="#46c4d1" opacity=".805"/><path d="m124 222.568h55.5v-27h-55.5z" fill="#caf5ff"/><path d="m151.496 222.568h27.504v-27z" fill="#46c4d1" opacity=".805"/><g fill-opacity=".5"><path d="m40 141.568h224v-53h-224z" fill="#caf5ff"/><path d="m153 89.568v52h55zm-112 0v52h54.992z" fill="#46c4d1"/><path d="m152 88.568h-112l55.992 53 .008-.01.008.01zm111 53h-110l55 54.5-1-1.51 1 1.51zm-110 0h-112l57 54zm111-53h-112l55.992 53 .008-.01.008.01z" fill="#90edfc"/><path d="m98 195.568h110l-55-54z" fill="#caf5ff"/></g><path d="m179 195.568h-55l27.496 27h.008z" fill="#90edfc"/><path d="m124 248.568h55l-27.496-26.014-.004.01-.004-.013z" fill="#90edfc"/><path d="m98 195.568-2.008-54h57.008zm110 .5-.008-54.5h57.008z" fill="#46c4d1" fill-opacity=".5"/><path d="m287.506 61.186a.918.918 0 0 1 0 1.628c-2.69 1.478-4.632 4.637-5.66 6.67a.95.95 0 0 1 -1.69 0c-1.03-2.033-2.971-5.192-5.66-6.67a.917.917 0 0 1 0-1.628c2.689-1.479 4.63-4.638 5.66-6.669a.949.949 0 0 1 1.69 0c1.028 2.031 2.97 5.19 5.66 6.669zm-50-40a.918.918 0 0 1 0 1.628c-2.69 1.478-4.632 4.637-5.66 6.67a.95.95 0 0 1 -1.69 0c-1.03-2.033-2.971-5.192-5.66-6.67a.917.917 0 0 1 0-1.628c2.689-1.479 4.63-4.638 5.66-6.669a.949.949 0 0 1 1.69 0c1.028 2.031 2.97 5.19 5.66 6.669zm-59-12a.918.918 0 0 1 0 1.628c-2.69 1.478-4.632 4.637-5.66 6.67a.95.95 0 0 1 -1.69 0c-1.03-2.033-2.971-5.192-5.66-6.67a.917.917 0 0 1 0-1.628c2.689-1.479 4.63-4.638 5.66-6.669a.949.949 0 0 1 1.69 0c1.028 2.031 2.97 5.19 5.66 6.669zm-81 22a.918.918 0 0 1 0 1.628c-2.69 1.478-4.632 4.637-5.66 6.67a.95.95 0 0 1 -1.69 0c-1.03-2.033-2.971-5.192-5.66-6.67a.917.917 0 0 1 0-1.628c2.689-1.479 4.63-4.638 5.66-6.669a.949.949 0 0 1 1.69 0c1.028 2.031 2.97 5.19 5.66 6.669zm-52 10a.918.918 0 0 1 0 1.628c-2.69 1.478-4.632 4.637-5.66 6.67a.95.95 0 0 1 -1.69 0c-1.03-2.033-2.971-5.192-5.66-6.67a.917.917 0 0 1 0-1.628c2.689-1.479 4.63-4.638 5.66-6.669a.949.949 0 0 1 1.69 0c1.028 2.031 2.97 5.19 5.66 6.669z" fill="#ffc431"/></g></svg>