<svg height="250" viewBox="0 0 350 250" width="350" xmlns="http://www.w3.org/2000/svg"><g fill="none" fill-rule="evenodd"><g fill-rule="nonzero"><path d="m87.029 31.91 14.339 50.007c.986 3.44-1.076 7.036-4.618 8.052l-42.953 12.316c-3.541 1.016-7.196-.941-8.182-4.381l-14.34-50.007c-.986-3.44 1.077-7.036 4.618-8.051l42.953-12.317c3.542-1.015 7.196.942 8.183 4.381z" fill="#f49c53"/><path d="m86.22 32.142 14.34 50.007c.986 3.44-1.035 7.024-4.525 8.025l-21.165 6.069-17.904-62.44 21.165-6.069c3.49-1 7.103.968 8.09 4.408z" fill="#f16661"/><path d="m52.421 98.403c-1.168.335-2.385-.328-2.715-1.48l-14.441-50.362c-.33-1.151.35-2.359 1.519-2.694l42.63-12.224c1.168-.335 2.385.329 2.716 1.48l14.44 50.362c.33 1.151-.35 2.359-1.518 2.694l-42.63 12.224z" fill="#f6b72c"/><path d="m79.414 31.643-21.315 6.112 15.638 54.536 21.315-6.112c1.168-.335 1.849-1.543 1.519-2.694l-14.441-50.362c-.33-1.151-1.548-1.815-2.716-1.48z" fill="#f49c53"/><path d="m87.573 77.203 2.005-3.524a2.158 2.158 0 0 0 -.855-2.98 2.276 2.276 0 0 0 -3.046.874l-2.005 3.524-3.567-1.926a2.276 2.276 0 0 0 -3.047.873 2.158 2.158 0 0 0 .854 2.98l3.568 1.927-2.005 3.524a2.158 2.158 0 0 0 .855 2.98 2.276 2.276 0 0 0 3.047-.873l2.004-3.525 3.568 1.927a2.276 2.276 0 0 0 3.047-.874 2.158 2.158 0 0 0 -.855-2.98z" fill="#fff"/><g><path d="m82.075 48.203a2.192 2.192 0 0 1 -3 .86l-.811-.4 2.147 7.487c.995 3.472-1.073 7.098-4.63 8.118l-17.43 4.997c-1.2.345-1.879 1.535-1.543 2.706l2.48 8.645c.335 1.171-.344 2.362-1.544 2.706s-2.407-.306-2.743-1.477l-2.479-8.645c-.995-3.472 1.073-7.097 4.63-8.117l17.43-4.998c1.2-.344 1.879-1.535 1.543-2.706l-2.147-7.488-.475.77a2.192 2.192 0 0 1 -3 .86 2.069 2.069 0 0 1 -.84-2.928l3.087-5.411a2.192 2.192 0 0 1 3-.86l5.485 2.953a2.068 2.068 0 0 1 .84 2.928z" fill="#fff"/><path d="m64.986 26.621-2.529.726c-1.552-2.18-4.599-3.208-7.385-2.41-2.786.8-4.825 3.285-4.987 5.957l-2.528.725c-3.558 1.02-5.626 4.646-4.63 8.118.995 3.472 4.67 5.451 8.228 4.431l17.43-4.998c3.557-1.02 5.625-4.646 4.63-8.118-.996-3.472-4.671-5.45-8.229-4.43z" fill="#ffde3f"/></g><path d="m53.105 54.584 2.004-3.524a2.158 2.158 0 0 0 -.854-2.98 2.276 2.276 0 0 0 -3.047.873l-2.005 3.524-3.567-1.926a2.276 2.276 0 0 0 -3.047.873 2.158 2.158 0 0 0 .855 2.98l3.567 1.927-2.005 3.524a2.158 2.158 0 0 0 .855 2.98 2.276 2.276 0 0 0 3.047-.873l2.004-3.524 3.568 1.926a2.276 2.276 0 0 0 3.047-.874 2.158 2.158 0 0 0 -.855-2.98z" fill="#fff"/><g><path d="m81.688 48.276a2.21 2.21 0 0 1 -3.013.864l-.813-.4 2.144 7.479c.995 3.467-1.086 7.094-4.659 8.118l-8.751 2.51-1.198-4.178 8.751-2.51c1.206-.345 1.889-1.536 1.553-2.706l-2.144-7.478-.478.77a2.21 2.21 0 0 1 -3.013.864 2.058 2.058 0 0 1 -.838-2.925l3.106-5.412a2.21 2.21 0 0 1 3.012-.864l5.502 2.944a2.058 2.058 0 0 1 .84 2.924z" fill="#fff"/><path d="m72.819 31.152c.994 3.467-1.087 7.094-4.66 8.118l-8.751 2.51-4.792-16.712c2.798-.802 5.855.22 7.41 2.397l2.54-.728c3.572-1.025 7.258.947 8.253 4.415z" fill="#f6b72c"/></g><path d="m60.483 91.814c-3.564 1.023-7.277-.982-8.277-4.469s1.087-7.154 4.651-8.177c3.564-1.022 7.277.983 8.277 4.47s-1.086 7.154-4.65 8.176z" fill="#fff"/><path d="m165.262 38.509.908 52.014c.062 3.578-2.86 6.518-6.545 6.582l-44.676.78c-3.684.064-6.708-2.772-6.77-6.35l-.908-52.014c-.063-3.578 2.86-6.518 6.544-6.582l44.677-.78c3.684-.064 6.707 2.772 6.77 6.35z" fill="#f49c53"/><path d="m164.421 38.524.908 52.014c.063 3.577-2.817 6.517-6.447 6.58l-22.015.384-1.134-64.945 22.015-.385c3.63-.063 6.611 2.774 6.673 6.352z" fill="#f16661"/><path d="m114.624 93.779c-1.215.02-2.219-.935-2.24-2.132l-.914-52.384c-.021-1.198.95-2.188 2.164-2.209l44.342-.774c1.215-.021 2.219.935 2.24 2.132l.914 52.384c.021 1.197-.95 2.187-2.164 2.209z" fill="#f6b72c"/><path d="m157.976 36.28-22.171.387.99 56.725 22.17-.387c1.216-.022 2.186-1.012 2.165-2.21l-.914-52.383c-.021-1.197-1.025-2.153-2.24-2.132z" fill="#f49c53"/><path d="m154.065 82.4 2.849-2.885a2.158 2.158 0 0 0 -.054-3.1 2.276 2.276 0 0 0 -3.17.055l-2.848 2.885-2.947-2.784a2.276 2.276 0 0 0 -3.17.055 2.158 2.158 0 0 0 .055 3.1l2.947 2.784-2.848 2.885a2.158 2.158 0 0 0 .054 3.1c.89.842 2.308.817 3.169-.055l2.848-2.885 2.948 2.784c.89.841 2.308.816 3.169-.055a2.158 2.158 0 0 0 -.054-3.1z" fill="#fff"/><g><path d="m156.26 52.964a2.192 2.192 0 0 1 -3.12.055l-.68-.598.136 7.789c.063 3.61-2.873 6.578-6.573 6.643l-18.13.316c-1.248.022-2.212.996-2.19 2.214l.157 8.992c.02 1.218-.943 2.192-2.191 2.214-1.249.022-2.246-.918-2.267-2.136l-.157-8.992c-.063-3.611 2.872-6.578 6.573-6.643l18.129-.316c1.248-.022 2.212-.997 2.19-2.215l-.135-7.788-.658.621a2.192 2.192 0 0 1 -3.12.055 2.069 2.069 0 0 1 -.054-3.046l4.382-4.429a2.192 2.192 0 0 1 3.12-.054l4.535 4.273c.906.81.93 2.203.053 3.045z" fill="#fff"/><path d="m145.34 27.695-2.631.046c-.935-2.508-3.612-4.289-6.51-4.238-2.898.05-5.511 1.924-6.358 4.463l-2.63.046c-3.701.064-6.637 3.031-6.574 6.643.063 3.61 3.1 6.474 6.801 6.41l18.13-.317c3.7-.065 6.635-3.032 6.572-6.643-.063-3.612-3.1-6.474-6.8-6.41z" fill="#ffde3f"/></g><path d="m126.626 51.63 2.848-2.886a2.158 2.158 0 0 0 -.054-3.1 2.276 2.276 0 0 0 -3.17.056l-2.848 2.885-2.947-2.784a2.276 2.276 0 0 0 -3.17.055 2.158 2.158 0 0 0 .055 3.1l2.947 2.784-2.848 2.885a2.158 2.158 0 0 0 .054 3.1c.89.841 2.309.817 3.17-.055l2.848-2.885 2.947 2.784c.89.84 2.309.816 3.17-.056a2.158 2.158 0 0 0 -.055-3.1l-2.947-2.784z" fill="#fff"/><g><path d="m155.867 52.935a2.21 2.21 0 0 1 -3.133.055l-.682-.597.135 7.779c.063 3.606-2.885 6.57-6.601 6.635l-9.103.16-.076-4.346 9.103-.16c1.254-.021 2.222-.995 2.2-2.211l-.135-7.779-.661.62a2.21 2.21 0 0 1 -3.134.055c-.91-.81-.934-2.2-.053-3.042l4.4-4.424a2.21 2.21 0 0 1 3.135-.054l4.552 4.267c.91.81.935 2.2.053 3.042z" fill="#fff"/><path d="m151.732 34.099c.063 3.606-2.885 6.57-6.601 6.635l-9.103.159-.303-17.382c2.91-.05 5.598 1.728 6.537 4.233l2.641-.047c3.716-.064 6.766 2.795 6.83 6.402z" fill="#f6b72c"/></g><path d="m124.117 89.501c-3.708.065-6.776-2.833-6.839-6.46-.063-3.626 2.901-6.629 6.609-6.693 3.708-.065 6.775 2.833 6.838 6.46.064 3.626-2.9 6.629-6.608 6.693z" fill="#fff"/><path d="m192.712 115.32 8.138 51.382c.56 3.534-1.925 6.852-5.564 7.429l-44.134 6.99c-3.639.576-7.028-1.812-7.587-5.346l-8.139-51.382c-.56-3.534 1.926-6.852 5.565-7.428l44.134-6.99c3.639-.577 7.028 1.81 7.587 5.345z" fill="#f49c53"/><path d="m191.882 115.452 8.138 51.381c.56 3.534-1.883 6.846-5.469 7.414l-21.747 3.444-10.161-64.156 21.747-3.444c3.586-.568 6.932 1.826 7.492 5.36z" fill="#f16661"/><path d="m150.26 177.1c-1.2.19-2.328-.617-2.515-1.8l-8.196-51.746c-.188-1.184.635-2.3 1.836-2.49l43.802-6.937c1.2-.19 2.328.617 2.515 1.8l8.196 51.746c.187 1.183-.636 2.299-1.836 2.489z" fill="#f6b72c"/><path d="m185.187 114.127-21.901 3.469 8.875 56.035 21.901-3.469c1.2-.19 2.023-1.306 1.836-2.489l-8.196-51.746c-.187-1.183-1.315-1.99-2.515-1.8z" fill="#f49c53"/><path d="m187.733 160.342 2.42-3.253a2.158 2.158 0 0 0 -.486-3.063 2.276 2.276 0 0 0 -3.13.496l-2.42 3.254-3.305-2.347a2.276 2.276 0 0 0 -3.131.496 2.158 2.158 0 0 0 .485 3.062l3.306 2.347-2.42 3.253a2.158 2.158 0 0 0 .486 3.063c.999.709 2.4.487 3.13-.496l2.42-3.254 3.306 2.347c.999.709 2.4.487 3.13-.496a2.158 2.158 0 0 0 -.485-3.062z" fill="#fff"/><g><path d="m185.81 130.888a2.192 2.192 0 0 1 -3.083.488l-.756-.497 1.219 7.694c.565 3.567-1.93 6.914-5.585 7.493l-17.908 2.836c-1.234.195-2.053 1.294-1.862 2.498l1.407 8.882c.19 1.203-.628 2.302-1.862 2.498-1.233.195-2.351-.597-2.542-1.8l-1.407-8.883c-.565-3.567 1.93-6.914 5.585-7.493l17.909-2.836c1.233-.196 2.052-1.295 1.861-2.498l-1.218-7.693-.566.706a2.192 2.192 0 0 1 -3.082.488 2.069 2.069 0 0 1 -.477-3.008l3.723-4.996a2.192 2.192 0 0 1 3.083-.488l5.084 3.6a2.068 2.068 0 0 1 .477 3.009z" fill="#fff"/><path d="m171.479 107.384-2.599.412c-1.275-2.353-4.174-3.745-7.036-3.291-2.863.453-5.19 2.672-5.676 5.304l-2.598.412c-3.655.579-6.15 3.926-5.585 7.493s3.972 5.98 7.627 5.4l17.909-2.836c3.655-.579 6.15-3.926 5.584-7.493-.565-3.567-3.971-5.98-7.626-5.4z" fill="#ffde3f"/></g><path d="m156.278 133.69 2.42-3.253a2.158 2.158 0 0 0 -.486-3.062 2.276 2.276 0 0 0 -3.13.495l-2.42 3.254-3.306-2.347a2.276 2.276 0 0 0 -3.13.496 2.158 2.158 0 0 0 .485 3.062l3.306 2.347-2.42 3.253a2.158 2.158 0 0 0 .486 3.063c.999.709 2.4.487 3.13-.496l2.42-3.254 3.306 2.347c.999.71 2.4.487 3.13-.496a2.158 2.158 0 0 0 -.485-3.062z" fill="#fff"/><g><path d="m185.417 130.913a2.21 2.21 0 0 1 -3.095.49l-.759-.495 1.217 7.684c.564 3.563-1.943 6.908-5.614 7.49l-8.992 1.424-.68-4.293 8.992-1.424c1.239-.196 2.062-1.295 1.872-2.497l-1.217-7.684-.569.706a2.21 2.21 0 0 1 -3.095.49 2.058 2.058 0 0 1 -.477-3.004l3.742-4.993a2.21 2.21 0 0 1 3.096-.49l5.102 3.592a2.058 2.058 0 0 1 .476 3.004z" fill="#fff"/><path d="m178.7 112.836c.565 3.563-1.942 6.908-5.613 7.49l-8.992 1.424-2.72-17.171c2.875-.455 5.784.932 7.063 3.282l2.61-.414c3.67-.58 7.088 1.826 7.653 5.389z" fill="#f6b72c"/></g><path d="m159.064 171.543c-3.662.58-7.103-1.863-7.67-5.445-.568-3.583 1.95-6.969 5.612-7.549 3.663-.58 7.104 1.862 7.671 5.445.568 3.582-1.95 6.969-5.613 7.549z" fill="#fff"/><path d="m121.003 113.114 11.702 50.688c.805 3.487-1.443 6.97-5.033 7.8l-43.538 10.05c-3.59.83-7.137-1.316-7.942-4.803l-11.703-50.688c-.805-3.487 1.443-6.97 5.033-7.799l43.539-10.052c3.59-.828 7.137 1.317 7.942 4.804z" fill="#f49c53"/><path d="m120.184 113.303 11.702 50.688c.805 3.487-1.4 6.96-4.939 7.778l-21.453 4.953-14.612-63.291 21.453-4.953c3.538-.817 7.044 1.338 7.849 4.825z" fill="#f16661"/><path d="m82.963 177.704c-1.184.273-2.365-.453-2.635-1.62l-11.785-51.049c-.27-1.167.474-2.337 1.658-2.61l43.211-9.977c1.185-.273 2.366.453 2.635 1.62l11.785 51.049c.27 1.167-.473 2.337-1.657 2.61z" fill="#f6b72c"/><path d="m113.412 112.448-21.605 4.989 12.762 55.279 21.606-4.988c1.184-.274 1.927-1.444 1.657-2.611l-11.785-51.049c-.27-1.167-1.45-1.893-2.635-1.62z" fill="#f49c53"/><path d="m119.176 158.373 2.187-3.414a2.158 2.158 0 0 0 -.698-3.021 2.276 2.276 0 0 0 -3.088.713l-2.187 3.414-3.461-2.11a2.276 2.276 0 0 0 -3.089.713 2.158 2.158 0 0 0 .698 3.02l3.461 2.111-2.186 3.415a2.158 2.158 0 0 0 .698 3.02 2.276 2.276 0 0 0 3.088-.712l2.186-3.415 3.462 2.11a2.276 2.276 0 0 0 3.089-.712 2.158 2.158 0 0 0 -.698-3.021l-3.462-2.11z" fill="#fff"/><g><path d="m115.203 129.125a2.192 2.192 0 0 1 -3.041.702l-.789-.443 1.752 7.59c.813 3.519-1.442 7.031-5.048 7.864l-17.667 4.079c-1.217.28-1.957 1.434-1.683 2.621l2.023 8.763c.274 1.187-.466 2.34-1.683 2.621-1.216.281-2.387-.431-2.661-1.618l-2.023-8.763c-.813-3.52 1.442-7.032 5.048-7.864l17.667-4.079c1.217-.28 1.957-1.434 1.683-2.621l-1.752-7.59-.515.744a2.192 2.192 0 0 1 -3.041.702 2.069 2.069 0 0 1 -.685-2.968l3.365-5.243a2.192 2.192 0 0 1 3.041-.702l5.324 3.237a2.068 2.068 0 0 1 .685 2.968z" fill="#fff"/><path d="m99.267 106.678-2.563.592c-1.436-2.259-4.425-3.444-7.25-2.792-2.823.652-4.99 3.028-5.29 5.687l-2.564.592c-3.606.833-5.86 4.345-5.048 7.865.812 3.519 4.379 5.688 7.985 4.855l17.667-4.079c3.606-.832 5.86-4.345 5.048-7.864-.812-3.52-4.379-5.688-7.985-4.856z" fill="#ffde3f"/></g><path d="m85.939 133.98 2.186-3.414a2.158 2.158 0 0 0 -.697-3.02 2.276 2.276 0 0 0 -3.089.712l-2.186 3.415-3.462-2.11a2.276 2.276 0 0 0 -3.088.712 2.158 2.158 0 0 0 .697 3.021l3.462 2.11-2.186 3.415a2.158 2.158 0 0 0 .697 3.02 2.276 2.276 0 0 0 3.088-.712l2.187-3.415 3.461 2.11a2.276 2.276 0 0 0 3.089-.712 2.158 2.158 0 0 0 -.698-3.021l-3.461-2.11z" fill="#fff"/><g><path d="m114.813 129.178a2.21 2.21 0 0 1 -3.054.705l-.791-.442 1.75 7.58c.811 3.515-1.457 7.027-5.078 7.864l-8.87 2.048-.978-4.235 8.87-2.048c1.222-.282 1.967-1.436 1.693-2.621l-1.75-7.58-.518.743a2.21 2.21 0 0 1 -3.053.705 2.058 2.058 0 0 1 -.685-2.964l3.385-5.242a2.21 2.21 0 0 1 3.054-.705l5.34 3.227a2.058 2.058 0 0 1 .685 2.965z" fill="#fff"/><path d="m106.852 111.613c.811 3.514-1.456 7.027-5.078 7.863l-8.87 2.048-3.911-16.94c2.836-.654 5.835.527 7.274 2.782l2.574-.595c3.622-.836 7.2 1.327 8.01 4.842z" fill="#f6b72c"/></g><path d="m91.358 171.546c-3.613.835-7.216-1.362-8.032-4.896-.815-3.534 1.46-7.088 5.073-7.922s7.216 1.362 8.032 4.896c.816 3.535-1.46 7.088-5.073 7.922z" fill="#fff"/><path d="m240.436 44.393-8.138 51.382c-.56 3.534-3.95 5.922-7.588 5.346l-44.134-6.99c-3.639-.577-6.124-3.895-5.564-7.43l8.138-51.38c.56-3.535 3.949-5.923 7.587-5.346l44.134 6.99c3.639.576 6.124 3.894 5.565 7.428z" fill="#f49c53"/><path d="m239.605 44.262-8.138 51.381c-.56 3.535-3.906 5.93-7.492 5.361l-21.747-3.444 10.161-64.156 21.747 3.444c3.586.568 6.03 3.88 5.47 7.414z" fill="#f16661"/><path d="m180.97 90.03c-1.2-.19-2.023-1.305-1.836-2.488l8.196-51.747c.187-1.183 1.315-1.99 2.515-1.8l43.802 6.938c1.2.19 2.023 1.306 1.836 2.489l-8.196 51.746c-.187 1.183-1.315 1.99-2.515 1.8l-43.802-6.937z" fill="#f6b72c"/><path d="m233.647 40.933-21.901-3.469-8.875 56.035 21.901 3.47c1.2.19 2.328-.618 2.515-1.8l8.196-51.747c.187-1.183-.636-2.299-1.836-2.489z" fill="#f49c53"/><path d="m221.788 85.673 2.419 3.254c.73.983.514 2.353-.485 3.062-1 .709-2.4.487-3.13-.496l-2.42-3.253-3.306 2.346c-.999.71-2.4.487-3.13-.496a2.158 2.158 0 0 1 .484-3.062l3.306-2.346-2.419-3.254a2.158 2.158 0 0 1 .485-3.062 2.276 2.276 0 0 1 3.13.496l2.42 3.253 3.306-2.347a2.276 2.276 0 0 1 3.13.496c.732.983.515 2.354-.484 3.063z" fill="#fff"/><g><path d="m229.06 57.066a2.192 2.192 0 0 1 -3.083-.488l-.565-.706-1.218 7.693c-.565 3.567-3.972 5.98-7.627 5.4l-17.909-2.836c-1.233-.195-2.351.597-2.542 1.8l-1.407 8.883c-.19 1.203-1.309 1.995-2.542 1.8s-2.052-1.294-1.862-2.498l1.407-8.882c.565-3.567 3.972-5.98 7.627-5.4l17.909 2.836c1.233.195 2.351-.597 2.542-1.8l1.218-7.694-.756.497a2.192 2.192 0 0 1 -3.082-.488 2.069 2.069 0 0 1 .476-3.009l5.085-3.6a2.192 2.192 0 0 1 3.082.488l3.723 4.996a2.068 2.068 0 0 1 -.476 3.008z" fill="#fff"/><path d="m222.693 30.285-2.598-.412c-.486-2.632-2.813-4.851-5.675-5.305-2.863-.453-5.762.938-7.037 3.292l-2.598-.412c-3.655-.579-7.062 1.833-7.627 5.4-.565 3.568 1.93 6.915 5.585 7.494l17.908 2.836c3.656.58 7.062-1.833 7.627-5.4.565-3.568-1.93-6.915-5.585-7.493z" fill="#ffde3f"/></g><path d="m200.108 50.606 2.42 3.253c.73.983.513 2.353-.486 3.062-.999.71-2.4.487-3.13-.496l-2.42-3.253-3.306 2.347c-.999.709-2.4.487-3.13-.496a2.158 2.158 0 0 1 .485-3.062l3.306-2.347-2.42-3.254a2.158 2.158 0 0 1 .486-3.062 2.276 2.276 0 0 1 3.13.496l2.42 3.253 3.305-2.346a2.276 2.276 0 0 1 3.131.496c.73.982.514 2.353-.485 3.062z" fill="#fff"/><g><path d="m228.679 56.97a2.21 2.21 0 0 1 -3.096-.491l-.568-.706-1.217 7.684c-.564 3.563-3.983 5.97-7.653 5.388l-8.993-1.424.68-4.293 8.992 1.425c1.239.196 2.361-.595 2.552-1.797l1.217-7.684-.76.496a2.21 2.21 0 0 1 -3.095-.49 2.058 2.058 0 0 1 .476-3.005l5.103-3.592a2.21 2.21 0 0 1 3.095.49l3.743 4.993c.755.956.538 2.33-.476 3.005z" fill="#fff"/><path d="m227.877 37.7c-.564 3.564-3.982 5.97-7.653 5.39l-8.992-1.425 2.72-17.17c2.874.455 5.213 2.673 5.702 5.303l2.61.413c3.67.581 6.178 3.927 5.613 7.49z" fill="#f6b72c"/></g><path d="m191.06 87.466c-3.662-.58-6.18-3.966-5.612-7.548.567-3.583 4.008-6.025 7.67-5.445 3.663.58 6.18 3.966 5.613 7.549-.567 3.582-4.008 6.024-7.67 5.444z" fill="#fff"/></g><path d="m111 222.568-24.528 26h108.528l-28-26z" fill="#caf5ff"/><path d="m113.5 220.568h27l-29 28h-24.5z" fill="#46c4d1" opacity=".805"/><path d="m111 222.568h55.5v-27h-55.5z" fill="#caf5ff"/><path d="m138.496 222.568h27.504v-27z" fill="#46c4d1" opacity=".805"/><path d="m27 141.568h224v-53h-224z" fill="#caf5ff" fill-opacity=".5"/><path d="m140 89.568v52h55zm-112 0v52h54.992z" fill="#46c4d1" fill-opacity=".5"/><path d="m139 88.568h-112l55.992 53 .008-.01.008.01zm111 53h-110l55 54.5-1-1.51 1 1.51zm-110 0h-112l57 54zm111-53h-112l55.992 53 .008-.01.008.01z" fill="#90edfc" fill-opacity=".5"/><path d="m85 195.568h110l-55-54z" fill="#caf5ff" fill-opacity=".5"/><path d="m166 195.568h-55l27.496 27h.008z" fill="#90edfc"/><path d="m111 248.568h55l-27.496-26.014-.004.01-.004-.013z" fill="#90edfc"/><path d="m85 195.568-2.008-54h57.008zm110 .5-.008-54.5h57.008z" fill="#46c4d1" fill-opacity=".5"/><path d="m270.506 32.186a.918.918 0 0 1 0 1.628c-2.69 1.478-4.632 4.637-5.66 6.67a.95.95 0 0 1 -1.69 0c-1.03-2.033-2.971-5.192-5.66-6.67a.917.917 0 0 1 0-1.628c2.689-1.479 4.63-4.638 5.66-6.669a.949.949 0 0 1 1.69 0c1.028 2.031 2.97 5.19 5.66 6.669z" fill="#ffc431"/><path d="m225.506 9.186a.918.918 0 0 1 0 1.628c-2.69 1.478-4.632 4.637-5.66 6.67a.95.95 0 0 1 -1.69 0c-1.03-2.033-2.971-5.192-5.66-6.67a.917.917 0 0 1 0-1.628c2.689-1.479 4.63-4.638 5.66-6.669a.949.949 0 0 1 1.69 0c1.028 2.031 2.97 5.19 5.66 6.669zm-60 10a.918.918 0 0 1 0 1.628c-2.69 1.478-4.632 4.637-5.66 6.67a.95.95 0 0 1 -1.69 0c-1.03-2.033-2.971-5.192-5.66-6.67a.917.917 0 0 1 0-1.628c2.689-1.479 4.63-4.638 5.66-6.669a.949.949 0 0 1 1.69 0c1.028 2.031 2.97 5.19 5.66 6.669z" fill="#ffc431" opacity=".684"/><path d="m100.506 12.186a.918.918 0 0 1 0 1.628c-2.69 1.478-4.632 4.637-5.66 6.67a.95.95 0 0 1 -1.69 0c-1.03-2.033-2.971-5.192-5.66-6.67a.917.917 0 0 1 0-1.628c2.689-1.479 4.63-4.638 5.66-6.669a.949.949 0 0 1 1.69 0c1.028 2.031 2.97 5.19 5.66 6.669z" fill="#ffc431"/><path d="m45.506 19.186a.918.918 0 0 1 0 1.628c-2.69 1.478-4.632 4.637-5.66 6.67a.95.95 0 0 1 -1.69 0c-1.03-2.033-2.971-5.192-5.66-6.67a.917.917 0 0 1 0-1.628c2.689-1.479 4.63-4.638 5.66-6.669a.949.949 0 0 1 1.69 0c1.028 2.031 2.97 5.19 5.66 6.669z" fill="#ffc431" opacity=".684"/><g fill-rule="nonzero"><path d="m308.93 205.108 11.418 26.897c.785 1.85-.129 4.001-2.047 4.816l-23.264 9.875c-1.918.814-4.1-.023-4.886-1.873l-11.418-26.898c-.785-1.85.13-4 2.048-4.815l23.264-9.875c1.918-.814 4.1.022 4.886 1.873z" fill="#f49c53"/><path d="m308.495 205.305 11.418 26.898c.785 1.85-.107 3.992-1.997 4.794l-11.464 4.866-14.256-33.585 11.463-4.866c1.89-.803 4.05.043 4.836 1.893z" fill="#f16661"/><path d="m294.003 244.625c-.633.269-1.36-.016-1.623-.635l-11.5-27.09c-.263-.619.038-1.34.67-1.609l23.09-9.8c.633-.269 1.36.016 1.623.635l11.499 27.09c.263.619-.038 1.34-.67 1.609l-23.09 9.8z" fill="#f6b72c"/><path d="m304.643 205.501-11.545 4.9 12.451 29.334 11.545-4.9c.633-.269.933-.99.67-1.61l-11.498-27.088c-.263-.62-.99-.904-1.623-.636z" fill="#f49c53"/><path d="m312.31 230.35.886-2.107a1.206 1.206 0 0 0 -.68-1.603 1.294 1.294 0 0 0 -1.65.7l-.887 2.107-2.132-.826a1.294 1.294 0 0 0 -1.65.701 1.206 1.206 0 0 0 .68 1.603l2.132.825-.887 2.107a1.206 1.206 0 0 0 .68 1.603 1.294 1.294 0 0 0 1.65-.7l.887-2.107 2.132.825a1.294 1.294 0 0 0 1.65-.7 1.206 1.206 0 0 0 -.68-1.603l-2.132-.826zm-5.07-15.802c-.25.638-.993.953-1.625.69l-.482-.167 1.71 4.027c.792 1.868-.123 4.036-2.05 4.853l-9.44 4.007c-.65.276-.95.988-.683 1.618l1.974 4.65c.267.63-.033 1.342-.683 1.618s-1.371-.003-1.639-.633l-1.973-4.65c-.793-1.867.122-4.035 2.05-4.852l9.44-4.008c.65-.275.95-.987.682-1.617l-1.71-4.028-.214.463c-.25.637-.992.953-1.625.69a1.156 1.156 0 0 1 -.668-1.575l1.366-3.235c.25-.637.993-.953 1.625-.69l3.277 1.264c.645.23.951.95.668 1.575z" fill="#fff"/><path d="m296.198 203.702-1.37.581c-1.018-1.108-2.796-1.468-4.305-.827-1.51.64-2.485 2.17-2.396 3.672l-1.37.581c-1.926.818-2.841 2.986-2.049 4.853.793 1.867 2.988 2.715 4.915 1.897l9.44-4.007c1.927-.818 2.842-2.986 2.05-4.853-.793-1.868-2.988-2.715-4.915-1.897z" fill="#ffde3f"/><path d="m291.416 220.12.887-2.106a1.206 1.206 0 0 0 -.68-1.603 1.294 1.294 0 0 0 -1.65.7l-.887 2.107-2.132-.825a1.294 1.294 0 0 0 -1.65.7 1.206 1.206 0 0 0 .68 1.603l2.132.825-.887 2.107a1.206 1.206 0 0 0 .68 1.603 1.294 1.294 0 0 0 1.65-.7l.888-2.107 2.13.825a1.294 1.294 0 0 0 1.651-.7 1.206 1.206 0 0 0 -.68-1.603l-2.132-.825zm15.607-5.496a1.256 1.256 0 0 1 -1.631.692l-.484-.166 1.708 4.023c.791 1.865-.131 4.034-2.066 4.855l-4.74 2.012-.954-2.247 4.74-2.012c.653-.277.956-.99.689-1.619l-1.708-4.022-.216.463a1.256 1.256 0 0 1 -1.632.693 1.15 1.15 0 0 1 -.668-1.573l1.378-3.237a1.256 1.256 0 0 1 1.631-.693l3.286 1.258c.647.229.952.948.667 1.573z" fill="#fff"/><path d="m300.893 205.69c.791 1.865-.131 4.033-2.066 4.855l-4.74 2.012-3.816-8.989c1.515-.643 3.3-.287 4.319.82l1.375-.585c1.935-.821 4.136.021 4.928 1.887z" fill="#f6b72c"/><path d="m298.094 240.372c-1.93.82-4.149-.04-4.945-1.915s.127-4.067 2.058-4.887c1.93-.82 4.149.04 4.945 1.915s-.127 4.068-2.058 4.887z" fill="#fff"/><path d="m274.128 207.565-.638 36.52c-.044 2.512-2.167 4.504-4.753 4.459l-31.369-.548c-2.586-.045-4.639-2.11-4.595-4.621l.638-36.52c.043-2.513 2.167-4.504 4.753-4.459l31.369.548c2.586.045 4.639 2.109 4.595 4.621z" fill="#f49c53"/><path d="m273.538 207.555-.638 36.52c-.044 2.512-2.136 4.504-4.685 4.46l-15.458-.27.796-45.6 15.457.27c2.55.044 4.572 2.108 4.528 4.62z" fill="#f16661"/><path d="m237.241 245.107a1.537 1.537 0 0 1 -1.52-1.551l.642-36.78c.015-.84.72-1.512 1.573-1.497l31.134.543c.853.015 1.534.71 1.52 1.552l-.643 36.78a1.537 1.537 0 0 1 -1.573 1.496z" fill="#f6b72c"/><path d="m269.07 205.822-15.567-.271-.695 39.828 15.566.271a1.537 1.537 0 0 0 1.573-1.497l.642-36.78a1.537 1.537 0 0 0 -1.52-1.55z" fill="#f49c53"/><path d="m265.196 238.089 2.07-1.955c.624-.59.641-1.564.037-2.176a1.598 1.598 0 0 0 -2.225-.04l-2.07 1.955-2-2.025a1.598 1.598 0 0 0 -2.225-.04 1.515 1.515 0 0 0 -.038 2.177l2 2.026-2.069 1.955a1.515 1.515 0 0 0 -.038 2.176c.604.612 1.6.63 2.225.04l2.07-1.955 2 2.025c.604.612 1.6.63 2.225.04.625-.591.642-1.565.038-2.177zm2.261-20.601c-.606.6-1.607.583-2.191-.038l-.462-.436-.096 5.468c-.044 2.535-2.177 4.546-4.775 4.5l-12.729-.222c-.876-.015-1.577.645-1.591 1.5l-.11 6.314c-.016.855-.716 1.515-1.592 1.5-.877-.016-1.554-.7-1.539-1.555l.11-6.313c.045-2.536 2.177-4.546 4.776-4.5l12.729.221c.876.016 1.576-.644 1.591-1.5l.096-5.468-.477.42c-.606.6-1.607.583-2.191-.039a1.452 1.452 0 0 1 .037-2.138l3.183-3a1.539 1.539 0 0 1 2.191.038l3.077 3.11a1.452 1.452 0 0 1 -.037 2.138z" fill="#fff"/><path d="m260.413 199.489-1.847-.032c-.595-1.783-2.43-3.099-4.464-3.134-2.035-.036-3.914 1.215-4.571 2.976l-1.847-.032c-2.598-.046-4.73 1.964-4.775 4.5-.044 2.535 2.017 4.619 4.615 4.664l12.73.222c2.597.046 4.73-1.965 4.774-4.5.044-2.536-2.017-4.619-4.615-4.664z" fill="#ffde3f"/><path d="m246.695 215.825 2.07-1.955c.625-.59.642-1.564.038-2.176a1.598 1.598 0 0 0 -2.226-.04l-2.069 1.956-2-2.026a1.598 1.598 0 0 0 -2.225-.039 1.515 1.515 0 0 0 -.038 2.177l2 2.025-2.07 1.955a1.515 1.515 0 0 0 -.038 2.177c.605.612 1.6.629 2.226.038l2.07-1.954 1.999 2.025c.604.612 1.6.63 2.225.04.625-.591.642-1.565.038-2.177zm20.487 1.633c-.608.6-1.613.582-2.2-.039l-.464-.435-.095 5.461c-.045 2.533-2.186 4.54-4.795 4.495l-6.392-.112.054-3.05 6.391.11c.88.016 1.583-.643 1.598-1.497l.096-5.462-.48.419c-.607.6-1.613.582-2.2-.038a1.445 1.445 0 0 1 .038-2.136l3.196-2.997a1.551 1.551 0 0 1 2.2.039l3.09 3.106c.62.59.602 1.567-.037 2.136z" fill="#fff"/><path d="m264.742 204.139c-.044 2.532-2.186 4.54-4.795 4.494l-6.391-.111.213-12.205c2.043.036 3.886 1.35 4.483 3.13l1.855.033c2.61.045 4.68 2.126 4.635 4.659z" fill="#f6b72c"/><path d="m244.007 242.338c-2.604-.045-4.685-2.154-4.64-4.7.044-2.546 2.198-4.58 4.8-4.535 2.604.045 4.685 2.154 4.641 4.7s-2.198 4.58-4.801 4.535z" fill="#fff"/></g></g></svg>