<svg xmlns="http://www.w3.org/2000/svg" xmlns:xlink="http://www.w3.org/1999/xlink" width="350" height="250" viewBox="0 0 350 250"><defs><circle id="a" cx="19" cy="19" r="19"/><circle id="c" cx="19" cy="19" r="19"/><circle id="e" cx="19" cy="19" r="19"/><ellipse id="g" cx="3.026" cy="3.023" rx="3.026" ry="3.023"/><ellipse id="i" cx="3.026" cy="3.023" rx="3.026" ry="3.023"/><ellipse id="k" cx="3.026" cy="3.023" rx="3.026" ry="3.023"/><ellipse id="m" cx="3.8" cy="3.778" rx="3.8" ry="3.778"/><ellipse id="o" cx="3.8" cy="3.778" rx="3.8" ry="3.778"/><ellipse id="q" cx="3.8" cy="3.778" rx="3.8" ry="3.778"/></defs><g fill="none" fill-rule="evenodd"><g transform="translate(24 2)"><path stroke="#A2C0C5" stroke-width="2" d="M113 32L33 83l59 72 96-88L42 83l122 78-35-126z"/><g transform="translate(14 61)"><mask id="b" fill="#fff"><use xlink:href="#a"/></mask><use fill="#FFDE3F" xlink:href="#a"/><path fill="#F6B72C" d="M19-5h20v46H19z" mask="url(#b)"/></g><g transform="translate(103 8)"><mask id="d" fill="#fff"><use xlink:href="#c"/></mask><use fill="#F49C53" xlink:href="#c"/><path fill="#E87F27" d="M19-1h22v40H19z" mask="url(#d)"/></g><circle cx="91" cy="165" r="19" fill="#39BB9C"/><path fill="#FFC431" d="M103.506 7.186a.918.918 0 0 1 0 1.628c-2.69 1.478-4.632 4.637-5.66 6.67a.95.95 0 0 1-1.69 0c-1.03-2.033-2.971-5.192-5.66-6.67a.917.917 0 0 1 0-1.628c2.689-1.479 4.63-4.638 5.66-6.669a.949.949 0 0 1 1.69 0c1.028 2.031 2.97 5.19 5.66 6.669zM61.506 48.186a.918.918 0 0 1 0 1.628c-2.69 1.478-4.632 4.637-5.66 6.67a.95.95 0 0 1-1.69 0c-1.03-2.033-2.971-5.192-5.66-6.67a.917.917 0 0 1 0-1.628c2.689-1.479 4.63-4.638 5.66-6.669a.949.949 0 0 1 1.69 0c1.028 2.031 2.97 5.19 5.66 6.669zM13.506 38.186a.918.918 0 0 1 0 1.628c-2.69 1.478-4.632 4.637-5.66 6.67a.95.95 0 0 1-1.69 0c-1.03-2.033-2.971-5.192-5.66-6.67a.917.917 0 0 1 0-1.628c2.689-1.479 4.63-4.638 5.66-6.669a.949.949 0 0 1 1.69 0c1.028 2.031 2.97 5.19 5.66 6.669z"/><circle cx="163" cy="152" r="19" fill="#EA5A7D"/><g transform="translate(171 49)"><mask id="f" fill="#fff"><use xlink:href="#e"/></mask><use fill="#4183D7" xlink:href="#e"/><path fill="#3171C2" d="M19-3h23v42H19z" mask="url(#f)"/></g><path fill="#FFC431" d="M253.506 52.186a.918.918 0 0 1 0 1.628c-2.69 1.478-4.632 4.637-5.66 6.67a.95.95 0 0 1-1.69 0c-1.03-2.033-2.971-5.192-5.66-6.67a.917.917 0 0 1 0-1.628c2.689-1.479 4.63-4.638 5.66-6.669a.949.949 0 0 1 1.69 0c1.028 2.031 2.97 5.19 5.66 6.669zM193.506 23.186a.918.918 0 0 1 0 1.628c-2.69 1.478-4.632 4.637-5.66 6.67a.95.95 0 0 1-1.69 0c-1.03-2.033-2.971-5.192-5.66-6.67a.917.917 0 0 1 0-1.628c2.689-1.479 4.63-4.638 5.66-6.669a.949.949 0 0 1 1.69 0c1.028 2.031 2.97 5.19 5.66 6.669z"/></g><path fill="#CAF5FF" d="M109 221.568l-24.528 26H193l-28-26z"/><path fill="#46C4D1" d="M111.5 219.568h27l-29 28H85z" opacity=".805"/><path fill="#CAF5FF" d="M109 221.568h55.5v-27H109z"/><path fill="#46C4D1" d="M136.496 221.568H164v-27z" opacity=".805"/><path fill="#CAF5FF" fill-opacity=".5" d="M25 140.568h224v-53H25z"/><path fill="#46C4D1" fill-opacity=".5" d="M138 88.568v52h55zM26 88.568v52h54.992z"/><path fill="#90EDFC" fill-opacity=".5" d="M137 87.568H25l55.992 53 .008-.01.008.01zM248 140.568H138l55 54.5-1-1.51 1 1.51zM138 140.568H26l57 54zM249 87.568H137l55.992 53 .008-.01.008.01z"/><path fill="#CAF5FF" fill-opacity=".5" d="M83 194.568h110l-55-54z"/><path fill="#90EDFC" d="M164 194.568h-55l27.496 27h.008z"/><path fill="#90EDFC" d="M109 247.568h55l-27.496-26.014-.004.01-.004-.013z"/><path fill="#46C4D1" fill-opacity=".5" d="M83 194.568l-2.008-54H138zM193 195.068l-.008-54.5H250z"/><g><path fill="#FCDE94" d="M254.115 178.004l-37.235 21.497 28 48.498 26.982-15.578-2.457-9.24 6.865-6.803-22.155-38.374"/><path fill="#F9D073" d="M276.27 216.378l-4.408 16.043-13.76 7.945-28-48.498 24.013-13.864 22.155 38.374"/><path fill="#A3A4A0" d="M266.017 222.297l5.845 10.124 4.408-16.043-10.253 5.92"/><g transform="scale(-1 1) rotate(30 -488.873 -381.992)"><path stroke="#A2C0C5" stroke-width=".5" d="M15.767 3.818L3.026 11.932l9.396 11.454 15.29-14-23.253 2.546L23.89 24.34 18.315 4.295z"/><g transform="translate(0 8.432)"><mask id="h" fill="#fff"><use xlink:href="#g"/></mask><use fill="#FFDE3F" xlink:href="#g"/><path fill="#F6B72C" d="M3.026-.795h3.185v7.318H3.026z" mask="url(#h)"/></g><g transform="translate(14.174)"><mask id="j" fill="#fff"><use xlink:href="#i"/></mask><use fill="#F49C53" xlink:href="#i"/><path fill="#E87F27" d="M3.026-.159H6.53v6.364H3.026z" mask="url(#j)"/></g><ellipse cx="12.263" cy="24.977" fill="#39BB9C" rx="3.026" ry="3.023"/><ellipse cx="23.73" cy="22.909" fill="#EA5A7D" rx="3.026" ry="3.023"/><g transform="translate(25.004 6.523)"><mask id="l" fill="#fff"><use xlink:href="#k"/></mask><use fill="#4183D7" xlink:href="#k"/><path fill="#3171C2" d="M3.026-.477h3.663v6.682H3.026z" mask="url(#l)"/></g></g><g><path fill="#FCDE94" d="M323.993 178H270v70h39.126l3.13-11.538 11.737-3.074V178"/><path fill="#F9D073" d="M323.993 233.387L309.126 248H289.17v-70h34.822v55.388"/><path fill="#A3A4A0" d="M309.126 233.387V248l14.867-14.612h-14.867"/><g transform="matrix(-1 0 0 1 317 196)"><path stroke="#A2C0C5" stroke-width=".5" d="M19.8 4.773l-16 10.142 11.8 14.318 19.2-17.5-29.2 3.182L30 30.426 23 5.37z"/><g transform="translate(0 10.54)"><mask id="n" fill="#fff"><use xlink:href="#m"/></mask><use fill="#FFDE3F" xlink:href="#m"/><path fill="#F6B72C" d="M3.8-.994h4v9.148h-4z" mask="url(#n)"/></g><g transform="translate(17.8)"><mask id="p" fill="#fff"><use xlink:href="#o"/></mask><use fill="#F49C53" xlink:href="#o"/><path fill="#E87F27" d="M3.8-.199h4.4v7.955H3.8z" mask="url(#p)"/></g><ellipse cx="15.4" cy="31.222" fill="#39BB9C" rx="3.8" ry="3.778"/><ellipse cx="29.8" cy="28.636" fill="#EA5A7D" rx="3.8" ry="3.778"/><g transform="translate(31.4 8.153)"><mask id="r" fill="#fff"><use xlink:href="#q"/></mask><use fill="#4183D7" xlink:href="#q"/><path fill="#3171C2" d="M3.8-.597h4.6v8.352H3.8z" mask="url(#r)"/></g></g></g></g></g></svg>