<svg height="250" viewBox="0 0 350 250" width="350" xmlns="http://www.w3.org/2000/svg"><g fill="none" fill-rule="evenodd"><path d="m316.509 197.517-41.53-11.128-14.493 54.092 30.094 8.064 4.796-8.271 9.665.043z" fill="#fcde94"/><path d="m305.04 240.317-14.46 8.228-15.349-4.113 14.494-54.091 26.784 7.176-11.468 42.8" fill="#f9d073"/><path d="m293.605 237.253-3.025 11.292 14.46-8.228z" fill="#a3a4a0"/><path d="m279.781 201.726a.952.952 0 0 1 -.568-.433l-1.327-2.269a.917.917 0 0 1 .338-1.262.945.945 0 0 1 1.276.342l.859 1.467 4.218-2.324a.945.945 0 0 1 1.276.342.916.916 0 0 1 -.338 1.262l-5.025 2.784a.953.953 0 0 1 -.709.09" fill="#87d37c"/><path d="m303.658 216.588-18.658-5a.928.928 0 0 1 -.664-1.134.93.93 0 0 1 1.142-.65l18.658 4.999a.93.93 0 0 1 .664 1.134.927.927 0 0 1 -1.142.65" fill="#f16661"/><path d="m306.173 207.203-18.659-5a.93.93 0 0 1 -.663-1.134.93.93 0 0 1 1.142-.65l18.658 4.999a.93.93 0 0 1 .664 1.134.93.93 0 0 1 -1.142.65" fill="#87d37c"/><path d="m301.076 226.225-18.659-5a.93.93 0 0 1 -.663-1.134.93.93 0 0 1 1.142-.65l18.658 4.999a.93.93 0 0 1 .664 1.134.93.93 0 0 1 -1.142.651" fill="#f16661"/><path d="m298.565 235.596-18.659-5a.93.93 0 0 1 -.663-1.133.93.93 0 0 1 1.142-.651l18.658 5a.93.93 0 0 1 .663 1.134.93.93 0 0 1 -1.141.65" fill="#32b3d9"/><path d="m275.475 208.08c.355-1.326 1.73-2.107 3.072-1.748 1.341.36 2.14 1.724 1.786 3.05-.355 1.324-1.73 2.106-3.071 1.746-1.342-.359-2.142-1.723-1.787-3.048m-2.582 9.637c.355-1.325 1.73-2.107 3.072-1.747 1.34.359 2.14 1.723 1.785 3.048-.355 1.326-1.73 2.107-3.07 1.748-1.342-.36-2.142-1.724-1.787-3.05" fill="#f16661"/><path d="m270.382 227.088c.355-1.325 1.73-2.106 3.072-1.747 1.34.36 2.14 1.724 1.785 3.049s-1.73 2.107-3.07 1.747c-1.342-.36-2.142-1.723-1.787-3.049" fill="#32b3d9"/><g transform="translate(30 1)"><rect fill="#f16661" height="54" rx="4" width="54" x="24" y="41"/><rect fill="#87d37c" height="54" rx="4" width="54" x="85" y="30"/><g fill="#f16661"><rect height="54" rx="4" width="54" x="145" y="41"/><rect height="54" rx="4" width="54" x="34" y="109"/><rect height="54" rx="4" width="54" x="95" y="98"/><rect height="54" rx="4" width="54" x="155" y="109"/></g><path d="m91 222.568-24.528 26h108.528l-28-26z" fill="#caf5ff"/><path d="m93.5 220.568h27l-29 28h-24.5z" fill="#46c4d1" opacity=".805"/><path d="m91 222.568h55.5v-27h-55.5z" fill="#caf5ff"/><path d="m118.496 222.568h27.504v-27z" fill="#46c4d1" opacity=".805"/><path d="m7 141.568h224v-53h-224z" fill="#caf5ff" fill-opacity=".5"/><path d="m120 89.568v52h55zm-112 0v52h54.992z" fill="#46c4d1" fill-opacity=".5"/><path d="m119 88.568h-112l55.992 53 .008-.01.008.01zm111 53h-110l55 54.5-1-1.51 1 1.51zm-110 0h-112l57 54zm111-53h-112l55.992 53 .008-.01.008.01z" fill="#90edfc" fill-opacity=".5"/><path d="m65 195.568h110l-55-54z" fill="#caf5ff" fill-opacity=".5"/><path d="m146 195.568h-55l27.496 27h.008z" fill="#90edfc"/><path d="m91 248.568h55l-27.496-26.014-.004.01-.004-.013z" fill="#90edfc"/><path d="m65 195.568-2.008-54h57.008zm110 .5-.008-54.5h57.008z" fill="#46c4d1" fill-opacity=".5"/><path d="m102.765 70.337a5.424 5.424 0 0 0 3.824 1.662 5.433 5.433 0 0 0 3.88-1.534l19.962-19.52a5.159 5.159 0 0 0 0-7.411c-2.093-2.045-5.485-2.045-7.577 0l-16.042 15.686-5.539-5.797c-2.02-2.115-5.41-2.228-7.572-.254a5.159 5.159 0 0 0 -.259 7.405l9.323 9.762z" fill="#fff"/><path d="m243.506 47.186a.918.918 0 0 1 0 1.628c-2.69 1.478-4.632 4.637-5.66 6.67a.95.95 0 0 1 -1.69 0c-1.03-2.033-2.971-5.192-5.66-6.67a.917.917 0 0 1 0-1.628c2.689-1.479 4.63-4.638 5.66-6.669a.949.949 0 0 1 1.69 0c1.028 2.031 2.97 5.19 5.66 6.669zm-50-40a.918.918 0 0 1 0 1.628c-2.69 1.478-4.632 4.637-5.66 6.67a.95.95 0 0 1 -1.69 0c-1.03-2.033-2.971-5.192-5.66-6.67a.917.917 0 0 1 0-1.628c2.689-1.479 4.63-4.638 5.66-6.669a.949.949 0 0 1 1.69 0c1.028 2.031 2.97 5.19 5.66 6.669zm-60 10a.918.918 0 0 1 0 1.628c-2.69 1.478-4.632 4.637-5.66 6.67a.95.95 0 0 1 -1.69 0c-1.03-2.033-2.971-5.192-5.66-6.67a.917.917 0 0 1 0-1.628c2.689-1.479 4.63-4.638 5.66-6.669a.949.949 0 0 1 1.69 0c1.028 2.031 2.97 5.19 5.66 6.669zm-60 10a.918.918 0 0 1 0 1.628c-2.69 1.478-4.632 4.637-5.66 6.67a.95.95 0 0 1 -1.69 0c-1.03-2.033-2.971-5.192-5.66-6.67a.917.917 0 0 1 0-1.628c2.689-1.479 4.63-4.638 5.66-6.669a.949.949 0 0 1 1.69 0c1.028 2.031 2.97 5.19 5.66 6.669zm-60-10a.918.918 0 0 1 0 1.628c-2.69 1.478-4.632 4.637-5.66 6.67a.95.95 0 0 1 -1.69 0c-1.03-2.033-2.971-5.192-5.66-6.67a.917.917 0 0 1 0-1.628c2.689-1.479 4.63-4.638 5.66-6.669a.949.949 0 0 1 1.69 0c1.028 2.031 2.97 5.19 5.66 6.669z" fill="#ffc431"/></g></g></svg>