<svg xmlns="http://www.w3.org/2000/svg" xmlns:xlink="http://www.w3.org/1999/xlink" width="350" height="250" viewBox="0 0 350 250"><defs><path id="a" d="M9.27.623c.405-.83 1.055-.83 1.46 0l2.58 5.295 5.824.797c.934.128 1.145.753.473 1.402l-4.251 4.065 1.043 5.793c.16.908-.382 1.28-1.208.841L10 16.052l-5.19 2.764c-.827.438-1.368.067-1.209-.841l1.043-5.793-4.25-4.065c-.673-.649-.462-1.274.472-1.402l5.823-.797L9.271.623z"/><path id="c" d="M9.27.623c.405-.83 1.055-.83 1.46 0l2.58 5.295 5.824.797c.934.128 1.145.753.473 1.402l-4.251 4.065 1.043 5.793c.16.908-.382 1.28-1.208.841L10 16.052l-5.19 2.764c-.827.438-1.368.067-1.209-.841l1.043-5.793-4.25-4.065c-.673-.649-.462-1.274.472-1.402l5.823-.797L9.271.623z"/><path id="e" d="M9.27.623c.405-.83 1.055-.83 1.46 0l2.58 5.295 5.824.797c.934.128 1.145.753.473 1.402l-4.251 4.065 1.043 5.793c.16.908-.382 1.28-1.208.841L10 16.052l-5.19 2.764c-.827.438-1.368.067-1.209-.841l1.043-5.793-4.25-4.065c-.673-.649-.462-1.274.472-1.402l5.823-.797L9.271.623z"/><path id="g" d="M9.27.623c.405-.83 1.055-.83 1.46 0l2.58 5.295 5.824.797c.934.128 1.145.753.473 1.402l-4.251 4.065 1.043 5.793c.16.908-.382 1.28-1.208.841L10 16.052l-5.19 2.764c-.827.438-1.368.067-1.209-.841l1.043-5.793-4.25-4.065c-.673-.649-.462-1.274.472-1.402l5.823-.797L9.271.623z"/><path id="i" d="M9.27.623c.405-.83 1.055-.83 1.46 0l2.58 5.295 5.824.797c.934.128 1.145.753.473 1.402l-4.251 4.065 1.043 5.793c.16.908-.382 1.28-1.208.841L10 16.052l-5.19 2.764c-.827.438-1.368.067-1.209-.841l1.043-5.793-4.25-4.065c-.673-.649-.462-1.274.472-1.402l5.823-.797L9.271.623z"/><path id="k" d="M28.106 8.108c.404-.83 1.054-.83 1.458 0l2.581 5.295 5.824.798c.934.127 1.145.753.473 1.401l-4.251 4.065 1.043 5.793c.16.909-.382 1.28-1.208.842l-5.191-2.764-5.19 2.764c-.827.438-1.368.067-1.209-.842l1.043-5.793-4.25-4.065c-.673-.648-.462-1.274.472-1.401l5.823-.798 2.582-5.295z"/><path id="m" d="M9.27.623c.405-.83 1.055-.83 1.46 0l2.58 5.295 5.824.797c.934.128 1.145.753.473 1.402l-4.251 4.065 1.043 5.793c.16.908-.382 1.28-1.208.841L10 16.052l-5.19 2.764c-.827.438-1.368.067-1.209-.841l1.043-5.793-4.25-4.065c-.673-.649-.462-1.274.472-1.402l5.823-.797L9.271.623z"/></defs><g fill="none" fill-rule="evenodd"><path fill="#FCDE94" d="M160.35 31.002L109 47.687l21.631 66.574 37.21-12.09-.588-11.941 10.213-6.551-17.116-52.677"/><path fill="#F9D073" d="M177.466 83.679l-9.624 18.491-18.978 6.167-21.631-66.574 33.117-10.76 17.116 52.676"/><path fill="#A3A4A0" d="M163.326 88.273l4.516 13.897 9.624-18.491-14.14 4.594"/><path fill="#32B3D9" d="M163.674 71.618l-23.07 7.496a1.166 1.166 0 0 1-1.474-.736 1.166 1.166 0 0 1 .76-1.46l23.07-7.497c.617-.2 1.277.131 1.473.736a1.165 1.165 0 0 1-.76 1.461M167.421 83.152l-23.07 7.496a1.166 1.166 0 0 1-1.473-.736 1.166 1.166 0 0 1 .759-1.46l23.07-7.497c.618-.2 1.277.131 1.474.736a1.165 1.165 0 0 1-.76 1.461M128.174 81.938c-.53-1.63.386-3.388 2.045-3.927 1.658-.539 3.431.345 3.961 1.976.53 1.63-.385 3.388-2.043 3.927-1.66.539-3.433-.345-3.963-1.976M131.922 93.472c-.53-1.63.386-3.388 2.044-3.927 1.658-.539 3.432.345 3.962 1.976.53 1.63-.386 3.388-2.044 3.927-1.658.539-3.432-.345-3.962-1.976"/><path fill="#FCDE94" d="M144.284 118.226L94.222 98 68 162.903l36.277 14.657 7.224-9.526 12.034 1.546 20.749-51.354"/><path fill="#F9D073" d="M123.535 169.58l-19.258 7.98-18.502-7.475 26.223-64.903 32.286 13.044-20.749 51.354"/><path fill="#A3A4A0" d="M109.75 164.011l-5.473 13.549 19.258-7.98-13.784-5.569"/><path fill="#32B3D9" d="M120.722 151.476l-22.491-9.087a1.166 1.166 0 0 1-.656-1.51c.239-.59.921-.874 1.521-.632l22.492 9.087c.602.243.894.921.655 1.51-.238.59-.919.875-1.52.632M116.18 162.72l-22.492-9.087a1.166 1.166 0 0 1-.656-1.51c.238-.59.921-.874 1.521-.632l22.492 9.088c.602.243.894.92.655 1.51-.238.59-.919.875-1.52.631M86.894 136.563c.643-1.59 2.474-2.348 4.091-1.694 1.617.653 2.407 2.47 1.765 4.06-.643 1.59-2.474 2.347-4.09 1.694-1.617-.653-2.408-2.47-1.766-4.06M82.351 147.807c.643-1.59 2.474-2.347 4.091-1.694 1.616.653 2.407 2.47 1.765 4.06-.643 1.59-2.474 2.348-4.09 1.695-1.617-.654-2.408-2.47-1.766-4.06"/><g transform="rotate(-18 216.1 -379.99)"><mask id="b" fill="#fff"><use xlink:href="#a"/></mask><use fill="#50B7E8" fill-rule="nonzero" xlink:href="#a"/><path fill="#72C9E9" d="M9.878-.356h10.366v19.712H9.878z" mask="url(#b)"/><path fill="#72C9E9" d="M9.878-1.188V9.025l3.78-3.325z" mask="url(#b)"/></g><path fill="#FCDE94" d="M249.872 56.373L199.81 36.147l-26.222 64.903 36.277 14.657 7.224-9.526 12.034 1.547 20.749-51.355"/><path fill="#F9D073" d="M229.123 107.728l-19.258 7.979-18.502-7.475 26.223-64.903 32.286 13.044-20.749 51.355"/><path fill="#A3A4A0" d="M215.338 102.158l-5.473 13.549 19.258-7.98-13.785-5.569"/><path fill="#32B3D9" d="M226.31 89.623l-22.491-9.087a1.166 1.166 0 0 1-.656-1.51c.238-.59.92-.874 1.521-.632l22.492 9.087c.602.244.893.922.655 1.511-.238.59-.919.874-1.52.631M221.767 100.868l-22.491-9.087a1.166 1.166 0 0 1-.656-1.511c.238-.59.92-.874 1.521-.631l22.492 9.087c.602.243.893.921.655 1.51-.238.59-.919.875-1.52.632M192.482 74.71c.643-1.59 2.474-2.347 4.09-1.694 1.617.653 2.408 2.47 1.765 4.06-.642 1.59-2.473 2.348-4.09 1.695-1.616-.654-2.407-2.47-1.765-4.06M187.94 85.955c.642-1.59 2.473-2.348 4.09-1.695 1.616.653 2.407 2.47 1.764 4.06-.642 1.59-2.473 2.348-4.09 1.695-1.616-.653-2.407-2.47-1.765-4.06"/><g><g transform="rotate(22 -24.198 574.71)"><mask id="d" fill="#fff"><use xlink:href="#c"/></mask><use fill="#50B7E8" fill-rule="nonzero" xlink:href="#c"/><path fill="#72C9E9" d="M9.878-.356h10.366v19.712H9.878z" mask="url(#d)"/><path fill="#72C9E9" d="M9.878-1.188V9.025l3.78-3.325z" mask="url(#d)"/></g></g><g><path fill="#FCDE94" d="M195.872 129.373l-50.062-20.226-26.222 64.903 36.277 14.657 7.224-9.526 12.034 1.547 20.749-51.355"/><path fill="#F9D073" d="M175.123 180.728l-19.258 7.979-18.502-7.475 26.223-64.903 32.286 13.044-20.749 51.355"/><path fill="#A3A4A0" d="M161.338 175.158l-5.473 13.549 19.258-7.98-13.785-5.569"/><path fill="#32B3D9" d="M172.31 162.623l-22.491-9.087a1.166 1.166 0 0 1-.656-1.51c.238-.59.92-.874 1.521-.632l22.492 9.087c.602.244.893.922.655 1.511-.238.59-.919.874-1.52.631M167.767 173.868l-22.491-9.087a1.166 1.166 0 0 1-.656-1.511c.238-.59.92-.874 1.521-.631l22.492 9.087c.602.243.893.921.655 1.51-.238.59-.919.875-1.52.632M138.482 147.71c.643-1.59 2.474-2.347 4.09-1.694 1.617.653 2.408 2.47 1.765 4.06-.642 1.59-2.473 2.348-4.09 1.695-1.616-.654-2.407-2.47-1.765-4.06M133.94 158.955c.642-1.59 2.473-2.348 4.09-1.695 1.616.653 2.407 2.47 1.764 4.06-.642 1.59-2.473 2.348-4.09 1.695-1.616-.653-2.407-2.47-1.765-4.06"/><g><g transform="rotate(22 -238.975 472.308)"><mask id="f" fill="#fff"><use xlink:href="#e"/></mask><use fill="#50B7E8" fill-rule="nonzero" xlink:href="#e"/><path fill="#72C9E9" d="M9.878-.356h10.366v19.712H9.878z" mask="url(#f)"/><path fill="#72C9E9" d="M9.878-1.188V9.025l3.78-3.325z" mask="url(#f)"/></g></g></g><g><path fill="#FCDE94" d="M109.819 46.614l-53.96-1.884-2.443 69.957 39.102 1.366 3.53-11.423 11.838-2.662 1.933-55.354"/><path fill="#F9D073" d="M107.886 101.968l-15.368 14.085-19.943-.697L75.018 45.4l34.8 1.215-1.932 55.354"/><path fill="#A3A4A0" d="M93.028 101.449l-.51 14.604 15.368-14.085-14.858-.519"/><path fill="#32B3D9" d="M99.05 85.917l-24.243-.846a1.166 1.166 0 0 1-1.132-1.196 1.166 1.166 0 0 1 1.213-1.113l24.243.847c.649.022 1.155.56 1.133 1.195a1.165 1.165 0 0 1-1.213 1.113M98.627 98.037l-24.243-.846a1.166 1.166 0 0 1-1.133-1.196 1.166 1.166 0 0 1 1.214-1.113l24.243.847c.649.022 1.155.56 1.133 1.195a1.165 1.165 0 0 1-1.214 1.113M62.162 83.473c.06-1.714 1.521-3.052 3.264-2.99 1.743.06 3.107 1.497 3.047 3.21-.06 1.715-1.52 3.053-3.263 2.992-1.743-.06-3.108-1.498-3.048-3.212M61.739 95.593c.06-1.714 1.521-3.052 3.264-2.99 1.743.06 3.107 1.497 3.047 3.21-.06 1.715-1.521 3.053-3.263 2.992-1.743-.06-3.108-1.498-3.048-3.212"/><g><g transform="rotate(2 -1507.443 2140.952)"><mask id="h" fill="#fff"><use xlink:href="#g"/></mask><use fill="#50B7E8" fill-rule="nonzero" xlink:href="#g"/><path fill="#72C9E9" d="M9.878-.356h10.366v19.712H9.878z" mask="url(#h)"/><path fill="#72C9E9" d="M9.878-1.188V9.025l3.78-3.325z" mask="url(#h)"/></g></g></g><g><g transform="rotate(22 -230.392 325.391)"><mask id="j" fill="#fff"><use xlink:href="#i"/></mask><use fill="#50B7E8" fill-rule="nonzero" xlink:href="#i"/><path fill="#72C9E9" d="M9.878-.356h10.366v19.712H9.878z" mask="url(#j)"/><path fill="#72C9E9" d="M9.878-1.188V9.025l3.78-3.325z" mask="url(#j)"/></g></g><g><path fill="#FCDE94" d="M221.35 101.002L170 117.687l21.631 66.574 37.21-12.09-.588-11.941 10.213-6.551-17.116-52.677"/><path fill="#F9D073" d="M238.466 153.679l-9.624 18.491-18.978 6.167-21.631-66.574 33.117-10.76 17.116 52.676"/><path fill="#A3A4A0" d="M224.326 158.273l4.516 13.897 9.624-18.491-14.14 4.594"/><path fill="#32B3D9" d="M224.674 141.618l-23.07 7.496a1.166 1.166 0 0 1-1.474-.736 1.166 1.166 0 0 1 .76-1.46l23.07-7.497c.617-.2 1.277.131 1.473.736a1.165 1.165 0 0 1-.76 1.461M228.421 153.152l-23.07 7.496a1.166 1.166 0 0 1-1.473-.736 1.166 1.166 0 0 1 .759-1.46l23.07-7.497c.618-.2 1.277.131 1.474.736a1.165 1.165 0 0 1-.76 1.461M189.174 151.938c-.53-1.63.386-3.388 2.045-3.927 1.658-.539 3.431.345 3.961 1.976.53 1.63-.385 3.388-2.043 3.927-1.66.539-3.433-.345-3.963-1.976M192.922 163.472c-.53-1.63.386-3.388 2.044-3.927 1.658-.539 3.432.345 3.962 1.976.53 1.63-.386 3.388-2.044 3.927-1.658.539-3.432-.345-3.962-1.976"/></g><g><g transform="rotate(59 -1.585 341.556)"><path fill="#FCDE94" d="M53.993 0H0v70h39.126l3.13-11.538 11.737-3.075V0"/><path fill="#F9D073" d="M53.993 55.388L39.126 70H19.17V0h34.822v55.388"/><path fill="#A3A4A0" d="M39.126 55.388V70l14.867-14.612H39.126"/><path fill="#32B3D9" d="M44.603 39.655H20.345c-.647 0-1.174-.52-1.174-1.155 0-.636.527-1.155 1.174-1.155h24.258c.649 0 1.174.52 1.174 1.155 0 .636-.525 1.155-1.174 1.155M44.603 51.782H20.345c-.647 0-1.174-.519-1.174-1.154 0-.636.527-1.156 1.174-1.156h24.258c.649 0 1.174.52 1.174 1.155 0 .636-.525 1.155-1.174 1.155M7.651 38.5c0-1.715 1.414-3.103 3.158-3.103s3.157 1.388 3.157 3.103c0 1.715-1.413 3.103-3.157 3.103S7.651 40.215 7.651 38.5M7.651 50.627c0-1.715 1.414-3.103 3.158-3.103s3.157 1.389 3.157 3.103c0 1.715-1.413 3.104-3.157 3.104s-3.158-1.389-3.158-3.104"/><mask id="l" fill="#fff"><use xlink:href="#k"/></mask><use fill="#50B7E8" fill-rule="nonzero" xlink:href="#k"/><path fill="#72C9E9" d="M28.713 7.129h10.366v19.712H28.713z" mask="url(#l)"/></g></g><g><g transform="rotate(-18 468.08 -540.716)"><mask id="n" fill="#fff"><use xlink:href="#m"/></mask><use fill="#50B7E8" fill-rule="nonzero" xlink:href="#m"/><path fill="#72C9E9" d="M9.878-.356h10.366v19.712H9.878z" mask="url(#n)"/><path fill="#72C9E9" d="M9.878-1.188V9.025l3.78-3.325z" mask="url(#n)"/></g></g><g><path fill="#CAF5FF" d="M124 222.568l-24.528 26H208l-28-26z"/><path fill="#46C4D1" d="M126.5 220.568h27l-29 28H100z" opacity=".805"/><path fill="#CAF5FF" d="M124 222.568h55.5v-27H124z"/><path fill="#46C4D1" d="M151.496 222.568H179v-27z" opacity=".805"/><path fill="#CAF5FF" fill-opacity=".5" d="M40 141.568h224v-53H40z"/><path fill="#46C4D1" fill-opacity=".5" d="M153 89.568v52h55zM41 89.568v52h54.992z"/><path fill="#90EDFC" fill-opacity=".5" d="M152 88.568H40l55.992 53 .008-.01.008.01zM263 141.568H153l55 54.5-1-1.51 1 1.51zM153 141.568H41l57 54zM264 88.568H152l55.992 53 .008-.01.008.01z"/><path fill="#CAF5FF" fill-opacity=".5" d="M98 195.568h110l-55-54z"/><path fill="#90EDFC" d="M179 195.568h-55l27.496 27h.008z"/><path fill="#90EDFC" d="M124 248.568h55l-27.496-26.014-.004.01-.004-.013z"/><path fill="#46C4D1" fill-opacity=".5" d="M98 195.568l-2.008-54H153zM208 196.068l-.008-54.5H265z"/></g><path fill="#FFC431" d="M287.506 61.186a.918.918 0 0 1 0 1.628c-2.69 1.478-4.632 4.637-5.66 6.67a.95.95 0 0 1-1.69 0c-1.03-2.033-2.971-5.192-5.66-6.67a.917.917 0 0 1 0-1.628c2.689-1.479 4.63-4.638 5.66-6.669a.949.949 0 0 1 1.69 0c1.028 2.031 2.97 5.19 5.66 6.669zM237.506 21.186a.918.918 0 0 1 0 1.628c-2.69 1.478-4.632 4.637-5.66 6.67a.95.95 0 0 1-1.69 0c-1.03-2.033-2.971-5.192-5.66-6.67a.917.917 0 0 1 0-1.628c2.689-1.479 4.63-4.638 5.66-6.669a.949.949 0 0 1 1.69 0c1.028 2.031 2.97 5.19 5.66 6.669zM178.506 9.186a.918.918 0 0 1 0 1.628c-2.69 1.478-4.632 4.637-5.66 6.67a.95.95 0 0 1-1.69 0c-1.03-2.033-2.971-5.192-5.66-6.67a.917.917 0 0 1 0-1.628c2.689-1.479 4.63-4.638 5.66-6.669a.949.949 0 0 1 1.69 0c1.028 2.031 2.97 5.19 5.66 6.669zM97.506 31.186a.918.918 0 0 1 0 1.628c-2.69 1.478-4.632 4.637-5.66 6.67a.95.95 0 0 1-1.69 0c-1.03-2.033-2.971-5.192-5.66-6.67a.917.917 0 0 1 0-1.628c2.689-1.479 4.63-4.638 5.66-6.669a.949.949 0 0 1 1.69 0c1.028 2.031 2.97 5.19 5.66 6.669zM45.506 41.186a.918.918 0 0 1 0 1.628c-2.69 1.478-4.632 4.637-5.66 6.67a.95.95 0 0 1-1.69 0c-1.03-2.033-2.971-5.192-5.66-6.67a.917.917 0 0 1 0-1.628c2.689-1.479 4.63-4.638 5.66-6.669a.949.949 0 0 1 1.69 0c1.028 2.031 2.97 5.19 5.66 6.669z"/></g></svg>