<svg height="250" viewBox="0 0 350 250" width="350" xmlns="http://www.w3.org/2000/svg"><g fill="none" fill-rule="evenodd"><path d="m195.153 119.1h10.681v-5.341h-10.681z" fill="#777"/><path d="m192.902 113.759h15.182v-6.135h-15.182z" fill="#aaa"/><path d="m175 142.208c0-14.045 11.385-25.43 25.43-25.43 14.044 0 25.429 11.385 25.429 25.43 0 14.044-11.385 25.43-25.429 25.43-14.045 0-25.43-11.386-25.43-25.43z" fill="#ed6060"/><path d="m182.45 160.22c10.142 10.143 26.032 9.932 35.962 0 9.93-9.93 10.142-25.82 0-35.962z" fill="#e23b3b"/><path d="m180.892 142.208c0-10.79 8.747-19.538 19.538-19.538 10.79 0 19.537 8.747 19.537 19.538 0 10.79-8.747 19.537-19.537 19.537s-19.538-8.747-19.538-19.537" fill="#fff"/><g stroke="#777" stroke-linecap="round" stroke-linejoin="round"><path d="m175 142.208c0-14.045 11.385-25.43 25.43-25.43 14.044 0 25.429 11.385 25.429 25.43 0 14.044-11.385 25.43-25.429 25.43-14.045 0-25.43-11.386-25.43-25.43z" stroke-width="1.656"/><path d="m200.365 128.984v-1.987m0 31.293v-1.49" stroke-width="1.49"/><path d="m210.083 132.876 1.377-1.378m-.77 20.596 1.378 1.378" stroke-width="1.461"/><path d="m214.521 142.643h1.49" stroke-width="1.49"/><path d="m190.829 132.876-1.377-1.378m.768 20.596-1.377 1.378" stroke-width="1.461"/><path d="m186.705 142.643h-1.987" stroke-width="1.49"/><path d="m200.116 133.95v9.438h9.438" stroke-width="1.987"/></g><path d="m187.445 150.501c-.87-.487-1.497-1.527-1.83-2.196a.303.303 0 0 0 -.546 0c-.332.67-.96 1.71-1.83 2.196a.305.305 0 0 0 0 .536c.87.487 1.498 1.528 1.83 2.197a.304.304 0 0 0 .546 0c.333-.669.96-1.71 1.83-2.197a.305.305 0 0 0 0-.536" fill="#fff"/><path d="m192.833 68.586-9.062-5.653 2.827-4.532 9.062 5.654z" fill="#777"/><path d="m200.816 60.042-12.88-8.036-3.248 5.204 12.881 8.036z" fill="#aaa"/><path d="m154.441 71.87c7.434-11.915 23.12-15.548 35.035-8.114 11.916 7.434 15.55 23.12 8.115 35.035-7.434 11.916-23.12 15.55-35.036 8.115-11.915-7.434-15.548-23.12-8.114-35.036" fill="#ed6060"/><path d="m151.227 91.097c3.236 13.972 16.83 22.204 30.511 19.035 13.682-3.17 22.272-16.538 19.036-30.511z" fill="#e23b3b"/><path d="m159.44 74.99c5.711-9.155 17.763-11.946 26.917-6.235 9.155 5.712 11.946 17.762 6.235 26.918-5.712 9.154-17.763 11.945-26.918 6.234-9.154-5.712-11.945-17.764-6.234-26.918" fill="#fff"/><path d="m154.441 71.87c7.434-11.915 23.12-15.548 35.035-8.114 11.916 7.434 15.55 23.12 8.115 35.035-7.434 11.916-23.12 15.55-35.036 8.115-11.915-7.434-15.548-23.12-8.114-35.036z" stroke="#777" stroke-linecap="round" stroke-linejoin="round" stroke-width="1.656"/><path d="m182.961 74.077 1.051-1.686m-16.563 26.549.789-1.263" stroke="#777" stroke-linecap="round" stroke-linejoin="round" stroke-width="1.49"/><path d="m189.146 82.524 1.898-.44m-11.554 17.066.438 1.898" stroke="#777" stroke-linecap="round" stroke-linejoin="round" stroke-width="1.461"/><path d="m187.741 93.16 1.264.788" stroke="#777" stroke-linecap="round" stroke-linejoin="round" stroke-width="1.49"/><path d="m172.81 72.331-.44-1.897m-10.248 17.881-1.898.439" stroke="#777" stroke-linecap="round" stroke-linejoin="round" stroke-width="1.461"/><path d="m164.142 78.436-1.686-1.052" stroke="#777" stroke-linecap="round" stroke-linejoin="round" stroke-width="1.49"/><path d="m180.121 78.16-4.996 8.007 8.008 4.995" stroke="#777" stroke-linecap="round" stroke-linejoin="round" stroke-width="1.987"/><path d="m160.61 85.494c-.48-.873-.461-2.089-.39-2.832a.304.304 0 0 0 -.463-.289c-.637.392-1.72.942-2.715.894a.305.305 0 0 0 -.284.456c.48.874.46 2.088.39 2.833a.304.304 0 0 0 .463.29c.636-.393 1.72-.944 2.715-.897a.305.305 0 0 0 .284-.455" fill="#fff"/><path d="m84.833 68.586-9.062-5.653 2.827-4.532 9.062 5.654z" fill="#777"/><path d="m92.816 60.042-12.88-8.036-3.248 5.204 12.881 8.036z" fill="#aaa"/><path d="m46.441 71.87c7.434-11.915 23.12-15.548 35.035-8.114 11.916 7.434 15.55 23.12 8.115 35.035-7.434 11.916-23.12 15.55-35.036 8.115-11.915-7.434-15.548-23.12-8.114-35.036" fill="#ed6060"/><path d="m43.227 91.097c3.236 13.972 16.83 22.204 30.511 19.035 13.682-3.17 22.272-16.538 19.036-30.511z" fill="#e23b3b"/><path d="m51.44 74.99c5.711-9.155 17.763-11.946 26.917-6.235 9.155 5.712 11.946 17.762 6.235 26.918-5.712 9.154-17.763 11.945-26.918 6.234-9.154-5.712-11.944-17.764-6.234-26.917" fill="#fff"/><path d="m46.441 71.87c7.434-11.915 23.12-15.548 35.035-8.114 11.916 7.434 15.55 23.12 8.115 35.035-7.434 11.916-23.12 15.55-35.036 8.115-11.915-7.434-15.548-23.12-8.114-35.036z" stroke="#777" stroke-linecap="round" stroke-linejoin="round" stroke-width="1.656"/><path d="m74.961 74.077 1.051-1.686m-16.563 26.549.789-1.263" stroke="#777" stroke-linecap="round" stroke-linejoin="round" stroke-width="1.49"/><path d="m81.146 82.524 1.898-.44m-11.554 17.066.438 1.898" stroke="#777" stroke-linecap="round" stroke-linejoin="round" stroke-width="1.461"/><path d="m79.741 93.16 1.264.788" stroke="#777" stroke-linecap="round" stroke-linejoin="round" stroke-width="1.49"/><path d="m64.81 72.331-.44-1.897m-10.248 17.881-1.898.439" stroke="#777" stroke-linecap="round" stroke-linejoin="round" stroke-width="1.461"/><path d="m56.142 78.436-1.686-1.052" stroke="#777" stroke-linecap="round" stroke-linejoin="round" stroke-width="1.49"/><path d="m72.121 78.16-4.996 8.007 8.008 4.995" stroke="#777" stroke-linecap="round" stroke-linejoin="round" stroke-width="1.987"/><path d="m52.61 85.494c-.48-.873-.461-2.089-.39-2.832a.304.304 0 0 0 -.463-.289c-.637.392-1.72.942-2.715.894a.305.305 0 0 0 -.284.456c.48.874.46 2.088.39 2.833a.304.304 0 0 0 .463.29c.636-.393 1.72-.944 2.715-.897a.305.305 0 0 0 .284-.455" fill="#fff"/><path d="m105.833 123.586-9.062-5.653 2.827-4.532 9.062 5.654z" fill="#777"/><path d="m113.816 115.042-12.88-8.036-3.248 5.204 12.881 8.036z" fill="#aaa"/><path d="m67.441 126.87c7.434-11.915 23.12-15.548 35.035-8.114 11.916 7.434 15.55 23.12 8.115 35.035-7.434 11.916-23.12 15.55-35.036 8.115-11.915-7.434-15.548-23.12-8.114-35.036" fill="#ed6060"/><path d="m64.227 146.097c3.236 13.972 16.83 22.204 30.511 19.035 13.682-3.17 22.272-16.538 19.036-30.511z" fill="#e23b3b"/><path d="m72.44 129.99c5.711-9.155 17.763-11.946 26.917-6.235 9.155 5.712 11.946 17.762 6.235 26.918-5.712 9.154-17.763 11.945-26.918 6.234-9.154-5.712-11.945-17.764-6.234-26.918" fill="#fff"/><path d="m67.441 126.87c7.434-11.915 23.12-15.548 35.035-8.114 11.916 7.434 15.55 23.12 8.115 35.035-7.434 11.916-23.12 15.55-35.036 8.115-11.915-7.434-15.548-23.12-8.114-35.036z" stroke="#777" stroke-linecap="round" stroke-linejoin="round" stroke-width="1.656"/><path d="m95.961 129.077 1.051-1.686m-16.563 26.549.789-1.263" stroke="#777" stroke-linecap="round" stroke-linejoin="round" stroke-width="1.49"/><path d="m102.146 137.524 1.898-.44m-11.554 17.066.438 1.898" stroke="#777" stroke-linecap="round" stroke-linejoin="round" stroke-width="1.461"/><path d="m100.741 148.16 1.264.788" stroke="#777" stroke-linecap="round" stroke-linejoin="round" stroke-width="1.49"/><path d="m85.81 127.331-.44-1.897m-10.248 17.881-1.898.439" stroke="#777" stroke-linecap="round" stroke-linejoin="round" stroke-width="1.461"/><path d="m77.142 133.436-1.686-1.052" stroke="#777" stroke-linecap="round" stroke-linejoin="round" stroke-width="1.49"/><path d="m93.121 133.16-4.996 8.007 8.008 4.995" stroke="#777" stroke-linecap="round" stroke-linejoin="round" stroke-width="1.987"/><path d="m73.61 140.494c-.48-.873-.461-2.089-.39-2.832a.304.304 0 0 0 -.463-.289c-.637.392-1.72.942-2.715.894a.305.305 0 0 0 -.284.456c.48.874.46 2.088.39 2.833a.304.304 0 0 0 .463.29c.636-.393 1.72-.944 2.715-.897a.305.305 0 0 0 .284-.455" fill="#fff"/><path d="m130.274 55.384-10.337 2.691-1.345-5.169 10.336-2.69z" fill="#777"/><path d="m129.561 43.712-14.692 3.825 1.545 5.937 14.692-3.825z" fill="#aaa"/><path d="m106.257 85.515c-3.538-13.591 4.61-27.478 18.203-31.016 13.59-3.538 27.477 4.612 31.016 18.203 3.538 13.59-4.612 27.477-18.203 31.016-13.591 3.538-27.477-4.611-31.016-18.203" fill="#ed6060"/><path d="m118.005 101.07c12.37 7.26 27.693 3.052 34.802-9.06 7.108-12.113 3.309-27.544-9.06-34.803z" fill="#e23b3b"/><path d="m111.959 84.03c-2.718-10.44 3.543-21.11 13.985-23.829s21.111 3.543 23.829 13.984c2.719 10.443-3.543 21.112-13.984 23.83-10.443 2.718-21.111-3.543-23.83-13.985" fill="#fff"/><path d="m106.257 85.515c-3.538-13.591 4.61-27.478 18.203-31.016 13.59-3.538 27.477 4.612 31.016 18.203 3.538 13.59-4.612 27.477-18.203 31.016-13.591 3.538-27.477-4.611-31.016-18.203z" stroke="#777" stroke-linecap="round" stroke-linejoin="round" stroke-width="1.656"/><path d="m127.472 66.327-.5-1.923m7.883 30.284-.375-1.441" stroke="#777" stroke-linecap="round" stroke-linejoin="round" stroke-width="1.49"/><path d="m137.857 67.646.986-1.681m4.444 20.125 1.681.986" stroke="#777" stroke-linecap="round" stroke-linejoin="round" stroke-width="1.461"/><path d="m144.613 75.98 1.442-.376" stroke="#777" stroke-linecap="round" stroke-linejoin="round" stroke-width="1.49"/><path d="m119.224 72.496-1.68-.986m5.933 19.737-.986 1.681" stroke="#777" stroke-linecap="round" stroke-linejoin="round" stroke-width="1.461"/><path d="m117.694 82.987-1.923.502" stroke="#777" stroke-linecap="round" stroke-linejoin="round" stroke-width="1.49"/><path d="m128.483 71.197 2.377 9.132 9.134-2.376" stroke="#777" stroke-linecap="round" stroke-linejoin="round" stroke-width="1.987"/><path d="m120.39 90.405c-.964-.252-1.834-1.1-2.325-1.664a.304.304 0 0 0 -.528.137c-.153.731-.499 1.897-1.217 2.587a.304.304 0 0 0 .135.52c.964.251 1.833 1.1 2.324 1.664.167.191.476.11.528-.138.154-.73.5-1.896 1.218-2.586a.306.306 0 0 0 -.135-.52" fill="#fff"/><path d="m144.274 118.384-10.337 2.691-1.345-5.169 10.336-2.69z" fill="#777"/><path d="m143.561 106.712-14.692 3.825 1.545 5.937 14.692-3.825z" fill="#aaa"/><path d="m120.257 148.515c-3.538-13.591 4.61-27.478 18.203-31.016 13.59-3.538 27.477 4.612 31.016 18.203 3.538 13.59-4.612 27.477-18.203 31.016-13.591 3.538-27.477-4.611-31.016-18.203" fill="#ed6060"/><path d="m132.005 164.07c12.37 7.26 27.693 3.052 34.802-9.06 7.108-12.112 3.309-27.543-9.06-34.802l-25.742 43.863z" fill="#e23b3b"/><path d="m125.959 147.03c-2.718-10.44 3.543-21.11 13.985-23.829s21.111 3.543 23.829 13.984c2.719 10.443-3.543 21.112-13.984 23.83-10.443 2.718-21.111-3.543-23.83-13.985" fill="#fff"/><path d="m120.257 148.515c-3.538-13.591 4.61-27.478 18.203-31.016 13.59-3.538 27.477 4.612 31.016 18.203 3.538 13.59-4.612 27.477-18.203 31.016-13.591 3.538-27.477-4.611-31.016-18.203z" stroke="#777" stroke-linecap="round" stroke-linejoin="round" stroke-width="1.656"/><path d="m141.472 129.327-.5-1.923m7.883 30.284-.375-1.441" stroke="#777" stroke-linecap="round" stroke-linejoin="round" stroke-width="1.49"/><path d="m151.857 130.646.986-1.681m4.444 20.125 1.681.986" stroke="#777" stroke-linecap="round" stroke-linejoin="round" stroke-width="1.461"/><path d="m158.613 138.98 1.442-.376" stroke="#777" stroke-linecap="round" stroke-linejoin="round" stroke-width="1.49"/><path d="m133.224 135.496-1.68-.986m5.933 19.737-.986 1.681" stroke="#777" stroke-linecap="round" stroke-linejoin="round" stroke-width="1.461"/><path d="m131.694 145.988-1.923.5" stroke="#777" stroke-linecap="round" stroke-linejoin="round" stroke-width="1.49"/><path d="m142.483 134.197 2.377 9.133 9.134-2.377" stroke="#777" stroke-linecap="round" stroke-linejoin="round" stroke-width="1.987"/><path d="m134.39 153.405c-.964-.252-1.834-1.1-2.325-1.664a.304.304 0 0 0 -.528.137c-.153.731-.499 1.897-1.217 2.587a.304.304 0 0 0 .135.52c.964.251 1.833 1.1 2.324 1.664.167.191.476.11.528-.138.154-.73.5-1.896 1.218-2.586a.306.306 0 0 0 -.135-.52" fill="#fff"/><path d="m65.041 36.733c-2.667-1.494-4.593-4.687-5.614-6.74a.933.933 0 0 0 -1.676 0c-1.022 2.053-2.947 5.246-5.615 6.74a.935.935 0 0 0 0 1.646c2.668 1.494 4.593 4.687 5.615 6.74a.934.934 0 0 0 1.676 0c1.02-2.053 2.947-5.246 5.615-6.74a.936.936 0 0 0 0-1.646m159.22-4.982c-2.668-1.493-4.594-4.687-5.615-6.74a.933.933 0 0 0 -1.676 0c-1.021 2.053-2.947 5.247-5.615 6.74a.935.935 0 0 0 0 1.646c2.668 1.495 4.594 4.688 5.615 6.741a.933.933 0 0 0 1.676 0c1.02-2.053 2.947-5.246 5.615-6.74a.936.936 0 0 0 0-1.647m-47.672-14.488c-2.667-1.494-4.593-4.687-5.614-6.74a.933.933 0 0 0 -1.676 0c-1.021 2.053-2.947 5.246-5.615 6.74a.935.935 0 0 0 0 1.646c2.668 1.494 4.594 4.688 5.615 6.74a.934.934 0 0 0 1.676 0c1.02-2.052 2.947-5.246 5.615-6.74a.936.936 0 0 0 0-1.646m-52.934 6.402c-2.668-1.493-4.594-4.687-5.615-6.74a.933.933 0 0 0 -1.676 0c-1.021 2.053-2.947 5.247-5.615 6.74a.935.935 0 0 0 0 1.646c2.668 1.495 4.594 4.688 5.615 6.741a.933.933 0 0 0 1.676 0c1.02-2.053 2.947-5.246 5.615-6.74a.936.936 0 0 0 0-1.647" fill="#ffc431"/><path d="m112 218.568-24.528 26h108.528l-28-26z" fill="#caf5ff"/><path d="m111.97 218.568h27.53l-27 26.017h-25.398z" fill="#46c4d1" opacity=".846"/><path d="m112 218.568h55.5v-27h-55.5z" fill="#caf5ff"/><path d="m139.496 218.568h27.504v-27z" fill="#46c4d1" opacity=".846"/><path d="m28 137.568h224v-53h-224z" fill="#caf5ff" fill-opacity=".5"/><path d="m141 85.568v52h55zm-112 0v52h54.992z" fill="#46c4d1" fill-opacity=".5"/><path d="m140 84.568h-112l55.992 53 .008-.01.008.01zm111 53h-110l55 54.5-1-1.51 1 1.51zm-110 0h-112l57 54zm111-53h-112l55.992 53 .008-.01.008.01z" fill="#90edfc" fill-opacity=".5"/><path d="m86 191.568h110l-55-54z" fill="#caf5ff" fill-opacity=".5"/><path d="m167 191.568h-55l27.496 27h.008z" fill="#90edfc"/><path d="m112 244.568h55l-27.496-26.014-.004.01-.004-.013z" fill="#90edfc"/><path d="m86 191.568-2.008-54h57.008zm110 .5-.008-54.5h57.008z" fill="#46c4d1" fill-opacity=".5"/><path d="m292.153 200.1h10.681v-5.341h-10.681z" fill="#777"/><path d="m289.902 194.759h15.182v-6.135h-15.182z" fill="#aaa"/><path d="m272 223.208c0-14.045 11.385-25.43 25.43-25.43 14.044 0 25.429 11.385 25.429 25.43 0 14.044-11.385 25.43-25.429 25.43-14.045 0-25.43-11.386-25.43-25.43" fill="#ed6060"/><path d="m279.45 241.22c10.142 10.143 26.032 9.932 35.962 0 9.93-9.93 10.142-25.82 0-35.962z" fill="#e23b3b"/><path d="m277.892 223.208c0-10.79 8.747-19.538 19.538-19.538 10.79 0 19.537 8.747 19.537 19.538 0 10.79-8.747 19.537-19.537 19.537s-19.538-8.747-19.538-19.537" fill="#fff"/><path d="m272 223.208c0-14.045 11.385-25.43 25.43-25.43 14.044 0 25.429 11.385 25.429 25.43 0 14.044-11.385 25.43-25.429 25.43-14.045 0-25.43-11.386-25.43-25.43z" stroke="#777" stroke-linecap="round" stroke-linejoin="round" stroke-width="1.656"/><path d="m297.365 209.984v-1.987m0 31.293v-1.49" stroke="#777" stroke-linecap="round" stroke-linejoin="round" stroke-width="1.49"/><path d="m307.082 213.876 1.379-1.378m-.771 20.596 1.378 1.378" stroke="#777" stroke-linecap="round" stroke-linejoin="round" stroke-width="1.461"/><path d="m311.521 223.643h1.49" stroke="#777" stroke-linecap="round" stroke-linejoin="round" stroke-width="1.49"/><path d="m287.829 213.876-1.377-1.378m.768 20.596-1.377 1.378" stroke="#777" stroke-linecap="round" stroke-linejoin="round" stroke-width="1.461"/><path d="m283.705 223.643h-1.987" stroke="#777" stroke-linecap="round" stroke-linejoin="round" stroke-width="1.49"/><path d="m297.116 214.95v9.438h9.438" stroke="#777" stroke-linecap="round" stroke-linejoin="round" stroke-width="1.987"/><path d="m284.445 231.501c-.87-.487-1.497-1.527-1.83-2.196a.303.303 0 0 0 -.546 0c-.332.67-.96 1.71-1.83 2.196a.305.305 0 0 0 0 .536c.87.487 1.498 1.528 1.83 2.197a.304.304 0 0 0 .546 0c.333-.669.96-1.71 1.83-2.197a.305.305 0 0 0 0-.536" fill="#fff"/><path d="m241.833 206.586-9.062-5.653 2.827-4.532 9.062 5.654z" fill="#777"/><path d="m249.816 198.042-12.88-8.036-3.248 5.204 12.881 8.036z" fill="#aaa"/><path d="m203.441 209.87c7.434-11.915 23.12-15.548 35.035-8.114 11.916 7.434 15.55 23.12 8.115 35.035-7.434 11.916-23.12 15.55-35.036 8.115-11.915-7.434-15.548-23.12-8.114-35.036" fill="#ed6060"/><path d="m200.227 229.097c3.236 13.972 16.83 22.204 30.511 19.035 13.682-3.17 22.272-16.538 19.036-30.511z" fill="#e23b3b"/><path d="m208.44 212.99c5.711-9.155 17.763-11.946 26.917-6.235 9.155 5.712 11.946 17.762 6.235 26.918-5.712 9.154-17.763 11.945-26.918 6.234-9.154-5.712-11.945-17.764-6.234-26.918" fill="#fff"/><path d="m203.441 209.87c7.434-11.915 23.12-15.548 35.035-8.114 11.916 7.434 15.55 23.12 8.115 35.035-7.434 11.916-23.12 15.55-35.036 8.115-11.915-7.434-15.548-23.12-8.114-35.036z" stroke="#777" stroke-linecap="round" stroke-linejoin="round" stroke-width="1.656"/><path d="m231.961 212.077 1.051-1.686m-16.563 26.549.789-1.263" stroke="#777" stroke-linecap="round" stroke-linejoin="round" stroke-width="1.49"/><path d="m238.146 220.524 1.898-.44m-11.554 17.066.438 1.898" stroke="#777" stroke-linecap="round" stroke-linejoin="round" stroke-width="1.461"/><path d="m236.741 231.16 1.264.788" stroke="#777" stroke-linecap="round" stroke-linejoin="round" stroke-width="1.49"/><path d="m221.81 210.331-.44-1.897m-10.248 17.881-1.898.439" stroke="#777" stroke-linecap="round" stroke-linejoin="round" stroke-width="1.461"/><path d="m213.142 216.436-1.686-1.052" stroke="#777" stroke-linecap="round" stroke-linejoin="round" stroke-width="1.49"/><path d="m229.121 216.16-4.996 8.007 8.008 4.995" stroke="#777" stroke-linecap="round" stroke-linejoin="round" stroke-width="1.987"/><path d="m209.61 223.494c-.48-.873-.461-2.089-.39-2.832a.304.304 0 0 0 -.463-.289c-.637.392-1.72.942-2.715.894a.305.305 0 0 0 -.284.456c.48.874.46 2.088.39 2.833a.304.304 0 0 0 .463.29c.636-.393 1.72-.944 2.715-.897a.305.305 0 0 0 .284-.455" fill="#fff"/></g></svg>