<svg height="250" viewBox="0 0 350 250" width="350" xmlns="http://www.w3.org/2000/svg" xmlns:xlink="http://www.w3.org/1999/xlink"><mask id="a" fill="#fff"><path d="m0 249.345h296.139v-249.345h-296.139z" fill="#fff" fill-rule="evenodd"/></mask><g fill="none" fill-rule="evenodd" transform="translate(29 -1)"><path d="m38.041 36.733a.936.936 0 0 1 0 1.646c-2.667 1.494-4.593 4.687-5.614 6.74a.934.934 0 0 1 -1.677 0c-1.021-2.053-2.947-5.246-5.614-6.74a.935.935 0 0 1 0-1.646c2.668-1.494 4.593-4.687 5.614-6.74a.933.933 0 0 1 1.676 0c1.021 2.053 2.947 5.246 5.615 6.74zm159.221-4.982c-2.668-1.493-4.594-4.687-5.615-6.74a.933.933 0 0 0 -1.676 0c-1.021 2.053-2.947 5.247-5.615 6.74a.935.935 0 0 0 0 1.646c2.668 1.495 4.594 4.688 5.615 6.741a.933.933 0 0 0 1.676 0c1.02-2.053 2.947-5.246 5.615-6.74a.936.936 0 0 0 0-1.647m-47.672-24.488c-2.667-1.494-4.593-4.687-5.614-6.74a.933.933 0 0 0 -1.676 0c-1.021 2.053-2.947 5.246-5.615 6.74a.935.935 0 0 0 0 1.646c2.668 1.494 4.594 4.688 5.615 6.74a.934.934 0 0 0 1.676 0c1.02-2.052 2.947-5.246 5.615-6.74a.936.936 0 0 0 0-1.646m-52.934 16.402c-2.668-1.493-4.594-4.687-5.615-6.74a.933.933 0 0 0 -1.676 0c-1.021 2.053-2.947 5.247-5.615 6.74a.935.935 0 0 0 0 1.646c2.668 1.495 4.594 4.688 5.615 6.741a.933.933 0 0 0 1.676 0c1.02-2.053 2.947-5.246 5.615-6.74a.936.936 0 0 0 0-1.647" fill="#ffc431"/><path d="m168.002 118.66h10.602v-5.301h-10.602z" fill="#777" mask="url(#a)"/><path d="m165.768 113.36h15.069v-6.089h-15.069zm-17.768 28.237c0-13.94 11.3-25.241 25.24-25.241s25.24 11.3 25.24 25.24-11.3 25.24-25.24 25.24-25.24-11.3-25.24-25.24" fill="#81ce74" mask="url(#a)"/><path d="m155.394 159.476c10.066 10.065 25.837 9.856 35.694-.001 9.857-9.856 10.067-25.628.001-35.694z" fill="#ffdd12" mask="url(#a)"/><path d="m153.848 141.597c0-10.71 8.682-19.393 19.392-19.393s19.392 8.683 19.392 19.393-8.682 19.392-19.392 19.392-19.392-8.682-19.392-19.392" fill="#fff" mask="url(#a)"/><g stroke="#777" stroke-linecap="round" stroke-linejoin="round"><path d="m148 141.597c0-13.94 11.3-25.241 25.24-25.241s25.24 11.3 25.24 25.24-11.3 25.24-25.24 25.24-25.24-11.3-25.24-25.24z" mask="url(#a)" stroke-width="1.644"/><path d="m175.5 128.568v-4" mask="url(#a)"/><path d="m182.821 132.334 1.367-1.368m-.763 20.444 1.367 1.366m-21.082-20.442-1.368-1.368m.765 20.444-1.368 1.366" mask="url(#a)" stroke-width="1.45"/><path d="m175.5 136.568v6.5h5.5" mask="url(#a)"/></g><path d="m160.352 149.828c-.863-.483-1.486-1.517-1.816-2.18a.303.303 0 0 0 -.542 0c-.33.663-.954 1.697-1.817 2.18a.302.302 0 0 0 0 .532c.863.484 1.486 1.517 1.817 2.181a.302.302 0 0 0 .542 0c.33-.664.953-1.697 1.816-2.18a.303.303 0 0 0 0-.533" fill="#fff" mask="url(#a)"/><path d="m79.006 123.755-8.962-5.663 2.831-4.48 8.963 5.663z" fill="#777" mask="url(#a)"/><path d="m86.978 115.32-12.738-8.05-3.252 5.148 12.739 8.05zm-46.096 11.476c7.447-11.784 23.036-15.3 34.82-7.854 11.785 7.447 15.3 23.037 7.855 34.821-7.447 11.784-23.036 15.301-34.821 7.853-11.784-7.446-15.3-23.036-7.854-34.82" fill="#81ce74" mask="url(#a)"/><path d="m37.582 145.86c3.133 13.888 16.577 22.136 30.175 19.068 13.598-3.067 22.2-16.288 19.069-30.174z" fill="#ffdd12" mask="url(#a)"/><path d="m45.826 129.92c5.721-9.054 17.698-11.755 26.752-6.034 9.054 5.722 11.755 17.7 6.035 26.753-5.722 9.053-17.699 11.755-26.753 6.034-9.054-5.722-11.755-17.698-6.034-26.753" fill="#fff" mask="url(#a)"/><path d="m40.882 126.796c7.447-11.784 23.036-15.3 34.82-7.854 11.785 7.447 15.3 23.037 7.855 34.821-7.447 11.784-23.036 15.301-34.821 7.853-11.784-7.446-15.3-23.036-7.854-34.82z" mask="url(#a)" stroke="#777" stroke-linecap="round" stroke-linejoin="round" stroke-width="1.644"/><path d="m69.077 129.501 1.033-1.635" mask="url(#a)" stroke="#777" stroke-linecap="round" stroke-linejoin="round" stroke-width="1.934"/><path d="m75.267 137.568 1.886-.426m-11.566 16.874.426 1.886m-6.902-28.543-.425-1.887m-10.274 17.689-1.887.426" mask="url(#a)" stroke="#777" stroke-linecap="round" stroke-linejoin="round" stroke-width="1.45"/><path d="m65.977 134.406-4.65 7.36 7.359 4.65" mask="url(#a)" stroke="#777" stroke-linecap="round" stroke-linejoin="round" stroke-width="1.934"/><path d="m46.927 140.354c-.471-.87-.446-2.075-.371-2.813a.302.302 0 0 0 -.458-.29c-.634.385-1.712.925-2.7.874a.301.301 0 0 0 -.284.449c.47.87.446 2.076.37 2.813a.301.301 0 0 0 .459.29c.633-.385 1.712-.926 2.7-.873.242.013.4-.237.284-.45" fill="#fff" mask="url(#a)"/><path d="m166.006 68.755-8.962-5.663 2.831-4.48 8.963 5.663z" fill="#777" mask="url(#a)"/><path d="m173.978 60.32-12.739-8.05-3.251 5.148 12.738 8.05zm-46.096 11.476c7.447-11.784 23.036-15.3 34.82-7.854 11.785 7.447 15.3 23.037 7.855 34.821-7.447 11.784-23.036 15.301-34.821 7.853-11.784-7.446-15.3-23.036-7.854-34.82" fill="#81ce74" mask="url(#a)"/><path d="m124.582 90.86c3.133 13.888 16.577 22.136 30.175 19.068 13.598-3.067 22.2-16.288 19.069-30.174z" fill="#ffdd12" mask="url(#a)"/><path d="m132.826 74.92c5.721-9.054 17.698-11.755 26.752-6.034 9.054 5.722 11.755 17.7 6.035 26.753-5.722 9.053-17.699 11.755-26.753 6.034-9.054-5.722-11.755-17.698-6.034-26.753" fill="#fff" mask="url(#a)"/><path d="m127.882 71.796c7.447-11.784 23.036-15.3 34.82-7.854 11.785 7.447 15.3 23.037 7.855 34.821-7.447 11.784-23.036 15.301-34.821 7.853-11.784-7.446-15.3-23.036-7.854-34.82z" mask="url(#a)" stroke="#777" stroke-linecap="round" stroke-linejoin="round" stroke-width="1.644"/><path d="m156.077 74.501 1.033-1.635" mask="url(#a)" stroke="#777" stroke-linecap="round" stroke-linejoin="round" stroke-width="1.934"/><path d="m162.267 82.568 1.886-.426m-11.566 16.874.426 1.886m-6.902-28.543-.425-1.887m-10.274 17.689-1.887.426" mask="url(#a)" stroke="#777" stroke-linecap="round" stroke-linejoin="round" stroke-width="1.45"/><path d="m152.977 79.406-4.65 7.36 7.359 4.65" mask="url(#a)" stroke="#777" stroke-linecap="round" stroke-linejoin="round" stroke-width="1.934"/><path d="m133.927 85.354c-.471-.87-.446-2.075-.371-2.813a.302.302 0 0 0 -.458-.29c-.634.385-1.712.925-2.7.874a.301.301 0 0 0 -.284.449c.47.87.446 2.076.37 2.813a.301.301 0 0 0 .459.29c.633-.385 1.712-.926 2.7-.873.242.013.4-.237.284-.45" fill="#fff" mask="url(#a)"/><path d="m215.006 206.755-8.962-5.663 2.831-4.48 8.963 5.663z" fill="#777" mask="url(#a)"/><path d="m222.978 198.32-12.739-8.05-3.251 5.148 12.738 8.05zm-46.096 11.476c7.447-11.784 23.036-15.3 34.82-7.854 11.785 7.447 15.3 23.037 7.855 34.821-7.447 11.784-23.036 15.301-34.821 7.853-11.784-7.446-15.3-23.036-7.854-34.82" fill="#81ce74" mask="url(#a)"/><path d="m173.582 228.86c3.133 13.888 16.577 22.136 30.175 19.068 13.598-3.067 22.2-16.288 19.069-30.174l-49.244 11.107z" fill="#ffdd12" mask="url(#a)"/><path d="m181.826 212.92c5.721-9.054 17.698-11.755 26.752-6.034 9.054 5.722 11.755 17.7 6.035 26.753-5.722 9.053-17.699 11.755-26.753 6.034-9.054-5.722-11.755-17.698-6.034-26.753" fill="#fff" mask="url(#a)"/><path d="m176.882 209.796c7.447-11.784 23.036-15.3 34.82-7.854 11.785 7.447 15.3 23.037 7.855 34.821-7.447 11.784-23.036 15.301-34.821 7.853-11.784-7.446-15.3-23.036-7.854-34.82z" mask="url(#a)" stroke="#777" stroke-linecap="round" stroke-linejoin="round" stroke-width="1.644"/><path d="m205.077 212.501 1.033-1.635" mask="url(#a)" stroke="#777" stroke-linecap="round" stroke-linejoin="round" stroke-width="1.934"/><path d="m211.267 220.568 1.886-.426m-11.566 16.874.426 1.886m-6.902-28.543-.425-1.887m-10.274 17.689-1.887.426" mask="url(#a)" stroke="#777" stroke-linecap="round" stroke-linejoin="round" stroke-width="1.45"/><path d="m201.977 217.406-4.65 7.36 7.359 4.65" mask="url(#a)" stroke="#777" stroke-linecap="round" stroke-linejoin="round" stroke-width="1.934"/><path d="m182.927 223.354c-.471-.87-.446-2.075-.371-2.813a.302.302 0 0 0 -.458-.29c-.634.385-1.712.925-2.7.874a.301.301 0 0 0 -.284.449c.47.87.446 2.076.37 2.813a.301.301 0 0 0 .459.29c.633-.385 1.712-.926 2.7-.873.242.013.4-.237.284-.45" fill="#fff" mask="url(#a)"/><path d="m117.903 118.872-10.342 2.333-1.166-5.17 10.341-2.334z" fill="#777" mask="url(#a)"/><path d="m117.576 107.27-14.7 3.316 1.34 5.94 14.7-3.316zm-24.24 40.71c-3.067-13.598 5.47-27.107 19.068-30.175 13.598-3.067 27.108 5.47 30.176 19.069 3.067 13.598-5.471 27.108-19.07 30.175-13.597 3.068-27.107-5.47-30.174-19.068" fill="#81ce74" mask="url(#a)"/><path d="m104.483 163.795c12.035 7.604 27.374 3.93 34.82-7.854 7.446-11.785 4.18-27.216-7.854-34.82z" fill="#ffdd12" mask="url(#a)"/><path d="m99.041 146.694c-2.356-10.447 4.202-20.827 14.65-23.184 10.447-2.356 20.827 4.204 23.183 14.65 2.357 10.448-4.202 20.828-14.649 23.184-10.448 2.357-20.828-4.202-23.184-14.65" fill="#fff" mask="url(#a)"/><path d="m93.336 147.98c-3.067-13.598 5.47-27.107 19.068-30.175 13.598-3.067 27.108 5.47 30.176 19.069 3.067 13.598-5.471 27.108-19.07 30.175-13.597 3.068-27.107-5.47-30.174-19.068z" mask="url(#a)" stroke="#777" stroke-linecap="round" stroke-linejoin="round" stroke-width="1.644"/><path d="m115.185 129.956-.426-1.887" mask="url(#a)" stroke="#777" stroke-linecap="round" stroke-linejoin="round" stroke-width="1.934"/><path d="m125.266 131.283 1.033-1.635m3.753 20.11 1.635 1.033m-25.063-15.303-1.635-1.032m5.243 19.773-1.033 1.635" mask="url(#a)" stroke="#777" stroke-linecap="round" stroke-linejoin="round" stroke-width="1.45"/><path d="m116.462 135.617 1.916 8.491 8.49-1.915" mask="url(#a)" stroke="#777" stroke-linecap="round" stroke-linejoin="round" stroke-width="1.934"/><path d="m106.957 153.293c-.948-.282-1.783-1.152-2.251-1.728a.302.302 0 0 0 -.53.12c-.175.72-.555 1.865-1.291 2.526a.303.303 0 0 0 .116.52c.948.281 1.783 1.152 2.251 1.727.16.195.47.125.53-.119.175-.72.556-1.865 1.291-2.527a.302.302 0 0 0 -.116-.519" fill="#fff" mask="url(#a)"/><path d="m103.903 55.872-10.342 2.333-1.166-5.17 10.341-2.334z" fill="#777" mask="url(#a)"/><path d="m103.576 44.27-14.7 3.316 1.34 5.94 14.7-3.316zm-24.24 40.71c-3.067-13.598 5.47-27.107 19.068-30.175 13.598-3.067 27.108 5.47 30.176 19.069 3.067 13.598-5.471 27.108-19.07 30.175-13.597 3.068-27.107-5.47-30.174-19.068" fill="#81ce74" mask="url(#a)"/><path d="m90.483 100.795c12.035 7.604 27.374 3.93 34.82-7.854 7.446-11.785 4.18-27.216-7.854-34.82z" fill="#ffdd12" mask="url(#a)"/><path d="m85.041 83.694c-2.356-10.447 4.202-20.827 14.65-23.184 10.447-2.356 20.827 4.204 23.183 14.65 2.357 10.448-4.202 20.828-14.649 23.184-10.448 2.357-20.828-4.202-23.184-14.65" fill="#fff" mask="url(#a)"/><path d="m79.336 84.98c-3.067-13.598 5.47-27.107 19.068-30.175 13.598-3.067 27.108 5.47 30.176 19.069 3.067 13.598-5.471 27.108-19.07 30.175-13.597 3.068-27.107-5.47-30.174-19.068z" mask="url(#a)" stroke="#777" stroke-linecap="round" stroke-linejoin="round" stroke-width="1.644"/><path d="m101.185 66.956-.426-1.887" mask="url(#a)" stroke="#777" stroke-linecap="round" stroke-linejoin="round" stroke-width="1.934"/><path d="m111.266 68.283 1.033-1.635m3.753 20.11 1.635 1.033m-25.063-15.302-1.635-1.034m5.243 19.774-1.033 1.635" mask="url(#a)" stroke="#777" stroke-linecap="round" stroke-linejoin="round" stroke-width="1.45"/><path d="m102.462 72.617 1.916 8.491 8.49-1.915" mask="url(#a)" stroke="#777" stroke-linecap="round" stroke-linejoin="round" stroke-width="1.934"/><path d="m92.957 90.293c-.948-.282-1.783-1.152-2.251-1.728a.302.302 0 0 0 -.53.12c-.175.72-.555 1.865-1.291 2.526a.303.303 0 0 0 .116.52c.948.281 1.783 1.152 2.251 1.727.16.195.47.125.53-.119.175-.72.556-1.865 1.291-2.527a.302.302 0 0 0 -.116-.519" fill="#fff" mask="url(#a)"/><path d="m58.434 66.796-9.576-4.55 2.274-4.788 9.576 4.55z" fill="#777" mask="url(#a)"/><path d="m65.339 57.466-13.611-6.466-2.613 5.5 13.61 6.466zm-44.202 17.064c5.981-12.593 21.038-17.95 33.63-11.97 12.591 5.983 17.95 21.038 11.968 33.63-5.982 12.591-21.038 17.95-33.629 11.969-12.592-5.983-17.95-21.038-11.969-33.63" fill="#81ce74" mask="url(#a)"/><path d="m20.145 93.852c4.773 13.41 19.109 19.989 32.242 15.315 13.132-4.673 20.09-18.83 15.317-32.241l-47.56 16.926z" fill="#ffdd12" mask="url(#a)"/><path d="m26.42 77.04c4.596-9.675 16.163-13.792 25.837-9.196 9.674 4.595 13.79 16.163 9.195 25.837-4.595 9.673-16.163 13.79-25.837 9.195-9.674-4.596-13.79-16.163-9.195-25.837" fill="#fff" mask="url(#a)"/><path d="m21.137 74.53c5.981-12.593 21.038-17.95 33.63-11.97 12.591 5.983 17.95 21.038 11.968 33.63-5.982 12.591-21.038 17.95-33.629 11.969-12.592-5.983-17.95-21.038-11.969-33.63z" mask="url(#a)" stroke="#777" stroke-linecap="round" stroke-linejoin="round" stroke-width="1.644"/><path d="m49.453 73.838.83-1.748" mask="url(#a)" stroke="#777" stroke-linecap="round" stroke-linejoin="round" stroke-width="1.934"/><path d="m56.565 81.105 1.822-.648m-9.462 18.136.648 1.822m-10.27-27.511-.648-1.822m-8.082 18.793-1.822.648" mask="url(#a)" stroke="#777" stroke-linecap="round" stroke-linejoin="round" stroke-width="1.45"/><path d="m46.963 79.08-3.735 7.861 7.862 3.736" mask="url(#a)" stroke="#777" stroke-linecap="round" stroke-linejoin="round" stroke-width="1.934"/><path d="m28.574 87.117c-.572-.808-.691-2.008-.705-2.749a.302.302 0 0 0 -.49-.232c-.583.458-1.59 1.124-2.576 1.19a.302.302 0 0 0 -.228.48c.572.807.69 2.007.705 2.748a.302.302 0 0 0 .489.234c.584-.459 1.59-1.124 2.576-1.19a.302.302 0 0 0 .229-.48" fill="#fff" mask="url(#a)"/><path d="m85 218.568-24.528 26h108.528l-28-26z" fill="#caf5ff" mask="url(#a)"/><path d="m85.5 218.568h27l-27 25.8h-25.056z" fill="#46c4d1" mask="url(#a)" opacity=".805"/><path d="m85 218.568h55.5v-27h-55.5z" fill="#caf5ff" mask="url(#a)"/><path d="m112.496 218.568h27.504v-27z" fill="#46c4d1" mask="url(#a)" opacity=".805"/><path d="m1 137.568h224v-53h-224z" fill="#caf5ff" fill-opacity=".5" mask="url(#a)"/><path d="m114 85.568v52h55zm-112 0v52h54.992z" fill="#46c4d1" fill-opacity=".5" mask="url(#a)"/><path d="m113 84.568h-112l55.992 53 .008-.01.008.01zm111 53h-110l55 54.5-1-1.51 1 1.51zm-110 0h-112l57 54zm111-53h-112l55.992 53 .008-.01.008.01z" fill="#90edfc" fill-opacity=".5" mask="url(#a)"/><path d="m59 191.568h110l-55-54z" fill="#caf5ff" fill-opacity=".5" mask="url(#a)"/><path d="m140 191.568h-55l27.496 27h.008z" fill="#90edfc" mask="url(#a)"/><path d="m85 244.568h55l-27.496-26.014-.004.01-.004-.013z" fill="#90edfc" mask="url(#a)"/><path d="m59 191.568-2.008-54h57.008zm110 .5-.008-54.5h57.008z" fill="#46c4d1" fill-opacity=".5" mask="url(#a)"/><path d="m276.848 200.244-10.582-.655.328-5.29 10.582.655z" fill="#777" mask="url(#a)"/><path d="m279.782 189.015-15.041-.932-.376 6.078 15.04.93zm-34.898 32.23c.862-13.913 12.84-24.494 26.752-23.632 13.914.861 24.494 12.84 23.632 26.752-.862 13.913-12.839 24.494-26.752 23.632-13.913-.86-24.494-12.839-23.632-26.752" fill="#81ce74" mask="url(#a)"/><path d="m251.16 239.547c9.425 10.67 25.179 11.435 35.626 2.206 10.447-9.228 11.63-24.957 2.207-35.626z" fill="#ffdd12" mask="url(#a)"/><path d="m250.722 221.607c.662-10.69 9.864-18.818 20.553-18.156 10.69.662 18.819 9.864 18.156 20.553-.661 10.69-9.863 18.819-20.553 18.157s-18.818-9.865-18.156-20.554" fill="#fff" mask="url(#a)"/><path d="m244.884 221.245c.862-13.913 12.84-24.494 26.752-23.632 13.914.861 24.494 12.84 23.632 26.752-.862 13.913-12.839 24.494-26.752 23.632-13.913-.86-24.494-12.839-23.632-26.752z" mask="url(#a)" stroke="#777" stroke-linecap="round" stroke-linejoin="round" stroke-width="1.644"/><path d="m270.905 210.058.12-1.931" mask="url(#a)" stroke="#777" stroke-linecap="round" stroke-linejoin="round" stroke-width="1.934"/><path d="m280.212 214.153 1.45-1.28m-2.027 20.356 1.28 1.449m-19.777-21.706-1.28-1.45m-.502 20.451-1.45 1.28" mask="url(#a)" stroke="#777" stroke-linecap="round" stroke-linejoin="round" stroke-width="1.45"/><path d="m270.546 215.85-.538 8.688 8.688.538" mask="url(#a)" stroke="#777" stroke-linecap="round" stroke-linejoin="round" stroke-width="1.934"/><path d="m256.705 230.225c-.832-.536-1.39-1.605-1.678-2.288a.301.301 0 0 0 -.541-.034c-.371.642-1.056 1.635-1.948 2.064a.302.302 0 0 0 -.033.53c.832.537 1.389 1.607 1.678 2.29a.302.302 0 0 0 .54.033c.372-.642 1.058-1.635 1.949-2.064a.302.302 0 0 0 .033-.531" fill="#fff" mask="url(#a)"/></g></svg>