<svg height="250" viewBox="0 0 350 250" width="350" xmlns="http://www.w3.org/2000/svg"><g fill="none" fill-rule="evenodd"><path d="m67.041 35.733a.936.936 0 0 1 0 1.646c-2.667 1.494-4.593 4.687-5.614 6.74a.934.934 0 0 1 -1.676 0c-1.022-2.053-2.947-5.246-5.615-6.74a.935.935 0 0 1 0-1.646c2.667-1.494 4.592-4.687 5.614-6.74a.933.933 0 0 1 1.677 0c1.02 2.053 2.947 5.246 5.615 6.74zm159.221-4.982c-2.668-1.493-4.594-4.687-5.615-6.74a.933.933 0 0 0 -1.676 0c-1.021 2.053-2.947 5.247-5.615 6.74a.935.935 0 0 0 0 1.646c2.668 1.495 4.594 4.688 5.615 6.741a.933.933 0 0 0 1.676 0c1.02-2.053 2.947-5.246 5.615-6.74a.936.936 0 0 0 0-1.647m-47.672-20.488c-2.667-1.494-4.593-4.687-5.614-6.74a.933.933 0 0 0 -1.676 0c-1.021 2.053-2.947 5.246-5.615 6.74a.935.935 0 0 0 0 1.646c2.668 1.494 4.594 4.688 5.615 6.74a.934.934 0 0 0 1.676 0c1.02-2.052 2.947-5.246 5.615-6.74a.936.936 0 0 0 0-1.646m-52.934 12.402c-2.668-1.493-4.594-4.687-5.615-6.74a.933.933 0 0 0 -1.676 0c-1.021 2.053-2.947 5.247-5.615 6.74a.935.935 0 0 0 0 1.646c2.668 1.495 4.594 4.688 5.615 6.741a.933.933 0 0 0 1.676 0c1.02-2.053 2.947-5.246 5.615-6.74a.936.936 0 0 0 0-1.647" fill="#ffc431"/><path d="m197.002 117.66h10.602v-5.301h-10.602z" fill="#777"/><path d="m194.768 112.36h15.069v-6.089h-15.069zm-17.768 28.237c0-13.94 11.3-25.241 25.24-25.241s25.24 11.3 25.24 25.24-11.3 25.24-25.24 25.24-25.24-11.3-25.24-25.24" fill="#ffdd12"/><path d="m184.394 158.476c10.066 10.065 25.837 9.856 35.694-.001 9.857-9.856 10.067-25.628.001-35.694z" fill="#eac800"/><path d="m182.848 140.597c0-10.71 8.682-19.393 19.392-19.393s19.392 8.683 19.392 19.393-8.682 19.392-19.392 19.392-19.392-8.682-19.392-19.392" fill="#fff"/><g stroke="#777" stroke-linecap="round" stroke-linejoin="round"><path d="m177 140.597c0-13.94 11.3-25.241 25.24-25.241s25.24 11.3 25.24 25.24-11.3 25.24-25.24 25.24-25.24-11.3-25.24-25.24z" stroke-width="1.644"/><path d="m204.5 127.568v-4"/><path d="m211.821 131.334 1.367-1.368m-.763 20.444 1.367 1.366m-21.082-20.442-1.368-1.368m.765 20.444-1.368 1.366" stroke-width="1.45"/><path d="m204.5 135.568v6.5h5.5"/></g><path d="m189.352 148.828c-.863-.483-1.486-1.517-1.816-2.18a.303.303 0 0 0 -.542 0c-.33.663-.954 1.697-1.817 2.18a.302.302 0 0 0 0 .532c.863.484 1.486 1.517 1.817 2.181a.302.302 0 0 0 .542 0c.33-.664.953-1.697 1.816-2.18a.303.303 0 0 0 0-.533" fill="#fff"/><path d="m108.006 122.755-8.962-5.663 2.831-4.48 8.963 5.663z" fill="#777"/><path d="m115.978 114.32-12.738-8.05-3.253 5.148 12.74 8.05zm-46.096 11.476c7.447-11.784 23.036-15.3 34.82-7.854 11.785 7.447 15.3 23.037 7.855 34.821-7.447 11.784-23.036 15.301-34.821 7.853-11.784-7.446-15.3-23.036-7.854-34.82" fill="#ffdd12"/><path d="m66.582 144.86c3.133 13.888 16.577 22.136 30.175 19.068 13.598-3.067 22.2-16.288 19.069-30.174z" fill="#eac800"/><path d="m74.826 128.92c5.721-9.054 17.698-11.755 26.752-6.034 9.054 5.722 11.755 17.7 6.035 26.753-5.722 9.053-17.699 11.755-26.753 6.034-9.054-5.722-11.755-17.698-6.034-26.753" fill="#fff"/><path d="m69.882 125.796c7.447-11.784 23.036-15.3 34.82-7.854 11.785 7.447 15.3 23.037 7.855 34.821-7.447 11.784-23.036 15.301-34.821 7.853-11.784-7.446-15.3-23.036-7.854-34.82z" stroke="#777" stroke-linecap="round" stroke-linejoin="round" stroke-width="1.644"/><path d="m98.077 128.501 1.033-1.635" stroke="#777" stroke-linecap="round" stroke-linejoin="round" stroke-width="1.934"/><path d="m104.267 136.568 1.886-.426m-11.566 16.874.426 1.886m-6.902-28.543-.425-1.887m-10.274 17.689-1.887.426" stroke="#777" stroke-linecap="round" stroke-linejoin="round" stroke-width="1.45"/><path d="m94.977 133.406-4.65 7.36 7.359 4.65" stroke="#777" stroke-linecap="round" stroke-linejoin="round" stroke-width="1.934"/><path d="m75.927 139.354c-.471-.87-.446-2.075-.371-2.813a.302.302 0 0 0 -.458-.29c-.634.385-1.712.925-2.7.874a.301.301 0 0 0 -.284.449c.47.87.446 2.076.37 2.813a.301.301 0 0 0 .459.29c.633-.385 1.712-.926 2.7-.873.242.013.4-.237.284-.45" fill="#fff"/><path d="m195.006 67.755-8.962-5.663 2.831-4.48 8.963 5.663z" fill="#777"/><path d="m202.978 59.32-12.739-8.05-3.251 5.148 12.738 8.05zm-46.096 11.476c7.447-11.784 23.036-15.3 34.82-7.854 11.785 7.447 15.3 23.037 7.855 34.821-7.447 11.784-23.036 15.301-34.821 7.853-11.784-7.446-15.3-23.036-7.854-34.82" fill="#ffdd12"/><path d="m153.582 89.86c3.133 13.888 16.577 22.136 30.175 19.068 13.598-3.067 22.2-16.288 19.069-30.174z" fill="#eac800"/><path d="m161.826 73.92c5.721-9.054 17.698-11.755 26.752-6.034 9.054 5.722 11.755 17.7 6.035 26.753-5.722 9.053-17.699 11.755-26.753 6.034-9.054-5.722-11.755-17.698-6.034-26.753" fill="#fff"/><path d="m156.882 70.796c7.447-11.784 23.036-15.3 34.82-7.854 11.785 7.447 15.3 23.037 7.855 34.821-7.447 11.784-23.036 15.301-34.821 7.853-11.784-7.446-15.3-23.036-7.854-34.82z" stroke="#777" stroke-linecap="round" stroke-linejoin="round" stroke-width="1.644"/><path d="m185.077 73.501 1.033-1.635" stroke="#777" stroke-linecap="round" stroke-linejoin="round" stroke-width="1.934"/><path d="m191.267 81.568 1.886-.426m-11.566 16.874.426 1.886m-6.902-28.543-.425-1.887m-10.274 17.689-1.887.426" stroke="#777" stroke-linecap="round" stroke-linejoin="round" stroke-width="1.45"/><path d="m181.977 78.406-4.65 7.36 7.359 4.65" stroke="#777" stroke-linecap="round" stroke-linejoin="round" stroke-width="1.934"/><path d="m162.927 84.354c-.471-.87-.446-2.075-.371-2.813a.302.302 0 0 0 -.458-.29c-.634.385-1.712.925-2.7.874a.301.301 0 0 0 -.284.449c.47.87.446 2.076.37 2.813a.301.301 0 0 0 .459.29c.633-.385 1.712-.926 2.7-.873.242.013.4-.237.284-.45" fill="#fff"/><path d="m244.006 205.755-8.962-5.663 2.831-4.48 8.963 5.663z" fill="#777"/><path d="m251.978 197.32-12.739-8.05-3.251 5.148 12.738 8.05zm-46.096 11.476c7.447-11.784 23.036-15.3 34.82-7.854 11.785 7.447 15.3 23.037 7.855 34.821-7.447 11.784-23.036 15.301-34.821 7.853-11.784-7.446-15.3-23.036-7.854-34.82" fill="#ffdd12"/><path d="m202.582 227.86c3.133 13.888 16.577 22.136 30.175 19.068 13.598-3.067 22.2-16.288 19.069-30.174l-49.244 11.107z" fill="#eac800"/><path d="m210.826 211.92c5.721-9.054 17.698-11.755 26.752-6.034 9.054 5.722 11.755 17.7 6.035 26.753-5.722 9.053-17.699 11.755-26.753 6.034-9.054-5.722-11.755-17.698-6.034-26.753" fill="#fff"/><path d="m205.882 208.796c7.447-11.784 23.036-15.3 34.82-7.854 11.785 7.447 15.3 23.037 7.855 34.821-7.447 11.784-23.036 15.301-34.821 7.853-11.784-7.446-15.3-23.036-7.854-34.82z" stroke="#777" stroke-linecap="round" stroke-linejoin="round" stroke-width="1.644"/><path d="m234.077 211.501 1.033-1.635" stroke="#777" stroke-linecap="round" stroke-linejoin="round" stroke-width="1.934"/><path d="m240.267 219.568 1.886-.426m-11.566 16.874.426 1.886m-6.902-28.543-.425-1.887m-10.274 17.689-1.887.426" stroke="#777" stroke-linecap="round" stroke-linejoin="round" stroke-width="1.45"/><path d="m230.977 216.406-4.65 7.36 7.359 4.65" stroke="#777" stroke-linecap="round" stroke-linejoin="round" stroke-width="1.934"/><path d="m211.927 222.354c-.471-.87-.446-2.075-.371-2.813a.302.302 0 0 0 -.458-.29c-.634.385-1.712.925-2.7.874a.301.301 0 0 0 -.284.449c.47.87.446 2.076.37 2.813a.301.301 0 0 0 .459.29c.633-.385 1.712-.926 2.7-.873.242.013.4-.237.284-.45" fill="#fff"/><path d="m146.903 117.872-10.342 2.333-1.166-5.17 10.341-2.334z" fill="#777"/><path d="m146.576 106.27-14.7 3.316 1.34 5.94 14.7-3.316zm-24.24 40.71c-3.067-13.598 5.47-27.107 19.068-30.175 13.598-3.067 27.108 5.47 30.176 19.069 3.067 13.598-5.471 27.108-19.07 30.175-13.597 3.068-27.107-5.47-30.174-19.068" fill="#ffdd12"/><path d="m133.483 162.795c12.035 7.604 27.374 3.93 34.82-7.854 7.446-11.785 4.18-27.216-7.854-34.82z" fill="#eac800"/><path d="m128.041 145.694c-2.356-10.447 4.202-20.827 14.65-23.184 10.447-2.356 20.827 4.204 23.183 14.65 2.357 10.448-4.202 20.828-14.649 23.184-10.448 2.357-20.828-4.202-23.184-14.65" fill="#fff"/><path d="m122.336 146.98c-3.067-13.598 5.47-27.107 19.068-30.175 13.598-3.067 27.108 5.47 30.176 19.069 3.067 13.598-5.471 27.108-19.07 30.175-13.597 3.068-27.107-5.47-30.174-19.068z" stroke="#777" stroke-linecap="round" stroke-linejoin="round" stroke-width="1.644"/><path d="m144.185 128.956-.426-1.887" stroke="#777" stroke-linecap="round" stroke-linejoin="round" stroke-width="1.934"/><path d="m154.266 130.283 1.033-1.635m3.753 20.11 1.635 1.033m-25.063-15.303-1.635-1.032m5.243 19.773-1.033 1.635" stroke="#777" stroke-linecap="round" stroke-linejoin="round" stroke-width="1.45"/><path d="m145.462 134.617 1.916 8.491 8.49-1.915" stroke="#777" stroke-linecap="round" stroke-linejoin="round" stroke-width="1.934"/><path d="m135.957 152.293c-.948-.282-1.783-1.152-2.251-1.728a.302.302 0 0 0 -.53.12c-.175.72-.555 1.865-1.291 2.526a.303.303 0 0 0 .117.52c.947.281 1.782 1.152 2.25 1.727.16.195.47.125.53-.119.175-.72.556-1.865 1.291-2.527a.302.302 0 0 0 -.117-.519" fill="#fff"/><path d="m132.903 54.872-10.342 2.333-1.166-5.17 10.341-2.334z" fill="#777"/><path d="m132.576 43.27-14.7 3.316 1.34 5.94 14.7-3.316zm-24.24 40.71c-3.067-13.598 5.47-27.107 19.068-30.175 13.598-3.067 27.108 5.47 30.176 19.069 3.067 13.598-5.471 27.108-19.07 30.175-13.597 3.068-27.107-5.47-30.174-19.068" fill="#ffdd12"/><path d="m119.483 99.795c12.035 7.604 27.374 3.93 34.82-7.854 7.446-11.785 4.18-27.216-7.854-34.82z" fill="#eac800"/><path d="m114.041 82.694c-2.356-10.447 4.202-20.827 14.65-23.184 10.447-2.356 20.827 4.204 23.183 14.65 2.357 10.448-4.202 20.828-14.649 23.184-10.448 2.357-20.828-4.202-23.184-14.65" fill="#fff"/><path d="m108.336 83.98c-3.067-13.598 5.47-27.107 19.068-30.175 13.598-3.067 27.108 5.47 30.176 19.069 3.067 13.598-5.471 27.108-19.07 30.175-13.597 3.068-27.107-5.47-30.174-19.068z" stroke="#777" stroke-linecap="round" stroke-linejoin="round" stroke-width="1.644"/><path d="m130.185 65.956-.426-1.887" stroke="#777" stroke-linecap="round" stroke-linejoin="round" stroke-width="1.934"/><path d="m140.266 67.283 1.033-1.635m3.753 20.11 1.635 1.033m-25.063-15.302-1.635-1.034m5.243 19.774-1.033 1.635" stroke="#777" stroke-linecap="round" stroke-linejoin="round" stroke-width="1.45"/><path d="m131.462 71.617 1.916 8.491 8.49-1.915" stroke="#777" stroke-linecap="round" stroke-linejoin="round" stroke-width="1.934"/><path d="m121.957 89.293c-.948-.282-1.783-1.152-2.251-1.728a.302.302 0 0 0 -.53.12c-.175.72-.555 1.865-1.291 2.526a.303.303 0 0 0 .116.52c.948.281 1.783 1.152 2.251 1.727.16.195.47.125.53-.119.175-.72.556-1.865 1.291-2.527a.302.302 0 0 0 -.116-.519" fill="#fff"/><path d="m87.434 65.796-9.576-4.55 2.274-4.788 9.576 4.55z" fill="#777"/><path d="m94.339 56.466-13.611-6.466-2.613 5.5 13.61 6.466zm-44.202 17.064c5.981-12.593 21.038-17.95 33.63-11.97 12.591 5.983 17.95 21.038 11.968 33.63-5.982 12.591-21.038 17.95-33.629 11.969-12.592-5.983-17.95-21.038-11.969-33.63" fill="#ffdd12"/><path d="m49.145 92.852c4.772 13.41 19.108 19.989 32.241 15.315 13.134-4.673 20.09-18.83 15.318-32.241l-47.56 16.926z" fill="#eac800"/><path d="m55.42 76.04c4.596-9.675 16.163-13.792 25.837-9.196 9.674 4.595 13.79 16.163 9.195 25.837-4.595 9.673-16.163 13.79-25.837 9.195-9.674-4.596-13.79-16.163-9.195-25.837" fill="#fff"/><path d="m50.137 73.53c5.981-12.593 21.038-17.95 33.63-11.97 12.591 5.983 17.95 21.038 11.968 33.63-5.982 12.591-21.038 17.95-33.629 11.969-12.592-5.983-17.95-21.038-11.969-33.63z" stroke="#777" stroke-linecap="round" stroke-linejoin="round" stroke-width="1.644"/><path d="m78.453 72.838.83-1.748" stroke="#777" stroke-linecap="round" stroke-linejoin="round" stroke-width="1.934"/><path d="m85.565 80.105 1.822-.648m-9.462 18.136.648 1.822m-10.27-27.511-.648-1.822m-8.082 18.793-1.822.648" stroke="#777" stroke-linecap="round" stroke-linejoin="round" stroke-width="1.45"/><path d="m75.963 78.08-3.735 7.861 7.862 3.736" stroke="#777" stroke-linecap="round" stroke-linejoin="round" stroke-width="1.934"/><path d="m57.574 86.117c-.572-.808-.691-2.008-.705-2.749a.302.302 0 0 0 -.49-.232c-.583.458-1.59 1.124-2.576 1.19a.302.302 0 0 0 -.228.48c.572.807.69 2.007.705 2.748a.302.302 0 0 0 .489.234c.584-.459 1.59-1.124 2.576-1.19a.302.302 0 0 0 .229-.48" fill="#fff"/><path d="m305.848 199.244-10.582-.655.328-5.29 10.582.655z" fill="#777"/><path d="m308.782 188.015-15.041-.932-.376 6.078 15.04.93zm-34.898 32.23c.862-13.913 12.84-24.494 26.752-23.632 13.914.861 24.494 12.84 23.632 26.752-.862 13.913-12.839 24.494-26.752 23.632-13.913-.86-24.494-12.839-23.632-26.752" fill="#ffdd12"/><path d="m280.16 238.547c9.425 10.67 25.179 11.435 35.626 2.206 10.447-9.228 11.63-24.957 2.207-35.626z" fill="#eac800"/><path d="m279.722 220.607c.662-10.69 9.864-18.818 20.553-18.156 10.69.662 18.819 9.864 18.156 20.553-.661 10.69-9.863 18.819-20.553 18.157s-18.818-9.865-18.156-20.554" fill="#fff"/><path d="m273.884 220.245c.862-13.913 12.84-24.494 26.752-23.632 13.914.861 24.494 12.84 23.632 26.752-.862 13.913-12.839 24.494-26.752 23.632-13.913-.86-24.494-12.839-23.632-26.752z" stroke="#777" stroke-linecap="round" stroke-linejoin="round" stroke-width="1.644"/><path d="m299.905 209.058.12-1.931" stroke="#777" stroke-linecap="round" stroke-linejoin="round" stroke-width="1.934"/><path d="m309.212 213.153 1.45-1.28m-2.027 20.356 1.28 1.449m-19.777-21.706-1.28-1.45m-.502 20.451-1.45 1.28" stroke="#777" stroke-linecap="round" stroke-linejoin="round" stroke-width="1.45"/><path d="m299.546 214.85-.538 8.688 8.688.538" stroke="#777" stroke-linecap="round" stroke-linejoin="round" stroke-width="1.934"/><path d="m285.705 229.225c-.832-.536-1.39-1.605-1.678-2.288a.301.301 0 0 0 -.541-.034c-.371.642-1.056 1.635-1.948 2.064a.302.302 0 0 0 -.033.53c.832.537 1.389 1.607 1.678 2.29a.302.302 0 0 0 .54.033c.372-.642 1.058-1.635 1.949-2.064a.302.302 0 0 0 .033-.531" fill="#fff"/><path d="m111 222.568-24.528 26h108.528l-28-26z" fill="#caf5ff"/><path d="m111.11 222.568h27.39l-27.39 25.955h-24.785z" fill="#46c4d1" opacity=".805"/><path d="m111 222.568h55.5v-27h-55.5z" fill="#caf5ff"/><path d="m138.496 222.568h27.504v-27z" fill="#46c4d1" opacity=".805"/><path d="m27 141.568h224v-53h-224z" fill="#caf5ff" fill-opacity=".5"/><path d="m140 89.568v52h55zm-112 0v52h54.992z" fill="#46c4d1" fill-opacity=".5"/><path d="m139 88.568h-112l55.992 53 .008-.01.008.01zm111 53h-110l55 54.5-1-1.51 1 1.51zm-110 0h-112l57 54zm111-53h-112l55.992 53 .008-.01.008.01z" fill="#90edfc" fill-opacity=".5"/><path d="m85 195.568h110l-55-54z" fill="#caf5ff" fill-opacity=".5"/><path d="m166 195.568h-55l27.496 27h.008z" fill="#90edfc"/><path d="m111 248.568h55l-27.496-26.014-.004.01-.004-.013z" fill="#90edfc"/><path d="m85 195.568-2.008-54h57.008zm110 .5-.008-54.5h57.008z" fill="#46c4d1" fill-opacity=".5"/></g></svg>