<svg height="250" viewBox="0 0 350 250" width="350" xmlns="http://www.w3.org/2000/svg"><g fill="none" fill-rule="evenodd"><path d="m181.102 40.23-14.983-7.722-15.014-7.736-20.087 9.867 10.63 45.354 43.084-17.658z" fill="#32d6af"/><path d="m131.01 34.652 53.715 27.696-3.624-22.118-29.859-15.388z" fill="#25997a"/><path d="m131.041 34.593 17.909 9.223-7.288 36.151z" fill="#5be8c0"/><path d="m184.74 62.264-17.906-9.232-25.21 26.916z" fill="#2baa85"/><path d="m151.367 24.643-2.36 19.066-17.873-9.21z" fill="#32d6af"/><path d="m181.182 40.075-14.292 12.85-17.884-9.215 2.34-19.027z" fill="#1bc195"/><path d="m152.465 45.11a.54.54 0 0 1 -.435.844c-1.76.06-3.588 1.187-4.652 1.969a.537.537 0 0 1 -.858-.442c.018-1.321-.125-3.464-1.097-4.933a.538.538 0 0 1 .434-.842c1.76-.061 3.589-1.188 4.653-1.97a.537.537 0 0 1 .858.442c-.02 1.32.125 3.463 1.097 4.933z" fill="#fff"/><path d="m151.3 24.773 29.85 15.362 3.59 22.129-43.116 17.684-10.553-45.328z" stroke="#777" stroke-linecap="round" stroke-linejoin="round" stroke-width="1.476"/><path d="m249.081 196.992-15.999-8.244-16.029-8.261-21.448 10.535 11.351 48.425 46.001-18.852z" fill="#32d6af"/><path d="m195.598 191.037 57.353 29.57-3.87-23.615-31.881-16.43z" fill="#25997a"/><path d="m195.63 190.973 19.122 9.848-7.782 38.598z" fill="#5be8c0"/><path d="m252.965 220.518-19.117-9.857-26.918 28.738z" fill="#2baa85"/><path d="m217.333 180.35-2.521 20.356-19.083-9.833z" fill="#32d6af"/><path d="m249.166 196.826-15.259 13.72-19.095-9.84 2.499-20.314z" fill="#1bc195"/><path d="m218.505 202.203c-1.038-1.568-1.191-3.856-1.171-5.267a.573.573 0 0 0 -.916-.471c-1.137.835-3.09 2.038-4.968 2.102a.577.577 0 0 0 -.464.9c1.038 1.569 1.19 3.857 1.17 5.266a.574.574 0 0 0 .917.473c1.137-.835 3.089-2.038 4.968-2.104a.575.575 0 0 0 .464-.9" fill="#fff"/><path d="m217.261 180.489 31.872 16.4 3.832 23.629-46.035 18.88-11.267-48.396z" stroke="#777" stroke-linecap="round" stroke-linejoin="round" stroke-width="1.576"/><path d="m44.64 20.245c-2.668-1.494-4.594-4.687-5.615-6.741a.934.934 0 0 0 -1.676 0c-1.022 2.054-2.947 5.247-5.615 6.74a.935.935 0 0 0 0 1.647c2.668 1.494 4.593 4.687 5.615 6.74a.933.933 0 0 0 1.676 0c1.021-2.053 2.947-5.246 5.615-6.74a.936.936 0 0 0 0-1.646m140.44-4.982c-2.668-1.494-4.594-4.687-5.615-6.74a.933.933 0 0 0 -1.676 0c-1.021 2.053-2.947 5.246-5.615 6.74a.935.935 0 0 0 0 1.646c2.668 1.495 4.594 4.688 5.615 6.741a.934.934 0 0 0 1.676 0c1.02-2.053 2.947-5.246 5.615-6.74a.936.936 0 0 0 0-1.647m38.275 26.385c-2.669-1.493-4.594-4.687-5.616-6.74a.932.932 0 0 0 -1.675 0c-1.022 2.053-2.947 5.247-5.615 6.74a.935.935 0 0 0 0 1.646c2.668 1.495 4.593 4.688 5.615 6.74a.932.932 0 0 0 1.675 0c1.022-2.052 2.947-5.245 5.616-6.74a.936.936 0 0 0 0-1.646m-112.052-24.882c-2.67-1.494-4.594-4.687-5.616-6.74a.932.932 0 0 0 -1.675 0c-1.022 2.053-2.947 5.246-5.616 6.74a.936.936 0 0 0 0 1.646c2.669 1.495 4.594 4.688 5.616 6.741a.933.933 0 0 0 1.675 0c1.022-2.053 2.947-5.246 5.616-6.74a.936.936 0 0 0 0-1.647" fill="#ffc431"/><path d="m62.038 29.535-15.113 7.465-15.143 7.479-3.908 22.202 42.842 18.485 11.327-45.282z" fill="#32d6af"/><path d="m27.88 66.694 54.147-26.844-19.989-10.315-30.117 14.875z" fill="#25997a"/><path d="m27.94 66.815 18.06-8.926 24.748 27.34z" fill="#5be8c0"/><path d="m82.103 40.062-18.064 8.917 6.671 36.271z" fill="#2baa85"/><path d="m31.834 44.19 13.933 13.23-18.026 8.904z" fill="#32d6af"/><path d="m62.05 29.559 1.756 18.949-18.038 8.91-13.868-13.096z" fill="#1bc195"/><path d="m49.129 55.832c-1.76-.091-3.568-1.25-4.62-2.05a.537.537 0 0 0 -.864.429c-.004 1.32-.183 3.46-1.181 4.913a.54.54 0 0 0 .42.85c1.76.09 3.568 1.249 4.62 2.048a.537.537 0 0 0 .865-.427c.003-1.321.183-3.461 1.18-4.913a.538.538 0 0 0 -.42-.85" fill="#fff"/><path d="m32.079 44.685 30.09-14.884 19.934 10.261-11.393 45.187-42.73-18.443z" stroke="#777" stroke-linecap="round" stroke-linejoin="round" stroke-width="1.476"/><path d="m135.204 46.59h-33.746l-13.336 17.881 30.226 35.4 30.21-35.364z" fill="#32d6af"/><path d="m88.122 64.487 60.435.059-13.353-17.956h-33.59z" fill="#25997a"/><path d="m88.122 64.33 20.145-.006 10.081 35.474z" fill="#5be8c0"/><path d="m148.531 64.33-20.145-.006-10.08 35.474z" fill="#2baa85"/><path d="m101.633 46.56 6.634 18.029h-20.105z" fill="#32d6af"/><path d="m135.204 46.427-6.818 18.162h-20.119l-6.634-18.08z" fill="#1bc195"/><path d="m111.984 63.866c-1.537-.86-2.646-2.7-3.234-3.882a.537.537 0 0 0 -.965 0c-.59 1.182-1.697 3.022-3.235 3.882a.54.54 0 0 0 0 .948c1.538.86 2.646 2.699 3.235 3.882a.537.537 0 0 0 .965 0c.588-1.183 1.697-3.021 3.234-3.882a.539.539 0 0 0 0-.948" fill="#fff"/><path d="m101.633 46.32 33.57-.018 13.328 18.028-30.226 35.469-30.143-35.46z" stroke="#777" stroke-linecap="round" stroke-linejoin="round" stroke-width="1.476"/><path d="m203.575 61.59h-33.746l-13.336 17.874 30.226 35.396 30.209-35.357z" fill="#32d6af"/><path d="m156.493 79.479 60.435.062-13.353-17.952h-33.591z" fill="#25997a"/><path d="m156.493 79.315 20.145-.005 10.08 35.474z" fill="#5be8c0"/><path d="m216.902 79.315-20.145-.005-10.081 35.474z" fill="#2baa85"/><path d="m170.003 61.56 6.634 18.029h-20.105z" fill="#32d6af"/><path d="m203.575 61.42-6.818 18.17h-20.12l-6.633-18.086z" fill="#1bc195"/><path d="m180.355 78.851c-1.537-.86-2.647-2.7-3.234-3.883-.2-.4-.767-.4-.966 0-.589 1.183-1.697 3.023-3.234 3.883a.539.539 0 0 0 0 .948c1.537.861 2.645 2.699 3.234 3.882a.537.537 0 0 0 .965 0c.588-1.183 1.697-3.021 3.234-3.882a.539.539 0 0 0 0-.948" fill="#fff"/><path d="m170.003 61.306 33.571-.019 13.327 18.028-30.226 35.47-30.143-35.46z" stroke="#777" stroke-linecap="round" stroke-linejoin="round" stroke-width="1.476"/><path d="m86.701 94.918-14.553 8.506-14.58 8.521-2.447 22.247 43.981 15.35 8.203-45.833z" fill="#32d6af"/><path d="m55.129 134.206 52.184-30.483-20.613-8.806-29 16.951z" fill="#25997a"/><path d="m55.095 134.148 17.39-10.17 26.603 25.54z" fill="#5be8c0"/><path d="m107.25 103.665-17.395 10.161 9.197 35.713z" fill="#2baa85"/><path d="m57.599 111.656 14.826 12.218-17.358 10.145z" fill="#32d6af"/><path d="m86.613 94.768 3.181 18.954-17.37 10.151-14.803-12.178z" fill="#1bc195"/><path d="m75.462 121.706c-1.76.032-3.647-.996-4.75-1.72a.537.537 0 0 0 -.834.487c.088 1.319.06 3.465-.834 4.984a.539.539 0 0 0 .48.819c1.76-.034 3.646.995 4.75 1.72a.537.537 0 0 0 .833-.487c-.089-1.319-.06-3.466.833-4.984a.538.538 0 0 0 -.478-.819" fill="#fff"/><path d="m57.673 111.782 28.975-16.955 20.602 8.839-8.198 45.874-43.917-15.404z" stroke="#777" stroke-linecap="round" stroke-linejoin="round" stroke-width="1.476"/><path d="m173.091 129.86-10.378-13.283-10.398-13.31-22.373.558-9.322 45.64 46.518 1.99z" fill="#32d6af"/><path d="m129.93 103.834 37.197 47.63 5.964-21.605-20.68-26.469z" fill="#25997a"/><path d="m129.983 103.792 12.407 15.871-21.747 29.784z" fill="#5be8c0"/><path d="m167.175 151.395-12.398-15.878-34.161 13.897z" fill="#2baa85"/><path d="m152.607 103.261-10.123 16.328-12.378-15.843z" fill="#32d6af"/><path d="m173.229 129.752-18.358 5.69-12.386-15.853 10.087-16.3z" fill="#1bc195"/><path d="m145.04 122.309c-.269-1.74.498-3.747 1.068-4.938a.538.538 0 0 0 -.594-.761c-1.294.264-3.427.523-5.051-.158a.539.539 0 0 0 -.747.584c.268 1.741-.498 3.747-1.068 4.938a.538.538 0 0 0 .594.761c1.294-.265 3.426-.524 5.051.158a.539.539 0 0 0 .747-.584" fill="#fff"/><path d="m152.492 103.351 20.683 26.443-6 21.601-46.559-1.982 9.384-45.583z" stroke="#777" stroke-linecap="round" stroke-linejoin="round" stroke-width="1.476"/><path d="m95 209.59-24.528 26h108.528l-28-26z" fill="#caf5ff"/><path d="m94.912 209.59h27.588l-27.588 26.02h-25.89z" fill="#46c4d1"/><path d="m95 209.589h55.5v-27h-55.5z" fill="#caf5ff"/><path d="m122.496 209.59h27.504v-27z" fill="#46c4d1"/><path d="m11 128.589h224v-53h-224z" fill="#caf5ff" fill-opacity=".5"/><path d="m124 76.59v52h55zm-112 0v52h54.992z" fill="#46c4d1" fill-opacity=".5"/><path d="m123 75.59h-112l55.992 53 .008-.01.008.01z" fill="#90edfc" fill-opacity=".5"/><path d="m234 128.59h-110l55 54.5-1-1.51 1 1.51zm-110 0h-112l57 54z" fill="#90edfc" opacity=".5"/><g fill-opacity=".5"><path d="m235 75.59h-112l55.992 53 .008-.01.008.01z" fill="#90edfc"/><path d="m69 182.59h110l-55-54z" fill="#caf5ff"/><path d="m150 182.59h-55l27.496 27h.008z" fill="#90edfc"/><path d="m95 235.59h55l-27.496-26.015-.004.011-.004-.014z" fill="#90edfc"/><path d="m69 182.59-2.008-54h57.008zm110 .5-.008-54.5h57.008z" fill="#46c4d1"/></g><path d="m322.898 183.659-17.987.618-18.022.62-13.572 19.668 33.554 36.714 30.936-38.916z" fill="#32d6af"/><path d="m273.318 204.58 64.49-2.203-14.91-18.719-35.844 1.234z" fill="#25997a"/><path d="m273.315 204.51 21.497-.745 12.058 37.483z" fill="#5be8c0"/><path d="m337.777 202.292-21.497.734-9.455 38.223z" fill="#2baa85"/><path d="m287.066 184.64 7.741 18.996-21.454.737z" fill="#32d6af"/><path d="m322.892 183.473-6.616 19.425-21.469.738-7.739-18.948z" fill="#1bc195"/><path d="m298.76 203.138c-1.67-.86-2.921-2.784-3.592-4.023a.574.574 0 0 0 -1.03.035c-.585 1.283-1.7 3.286-3.31 4.26a.576.576 0 0 0 .036 1.012c1.67.862 2.922 2.784 3.593 4.025a.575.575 0 0 0 1.03-.037c.585-1.283 1.7-3.286 3.309-4.26a.576.576 0 0 0 -.035-1.012" fill="#fff"/><path d="m287.072 184.796 35.823-1.25 14.882 18.746-30.952 38.957-33.466-36.73z" stroke="#777" stroke-linecap="round" stroke-linejoin="round" stroke-width="1.576"/></g></svg>