<svg xmlns="http://www.w3.org/2000/svg" width="350" height="250" viewBox="0 0 350 250"><g fill="none" fill-rule="evenodd"><path fill="#FFC431" d="M205.658 110.187c2.653.02 4.87 2.542 4.85 5.197l-.024 3.21c-.02 2.652-2.27 4.613-4.924 4.592l-19.252-.145c-2.653-.02-4.843-2.015-4.823-4.666l.024-3.209c.02-2.657 2.244-5.145 4.897-5.125l5.142.04.125-16.626c.007-.887.402-1.372 1.287-1.365l6.416.048c.886.007 1.303.498 1.297 1.384l-.126 16.626 5.111.04z"/><path fill="#EFAB22" d="M205.658 110.187l-5.11-.039.125-16.626c.006-.886-.41-1.377-1.297-1.384l-6.416-.048c-.885-.007-1.28.478-1.287 1.365l-.012 1.626 3.648.027c.886.007 1.345.868 1.34 1.755l-.132 17.255 5.066.038c2.653.02 4.92 1.913 4.9 4.568l-.025 3.211c-.004.5-.113.985-.269 1.442 2.352-.329 4.276-2.367 4.295-4.783l.024-3.21c.02-2.655-2.197-5.177-4.85-5.197"/><path stroke="#777" stroke-linecap="round" stroke-linejoin="round" stroke-width="2" d="M205.658 110.187l-5.11-.039.125-16.626c.006-.886-.41-1.377-1.297-1.384l-6.416-.048c-.885-.007-1.28.478-1.287 1.365l-.125 16.625-5.142-.039c-2.653-.02-3.877 2.476-3.897 5.131l-.024 3.21c-.02 2.652 1.17 4.64 3.823 4.66l19.252.144c2.653.021 4.904-1.94 4.924-4.592l.024-3.21c.02-2.655-2.197-5.177-4.85-5.197z"/><path fill="#777" d="M213.64 115.408l-35.293-.267a1.606 1.606 0 0 0-1.617 1.59l-.122 16.047a1.605 1.605 0 0 0 1.594 1.615l35.292.267a1.605 1.605 0 0 0 1.618-1.591l.12-16.046a1.605 1.605 0 0 0-1.592-1.615"/><path fill="#EFAB22" d="M214.68 91.35a1.605 1.605 0 0 1-.581-3.095c6.219-2.479 10.259-7.198 12.01-14.022.899-3.503.939-6.71.868-8.46l-9.753-.074a1.603 1.603 0 0 1-1.59-1.618 1.602 1.602 0 0 1 1.614-1.59l11.23.084a1.601 1.601 0 0 1 1.579 1.394c.029.208.653 5.14-.811 10.95-1.975 7.821-6.8 13.462-13.96 16.317-.2.08-.404.115-.606.114M177.675 91.07a1.576 1.576 0 0 1-.604-.123c-7.115-2.962-11.856-8.676-13.71-16.525-1.377-5.832-.679-10.754-.647-10.962a1.603 1.603 0 0 1 1.6-1.37l11.23.084a1.605 1.605 0 0 1-.025 3.209l-9.753-.073c-.097 1.746-.104 4.954.742 8.472 1.646 6.85 5.614 11.629 11.796 14.202a1.605 1.605 0 1 1-.629 3.086"/><path fill="#FFC431" d="M217.287 57.677l-41.712-.315a1.604 1.604 0 0 0-1.617 1.591L173.8 79.81a22.307 22.307 0 0 0 6.458 15.931 22.32 22.32 0 0 0 15.832 6.698 22.318 22.318 0 0 0 15.93-6.457 22.311 22.311 0 0 0 6.699-15.832l.158-20.857a1.602 1.602 0 0 0-1.591-1.616"/><path fill="#EFAB22" d="M217.287 57.677l-7.347-.056c.886.007 1.6.731 1.593 1.617l-.158 20.856c-.126 16.722-11.49 21.94-16.888 22.276.53.041 1.066.065 1.604.07a22.318 22.318 0 0 0 15.93-6.458 22.311 22.311 0 0 0 6.699-15.832l.158-20.857a1.602 1.602 0 0 0-1.591-1.616"/><path stroke="#777" stroke-linecap="round" stroke-linejoin="round" stroke-width="2.128" d="M217.287 57.677l-41.712-.315a1.604 1.604 0 0 0-1.617 1.591L173.8 79.81a22.307 22.307 0 0 0 6.458 15.931 22.32 22.32 0 0 0 15.832 6.698 22.318 22.318 0 0 0 15.93-6.457 22.311 22.311 0 0 0 6.699-15.832l.158-20.857a1.602 1.602 0 0 0-1.591-1.616z"/><path fill="#4F4F4F" d="M213.633 116.248l-9.167-.07c.885.007 2.037-.105 2.03.779l-.12 16.047c-.008.884-1.168 2.18-2.055 2.174l9.168.069c.887.007.878-1.3.885-2.183l.122-16.046c.006-.884.023-.764-.863-.77"/><path fill="#FFF" d="M185.685 65.445c-1.625-.927-2.787-2.89-3.403-4.148a.57.57 0 0 0-1.025-.008c-.633 1.25-1.826 3.194-3.465 4.095a.573.573 0 0 0-.007 1.007c1.626.926 2.787 2.889 3.403 4.149a.571.571 0 0 0 1.025.008c.633-1.251 1.827-3.196 3.466-4.097a.572.572 0 0 0 .006-1.006"/><path stroke="#4F4F4F" stroke-linecap="round" stroke-linejoin="round" stroke-width="2.128" d="M213.64 115.408l-35.293-.267a1.606 1.606 0 0 0-1.617 1.59l-.122 16.047a1.605 1.605 0 0 0 1.594 1.615l35.292.267a1.605 1.605 0 0 0 1.618-1.591l.12-16.046a1.605 1.605 0 0 0-1.592-1.615z"/><path fill="#C80" d="M196.144 87.17c-5.108.037-9.294-4.088-9.333-9.197a1.398 1.398 0 1 1 2.798-.02 6.473 6.473 0 0 0 6.514 6.418 1.4 1.4 0 1 1 .022 2.799"/><path fill="#C80" d="M188.862 82.41a1.4 1.4 0 0 1-1.297-.847 9.235 9.235 0 0 1 1.903-10.15 1.4 1.4 0 1 1 1.998 1.961 6.444 6.444 0 0 0-1.329 7.085 1.4 1.4 0 0 1-1.275 1.952"/><path fill="#C80" d="M190.477 73.793a1.4 1.4 0 0 1-1.006-2.382 9.213 9.213 0 0 1 4.822-2.587 9.252 9.252 0 0 1 5.309.53 1.398 1.398 0 1 1-1.067 2.586 6.445 6.445 0 0 0-7.072 1.437 1.401 1.401 0 0 1-.986.416"/><path fill="#C80" d="M202.329 79.267l-8.487.062a1.399 1.399 0 1 1-.021-2.797s8.053-.06 8.285-.063c.232 0 .26-.16.235-.25a6.49 6.49 0 0 0-3.794-4.3 1.399 1.399 0 1 1 1.062-2.59 9.29 9.29 0 0 1 5.49 6.381 2.86 2.86 0 0 1-.521 2.44 2.872 2.872 0 0 1-2.241 1.117h-.008z"/><path fill="#FFC431" d="M79.007 98.224l-4.938 1.318L69.78 83.48c-.228-.857-.761-1.22-1.617-.99l-6.2 1.654c-.855.228-1.107.801-.878 1.656l4.288 16.064-4.968 1.326c-2.564.684-4.048 3.674-3.363 6.24l.828 3.101c.683 2.561 3.324 3.904 5.887 3.22l18.602-4.965c2.564-.685 4.213-3.172 3.53-5.734l-.828-3.1c-.685-2.568-3.492-4.412-6.055-3.727"/><path fill="#EFAB22" d="M79.007 98.224l-4.938 1.318L69.78 83.48c-.228-.857-.761-1.22-1.617-.99l-6.2 1.654c-.855.228-1.107.801-.878 1.656l.419 1.571 3.524-.94c.857-.228 1.528.481 1.757 1.337l4.45 16.671 4.895-1.306c2.564-.684 5.25.54 5.935 3.106l.828 3.101c.13.484.153.981.123 1.462 2.18-.94 3.495-3.416 2.873-5.75l-.828-3.1c-.685-2.568-3.492-4.412-6.055-3.727"/><path stroke="#777" stroke-linecap="round" stroke-linejoin="round" stroke-width="2" d="M79.007 98.224l-4.938 1.318L69.78 83.48c-.228-.857-.761-1.22-1.617-.99l-6.2 1.654c-.855.228-1.107.801-.878 1.656l4.288 16.064-4.968 1.326c-2.564.684-3.082 3.416-2.397 5.981l.828 3.102c.684 2.561 2.358 4.162 4.92 3.477l18.603-4.964c2.564-.685 4.213-3.172 3.53-5.734l-.828-3.1c-.685-2.568-3.492-4.412-6.055-3.727z"/><path fill="#777" d="M88.087 101.142l-34.1 9.102a1.604 1.604 0 0 0-1.138 1.962l4.14 15.504a1.604 1.604 0 0 0 1.963 1.135l34.1-9.102a1.606 1.606 0 0 0 1.138-1.962l-4.139-15.505a1.604 1.604 0 0 0-1.964-1.134"/><path fill="#EFAB22" d="M82.71 77.67a1.605 1.605 0 0 1-1.381-2.83c5.339-4.04 7.983-9.66 7.861-16.705-.063-3.616-.874-6.72-1.406-8.389l-9.424 2.517a1.603 1.603 0 0 1-1.962-1.139 1.603 1.603 0 0 1 1.135-1.963l10.851-2.895a1.602 1.602 0 0 1 1.891.925c.084.194 1.993 4.783 2.122 10.773.17 8.064-2.986 14.784-9.132 19.434-.172.13-.36.219-.555.272M46.956 87.213a1.58 1.58 0 0 1-.614.041c-7.646-.97-13.733-5.222-17.604-12.297-2.872-5.258-3.505-10.19-3.53-10.397a1.605 1.605 0 0 1 1.179-1.745l10.851-2.898a1.604 1.604 0 1 1 .828 3.102l-9.423 2.514c.369 1.71 1.213 4.805 2.96 7.972 3.405 6.17 8.499 9.725 15.142 10.566a1.606 1.606 0 0 1 1.39 1.794 1.606 1.606 0 0 1-1.178 1.348"/><path fill="#FFC431" d="M76.294 44.511L35.99 55.27a1.604 1.604 0 0 0-1.136 1.963l5.379 20.152a22.312 22.312 0 0 0 10.452 13.648 22.316 22.316 0 0 0 17.04 2.258 22.314 22.314 0 0 0 13.65-10.45 22.311 22.311 0 0 0 2.259-17.04l-5.38-20.153a1.602 1.602 0 0 0-1.961-1.136"/><path fill="#EFAB22" d="M76.294 44.511l-7.1 1.895a1.605 1.605 0 0 1 1.966 1.135l5.379 20.152C80.85 83.85 71.278 91.896 66.163 93.65c.523-.1 1.044-.22 1.564-.36a22.314 22.314 0 0 0 13.649-10.45 22.311 22.311 0 0 0 2.259-17.04l-5.38-20.153a1.602 1.602 0 0 0-1.961-1.136"/><path stroke="#777" stroke-linecap="round" stroke-linejoin="round" stroke-width="2.128" d="M76.294 44.511L35.99 55.27a1.604 1.604 0 0 0-1.136 1.963l5.379 20.152a22.312 22.312 0 0 0 10.452 13.648 22.316 22.316 0 0 0 17.04 2.258 22.314 22.314 0 0 0 13.65-10.45 22.311 22.311 0 0 0 2.259-17.04l-5.38-20.153a1.602 1.602 0 0 0-1.961-1.136z"/><path fill="#4F4F4F" d="M88.304 101.953l-8.858 2.364c.856-.228 1.937-.64 2.165.213l4.138 15.504c.228.854-.547 2.412-1.403 2.64l8.858-2.364c.856-.228.502-1.486.274-2.34l-4.138-15.503c-.228-.854-.18-.743-1.036-.514"/><path fill="#FFF" d="M47.884 60.38c-1.812-.462-3.454-2.044-4.38-3.098a.572.572 0 0 0-.992.266c-.279 1.373-.914 3.564-2.254 4.868a.572.572 0 0 0 .26.974c1.811.462 3.453 2.044 4.38 3.096a.57.57 0 0 0 .99-.264c.28-1.374.914-3.565 2.255-4.868a.572.572 0 0 0-.259-.974"/><path stroke="#4F4F4F" stroke-linecap="round" stroke-linejoin="round" stroke-width="2.128" d="M88.087 101.142l-34.1 9.102a1.604 1.604 0 0 0-1.138 1.962l4.14 15.504a1.604 1.604 0 0 0 1.963 1.135l34.1-9.102a1.606 1.606 0 0 0 1.138-1.962l-4.139-15.505a1.604 1.604 0 0 0-1.964-1.134z"/><path fill="#C80" d="M63.73 78.553c-4.916 1.392-10.046-1.476-11.438-6.39a1.4 1.4 0 0 1 2.693-.763 6.475 6.475 0 0 0 7.983 4.461 1.398 1.398 0 1 1 .762 2.692"/><path fill="#C80" d="M55.446 75.897a1.402 1.402 0 0 1-1.475-.474 9.236 9.236 0 0 1-.857-10.29 1.4 1.4 0 1 1 2.446 1.361 6.443 6.443 0 0 0 .598 7.182 1.4 1.4 0 0 1-.712 2.221"/><path fill="#C80" d="M54.717 67.159a1.399 1.399 0 0 1-1.602-2.029 9.215 9.215 0 0 1 3.964-3.774 9.25 9.25 0 0 1 5.26-.897 1.399 1.399 0 1 1-.344 2.777 6.444 6.444 0 0 0-6.438 3.26 1.393 1.393 0 0 1-.84.663"/><path fill="#C80" d="M67.597 69.294l-8.167 2.313a1.4 1.4 0 0 1-.762-2.694l7.972-2.257c.224-.063.207-.225.16-.303a6.486 6.486 0 0 0-4.798-3.14 1.399 1.399 0 1 1 .337-2.778 9.289 9.289 0 0 1 6.987 4.697c.427.767.479 1.675.143 2.49a2.872 2.872 0 0 1-1.872 1.672"/><path fill="#FFC431" d="M136.606 85.355l-5.084-.534 1.737-16.535c.094-.88-.274-1.41-1.155-1.503l-6.382-.67c-.88-.093-1.32.351-1.412 1.232L122.57 83.88l-5.112-.537c-2.64-.277-5.094 1.985-5.371 4.625l-.337 3.193c-.276 2.636 1.71 4.834 4.35 5.111l19.147 2.012c2.638.277 5.067-1.456 5.346-4.093l.335-3.192c.278-2.64-1.685-5.367-4.323-5.644"/><path fill="#EFAB22" d="M136.606 85.355l-5.084-.534 1.737-16.535c.094-.88-.274-1.41-1.155-1.503l-6.382-.67c-.88-.093-1.32.351-1.412 1.232l-.17 1.617 3.627.382c.882.093 1.255.995 1.163 1.876l-1.803 17.161 5.039.53c2.638.277 4.71 2.381 4.433 5.022l-.337 3.193a4.587 4.587 0 0 1-.406 1.41c2.373-.1 4.484-1.943 4.738-4.345l.335-3.192c.278-2.64-1.685-5.367-4.323-5.644"/><path stroke="#777" stroke-linecap="round" stroke-linejoin="round" stroke-width="2" d="M136.606 85.355l-5.084-.534 1.737-16.535c.094-.88-.274-1.41-1.155-1.503l-6.382-.67c-.88-.093-1.32.351-1.412 1.232L122.57 83.88l-5.112-.537c-2.64-.277-4.1 2.09-4.377 4.73l-.335 3.192c-.278 2.637.715 4.73 3.353 5.007l19.148 2.012c2.638.277 5.067-1.456 5.346-4.093l.335-3.192c.278-2.64-1.685-5.367-4.323-5.644z"/><path fill="#777" d="M144.043 91.326l-35.1-3.688a1.606 1.606 0 0 0-1.764 1.426l-1.678 15.959a1.606 1.606 0 0 0 1.43 1.762l35.1 3.688a1.605 1.605 0 0 0 1.764-1.426l1.678-15.96a1.606 1.606 0 0 0-1.43-1.761"/><path fill="#EFAB22" d="M147.411 67.482a1.605 1.605 0 0 1-.278-3.137c6.43-1.864 10.91-6.169 13.313-12.791 1.234-3.399 1.586-6.589 1.684-8.336l-9.699-1.019a1.605 1.605 0 0 1 .335-3.192l11.17 1.174a1.603 1.603 0 0 1 1.435 1.54c.01.21.151 5.18-1.869 10.821-2.724 7.592-8.073 12.739-15.476 14.885a1.6 1.6 0 0 1-.615.055M110.608 63.615a1.578 1.578 0 0 1-.589-.181c-6.795-3.638-10.959-9.785-12.044-17.777-.805-5.938.368-10.77.42-10.973a1.606 1.606 0 0 1 1.724-1.21l11.17 1.175a1.604 1.604 0 1 1-.336 3.192l-9.699-1.02c-.267 1.73-.585 4.922-.084 8.505.974 6.977 4.46 12.118 10.363 15.279a1.606 1.606 0 0 1 .658 2.172 1.606 1.606 0 0 1-1.583.838"/><path fill="#FFC431" d="M153.272 34.221l-41.485-4.359a1.604 1.604 0 0 0-1.765 1.427l-2.178 20.744a22.311 22.311 0 0 0 4.883 16.482 22.318 22.318 0 0 0 15.108 8.201 22.313 22.313 0 0 0 16.481-4.882 22.311 22.311 0 0 0 8.202-15.107l2.18-20.743a1.602 1.602 0 0 0-1.427-1.763"/><path fill="#EFAB22" d="M153.272 34.221l-7.308-.768a1.605 1.605 0 0 1 1.43 1.763l-2.18 20.743c-1.748 16.63-13.566 20.723-18.97 20.533a23.12 23.12 0 0 0 1.59.224 22.313 22.313 0 0 0 16.482-4.882 22.311 22.311 0 0 0 8.202-15.107l2.18-20.743a1.602 1.602 0 0 0-1.427-1.763"/><path stroke="#777" stroke-linecap="round" stroke-linejoin="round" stroke-width="2.128" d="M153.272 34.221l-41.485-4.359a1.604 1.604 0 0 0-1.765 1.427l-2.178 20.744a22.311 22.311 0 0 0 4.883 16.482 22.318 22.318 0 0 0 15.108 8.201 22.313 22.313 0 0 0 16.481-4.882 22.311 22.311 0 0 0 8.202-15.107l2.18-20.743a1.602 1.602 0 0 0-1.427-1.763z"/><path fill="#4F4F4F" d="M143.956 92.16l-9.118-.957c.88.093 2.038.093 1.946.972l-1.677 15.959c-.093.879-1.373 2.057-2.255 1.964l9.119.959c.88.092 1-1.21 1.092-2.087l1.677-15.96c.092-.878.097-.756-.784-.85"/><path fill="#FFF" d="M121.066 38.887c-1.527-1.079-2.495-3.145-2.984-4.459a.571.571 0 0 0-1.02-.107c-.752 1.183-2.127 3.003-3.846 3.741a.572.572 0 0 0-.106 1.001c1.528 1.08 2.496 3.145 2.985 4.46a.571.571 0 0 0 1.02.106c.752-1.183 2.127-3.003 3.846-3.74a.572.572 0 0 0 .105-1.002"/><path stroke="#4F4F4F" stroke-linecap="round" stroke-linejoin="round" stroke-width="2.128" d="M144.043 91.326l-35.1-3.688a1.606 1.606 0 0 0-1.764 1.426l-1.678 15.959a1.606 1.606 0 0 0 1.43 1.762l35.1 3.688a1.605 1.605 0 0 0 1.764-1.426l1.678-15.96a1.606 1.606 0 0 0-1.43-1.761z"/><path fill="#C80" d="M129.37 61.524c-5.089-.458-8.856-4.97-8.399-10.058a1.4 1.4 0 0 1 2.788.251 6.473 6.473 0 0 0 5.86 7.019 1.399 1.399 0 1 1-.25 2.788"/><path fill="#C80" d="M122.582 56.082a1.402 1.402 0 0 1-1.207-.97 9.235 9.235 0 0 1 2.877-9.917 1.4 1.4 0 0 1 1.797 2.146 6.448 6.448 0 0 0-2.009 6.922 1.398 1.398 0 0 1-1.458 1.819"/><path fill="#C80" d="M125.025 47.66a1.4 1.4 0 0 1-.771-2.469 9.218 9.218 0 0 1 5.05-2.106 9.258 9.258 0 0 1 5.234 1.042 1.399 1.399 0 0 1-1.313 2.472 6.445 6.445 0 0 0-7.18.743 1.395 1.395 0 0 1-1.02.319"/><path fill="#C80" d="M136.29 54.258l-8.453-.76a1.4 1.4 0 0 1 .25-2.788l8.253.742c.23.021.273-.135.258-.227a6.49 6.49 0 0 0-3.359-4.648 1.399 1.399 0 1 1 1.307-2.474 9.29 9.29 0 0 1 4.847 6.884 2.855 2.855 0 0 1-.757 2.377 2.869 2.869 0 0 1-2.338.895h-.008"/><path fill="#FFC431" d="M241.61 224.995l-4.561-.48 1.559-14.836c.083-.79-.247-1.266-1.038-1.35l-5.725-.601c-.791-.083-1.186.316-1.27 1.107l-1.558 14.837-4.588-.482c-2.368-.25-4.57 1.78-4.82 4.15l-.3 2.865c-.25 2.365 1.533 4.338 3.9 4.586l17.182 1.806c2.368.249 4.549-1.307 4.797-3.673l.3-2.865c.25-2.37-1.51-4.815-3.878-5.064"/><path fill="#EFAB22" d="M241.61 224.995l-4.561-.48 1.559-14.836c.083-.79-.247-1.266-1.038-1.35l-5.725-.601c-.791-.083-1.186.316-1.27 1.107l-.151 1.45 3.255.343c.79.083 1.126.893 1.043 1.683l-1.617 15.4 4.52.474c2.368.249 4.228 2.137 3.979 4.507l-.302 2.865c-.046.447-.186.87-.365 1.264 2.129-.09 4.025-1.741 4.25-3.897l.302-2.865c.249-2.37-1.511-4.815-3.88-5.064"/><path stroke="#777" stroke-linecap="round" stroke-linejoin="round" stroke-width="1.795" d="M241.61 224.995l-4.561-.48 1.559-14.836c.083-.79-.247-1.266-1.038-1.35l-5.725-.601c-.791-.083-1.186.316-1.27 1.107l-1.558 14.837-4.588-.482c-2.368-.25-3.678 1.874-3.927 4.243l-.301 2.866c-.25 2.365.64 4.244 3.009 4.492l17.18 1.806c2.369.249 4.55-1.307 4.798-3.673l.3-2.865c.25-2.37-1.51-4.815-3.878-5.064z"/><path fill="#777" d="M248.284 230.353l-31.497-3.31a1.44 1.44 0 0 0-1.582 1.28l-1.504 14.32a1.44 1.44 0 0 0 1.28 1.581l31.498 3.31c.79.083 1.5-.492 1.583-1.28l1.504-14.32a1.44 1.44 0 0 0-1.282-1.58"/><path fill="#EFAB22" d="M251.306 208.957a1.439 1.439 0 0 1-.25-2.814c5.77-1.673 9.79-5.536 11.947-11.478 1.107-3.051 1.423-5.912 1.51-7.48l-8.703-.915a1.439 1.439 0 0 1 .3-2.863l10.024 1.053a1.438 1.438 0 0 1 1.288 1.382c.008.188.135 4.647-1.678 9.709-2.443 6.813-7.244 11.43-13.886 13.357a1.409 1.409 0 0 1-.552.049M218.282 205.487a1.435 1.435 0 0 1-.529-.162c-6.096-3.265-9.833-8.78-10.806-15.952-.722-5.328.33-9.663.376-9.846a1.439 1.439 0 0 1 1.547-1.084l10.023 1.053a1.44 1.44 0 0 1-.3 2.864l-8.705-.915c-.239 1.552-.524 4.416-.075 7.63.874 6.263 4.002 10.875 9.3 13.71a1.44 1.44 0 0 1-.83 2.702"/><path fill="#FFC431" d="M256.565 179.112l-37.226-3.912a1.439 1.439 0 0 0-1.582 1.28l-1.956 18.614a20.018 20.018 0 0 0 4.382 14.79 20.027 20.027 0 0 0 13.556 7.359 20.025 20.025 0 0 0 14.79-4.38 20.018 20.018 0 0 0 7.36-13.557l1.956-18.613a1.438 1.438 0 0 0-1.28-1.581"/><path fill="#EFAB22" d="M256.565 179.112l-6.558-.69a1.439 1.439 0 0 1 1.282 1.583l-1.954 18.613c-1.569 14.922-12.173 18.595-17.022 18.425.47.083.946.149 1.427.2a20.025 20.025 0 0 0 14.788-4.38 20.018 20.018 0 0 0 7.36-13.557l1.957-18.613a1.438 1.438 0 0 0-1.28-1.581"/><path stroke="#777" stroke-linecap="round" stroke-linejoin="round" stroke-width="1.909" d="M256.565 179.112l-37.226-3.912a1.439 1.439 0 0 0-1.582 1.28l-1.956 18.614a20.018 20.018 0 0 0 4.382 14.79 20.027 20.027 0 0 0 13.556 7.359 20.025 20.025 0 0 0 14.79-4.38 20.018 20.018 0 0 0 7.36-13.557l1.956-18.613a1.438 1.438 0 0 0-1.28-1.581z"/><path fill="#4F4F4F" d="M248.205 231.101l-8.182-.859c.791.083 1.83.084 1.746.872l-1.504 14.32c-.083.79-1.232 1.847-2.023 1.764l8.182.86c.79.082.897-1.085.98-1.874l1.504-14.32c.083-.788.088-.68-.703-.763"/><path fill="#FFF" d="M227.666 183.298c-1.371-.969-2.238-2.822-2.678-4a.512.512 0 0 0-.915-.097c-.675 1.062-1.909 2.695-3.451 3.357a.513.513 0 0 0-.095.898c1.371.97 2.239 2.822 2.679 4.001a.512.512 0 0 0 .915.096c.674-1.062 1.909-2.694 3.451-3.357a.513.513 0 0 0 .094-.898"/><path stroke="#4F4F4F" stroke-linecap="round" stroke-linejoin="round" stroke-width="1.909" d="M248.284 230.353l-31.497-3.31a1.44 1.44 0 0 0-1.582 1.28l-1.504 14.32a1.44 1.44 0 0 0 1.28 1.581l31.498 3.31c.79.083 1.5-.492 1.583-1.28l1.504-14.32a1.44 1.44 0 0 0-1.282-1.58z"/><path fill="#C80" d="M235.117 203.61c-4.566-.41-7.946-4.458-7.536-9.023a1.255 1.255 0 1 1 2.5.224 5.808 5.808 0 0 0 5.26 6.298 1.256 1.256 0 0 1-.224 2.501"/><path fill="#C80" d="M229.027 198.727a1.257 1.257 0 0 1-1.084-.87 8.288 8.288 0 0 1 2.582-8.899 1.256 1.256 0 0 1 1.613 1.925 5.784 5.784 0 0 0-1.802 6.212 1.256 1.256 0 0 1-1.31 1.632"/><path fill="#C80" d="M231.218 191.17a1.256 1.256 0 0 1-.691-2.215 8.264 8.264 0 0 1 4.532-1.89 8.3 8.3 0 0 1 4.695.935 1.257 1.257 0 0 1-1.178 2.218 5.784 5.784 0 0 0-6.44.667 1.247 1.247 0 0 1-.918.286"/><path fill="#C80" d="M241.327 197.091l-7.585-.683a1.257 1.257 0 0 1 .225-2.501l7.405.666c.207.02.245-.122.23-.204a5.822 5.822 0 0 0-3.013-4.17 1.256 1.256 0 0 1 1.174-2.22 8.334 8.334 0 0 1 4.348 6.177 2.56 2.56 0 0 1-.68 2.133 2.576 2.576 0 0 1-2.097.802h-.007z"/><path fill="#FFC431" d="M129.8 164.42l-4.497-1.228 3.996-14.626c.213-.779-.04-1.309-.819-1.522l-5.643-1.542c-.78-.213-1.24.123-1.454.901l-3.996 14.626-4.523-1.237c-2.334-.637-4.875 1.036-5.514 3.373l-.77 2.823c-.638 2.332.826 4.602 3.16 5.24l16.934 4.627c2.334.638 4.776-.564 5.414-2.897l.771-2.822c.638-2.337-.726-5.077-3.06-5.715"/><path fill="#EFAB22" d="M129.8 164.42l-4.497-1.228 3.996-14.626c.213-.779-.04-1.309-.819-1.522l-5.643-1.542c-.78-.213-1.24.123-1.454.901l-.39 1.431 3.208.877c.78.213.983 1.08.77 1.86l-4.148 15.178 4.457 1.218c2.334.637 3.89 2.835 3.25 5.171l-.77 2.823c-.122.441-.33.843-.575 1.21 2.15.26 4.322-1.088 4.903-3.213l.771-2.822c.638-2.337-.726-5.077-3.06-5.715"/><path stroke="#777" stroke-linecap="round" stroke-linejoin="round" stroke-width="1.824" d="M129.8 164.42l-4.497-1.228 3.996-14.626c.213-.779-.04-1.309-.819-1.522l-5.643-1.542c-.78-.213-1.24.123-1.454.901l-3.996 14.626-4.523-1.237c-2.334-.637-3.996 1.276-4.634 3.613l-.77 2.825c-.639 2.332-.054 4.36 2.28 4.999l16.934 4.626c2.334.638 4.776-.564 5.414-2.897l.771-2.822c.638-2.337-.726-5.077-3.06-5.715z"/><path fill="#777" d="M135.614 170.887l-31.045-8.482a1.463 1.463 0 0 0-1.797 1.023l-3.857 14.115a1.463 1.463 0 0 0 1.027 1.796l31.045 8.483a1.465 1.465 0 0 0 1.797-1.024l3.857-14.115a1.465 1.465 0 0 0-1.027-1.796"/><path fill="#EFAB22" d="M142.153 149.925a1.462 1.462 0 0 1 .211-2.863c6.06-.733 10.725-3.947 13.863-9.553 1.61-2.877 2.396-5.695 2.742-7.254l-8.58-2.344a1.462 1.462 0 0 1 .772-2.822l9.879 2.7a1.463 1.463 0 0 1 1.066 1.597c-.024.19-.627 4.683-3.275 9.462-3.568 6.431-9.14 10.276-16.116 11.12a1.462 1.462 0 0 1-.562-.043M109.603 141.032a1.46 1.46 0 0 1-.504-.25c-5.579-4.273-8.422-10.418-8.223-17.77.15-5.461 1.916-9.636 1.992-9.813a1.463 1.463 0 0 1 1.73-.833l9.879 2.699a1.462 1.462 0 1 1-.772 2.822l-8.579-2.343c-.494 1.516-1.25 4.342-1.326 7.64-.15 6.423 2.231 11.562 7.078 15.275a1.464 1.464 0 0 1-1.275 2.573"/><path fill="#FFC431" d="M152.32 120.856l-36.691-10.026a1.463 1.463 0 0 0-1.797 1.025l-5.013 18.347a20.343 20.343 0 0 0 1.969 15.55 20.347 20.347 0 0 0 12.389 9.603 20.35 20.35 0 0 0 15.55-1.968A20.345 20.345 0 0 0 148.332 141l5.013-18.347a1.462 1.462 0 0 0-1.024-1.796"/><path fill="#EFAB22" d="M152.32 120.856l-6.462-1.766a1.463 1.463 0 0 1 1.026 1.796l-5.013 18.347c-4.02 14.708-15.256 16.653-20.092 15.687.459.161.925.306 1.398.435a20.35 20.35 0 0 0 15.55-1.968A20.345 20.345 0 0 0 148.332 141l5.013-18.347a1.462 1.462 0 0 0-1.024-1.796"/><path stroke="#777" stroke-linecap="round" stroke-linejoin="round" stroke-width="1.94" d="M152.32 120.856l-36.691-10.026a1.463 1.463 0 0 0-1.797 1.025l-5.013 18.347a20.343 20.343 0 0 0 1.969 15.55 20.347 20.347 0 0 0 12.389 9.603 20.35 20.35 0 0 0 15.55-1.968A20.345 20.345 0 0 0 148.332 141l5.013-18.347a1.462 1.462 0 0 0-1.024-1.796z"/><path fill="#4F4F4F" d="M135.413 171.626l-8.064-2.203c.779.213 1.819.384 1.607 1.16l-3.856 14.115c-.213.778-1.54 1.65-2.318 1.437l8.064 2.204c.779.213 1.078-.941 1.29-1.718l3.857-14.114c.212-.777.199-.668-.58-.881"/><path fill="#FFF" d="M122.652 120.317c-1.216-1.196-1.783-3.197-2.03-4.451a.521.521 0 0 0-.902-.247c-.851.955-2.356 2.389-4.011 2.801a.522.522 0 0 0-.243.885c1.217 1.197 1.783 3.198 2.03 4.451a.52.52 0 0 0 .902.248c.85-.956 2.357-2.39 4.012-2.801a.522.522 0 0 0 .242-.886"/><path stroke="#4F4F4F" stroke-linecap="round" stroke-linejoin="round" stroke-width="1.94" d="M135.614 170.887l-31.045-8.482a1.463 1.463 0 0 0-1.797 1.023l-3.857 14.115a1.463 1.463 0 0 0 1.027 1.796l31.045 8.483a1.465 1.465 0 0 0 1.797-1.024l3.857-14.115a1.465 1.465 0 0 0-1.027-1.796z"/><path fill="#C80" d="M126.793 141.91c-4.512-1.161-7.238-5.775-6.078-10.286a1.276 1.276 0 1 1 2.472.636 5.902 5.902 0 0 0 4.242 7.178 1.275 1.275 0 1 1-.636 2.472"/><path fill="#C80" d="M121.487 136.013a1.276 1.276 0 0 1-.945-1.05 8.422 8.422 0 0 1 4.049-8.5 1.278 1.278 0 0 1 1.302 2.195 5.874 5.874 0 0 0-2.826 5.933 1.276 1.276 0 0 1-1.58 1.422"/><path fill="#C80" d="M124.923 128.794a1.276 1.276 0 0 1-.33-2.335 8.407 8.407 0 0 1 4.855-1.152 8.443 8.443 0 0 1 4.556 1.707 1.275 1.275 0 1 1-1.546 2.03 5.878 5.878 0 0 0-6.569-.387c-.303.18-.65.218-.966.137"/><path fill="#C80" d="M134.09 136.39l-7.495-1.929a1.275 1.275 0 1 1 .636-2.47l7.317 1.88c.204.053.266-.082.265-.166a5.913 5.913 0 0 0-2.339-4.676 1.277 1.277 0 0 1 1.541-2.035 8.469 8.469 0 0 1 3.348 6.91 2.606 2.606 0 0 1-1.03 2.027 2.618 2.618 0 0 1-2.236.46c-.002 0-.005 0-.007-.002"/><path fill="#FFC431" d="M30.145 29.752c-2.668-1.493-4.595-4.687-5.616-6.74a.933.933 0 0 0-1.675 0c-1.021 2.053-2.947 5.247-5.615 6.74a.935.935 0 0 0 0 1.646c2.668 1.495 4.594 4.688 5.615 6.74a.933.933 0 0 0 1.676 0c1.02-2.052 2.947-5.245 5.615-6.74a.936.936 0 0 0 0-1.646M203.262 29.752c-2.668-1.493-4.594-4.687-5.615-6.74a.933.933 0 0 0-1.676 0c-1.021 2.053-2.947 5.247-5.615 6.74a.935.935 0 0 0 0 1.646c2.668 1.495 4.594 4.688 5.615 6.74a.933.933 0 0 0 1.676 0c1.02-2.052 2.947-5.245 5.615-6.74a.936.936 0 0 0 0-1.646M155.59 7.263c-2.667-1.494-4.593-4.687-5.614-6.74a.933.933 0 0 0-1.676 0c-1.021 2.053-2.947 5.246-5.615 6.74a.935.935 0 0 0 0 1.646c2.668 1.494 4.594 4.688 5.615 6.741a.934.934 0 0 0 1.676 0c1.02-2.053 2.947-5.247 5.615-6.74a.936.936 0 0 0 0-1.647M102.657 21.666c-2.668-1.493-4.594-4.687-5.615-6.74a.933.933 0 0 0-1.676 0c-1.021 2.053-2.947 5.247-5.615 6.74a.935.935 0 0 0 0 1.646c2.668 1.495 4.594 4.688 5.615 6.74a.933.933 0 0 0 1.676 0c1.02-2.052 2.947-5.245 5.615-6.74a.936.936 0 0 0 0-1.646"/><path fill="#CAF5FF" d="M91 216.568l-24.528 26H175l-28-26z"/><path fill="#46C4D1" fill-opacity=".8" d="M90.958 216.568H118.5l-27 25.97H66.215z"/><path fill="#CAF5FF" d="M91 216.568h55.5v-27H91z"/><path fill="#46C4D1" fill-opacity=".8" d="M118.496 216.568H146v-27z"/><path fill="#CAF5FF" fill-opacity=".5" d="M7 135.568h224v-53H7z"/><path fill="#46C4D1" fill-opacity=".5" d="M120 83.568v52h55zM8 83.568v52h54.992z"/><path fill="#90EDFC" fill-opacity=".5" d="M119 82.568H7l55.992 53 .008-.009.008.009zM230 135.568H120l55 54.5-1-1.509 1 1.509zM120 135.568H8l57 54zM231 82.568H119l55.992 53 .008-.009.008.009z"/><path fill="#CAF5FF" fill-opacity=".5" d="M65 189.568h110l-55-54z"/><path fill="#90EDFC" fill-opacity=".8" d="M146 189.568H91l27.496 27h.008z"/><path fill="#90EDFC" fill-opacity=".8" d="M91 242.568h55l-27.496-26.014-.004.011-.004-.014z"/><path fill="#46C4D1" fill-opacity=".5" d="M65 189.568l-2.008-54H120zM175 190.068l-.008-54.5H232z"/><path fill="#FFC431" d="M323.486 224.202l-4.583.182-.591-14.908c-.032-.794-.427-1.216-1.222-1.185l-5.752.228c-.794.033-1.127.484-1.096 1.278l.592 14.907-4.61.184c-2.38.093-4.267 2.418-4.172 4.799l.114 2.878c.094 2.377 2.142 4.073 4.52 3.978l17.263-.686c2.379-.094 4.313-1.947 4.219-4.324l-.115-2.878c-.094-2.382-2.188-4.548-4.567-4.453"/><path fill="#EFAB22" d="M323.486 224.202l-4.583.182-.591-14.908c-.032-.794-.427-1.216-1.222-1.185l-5.752.228c-.794.033-1.127.484-1.096 1.278l.058 1.458 3.27-.13c.795-.031 1.244.722 1.275 1.516l.615 15.47 4.542-.18c2.379-.093 4.49 1.507 4.585 3.888l.114 2.878c.018.449-.06.889-.18 1.305 2.095-.395 3.733-2.303 3.647-4.47l-.115-2.877c-.094-2.382-2.188-4.548-4.567-4.453"/><path stroke="#777" stroke-linecap="round" stroke-linejoin="round" stroke-width="1.795" d="M323.486 224.202l-4.583.182-.591-14.908c-.032-.794-.427-1.216-1.222-1.185l-5.752.228c-.794.033-1.127.484-1.096 1.278l.592 14.907-4.61.184c-2.38.093-3.37 2.382-3.276 4.764l.115 2.878c.094 2.377 1.245 4.108 3.624 4.013l17.262-.686c2.379-.094 4.313-1.947 4.219-4.324l-.115-2.878c-.094-2.382-2.188-4.548-4.567-4.453z"/><path fill="#777" d="M330.861 228.543l-31.645 1.257a1.44 1.44 0 0 0-1.382 1.494l.571 14.388a1.44 1.44 0 0 0 1.497 1.38l31.645-1.257a1.44 1.44 0 0 0 1.382-1.494l-.57-14.388a1.442 1.442 0 0 0-1.498-1.38"/><path fill="#EFAB22" d="M330.773 206.935a1.439 1.439 0 0 1-.65-2.749c5.467-2.486 8.89-6.886 10.17-13.077.655-3.179.556-6.056.418-7.62l-8.745.347a1.44 1.44 0 0 1-.114-2.878l10.07-.399a1.44 1.44 0 0 1 1.474 1.183c.034.185.802 4.58-.264 9.85-1.438 7.092-5.524 12.354-11.819 15.215a1.44 1.44 0 0 1-.54.128M297.594 208.252a1.403 1.403 0 0 1-.546-.085c-6.503-2.352-10.995-7.273-12.99-14.23-1.48-5.169-1.063-9.61-1.045-9.798a1.439 1.439 0 0 1 1.376-1.294l10.07-.401a1.44 1.44 0 0 1 .114 2.877l-8.745.347c-.013 1.57.117 4.445 1.024 7.564 1.765 6.07 5.525 10.184 11.175 12.228a1.44 1.44 0 0 1-.433 2.792"/><path fill="#FFC431" d="M331.683 176.643l-37.4 1.485a1.442 1.442 0 0 0-1.382 1.496l.743 18.701a20.021 20.021 0 0 0 6.463 14.006 20.037 20.037 0 0 0 14.474 5.332 20.028 20.028 0 0 0 14.006-6.463 20.019 20.019 0 0 0 5.333-14.475l-.743-18.7a1.439 1.439 0 0 0-1.494-1.382"/><path fill="#EFAB22" d="M331.683 176.643l-6.587.262a1.44 1.44 0 0 1 1.496 1.381l.742 18.701c.596 14.992-9.369 20.152-14.193 20.681.478.015.958.013 1.44-.005a20.028 20.028 0 0 0 14.006-6.463 20.019 20.019 0 0 0 5.333-14.475l-.743-18.7a1.439 1.439 0 0 0-1.494-1.382"/><path stroke="#777" stroke-linecap="round" stroke-linejoin="round" stroke-width="1.909" d="M331.683 176.643l-37.4 1.485a1.442 1.442 0 0 0-1.382 1.496l.743 18.701a20.021 20.021 0 0 0 6.463 14.006 20.037 20.037 0 0 0 14.474 5.332 20.028 20.028 0 0 0 14.006-6.463 20.019 20.019 0 0 0 5.333-14.475l-.743-18.7a1.439 1.439 0 0 0-1.494-1.382z"/><path fill="#4F4F4F" d="M330.891 229.296l-8.22.326c.794-.032 1.822-.18 1.853.611l.571 14.388c.032.792-.953 2.004-1.747 2.035l8.22-.326c.794-.03.732-1.2.7-1.994l-.57-14.388c-.033-.792-.013-.684-.807-.653"/><path fill="#FFF" d="M303.688 184.945c-1.496-.762-2.621-2.471-3.226-3.574a.512.512 0 0 0-.919.037c-.515 1.147-1.501 2.94-2.932 3.818a.514.514 0 0 0 .035.903c1.497.76 2.622 2.47 3.227 3.574a.512.512 0 0 0 .919-.037c.515-1.148 1.501-2.941 2.932-3.82a.513.513 0 0 0-.036-.901"/><path stroke="#4F4F4F" stroke-linecap="round" stroke-linejoin="round" stroke-width="1.909" d="M330.861 228.543l-31.645 1.257a1.44 1.44 0 0 0-1.382 1.494l.571 14.388a1.44 1.44 0 0 0 1.497 1.38l31.645-1.257a1.44 1.44 0 0 0 1.382-1.494l-.57-14.388a1.442 1.442 0 0 0-1.498-1.38z"/><path fill="#C80" d="M313.983 203.973c-4.577.251-8.505-3.269-8.755-7.846a1.254 1.254 0 1 1 2.507-.137 5.809 5.809 0 0 0 6.111 5.476 1.255 1.255 0 1 1 .137 2.507"/><path fill="#C80" d="M307.254 200.017c-.49.026-.97-.236-1.198-.705a8.286 8.286 0 0 1 1.275-9.177 1.256 1.256 0 0 1 1.873 1.672 5.786 5.786 0 0 0-.89 6.406 1.256 1.256 0 0 1-1.06 1.804"/><path fill="#C80" d="M308.336 192.224a1.257 1.257 0 0 1-1.003-2.093 8.262 8.262 0 0 1 4.213-2.522 8.3 8.3 0 0 1 4.78.25 1.256 1.256 0 0 1-.846 2.363 5.781 5.781 0 0 0-6.278 1.587 1.253 1.253 0 0 1-.866.415"/><path fill="#C80" d="M319.19 196.629l-7.603.416a1.256 1.256 0 0 1-.138-2.507l7.424-.407c.208-.012.225-.155.2-.234a5.82 5.82 0 0 0-3.583-3.695 1.256 1.256 0 0 1 .842-2.365 8.335 8.335 0 0 1 5.192 5.487 2.568 2.568 0 0 1-.365 2.208 2.572 2.572 0 0 1-1.961 1.096h-.007z"/></g></svg>