<svg height="250" viewBox="0 0 350 250" width="350" xmlns="http://www.w3.org/2000/svg" xmlns:xlink="http://www.w3.org/1999/xlink"><defs><path id="a" d="m28.106 8.108c.404-.83 1.054-.83 1.458 0l2.581 5.295 5.824.798c.934.127 1.145.753.473 1.401l-4.251 4.065 1.043 5.793c.16.909-.382 1.28-1.208.842l-5.191-2.764-5.19 2.764c-.827.438-1.368.067-1.209-.842l1.043-5.793-4.25-4.065c-.673-.648-.462-1.274.472-1.401l5.823-.798z"/><mask id="b" fill="#fff"><use fill="#fff" fill-rule="evenodd" xlink:href="#a"/></mask><mask id="c" fill="#fff"><path d="m5.503.155a6.367 6.367 0 0 0 -3.345 1.762l-.009.01a6.38 6.38 0 0 0 -1.859 4.486l-.002.025.002.063a6.138 6.138 0 0 0 .024.484c.002.035.003.07.007.104.014.14.035.277.057.413l.015.08c.054.3.13.593.224.877l.006.016c.853 2.534 3.249 4.363 6.066 4.363a.967.967 0 0 0 0-1.933 4.474 4.474 0 0 1 -4.113-2.724l-.003-.01a4.548 4.548 0 0 1 -.281-.95l-.005-.026a4.786 4.786 0 0 1 -.044-.323 4.317 4.317 0 0 1 -.017-.27l-.003-.101a4.455 4.455 0 0 1 1.304-3.217l.004-.004a4.454 4.454 0 0 1 4.888-.95c.04.017.084.027.127.038a4.524 4.524 0 0 1 2.48 2.96c.016.063-.003.196-.164.196h-5.725c-.534 0-.967.685-.967 1.219s.433 1.22.967 1.22h5.87c.61 0 1.175-.557 1.553-1.036.376-.478.513-1.367.374-1.959a6.419 6.419 0 0 0 -3.761-4.437.97.97 0 0 0 -.203-.058 6.41 6.41 0 0 0 -3.467-.318z" fill="#fff" fill-rule="evenodd"/></mask><mask id="d" fill="#fff"><path d="m0 .282h32.72v33.064h-32.72z" fill="#fff" fill-rule="evenodd"/></mask><mask id="e" fill="#fff"><path d="m0 .2h23.797v23.338h-23.797z" fill="#fff" fill-rule="evenodd"/></mask></defs><g fill="none" fill-rule="evenodd"><path d="m44.458 43.277c-.33.083-.547.147-.968.27-.414.148-.663.236-.979.362-15.27 6.135-22.883 22.758-17.84 38.281 6.15 18.924 24.997 20.215 27.402 27.618l.011.034 24.07-7.82-.012-.035c-2.405-7.403 11.747-19.397 5.598-38.32-5.044-15.524-21.322-24.403-37.282-20.39" fill="#f6b72c"/><path d="m52.129 41.803c9.239 3.65 16.467 11.013 19.637 20.767 6.844 21.065-10.574 34.937-7.897 43.177l.078.24 11.497-3.735-.011-.035c-2.435-7.494 11.448-19.492 5.224-38.65-4.186-12.881-15.874-21.289-28.528-21.764" fill="#f49c53"/><path d="m78.943 111.744-24.694 8.024c-2.373.771-4.926-.541-5.702-2.93-.777-2.39.517-4.952 2.89-5.723l24.695-8.023c2.372-.771 4.925.54 5.702 2.93.776 2.39-.518 4.951-2.89 5.722m1.73 11.13-19.382 6.297c-2.265.736-4.729-.605-5.505-2.994-.777-2.39.43-4.923 2.694-5.658l19.381-6.298c2.264-.735 4.729.605 5.506 2.994.776 2.39-.43 4.923-2.694 5.659m-15.804 7.26c-.315.103-.403.474-.153.645 2.168 1.478 5.195 1.969 8.14 1.012 2.946-.957 5.106-3.133 5.99-5.603.103-.286-.187-.534-.501-.432z" fill="#71716e"/><path d="m36.886 76.516c-1.073.349-2.173.385-3.222.048-3.634-1.167-5.276-6.372-3.668-11.627 1.144-3.737 3.624-6.492 6.269-7.35 1.073-.35 2.174-.386 3.224-.049 2.162.695 3.618 2.82 4.105 5.533a16.465 16.465 0 0 0 -3.25 4.447l-.013.032a16.737 16.737 0 0 0 -1.734 8.132 7.187 7.187 0 0 1 -1.71.834" fill="#f8e494"/><path d="m170.081 35.77c13.554 2.635 22.405 15.756 19.77 29.311-2.634 13.555-15.757 22.405-29.31 19.77-13.554-2.634-22.406-15.756-19.77-29.31 2.634-13.555 15.757-22.405 29.31-19.77" fill="#da5474"/><path d="m143.475 72.196c3.474 6.39 9.708 11.225 17.475 12.735s15.358-.637 20.972-5.261z" fill="#c24f6d"/><path d="m169.775 50.001-.874.576 5.93 7.34c.154-.404.331-.728.537-1l-5.593-6.917zm2.103-1.996c-.14.327-.36.68-.603.945l4.835 7.285c.339-.172.699-.26 1.073-.225z" fill="#2f424f"/><path d="m171.755 48.68-9.861 5.873-1.342-2.414a4.256 4.256 0 0 0 -2.596-2.033l10.395-6.233c1.382-.83 3.282-.418 4.206.896.393.581.566 1.203.49 1.814-.04.854-.526 1.62-1.292 2.097" fill="#fffffe"/><path d="m164.35 60.887c-.118-.023-6.297 1.002-7.36 3.749l-4.401-8.543a4.118 4.118 0 0 1 1.764-5.521c2.029-1.019 4.517-.214 5.549 1.806l4.448 8.51" fill="#2f424f"/><path d="m151.828 72.9-.173.886 18.815 3.657.172-.886c.164-.843-.362-1.697-1.224-1.865l-15.757-3.063c-.87-.125-1.67.427-1.833 1.271" fill="#fffffe"/><path d="m153.884 71.057-.115.593 15.542 3.021.115-.593c.115-.59-.352-1.15-1.066-1.29l-13.005-2.527c-.713-.139-1.363.24-1.471.796" fill="#2f424f"/><path d="m163.925 60.89c-3.364-.654-6.675 1.584-7.33 4.957l-.872 4.485 12.27 2.385.872-4.485c.655-3.373-1.576-6.688-4.94-7.342" fill="#fffffe"/><path d="m162.97 65.799a1.25 1.25 0 1 1 -.476 2.453 1.25 1.25 0 0 1 .477-2.453m-6.772-13.202a2.081 2.081 0 0 1 1.648 2.44 2.085 2.085 0 0 1 -2.443 1.65 2.085 2.085 0 0 1 -1.648-2.444 2.081 2.081 0 0 1 2.443-1.646m12.951-7.67a1.667 1.667 0 1 1 -.638 3.274 1.667 1.667 0 0 1 .638-3.274" fill="#da5474"/><path d="m177.961 65.108c-.17.873-.476 1.826-.867 2.587l-.935-.182.36-1.853c.378-.072.667-.308.734-.655.089-.455-.265-.923-.771-1.021-.507-.099-1.01.203-1.098.657a.824.824 0 0 0 .434.883l-.36 1.853-.934-.182c-.071-.885-.004-1.85.165-2.723.116-.596.243-1.043.435-1.405l2.921.568c.043.408.026.91-.084 1.473" fill="#2f424f"/><path d="m179.287 63.876a12.17 12.17 0 0 0 1.301-3.548c.56-2.876-.586-3.953-2.143-4.256-1.6-.31-3.024.267-3.583 3.143a12.17 12.17 0 0 0 -.122 3.778z" fill="#fffffe"/><path d="m177.717 57.629a.835.835 0 0 1 .659.979.832.832 0 1 1 -.658-.979" fill="#da5474"/><g transform="matrix(.51503807 .8571673 -.8571673 .51503807 158.35156 84.804565)"><path d="m53.993 0h-53.993v70h39.126l3.13-11.538 11.737-3.075z" fill="#fcde94"/><path d="m53.993 55.388-14.867 14.612h-19.956v-70h34.822v55.388" fill="#f9d073"/><path d="m39.126 55.388v14.612l14.867-14.612z" fill="#a3a4a0"/><path d="m44.603 39.655h-24.258c-.647 0-1.174-.52-1.174-1.155 0-.636.527-1.155 1.174-1.155h24.258c.649 0 1.174.52 1.174 1.155 0 .636-.525 1.155-1.174 1.155m0 12.127h-24.258c-.647 0-1.174-.519-1.174-1.154 0-.636.527-1.156 1.174-1.156h24.258c.649 0 1.174.52 1.174 1.155 0 .636-.525 1.155-1.174 1.155m-36.952-13.282c0-1.715 1.414-3.103 3.158-3.103s3.157 1.388 3.157 3.103-1.413 3.103-3.157 3.103-3.158-1.388-3.158-3.103m0 12.127c0-1.715 1.414-3.103 3.158-3.103s3.157 1.389 3.157 3.103c0 1.715-1.413 3.104-3.157 3.104s-3.158-1.389-3.158-3.104" fill="#32b3d9"/><use fill="#50b7e8" fill-rule="nonzero" xlink:href="#a"/><path d="m28.713 7.129h10.366v19.712h-10.366z" fill="#72c9e9" mask="url(#b)"/></g><g fill-rule="nonzero"><path d="m140.93 131.108 11.418 26.897c.785 1.85-.129 4.001-2.047 4.816l-23.264 9.875c-1.918.814-4.1-.023-4.886-1.873l-11.418-26.898c-.785-1.85.13-4 2.048-4.815l23.264-9.875c1.918-.814 4.1.022 4.886 1.873z" fill="#f49c53"/><path d="m140.495 131.305 11.418 26.898c.785 1.85-.107 3.992-1.997 4.794l-11.464 4.866-14.256-33.585 11.463-4.866c1.89-.803 4.05.043 4.836 1.893z" fill="#f16661"/><path d="m126.003 170.625c-.633.269-1.36-.016-1.623-.635l-11.5-27.09c-.263-.619.038-1.34.67-1.609l23.09-9.8c.633-.269 1.36.016 1.623.635l11.499 27.09c.263.619-.038 1.34-.67 1.609l-23.09 9.8z" fill="#f6b72c"/><path d="m136.643 131.501-11.545 4.9 12.451 29.334 11.545-4.9c.633-.269.933-.99.67-1.61l-11.498-27.088c-.263-.62-.99-.904-1.623-.636z" fill="#f49c53"/><path d="m144.31 156.35.886-2.107a1.206 1.206 0 0 0 -.68-1.603 1.294 1.294 0 0 0 -1.65.7l-.887 2.107-2.132-.826a1.294 1.294 0 0 0 -1.65.701 1.206 1.206 0 0 0 .68 1.603l2.132.825-.887 2.107a1.206 1.206 0 0 0 .68 1.603 1.294 1.294 0 0 0 1.65-.7l.887-2.107 2.132.825a1.294 1.294 0 0 0 1.65-.7 1.206 1.206 0 0 0 -.68-1.603l-2.132-.826zm-5.07-15.802c-.25.638-.993.953-1.625.69l-.482-.167 1.71 4.027c.792 1.868-.123 4.036-2.05 4.853l-9.44 4.007c-.65.276-.95.988-.683 1.618l1.974 4.65c.267.63-.033 1.342-.683 1.618s-1.371-.003-1.639-.633l-1.973-4.65c-.793-1.867.122-4.035 2.05-4.852l9.44-4.008c.65-.275.95-.987.682-1.617l-1.71-4.028-.214.463c-.25.637-.992.953-1.625.69a1.156 1.156 0 0 1 -.668-1.575l1.366-3.235c.25-.637.993-.953 1.625-.69l3.277 1.264c.645.23.951.95.668 1.575z" fill="#fff"/><path d="m128.198 129.702-1.37.581c-1.018-1.108-2.796-1.468-4.305-.827-1.51.64-2.485 2.17-2.396 3.672l-1.37.581c-1.926.818-2.841 2.986-2.049 4.853.793 1.867 2.988 2.715 4.915 1.897l9.44-4.007c1.927-.818 2.842-2.986 2.05-4.853-.793-1.868-2.988-2.715-4.915-1.897z" fill="#ffde3f"/><path d="m123.416 146.12.887-2.106a1.206 1.206 0 0 0 -.68-1.603 1.294 1.294 0 0 0 -1.65.7l-.887 2.107-2.132-.825a1.294 1.294 0 0 0 -1.65.7 1.206 1.206 0 0 0 .68 1.603l2.132.825-.887 2.107a1.206 1.206 0 0 0 .68 1.603 1.294 1.294 0 0 0 1.65-.7l.888-2.107 2.13.825a1.294 1.294 0 0 0 1.651-.7 1.206 1.206 0 0 0 -.68-1.603l-2.132-.825zm15.607-5.496a1.256 1.256 0 0 1 -1.631.692l-.484-.166 1.708 4.023c.791 1.865-.131 4.034-2.066 4.855l-4.74 2.012-.954-2.247 4.74-2.012c.653-.277.956-.99.689-1.619l-1.708-4.022-.216.463a1.256 1.256 0 0 1 -1.632.693 1.15 1.15 0 0 1 -.668-1.573l1.378-3.237a1.256 1.256 0 0 1 1.631-.693l3.286 1.258c.647.229.952.948.667 1.573z" fill="#fff"/><path d="m132.893 131.69c.791 1.865-.131 4.033-2.066 4.855l-4.74 2.012-3.816-8.989c1.515-.643 3.3-.287 4.319.82l1.375-.585c1.935-.821 4.136.021 4.928 1.887z" fill="#f6b72c"/><path d="m130.094 166.372c-1.93.82-4.149-.04-4.945-1.915s.127-4.067 2.058-4.887c1.93-.82 4.149.04 4.945 1.915s-.127 4.068-2.058 4.887z" fill="#fff"/><path d="m106.128 133.565-.638 36.52c-.044 2.512-2.167 4.504-4.753 4.459l-31.369-.548c-2.586-.045-4.639-2.11-4.595-4.621l.638-36.52c.043-2.513 2.167-4.504 4.753-4.459l31.369.548c2.586.045 4.639 2.109 4.595 4.621z" fill="#f49c53"/><path d="m105.538 133.555-.638 36.52c-.044 2.512-2.136 4.504-4.685 4.46l-15.458-.27.796-45.6 15.457.27c2.55.044 4.572 2.108 4.528 4.62z" fill="#f16661"/><path d="m69.241 171.107a1.537 1.537 0 0 1 -1.52-1.551l.642-36.78c.015-.84.72-1.512 1.573-1.497l31.134.543c.853.015 1.534.71 1.52 1.552l-.643 36.78a1.537 1.537 0 0 1 -1.573 1.496z" fill="#f6b72c"/><path d="m101.07 131.822-15.567-.271-.695 39.828 15.566.271a1.537 1.537 0 0 0 1.573-1.497l.642-36.78a1.537 1.537 0 0 0 -1.52-1.55z" fill="#f49c53"/><path d="m97.196 164.089 2.07-1.955c.624-.59.641-1.564.037-2.176a1.598 1.598 0 0 0 -2.225-.04l-2.07 1.955-2-2.025a1.598 1.598 0 0 0 -2.225-.04 1.515 1.515 0 0 0 -.038 2.177l2 2.026-2.069 1.955a1.515 1.515 0 0 0 -.038 2.176c.604.612 1.6.63 2.225.04l2.07-1.955 2 2.025c.604.612 1.6.63 2.225.04.625-.591.642-1.565.038-2.177zm2.261-20.601c-.606.6-1.607.583-2.191-.038l-.462-.436-.096 5.468c-.044 2.535-2.177 4.546-4.775 4.5l-12.729-.222c-.876-.015-1.577.645-1.591 1.5l-.11 6.314c-.016.855-.716 1.515-1.592 1.5-.877-.016-1.554-.7-1.539-1.555l.11-6.313c.045-2.536 2.177-4.546 4.776-4.5l12.729.221c.876.016 1.576-.644 1.591-1.5l.096-5.468-.477.42c-.606.6-1.607.583-2.191-.039a1.452 1.452 0 0 1 .037-2.138l3.183-3a1.539 1.539 0 0 1 2.191.038l3.077 3.11a1.452 1.452 0 0 1 -.037 2.138z" fill="#fff"/><path d="m92.413 125.489-1.847-.032c-.595-1.783-2.43-3.099-4.464-3.134-2.035-.036-3.914 1.215-4.571 2.976l-1.847-.032c-2.598-.046-4.73 1.964-4.775 4.5-.044 2.535 2.017 4.619 4.615 4.664l12.73.222c2.597.046 4.73-1.965 4.774-4.5.044-2.536-2.017-4.619-4.615-4.664z" fill="#ffde3f"/><path d="m78.695 141.825 2.07-1.955c.625-.59.642-1.564.038-2.176a1.598 1.598 0 0 0 -2.226-.04l-2.069 1.956-2-2.026a1.598 1.598 0 0 0 -2.225-.039 1.515 1.515 0 0 0 -.038 2.177l2 2.025-2.07 1.955a1.515 1.515 0 0 0 -.038 2.177c.605.612 1.6.629 2.226.038l2.07-1.954 1.999 2.025c.604.612 1.6.63 2.225.04.625-.591.642-1.565.038-2.177zm20.487 1.633c-.608.6-1.613.582-2.2-.039l-.464-.435-.095 5.461c-.045 2.533-2.186 4.54-4.795 4.495l-6.392-.112.054-3.05 6.391.11c.88.016 1.583-.643 1.598-1.497l.096-5.462-.48.419c-.607.6-1.613.582-2.2-.038a1.445 1.445 0 0 1 .038-2.136l3.196-2.997a1.551 1.551 0 0 1 2.2.039l3.09 3.106c.62.59.602 1.567-.037 2.136z" fill="#fff"/><path d="m96.742 130.139c-.044 2.532-2.186 4.54-4.795 4.494l-6.391-.111.213-12.205c2.043.036 3.886 1.35 4.483 3.13l1.855.033c2.61.045 4.68 2.126 4.635 4.659z" fill="#f6b72c"/><path d="m76.007 168.338c-2.604-.045-4.685-2.154-4.64-4.7.044-2.546 2.198-4.58 4.8-4.535 2.604.045 4.685 2.154 4.641 4.7s-2.198 4.58-4.801 4.535z" fill="#fff"/></g><path d="m313.951 233.64h-3.205v-10.34c0-.55-.224-.86-.773-.86h-3.978c-.549 0-.85.31-.85.86v10.34h-3.128c-1.645 0-3.271 1.52-3.271 3.166v1.99c0 1.643 1.626 2.843 3.27 2.843h11.935c1.645 0 3.195-1.2 3.195-2.843v-1.99c0-1.647-1.55-3.167-3.195-3.167" fill="#ffc431"/><path d="m313.951 233.64h-3.205v-10.34c0-.55-.224-.86-.773-.86h-3.978c-.549 0-.85.31-.85.86v1.14h2.32c.55 0 .88.4.88.949v10.65h3.1c1.644 0 3.3 1.21 3.3 2.856v1.99c0 .31-.104.612-.2.896 1.458-.216 2.6-1.488 2.6-2.985v-1.99c0-1.647-1.549-3.167-3.194-3.167" fill="#efab22"/><path d="m313.951 233.84h-3.005v-10.54c0-.55-.424-.66-.973-.66h-3.978c-.549 0-.65.11-.65.66v10.54h-3.328c-1.645 0-2.671 1.32-2.671 2.966v1.99c0 1.643 1.026 2.643 2.67 2.643h11.935c1.645 0 2.995-1 2.995-2.643v-1.99c0-1.647-1.35-2.967-2.995-2.967z" stroke="#777" stroke-linecap="round" stroke-linejoin="round" stroke-width="1.2"/><path d="m318.924 236.806h-21.88a.995.995 0 0 0 -.995.993v9.948c0 .548.446.993.995.993h21.88c.549 0 .995-.445.995-.993v-9.948a.995.995 0 0 0 -.995-.993" fill="#777"/><path d="m319.455 221.887a.995.995 0 0 1 -.374-1.916c3.843-1.566 6.326-4.51 7.38-8.748.54-2.176.55-4.165.498-5.249h-6.046a.994.994 0 0 1 0-1.99h6.962c.497 0 .916.367.985.857.019.13.428 3.184-.452 6.792-1.187 4.858-4.152 8.378-8.577 10.18-.124.05-.25.074-.376.074m-22.94 0a.991.991 0 0 1 -.375-.074c-4.424-1.802-7.39-5.322-8.576-10.18-.881-3.608-.471-6.663-.453-6.792a.994.994 0 0 1 .985-.856h6.962a.994.994 0 1 1 0 1.989h-6.046c-.052 1.083-.041 3.072.5 5.248 1.052 4.24 3.534 7.183 7.378 8.749a.996.996 0 0 1 -.375 1.916" fill="#efab22"/><path d="m320.914 201.001h-25.86a.994.994 0 0 0 -.994.994v12.93c0 3.72 1.449 7.216 4.078 9.846a13.836 13.836 0 0 0 9.846 4.077c3.72 0 7.216-1.448 9.845-4.077a13.831 13.831 0 0 0 4.078-9.846v-12.93a.993.993 0 0 0 -.993-.994" fill="#ffc431"/><path d="m320.914 201.001h-4.555c.55 0 .995.445.995.994v12.93c0 10.366-7.02 13.655-10.365 13.888.33.023.661.035.995.035 3.72 0 7.216-1.448 9.845-4.077a13.831 13.831 0 0 0 4.078-9.846v-12.93a.993.993 0 0 0 -.993-.994" fill="#efab22"/><path d="m320.914 201.001h-25.86a.994.994 0 0 0 -.994.994v12.93c0 3.72 1.449 7.216 4.078 9.846a13.836 13.836 0 0 0 9.846 4.077c3.72 0 7.216-1.448 9.845-4.077a13.831 13.831 0 0 0 4.078-9.846v-12.93a.993.993 0 0 0 -.993-.994z" stroke="#777" stroke-linecap="round" stroke-linejoin="round" stroke-width="1.319"/><path d="m318.924 237.24h-5.684c.55 0 1.106.011 1.106.559v9.948c0 .548-.556 1.092-1.106 1.092h5.684c.549 0 .622-.544.622-1.092v-9.948c0-.548-.073-.56-.622-.56" fill="#4f4f4f"/><path d="m301.36 205.964c-1.01-.566-1.74-1.777-2.128-2.556a.354.354 0 0 0 -.636 0c-.387.779-1.117 1.99-2.128 2.556a.354.354 0 0 0 0 .624c1.011.567 1.741 1.777 2.128 2.556a.354.354 0 0 0 .636 0c.387-.779 1.117-1.99 2.129-2.556a.355.355 0 0 0 0-.624" fill="#fff"/><path d="m314.135 213.492a6.319 6.319 0 0 0 -3.703-4.369.912.912 0 0 0 -.2-.057 6.293 6.293 0 0 0 -6.707 1.421l-.008.01a6.28 6.28 0 0 0 -1.832 4.417l-.002.024.002.063a5.168 5.168 0 0 0 .022.477l.008.102c.014.137.034.272.057.406l.014.08c.053.295.127.583.22.862l.006.017c.84 2.494 3.2 4.296 5.973 4.296a.952.952 0 0 0 0-1.904 4.404 4.404 0 0 1 -4.05-2.682c0-.003 0-.006-.002-.01a4.43 4.43 0 0 1 -.277-.934l-.005-.027a4.428 4.428 0 0 1 -.042-.307l-.001-.01a4.246 4.246 0 0 1 -.02-.366 4.385 4.385 0 0 1 1.284-3.167l.004-.005a4.384 4.384 0 0 1 4.812-.935c.041.017.083.027.126.038a4.452 4.452 0 0 1 2.441 2.914c.016.062-.003.193-.16.193h-5.637c-.525 0-.952.675-.952 1.2 0 .526.427 1.2.952 1.2h5.779c.6 0 1.158-.547 1.53-1.019.37-.47.504-1.346.368-1.928" fill="#c80"/><path d="m29.083 2.327-29.023 29.022-5.19-4.886 29.021-29.023z" fill="#0289b2" mask="url(#c)" transform="translate(301 209)"/><path d="m319 237h-22a1 1 0 0 0 -1 .999v10.002a1 1 0 0 0 1 .999h22a1 1 0 0 0 1-.999v-10.002a1 1 0 0 0 -1-.999z" stroke="#4f4f4f" stroke-linecap="round" stroke-linejoin="round" stroke-width="1.319"/><path d="m139.601 57.417h-53.993v70h39.126l3.13-11.538 11.737-3.074z" fill="#fcde94"/><path d="m139.601 112.805-14.867 14.612h-19.955v-70h34.822z" fill="#f9d073"/><path d="m124.734 112.805v14.612l14.867-14.612z" fill="#a3a4a0"/><path d="m96.418 74.38c-.301 0-.601-.116-.831-.338l-2.347-2.31a1.142 1.142 0 0 1 0-1.633 1.19 1.19 0 0 1 1.66 0l1.518 1.493 4.36-4.17a1.19 1.19 0 0 1 1.66 0 1.141 1.141 0 0 1 0 1.633l-5.19 4.987a1.2 1.2 0 0 1 -.83.338m33.793 10.22h-24.258a1.163 1.163 0 0 1 -1.174-1.155c0-.635.527-1.155 1.174-1.155h24.258c.65 0 1.174.52 1.174 1.155 0 .642-.525 1.155-1.174 1.155m0-12.145h-24.258c-.647 0-1.174-.519-1.174-1.155 0-.635.527-1.155 1.174-1.155h24.258c.65 0 1.174.52 1.174 1.155 0 .636-.525 1.155-1.174 1.155m0 24.617h-24.258c-.647 0-1.174-.52-1.174-1.155 0-.636.527-1.155 1.174-1.155h24.258c.65 0 1.174.52 1.174 1.155 0 .636-.525 1.155-1.174 1.155m0 12.128h-24.258c-.647 0-1.174-.52-1.174-1.155 0-.636.527-1.155 1.174-1.155h24.258c.65 0 1.174.519 1.174 1.155 0 .635-.525 1.155-1.174 1.155m-36.951-25.755c0-1.715 1.414-3.103 3.158-3.103 1.743 0 3.157 1.388 3.157 3.103s-1.414 3.104-3.157 3.104c-1.744 0-3.158-1.389-3.158-3.104m0 12.472c0-1.715 1.414-3.103 3.158-3.103 1.743 0 3.157 1.388 3.157 3.103s-1.414 3.103-3.157 3.103c-1.744 0-3.158-1.388-3.158-3.103m0 12.128c0-1.715 1.414-3.104 3.158-3.104 1.743 0 3.157 1.389 3.157 3.104s-1.414 3.103-3.157 3.103c-1.744 0-3.158-1.388-3.158-3.103" fill="#32b3d9"/><path d="m59.506 30.186a.918.918 0 0 1 0 1.628c-2.69 1.478-4.632 4.637-5.66 6.67a.95.95 0 0 1 -1.69 0c-1.03-2.033-2.971-5.192-5.66-6.67a.917.917 0 0 1 0-1.628c2.689-1.479 4.63-4.638 5.66-6.669a.949.949 0 0 1 1.69 0c1.028 2.031 2.97 5.19 5.66 6.669zm159 .999c-2.69-1.477-4.632-4.637-5.66-6.668a.949.949 0 0 0 -1.69 0c-1.03 2.031-2.971 5.191-5.66 6.668a.917.917 0 0 0 0 1.629c2.689 1.479 4.63 4.638 5.66 6.669.35.69 1.34.69 1.69 0 1.028-2.031 2.97-5.19 5.66-6.67a.918.918 0 0 0 0-1.628m-48-19.999c-2.69-1.479-4.632-4.638-5.66-6.669a.949.949 0 0 0 -1.69 0c-1.03 2.031-2.971 5.19-5.66 6.669a.917.917 0 0 0 0 1.628c2.689 1.478 4.63 4.638 5.66 6.67a.95.95 0 0 0 1.69 0c1.028-2.032 2.97-5.192 5.66-6.67a.918.918 0 0 0 0-1.628m-53 11.999c-2.69-1.477-4.632-4.637-5.66-6.668a.949.949 0 0 0 -1.69 0c-1.03 2.031-2.971 5.191-5.66 6.668a.917.917 0 0 0 0 1.629c2.689 1.479 4.63 4.638 5.66 6.669.35.69 1.34.69 1.69 0 1.028-2.031 2.97-5.19 5.66-6.67a.918.918 0 0 0 0-1.628" fill="#ffc431"/><path d="m203.96 223.485c-.484-.962-.458-2.297-.381-3.114.026-.277-.25-.465-.471-.321-.652.426-1.76 1.024-2.776.967-.249-.015-.411.262-.292.497.484.964.458 2.299.381 3.115-.026.278.25.466.471.32.651-.425 1.76-1.024 2.776-.966.249.015.411-.262.292-.498" fill="#fff"/><path d="m249.537 49.947-52.813-11.226-14.554 68.47 38.27 8.135 5.46-10.635 12.121-.567z" fill="#fcde94"/><path d="m238.021 104.124-17.58 11.202-19.519-4.148 14.554-68.47 34.06 7.24z" fill="#f9d073"/><path d="m223.479 101.033-3.038 14.293 17.58-11.202-14.542-3.09" fill="#a3a4a0"/><path d="m232.107 86.783-23.727-5.043a1.166 1.166 0 0 1 -.908-1.374 1.166 1.166 0 0 1 1.388-.886l23.728 5.044c.635.135 1.04.752.908 1.374a1.165 1.165 0 0 1 -1.389.885m-2.521 11.863-23.728-5.044a1.166 1.166 0 0 1 -.908-1.374 1.166 1.166 0 0 1 1.388-.885l23.728 5.043c.635.135 1.04.752.908 1.374a1.165 1.165 0 0 1 -1.388.886m-33.383-20.676c.357-1.677 2.029-2.74 3.735-2.378 1.705.362 2.8 2.014 2.443 3.692-.357 1.677-2.028 2.741-3.734 2.379-1.706-.363-2.8-2.015-2.444-3.692m-2.521 11.862c.357-1.677 2.028-2.741 3.734-2.379 1.706.363 2.8 2.015 2.443 3.692-.357 1.678-2.028 2.742-3.733 2.38-1.706-.363-2.8-2.015-2.444-3.693" fill="#32b3d9"/><g transform="matrix(.98480775 .17364818 -.17364818 .98480775 176.774231 19.281297)"><circle cx="48.5" cy="34.5" fill="#d8d8d8" r="9.5"/><circle cx="48.5" cy="34.5" r="10.5" stroke="#979797" stroke-width="2"/></g><path d="m216.897 71.035 3.3-18.712a9.5 9.5 0 0 0 -3.3 18.712z" fill="#fff"/><path d="m208.007 65.225 20.192-7.235" stroke="#979797" stroke-width="2"/><path d="m0 16.814c0-9.13 7.325-16.532 16.36-16.532 9.036 0 16.36 7.402 16.36 16.532s-7.324 16.532-16.36 16.532c-9.035 0-16.36-7.402-16.36-16.532" fill="#4bb7e8" mask="url(#d)" transform="translate(260 216.372)"/><path d="m274.111 239.609 7.824-5.791a.695.695 0 0 0 -.018-1.129l-7.825-5.396a.684.684 0 0 0 -1.07.571v11.187c0 .566.638.892 1.09.558" fill="#4f4f4f"/><path d="m0 11.869c0-6.445 5.327-11.67 11.898-11.67 6.572 0 11.899 5.225 11.899 11.67s-5.327 11.67-11.899 11.67c-6.57-.001-11.898-5.226-11.898-11.671" fill="#4bb7e8" mask="url(#e)" transform="matrix(.98480775 .17364818 -.17364818 .98480775 209.220671 48.356793)"/><path d="m216.48 66.292 6.312-3.037a.483.483 0 0 0 .126-.787l-4.943-4.74c-.286-.274-.768-.124-.836.263l-1.371 7.776c-.07.394.347.701.711.525" fill="#4f4f4f"/><path d="m211.223 114.172h10.545v-5.2h-10.545z" fill="#777"/><path d="m209.001 108.973h14.989v-5.973h-14.99z" fill="#aaa"/><path d="m191.327 136.67c0-13.673 11.24-24.758 25.105-24.758 13.866 0 25.106 11.085 25.106 24.759 0 13.673-11.24 24.758-25.106 24.758-13.865 0-25.105-11.085-25.105-24.758" fill="#ed6060"/><path d="m198.682 154.208c10.013 9.874 25.7 9.669 35.504 0s10.012-25.139 0-35.013z" fill="#e23b3b"/><path d="m197.144 136.67c0-10.505 8.636-19.021 19.288-19.021 10.653 0 19.289 8.516 19.289 19.022 0 10.505-8.636 19.021-19.289 19.021-10.652 0-19.288-8.516-19.288-19.021" fill="#fff"/><path d="m191.327 136.67c0-13.673 11.24-24.758 25.105-24.758 13.866 0 25.106 11.085 25.106 24.759 0 13.673-11.24 24.758-25.106 24.758-13.865 0-25.105-11.085-25.105-24.758z" stroke="#777" stroke-linecap="round" stroke-linejoin="round" stroke-width="1.634"/><path d="m225.963 127.585 1.36-1.341m-.76 20.052 1.36 1.34m-20.969-20.051-1.36-1.341m.76 20.052-1.36 1.34" stroke="#777" stroke-linecap="round" stroke-linejoin="round" stroke-width="1.442"/><path d="m216.123 128.631v9.189h9.318" stroke="#777" stroke-linecap="round" stroke-linejoin="round" stroke-width="1.96"/><path d="m203.613 144.745c-.858-.474-1.478-1.487-1.806-2.138a.302.302 0 0 0 -.54 0c-.328.65-.947 1.664-1.806 2.138a.295.295 0 0 0 0 .523c.859.473 1.478 1.487 1.806 2.138a.302.302 0 0 0 .54 0c.328-.651.948-1.665 1.806-2.138a.295.295 0 0 0 0-.523" fill="#fff"/><path d="m170.71 155.683 8.16-2.97-1.476-4.058-8.16 2.97z" fill="#777"/><path d="m167.514 152.25 11.599-4.22-1.697-4.662-11.599 4.222z" fill="#aaa"/><path d="m161.704 178.845c-3.884-10.671 1.666-22.488 12.396-26.393s22.577 1.58 26.46 12.25c3.885 10.672-1.665 22.488-12.395 26.394-10.73 3.905-22.577-1.58-26.46-12.25" fill="#81ce74"/><path d="m172.377 190.46c10.554 4.886 22.635.307 27.475-10 4.841-10.307.608-22.44-9.945-27.325z" fill="#ffd217"/><path d="m166.206 177.207c-2.984-8.199 1.28-17.278 9.523-20.278 8.244-3 17.346 1.213 20.33 9.412s-1.28 17.277-9.524 20.278c-8.243 3-17.345-1.214-20.33-9.412" fill="#fff"/><path d="m161.704 178.845c-3.884-10.671 1.666-22.488 12.396-26.393s22.577 1.58 26.46 12.25c3.885 10.672-1.665 22.488-12.395 26.394-10.73 3.905-22.577-1.58-26.46-12.25z" stroke="#777" stroke-linecap="round" stroke-linejoin="round" stroke-width="1.334"/><path d="m185.927 161.999.671-1.43m5.108 15.863 1.434.664m-21.924-9.743-1.433-.664m6.284 15.435-.672 1.43" stroke="#777" stroke-linecap="round" stroke-linejoin="round" stroke-width="1.177"/><path d="m178.687 165.559 2.61 7.17 7.21-2.624" stroke="#777" stroke-linecap="round" stroke-linejoin="round" stroke-width="1.6"/><g transform="translate(87 158)"><rect fill="#87d37c" height="29.908" rx="2.24" width="30.316"/><rect fill="#f16661" height="29.908" rx="2.24" width="30.316" x="33.684" y="6.092"/><path d="m9.973 22.34a3.065 3.065 0 0 0 2.147.921 3.072 3.072 0 0 0 2.178-.85l11.207-10.811a2.83 2.83 0 0 0 0-4.104 3.087 3.087 0 0 0 -4.254 0l-9.006 8.688-3.11-3.21c-1.133-1.172-3.037-1.235-4.25-.142a2.83 2.83 0 0 0 -.145 4.102z" fill="#fff"/></g><path d="m111 223.568-24.528 26h108.528l-28-26z" fill="#caf5ff"/><path d="m111.11 223.568h27.39l-27.39 25.955h-24.785z" fill="#46c4d1" opacity=".805"/><path d="m111 223.568h55.5v-27h-55.5z" fill="#caf5ff"/><path d="m138.496 223.568h27.504v-27z" fill="#46c4d1" opacity=".805"/><g fill-opacity=".5"><path d="m27 142.568h224v-53h-224z" fill="#caf5ff"/><path d="m140 90.568v52h55zm-112 0v52h54.992z" fill="#46c4d1"/><path d="m139 89.568h-112l55.992 53 .008-.01.008.01zm111 53h-110l55 54.5-1-1.51 1 1.51zm-110 0h-112l57 54zm111-53h-112l55.992 53 .008-.01.008.01z" fill="#90edfc"/><path d="m85 196.568h110l-55-54z" fill="#caf5ff"/></g><path d="m166 196.568h-55l27.496 27h.008z" fill="#90edfc"/><path d="m111 249.568h55l-27.496-26.014-.004.01-.004-.013z" fill="#90edfc"/><path d="m85 196.568-2.008-54h57.008zm110 .5-.008-54.5h57.008z" fill="#46c4d1" fill-opacity=".5"/></g></svg>