<svg height="250" viewBox="0 0 350 250" width="350" xmlns="http://www.w3.org/2000/svg" xmlns:xlink="http://www.w3.org/1999/xlink"><mask id="a" fill="#fff"><path d="m0 .399h46.602v46.678h-46.602z" fill="#fff" fill-rule="evenodd"/></mask><mask id="b" fill="#fff"><path d="m0 .2h23.797v23.338h-23.797z" fill="#fff" fill-rule="evenodd"/></mask><mask id="c" fill="#fff"><path d="m0 .2h23.797v23.338h-23.797z" fill="#fff" fill-rule="evenodd"/></mask><mask id="d" fill="#fff"><path d="m0 .2h23.797v23.338h-23.797z" fill="#fff" fill-rule="evenodd"/></mask><mask id="e" fill="#fff"><path d="m0 .2h23.797v23.338h-23.797z" fill="#fff" fill-rule="evenodd"/></mask><mask id="f" fill="#fff"><path d="m0 .2h23.797v23.338h-23.797z" fill="#fff" fill-rule="evenodd"/></mask><mask id="g" fill="#fff"><path d="m0 .2h23.797v23.338h-23.797z" fill="#fff" fill-rule="evenodd"/></mask><mask id="h" fill="#fff"><path d="m0 .2h23.797v23.338h-23.797z" fill="#fff" fill-rule="evenodd"/></mask><mask id="i" fill="#fff"><path d="m0 .282h32.72v33.064h-32.72z" fill="#fff" fill-rule="evenodd"/></mask><mask id="j" fill="#fff"><path d="m0 .282h32.72v33.064h-32.72z" fill="#fff" fill-rule="evenodd"/></mask><g fill="none" fill-rule="evenodd"><path d="m59.506 36.186a.918.918 0 0 1 0 1.628c-2.69 1.478-4.632 4.637-5.66 6.67a.95.95 0 0 1 -1.69 0c-1.03-2.033-2.971-5.192-5.66-6.67a.917.917 0 0 1 0-1.628c2.689-1.479 4.63-4.638 5.66-6.669a.949.949 0 0 1 1.69 0c1.028 2.031 2.97 5.19 5.66 6.669zm159-5.001c-2.69-1.477-4.632-4.637-5.66-6.668a.949.949 0 0 0 -1.69 0c-1.03 2.031-2.971 5.191-5.66 6.668a.917.917 0 0 0 0 1.629c2.689 1.479 4.63 4.638 5.66 6.669.35.69 1.34.69 1.69 0 1.028-2.031 2.97-5.19 5.66-6.67a.918.918 0 0 0 0-1.628m-48-19.999c-2.69-1.479-4.632-4.638-5.66-6.669a.949.949 0 0 0 -1.69 0c-1.03 2.031-2.971 5.19-5.66 6.669a.917.917 0 0 0 0 1.628c2.689 1.478 4.63 4.638 5.66 6.67a.95.95 0 0 0 1.69 0c1.028-2.032 2.97-5.192 5.66-6.67a.918.918 0 0 0 0-1.628m-53 11.999c-2.69-1.477-4.632-4.637-5.66-6.668a.949.949 0 0 0 -1.69 0c-1.03 2.031-2.971 5.191-5.66 6.668a.917.917 0 0 0 0 1.629c2.689 1.479 4.63 4.638 5.66 6.669.35.69 1.34.69 1.69 0 1.028-2.031 2.97-5.19 5.66-6.67a.918.918 0 0 0 0-1.628" fill="#ffc431"/><path d="m203.96 223.485c-.484-.962-.458-2.297-.381-3.114.026-.277-.25-.465-.471-.321-.652.426-1.76 1.024-2.776.967-.249-.015-.411.262-.292.497.484.964.458 2.299.381 3.115-.026.278.25.466.471.32.651-.425 1.76-1.024 2.776-.966.249.015.411-.262.292-.498" fill="#fff"/><path d="m94.982 50.565-53.96-1.884-2.443 69.957 39.102 1.365 3.53-11.422 11.838-2.662z" fill="#fcde94"/><path d="m93.05 105.919-15.37 14.084-19.942-.696 2.443-69.957 34.8 1.215-1.933 55.354" fill="#f9d073"/><path d="m78.191 105.4-.51 14.603 15.369-14.083-14.858-.52" fill="#a3a4a0"/><path d="m84.214 89.868-24.243-.847a1.166 1.166 0 0 1 -1.133-1.195 1.166 1.166 0 0 1 1.214-1.113l24.243.846c.649.023 1.155.56 1.132 1.196a1.165 1.165 0 0 1 -1.213 1.113m-.424 12.12-24.242-.846a1.166 1.166 0 0 1 -1.133-1.196 1.166 1.166 0 0 1 1.213-1.113l24.244.847c.648.022 1.154.56 1.132 1.195a1.165 1.165 0 0 1 -1.213 1.113m-36.465-14.564c.06-1.714 1.521-3.052 3.264-2.991 1.742.06 3.107 1.498 3.047 3.212-.06 1.713-1.521 3.052-3.264 2.99-1.743-.06-3.107-1.497-3.047-3.21m-.424 12.119c.06-1.714 1.522-3.052 3.265-2.991 1.742.06 3.106 1.498 3.046 3.212s-1.52 3.052-3.263 2.99c-1.743-.06-3.108-1.497-3.048-3.21" fill="#32b3d9"/><path d="m154.016 33.187-47.673 25.348 32.863 61.807 34.546-18.369-2.654-11.657 8.92-8.225z" fill="#fcde94"/><path d="m180.019 82.091-6.267 19.882-17.619 9.368-32.863-61.806 30.746-16.348z" fill="#f9d073"/><path d="m166.892 89.071 6.86 12.902 6.267-19.882z" fill="#a3a4a0"/><path d="m164.342 72.609-21.419 11.388a1.166 1.166 0 0 1 -1.578-.469 1.166 1.166 0 0 1 .494-1.57l21.418-11.389a1.165 1.165 0 0 1 1.579.469c.299.561.08 1.266-.494 1.57m5.693 10.709-21.418 11.388a1.166 1.166 0 0 1 -1.579-.469 1.166 1.166 0 0 1 .495-1.57l21.418-11.389a1.165 1.165 0 0 1 1.579.469c.298.561.079 1.266-.495 1.57m-38.862 5.621c-.805-1.515-.208-3.404 1.332-4.223s3.44-.256 4.244 1.258c.805 1.514.21 3.404-1.33 4.222-1.54.819-3.44.257-4.246-1.257m5.694 10.708c-.805-1.515-.208-3.404 1.332-4.223 1.539-.819 3.439-.256 4.244 1.258s.209 3.404-1.33 4.222c-1.54.819-3.44.257-4.246-1.257" fill="#32b3d9"/><g transform="matrix(.8660254 -.5 .5 .8660254 78.564425 56.466427)"><circle cx="48.5" cy="34.5" fill="#d8d8d8" r="9.5"/><circle cx="48.5" cy="34.5" r="10.5" stroke="#979797" stroke-width="2"/></g><path d="m142.567 70.322-9.5-16.455a9.5 9.5 0 0 0 9.5 16.455z" fill="#fff"/><path d="m132.023 71.586 10.817-18.522" stroke="#979797" stroke-width="2"/><path d="m104.783 102.824-51.05 17.578 22.789 66.187 36.994-12.738-.797-11.929 10.097-6.728z" fill="#fcde94"/><path d="m122.816 155.194-9.3 18.657-18.867 6.496-22.79-66.186 32.924-11.337z" fill="#f9d073"/><path d="m108.759 160.034 4.757 13.817 9.3-18.657z" fill="#a3a4a0"/><path d="m108.815 143.376-22.936 7.897a1.166 1.166 0 0 1 -1.486-.71 1.166 1.166 0 0 1 .734-1.474l22.936-7.897a1.165 1.165 0 0 1 1.486.71 1.165 1.165 0 0 1 -.734 1.474m3.949 11.466-22.937 7.898a1.166 1.166 0 0 1 -1.485-.71 1.166 1.166 0 0 1 .733-1.474l22.937-7.898a1.165 1.165 0 0 1 1.485.71 1.165 1.165 0 0 1 -.733 1.474m-39.263-.528c-.558-1.622.327-3.395 1.976-3.963 1.648-.567 3.437.285 3.995 1.907.558 1.621-.326 3.394-1.975 3.962s-3.438-.285-3.996-1.906m3.949 11.466c-.559-1.62.326-3.394 1.975-3.962 1.649-.567 3.437.285 3.995 1.907.559 1.621-.326 3.394-1.974 3.962-1.65.567-3.438-.285-3.997-1.906" fill="#32b3d9"/><path d="m175.025 120.366-53.001-10.302-13.357 68.714 38.407 7.465 5.274-10.729 12.108-.778z" fill="#fcde94"/><path d="m164.456 174.736-17.382 11.507-19.588-3.807 13.357-68.714 34.182 6.644z" fill="#f9d073"/><path d="m149.862 171.9-2.788 14.343 17.382-11.507-14.594-2.837" fill="#a3a4a0"/><path d="m158.24 157.501-23.812-4.629a1.166 1.166 0 0 1 -.931-1.357 1.166 1.166 0 0 1 1.372-.91l23.812 4.628c.638.124 1.054.734.932 1.358a1.165 1.165 0 0 1 -1.372.91m-2.314 11.905-23.813-4.629a1.166 1.166 0 0 1 -.931-1.358 1.166 1.166 0 0 1 1.372-.91l23.812 4.63c.638.123 1.054.733.932 1.357a1.165 1.165 0 0 1 -1.372.91m-33.738-20.089c.327-1.684 1.98-2.777 3.692-2.444 1.711.332 2.834 1.965 2.507 3.649-.328 1.683-1.98 2.776-3.692 2.443-1.712-.332-2.835-1.965-2.507-3.648m-2.315 11.904c.328-1.683 1.98-2.776 3.693-2.443 1.711.332 2.834 1.965 2.507 3.648-.328 1.684-1.98 2.777-3.692 2.444s-2.835-1.965-2.508-3.649" fill="#32b3d9"/><path d="m248.537 57.947-52.813-11.226-14.554 68.47 38.27 8.135 5.46-10.635 12.121-.567z" fill="#fcde94"/><path d="m237.021 112.124-17.58 11.202-19.519-4.148 14.554-68.47 34.06 7.24z" fill="#f9d073"/><path d="m222.479 109.033-3.038 14.293 17.58-11.202-14.542-3.09" fill="#a3a4a0"/><path d="m231.107 94.783-23.727-5.043a1.166 1.166 0 0 1 -.908-1.374 1.166 1.166 0 0 1 1.388-.886l23.728 5.044c.635.135 1.04.752.908 1.374a1.165 1.165 0 0 1 -1.389.885m-2.521 11.863-23.728-5.044a1.166 1.166 0 0 1 -.908-1.374 1.166 1.166 0 0 1 1.388-.885l23.728 5.043c.635.135 1.04.752.908 1.374a1.165 1.165 0 0 1 -1.388.886m-33.383-20.676c.357-1.677 2.029-2.74 3.735-2.378 1.705.362 2.8 2.014 2.443 3.692-.357 1.677-2.028 2.741-3.734 2.379-1.706-.363-2.8-2.015-2.444-3.692m-2.521 11.862c.357-1.677 2.028-2.741 3.734-2.379 1.706.363 2.8 2.015 2.443 3.692-.357 1.678-2.028 2.742-3.733 2.38-1.706-.363-2.8-2.015-2.444-3.693" fill="#32b3d9"/><g transform="matrix(.98480775 .17364818 -.17364818 .98480775 175.774065 27.281246)"><circle cx="48.5" cy="34.5" fill="#d8d8d8" r="9.5"/><circle cx="48.5" cy="34.5" r="10.5" stroke="#979797" stroke-width="2"/></g><path d="m215.897 79.035 3.3-18.712a9.5 9.5 0 0 0 -3.3 18.712z" fill="#fff"/><path d="m207.007 73.225 20.192-7.235" stroke="#979797" stroke-width="2"/><path d="m207.783 105.824-51.05 17.578 22.789 66.187 36.994-12.738-.797-11.929 10.097-6.728z" fill="#fcde94"/><path d="m225.816 158.194-9.3 18.657-18.867 6.496-22.79-66.186 32.924-11.337z" fill="#f9d073"/><path d="m211.759 163.034 4.757 13.817 9.3-18.657z" fill="#a3a4a0"/><path d="m211.815 146.376-22.936 7.897a1.166 1.166 0 0 1 -1.486-.71 1.166 1.166 0 0 1 .734-1.474l22.936-7.897a1.165 1.165 0 0 1 1.486.71 1.165 1.165 0 0 1 -.734 1.474m3.949 11.466-22.937 7.898a1.166 1.166 0 0 1 -1.485-.71 1.166 1.166 0 0 1 .733-1.474l22.937-7.898a1.165 1.165 0 0 1 1.485.71 1.165 1.165 0 0 1 -.733 1.474m-39.263-.528c-.558-1.622.327-3.395 1.976-3.963 1.648-.567 3.437.285 3.995 1.907.558 1.621-.326 3.394-1.975 3.962s-3.438-.285-3.996-1.906m3.949 11.466c-.559-1.62.326-3.394 1.975-3.962 1.649-.567 3.437.285 3.995 1.907.559 1.621-.326 3.394-1.974 3.962-1.65.567-3.438-.285-3.997-1.906" fill="#32b3d9"/><path d="m0 23.738c0-12.89 10.432-23.34 23.301-23.34s23.301 10.45 23.301 23.34-10.432 23.339-23.3 23.339c-12.871 0-23.302-10.45-23.302-23.34" fill="#4bb7e8" mask="url(#a)" transform="translate(251 201.524)"/><path d="m271.098 234.33 11.143-8.176a.977.977 0 0 0 -.026-1.593l-11.144-7.618a.974.974 0 0 0 -1.523.807v15.792c0 .8.907 1.26 1.55.788" fill="#4f4f4f"/><path d="m0 11.869c0-6.445 5.327-11.67 11.898-11.67 6.572 0 11.899 5.225 11.899 11.67s-5.327 11.67-11.899 11.67c-6.57-.001-11.898-5.226-11.898-11.671" fill="#4bb7e8" mask="url(#b)" transform="matrix(.98480775 .17364818 -.17364818 .98480775 207.220683 56.356757)"/><path d="m214.48 74.292 6.312-3.037a.483.483 0 0 0 .126-.787l-4.943-4.74c-.286-.274-.768-.124-.836.263l-1.371 7.776c-.07.394.347.701.711.525" fill="#4f4f4f"/><path d="m0 11.869c0-6.445 5.327-11.67 11.898-11.67 6.572 0 11.899 5.225 11.899 11.67s-5.327 11.67-11.899 11.67c-6.57-.001-11.898-5.226-11.898-11.671" fill="#4bb7e8" mask="url(#c)" transform="matrix(.98768834 .15643447 -.15643447 .98768834 133.983863 120.529607)"/><path d="m141.554 138.336 6.26-3.148a.483.483 0 0 0 .111-.789l-5.024-4.652c-.291-.27-.77-.11-.832.277l-1.235 7.799c-.062.395.359.695.72.513" fill="#4f4f4f"/><path d="m0 11.869c0-6.445 5.327-11.67 11.898-11.67 6.572 0 11.899 5.225 11.899 11.67s-5.327 11.67-11.899 11.67c-6.57-.001-11.898-5.226-11.898-11.671" fill="#4bb7e8" mask="url(#d)" transform="matrix(.93358043 -.35836795 .35836795 .93358043 173.590474 128.342382)"/><path d="m189.05 139.978 3.847-5.856a.483.483 0 0 0 -.298-.739l-6.677-1.517c-.388-.088-.723.29-.582.656l2.83 7.372c.143.373.658.422.88.084" fill="#4f4f4f"/><path d="m0 11.869c0-6.445 5.327-11.67 11.898-11.67 6.572 0 11.899 5.225 11.899 11.67s-5.327 11.67-11.899 11.67c-6.57-.001-11.898-5.226-11.898-11.671" fill="#4bb7e8" mask="url(#e)" transform="matrix(.93358043 -.35836795 .35836795 .93358043 69.590422 123.342315)"/><path d="m85.05 134.978 3.847-5.856a.483.483 0 0 0 -.298-.739l-6.677-1.517c-.388-.088-.723.29-.582.656l2.83 7.372c.143.373.658.422.88.084" fill="#4f4f4f"/><path d="m0 11.869c0-6.445 5.327-11.67 11.898-11.67 6.572 0 11.899 5.225 11.899 11.67s-5.327 11.67-11.899 11.67c-6.57-.001-11.898-5.226-11.898-11.671" fill="#4bb7e8" mask="url(#f)" transform="translate(54 56.262)"/><path d="m64.263 72.665 5.69-4.088a.483.483 0 0 0 -.014-.797l-5.69-3.809c-.33-.22-.778.011-.778.404v7.896c0 .4.463.63.792.394" fill="#4f4f4f"/><path d="m0 11.869c0-6.445 5.327-11.67 11.898-11.67 6.572 0 11.899 5.225 11.899 11.67s-5.327 11.67-11.899 11.67c-6.57-.001-11.898-5.226-11.898-11.671" fill="#4bb7e8" mask="url(#g)" transform="translate(272 150.262)"/><path d="m282.263 166.665 5.69-4.088a.483.483 0 0 0 -.014-.797l-5.69-3.809c-.33-.22-.778.011-.778.404v7.896c0 .4.463.63.792.394" fill="#4f4f4f"/><path d="m0 11.869c0-6.445 5.327-11.67 11.898-11.67 6.572 0 11.899 5.225 11.899 11.67s-5.327 11.67-11.899 11.67c-6.57-.001-11.898-5.226-11.898-11.671" fill="#4bb7e8" mask="url(#h)" transform="matrix(.8660254 -.5 .5 .8660254 121.738572 57.834536)"/><path d="m138.828 66.909 2.884-6.386a.483.483 0 0 0 -.41-.683l-6.833-.453c-.396-.027-.668.398-.472.738l3.949 6.838c.2.347.716.314.882-.054" fill="#4f4f4f"/><path d="m0 16.814c0-9.13 7.325-16.532 16.36-16.532 9.036 0 16.36 7.402 16.36 16.532s-7.324 16.532-16.36 16.532c-9.035 0-16.36-7.402-16.36-16.532" fill="#4bb7e8" mask="url(#i)" transform="translate(216 215.372)"/><path d="m230.111 238.609 7.824-5.791a.695.695 0 0 0 -.018-1.129l-7.825-5.396a.684.684 0 0 0 -1.07.571v11.187c0 .566.638.892 1.09.558" fill="#4f4f4f"/><path d="m0 16.814c0-9.13 7.325-16.532 16.36-16.532 9.036 0 16.36 7.402 16.36 16.532s-7.324 16.532-16.36 16.532c-9.035 0-16.36-7.402-16.36-16.532" fill="#4bb7e8" mask="url(#j)" transform="translate(216 215.372)"/><path d="m230.111 238.609 7.824-5.791a.695.695 0 0 0 -.018-1.129l-7.825-5.396a.684.684 0 0 0 -1.07.571v11.187c0 .566.638.892 1.09.558" fill="#4f4f4f"/><path d="m111 223.568-24.528 26h108.528l-28-26z" fill="#caf5ff"/><path d="m111.11 223.568h27.39l-27.39 25.955h-24.785z" fill="#46c4d1" opacity=".805"/><path d="m111 223.568h55.5v-27h-55.5z" fill="#caf5ff"/><path d="m138.496 223.568h27.504v-27z" fill="#46c4d1" opacity=".805"/><g fill-opacity=".5"><path d="m27 142.568h224v-53h-224z" fill="#caf5ff"/><path d="m140 90.568v52h55zm-112 0v52h54.992z" fill="#46c4d1"/><path d="m139 89.568h-112l55.992 53 .008-.01.008.01zm111 53h-110l55 54.5-1-1.51 1 1.51zm-110 0h-112l57 54zm111-53h-112l55.992 53 .008-.01.008.01z" fill="#90edfc"/><path d="m85 196.568h110l-55-54z" fill="#caf5ff"/></g><path d="m166 196.568h-55l27.496 27h.008z" fill="#90edfc"/><path d="m111 249.568h55l-27.496-26.014-.004.01-.004-.013z" fill="#90edfc"/><path d="m85 196.568-2.008-54h57.008zm110 .5-.008-54.5h57.008z" fill="#46c4d1" fill-opacity=".5"/></g></svg>