<svg height="250" viewBox="0 0 350 250" width="350" xmlns="http://www.w3.org/2000/svg" xmlns:xlink="http://www.w3.org/1999/xlink"><mask id="a" fill="#fff"><path d="m0 250.75h311.028v-249.75h-311.028z" fill="#fff" fill-rule="evenodd"/></mask><g fill="none" fill-rule="evenodd" transform="translate(19 -1)"><path d="m38.041 37.732a.936.936 0 0 1 0 1.646c-2.667 1.494-4.593 4.687-5.614 6.741a.934.934 0 0 1 -1.677 0c-1.021-2.054-2.947-5.247-5.614-6.74a.935.935 0 0 1 0-1.647c2.668-1.494 4.593-4.687 5.614-6.74a.933.933 0 0 1 1.676 0c1.021 2.053 2.947 5.246 5.615 6.74zm159.221-4.981c-2.668-1.493-4.594-4.687-5.615-6.74a.933.933 0 0 0 -1.676 0c-1.021 2.053-2.947 5.247-5.615 6.74a.935.935 0 0 0 0 1.646c2.668 1.495 4.594 4.688 5.615 6.741a.933.933 0 0 0 1.676 0c1.02-2.053 2.947-5.246 5.615-6.741a.936.936 0 0 0 0-1.646m-47.672-24.488c-2.667-1.494-4.593-4.687-5.614-6.74a.933.933 0 0 0 -1.676 0c-1.021 2.053-2.947 5.246-5.615 6.74a.935.935 0 0 0 0 1.646c2.668 1.494 4.594 4.688 5.615 6.74a.934.934 0 0 0 1.676 0c1.02-2.052 2.947-5.246 5.615-6.74a.936.936 0 0 0 0-1.646m-52.934 16.402c-2.668-1.493-4.594-4.687-5.615-6.74a.933.933 0 0 0 -1.676 0c-1.021 2.053-2.947 5.247-5.615 6.74a.935.935 0 0 0 0 1.646c2.668 1.495 4.594 4.688 5.615 6.741a.933.933 0 0 0 1.676 0c1.02-2.053 2.947-5.246 5.615-6.741a.936.936 0 0 0 0-1.646" fill="#ffc431"/><path d="m155.252 48.85-.047 38.237c-.167 2.33-1.798 4.258-3.987 4.258h-31.637c-2.188 0-3.801-1.925-3.986-4.258v-38.237z" fill="#ed6060"/><path d="m122.032 50.158h3.244v31.222c0 2.414-3.244 2.414-3.244 0zm19.484 0h3.244v30.744c0 2.414-3.244 2.414-3.244 0zm-9.742 0h3.243v30.744c0 2.414-3.243 2.414-3.243 0z" fill="#e23b3b"/><path d="m150.25 49.567-.036 32.748c-.145 2.331-1.57 4.252-3.483 4.252h-27.651c-1.913 0-4.08-2.63-4.08-4.964v-8.006 13.49c0 2.333 2.392 4.48 4.582 4.48h31.637c2.189 0 3.819-1.679 3.986-4.01l.046-37.99h-5z" fill="#dd3636"/><path d="m132.02 42.796h6.759c.01-.105.015-.211.015-.318v-.001c0-1.893-1.527-3.442-3.395-3.442-1.867 0-3.394 1.549-3.394 3.442 0 .108.005.215.015.319m-15.129 0h12.483a5.6 5.6 0 0 1 -.009-.318v-.001c0-3.366 2.716-6.12 6.034-6.12 3.32 0 6.035 2.754 6.035 6.12 0 .107-.003.214-.008.319h12.485c2.489 0 4.734 2.082 4.526 4.59l-.19 2.295h-45.672l-.21-2.295c-.23-2.514 2.036-4.59 4.526-4.59" fill="#636363"/><path d="m155.252 49.188-.047 37.563c0 .224-.005.448-.035.67-.291 2.177-1.868 3.923-3.952 3.923h-31.637c-1.97 0-3.473-1.558-3.889-3.572a5.597 5.597 0 0 1 -.097-1.127v-37.457z" stroke="#777" stroke-linecap="round" stroke-linejoin="round" stroke-width="2.411"/><path d="m112.42 51.169h45.955v-3.101h-45.955z" fill="#d1d1d1" mask="url(#a)"/><path d="m73.429 68.29-.048 38.236c-.167 2.331-1.797 4.258-3.986 4.258h-31.637c-2.19 0-3.802-1.925-3.986-4.258v-38.236z" fill="#ed6060" mask="url(#a)"/><path d="m40.209 69.598h3.244v31.222c0 2.414-3.244 2.414-3.244 0zm19.483 0h3.244v30.744c0 2.414-3.244 2.414-3.244 0zm-9.742 0h3.245v30.744c0 2.414-3.244 2.414-3.244 0v-30.744z" fill="#e23b3b" mask="url(#a)"/><path d="m68.644 68.567-.034 33.248c-.14 2.331-1.502 4.752-3.332 4.752h-26.449c-1.83 0-4.83-3.025-4.83-5.358v-8.006 13.49c0 2.332 3.216 3.874 5.31 3.874h30.26c2.094 0 3.654-1.679 3.813-4.01l.046-37.99z" fill="#dd3636" mask="url(#a)"/><path d="m50.196 62.236h6.76c.01-.105.014-.212.014-.319 0-1.894-1.527-3.443-3.395-3.443-1.866 0-3.394 1.55-3.394 3.443 0 .107.005.214.015.32m-15.129 0h12.483a5.661 5.661 0 0 1 -.009-.32c0-3.367 2.716-6.12 6.034-6.12 3.32 0 6.035 2.753 6.035 6.12 0 .106-.003.213-.008.32h12.485c2.49 0 4.734 2.08 4.526 4.588l-.19 2.295h-45.672l-.21-2.295c-.23-2.514 2.036-4.589 4.526-4.589" fill="#636363" mask="url(#a)"/><path d="m73.429 68.627-.047 37.563a5.341 5.341 0 0 1 -.035.67c-.292 2.179-1.87 3.924-3.952 3.924h-31.637c-1.97 0-3.474-1.558-3.89-3.571a5.613 5.613 0 0 1 -.096-1.128v-37.458z" mask="url(#a)" stroke="#777" stroke-linecap="round" stroke-linejoin="round" stroke-width="2.411"/><path d="m30.596 70.608h45.956v-3.101h-45.956z" fill="#d1d1d1" mask="url(#a)"/><path d="m190.288 71.29-.048 38.236c-.167 2.331-1.797 4.258-3.986 4.258h-31.637c-2.19 0-3.802-1.925-3.986-4.258v-38.236z" fill="#ed6060" mask="url(#a)"/><path d="m157.068 72.598h3.244v31.222c0 2.414-3.244 2.414-3.244 0zm19.483 0h3.244v30.744c0 2.414-3.244 2.414-3.244 0zm-9.741 0h3.244v30.744c0 2.414-3.244 2.414-3.244 0z" fill="#e23b3b" mask="url(#a)"/><path d="m185.286 71.567-.036 33.248c-.146 2.331-1.57 4.752-3.484 4.752h-27.652c-1.912 0-4.114-3.19-4.114-5.524v-8.006 13.49c0 2.332 2.428 4.04 4.616 4.04h31.637c2.19 0 3.82-1.679 3.987-4.01l.047-37.99h-5z" fill="#dd3636" mask="url(#a)"/><path d="m167.055 65.236h6.76c.01-.105.014-.212.014-.319 0-1.894-1.527-3.443-3.395-3.443-1.866 0-3.394 1.55-3.394 3.443 0 .107.005.214.015.32m-15.129 0h12.483a5.661 5.661 0 0 1 -.009-.32c0-3.367 2.716-6.12 6.034-6.12 3.32 0 6.035 2.753 6.035 6.12 0 .106-.002.213-.008.32h12.485c2.49 0 4.734 2.08 4.526 4.588l-.19 2.295h-45.672l-.21-2.295c-.23-2.514 2.036-4.589 4.526-4.589" fill="#636363" mask="url(#a)"/><path d="m190.288 71.627-.047 37.563a5.341 5.341 0 0 1 -.035.67c-.292 2.179-1.87 3.924-3.952 3.924h-31.637c-1.97 0-3.473-1.558-3.89-3.571a5.613 5.613 0 0 1 -.096-1.128v-37.458z" mask="url(#a)" stroke="#777" stroke-linecap="round" stroke-linejoin="round" stroke-width="2.411"/><path d="m147.456 73.608h45.955v-3.101h-45.955z" fill="#d1d1d1" mask="url(#a)"/><path d="m169.925 136.784-7.917 37.408c-.643 2.247-2.635 3.797-4.777 3.346l-30.96-6.512c-2.14-.45-3.324-2.665-3.024-4.986l7.87-37.419z" fill="#ed6060" mask="url(#a)"/><path d="m137.148 131.227 3.173.667-6.425 30.554c-.497 2.362-3.671 1.695-3.174-.668l6.425-30.553zm19.066 4.01 3.174.668-6.328 30.085c-.497 2.362-3.671 1.695-3.174-.667zm-9.534-2.005 3.175.668-6.328 30.085c-.496 2.362-3.671 1.695-3.174-.667l6.328-30.086z" fill="#e23b3b" mask="url(#a)"/><path d="m164.964 136.071-6.858 32.432c-.622 2.251-2.495 4.23-4.367 3.836l-27.06-5.692c-1.872-.393-3.595-3.86-3.114-6.144l1.647-7.834-2.776 13.2c-.48 2.283 1.644 4.942 3.785 5.392l30.96 6.512c2.142.451 4.126-1.057 4.77-3.305l7.907-37.368z" fill="#dd3636" mask="url(#a)"/><path d="m148.436 126.078 6.614 1.392c.032-.102.058-.205.08-.31.39-1.853-.785-3.683-2.612-4.066-1.828-.385-3.64.816-4.03 2.67a3.42 3.42 0 0 0 -.052.314m-14.805-3.113 12.215 2.57c.017-.106.035-.21.058-.315.692-3.294 3.917-5.43 7.165-4.746 3.248.682 5.339 3.936 4.645 7.23a6.686 6.686 0 0 1 -.073.311l12.218 2.57c2.435.512 4.203 3.011 3.484 5.422l-.658 2.207-44.695-9.4.267-2.29c.292-2.507 2.938-4.072 5.374-3.559" fill="#636363" mask="url(#a)"/><path d="m169.856 137.115-7.779 36.75a5.103 5.103 0 0 1 -.17.647c-.734 2.072-2.637 3.456-4.677 3.026l-30.958-6.512c-1.928-.405-3.079-2.24-3.07-4.295 0-.378.058-.754.136-1.123l7.71-36.656z" mask="url(#a)" stroke="#777" stroke-linecap="round" stroke-linejoin="round" stroke-width="2.411"/><path d="m173.142 136.662-.638 3.034-44.97-9.458.637-3.035z" fill="#d1d1d1" mask="url(#a)"/><path d="m133.162 74.965-7.359 37.522c-.61 2.256-2.578 3.835-4.726 3.417l-31.054-6.05c-2.148-.418-3.363-2.616-3.098-4.941l7.312-37.532z" fill="#ed6060" mask="url(#a)"/><path d="m100.305 69.897 3.184.62-5.97 30.647c-.462 2.368-3.646 1.748-3.184-.621l5.97-30.647zm19.125 3.726 3.183.62-5.879 30.176c-.462 2.37-3.646 1.75-3.184-.62zm-9.563-1.863 3.184.62-5.879 30.177c-.462 2.369-3.646 1.749-3.184-.62l5.88-30.177z" fill="#e23b3b" mask="url(#a)"/><path d="m128.163 74.47-6.262 31.954c-.589 2.26-2.319 3.69-4.197 3.323l-27.142-5.287c-1.877-.366-3.298-2.69-2.852-4.98l1.531-7.86-2.579 13.242c-.446 2.29 1.125 5.028 3.272 5.446l31.054 6.05c2.15.419 4.116-1.157 4.726-3.412l7.358-37.52-4.909-.955z" fill="#dd3636" mask="url(#a)"/><path d="m111.516 64.58 6.635 1.293c.03-.102.054-.205.075-.31.362-1.859-.84-3.67-2.673-4.028-1.833-.357-3.628.871-3.99 2.73-.02.105-.036.211-.047.315m-14.85-2.893 12.252 2.387c.015-.104.033-.21.053-.314.644-3.304 3.836-5.488 7.093-4.853 3.26.635 5.397 3.857 4.754 7.16a6.158 6.158 0 0 1 -.07.312l12.255 2.388c2.444.476 4.248 2.948 3.565 5.37l-.625 2.216-44.83-8.734.233-2.292c.255-2.512 2.877-4.116 5.32-3.64" fill="#636363" mask="url(#a)"/><path d="m133.098 75.297-7.23 36.86c-.043.22-.09.44-.162.652-.702 2.082-2.584 3.494-4.63 3.095l-31.053-6.05c-1.933-.376-3.111-2.194-3.133-4.25a5.534 5.534 0 0 1 .12-1.124l7.163-36.767z" mask="url(#a)" stroke="#777" stroke-linecap="round" stroke-linejoin="round" stroke-width="2.411"/><path d="m136.377 74.795-.593 3.044-45.107-8.788.593-3.044z" fill="#d1d1d1" mask="url(#a)"/><path d="m110.447 133.046-.339 38.235c-.184 2.33-1.829 4.244-4.018 4.228l-31.636-.241c-2.189-.017-3.787-1.953-3.954-4.288l.292-38.236z" fill="#ed6060" mask="url(#a)"/><path d="m77.219 134.102 3.244.024-.238 31.22c-.02 2.415-3.262 2.39-3.244-.023zm19.483.148 3.244.024-.235 30.744c-.018 2.414-3.261 2.388-3.243-.025zm-9.742-.074 3.244.024-.234 30.744c-.019 2.414-3.262 2.389-3.244-.025z" fill="#e23b3b" mask="url(#a)"/><path d="m105.442 133.478-.284 32.56c-.163 2.33-1.6 4.052-3.514 4.038l-27.65-.21c-1.914-.015-3.738-2.038-3.72-4.372l.061-8.005-.103 13.488c-.018 2.333 2.03 4.736 4.218 4.752l31.636.241c2.19.018 3.834-1.892 4.02-4.221l.337-38.232-5-.038z" fill="#dd3636" mask="url(#a)"/><path d="m87.262 126.815 6.759.052c.01-.106.017-.212.017-.32.015-1.893-1.501-3.453-3.368-3.467s-3.406 1.523-3.42 3.416c-.001.108.003.214.012.32m-15.13-.116 12.484.095a5.64 5.64 0 0 1 -.006-.319c.025-3.366 2.76-6.098 6.08-6.073s6.014 2.8 5.989 6.165a6.797 6.797 0 0 1 -.011.32l12.485.094c2.489.02 4.717 2.117 4.49 4.624l-.207 2.293-45.671-.348-.192-2.296c-.211-2.515 2.07-4.574 4.56-4.555" fill="#636363" mask="url(#a)"/><path d="m110.445 133.384-.333 37.562a5.156 5.156 0 0 1 -.04.669c-.308 2.176-1.898 3.91-3.981 3.894l-31.637-.241c-1.97-.015-3.461-1.585-3.861-3.601a5.544 5.544 0 0 1 -.09-1.13l.286-37.455z" mask="url(#a)" stroke="#777" stroke-linecap="round" stroke-linejoin="round" stroke-width="2.411"/><path d="m113.576 132.288-.023 3.101-45.954-.35.023-3.1z" fill="#d1d1d1" mask="url(#a)"/><path d="m85 219.567-24.528 26h108.528l-28-26z" fill="#caf5ff" mask="url(#a)"/><path d="m84.806 219.567h27.694l-27 26.07h-25.026z" fill="#46c4d1" mask="url(#a)"/><path d="m85 219.567h55.5v-27h-55.5z" fill="#caf5ff" mask="url(#a)"/><path d="m112.496 219.567h27.504v-27z" fill="#46c4d1" mask="url(#a)"/><g fill-opacity=".5"><path d="m1 138.567h224v-53h-224z" fill="#caf5ff" mask="url(#a)"/><path d="m114 86.567v52h55zm-112 0v52h54.992z" fill="#46c4d1" mask="url(#a)"/><path d="m113 85.567h-112l55.992 53 .008-.009.008.01zm111 53h-110l55 54.5-1-1.509 1 1.51z" fill="#90edfc" mask="url(#a)"/><path d="m114 138.567h-112l57 54zm111-53h-112l55.992 53 .008-.009.008.01z" fill="#90edfc" mask="url(#a)"/><path d="m59 192.567h110l-55-54z" fill="#caf5ff" mask="url(#a)"/><path d="m140 192.567h-55l27.496 27h.008z" fill="#90edfc" mask="url(#a)"/><path d="m85 245.567h55l-27.496-26.014-.004.011-.004-.014z" fill="#90edfc" mask="url(#a)"/><path d="m59 192.567-2.008-54h57.008zm110 .5-.008-54.5h57.008z" fill="#46c4d1" mask="url(#a)"/></g><path d="m244.896 209.91-12.766 35.564c-.931 2.115-3.089 3.365-5.126 2.636l-29.44-10.526c-2.037-.728-2.897-3.055-2.293-5.288l12.723-35.58 36.902 13.193z" fill="#ed6060" mask="url(#a)"/><path d="m213.548 200.074 3.018 1.08-10.388 29.053c-.803 2.246-3.82 1.167-3.018-1.079zm18.131 6.483 3.018 1.079-10.228 28.609c-.804 2.247-3.822 1.167-3.02-1.08zm-9.066-3.242 3.02 1.08-10.23 28.608c-.804 2.247-3.822 1.167-3.019-1.08l10.23-28.608z" fill="#e23b3b" mask="url(#a)"/><path d="m240.134 208.547-11.062 30.834c-.912 2.12-3.01 3.807-4.79 3.17l-25.73-9.2c-1.782-.636-3.004-4.262-2.228-6.433l2.664-7.45-4.488 12.553c-.776 2.17.947 5.059 2.984 5.787l29.44 10.526c2.037.729 4.181-.483 5.112-2.597l12.752-35.526z" fill="#dd3636" mask="url(#a)"/><path d="m225.292 196.547 6.29 2.249c.043-.096.084-.192.12-.292v-.001c.63-1.762-.276-3.711-2.014-4.332-1.737-.621-3.674.312-4.304 2.073-.035.1-.066.2-.092.303m-14.08-5.034 11.617 4.153c.03-.1.063-.2.097-.3h.002c1.119-3.131 4.561-4.791 7.65-3.686 3.089 1.104 4.7 4.57 3.58 7.702a5.78 5.78 0 0 1 -.114.294l11.618 4.154c2.316.828 3.713 3.512 2.684 5.777l-.94 2.072-42.5-15.195.569-2.207c.621-2.415 3.422-3.592 5.738-2.764" fill="#636363" mask="url(#a)"/><path d="m244.784 210.224-12.542 34.938a4.89 4.89 0 0 1 -.255.613c-.995 1.929-3.044 3.029-4.983 2.336l-29.44-10.527c-1.833-.655-2.713-2.605-2.43-4.617.052-.37.159-.73.284-1.081l12.464-34.856z" mask="url(#a)" stroke="#777" stroke-linecap="round" stroke-linejoin="round" stroke-width="2.383"/><path d="m248.063 210.22-1.032 2.887-42.763-15.29 1.03-2.885z" fill="#d1d1d1" mask="url(#a)"/><path d="m307.883 207.266.274 37.786c-.146 2.306-1.741 4.223-3.904 4.24l-31.264.267c-2.162.019-3.773-1.87-3.975-4.174l-.32-37.786z" fill="#ed6060" mask="url(#a)"/><path d="m275.066 208.838 3.205-.027.262 30.853c.02 2.386-3.185 2.412-3.205.028zm19.254-.164 3.205-.027.258 30.38c.02 2.387-3.186 2.414-3.206.029l-.258-30.382zm-9.627.082 3.205-.027.258 30.38c.02 2.386-3.185 2.414-3.205.028z" fill="#e23b3b" mask="url(#a)"/><path d="m302.943 207.628.243 32.758c-.125 2.305-1.513 4.61-3.404 4.627l-27.326.23c-1.89.018-4.287-2.965-4.306-5.27l-.068-7.911.113 13.33c.02 2.305 2.634 4.423 4.796 4.404l31.264-.266c2.163-.018 3.758-1.894 3.904-4.2l-.274-37.744z" fill="#dd3636" mask="url(#a)"/><path d="m284.873 201.478 6.68-.056c.009-.105.012-.21.012-.315-.015-1.871-1.538-3.39-3.382-3.374h-.001c-1.846.017-3.341 1.559-3.326 3.43.002.106.007.212.017.315m-14.95.127 12.336-.105a5.46 5.46 0 0 1 -.012-.315c-.028-3.326 2.632-6.07 5.912-6.097 3.28-.028 5.987 2.67 6.016 5.995 0 .107-.002.212-.007.316l12.339-.105c2.46-.02 4.695 2.018 4.51 4.498l-.168 2.27-45.133.382-.228-2.265c-.248-2.482 1.974-4.554 4.435-4.573" fill="#636363" mask="url(#a)"/><path d="m307.886 207.6.269 37.12c0 .222-.002.443-.03.662-.27 2.156-1.813 3.894-3.872 3.91l-31.263.267c-1.947.017-3.446-1.512-3.874-3.497a5.538 5.538 0 0 1 -.105-1.113l-.314-37.016z" mask="url(#a)" stroke="#777" stroke-linecap="round" stroke-linejoin="round" stroke-width="2.383"/><path d="m310.962 206.467.026 3.064-45.413.386-.026-3.064z" fill="#d1d1d1" mask="url(#a)"/></g></svg>