<svg height="90" viewBox="0 0 90 90" width="90" xmlns="http://www.w3.org/2000/svg"><g fill="none" fill-rule="evenodd"><rect fill="#3a5dd1" height="90" rx="8" width="90"/><path d="m58.376 58.376v-10.752h-5.376v10.752zm-10.752 0v-26.752h-5.248v26.752zm-10.624 0v-18.752h-5.376v18.752zm26.624-37.376c1.45 0 2.71.533 3.776 1.6 1.067 1.067 1.6 2.325 1.6 3.776v37.248c0 1.45-.533 2.71-1.6 3.776-1.067 1.067-2.325 1.6-3.776 1.6h-37.248c-1.45 0-2.71-.533-3.776-1.6-1.067-1.067-1.6-2.325-1.6-3.776v-37.248c0-1.45.533-2.71 1.6-3.776 1.067-1.067 2.325-1.6 3.776-1.6z" fill="#fff" fill-rule="nonzero"/></g></svg>