<svg height="38" viewBox="0 0 38 38" width="38" xmlns="http://www.w3.org/2000/svg" xmlns:xlink="http://www.w3.org/1999/xlink"><linearGradient id="a" x1="50%" x2="50%" y1="0%" y2="66.699%"><stop offset="0" stop-color="#75b68b"/><stop offset=".39545" stop-color="#a6c168"/><stop offset="1" stop-color="#fdd236"/></linearGradient><g fill="none" fill-rule="evenodd"><path d="m0 19c0 10.493 8.507 19 19 19s19-8.507 19-19-8.507-19-19-19-19 8.507-19 19" fill="url(#a)" fill-rule="nonzero"/><g stroke="#403408" stroke-linecap="round"><path d="m9.006 14.755 4.57 2.593-4.535 2.57" stroke-linejoin="round" stroke-width="2.41"/><path d="m29.311 19.918-4.464-2.593 4.43-2.57" stroke-linejoin="round" stroke-width="2.382"/><path d="m12.336 29.385s1.442-5.048 6.853-5.048c5.41 0 6.792 5.009 6.792 5.009" stroke-width="1.936"/></g><path d="m16.202 9.468a1.928 1.928 0 0 1 -3.856-.027c.007-1.065 1.961-4.687 1.961-4.687s1.902 3.65 1.895 4.714z" fill="#2fa7bf" fill-rule="nonzero"/></g></svg>