<svg height="38" viewBox="0 0 38 38" width="38" xmlns="http://www.w3.org/2000/svg" xmlns:xlink="http://www.w3.org/1999/xlink"><mask id="a" fill="#fff"><path d="m15.2 2.049c-1.694 1.487-4.111 2.701-7.49 2.701-3.552 0-6.026-1.332-7.71-2.91v-1.84h15.2z" fill="#fff" fill-rule="evenodd"/></mask><g fill="none"><path d="m38 19c0 10.493-8.507 19-19 19s-19-8.507-19-19 8.507-19 19-19 19 8.507 19 19" fill="#ffd21f"/><path d="m9.975 19c-.784 0-1.425-.583-1.425-1.295v-3.11c0-.712.641-1.295 1.425-1.295s1.425.583 1.425 1.295v3.11c0 .712-.641 1.295-1.425 1.295zm18.05 0c-.784 0-1.425-.583-1.425-1.295v-3.11c0-.712.641-1.295 1.425-1.295s1.425.583 1.425 1.295v3.11c0 .712-.641 1.295-1.425 1.295zm-18.885 4.805c-.417 0-.704.406-.546.776.82 1.924 3.562 6.769 10.363 6.769 6.797 0 9.6-4.878 10.447-6.82.162-.371-.127-.781-.548-.78z" fill="#403408"/><path d="m15.2 4.275c0 2.361-3.403 4.275-7.6 4.275s-7.6-1.914-7.6-4.275 3.403-4.275 7.6-4.275 7.6 1.914 7.6 4.275" fill="#ff5a58" mask="url(#a)" transform="translate(11.4 26.6)"/><path d="m18.525 13.803c.339 0 .944.046.944.685.016.675.18 1.433.491 2.284 1.34 3.664 3.194 4.22 6.274 4.117 1.11-.037 2.452-.02 3.39-.776.861-.695 1.476-1.865 2.056-3.911.199-.699.305-1.332.32-1.903.037-.424.498-.66.85-.781.24-.082.4-.303.4-.552v-1.059a.611.611 0 0 0 -.433-.58c-1.153-.363-3.26-.965-7.1-.866-3.117.08-6.138.608-7.192.608s-4.075-.528-7.193-.608c-3.838-.099-5.946.503-7.1.866a.611.611 0 0 0 -.432.58v1.06c0 .247.16.469.4.551.352.12.813.357.85.78.015.572.122 1.205.32 1.904.58 2.046 1.195 3.216 2.055 3.91.939.758 2.28.74 3.39.777 3.08.103 4.935-.453 6.275-4.117.311-.85.475-1.61.492-2.284 0-.64.605-.685.943-.685" fill="#2f2f2f"/><path d="m11.87 11.425c-3.072-.112-6.293-.037-4.875 4.46 1.281 4.065 2.459 3.961 4.443 4.048 1.985.086 3.975-.02 5.22-3.529 1.326-3.732-.35-4.817-4.789-4.98m14.261 0c3.072-.111 6.293-.036 4.875 4.46-1.281 4.066-2.459 3.962-4.443 4.049-1.985.086-3.975-.02-5.22-3.529-1.326-3.732.35-4.817 4.789-4.98" fill="#2fa7bf"/></g></svg>