<svg height="40" viewBox="0 0 40 40" width="40" xmlns="http://www.w3.org/2000/svg"><g fill="none" fill-rule="evenodd"><circle cx="20" cy="20" fill="#32a1f1" fill-opacity=".12" r="20"/><g fill-rule="nonzero" transform="translate(6 4)"><path d="m14.4 2.667v3.733h-2.133v-3.733z" fill="#32a1f1"/><path d="m13.333 31.312c-6.983 0-12.645-5.662-12.645-12.645 0-6.984 5.662-12.647 12.645-12.647 6.984 0 12.646 5.662 12.646 12.646-.006 6.981-5.664 12.64-12.646 12.645z" fill="#32a1f1"/><circle cx="13.333" cy="18.667" fill="#fff" r="10.133"/><path d="m16.533.533v2.134h-6.4v-2.134zm7.154 6.402 1.38-1.38 1.38 1.38-1.38 1.38z" fill="#fff"/><path d="m13.333 8c-5.89 0-10.666 4.776-10.666 10.667 0 5.89 4.775 10.666 10.666 10.666s10.667-4.775 10.667-10.666a10.667 10.667 0 0 0 -10.667-10.667zm5.248 18.693-.933-1.6-.928.534.939 1.6a9.552 9.552 0 0 1 -3.792 1.04v-1.899h-1.067v1.899a9.552 9.552 0 0 1 -3.792-1.014l.939-1.6-.928-.533-.934 1.6a9.6 9.6 0 0 1 -2.752-2.805l1.6-.934-.533-.928-1.6.939a9.552 9.552 0 0 1 -1.04-3.792h1.872v-1.067h-1.872a9.552 9.552 0 0 1 1.04-3.792l1.6.939.533-.928-1.6-.933a9.6 9.6 0 0 1 2.752-2.752l.934 1.6.928-.534-.939-1.6a9.552 9.552 0 0 1 3.792-1.04v1.872h1.067v-1.872a9.552 9.552 0 0 1 3.792 1.04l-.939 1.6.928.534.933-1.6a9.6 9.6 0 0 1 2.779 2.778l-1.6.934.533.928 1.6-.939a9.552 9.552 0 0 1 1.04 3.765h-1.898v1.067h1.898a9.552 9.552 0 0 1 -1.013 3.792l-1.6-.939-.533.928 1.6.934a9.6 9.6 0 0 1 -2.806 2.778zm5.799-18.313.688.688 2.132-2.135-2.133-2.133-2.134 2.133.688.688-1.354 1.355a13.136 13.136 0 0 0 -7.334-3.392v-2.384h2.134v-3.2h-7.467v3.2h2.133v2.384a13.179 13.179 0 1 0 11.291 4.15l1.355-1.355zm.688-2.07.624.624-.624.624-.624-.624zm-14.4-4.176v-1.067h5.332v1.066h-5.333zm2.132 3.366v-2.3h1.067v2.299h-1.067zm.533 25.28a12.112 12.112 0 1 1 12.112-12.112c-.008 6.685-5.426 12.103-12.112 12.112zm.534-13.616v-4.364h-1.067v4.363a1.6 1.6 0 1 0 1.067 0zm-.534 2.037a.533.533 0 1 1 0-1.067.533.533 0 0 1 0 1.067z" fill="#145788"/></g></g></svg>