<svg height="40" viewBox="0 0 40 40" width="40" xmlns="http://www.w3.org/2000/svg" xmlns:xlink="http://www.w3.org/1999/xlink"><mask id="a" fill="#fff"><path d="m16 2.157c-1.783 1.565-4.328 2.843-7.884 2.843-3.74 0-6.343-1.402-8.116-3.063v-1.937h16z" fill="#fff" fill-rule="evenodd"/></mask><g fill="none" fill-rule="nonzero"><path d="m40 20c0 11.045-8.954 20-20 20s-20-8.955-20-20c0-11.046 8.954-20 20-20s20 8.954 20 20" fill="#ffd21f"/><path d="m10.5 20c-.825 0-1.5-.614-1.5-1.363v-3.274c0-.75.675-1.363 1.5-1.363s1.5.614 1.5 1.363v3.274c0 .75-.675 1.363-1.5 1.363zm19 0c-.825 0-1.5-.614-1.5-1.363v-3.274c0-.75.675-1.363 1.5-1.363s1.5.614 1.5 1.363v3.274c0 .75-.675 1.363-1.5 1.363zm-19.879 5.058c-.438 0-.741.427-.575.817.864 2.025 3.75 7.125 10.909 7.125 7.155 0 10.106-5.135 10.997-7.178.17-.392-.135-.823-.577-.822z" fill="#403408"/><path d="m16 4.5c0 2.485-3.582 4.5-8 4.5s-8-2.015-8-4.5c0-2.486 3.582-4.5 8-4.5s8 2.015 8 4.5" fill="#ff5a58" mask="url(#a)" transform="translate(12 28)"/><g><path d="m19.5 14.53c.356 0 .993.048.993.72.018.71.19 1.51.518 2.405 1.41 3.857 3.362 4.442 6.604 4.333 1.168-.039 2.581-.02 3.569-.817.906-.731 1.553-1.962 2.164-4.116.208-.736.32-1.402.337-2.004.038-.446.523-.695.893-.822a.616.616 0 0 0 .422-.58v-1.115a.643.643 0 0 0 -.455-.61c-1.215-.383-3.433-1.016-7.474-.913-3.282.085-6.461.64-7.571.64s-4.29-.555-7.571-.64c-4.041-.104-6.26.53-7.474.913a.644.644 0 0 0 -.455.61v1.115c0 .26.169.494.422.58.37.127.855.376.893.822.016.602.129 1.268.337 2.004.61 2.154 1.258 3.385 2.164 4.116.988.797 2.4.778 3.57.817 3.241.109 5.193-.476 6.603-4.333.328-.896.5-1.694.518-2.404 0-.673.637-.722.993-.722" fill="#2f2f2f"/><path d="m12.494 12.026c-3.233-.118-6.624-.038-5.131 4.695 1.349 4.279 2.587 4.169 4.677 4.259 2.09.092 4.184-.02 5.495-3.713 1.395-3.929-.369-5.07-5.04-5.242m15.01 0c3.234-.118 6.625-.038 5.132 4.695-1.349 4.28-2.588 4.17-4.677 4.26-2.09.092-4.184-.02-5.495-3.713-1.395-3.929.369-5.07 5.04-5.242" fill="#2fa7bf"/></g></g></svg>