<svg height="40" viewBox="0 0 40 40" width="40" xmlns="http://www.w3.org/2000/svg"><g fill="none" fill-rule="evenodd"><path d="m40 20c0 11.04625-8.95375 20-20 20-11.045 0-20-8.95375-20-20 0-11.045 8.955-20 20-20 11.04625 0 20 8.955 20 20" fill="#17c8ba"/><g transform="translate(11.2009 6.00036)"><path d="m8.89871768 1.14102193c.68258853 0 1.23550452.55291599 1.23550452 1.23550452h-2.47100903c0-.68258853.55291599-1.23550452 1.23550451-1.23550452m7.38555002 1.23550452h-5.0090236c0-1.31263317-1.0638932-2.37652645-2.37652642-2.37652645-1.31263316 0-2.37652644 1.06389328-2.37652644 2.37652645h-5.00902359c-.83588172 0-1.51316765.67776798-1.51316765 1.5136497v21.82788925c0 .8353997.67728593 1.5136497 1.51316765 1.5136497h14.77110005c.8358817 0 1.5131677-.67825 1.5131677-1.5136497v-21.82788925c0-.83588172-.677286-1.5136497-1.5131677-1.5136497" fill="#fff"/><path d="m15.9558443 25.9957767h-14.11406041c-.3461148 0-.62667026-.2805554-.62667026-.6266702v-21.12987502c0-.3461148.28055546-.62667026.62667026-.62667026h14.11406041c.3461148 0 .6266703.28055546.6266703.62667026v21.12987502c0 .3461148-.2805555.6266702-.6266703.6266702" fill="#fff"/><g fill="#17c8ba"><path d="m3.50477394 19.2630725h2.08006321v-2.0800632h-2.08006321z"/><path d="m6.7234488 18.8422393h7.3305959v-1.2383968h-7.3305959z"/><path d="m3.50477394 23.4979173h2.08006321v-2.0800632h-2.08006321z"/><path d="m6.7234488 23.076602h7.3305959v-1.2379147h-7.3305959z"/><path d="m11.0826004 8.49915934c-.0830327-.09650368-.0830327-.24401646 0-.34024442l1.3878687-1.60554559c.139776-.16157474.0314951-.42158324-.1751755-.42158324h-5.63789117v-.34713754h-.87275388v9.15902685h.87275388v-4.4173872h5.63789117c.2066706 0 .3149515-.2602843.1751755-.421859z"/></g></g></g></svg>