<svg height="16" viewBox="0 0 22 16" width="22" xmlns="http://www.w3.org/2000/svg"><path d="m19.25 13.262v-10.56c-.939-.293-2.01-.44-3.212-.44-.777 0-1.654.136-2.629.407s-1.778.598-2.409.979v10.516c.63-.381 1.434-.704 2.409-.968s1.852-.396 2.629-.396c1.07 0 2.141.154 3.212.462zm-3.212-12.848c.968 0 1.9.117 2.794.352.939.25 1.694.594 2.266 1.034v13.354c0 .103-.051.209-.154.319s-.202.165-.297.165a.519.519 0 0 1 -.231-.044c-1.203-.63-2.662-.946-4.378-.946-.792 0-1.676.132-2.651.396s-1.771.594-2.387.99c-.63-.47-1.408-.821-2.332-1.056a10.35 10.35 0 0 0 -2.684-.33c-.675 0-1.423.092-2.244.275s-1.54.422-2.156.715l-.198.044a.478.478 0 0 1 -.33-.143c-.103-.095-.154-.194-.154-.297v-13.442c.645-.47 1.437-.821 2.376-1.056.836-.22 1.738-.33 2.706-.33s1.863.11 2.684.33c.924.235 1.701.587 2.332 1.056.645-.47 1.43-.821 2.354-1.056.836-.22 1.73-.33 2.684-.33z" fill="#50b7e8"/></svg>