<svg height="50" viewBox="0 0 45 50" width="45" xmlns="http://www.w3.org/2000/svg"><g fill="none" transform="translate(.6 .2)"><path d="m18.44 5.32h5.7866667v3.41333333h-5.7866667z" fill="#32a1f1" transform="matrix(0 1 -1 0 28.36 -14.306666)"/><path d="m21.3333333 48.5336c-11.1741196 0-20.2325333-8.7753383-20.2325333-19.6002667 0-10.8249283 9.0584137-19.60026663 20.2325333-19.60026663s20.2325334 8.77533833 20.2325334 19.60026663c-.0094105 10.82115-9.062314 19.5911503-20.2325334 19.6002667z" fill="#f13293"/><g fill="#fff"><ellipse cx="21.333333" cy="28.933333" rx="16.213333" ry="15.706667"/><path d="m19.68-2.64h3.3066667v10.24h-3.3066667z" transform="matrix(0 1 -1 0 23.813333 -18.853333)"/><path d="m38.5453806 9.18741071 3.0744.0488.0488 3.07439999-3.0744-.0488z" transform="matrix(.70710678 -.70710678 .70710678 .70710678 4.146364 31.508231)"/></g><path d="m21.3333333 12.4c-9.4256597 0-17.06666663 7.4022255-17.06666663 16.5333333 0 9.1311079 7.64100693 16.5333334 17.06666663 16.5333334 9.4256598 0 17.0666667-7.4022255 17.0666667-16.5333334 0-4.3849126-1.7980901-8.5902306-4.9987109-11.6908321-3.2006209-3.1006014-7.5415943-4.8425012-12.0679558-4.8425012zm8.3968 28.9746667-1.4933333-2.48-1.4848.8266666 1.5018667 2.48c-1.8851171.9391296-3.9512866 1.4880921-6.0672 1.612v-2.9429333h-1.7066667v2.9429333c-2.1128301-.111038-4.1788411-.6458835-6.0672-1.5706666l1.5018667-2.48-1.4848-.8266667-1.4933334 2.48c-1.761541-1.1397778-3.26067947-2.6202134-4.40319997-4.3482667l2.55999997-1.4466666-.8533333-1.4384-2.56 1.4549333c-.96942405-1.8262072-1.53609499-3.8278088-1.664-5.8776h2.9952v-1.6533333h-2.9952c.12790501-2.0497912.69457595-4.0513928 1.664-5.8776l2.56 1.4549333.8533333-1.4384-2.55999997-1.4466667c1.15170259-1.698194 2.65022557-3.1498881 4.40319997-4.2656l1.4933334 2.48 1.4848-.8266666-1.5018667-2.48c1.8851171-.9391296 3.9512865-1.4880921 6.0672-1.612v2.9016h1.7066667v-2.9016c2.1159134.1239079 4.1820829.6728704 6.0672 1.612l-1.5018667 2.48 1.4848.8266666 1.4933333-2.48c1.7726561 1.1233127 3.2863181 2.5896728 4.4458667 4.3069334l-2.56 1.4466666.8533333 1.4384 2.56-1.4549333c.963754 1.8136057 1.5302651 3.8005707 1.664 5.8362667h-3.0378666v1.6533333h3.0378666c-.1146198 2.0468042-.6667184 4.0482524-1.6213333 5.8776l-2.56-1.4549333-.8533333 1.4384 2.56 1.4466666c-1.1719544 1.7214328-2.7004583 3.1880956-4.4885334 4.3069334zm9.2757334-28.3877334 1.1008 1.0664 3.4133333-3.3066666-3.4133333-3.3066667-3.4133334 3.3066667 1.1008 1.0664-2.1674666 2.0997333c-3.2437921-2.9032013-7.3491683-4.74278305-11.7333334-5.2576v-3.6952h3.4133334v-4.96h-11.9466667v4.96h3.4133333v3.6952c-9.66660829 1.14572937-17.26574671 8.5555799-18.38534504 17.9273821-1.11959833 9.3718023 4.53163888 18.2672146 13.67259554 21.5215485 9.1409567 3.2543338 19.3933522.0208814 24.8046317-7.8230104s4.5735442-18.2574108-2.0268155-25.1944535zm1.1008-3.20746663.9984.96720003-.9984.9672-.9984-.9672zm-23.04-6.4728v-1.65333334h8.5333333v1.65333334zm3.4133333 5.21626666v-3.56293333h1.7066667v3.56293333h-.8533334zm.8533333 39.18399997c-7.8381547 0-14.90451425-4.5740408-17.9040462-11.5892543-2.99953196-7.0152135-1.34152987-15.0900736 4.2008825-20.4592855 5.5424124-5.369212 13.8777518-6.97540154 21.1192625-4.069605 7.2415107 2.9057966 11.9631012 9.7513324 11.9631012 17.3445448-.0141028 10.3627087-8.6822104 18.7599379-19.3792 18.7736zm.8533334-21.1048v-6.7621333h-1.7066667v6.7621333c-1.1755065.4026167-1.8806375 1.5670841-1.669799 2.7575394.2108386 1.1904552 1.2763194 2.0606271 2.5231323 2.0606271 1.246813 0 2.3122938-.8701719 2.5231323-2.0606271.2108386-1.1904553-.4942924-2.3549227-1.6697989-2.7575394zm-.8533334 3.1578667c-.471283 0-.8533333-.3701113-.8533333-.8266667s.3820503-.8266666.8533333-.8266666.8533334.3701112.8533334.8266666-.3820504.8266667-.8533334.8266667z" fill="#88144a"/></g></svg>