<svg height="69" viewBox="0 0 80 69" width="80" xmlns="http://www.w3.org/2000/svg"><g fill="#33373f"><path d="m67.968 22.259c-.704-12-10.596-21.592-22.523-21.592-7.24 0-14.25 3.55-18.593 9.344-.1-.052-.205-.088-.307-.136a12.43 12.43 0 0 0 -.805-.359 12.082 12.082 0 0 0 -1.283-.423c-.153-.041-.305-.084-.46-.118-.3-.068-.606-.12-.916-.167-.134-.02-.266-.047-.402-.061-.443-.05-.891-.08-1.346-.08-6.617 0-12 5.382-12 12 0 .172.011.34.023.508-5.547 3.022-9.356 9.357-9.356 15.697 0 9.444 7.683 17.128 17.127 17.128h6.873a1.332 1.332 0 1 0 0-2.667h-6.873c-7.974 0-14.46-6.486-14.46-14.461 0-5.539 3.606-11.288 8.577-13.67l.756-.362v-.84c0-.16.01-.323.02-.487l.015-.246-.018-.259c-.008-.113-.017-.227-.017-.341 0-5.146 4.188-9.334 9.333-9.334a9.326 9.326 0 0 1 1.534.138 9.09 9.09 0 0 1 1.052.236c.046.013.094.022.141.036.38.116.75.262 1.113.428.095.042.187.089.28.134.32.159.634.332.936.528 2.57 1.664 4.278 4.551 4.278 7.834a1.332 1.332 0 1 0 2.666 0c0-3.672-1.661-6.959-4.266-9.162 3.822-5 10.117-8.172 16.378-8.172 10.327 0 18.904 8.18 19.799 18.518-1.361-.096-3.403-.146-5.444.165a1.333 1.333 0 0 0 .4 2.636c2.97-.45 6.064-.028 6.245-.003 6.208 1.18 10.888 6.899 10.888 13.314 0 7.372-5.998 13.37-13.37 13.37h-5.296a1.332 1.332 0 1 0 0 2.667h5.296c8.842 0 16.037-7.195 16.037-16.037 0-7.319-5.103-13.883-12.032-15.704z"/><path d="m51.057 55.724-8.39 8.39v-27.446a1.332 1.332 0 1 0 -2.667 0v27.448l-8.39-8.391a1.332 1.332 0 0 0 -1.886 0 1.332 1.332 0 0 0 0 1.885l10.665 10.666c.123.124.271.221.435.289a1.321 1.321 0 0 0 1.453-.29l10.666-10.665a1.332 1.332 0 0 0 0-1.885 1.332 1.332 0 0 0 -1.886 0z"/></g></svg>