<svg height="36" viewBox="0 0 40 36" width="40" xmlns="http://www.w3.org/2000/svg"><g fill="none" fill-rule="evenodd" transform="translate(1 1)"><g fill-rule="nonzero"><path d="m30.0322489.18472419h-21.41046672l-8.46138614 11.43903821 19.17708626 22.5069307 19.1669024-22.5069307z" fill="#32d6af"/><path d="m.16039604 11.6330976 38.34398866-.0093352-8.4724186-11.4393211h-21.31173979z" fill="#25997a"/><path d="m.16039604 11.6268741 12.78132956-.0028288 6.3960396 22.5066478z" fill="#5be8c0"/><path d="m38.4879774 11.6268741-12.7813296-.0028288-6.3960396 22.5066478z" fill="#2baa85"/><path d="m8.73239038.06082037 4.20933522 11.43932103h-12.75615276z" fill="#32d6af"/><path d="m30.0322489.12277228-4.325884 11.37736912h-12.7646393l-4.20933522-11.3991513z" fill="#1bc195"/><path d="m15.2998586 11.3323904c-.9751061-.5459689-1.6789251-1.71287131-2.052051-2.46336635-.0572559-.11680515-.1759986-.19084068-.306082-.19084068s-.2488261.07403553-.306082.19084068c-.3734088.75049504-1.0769449 1.91739745-2.052051 2.46336635-.1105103.0596571-.1793939.1751226-.1793939.3007072s.0688836.2410501.1793939.3007072c.9751061.5459689 1.6789251 1.7128713 2.052051 2.4630835.1264498.2545968.4857143.2545968.612164 0 .3731259-.7502122 1.0769449-1.9171146 2.052051-2.4630835.1105103-.0596571.1793939-.1751226.1793939-.3007072s-.0688836-.2410501-.1793939-.3007072" fill="#fff"/></g><path d="m8.73239038.20084866 21.29985852-.01131542 8.4557285 11.43705796-19.1773692 22.503819-19.12503536-22.4973126z" stroke="#777" stroke-linecap="round" stroke-linejoin="round" stroke-width=".936634"/></g></svg>