<svg height="39" viewBox="0 0 40 39" width="40" xmlns="http://www.w3.org/2000/svg"><path d="m19.6610169 0c-10.85833417 0-19.6610169 8.65076139-19.6610169 19.3220339 0 10.6712725 8.80268273 19.3220339 19.6610169 19.3220339 10.8583343 0 19.661017-8.6507614 19.661017-19.3220339 0-10.67127251-8.8026827-19.3220339-19.661017-19.3220339zm6.795339 20.3462526-9.8305084 6.0381356c-.1989142.1220459-.4250927.1834084-.6512712.1834084-.2049047 0-.4101166-.0501165-.595821-.1515572-.3906091-.2128443-.6329926-.6167955-.6329926-1.0560699v-12.0762712c0-.4392744.2423835-.8432256.6329926-1.0560699.3906091-.2140519.8682336-.2010699 1.2470922.0318512l9.8305084 6.0381355c.3591208.2211468.5775424.6079648.5775424 1.0242188s-.2184216.8031475-.5775424 1.0242187z" fill="#5bcaff"/></svg>