<svg height="20" viewBox="0 0 21 20" width="21" xmlns="http://www.w3.org/2000/svg"><path d="m19.777 2.182c.464.428.464.874 0 1.337l-.91.883c-.445.43-1.152.424-1.589-.013l-1.365-1.366a1.132 1.132 0 0 1 -.013-1.588l.883-.91c.428-.428.84-.461 1.238-.1zm-4.806 1.804 1.34 1.334a1.132 1.132 0 0 1 -.01 1.613l-8.724 8.492-3.452.752.755-3.438 8.48-8.74a1.132 1.132 0 0 1 1.61-.013zm.779 6.639 1.563-1.563v9.815c0 .325-.106.594-.318.806-.211.211-.48.317-.806.317h-14.941c-.325 0-.594-.106-.806-.317a1.092 1.092 0 0 1 -.317-.806v-14.941c0-.326.106-.595.317-.806.212-.212.48-.318.806-.318h9.814l-1.562 1.563h-7.275c-.358 0-.538.163-.538.488v13.087c0 .326.163.488.489.488h13.134c.293 0 .439-.162.439-.488v-7.324z" fill="#50b7e8"/></svg>