<svg height="40" viewBox="0 0 40 40" width="40" xmlns="http://www.w3.org/2000/svg"><g fill="none"><path d="m40 19.5v1.0562733c-.1670306 2.6812734-.8350732 5.1187734-1.9206924 7.3937578-3.2567776 6.5-10.1043942 11.0499689-18.0375499 11.0499689-11.10641813 0-20.0417577-8.7749844-20.0417577-19.5 0-10.80627333 8.93533957-19.5 20.0417577-19.5 11.0229027 0 19.9582423 8.69372667 19.9582423 19.5z" fill="#ff7058"/><ellipse cx="20" cy="19.5" fill="#fff" rx="16" ry="15.5"/><circle cx="19.5" cy="19.5" fill="#ff7058" r="11.5"/><circle cx="19.5" cy="19.5" fill="#fff" r="7.5"/><circle cx="20.5" cy="19.5" fill="#ff7058" r="3.5"/><path d="m40 20.5331633c-.1648046 2.7077747-.823944 5.1693666-1.8950949 7.4668367l-2.8837647-.7384697-.823944-2.7898356-14.418981-3.8564705c-.7415417-.1641218-1.1535531-.9025915-.9063463-1.6410613.1648046-.7384697.9063463-1.1487743 1.6478881-.9025915l14.3365787 3.8564704 2.1422229-2.0512873z" fill="#334a5e" opacity=".2"/><path d="m32.6134489 7.35887323c-.5153055-.47849764-1.4601008-.47849764-1.9754885 0l-11.2514813 10.44787267c-.5153055.4784976-.5153055 1.3558069 0 1.8343809.5153056.4784976 1.4601009.4784976 1.9754886 0l11.2515634-10.44787269c.5153056-.47849764.5153056-1.35580692-.0000822-1.83438088z" fill="#40596b"/><path d="m35 4.33926923-4.9166456 4.66073077-1.0833544-4.25890385 4.9166456-4.74109615z" fill="#84dbff"/><path d="m34.3392692 11 4.6607308-4.90138567-4.2589039-1.09861433-4.7410961 4.90138567z" fill="#54c0eb"/></g></svg>