<svg height="40" viewBox="0 0 40 40" width="40" xmlns="http://www.w3.org/2000/svg"><g fill="none"><ellipse cx="19.972078" cy="19.627732" fill="#87d37c" rx="19.972078" ry="19.627732"/><path d="m24.3225049 6.77764566h-12.598367c-.761772 0-1.3793103.61753828-1.3793103 1.37931034v22.3186683c0 .761772.6175383 1.3793103 1.3793103 1.3793103h17.2413793c.7617721 0 1.3793104-.6175383 1.3793104-1.3793103v-17.8331933c0-.3740707-.1519325-.7320994-.4209652-.9920038l-4.6430123-4.48547502c-.2571691-.24844329-.60077-.38730652-.9583452-.38730652z" fill="#fcfcfd"/><path d="m26.2068966 12.1997622h4.137931l-5.5172414-5.42211654v4.04280614c0 .7617721.6175383 1.3793104 1.3793104 1.3793104z" fill="#f1f3f7"/><path d="m15.862069 17.6218787h-2.7586207c-.3808861 0-.6896552-.3087691-.6896552-.6896552v-2.687277c0-.380886.3087691-.6896552.6896552-.6896552h2.7586207c.380886 0 .6896551.3087692.6896551.6896552v2.687277c0 .3808861-.3087691.6896552-.6896551.6896552zm-2.7001995-.7351785h2.6417093v-2.5961626h-2.6417093z" fill="#6eb1e1"/><g fill="#f1f3f7"><rect height="1" rx=".48144" width="9.63955" x="17.940689" y="13.562667"/><rect height="1" rx=".48144" width="7.070536" x="17.940689" y="15.973449"/></g><path d="m15.862069 23.7217598h-2.7586207c-.3808861 0-.6896552-.3087691-.6896552-.6896552v-2.687277c0-.380886.3087691-.6896552.6896552-.6896552h2.7586207c.380886 0 .6896551.3087692.6896551.6896552v2.687277c0 .3808861-.3087691.6896552-.6896551.6896552zm-2.7001995-.7351785h2.6417093v-2.5961626h-2.6417093z" fill="#6eb1e1"/><g fill="#f1f3f7"><rect height="1" rx=".472182" width="9.63955" x="17.940689" y="20.383835"/><rect height="1" rx=".472182" width="7.070536" x="17.940689" y="22.748255"/></g><path d="m15.862069 30.4994055h-2.7586207c-.3808861 0-.6896552-.3087692-.6896552-.6896552v-2.6872771c0-.380886.3087691-.6896551.6896552-.6896551h2.7586207c.380886 0 .6896551.3087691.6896551.6896551v2.6872771c0 .380886-.3087691.6896552-.6896551.6896552zm-2.7001995-.7352463h2.6417093v-2.5961626h-2.6417093z" fill="#6eb1e1"/><g fill="#f1f3f7"><rect height="1" rx=".48144" width="9.63955" x="17.940689" y="26.440327"/><rect height="1" rx=".48144" width="7.070536" x="17.940689" y="28.851042"/></g><path d="m13.1034483 14.7321906 1.0801975 1.534159 2.3680783-2.7110583-2.3888466 2.0805854z" fill="#f0582f"/></g></svg>