<svg height="92" viewBox="0 0 62 92" width="62" xmlns="http://www.w3.org/2000/svg"><path d="m61.0826721 45.2728423c-.2362451-1.5708364-.6429526-2.3899041-1.0472629-2.7306131-4.5490648-3.8334596-17.7286227-15.9269271-20.8922386-29.7908304-.766528-3.359153-.2703382-6.6526635-1.2798764-9.91717239-.504769-1.08816951-4.5429217-5.82063445-9.0858435 1.25246788-4.5429217 7.07310231 1.0095382 28.83649411 1.0095382 28.83649411s1.1353426 2.4475447-11.012295 2.3976622c-1.8816427-.0077267-5.1403157-.0000005-6.6546229-.0000005-2.0190764 0-9.5906126 1.4109319-9.0858435 7.3958646.504769 5.9849328 6.057229 6.5290176 6.057229 6.5290176s-9.08584355 1.0881695-9.08584355 6.5290175c0 5.4408479 1.51430725 8.1612719 10.09538165 8.1612719 0 0-9.0858435 1.0881696-7.5715362 8.1612719 1.5143072 7.0731024 9.5906126 5.440848 9.5906126 5.440848s-5.0476909 3.4288093-4.0381527 7.6171871 3.0286145 5.9849328 11.1049198 6.5290175c8.0763054.5440848 41.9124129-4.5169789 41.9124129-10.5019116 0-3.2645088.4317322-28.5145325.3958202-30.6071619 0 0-.0796774-3.0901042-.4123991-5.3024304z" fill="#e9aa1f" transform="matrix(1 0 0 -1 .497194 92)"/></svg>