<svg height="40" viewBox="0 0 40 40" width="40" xmlns="http://www.w3.org/2000/svg" xmlns:xlink="http://www.w3.org/1999/xlink"><defs><path id="a" d="m24.976 6.774a.534.534 0 0 1 .538.538l-.123 14.124a.553.553 0 0 1 -.547.548.534.534 0 0 1 -.539-.539l.123-14.123a.553.553 0 0 1 .548-.548z"/><filter id="b" height="145.9%" width="673.6%" x="-204.7%" y="-16.4%"><feOffset dx="1" dy="1" in="SourceAlpha" result="shadowOffsetOuter1"/><feGaussianBlur in="shadowOffsetOuter1" result="shadowBlurOuter1" stdDeviation="1"/><feColorMatrix in="shadowBlurOuter1" values="0 0 0 0 0 0 0 0 0 0 0 0 0 0 0 0 0 0 0.228037587 0"/></filter><path id="c" d="m14.204 5.736a.267.267 0 0 1 .27.27l-.143 16.296a.276.276 0 0 1 -.273.274.267.267 0 0 1 -.27-.269l.142-16.297a.276.276 0 0 1 .274-.274z"/><filter id="d" height="141.5%" width="1114.3%" x="-362.2%" y="-14.8%"><feOffset dx="1" dy="1" in="SourceAlpha" result="shadowOffsetOuter1"/><feGaussianBlur in="shadowOffsetOuter1" result="shadowBlurOuter1" stdDeviation="1"/><feColorMatrix in="shadowBlurOuter1" values="0 0 0 0 0 0 0 0 0 0 0 0 0 0 0 0 0 0 0.298650568 0"/></filter><ellipse id="e" cx="19.575" cy="19.237" rx="1.644" ry="1.615"/><filter id="f" height="378.6%" width="373.8%" x="-136.9%" y="-139.3%"><feOffset in="SourceAlpha" result="shadowOffsetOuter1"/><feGaussianBlur in="shadowOffsetOuter1" result="shadowBlurOuter1" stdDeviation="1.5"/><feColorMatrix in="shadowBlurOuter1" values="0 0 0 0 0 0 0 0 0 0 0 0 0 0 0 0 0 0 0.111123252 0"/></filter></defs><g fill="none" fill-rule="evenodd"><ellipse cx="20" cy="19.655" fill="#42b9ff" rx="20" ry="19.655"/><ellipse cx="20" cy="19.655" fill="#fff" rx="18.904" ry="18.578"/><ellipse cx="20" cy="19.655" fill="#5bcaff" rx="16.712" ry="16.424"/><g transform="matrix(.70710678 .70710678 -.70710678 .70710678 17.463458 -13.402518)"><use fill="#000" filter="url(#b)" xlink:href="#a"/><use fill="#252525" xlink:href="#a"/></g><g transform="matrix(-.70710678 .70710678 .70710678 .70710678 14.112437 -5.845563)"><use fill="#000" filter="url(#d)" xlink:href="#c"/><use fill="#252525" xlink:href="#c"/></g><use fill="#000" filter="url(#f)" xlink:href="#e"/><use fill="#fff" xlink:href="#e"/></g></svg>