<svg height="492" viewBox="0 0 360 492" width="360" xmlns="http://www.w3.org/2000/svg" xmlns:xlink="http://www.w3.org/1999/xlink"><defs><path id="a" d="m0 0h360v492h-360z"/><mask id="b" fill="#fff"><use fill="none" xlink:href="#a"/></mask></defs><g fill="none" fill-rule="evenodd"><use fill="#f4f4f4" xlink:href="#a"/><path d="m372.695 421.487c0-4.047-3.293-7.34-7.34-7.34-.841 0-1.639.171-2.393.433l-10.962-13.704a7.264 7.264 0 0 0 1.123-3.856c0-4.047-3.293-7.34-7.34-7.34a7.313 7.313 0 0 0 -5.246 2.222l-19.287-8.902c.02-.22.066-.433.066-.661 0-4.047-3.293-7.34-7.34-7.34-3.186 0-5.877 2.053-6.89 4.893h-27.814c-1.013-2.84-3.704-4.893-6.89-4.893-4.046 0-7.34 3.293-7.34 7.34 0 .303.054.595.091.89l-12.136 6.068a7.305 7.305 0 0 0 -5.081-2.065c-4.047 0-7.34 3.294-7.34 7.34 0 1.42.423 2.733 1.123 3.856l-10.964 13.704c-.753-.262-1.551-.433-2.393-.433-4.047 0-7.34 3.293-7.34 7.34 0 3.186 2.053 5.877 4.894 6.89v15.583c-2.841 1.01-4.894 3.702-4.894 6.887 0 4.047 3.293 7.34 7.34 7.34 2.719 0 5.067-1.502 6.337-3.701l13.357 2.427c.565 3.489 3.574 6.168 7.22 6.168.098 0 .19-.025.288-.03l4.669 11.674c-1.527 1.345-2.51 3.293-2.51 5.483 0 4.046 3.293 7.34 7.34 7.34 2.46 0 4.631-1.229 5.962-3.09l20.997 5.999a7.312 7.312 0 0 0 4.847 6.427v18.03c-2.84 1.013-4.893 3.704-4.893 6.89 0 4.046 3.293 7.34 7.34 7.34s7.34-3.294 7.34-7.34c0-3.186-2.053-5.877-4.893-6.89v-18.03c2.84-1.013 4.893-3.704 4.893-6.89 0-2.344-1.125-4.411-2.84-5.757l2.92-8.766 21.955 7.318c.059 3.124 2.08 5.754 4.879 6.753v25.37c-2.841 1.012-4.894 3.704-4.894 6.89 0 4.046 3.293 7.34 7.34 7.34s7.34-3.294 7.34-7.34c0-3.186-2.053-5.878-4.893-6.89v-25.368c2.84-1.013 4.893-3.704 4.893-6.89 0-.893-.183-1.74-.477-2.532l18.774-15.644c1.093.65 2.358 1.05 3.723 1.05 4.047 0 7.34-3.294 7.34-7.34 0-3.186-2.052-5.877-4.893-6.89v-20.477c2.84-1.01 4.893-3.702 4.893-6.887zm-26.913-26.914a2.45 2.45 0 0 1 2.447 2.447 2.45 2.45 0 0 1 -2.447 2.447 2.45 2.45 0 0 1 -2.447-2.447 2.45 2.45 0 0 1 2.447-2.447zm-3.48 8.87c1.04.567 2.215.917 3.48.917.842 0 1.637-.171 2.39-.433l10.964 13.706a7.276 7.276 0 0 0 -1.12 3.854c0 .394.056.773.117 1.152l-17.333 9.454-12.622-10.518a7.288 7.288 0 0 0 .477-2.535 7.29 7.29 0 0 0 -.563-2.806zm-30.774 40.064a7.22 7.22 0 0 0 -3.144.736l-10.366-10.366 18.301-9.49c1.314 1.227 3.06 1.993 4.996 1.993 1.365 0 2.628-.399 3.724-1.05l11.14 9.283-19.777 10.788c-1.299-1.165-2.995-1.894-4.874-1.894zm2.447 7.34a2.45 2.45 0 0 1 -2.447 2.447 2.45 2.45 0 0 1 -2.446-2.447 2.45 2.45 0 0 1 2.446-2.447 2.45 2.45 0 0 1 2.447 2.447zm-36.991-26.945 4.108 13.236-20.841 10.807a7.334 7.334 0 0 0 -3.132-1.722l-3.391-26.003 16.765-.84a7.336 7.336 0 0 0 6.49 4.522zm-2.156-7.308a2.45 2.45 0 0 1 2.447-2.447 2.45 2.45 0 0 1 2.447 2.447 2.45 2.45 0 0 1 -2.447 2.446 2.45 2.45 0 0 1 -2.447-2.446zm7.734 25.296 6.205 19.997-26.187-8.73c-.005-.294-.049-.578-.088-.861zm-.017-16.564 7.286 7.284-4.328 2.243zm1.336-5.588a7.253 7.253 0 0 0 .734-3.144c0-1.043-.225-2.031-.617-2.93l11.617-10.843 18.727 14.044c-.218.695-.367 1.414-.367 2.175 0 .343.056.668.1.998l-19.688 10.208zm34.987-.698a2.45 2.45 0 0 1 2.447-2.446 2.45 2.45 0 0 1 2.447 2.446 2.45 2.45 0 0 1 -2.447 2.447 2.45 2.45 0 0 1 -2.447-2.447zm21.355 18.942 17.53 14.61-37.984-3.453zm-26.248-58.089a2.45 2.45 0 0 1 2.447 2.447 2.45 2.45 0 0 1 -2.447 2.447 2.45 2.45 0 0 1 -2.447-2.447 2.45 2.45 0 0 1 2.447-2.447zm-3.362 8.933c1.01.526 2.144.854 3.362.854a7.315 7.315 0 0 0 5.248-2.224l19.285 8.901c-.02.223-.066.436-.066.663 0 .996.203 1.943.563 2.809l-14.21 12.789c-1.04-.568-2.215-.918-3.48-.918-1.502 0-2.9.458-4.064 1.236l-18.003-13.503zm-3.528-4.04c.059.16.1.326.167.48l-11.982 11.182-15.548-11.661h27.363zm-34.703-4.893a2.45 2.45 0 0 1 2.446 2.447 2.45 2.45 0 0 1 -2.446 2.447 2.45 2.45 0 0 1 -2.447-2.447 2.45 2.45 0 0 1 2.447-2.447zm-17.127 14.68c0-.303-.054-.594-.09-.888l12.135-6.067a7.314 7.314 0 0 0 5.082 2.062c1.502 0 2.899-.457 4.063-1.235l15.192 11.394-11 10.266c-1.01-.526-2.144-.851-3.362-.851-3.313 0-6.087 2.219-6.998 5.238l-17.185.859-1.86-14.267c2.376-1.216 4.023-3.663 4.023-6.51zm-7.34-2.446a2.45 2.45 0 0 1 2.446 2.446 2.45 2.45 0 0 1 -2.446 2.447 2.45 2.45 0 0 1 -2.447-2.447 2.45 2.45 0 0 1 2.447-2.446zm-2.393 9.353c.284.098.563.203.859.267l1.805 13.85-13.063.654a7.287 7.287 0 0 0 -.565-1.067zm-17.18 15.114a2.45 2.45 0 0 1 2.446 2.446 2.45 2.45 0 0 1 -2.447 2.447 2.45 2.45 0 0 1 -2.446-2.447 2.45 2.45 0 0 1 2.446-2.446zm0 34.253a2.45 2.45 0 0 1 -2.447-2.447 2.45 2.45 0 0 1 2.446-2.446 2.45 2.45 0 0 1 2.447 2.446 2.45 2.45 0 0 1 -2.447 2.447zm20.576-1.191-13.354-2.428a7.326 7.326 0 0 0 -4.776-5.717v-15.583a7.329 7.329 0 0 0 4.55-4.789l13.487-.675 3.41 26.155a7.348 7.348 0 0 0 -3.317 3.037zm6.337 6.084a2.45 2.45 0 0 1 -2.447-2.446 2.45 2.45 0 0 1 2.447-2.447 2.45 2.45 0 0 1 2.446 2.447 2.45 2.45 0 0 1 -2.446 2.446zm9.786 24.467a2.45 2.45 0 0 1 -2.446-2.446 2.45 2.45 0 0 1 2.446-2.447 2.45 2.45 0 0 1 2.447 2.447 2.45 2.45 0 0 1 -2.447 2.446zm28.294 3.09-20.998-5.999c-.247-3.829-3.405-6.877-7.296-6.877-.097 0-.19.024-.288.029l-4.669-11.673c.34-.301.649-.629.93-.986l29.541 9.848 4.363 14.053a7.46 7.46 0 0 0 -1.583 1.605zm5.96 38.504a2.45 2.45 0 0 1 -2.447-2.447 2.45 2.45 0 0 1 2.447-2.447 2.45 2.45 0 0 1 2.447 2.447 2.45 2.45 0 0 1 -2.447 2.447zm0-31.807a2.45 2.45 0 0 1 -2.447-2.447 2.45 2.45 0 0 1 2.447-2.446 2.45 2.45 0 0 1 2.447 2.446 2.45 2.45 0 0 1 -2.447 2.447zm.083-10.433-3.11-10.016 5.804 1.935zm4.243-12.725-9.136-3.046-7.507-24.188 6.484-3.362 11.463 11.463a7.22 7.22 0 0 0 -.737 3.144c0 2.344 1.126 4.414 2.843 5.757zm32.374 54.965a2.45 2.45 0 0 1 -2.446-2.447 2.45 2.45 0 0 1 2.446-2.447 2.45 2.45 0 0 1 2.447 2.447 2.45 2.45 0 0 1 -2.447 2.447zm0-39.147a2.45 2.45 0 0 1 -2.446-2.447 2.45 2.45 0 0 1 2.446-2.446 2.45 2.45 0 0 1 2.447 2.446 2.45 2.45 0 0 1 -2.447 2.447zm3.724-8.74c-1.096-.648-2.359-1.047-3.724-1.047-2.344 0-4.414 1.126-5.757 2.843l-21.976-7.325 3.403-10.213a7.322 7.322 0 0 0 6.511-4.264l40.091 3.643c.064.245.137.484.225.72zm5.126-38.454 15.637-8.53a7.264 7.264 0 0 0 2.43 1.444v20.477c-.451.161-.877.36-1.28.599zm20.51 22.727a2.45 2.45 0 0 1 -2.446-2.447 2.45 2.45 0 0 1 2.446-2.446 2.45 2.45 0 0 1 2.447 2.446 2.45 2.45 0 0 1 -2.447 2.447zm0-34.253a2.45 2.45 0 0 1 -2.446-2.447 2.45 2.45 0 0 1 2.446-2.447 2.45 2.45 0 0 1 2.447 2.447 2.45 2.45 0 0 1 -2.447 2.447zm-281.66-217.447c0-4.047-3.293-7.34-7.34-7.34-.841 0-1.639.171-2.393.433l-10.962-13.704a7.264 7.264 0 0 0 1.123-3.856c0-4.047-3.293-7.34-7.34-7.34a7.313 7.313 0 0 0 -5.246 2.222l-19.287-8.902c.02-.22.066-.433.066-.661 0-4.047-3.293-7.34-7.34-7.34-3.186 0-5.877 2.053-6.89 4.893h-27.815c-1.013-2.84-3.704-4.893-6.89-4.893-4.046 0-7.34 3.293-7.34 7.34 0 .303.054.595.091.89l-12.136 6.068a7.305 7.305 0 0 0 -5.081-2.065c-4.047 0-7.34 3.294-7.34 7.34 0 1.42.423 2.733 1.123 3.856l-10.964 13.704c-.753-.262-1.551-.433-2.393-.433-4.047 0-7.34 3.293-7.34 7.34 0 3.186 2.053 5.877 4.894 6.89v15.583c-2.841 1.01-4.894 3.702-4.894 6.887 0 4.047 3.293 7.34 7.34 7.34 2.719 0 5.067-1.502 6.337-3.701l13.357 2.427c.565 3.489 3.574 6.168 7.22 6.168.098 0 .19-.025.288-.03l4.669 11.674c-1.527 1.345-2.51 3.293-2.51 5.483 0 4.046 3.293 7.34 7.34 7.34 2.46 0 4.631-1.229 5.962-3.09l20.997 5.999a7.312 7.312 0 0 0 4.847 6.427v18.03c-2.84 1.013-4.893 3.704-4.893 6.89 0 4.046 3.293 7.34 7.34 7.34s7.34-3.294 7.34-7.34c0-3.186-2.053-5.877-4.893-6.89v-18.03c2.84-1.013 4.893-3.704 4.893-6.89 0-2.344-1.125-4.411-2.84-5.757l2.92-8.766 21.955 7.318c.059 3.124 2.08 5.754 4.879 6.753v25.37c-2.841 1.012-4.894 3.704-4.894 6.89 0 4.046 3.293 7.34 7.34 7.34s7.34-3.294 7.34-7.34c0-3.186-2.053-5.878-4.893-6.89v-25.368c2.84-1.013 4.893-3.704 4.893-6.89 0-.893-.183-1.74-.477-2.532l18.774-15.644c1.093.65 2.358 1.05 3.723 1.05 4.047 0 7.34-3.294 7.34-7.34 0-3.186-2.052-5.877-4.893-6.89v-20.477c2.84-1.01 4.893-3.702 4.893-6.887zm-26.913-26.914a2.45 2.45 0 0 1 2.447 2.447 2.45 2.45 0 0 1 -2.447 2.447 2.45 2.45 0 0 1 -2.447-2.447 2.45 2.45 0 0 1 2.447-2.447zm-3.48 8.87c1.04.567 2.215.917 3.48.917.842 0 1.637-.171 2.39-.433l10.964 13.706a7.276 7.276 0 0 0 -1.12 3.854c0 .394.056.773.117 1.152l-17.333 9.454-12.622-10.518a7.288 7.288 0 0 0 .477-2.535 7.29 7.29 0 0 0 -.563-2.806zm-30.774 40.064a7.22 7.22 0 0 0 -3.144.736l-10.366-10.366 18.301-9.49c1.314 1.227 3.06 1.993 4.996 1.993 1.365 0 2.628-.399 3.724-1.05l11.14 9.283-19.777 10.788c-1.299-1.165-2.995-1.894-4.874-1.894zm2.447 7.34a2.45 2.45 0 0 1 -2.447 2.447 2.45 2.45 0 0 1 -2.446-2.447 2.45 2.45 0 0 1 2.446-2.447 2.45 2.45 0 0 1 2.447 2.447zm-36.991-26.945 4.108 13.236-20.841 10.807a7.334 7.334 0 0 0 -3.132-1.722l-3.391-26.003 16.765-.84a7.336 7.336 0 0 0 6.49 4.522zm-2.156-7.308a2.45 2.45 0 0 1 2.447-2.447 2.45 2.45 0 0 1 2.447 2.447 2.45 2.45 0 0 1 -2.447 2.446 2.45 2.45 0 0 1 -2.447-2.446zm7.734 25.296 6.205 19.997-26.187-8.73c-.005-.294-.049-.578-.088-.861zm-.017-16.564 7.286 7.284-4.328 2.243zm1.336-5.588a7.253 7.253 0 0 0 .734-3.144c0-1.043-.225-2.031-.617-2.93l11.617-10.843 18.727 14.044c-.218.695-.367 1.414-.367 2.175 0 .343.056.668.1.998l-19.688 10.208-10.507-10.508zm34.987-.698a2.45 2.45 0 0 1 2.447-2.446 2.45 2.45 0 0 1 2.447 2.446 2.45 2.45 0 0 1 -2.447 2.447 2.45 2.45 0 0 1 -2.447-2.447zm21.355 18.942 17.53 14.61-37.984-3.453zm-26.248-58.089a2.45 2.45 0 0 1 2.447 2.447 2.45 2.45 0 0 1 -2.447 2.447 2.45 2.45 0 0 1 -2.447-2.447 2.45 2.45 0 0 1 2.447-2.447zm-3.362 8.933c1.01.526 2.144.854 3.362.854a7.315 7.315 0 0 0 5.248-2.224l19.285 8.901c-.02.223-.066.436-.066.663 0 .996.203 1.943.563 2.809l-14.21 12.789c-1.04-.568-2.215-.918-3.48-.918-1.502 0-2.9.458-4.064 1.236l-18.003-13.503zm-3.528-4.04c.059.16.1.326.167.48l-11.982 11.182-15.548-11.661h27.363zm-34.703-4.893a2.45 2.45 0 0 1 2.446 2.447 2.45 2.45 0 0 1 -2.446 2.447 2.45 2.45 0 0 1 -2.447-2.447 2.45 2.45 0 0 1 2.447-2.447zm-17.127 14.68c0-.303-.054-.594-.09-.888l12.135-6.067a7.314 7.314 0 0 0 5.082 2.062c1.502 0 2.899-.457 4.063-1.235l15.192 11.394-11 10.266c-1.01-.526-2.144-.851-3.362-.851-3.313 0-6.087 2.219-6.998 5.238l-17.185.859-1.86-14.267c2.376-1.216 4.023-3.663 4.023-6.51zm-7.34-2.446a2.45 2.45 0 0 1 2.446 2.446 2.45 2.45 0 0 1 -2.446 2.447 2.45 2.45 0 0 1 -2.447-2.447 2.45 2.45 0 0 1 2.447-2.446zm-2.393 9.353c.284.098.563.203.859.267l1.805 13.85-13.063.654a7.287 7.287 0 0 0 -.565-1.067zm-17.18 15.114a2.45 2.45 0 0 1 2.446 2.446 2.45 2.45 0 0 1 -2.447 2.447 2.45 2.45 0 0 1 -2.446-2.447 2.45 2.45 0 0 1 2.446-2.446zm0 34.253a2.45 2.45 0 0 1 -2.447-2.447 2.45 2.45 0 0 1 2.446-2.446 2.45 2.45 0 0 1 2.447 2.446 2.45 2.45 0 0 1 -2.447 2.447zm20.576-1.191-13.354-2.428a7.326 7.326 0 0 0 -4.776-5.717v-15.583a7.329 7.329 0 0 0 4.55-4.789l13.487-.675 3.41 26.155a7.348 7.348 0 0 0 -3.317 3.037zm6.337 6.084a2.45 2.45 0 0 1 -2.447-2.446 2.45 2.45 0 0 1 2.447-2.447 2.45 2.45 0 0 1 2.446 2.447 2.45 2.45 0 0 1 -2.446 2.446zm9.786 24.467a2.45 2.45 0 0 1 -2.446-2.446 2.45 2.45 0 0 1 2.446-2.447 2.45 2.45 0 0 1 2.447 2.447 2.45 2.45 0 0 1 -2.447 2.446zm28.294 3.09-20.998-5.999c-.247-3.829-3.405-6.877-7.296-6.877-.097 0-.19.024-.288.029l-4.669-11.673c.34-.301.649-.629.93-.986l29.541 9.848 4.363 14.053a7.46 7.46 0 0 0 -1.583 1.605zm5.96 38.504a2.45 2.45 0 0 1 -2.447-2.447 2.45 2.45 0 0 1 2.447-2.447 2.45 2.45 0 0 1 2.447 2.447 2.45 2.45 0 0 1 -2.447 2.447zm0-31.807a2.45 2.45 0 0 1 -2.447-2.447 2.45 2.45 0 0 1 2.447-2.446 2.45 2.45 0 0 1 2.447 2.446 2.45 2.45 0 0 1 -2.447 2.447zm.083-10.433-3.11-10.016 5.804 1.935zm4.243-12.725-9.136-3.046-7.507-24.188 6.484-3.362 11.463 11.463a7.22 7.22 0 0 0 -.737 3.144c0 2.344 1.126 4.414 2.843 5.757zm32.374 54.965a2.45 2.45 0 0 1 -2.446-2.447 2.45 2.45 0 0 1 2.446-2.447 2.45 2.45 0 0 1 2.447 2.447 2.45 2.45 0 0 1 -2.447 2.447zm0-39.147a2.45 2.45 0 0 1 -2.446-2.447 2.45 2.45 0 0 1 2.446-2.446 2.45 2.45 0 0 1 2.447 2.446 2.45 2.45 0 0 1 -2.447 2.447zm3.724-8.74c-1.096-.648-2.359-1.047-3.724-1.047-2.344 0-4.414 1.126-5.757 2.843l-21.976-7.325 3.403-10.213a7.322 7.322 0 0 0 6.511-4.264l40.091 3.643c.064.245.137.484.225.72l-18.772 15.642zm5.126-38.454 15.637-8.53a7.264 7.264 0 0 0 2.43 1.444v20.477c-.451.161-.877.36-1.28.599zm20.51 22.727a2.45 2.45 0 0 1 -2.446-2.447 2.45 2.45 0 0 1 2.446-2.446 2.45 2.45 0 0 1 2.447 2.446 2.45 2.45 0 0 1 -2.447 2.447zm0-34.253a2.45 2.45 0 0 1 -2.446-2.447 2.45 2.45 0 0 1 2.446-2.447 2.45 2.45 0 0 1 2.447 2.447 2.45 2.45 0 0 1 -2.447 2.447z" fill="#000" fill-rule="nonzero" mask="url(#b)" opacity=".03"/></g></svg>