<svg height="444" viewBox="0 0 329 444" width="329" xmlns="http://www.w3.org/2000/svg" xmlns:xlink="http://www.w3.org/1999/xlink"><defs><path id="a" d="m0 0h329v444h-329z"/><path id="b" d="m0 0h329v444h-329z"/><mask id="c" fill="#fff"><use fill="none" xlink:href="#a"/></mask><mask id="d" fill="#fff"><use fill="none" xlink:href="#b"/></mask></defs><g fill="none" fill-rule="evenodd"><use fill="#ff4270" xlink:href="#a"/><g mask="url(#c)"><path d="m52.477 40.284-14.248 14.236v46.716l-7.935 7.936v9.417a2.2 2.2 0 0 0 -1.556 2.095 2.208 2.208 0 1 0 4.417 0c0-.889-.531-1.651-1.294-1.999v-8.866l7.935-7.936v-46.705l14.248-14.259v-20.481l-18.432-18.438h-2.209l19.074 19.074zm3.295 163.072a2.548 2.548 0 0 0 1.685-2.398 2.513 2.513 0 0 0 -2.537-2.517c-1.407 0-2.556 1.111-2.556 2.517a2.56 2.56 0 0 0 2.13 2.513v63.883l-22.706 22.67a2.53 2.53 0 0 0 -1.253-.342 2.543 2.543 0 0 0 -2.535 2.555 2.511 2.511 0 0 0 2.535 2.518c1.408 0 2.556-1.11 2.556-2.518a2.53 2.53 0 0 0 -.374-1.311l23.055-23.055zm-2.095-59.895v-51.894a2.552 2.552 0 0 0 1.926-2.465 2.56 2.56 0 0 0 -2.556-2.556 2.56 2.56 0 0 0 -2.553 2.556c0 1.182.814 2.171 1.907 2.46v51.38l-18.885 18.885v25.402a2.53 2.53 0 0 0 -1.907 2.444 2.559 2.559 0 0 0 2.553 2.556 2.544 2.544 0 0 0 2.537-2.556 2.519 2.519 0 0 0 -1.905-2.448v-24.879z" fill="#f33a67"/><use fill="#ff4270" xlink:href="#b"/><g fill="#f33a67"><path d="m55.772 203.356a2.548 2.548 0 0 0 1.685-2.398 2.513 2.513 0 0 0 -2.537-2.517c-1.407 0-2.556 1.111-2.556 2.517a2.56 2.56 0 0 0 2.13 2.513v63.883l-22.706 22.67a2.53 2.53 0 0 0 -1.253-.342 2.543 2.543 0 0 0 -2.535 2.555 2.511 2.511 0 0 0 2.535 2.518c1.408 0 2.556-1.11 2.556-2.518a2.53 2.53 0 0 0 -.374-1.311l23.055-23.055zm-2.095-59.895v-51.894a2.552 2.552 0 0 0 1.926-2.465 2.56 2.56 0 0 0 -2.556-2.556 2.56 2.56 0 0 0 -2.553 2.556c0 1.182.814 2.171 1.907 2.46v51.38l-18.885 18.885v25.402a2.53 2.53 0 0 0 -1.907 2.444 2.559 2.559 0 0 0 2.553 2.556 2.544 2.544 0 0 0 2.537-2.556 2.519 2.519 0 0 0 -1.905-2.448v-24.879zm142.095 269.895a2.548 2.548 0 0 0 1.685-2.398 2.513 2.513 0 0 0 -2.537-2.517c-1.407 0-2.556 1.111-2.556 2.517a2.56 2.56 0 0 0 2.13 2.513v63.883l-22.706 22.67a2.53 2.53 0 0 0 -1.253-.342 2.543 2.543 0 0 0 -2.535 2.555 2.511 2.511 0 0 0 2.535 2.518c1.408 0 2.556-1.11 2.556-2.518a2.53 2.53 0 0 0 -.374-1.311l23.055-23.055zm77.905 10.105v-51.894a2.552 2.552 0 0 0 1.926-2.465 2.56 2.56 0 0 0 -2.556-2.556 2.56 2.56 0 0 0 -2.553 2.556c0 1.182.814 2.171 1.907 2.46v51.38l-18.885 18.885v25.402a2.53 2.53 0 0 0 -1.907 2.444 2.559 2.559 0 0 0 2.553 2.556 2.544 2.544 0 0 0 2.537-2.556 2.519 2.519 0 0 0 -1.905-2.448v-24.879zm-275.868-159.452c-.19 0-.365.046-.524.118l-.623-.622a2.047 2.047 0 0 1 1.147-.349c1.096 0 2.04.945 2.04 2.072a2.084 2.084 0 0 1 -1.888 2.054v-.868a1.207 1.207 0 0 0 1.036-1.186c0-.67-.549-1.219-1.188-1.219zm-.275 3.262a2.067 2.067 0 0 1 -1.797-2.043c0-.559.226-1.072.593-1.448l.59.589c-.224.221-.36.525-.36.859 0 .577.415 1.04.974 1.165zm-9.533 37.797a2.066 2.066 0 0 1 -1.858 2.049v-.873c.584-.102 1.005-.579 1.005-1.176 0-.281-.107-.529-.265-.736l.616-.612c.309.361.502.827.502 1.348zm-2.072-1.218c-.67 0-1.188.548-1.188 1.218 0 .605.431 1.088 1.006 1.181v.871a2.064 2.064 0 0 1 -1.858-2.052c0-1.157.913-2.071 2.04-2.071.493 0 .936.173 1.288.452l-.621.619a1.186 1.186 0 0 0 -.667-.218zm-.182-83.275c-.975 0-1.797.792-1.797 1.736 0 .954.788 1.728 1.736 1.76v1.219a2.966 2.966 0 0 1 -2.924-2.979c0-1.615 1.34-2.955 2.985-2.955a2.957 2.957 0 0 1 2.954 2.955 2.935 2.935 0 0 1 -2.589 2.948v-1.223c.781-.173 1.401-.879 1.401-1.725 0-.944-.822-1.736-1.766-1.736zm14.62 44.653c0-1.432-1.157-2.589-2.558-2.589-.567 0-1.09.185-1.522.493l-8.95-8.928c.26-.302.42-.691.42-1.13 0-.933-.702-1.692-1.645-1.754v-25.299c1.897-.187 3.381-1.764 3.381-3.71 0-2.041-1.675-3.716-3.746-3.716-2.041 0-3.747 1.675-3.747 3.716 0 2.05 1.673 3.707 3.686 3.74v25.289c-.798.149-1.401.868-1.401 1.734 0 .975.761 1.737 1.705 1.737a1.79 1.79 0 0 0 1.044-.328l8.921 8.921a2.566 2.566 0 0 0 -.766 1.824c0 1.337 1.041 2.423 2.345 2.561v23.493l-.121-.011c-.945 0-1.737.792-1.737 1.735 0 .565.255 1.047.642 1.366l-8.732 8.71a2.615 2.615 0 0 0 -1.657-.603 2.588 2.588 0 0 0 -2.589 2.589 2.578 2.578 0 0 0 2.407 2.571v25.144c-.708.073-1.219.602-1.219 1.282 0 .711.507 1.283 1.219 1.356v8.661c-.827.128-1.462.88-1.462 1.74 0 .975.761 1.767 1.705 1.767a1.749 1.749 0 0 0 1.767-1.767c0-.894-.687-1.671-1.614-1.751v-8.661a1.363 1.363 0 0 0 1.096-1.345c0-.648-.479-1.173-1.096-1.286v-25.143c1.333-.11 2.406-1.209 2.406-2.568 0-.663-.262-1.261-.678-1.718l8.797-8.752c.227.109.478.175.745.175 1.004 0 1.766-.761 1.766-1.767 0-.761-.499-1.416-1.218-1.644v-23.561a2.576 2.576 0 0 0 2.406-2.573zm88.876-261.907a2.55 2.55 0 0 0 2.222-1.321h-4.43a2.52 2.52 0 0 0 2.208 1.321m-11.248 10.171c1.584 0 2.863 1.248 2.863 2.771 0 1.045-.585 1.941-1.445 2.423l-.869-.869a1.619 1.619 0 0 0 1.156-1.554c0-.913-.731-1.614-1.705-1.614l-.092.009v-1.157zm0 5.573c-1.492 0-2.742-1.249-2.742-2.802 0-1.343.972-2.469 2.224-2.718v1.195a1.598 1.598 0 0 0 -1.097 1.523c0 .914.731 1.645 1.615 1.645h.001l.98.979c-.307.11-.635.178-.981.178zm2.863 81.905c0 1.523-1.279 2.772-2.863 2.772l-.031-.003v-1.127l.031.003c.974 0 1.705-.731 1.705-1.645 0-.431-.166-.818-.441-1.11l.813-.812a2.75 2.75 0 0 1 .786 1.922zm-4.478 0c0 .749.495 1.367 1.158 1.569v1.155a2.78 2.78 0 0 1 -2.285-2.724c0-1.553 1.25-2.803 2.742-2.803.664 0 1.268.229 1.753.6l-.822.818a1.761 1.761 0 0 0 -.931-.26c-.884 0-1.615.731-1.615 1.645zm3.625 66.249c0 1.248-1.036 2.254-2.315 2.254-1.218 0-2.223-1.006-2.223-2.254a2.24 2.24 0 0 1 2.071-2.24v.915a1.326 1.326 0 0 0 -1.158 1.325c0 .73.579 1.34 1.31 1.34.792 0 1.401-.61 1.401-1.34 0-.644-.473-1.193-1.127-1.315v-.913c1.148.133 2.041 1.071 2.041 2.228zm-2.528-165.219v10.813a3.495 3.495 0 0 0 -2.954 3.45c0 1.949 1.553 3.533 3.472 3.533.552 0 1.07-.133 1.538-.353l15.377 15.352a2.335 2.335 0 0 0 -.681 1.662 2.321 2.321 0 0 0 2.345 2.315v40.892l-.151-.016a2.321 2.321 0 0 0 -2.316 2.346c0 .677.295 1.28.758 1.703l-14.617 14.571a3.609 3.609 0 0 0 -2.253-.801c-1.919 0-3.472 1.584-3.472 3.503a3.47 3.47 0 0 0 3.015 3.457v59.974a2.815 2.815 0 0 0 -2.65 2.818c0 1.583 1.279 2.864 2.802 2.864a2.868 2.868 0 0 0 2.894-2.864c0-1.492-1.139-2.673-2.62-2.807v-59.942l.031.003c1.98 0 3.594-1.554 3.594-3.503 0-.938-.389-1.791-1.014-2.424l14.62-14.596c.356.224.775.359 1.228.359 1.31 0 2.346-1.036 2.346-2.315a2.318 2.318 0 0 0 -1.767-2.267v-40.998a2.31 2.31 0 0 0 1.888-2.272 2.32 2.32 0 0 0 -2.316-2.345c-.496 0-.952.15-1.329.407l-15.297-15.298c.985-.63 1.641-1.718 1.641-2.958 0-1.919-1.614-3.503-3.594-3.503l-.092.01v-10.77zm-52.904 208.226a2.514 2.514 0 0 0 2.537 2.519c1.409 0 2.556-1.111 2.556-2.519a2.555 2.555 0 0 0 -2.129-2.511v-17.3l-19.515-19.515v-47.234c1.15-.248 2.017-1.268 2.017-2.459a2.559 2.559 0 0 0 -2.554-2.554 2.56 2.56 0 0 0 -2.555 2.554c0 1.118.769 2.076 1.814 2.395v47.818l19.515 19.515v16.895a2.543 2.543 0 0 0 -1.686 2.396m38.413-172.089a2.542 2.542 0 0 0 -1.549 4.096l-15.836 15.45v18.191c-1.103.275-1.926 1.244-1.926 2.434a2.56 2.56 0 0 0 2.555 2.554 2.544 2.544 0 0 0 2.537-2.554 2.498 2.498 0 0 0 -1.908-2.433v-17.675l15.589-15.19c.297.123.622.194.964.194a2.561 2.561 0 0 0 2.555-2.556 2.553 2.553 0 0 0 -1.703-2.397v-34.799l1.451-1.452h-1.795l-.934.934zm-57.747-36.137v44.709l23.545 23.546v25.078a2.205 2.205 0 0 0 -1.43 2.066c0 1.215.987 2.214 2.213 2.214a2.216 2.216 0 0 0 2.214-2.214c0-.949-.594-1.749-1.431-2.065v-25.715l-23.556-23.546v-44.073z" mask="url(#d)"/><path d="m71.235 71.197h-7.438l-3.719-6.443 3.719-6.441h7.438l3.72 6.441zm12.626 7.029h-7.439l-3.719-6.442 3.719-6.442h7.439l3.72 6.442zm-6.751-11.693-3.032 5.251 3.032 5.251h6.063l3.032-5.251-3.032-5.251zm-6.057 14.792h-5.039l-2.52-4.365 2.52-4.364h5.039l2.52 4.364zm247.488 305.533v-7.963c.51-.117.982-.311 1.409-.582l5.631 5.632a.689.689 0 0 1 -.079 1.037 13.202 13.202 0 0 1 -6.17 2.553.69.69 0 0 1 -.791-.677zm-9.193-2.913 5.632-5.632a4.38 4.38 0 0 0 1.409.582v7.963a.69.69 0 0 1 -.791.677 13.143 13.143 0 0 1 -6.172-2.553.689.689 0 0 1 -.078-1.037zm7.041-22.196v7.963c-.504.11-.982.31-1.409.581l-5.631-5.631a.688.688 0 0 1 .079-1.037 13.181 13.181 0 0 1 6.17-2.553.69.69 0 0 1 .791.677zm9.192 2.913-5.631 5.631a4.459 4.459 0 0 0 -1.409-.581v-7.963a.69.69 0 0 1 .791-.677 13.181 13.181 0 0 1 6.17 2.553c.334.252.376.74.079 1.037zm-3.525 8.566a4.375 4.375 0 0 0 -.581-1.41l5.632-5.632a.69.69 0 0 1 1.037.079 13.142 13.142 0 0 1 2.552 6.172.689.689 0 0 1 -.676.791zm-14.232-7.041 5.631 5.631a4.352 4.352 0 0 0 -.581 1.41h-7.964a.69.69 0 0 1 -.677-.792 13.206 13.206 0 0 1 2.553-6.17.69.69 0 0 1 1.038-.079zm-1.038 16.153a13.198 13.198 0 0 1 -2.553-6.17.69.69 0 0 1 .677-.791h7.964c.116.511.31.982.581 1.409l-5.631 5.631a.689.689 0 0 1 -1.038-.079zm20.32.079-5.631-5.631c.271-.427.465-.898.581-1.409h7.963a.69.69 0 0 1 .677.791 13.186 13.186 0 0 1 -2.552 6.17.689.689 0 0 1 -1.038.079zm17.426-5.088v-6.055l-5.603-.944a21.132 21.132 0 0 0 -.885-3.328l4.375-3.612-3.024-5.247-5.326 1.99a22.06 22.06 0 0 0 -2.436-2.436l1.991-5.325-5.247-3.031-3.613 4.381a21.935 21.935 0 0 0 -3.328-.891l-.944-5.597h-6.054l-.944 5.597c-1.144.213-2.256.51-3.328.891l-3.613-4.381-5.247 3.031 1.99 5.325a21.636 21.636 0 0 0 -2.436 2.436l-5.325-1.99-3.031 5.247 4.382 3.612a21.821 21.821 0 0 0 -.892 3.328l-5.603.944v6.055l5.603.943c.213 1.144.51 2.256.892 3.329l-4.382 3.612 3.031 5.247 5.325-1.99a22.235 22.235 0 0 0 2.436 2.436l-1.99 5.325 5.247 3.024 3.613-4.375c1.072.382 2.184.679 3.328.886l.944 5.603h6.054l.944-5.603a21.134 21.134 0 0 0 3.328-.886l3.613 4.375 5.247-3.024-1.991-5.325a22.683 22.683 0 0 0 2.436-2.436l5.326 1.99 3.024-5.247-4.375-3.612c.381-1.073.679-2.185.885-3.329zm-298.486 119.363h-14.112l-1.569-9.336a36.698 36.698 0 0 1 -2.084-.555l-6.025 7.299-12.221-7.056 3.313-8.878a36.928 36.928 0 0 1 -1.52-1.52l-8.877 3.313-7.056-12.222 7.298-6.023a36.125 36.125 0 0 1 -.555-2.085l-9.337-1.569v-14.112l9.337-1.569c.164-.701.35-1.398.555-2.085l-7.298-6.024 7.056-12.221 8.877 3.312a37.54 37.54 0 0 1 1.52-1.519l-3.313-8.878 12.221-7.056 6.025 7.299a36.705 36.705 0 0 1 2.084-.556l1.569-9.336h14.112l1.569 9.336c.702.165 1.398.351 2.085.556l6.024-7.299 12.221 7.056-3.312 8.878c.52.491 1.028.999 1.519 1.519l8.878-3.312 7.056 12.221-7.298 6.024c.204.687.39 1.384.555 2.085l9.336 1.569v14.112l-9.336 1.569a37.826 37.826 0 0 1 -.555 2.085l7.298 6.023-7.056 12.222-8.878-3.313a36.904 36.904 0 0 1 -1.519 1.52l3.312 8.878-12.221 7.056-6.024-7.299c-.687.205-1.383.39-2.085.555zm-18.66-12.967a34.596 34.596 0 0 0 5.292 1.412l1.497 8.907h9.631l1.496-8.907a34.608 34.608 0 0 0 5.293-1.412l5.745 6.961 8.341-4.816-3.16-8.467a34.806 34.806 0 0 0 3.868-3.869l8.468 3.16 4.815-8.341-6.961-5.745a34.463 34.463 0 0 0 1.412-5.293l8.907-1.496v-9.631l-8.907-1.496a34.493 34.493 0 0 0 -1.412-5.293l6.961-5.745-4.815-8.341-8.468 3.161a34.806 34.806 0 0 0 -3.868-3.869l3.16-8.467-8.341-4.816-5.745 6.961a34.608 34.608 0 0 0 -5.293-1.412l-1.496-8.907h-9.631l-1.497 8.907a34.596 34.596 0 0 0 -5.292 1.412l-5.746-6.961-8.34 4.816 3.16 8.467a34.9 34.9 0 0 0 -3.869 3.869l-8.467-3.161-4.815 8.341 6.961 5.745a34.38 34.38 0 0 0 -1.412 5.293l-8.908 1.496v9.631l8.908 1.496a34.35 34.35 0 0 0 1.412 5.293l-6.961 5.745 4.815 8.341 8.467-3.16a34.9 34.9 0 0 0 3.869 3.869l-3.16 8.467 8.34 4.816z" mask="url(#d)"/><path d="m38.99 472.26c-11.737 0-21.254-9.517-21.254-21.254s9.517-21.254 21.254-21.254c11.738 0 21.255 9.517 21.255 21.254s-9.517 21.254-21.255 21.254m0-39.86c-10.259 0-18.606 8.347-18.606 18.606s8.347 18.605 18.606 18.605 18.606-8.346 18.606-18.605-8.347-18.606-18.606-18.606m287.234 1.465-8.763-5.908-8.761 5.908v-6.196l8.754-5.903v-.011l.007.006.009-.006v.011l8.754 5.903z" mask="url(#d)"/><path d="m326.224 443.603-8.763-5.908-8.761 5.908v-6.196l8.754-5.903v-.011l.007.006.009-.006v.011l8.754 5.903zm0-19.539-8.763-5.908-8.761 5.908v-6.196l8.754-5.902v-.012l.007.006.009-.006v.012l8.754 5.902z" mask="url(#d)"/></g></g><g fill="#f33a67" mask="url(#c)"><path d="m329.488 265.228a2.068 2.068 0 0 1 -1.797 2.043v-.878c.559-.125.974-.588.974-1.165 0-.334-.136-.638-.36-.859l.59-.589c.367.376.593.889.593 1.448zm-2.072-1.219c-.64 0-1.187.549-1.187 1.219 0 .614.466 1.105 1.035 1.186v.868a2.085 2.085 0 0 1 -1.89-2.054c0-1.127.946-2.072 2.042-2.072.427 0 .82.13 1.147.349l-.623.622a1.262 1.262 0 0 0 -.524-.118zm9.108-41.698a2.957 2.957 0 0 1 2.954-2.955c1.644 0 2.985 1.34 2.985 2.955a2.966 2.966 0 0 1 -2.924 2.979v-1.219c.948-.032 1.737-.806 1.737-1.76 0-.944-.824-1.736-1.798-1.736-.944 0-1.767.792-1.767 1.736 0 .846.62 1.552 1.402 1.725v1.223a2.935 2.935 0 0 1 -2.59-2.948zm1.202 81.409.616.612a1.206 1.206 0 0 0 -.265.736c0 .597.42 1.074 1.005 1.176v.873a2.066 2.066 0 0 1 -1.858-2.049c0-.521.192-.987.502-1.348zm1.569-.723c1.127 0 2.04.914 2.04 2.071a2.064 2.064 0 0 1 -1.857 2.052v-.871a1.187 1.187 0 0 0 1.006-1.181c0-.67-.52-1.218-1.19-1.218a1.19 1.19 0 0 0 -.666.218l-.621-.619a2.067 2.067 0 0 1 1.288-.452zm-11.88-40.358c-1.4 0-2.557 1.157-2.557 2.589a2.576 2.576 0 0 0 2.406 2.573v23.561a1.727 1.727 0 0 0 -1.218 1.644c0 1.006.76 1.767 1.767 1.767.265 0 .516-.066.744-.175l8.798 8.752a2.545 2.545 0 0 0 -.68 1.718c0 1.359 1.074 2.458 2.407 2.568v25.143c-.618.113-1.096.638-1.096 1.286 0 .675.478 1.228 1.096 1.345v8.661a1.764 1.764 0 0 0 -1.614 1.751 1.75 1.75 0 0 0 1.767 1.767c.944 0 1.705-.792 1.705-1.767 0-.86-.635-1.612-1.462-1.74v-8.661a1.338 1.338 0 0 0 1.219-1.356c0-.68-.511-1.209-1.22-1.282v-25.144a2.578 2.578 0 0 0 2.407-2.571 2.587 2.587 0 0 0 -2.59-2.589c-.627 0-1.2.232-1.655.603l-8.732-8.71c.386-.319.64-.801.64-1.366 0-.943-.791-1.735-1.734-1.735l-.122.011v-23.493c1.303-.138 2.344-1.224 2.344-2.561a2.56 2.56 0 0 0 -.765-1.824l8.92-8.921a1.79 1.79 0 0 0 1.045.328c.944 0 1.705-.762 1.705-1.737 0-.866-.604-1.585-1.401-1.734v-25.289c2.013-.033 3.686-1.69 3.686-3.74 0-2.041-1.706-3.716-3.747-3.716-2.071 0-3.746 1.675-3.746 3.716 0 1.946 1.484 3.523 3.38 3.71v25.299a1.742 1.742 0 0 0 -1.644 1.754c0 .439.159.828.42 1.13l-8.95 8.928a2.612 2.612 0 0 0 -1.522-.493zm11.745-146.688c-.224.376-.363.81-.363 1.283 0 1.186.82 2.18 1.907 2.466v13.244l-10.204-10.203v-15.45zm-9.937-11.735-10.365-10.365v-22.23a2.548 2.548 0 0 0 1.534-4.041l8.83-8.831v45.467zm1.277-58.051a2.545 2.545 0 0 0 2.537-2.556c0-.515-.16-.998-.432-1.401l9.266-9.263v11.324l-11.371 11.387zm12.649-1.341v-13.155l14.365-14.361v-1.795l-14.365 14.36v-27.873h-1.278v29.15l-10.227 10.225a2.518 2.518 0 0 0 -1.144-.284c-1.406 0-2.553 1.147-2.553 2.518 0 .939.517 1.754 1.276 2.199v11.127l-9.827 9.843a2.517 2.517 0 0 0 -1.02-.218 2.56 2.56 0 0 0 -2.555 2.554c0 1.128.742 2.078 1.758 2.416v22.84l11.644 11.643v17.246l10.717 10.716c-.33.43-.532.96-.532 1.541a2.55 2.55 0 0 0 1.296 2.21v24.325l-31.542 31.551v26.077a2.496 2.496 0 0 0 -1.48 2.287c0 .555.18 1.065.478 1.485l-21.697 21.733v18.219a2.543 2.543 0 0 0 -1.276 2.203 2.546 2.546 0 0 0 2.554 2.554c1.389 0 2.537-1.147 2.537-2.554s-1.148-2.555-2.537-2.555v-17.348l21.419-21.42c.323.15.679.239 1.059.239a2.56 2.56 0 0 0 2.554-2.556c0-1.331-1.03-2.384-2.332-2.496v-25.349l30.263-30.255v30.297a2.556 2.556 0 0 0 -1.907 2.463c0 .464.135.891.353 1.261l-17.126 17.143v24.6a2.556 2.556 0 0 0 -1.686 2.394c0 1.409 1.149 2.556 2.537 2.556a2.56 2.56 0 0 0 2.555-2.556 2.556 2.556 0 0 0 -2.13-2.511v-23.964l16.769-16.752c.375.215.804.347 1.265.347 1.426 0 2.555-1.111 2.555-2.518a2.54 2.54 0 0 0 -1.907-2.462v-31.576l15.532-15.527v-1.824l-15.532 15.536v-22.704a2.543 2.543 0 0 0 2.516-2.553c0-1.4-1.12-2.541-2.516-2.553v-13.265a2.543 2.543 0 0 0 1.907-2.464c0-1.406-1.13-2.517-2.555-2.517-.461 0-.89.131-1.263.346l-9.571-9.569v-48.022zm-16.035-42.824v6.95a2.203 2.203 0 0 0 -1.487 2.069c0 1.227.988 2.225 2.213 2.225a2.213 2.213 0 1 0 .841-4.257v-6.987zm-38.588 188.673a2.544 2.544 0 0 0 2.537 2.556 2.56 2.56 0 0 0 2.554-2.556 2.532 2.532 0 0 0 -1.908-2.444v-25.402l-18.885-18.885v-51.38a2.553 2.553 0 0 0 1.907-2.46 2.56 2.56 0 0 0 -2.554-2.556 2.561 2.561 0 0 0 -2.556 2.556c0 1.188.823 2.183 1.927 2.465v51.894l18.883 18.885v24.879a2.519 2.519 0 0 0 -1.905 2.448"/><path d="m272.86 200.958c0-1.406-1.15-2.517-2.555-2.517a2.513 2.513 0 0 0 -2.537 2.517c0 1.106.703 2.044 1.685 2.398v64.515l23.055 23.055a2.53 2.53 0 0 0 -.374 1.311c0 1.408 1.148 2.518 2.556 2.518a2.511 2.511 0 0 0 2.535-2.518 2.543 2.543 0 0 0 -2.535-2.555 2.53 2.53 0 0 0 -1.253.342l-22.706-22.67v-63.883a2.56 2.56 0 0 0 2.13-2.513m-22.891-184.695c0 1.553-1.248 2.802-2.74 2.802-.347 0-.674-.068-.981-.178l.98-.979c.885 0 1.615-.731 1.615-1.645 0-.725-.464-1.31-1.097-1.523v-1.195a2.784 2.784 0 0 1 2.224 2.718zm-5.603 0c0-1.523 1.279-2.771 2.863-2.771l.092.009v1.157l-.092-.009c-.975 0-1.705.701-1.705 1.614 0 .731.47 1.338 1.156 1.554l-.87.869c-.86-.482-1.444-1.378-1.444-2.423zm.786 82.785.812.812c-.273.292-.44.679-.44 1.11 0 .914.73 1.645 1.705 1.645l.03-.003v1.127l-.03.003c-1.584 0-2.863-1.249-2.863-2.772 0-.748.3-1.421.786-1.922zm2.077-.881c1.492 0 2.74 1.25 2.74 2.803a2.78 2.78 0 0 1 -2.283 2.724v-1.155a1.637 1.637 0 0 0 1.157-1.569c0-.914-.73-1.645-1.614-1.645-.35 0-.667.097-.932.26l-.821-.818a2.874 2.874 0 0 1 1.753-.6zm2.528 69.052c0 1.248-1.005 2.254-2.223 2.254-1.28 0-2.315-1.006-2.315-2.254 0-1.157.893-2.095 2.04-2.228v.913c-.653.122-1.127.671-1.127 1.315 0 .73.61 1.34 1.402 1.34.73 0 1.309-.61 1.309-1.34 0-.679-.501-1.247-1.157-1.325v-.915a2.24 2.24 0 0 1 2.07 2.24zm-2.436-165.219v10.77l-.092-.01c-1.98 0-3.594 1.584-3.594 3.503 0 1.24.656 2.328 1.64 2.958l-15.296 15.298a2.347 2.347 0 0 0 -1.33-.407 2.321 2.321 0 0 0 -2.316 2.345c0 1.133.814 2.072 1.889 2.272v40.998a2.32 2.32 0 0 0 -1.767 2.267c0 1.279 1.036 2.315 2.346 2.315.452 0 .87-.135 1.228-.359l14.62 14.596a3.444 3.444 0 0 0 -1.014 2.424c0 1.949 1.614 3.503 3.594 3.503l.03-.003v59.942c-1.48.134-2.62 1.315-2.62 2.807a2.868 2.868 0 0 0 2.895 2.864c1.523 0 2.802-1.281 2.802-2.864a2.815 2.815 0 0 0 -2.65-2.818v-59.974a3.47 3.47 0 0 0 3.015-3.457c0-1.919-1.553-3.503-3.472-3.503-.857 0-1.635.309-2.253.801l-14.617-14.571a2.299 2.299 0 0 0 .758-1.703 2.321 2.321 0 0 0 -2.316-2.346l-.151.016v-40.892a2.321 2.321 0 0 0 2.345-2.315c0-.653-.258-1.239-.68-1.662l15.376-15.352c.468.22.986.353 1.538.353 1.919 0 3.472-1.584 3.472-3.533a3.495 3.495 0 0 0 -2.955-3.45v-10.813zm47.552 67.619v25.715a2.204 2.204 0 0 0 -1.43 2.065c0 1.215.988 2.214 2.214 2.214a2.217 2.217 0 0 0 2.213-2.214c0-.949-.594-1.75-1.43-2.066v-25.078l23.545-23.546v-44.709h-1.555v44.073zm-33.914-31.368a2.553 2.553 0 0 0 -1.702 2.397 2.561 2.561 0 0 0 2.555 2.556c.342 0 .667-.071.964-.194l15.589 15.19v17.675a2.498 2.498 0 0 0 -1.908 2.433 2.543 2.543 0 0 0 2.536 2.554 2.56 2.56 0 0 0 2.556-2.554c0-1.19-.823-2.159-1.926-2.434v-18.191l-15.836-15.45c.346-.437.562-.984.562-1.585 0-1.261-.91-2.306-2.111-2.511v-35.203l-.934-.934h-1.795l1.45 1.452z"/><path d="m271.18 40.919 14.248 14.259v46.705l7.936 7.936v8.866a2.198 2.198 0 0 0 -1.294 1.999 2.209 2.209 0 1 0 4.417 0 2.2 2.2 0 0 0 -1.556-2.095v-9.417l-7.936-7.936v-46.716l-14.248-14.236v-19.21l19.075-19.074h-2.21l-18.431 18.438v20.481m47.299 130.501v-47.818c1.046-.319 1.815-1.277 1.815-2.395a2.56 2.56 0 0 0 -2.555-2.554 2.558 2.558 0 0 0 -2.554 2.554c0 1.191.867 2.211 2.016 2.459v47.234l-19.514 19.515v17.3a2.555 2.555 0 0 0 -2.13 2.511c0 1.408 1.148 2.519 2.557 2.519a2.514 2.514 0 0 0 2.537-2.519 2.543 2.543 0 0 0 -1.686-2.396v-16.895l19.515-19.515"/><path d="m291.244 26.937v-6.567l14.504-2.977v6.568zm0 10.389v-6.568l14.504-2.976v6.568zm14.504 7.346-14.504 2.976v-6.568l14.504-2.976z"/></g><g mask="url(#c)"><g fill="#c5ff1e"><path d="m186.335 107.906h5.759v14.41h-5.76zm37.431 18.611v-38.663h-5.759v36.277l-7.794 7.802 4.071 4.075zm23.034 17.293v-32.898h-5.758v30.512l-7.794 7.803 4.071 4.075z"/><path d="m189.214 109.265c4.762 0 8.638-3.88 8.638-8.646 0-4.768-3.876-8.647-8.638-8.647-4.763 0-8.638 3.88-8.638 8.647s3.875 8.646 8.638 8.646zm0-11.529a2.886 2.886 0 0 1 2.88 2.883 2.886 2.886 0 0 1 -2.88 2.882 2.886 2.886 0 0 1 -2.88-2.882 2.886 2.886 0 0 1 2.88-2.883zm-28.794-9.882h5.76v31.705h-5.76z"/><path d="m163.3 90.09c4.762 0 8.638-3.88 8.638-8.647 0-4.768-3.876-8.647-8.638-8.647-4.763 0-8.639 3.88-8.639 8.647s3.876 8.646 8.639 8.646zm0-11.53a2.886 2.886 0 0 1 2.879 2.883 2.886 2.886 0 0 1 -2.88 2.882 2.886 2.886 0 0 1 -2.879-2.882 2.886 2.886 0 0 1 2.88-2.883zm57.587 10.53c4.762 0 8.638-3.88 8.638-8.647 0-4.768-3.876-8.647-8.638-8.647-4.763 0-8.638 3.88-8.638 8.647s3.875 8.646 8.638 8.646zm0-11.53a2.886 2.886 0 0 1 2.879 2.883 2.886 2.886 0 0 1 -2.88 2.882 2.886 2.886 0 0 1 -2.879-2.882 2.886 2.886 0 0 1 2.88-2.883zm23.034 34.588c4.763 0 8.638-3.88 8.638-8.647s-3.875-8.647-8.638-8.647c-4.762 0-8.638 3.88-8.638 8.647s3.876 8.647 8.638 8.647zm0-11.53a2.886 2.886 0 0 1 2.88 2.883 2.886 2.886 0 0 1 -2.88 2.882 2.886 2.886 0 0 1 -2.879-2.882 2.886 2.886 0 0 1 2.88-2.882zm-109.415 7.412h5.759v17.294h-5.76zm-31.673-20.176v38.663l9.482 9.491 4.071-4.075-7.794-7.802v-36.277zm-23.035 23.058v32.899l15.24 15.256 4.072-4.076-13.553-13.567v-30.512z"/><path d="m137.385 110.265c4.763 0 8.638-3.88 8.638-8.646 0-4.768-3.875-8.647-8.638-8.647-4.762 0-8.638 3.88-8.638 8.647s3.876 8.646 8.638 8.646zm0-11.529a2.886 2.886 0 0 1 2.88 2.883 2.886 2.886 0 0 1 -2.88 2.882 2.886 2.886 0 0 1 -2.879-2.882 2.886 2.886 0 0 1 2.88-2.883zm-31.672-8.646c4.762 0 8.638-3.88 8.638-8.647 0-4.768-3.876-8.647-8.638-8.647-4.763 0-8.639 3.88-8.639 8.647s3.876 8.646 8.639 8.646zm0-11.53a2.886 2.886 0 0 1 2.879 2.883 2.886 2.886 0 0 1 -2.88 2.882 2.886 2.886 0 0 1 -2.879-2.882 2.886 2.886 0 0 1 2.88-2.883zm-23.035 33.588c4.762 0 8.638-3.88 8.638-8.647s-3.876-8.647-8.638-8.647c-4.763 0-8.638 3.88-8.638 8.647s3.875 8.647 8.638 8.647zm0-11.53a2.886 2.886 0 0 1 2.88 2.883 2.886 2.886 0 0 1 -2.88 2.882 2.886 2.886 0 0 1 -2.88-2.882 2.886 2.886 0 0 1 2.88-2.882z"/></g><path d="m166.472 331.452h-5.52v-54.432h5.52z" fill="#fff"/><path d="m163.458 328.858c-4.564 0-8.279 3.71-8.279 8.27s3.715 8.27 8.279 8.27 8.279-3.71 8.279-8.27-3.715-8.27-8.28-8.27zm0 11.027a2.761 2.761 0 0 1 -2.76-2.757 2.761 2.761 0 0 1 2.76-2.757c1.52 0 2.76 1.235 2.76 2.757a2.761 2.761 0 0 1 -2.76 2.757zm61 16.973c-4.564 0-8.279 3.71-8.279 8.27s3.715 8.27 8.279 8.27 8.279-3.71 8.279-8.27-3.715-8.27-8.28-8.27zm0 11.027a2.761 2.761 0 0 1 -2.76-2.757 2.761 2.761 0 0 1 2.76-2.757c1.52 0 2.76 1.235 2.76 2.757a2.761 2.761 0 0 1 -2.76 2.757z" fill="#fff"/><path d="m107.458 357.858c-4.564 0-8.279 3.71-8.279 8.27s3.715 8.27 8.279 8.27 8.279-3.71 8.279-8.27-3.715-8.27-8.28-8.27zm0 11.027a2.761 2.761 0 0 1 -2.76-2.757 2.761 2.761 0 0 1 2.76-2.757c1.52 0 2.76 1.235 2.76 2.757a2.761 2.761 0 0 1 -2.76 2.757z" fill="#ad2b4a"/><path d="m112.736 369v-5.52h106.22v5.52z" fill="#fff"/><g fill="#ad2b4a"><path d="m112.736 369v-5.52h33.175v5.52z"/><path d="m233.722 201.062c0-38.792-31.59-70.35-70.422-70.35s-70.423 31.558-70.423 70.35 31.59 70.35 70.423 70.35c38.831 0 70.422-31.558 70.422-70.35zm-134.443 0c0-35.265 28.72-63.955 64.02-63.955 35.301 0 64.021 28.69 64.021 63.955s-28.72 63.955-64.02 63.955c-35.301 0-64.021-28.69-64.021-63.955z"/><path d="m182.506 220.249v-38.373h-38.413v38.373zm-32.01-6.396v-25.582h25.608v25.582h-25.609z"/><path d="m195.31 233.04v-15.99h9.603v-6.395h-9.603v-6.395h9.603v-6.396h-9.603v-6.395h9.603v-6.396h-9.603v-15.988h-16.005v-9.594h-6.402v9.594h-6.403v-9.594h-6.403v9.594h-6.402v-9.594h-6.402v9.594h-16.003v15.988h-9.603v6.396h9.603v6.395h-9.603v6.396h9.603v6.395h-9.603v6.396h9.603v15.989h16.005v9.593h6.402v-9.593h6.402v9.593h6.403v-9.593h6.402v9.593h6.402v-9.593h16.005zm-57.619-6.396v-51.164h51.217v51.164h-51.218zm80.026-41.571v6.396h-6.402v-6.396zm0 12.791v6.396h-6.402v-6.396zm0 12.791v6.396h-6.402v-6.396zm-64.02-63.955v6.396h-6.402v-6.396zm12.803 0v6.396h-6.4v-6.396zm12.805 0v6.396h-6.402v-6.396zm-64.021 63.955v6.396h-6.402v-6.396zm0-12.791v6.396h-6.402v-6.396zm0-12.791v6.396h-6.402v-6.396zm64.021 63.956v6.396h-6.402v-6.396zm-12.805 0v6.396h-6.4v-6.396zm-12.803 0v6.396h-6.402v-6.396z"/></g></g></g></svg>