<svg xmlns="http://www.w3.org/2000/svg" xmlns:xlink="http://www.w3.org/1999/xlink" width="360" height="448" viewBox="0 0 360 448"><defs><path id="a" d="M0 0h360v448H0z"/></defs><g fill="none" fill-rule="evenodd"><mask id="b" fill="#fff"><use xlink:href="#a"/></mask><use fill="#F4F4F4" xlink:href="#a"/><g fill="#000" fill-rule="nonzero" mask="url(#b)" opacity=".03"><path d="M188.939 394.028a2.56 2.56 0 0 1-1.822-.75 2.545 2.545 0 0 1 0-3.614 2.559 2.559 0 0 1 1.812-.744c.287 0 .567.045.837.134l1.204.402.406 1.194a2.53 2.53 0 0 1-.612 2.625 2.563 2.563 0 0 1-1.825.753zM329.857 205.73l-1.14-.559a2.541 2.541 0 0 1-1.439-2.287c0-1.41 1.156-2.556 2.579-2.556 1.423 0 2.579 1.145 2.579 2.556 0 .973-.55 1.85-1.44 2.287l-1.139.559zM188.939 398.016c1.69 0 3.38-.638 4.671-1.917a6.494 6.494 0 0 0 1.581-6.72l47.926-47.496h62.58l27.09-26.845V208.741c2.176-1.072 3.676-3.289 3.676-5.86 0-3.615-2.958-6.544-6.603-6.544-3.648 0-6.603 2.932-6.603 6.543 0 2.572 1.5 4.79 3.677 5.861v103.895l-23.657 23.444h-62.578l-49.645 49.197a6.684 6.684 0 0 0-2.122-.345 6.6 6.6 0 0 0-4.661 1.911 6.504 6.504 0 0 0 0 9.256 6.596 6.596 0 0 0 4.668 1.917z"/><path d="M255.08 442.702c-1.422 0-2.578-1.145-2.578-2.555 0-.973.55-1.85 1.439-2.288l1.14-.558 1.14.558a2.541 2.541 0 0 1 1.438 2.288c0 1.407-1.159 2.555-2.578 2.555zm92.954-196.236l-1.14-.559a2.541 2.541 0 0 1-1.438-2.287c0-1.41 1.155-2.556 2.578-2.556 1.423 0 2.58 1.145 2.58 2.556 0 .973-.551 1.85-1.44 2.287l-1.14.559zM255.081 446.69c3.647 0 6.603-2.932 6.603-6.543 0-2.572-1.5-4.79-3.677-5.861v-51.641l18.747-17.915h38.824l35.383-35.063V249.48c2.176-1.07 3.677-3.29 3.677-5.861 0-3.615-2.96-6.544-6.604-6.544s-6.603 2.932-6.603 6.544c0 2.571 1.5 4.789 3.677 5.86v77.784l-31.954 31.666h-38.763l-22.24 21.252v54.104c-2.177 1.069-3.677 3.29-3.677 5.86 0 3.615 2.959 6.544 6.607 6.544zM214.37 425.033a2.56 2.56 0 0 1-1.822-.75 2.545 2.545 0 0 1 0-3.614 2.559 2.559 0 0 1 1.812-.744c.287 0 .567.045.837.134l1.204.402.406 1.194a2.53 2.53 0 0 1-.612 2.625 2.558 2.558 0 0 1-1.825.753zm36.783-62.555c-.287 0-.567-.045-.837-.134l-1.204-.402-.406-1.194a2.532 2.532 0 0 1 .612-2.625 2.574 2.574 0 0 1 1.822-.75 2.56 2.56 0 0 1 1.822.75c.486.481.757 1.123.757 1.805 0 .683-.267 1.325-.757 1.806a2.533 2.533 0 0 1-1.81.744zm-36.783 66.547c1.69 0 3.38-.638 4.671-1.918a6.494 6.494 0 0 0 1.581-6.719l11.767-11.661v-26.111l16.642-16.488c.686.23 1.404.344 2.122.344a6.587 6.587 0 0 0 4.658-1.911 6.504 6.504 0 0 0 0-9.256 6.615 6.615 0 0 0-4.671-1.917c-1.69 0-3.38.638-4.672 1.917a6.494 6.494 0 0 0-1.58 6.72l-18.355 18.189v26.11l-10.054 9.961a6.684 6.684 0 0 0-2.122-.345 6.587 6.587 0 0 0-4.659 1.912 6.504 6.504 0 0 0 0 9.255 6.615 6.615 0 0 0 4.672 1.918zM170.179 370.894c-1.423 0-2.579-1.145-2.579-2.555 0-.974.55-1.85 1.44-2.288l1.139-.558 1.14.558a2.541 2.541 0 0 1 1.439 2.288c0 1.41-1.16 2.555-2.58 2.555zm21.686-47.583c-.286 0-.566-.044-.837-.134l-1.204-.402-.405-1.193a2.532 2.532 0 0 1 .611-2.626 2.574 2.574 0 0 1 1.823-.75 2.56 2.56 0 0 1 1.822.75 2.545 2.545 0 0 1 0 3.615c-.477.479-1.12.74-1.81.74zm-21.686 51.574c3.648 0 6.603-2.932 6.603-6.543 0-2.572-1.5-4.79-3.677-5.861v-19.035l16.642-16.488c.686.23 1.404.345 2.122.345a6.587 6.587 0 0 0 4.658-1.911 6.504 6.504 0 0 0 0-9.256 6.61 6.61 0 0 0-4.671-1.917c-1.69 0-3.38.638-4.672 1.917a6.494 6.494 0 0 0-1.58 6.72l-18.355 18.188v21.437c-2.176 1.069-3.677 3.29-3.677 5.86 0 3.612 2.96 6.544 6.607 6.544z"/><path d="M354.621 442.702c-1.423 0-2.578-1.145-2.578-2.555 0-.973.55-1.85 1.439-2.288l1.14-.558 1.14.558a2.541 2.541 0 0 1 1.438 2.288c0 1.407-1.159 2.555-2.579 2.555zm-65.855-52.206c-1.423 0-2.578-1.145-2.578-2.555 0-1.41 1.155-2.556 2.578-2.556.982 0 1.868.546 2.309 1.426l.563 1.127-.563 1.13a2.575 2.575 0 0 1-2.309 1.428zm65.855 56.194c3.648 0 6.604-2.932 6.604-6.543 0-2.572-1.5-4.79-3.677-5.861v-14.91l-34.652-34.338h-28.219a6.608 6.608 0 0 0-5.914-3.644c-3.648 0-6.603 2.932-6.603 6.544 0 3.614 2.959 6.543 6.603 6.543a6.608 6.608 0 0 0 5.914-3.643h25.795l31.22 30.938v12.51c-2.177 1.069-3.677 3.29-3.677 5.86 0 3.615 2.959 6.544 6.606 6.544z"/><path d="M306.593 457.675a2.56 2.56 0 0 1-1.822-.75 2.528 2.528 0 0 1-.757-1.805c0-.683.267-1.325.753-1.806a2.559 2.559 0 0 1 1.813-.744c.286 0 .567.045.837.134l1.204.402.406 1.194a2.53 2.53 0 0 1-.612 2.625 2.574 2.574 0 0 1-1.822.75zm-24.414-41.068c-1.423 0-2.579-1.145-2.579-2.555 0-1.41 1.156-2.556 2.58-2.556.981 0 1.867.546 2.308 1.426l.563 1.127-.563 1.129a2.57 2.57 0 0 1-2.309 1.43zm24.414 45.056c1.69 0 3.38-.638 4.671-1.917a6.494 6.494 0 0 0 1.581-6.72l19.568-19.391-22.688-22.483h-21.632a6.608 6.608 0 0 0-5.914-3.644c-3.647 0-6.603 2.932-6.603 6.544 0 3.615 2.959 6.543 6.603 6.543a6.608 6.608 0 0 0 5.914-3.643h19.205l16.835 16.683-15.428 15.289a6.684 6.684 0 0 0-2.122-.345 6.6 6.6 0 0 0-4.662 1.911 6.504 6.504 0 0 0 0 9.256 6.615 6.615 0 0 0 4.672 1.917z"/><path d="M273.657 457.675a2.56 2.56 0 0 1-1.822-.75 2.545 2.545 0 0 1 0-3.614 2.559 2.559 0 0 1 1.813-.744c.286 0 .566.045.837.134l1.204.402.405 1.193c.316.932.08 1.937-.611 2.626a2.577 2.577 0 0 1-1.826.753zm17.019-16.862c-.287 0-.567-.044-.838-.134l-1.204-.402-.405-1.193a2.532 2.532 0 0 1 .611-2.626 2.574 2.574 0 0 1 1.823-.75 2.56 2.56 0 0 1 1.822.75c.486.482.756 1.123.756 1.806s-.267 1.324-.756 1.806a2.546 2.546 0 0 1-1.81.743zm-17.019 20.85c1.69 0 3.38-.638 4.672-1.917a6.494 6.494 0 0 0 1.58-6.72l8.648-8.569c.686.23 1.404.345 2.122.345a6.587 6.587 0 0 0 4.658-1.912 6.504 6.504 0 0 0 0-9.255 6.615 6.615 0 0 0-4.671-1.918c-1.69 0-3.38.638-4.672 1.918a6.494 6.494 0 0 0-1.58 6.719l-8.648 8.57a6.684 6.684 0 0 0-2.122-.345 6.587 6.587 0 0 0-4.658 1.911 6.504 6.504 0 0 0 0 9.256 6.615 6.615 0 0 0 4.671 1.917zM349.95 392.395a2.571 2.571 0 0 1-1.822-.747 2.52 2.52 0 0 1-.612-2.626l.406-1.193 1.204-.402c.27-.09.55-.134.837-.134.686 0 1.33.265 1.812.744a2.545 2.545 0 0 1 0 3.614 2.595 2.595 0 0 1-1.825.744zm.01-29.917c-.287 0-.567-.045-.837-.134l-1.205-.402-.405-1.194a2.53 2.53 0 0 1 .611-2.625 2.574 2.574 0 0 1 1.823-.75 2.56 2.56 0 0 1 1.822.75 2.545 2.545 0 0 1 0 3.614c-.48.479-1.124.74-1.81.74zm-.01 33.908c1.69 0 3.38-.638 4.671-1.917a6.504 6.504 0 0 0 0-9.256 6.598 6.598 0 0 0-4.658-1.911c-.718 0-1.433.115-2.122.344l-3.467-3.432V369.56l3.464-3.433c.686.23 1.404.344 2.122.344a6.587 6.587 0 0 0 4.658-1.911 6.504 6.504 0 0 0 0-9.256 6.61 6.61 0 0 0-4.671-1.917c-1.69 0-3.38.638-4.672 1.917a6.494 6.494 0 0 0-1.58 6.72l-5.18 5.133v15.458l5.18 5.133a6.494 6.494 0 0 0 1.58 6.72 6.641 6.641 0 0 0 4.675 1.917zM194.608 353.228a2.56 2.56 0 0 1-1.822-.75 2.545 2.545 0 0 1 0-3.614 2.559 2.559 0 0 1 1.813-.743c.286 0 .566.044.837.134l1.204.402.406 1.193a2.53 2.53 0 0 1-.612 2.626 2.558 2.558 0 0 1-1.826.752zm94.123-34.536a2.569 2.569 0 0 1-2.308-1.427l-.564-1.129.564-1.126a2.569 2.569 0 0 1 2.308-1.426c1.423 0 2.579 1.145 2.579 2.555 0 1.41-1.156 2.553-2.58 2.553zm-94.123 38.525c1.69 0 3.381-.639 4.672-1.918a6.494 6.494 0 0 0 1.58-6.719l29.817-29.547h52.14a6.604 6.604 0 0 0 5.914 3.643c3.648 0 6.603-2.932 6.603-6.543 0-3.615-2.959-6.544-6.603-6.544a6.608 6.608 0 0 0-5.914 3.644h-54.568l-31.529 31.244a6.684 6.684 0 0 0-2.121-.345 6.6 6.6 0 0 0-4.662 1.912 6.504 6.504 0 0 0 0 9.255 6.615 6.615 0 0 0 4.671 1.918z"/></g><g fill="#000" fill-rule="nonzero" mask="url(#b)" opacity=".03"><path d="M201.061 47.972a2.56 2.56 0 0 1 1.822.75 2.545 2.545 0 0 1 0 3.614 2.559 2.559 0 0 1-1.812.744c-.287 0-.567-.045-.837-.134l-1.204-.402-.406-1.194a2.53 2.53 0 0 1 .612-2.625 2.563 2.563 0 0 1 1.825-.753zM60.143 236.27l1.14.559a2.541 2.541 0 0 1 1.439 2.287c0 1.41-1.156 2.556-2.579 2.556-1.423 0-2.579-1.145-2.579-2.556 0-.973.55-1.85 1.44-2.287l1.139-.559zM201.061 43.984c-1.69 0-3.38.638-4.671 1.917a6.494 6.494 0 0 0-1.581 6.72l-47.926 47.496h-62.58l-27.09 26.845v106.297c-2.176 1.072-3.676 3.289-3.676 5.86 0 3.615 2.958 6.544 6.603 6.544 3.648 0 6.603-2.932 6.603-6.543 0-2.572-1.5-4.79-3.677-5.861V129.364l23.657-23.444h62.578l49.645-49.197c.686.23 1.404.345 2.122.345a6.6 6.6 0 0 0 4.661-1.911 6.504 6.504 0 0 0 0-9.256 6.596 6.596 0 0 0-4.668-1.917z"/><path d="M134.92-.702c1.422 0 2.578 1.145 2.578 2.555 0 .973-.55 1.85-1.439 2.288l-1.14.558-1.14-.558a2.541 2.541 0 0 1-1.438-2.288c0-1.407 1.159-2.555 2.578-2.555zM41.965 195.534l1.14.559a2.541 2.541 0 0 1 1.438 2.287c0 1.41-1.155 2.556-2.578 2.556-1.423 0-2.58-1.145-2.58-2.556 0-.973.551-1.85 1.44-2.287l1.14-.559zM134.919-4.69c-3.647 0-6.603 2.932-6.603 6.543 0 2.572 1.5 4.79 3.677 5.861v51.641L113.246 77.27H74.422l-35.383 35.063v80.186c-2.176 1.07-3.677 3.29-3.677 5.861 0 3.615 2.96 6.544 6.604 6.544s6.603-2.932 6.603-6.544c0-2.571-1.5-4.789-3.677-5.86v-77.784L76.846 83.07h38.763l22.24-21.252V7.714c2.177-1.069 3.677-3.29 3.677-5.86 0-3.615-2.959-6.544-6.607-6.544zM-25.821 62.66c.689 0 1.336.265 1.822.747.695.69.93 1.694.612 2.626l-.406 1.193-1.204.402c-.27.09-.55.134-.837.134-.686 0-1.33-.265-1.813-.743a2.528 2.528 0 0 1-.756-1.806c0-.683.267-1.324.756-1.806a2.584 2.584 0 0 1 1.826-.746zm49.123 165.877l1.14.558a2.541 2.541 0 0 1 1.439 2.288c0 1.41-1.156 2.555-2.579 2.555-1.423 0-2.579-1.145-2.579-2.555 0-.973.55-1.85 1.44-2.288l1.14-.558zM-25.82 58.669c-1.69 0-3.38.638-4.672 1.918a6.504 6.504 0 0 0 0 9.255 6.6 6.6 0 0 0 4.662 1.912c.718 0 1.433-.115 2.122-.345L-.847 94.065v39.166l21.226 21.035v71.256c-2.177 1.069-3.677 3.29-3.677 5.86 0 3.615 2.959 6.544 6.603 6.544 3.648 0 6.604-2.932 6.604-6.543 0-2.572-1.5-4.79-3.677-5.861v-73.659L5.006 130.828V91.662l-24.578-24.356a6.494 6.494 0 0 0-1.58-6.72 6.615 6.615 0 0 0-4.67-1.917zM175.63 16.967a2.56 2.56 0 0 1 1.822.75 2.545 2.545 0 0 1 0 3.614 2.559 2.559 0 0 1-1.812.744c-.287 0-.567-.045-.837-.134l-1.204-.402-.406-1.194a2.53 2.53 0 0 1 .612-2.625 2.558 2.558 0 0 1 1.825-.753zm-36.783 62.555c.287 0 .567.045.837.134l1.204.402.406 1.194c.316.931.08 1.936-.612 2.625a2.574 2.574 0 0 1-1.822.75 2.56 2.56 0 0 1-1.822-.75 2.528 2.528 0 0 1-.757-1.805c0-.683.267-1.325.757-1.806a2.533 2.533 0 0 1 1.81-.744zm36.783-66.547c-1.69 0-3.38.638-4.671 1.918a6.494 6.494 0 0 0-1.581 6.719L157.61 33.273v26.111l-16.642 16.488a6.684 6.684 0 0 0-2.122-.344 6.587 6.587 0 0 0-4.658 1.911 6.504 6.504 0 0 0 0 9.256 6.615 6.615 0 0 0 4.671 1.917c1.69 0 3.38-.638 4.672-1.917a6.494 6.494 0 0 0 1.58-6.72l18.355-18.189v-26.11l10.054-9.961c.686.23 1.404.345 2.122.345a6.587 6.587 0 0 0 4.659-1.912 6.504 6.504 0 0 0 0-9.255 6.615 6.615 0 0 0-4.672-1.918zM219.821 71.106c1.423 0 2.579 1.145 2.579 2.555 0 .974-.55 1.85-1.44 2.288l-1.139.558-1.14-.558a2.541 2.541 0 0 1-1.439-2.288c0-1.41 1.16-2.555 2.58-2.555zm-21.686 47.583c.286 0 .566.044.837.134l1.204.402.405 1.193c.316.931.08 1.936-.611 2.626a2.574 2.574 0 0 1-1.823.75 2.56 2.56 0 0 1-1.822-.75 2.545 2.545 0 0 1 0-3.615 2.532 2.532 0 0 1 1.81-.74zm21.686-51.574c-3.648 0-6.603 2.932-6.603 6.543 0 2.572 1.5 4.79 3.677 5.861v19.035l-16.642 16.488a6.684 6.684 0 0 0-2.122-.345 6.587 6.587 0 0 0-4.658 1.911 6.504 6.504 0 0 0 0 9.256 6.61 6.61 0 0 0 4.671 1.917c1.69 0 3.38-.638 4.672-1.917a6.494 6.494 0 0 0 1.58-6.72l18.355-18.188V79.519c2.176-1.069 3.677-3.29 3.677-5.86 0-3.612-2.96-6.544-6.607-6.544z"/><path d="M9.03 12.353c1.423 0 2.579 1.146 2.579 2.556 0 .973-.55 1.85-1.44 2.287l-1.139.559-1.14-.559a2.541 2.541 0 0 1-1.439-2.287c0-1.407 1.16-2.556 2.579-2.556zm13.174 110.65l1.14.557a2.541 2.541 0 0 1 1.44 2.288c0 1.41-1.157 2.556-2.58 2.556s-2.579-1.146-2.579-2.556c0-.973.551-1.85 1.44-2.288l1.14-.558zM9.03 8.364c-3.648 0-6.603 2.932-6.603 6.544 0 2.571 1.5 4.789 3.677 5.86v27.965L19.278 61.79v58.197c-2.177 1.069-3.677 3.29-3.677 5.861 0 3.615 2.959 6.544 6.603 6.544 3.648 0 6.604-2.932 6.604-6.544 0-2.571-1.5-4.789-3.677-5.86v-60.6L11.957 46.331V20.77c2.176-1.07 3.676-3.29 3.676-5.861.003-3.612-2.955-6.544-6.603-6.544zM-17.318 31.936c1.423 0 2.578 1.146 2.578 2.556 0 .973-.55 1.85-1.439 2.288l-1.14.558-1.14-.558a2.541 2.541 0 0 1-1.438-2.288c0-1.407 1.159-2.556 2.579-2.556zM-2.216 59.94c.686 0 1.33.265 1.813.744a2.545 2.545 0 0 1 0 3.614 2.574 2.574 0 0 1-1.822.75 2.56 2.56 0 0 1-1.823-.75 2.52 2.52 0 0 1-.611-2.625l.405-1.194 1.204-.402c.268-.092.548-.137.834-.137zm-15.102-31.99c-3.648 0-6.604 2.931-6.604 6.543 0 2.571 1.5 4.789 3.677 5.86v8.382l11.767 11.661a6.494 6.494 0 0 0 1.581 6.72 6.615 6.615 0 0 0 4.672 1.917c1.69 0 3.38-.638 4.671-1.917a6.504 6.504 0 0 0 0-9.256 6.598 6.598 0 0 0-4.658-1.911c-.718 0-1.433.115-2.122.344l-10.051-9.96v-5.98c2.176-1.068 3.676-3.289 3.676-5.86-.003-3.612-2.962-6.544-6.61-6.544zM35.379-.702c1.423 0 2.578 1.145 2.578 2.555 0 .973-.55 1.85-1.439 2.288l-1.14.558-1.14-.558A2.541 2.541 0 0 1 32.8 1.853c0-1.407 1.159-2.555 2.579-2.555zm65.855 52.206c1.423 0 2.578 1.145 2.578 2.555 0 1.41-1.155 2.556-2.578 2.556a2.569 2.569 0 0 1-2.309-1.426l-.563-1.127.563-1.13a2.575 2.575 0 0 1 2.309-1.428zM35.379-4.69c-3.648 0-6.604 2.932-6.604 6.543 0 2.572 1.5 4.79 3.677 5.861v14.91l34.652 34.338h28.219a6.608 6.608 0 0 0 5.914 3.644c3.648 0 6.603-2.932 6.603-6.544 0-3.614-2.959-6.543-6.603-6.543a6.608 6.608 0 0 0-5.914 3.643H69.528l-31.22-30.938V7.714c2.177-1.069 3.677-3.29 3.677-5.86 0-3.615-2.959-6.544-6.606-6.544z"/><path d="M83.407-15.675a2.56 2.56 0 0 1 1.822.75c.487.481.757 1.123.757 1.805 0 .683-.267 1.325-.753 1.806a2.559 2.559 0 0 1-1.813.744c-.286 0-.567-.045-.837-.134l-1.204-.402-.406-1.194a2.53 2.53 0 0 1 .612-2.625 2.574 2.574 0 0 1 1.822-.75zm24.414 41.068c1.423 0 2.579 1.145 2.579 2.555 0 1.41-1.156 2.556-2.58 2.556a2.569 2.569 0 0 1-2.308-1.426l-.563-1.127.563-1.129a2.57 2.57 0 0 1 2.309-1.43zM83.407-19.663c-1.69 0-3.38.638-4.671 1.917a6.494 6.494 0 0 0-1.581 6.72L57.587 8.364l22.688 22.483h21.632a6.608 6.608 0 0 0 5.914 3.644c3.647 0 6.603-2.932 6.603-6.544 0-3.615-2.959-6.543-6.603-6.543a6.608 6.608 0 0 0-5.914 3.643H82.702L65.867 8.365 81.295-6.924c.686.23 1.404.345 2.122.345a6.6 6.6 0 0 0 4.662-1.911 6.504 6.504 0 0 0 0-9.256 6.615 6.615 0 0 0-4.672-1.917z"/><path d="M116.343-15.675a2.56 2.56 0 0 1 1.822.75 2.545 2.545 0 0 1 0 3.614 2.559 2.559 0 0 1-1.813.744c-.286 0-.566-.045-.837-.134l-1.204-.402-.405-1.193a2.532 2.532 0 0 1 .611-2.626 2.577 2.577 0 0 1 1.826-.753zM99.324 1.187c.287 0 .567.044.838.134l1.204.402.405 1.193c.316.931.08 1.936-.611 2.626a2.574 2.574 0 0 1-1.823.75 2.56 2.56 0 0 1-1.822-.75 2.528 2.528 0 0 1-.756-1.806c0-.683.267-1.324.756-1.806a2.546 2.546 0 0 1 1.81-.743zm17.019-20.85c-1.69 0-3.38.638-4.672 1.917a6.494 6.494 0 0 0-1.58 6.72l-8.648 8.569a6.684 6.684 0 0 0-2.122-.345A6.587 6.587 0 0 0 94.663-.89a6.504 6.504 0 0 0 0 9.255 6.615 6.615 0 0 0 4.671 1.918c1.69 0 3.38-.638 4.672-1.918a6.494 6.494 0 0 0 1.58-6.719l8.648-8.57c.686.23 1.404.345 2.122.345a6.587 6.587 0 0 0 4.658-1.911 6.504 6.504 0 0 0 0-9.256 6.615 6.615 0 0 0-4.671-1.917zM40.05 49.605c.689 0 1.336.265 1.822.747.696.689.93 1.694.612 2.626l-.406 1.193-1.204.402c-.27.09-.55.134-.837.134-.686 0-1.33-.265-1.812-.744a2.545 2.545 0 0 1 0-3.614 2.595 2.595 0 0 1 1.825-.744zm-.01 29.917c.287 0 .567.045.837.134l1.205.402.405 1.194a2.53 2.53 0 0 1-.611 2.625 2.574 2.574 0 0 1-1.823.75 2.56 2.56 0 0 1-1.822-.75 2.545 2.545 0 0 1 0-3.614 2.543 2.543 0 0 1 1.81-.74zm.01-33.908c-1.69 0-3.38.638-4.671 1.917a6.504 6.504 0 0 0 0 9.256 6.598 6.598 0 0 0 4.658 1.911c.718 0 1.433-.115 2.122-.344l3.467 3.432V72.44l-3.464 3.433a6.684 6.684 0 0 0-2.122-.344 6.587 6.587 0 0 0-4.658 1.911 6.504 6.504 0 0 0 0 9.256 6.61 6.61 0 0 0 4.671 1.917c1.69 0 3.38-.638 4.672-1.917a6.494 6.494 0 0 0 1.58-6.72l5.18-5.133V59.384l-5.18-5.133a6.494 6.494 0 0 0-1.58-6.72 6.641 6.641 0 0 0-4.675-1.917zM195.392 88.772a2.56 2.56 0 0 1 1.822.75 2.545 2.545 0 0 1 0 3.614 2.559 2.559 0 0 1-1.813.743c-.286 0-.566-.044-.837-.134l-1.204-.402-.406-1.193a2.53 2.53 0 0 1 .612-2.626 2.558 2.558 0 0 1 1.826-.752zm-94.123 34.536c.982 0 1.867.546 2.308 1.427l.564 1.129-.564 1.126a2.569 2.569 0 0 1-2.308 1.426c-1.423 0-2.579-1.145-2.579-2.555 0-1.41 1.156-2.553 2.58-2.553zm94.123-38.525c-1.69 0-3.381.639-4.672 1.918a6.494 6.494 0 0 0-1.58 6.719l-29.817 29.547h-52.14a6.604 6.604 0 0 0-5.914-3.643c-3.648 0-6.603 2.932-6.603 6.543 0 3.615 2.959 6.544 6.603 6.544a6.608 6.608 0 0 0 5.914-3.644h54.568l31.529-31.244c.685.23 1.403.345 2.121.345a6.6 6.6 0 0 0 4.662-1.912 6.504 6.504 0 0 0 0-9.255 6.615 6.615 0 0 0-4.671-1.918z"/></g></g></svg>