<svg xmlns="http://www.w3.org/2000/svg" width="40" height="40" viewBox="0 0 40 40"><g fill="none" fill-rule="evenodd"><path fill="#FFF" d="M20 0C8.962 0 0 8.962 0 20s8.962 20 20 20 20-8.962 20-20S31.038 0 20 0z"/><path fill="#9FA0A1" d="M20 40V0c11.038 0 20 8.962 20 20s-8.962 20-20 20z"/><path fill="#9FA0A1" d="M20 40V0C8.962 0 0 8.962 0 20s8.962 20 20 20z" opacity=".8"/><g fill="#FFFFFE"><path d="M26.523 20.622l-6.321.014a.202.202 0 0 0-.202.202v7.097a.202.202 0 0 0 .404 0v-6.892l6.12-.015a.203.203 0 0 0 0-.406"/><path d="M14.113 14.77l6.144 6.213c.079.08.207.08.286 0a.204.204 0 0 0 0-.287L14.4 14.483a.203.203 0 0 0-.287.287"/><path d="M24.978 15.94l-4.72 4.756a.204.204 0 0 0 0 .287l4.714 4.736c.078.08.206.08.285 0a.203.203 0 0 0 0-.287l-4.57-4.594 4.577-4.61a.203.203 0 0 0 0-.288.201.201 0 0 0-.286 0"/><path d="M11.452 21.051l8.723-.008c.111 0 .202-.091.202-.205v-8.616a.202.202 0 0 0-.405 0v8.414l-8.52.009a.203.203 0 0 0 0 .406"/><path d="M20.587 20.759l-2.57-6.091a.204.204 0 0 0-.265-.108.205.205 0 0 0-.107.267l2.57 6.09c.043.103.161.151.264.109a.203.203 0 0 0 .108-.267"/><path d="M15.612 28.136l4.955-7.181a.205.205 0 0 0-.051-.285.204.204 0 0 0-.282.052l-4.954 7.184a.202.202 0 0 0 .051.282.199.199 0 0 0 .281-.052M18.713 8.332a2.026 2.026 0 0 0 0 2.855l1.42 1.427 1.421-1.426a2.026 2.026 0 0 0 0-2.856 2 2 0 0 0-2.84 0M10.618 12.974A2.017 2.017 0 0 0 12.621 15l2.009.006.006-2.02a2.013 2.013 0 0 0-2.003-2.023 2.014 2.014 0 0 0-2.015 2.011M21.554 31.653a2.026 2.026 0 0 0 0-2.855l-1.42-1.426-1.42 1.426a2.026 2.026 0 0 0 0 2.855 2.004 2.004 0 0 0 2.84 0M8.302 22.253a2.004 2.004 0 0 0 2.84 0l1.42-1.426-1.42-1.43a2.004 2.004 0 0 0-2.84 0 2.026 2.026 0 0 0 0 2.856M30.531 19.398a2.004 2.004 0 0 0-2.84 0l-1.42 1.429 1.42 1.426a2.004 2.004 0 0 0 2.84 0 2.026 2.026 0 0 0 0-2.855M27.477 26.489a1.469 1.469 0 0 0-1.462-1.478l-1.464-.002-.003 1.471a1.465 1.465 0 0 0 2.929.009M15.95 12.935a1.477 1.477 0 0 0 .804 1.92l1.356.554.553-1.364a1.474 1.474 0 0 0-.804-1.917 1.461 1.461 0 0 0-1.91.807"/><path d="M20.31 20.656l-5.894 2.952a.2.2 0 0 0-.09.27c.05.102.17.142.27.094l5.895-2.952a.203.203 0 0 0-.18-.364"/><path d="M12.823 25.787a1.464 1.464 0 0 0 1.855-.923l.469-1.395-1.388-.472a1.464 1.464 0 0 0-1.856.923c-.258.77.153 1.606.92 1.867M26.558 12.628c-1.11 0-2.01.903-2.01 2.017l-.003 2.017 2.01.003c1.108 0 2.009-.9 2.01-2.017a2.015 2.015 0 0 0-2.007-2.02M15.054 31.068a2.018 2.018 0 0 0 1.624-2.344l-.354-1.985-1.977.355a2.018 2.018 0 0 0-1.624 2.343 2.01 2.01 0 0 0 2.331 1.631"/></g><g fill="#9FA0A1" opacity=".2"><path d="M20 40V0c11.038 0 20 8.962 20 20s-8.962 20-20 20z"/></g></g></svg>