<svg xmlns="http://www.w3.org/2000/svg" width="40" height="40" viewBox="0 0 40 40"><g fill="none" fill-rule="evenodd"><path fill="#9FA0A1" d="M20 0C8.962 0 0 8.962 0 20s8.962 20 20 20 20-8.962 20-20S31.038 0 20 0z"/><path fill="#FFF" d="M20 0C8.962 0 0 8.962 0 20s8.962 20 20 20 20-8.962 20-20S31.038 0 20 0z"/><path fill="#9FA0A1" d="M20 40V0c11.038 0 20 8.962 20 20s-8.962 20-20 20z"/><path fill="#9FA0A1" d="M20 40V0C8.962 0 0 8.962 0 20s8.962 20 20 20z" opacity=".8"/><g fill="#FFF" fill-rule="nonzero"><path d="M11.671 11.004h-.002a.855.855 0 0 0-.601.245.831.831 0 0 0-.253.598v12.637c0 .463.385.84.86.842 1.999.005 5.348.414 7.658 2.786V14.887a.796.796 0 0 0-.118-.426c-1.896-2.997-5.54-3.453-7.544-3.457zm17.514 13.48V11.847a.831.831 0 0 0-.253-.599.855.855 0 0 0-.601-.244h-.002c-2.004.004-5.648.46-7.544 3.457a.796.796 0 0 0-.118.426v13.225c2.31-2.373 5.66-2.781 7.658-2.786a.854.854 0 0 0 .86-.842z"/><path d="M31.141 13.918h-.622v10.566c0 1.183-.983 2.147-2.19 2.15-1.696.004-4.492.33-6.472 2.169 3.425-.823 7.035-.288 9.092.172a.87.87 0 0 0 .728-.163.83.83 0 0 0 .323-.658V14.76a.852.852 0 0 0-.859-.843v.001zM9.481 24.484V13.918H8.86a.852.852 0 0 0-.859.843v13.392c0 .258.118.498.323.659.205.16.47.22.728.163 2.057-.46 5.667-.995 9.092-.173-1.98-1.838-4.776-2.164-6.472-2.168-1.207-.003-2.19-.967-2.19-2.15h-.001z"/></g><g fill="#9FA0A1" opacity=".2"><path d="M20 40V0c11.038 0 20 8.962 20 20s-8.962 20-20 20z"/></g></g></svg>