<svg xmlns="http://www.w3.org/2000/svg" width="40" height="40" viewBox="0 0 40 40"><g fill="none" fill-rule="evenodd"><path fill="#9FA0A1" d="M20 0C8.962 0 0 8.962 0 20s8.962 20 20 20 20-8.962 20-20S31.038 0 20 0z"/><path fill="#FFF" d="M20 0C8.962 0 0 8.962 0 20s8.962 20 20 20 20-8.962 20-20S31.038 0 20 0z"/><path fill="#9FA0A1" d="M20 40V0c11.038 0 20 8.962 20 20s-8.962 20-20 20z"/><path fill="#9FA0A1" d="M20 40V0C8.962 0 0 8.962 0 20s8.962 20 20 20z" opacity=".8"/><g fill-rule="nonzero"><path fill="#FFF" d="M31.818 22.316l-1.948-3.938C29.786 12.598 25.126 8 19.436 8c-.681 0-1.377.07-2.086.211-4.118.802-7.401 4.149-8.166 8.325-.529 2.939.11 5.864 1.822 8.226 1.42 1.97 2.17 4.285 2.17 6.536 0 .393.306.702.695.702h9.739a.69.69 0 0 0 .695-.703V29.46a.37.37 0 0 1 .362-.366h3.116a2.089 2.089 0 0 0 1.48-.62c.392-.396.61-.932.607-1.49v-2.11h.376c.611 0 1.168-.308 1.488-.843.318-.52.349-1.167.083-1.715z"/><path fill="#9FA0A1" d="M19.436 12.218c-3.45 0-6.26 2.842-6.26 6.33 0 3.486 2.81 6.327 6.26 6.327 3.45 0 6.26-2.84 6.26-6.328 0-3.487-2.81-6.329-6.26-6.329z"/><path fill="#F2F6FC" d="M22.705 17.632l-3.269 3.305-.208.212a.649.649 0 0 1-.488.21.649.649 0 0 1-.486-.21l-2.087-2.109a.684.684 0 0 1 0-.984.668.668 0 0 1 .974 0l1.6 1.602.695-.702 2.296-2.307a.668.668 0 0 1 .973 0 .684.684 0 0 1 0 .984z"/></g><g fill="#9FA0A1" opacity=".2"><path d="M20 40V0c11.038 0 20 8.962 20 20s-8.962 20-20 20z"/></g></g></svg>