<svg height="40" viewBox="0 0 40 40" width="40" xmlns="http://www.w3.org/2000/svg"><g fill="none" fill-rule="evenodd"><path d="m20 0c-11.038 0-20 8.962-20 20s8.962 20 20 20 20-8.962 20-20-8.962-20-20-20z" fill="#9fa0a1"/><path d="m20 0c-11.038 0-20 8.962-20 20s8.962 20 20 20 20-8.962 20-20-8.962-20-20-20z" fill="#fff"/><path d="m20 40v-40c11.038 0 20 8.962 20 20s-8.962 20-20 20z" fill="#9fa0a1"/><path d="m20 40v-40c-11.038 0-20 8.962-20 20s8.962 20 20 20z" fill="#9fa0a1" opacity=".8"/><g fill="#fff" fill-rule="nonzero"><path d="m28.367 22.537a4.167 4.167 0 1 0 -5.911 5.875 4.167 4.167 0 0 0 5.911-5.875zm-1.18 4.714a2.502 2.502 0 0 1 -3.535 0 2.503 2.503 0 0 1 0-3.536 2.503 2.503 0 0 1 3.536 0c.975.975.975 2.56 0 3.536z"/><path d="m12.19 18.09-.028.027 10.312 10.313a4.157 4.157 0 0 1 -1.174-3.531l-5.641-5.64c-1.051.59-2.527-.378-3.469-1.169z"/><path d="m17.17 11.34a4.179 4.179 0 0 0 -5.892 0 4.179 4.179 0 0 0 0 5.893s3.119 3.389 4.715 1.768c.814-.815-.802-2.613-1.613-3.411a1.659 1.659 0 0 1 -1.628-.419 1.667 1.667 0 0 1 2.357-2.357 1.66 1.66 0 0 1 .418 1.629c.799.81 2.597 2.427 3.412 1.612 1.62-1.596-1.768-4.714-1.768-4.714zm10.775 10.834-5.123-11.666a.833.833 0 1 0 -1.534.65l4.49 10.175c.77.067 1.523.348 2.167.84z"/></g><path d="m20 40v-40c11.038 0 20 8.962 20 20s-8.962 20-20 20z" fill="#9fa0a1" opacity=".2"/></g></svg>