<svg xmlns="http://www.w3.org/2000/svg" width="1272" height="10" viewBox="0 0 1272 10"><g fill="#FFF" fill-rule="evenodd"><path d="M1271 8a1 1 0 1 1 .001 1.999A1 1 0 0 1 1271 8M1261 8a1 1 0 1 1 .001 1.999A1 1 0 0 1 1261 8M1251 8a1 1 0 1 1 .001 1.999A1 1 0 0 1 1251 8M1241 8a1 1 0 1 1 .001 1.999A1 1 0 0 1 1241 8M1231 8a1 1 0 1 1 .001 1.999A1 1 0 0 1 1231 8M1221 8a1 1 0 1 1 .001 1.999A1 1 0 0 1 1221 8M1211 8a1 1 0 1 1 .001 1.999A1 1 0 0 1 1211 8M1201 8a1 1 0 1 1 .001 1.999A1 1 0 0 1 1201 8M1191 8a1 1 0 1 1 .001 1.999A1 1 0 0 1 1191 8M1181 8a1 1 0 1 1 .001 1.999A1 1 0 0 1 1181 8M1171 8a1 1 0 1 1 .001 1.999A1 1 0 0 1 1171 8M1161 8a1 1 0 1 1 .001 1.999A1 1 0 0 1 1161 8M1151 8a1 1 0 1 1 .001 1.999A1 1 0 0 1 1151 8M1141 8a1 1 0 1 1 .001 1.999A1 1 0 0 1 1141 8M1131 8a1 1 0 1 1 .001 1.999A1 1 0 0 1 1131 8M1121 8a1 1 0 1 1 .001 1.999A1 1 0 0 1 1121 8M1111 8a1 1 0 1 1 .001 1.999A1 1 0 0 1 1111 8M1101 8a1 1 0 1 1 .001 1.999A1 1 0 0 1 1101 8M1091 8a1 1 0 1 1 .001 1.999A1 1 0 0 1 1091 8M1081 8a1 1 0 1 1 .001 1.999A1 1 0 0 1 1081 8M1071 8a1 1 0 1 1 .001 1.999A1 1 0 0 1 1071 8M1061 8a1 1 0 1 1 .001 1.999A1 1 0 0 1 1061 8M1051 8a1 1 0 1 1 .001 1.999A1 1 0 0 1 1051 8M1041 8a1 1 0 1 1 .001 1.999A1 1 0 0 1 1041 8M1031 8a1 1 0 1 1 .001 1.999A1 1 0 0 1 1031 8M1021 8a1 1 0 1 1 .001 1.999A1 1 0 0 1 1021 8M1011 8a1 1 0 1 1 .001 1.999A1 1 0 0 1 1011 8M1001 8a1 1 0 1 1 .001 1.999A1 1 0 0 1 1001 8M991 8a1 1 0 1 1 .001 1.999A1 1 0 0 1 991 8M981 8a1 1 0 1 1 .001 1.999A1 1 0 0 1 981 8M971 8a1 1 0 1 1 .001 1.999A1 1 0 0 1 971 8M961 8a1 1 0 1 1 .001 1.999A1 1 0 0 1 961 8M951 8a1 1 0 1 1 .001 1.999A1 1 0 0 1 951 8M941 8a1 1 0 1 1 .001 1.999A1 1 0 0 1 941 8M931 8a1 1 0 1 1 .001 1.999A1 1 0 0 1 931 8M921 8a1 1 0 1 1 .001 1.999A1 1 0 0 1 921 8M911 8a1 1 0 1 1 .001 1.999A1 1 0 0 1 911 8M901 8a1 1 0 1 1 .001 1.999A1 1 0 0 1 901 8M891 8a1 1 0 1 1 .001 1.999A1 1 0 0 1 891 8M881 8a1 1 0 1 1 .001 1.999A1 1 0 0 1 881 8M871 8a1 1 0 1 1 .001 1.999A1 1 0 0 1 871 8M861 8a1 1 0 1 1 .001 1.999A1 1 0 0 1 861 8M851 8a1 1 0 1 1 .001 1.999A1 1 0 0 1 851 8M841 8a1 1 0 1 1 .001 1.999A1 1 0 0 1 841 8M831 8a1 1 0 1 1 .001 1.999A1 1 0 0 1 831 8M821 8a1 1 0 1 1 .001 1.999A1 1 0 0 1 821 8M811 8a1 1 0 1 1 .001 1.999A1 1 0 0 1 811 8M801 8a1 1 0 1 1 .001 1.999A1 1 0 0 1 801 8M791 8a1 1 0 1 1 .001 1.999A1 1 0 0 1 791 8M781 8a1 1 0 1 1 .001 1.999A1 1 0 0 1 781 8M771 8a1 1 0 1 1 .001 1.999A1 1 0 0 1 771 8M761 8a1 1 0 1 1 .001 1.999A1 1 0 0 1 761 8M751 8a1 1 0 1 1 .001 1.999A1 1 0 0 1 751 8M741 8a1 1 0 1 1 .001 1.999A1 1 0 0 1 741 8M731 8a1 1 0 1 1 .001 1.999A1 1 0 0 1 731 8M721 8a1 1 0 1 1 .001 1.999A1 1 0 0 1 721 8M711 8a1 1 0 1 1 .001 1.999A1 1 0 0 1 711 8M701 8a1 1 0 1 1 .001 1.999A1 1 0 0 1 701 8M691 8a1 1 0 1 1 .001 1.999A1 1 0 0 1 691 8M681 8a1 1 0 1 1 .001 1.999A1 1 0 0 1 681 8M671 8a1 1 0 1 1 .001 1.999A1 1 0 0 1 671 8M661 8a1 1 0 1 1 .001 1.999A1 1 0 0 1 661 8M651 8a1 1 0 1 1 .001 1.999A1 1 0 0 1 651 8M641 8a1 1 0 1 1 .001 1.999A1 1 0 0 1 641 8M631 8a1 1 0 1 1 .001 1.999A1 1 0 0 1 631 8M621 8a1 1 0 1 1 .001 1.999A1 1 0 0 1 621 8M611 8a1 1 0 1 1 .001 1.999A1 1 0 0 1 611 8M601 8a1 1 0 1 1 .001 1.999A1 1 0 0 1 601 8M591 8a1 1 0 1 1 .001 1.999A1 1 0 0 1 591 8M581 8a1 1 0 1 1 .001 1.999A1 1 0 0 1 581 8M571 8a1 1 0 1 1 .001 1.999A1 1 0 0 1 571 8M561 8a1 1 0 1 1 .001 1.999A1 1 0 0 1 561 8M551 8a1 1 0 1 1 .001 1.999A1 1 0 0 1 551 8M541 8a1 1 0 1 1 .001 1.999A1 1 0 0 1 541 8M531 8a1 1 0 1 1 .001 1.999A1 1 0 0 1 531 8M521 8a1 1 0 1 1 .001 1.999A1 1 0 0 1 521 8M511 8a1 1 0 1 1 .001 1.999A1 1 0 0 1 511 8M501 8a1 1 0 1 1 .001 1.999A1 1 0 0 1 501 8M491 8a1 1 0 1 1 .001 1.999A1 1 0 0 1 491 8M481 8a1 1 0 1 1 .001 1.999A1 1 0 0 1 481 8M471 8a1 1 0 1 1 .001 1.999A1 1 0 0 1 471 8M461 8a1 1 0 1 1 .001 1.999A1 1 0 0 1 461 8M451 8a1 1 0 1 1 .001 1.999A1 1 0 0 1 451 8M441 8a1 1 0 1 1 .001 1.999A1 1 0 0 1 441 8M431 8a1 1 0 1 1 .001 1.999A1 1 0 0 1 431 8M421 8a1 1 0 1 1 .001 1.999A1 1 0 0 1 421 8M411 8a1 1 0 1 1 .001 1.999A1 1 0 0 1 411 8M401 8a1 1 0 1 1 .001 1.999A1 1 0 0 1 401 8M391 8a1 1 0 1 1 .001 1.999A1 1 0 0 1 391 8M381 8a1 1 0 1 1 .001 1.999A1 1 0 0 1 381 8M371 8a1 1 0 1 1 .001 1.999A1 1 0 0 1 371 8M361 8a1 1 0 1 1 .001 1.999A1 1 0 0 1 361 8M351 8a1 1 0 1 1 .001 1.999A1 1 0 0 1 351 8M341 8a1 1 0 1 1 .001 1.999A1 1 0 0 1 341 8M331 8a1 1 0 1 1 .001 1.999A1 1 0 0 1 331 8M321 8a1 1 0 1 1 .001 1.999A1 1 0 0 1 321 8M311 8a1 1 0 1 1 .001 1.999A1 1 0 0 1 311 8M301 8a1 1 0 1 1 .001 1.999A1 1 0 0 1 301 8M291 8a1 1 0 1 1 .001 1.999A1 1 0 0 1 291 8M281 8a1 1 0 1 1 .001 1.999A1 1 0 0 1 281 8M271 8a1 1 0 1 1 .001 1.999A1 1 0 0 1 271 8M261 8a1 1 0 1 1 .001 1.999A1 1 0 0 1 261 8M251 8a1 1 0 1 1 .001 1.999A1 1 0 0 1 251 8M241 8a1 1 0 1 1 .001 1.999A1 1 0 0 1 241 8M231 8a1 1 0 1 1 .001 1.999A1 1 0 0 1 231 8M221 8a1 1 0 1 1 .001 1.999A1 1 0 0 1 221 8M211 8a1 1 0 1 1 .001 1.999A1 1 0 0 1 211 8M201 8a1 1 0 1 1 .001 1.999A1 1 0 0 1 201 8M191 8a1 1 0 1 1 .001 1.999A1 1 0 0 1 191 8M181 8a1 1 0 1 1 .001 1.999A1 1 0 0 1 181 8M171 8a1 1 0 1 1 .001 1.999A1 1 0 0 1 171 8M161 8a1 1 0 1 1 .001 1.999A1 1 0 0 1 161 8M151 8a1 1 0 1 1 .001 1.999A1 1 0 0 1 151 8M141 8a1 1 0 1 1 .001 1.999A1 1 0 0 1 141 8M131 8a1 1 0 1 1 .001 1.999A1 1 0 0 1 131 8M121 8a1 1 0 1 1 .001 1.999A1 1 0 0 1 121 8M111 8a1 1 0 1 1 .001 1.999A1 1 0 0 1 111 8M101 8a1 1 0 1 1 .001 1.999A1 1 0 0 1 101 8M91 8a1 1 0 1 1 .001 1.999A1 1 0 0 1 91 8M81 8a1 1 0 1 1 .001 1.999A1 1 0 0 1 81 8M71 8a1 1 0 1 1 .001 1.999A1 1 0 0 1 71 8M61 8a1 1 0 1 1 .001 1.999A1 1 0 0 1 61 8M51 8a1 1 0 1 1 .001 1.999A1 1 0 0 1 51 8M41 8a1 1 0 1 1 .001 1.999A1 1 0 0 1 41 8M31 8a1 1 0 1 1 .001 1.999A1 1 0 0 1 31 8M21 8a1 1 0 1 1 .001 1.999A1 1 0 0 1 21 8M11 8a1 1 0 1 1 .001 1.999A1 1 0 0 1 11 8M1 8a1 1 0 1 1 .001 1.999A1 1 0 0 1 1 8"/><g><path d="M1271 0a1 1 0 1 1 .001 1.999A1 1 0 0 1 1271 0M1261 0a1 1 0 1 1 .001 1.999A1 1 0 0 1 1261 0M1251 0a1 1 0 1 1 .001 1.999A1 1 0 0 1 1251 0M1241 0a1 1 0 1 1 .001 1.999A1 1 0 0 1 1241 0M1231 0a1 1 0 1 1 .001 1.999A1 1 0 0 1 1231 0M1221 0a1 1 0 1 1 .001 1.999A1 1 0 0 1 1221 0M1211 0a1 1 0 1 1 .001 1.999A1 1 0 0 1 1211 0M1201 0a1 1 0 1 1 .001 1.999A1 1 0 0 1 1201 0M1191 0a1 1 0 1 1 .001 1.999A1 1 0 0 1 1191 0M1181 0a1 1 0 1 1 .001 1.999A1 1 0 0 1 1181 0M1171 0a1 1 0 1 1 .001 1.999A1 1 0 0 1 1171 0M1161 0a1 1 0 1 1 .001 1.999A1 1 0 0 1 1161 0M1151 0a1 1 0 1 1 .001 1.999A1 1 0 0 1 1151 0M1141 0a1 1 0 1 1 .001 1.999A1 1 0 0 1 1141 0M1131 0a1 1 0 1 1 .001 1.999A1 1 0 0 1 1131 0M1121 0a1 1 0 1 1 .001 1.999A1 1 0 0 1 1121 0M1111 0a1 1 0 1 1 .001 1.999A1 1 0 0 1 1111 0M1101 0a1 1 0 1 1 .001 1.999A1 1 0 0 1 1101 0M1091 0a1 1 0 1 1 .001 1.999A1 1 0 0 1 1091 0M1081 0a1 1 0 1 1 .001 1.999A1 1 0 0 1 1081 0M1071 0a1 1 0 1 1 .001 1.999A1 1 0 0 1 1071 0M1061 0a1 1 0 1 1 .001 1.999A1 1 0 0 1 1061 0M1051 0a1 1 0 1 1 .001 1.999A1 1 0 0 1 1051 0M1041 0a1 1 0 1 1 .001 1.999A1 1 0 0 1 1041 0M1031 0a1 1 0 1 1 .001 1.999A1 1 0 0 1 1031 0M1021 0a1 1 0 1 1 .001 1.999A1 1 0 0 1 1021 0M1011 0a1 1 0 1 1 .001 1.999A1 1 0 0 1 1011 0M1001 0a1 1 0 1 1 .001 1.999A1 1 0 0 1 1001 0M991 0a1 1 0 1 1 .001 1.999A1 1 0 0 1 991 0M981 0a1 1 0 1 1 .001 1.999A1 1 0 0 1 981 0M971 0a1 1 0 1 1 .001 1.999A1 1 0 0 1 971 0M961 0a1 1 0 1 1 .001 1.999A1 1 0 0 1 961 0M951 0a1 1 0 1 1 .001 1.999A1 1 0 0 1 951 0M941 0a1 1 0 1 1 .001 1.999A1 1 0 0 1 941 0M931 0a1 1 0 1 1 .001 1.999A1 1 0 0 1 931 0M921 0a1 1 0 1 1 .001 1.999A1 1 0 0 1 921 0M911 0a1 1 0 1 1 .001 1.999A1 1 0 0 1 911 0M901 0a1 1 0 1 1 .001 1.999A1 1 0 0 1 901 0M891 0a1 1 0 1 1 .001 1.999A1 1 0 0 1 891 0M881 0a1 1 0 1 1 .001 1.999A1 1 0 0 1 881 0M871 0a1 1 0 1 1 .001 1.999A1 1 0 0 1 871 0M861 0a1 1 0 1 1 .001 1.999A1 1 0 0 1 861 0M851 0a1 1 0 1 1 .001 1.999A1 1 0 0 1 851 0M841 0a1 1 0 1 1 .001 1.999A1 1 0 0 1 841 0M831 0a1 1 0 1 1 .001 1.999A1 1 0 0 1 831 0M821 0a1 1 0 1 1 .001 1.999A1 1 0 0 1 821 0M811 0a1 1 0 1 1 .001 1.999A1 1 0 0 1 811 0M801 0a1 1 0 1 1 .001 1.999A1 1 0 0 1 801 0M791 0a1 1 0 1 1 .001 1.999A1 1 0 0 1 791 0M781 0a1 1 0 1 1 .001 1.999A1 1 0 0 1 781 0M771 0a1 1 0 1 1 .001 1.999A1 1 0 0 1 771 0M761 0a1 1 0 1 1 .001 1.999A1 1 0 0 1 761 0M751 0a1 1 0 1 1 .001 1.999A1 1 0 0 1 751 0M741 0a1 1 0 1 1 .001 1.999A1 1 0 0 1 741 0M731 0a1 1 0 1 1 .001 1.999A1 1 0 0 1 731 0M721 0a1 1 0 1 1 .001 1.999A1 1 0 0 1 721 0M711 0a1 1 0 1 1 .001 1.999A1 1 0 0 1 711 0M701 0a1 1 0 1 1 .001 1.999A1 1 0 0 1 701 0M691 0a1 1 0 1 1 .001 1.999A1 1 0 0 1 691 0M681 0a1 1 0 1 1 .001 1.999A1 1 0 0 1 681 0M671 0a1 1 0 1 1 .001 1.999A1 1 0 0 1 671 0M661 0a1 1 0 1 1 .001 1.999A1 1 0 0 1 661 0M651 0a1 1 0 1 1 .001 1.999A1 1 0 0 1 651 0M641 0a1 1 0 1 1 .001 1.999A1 1 0 0 1 641 0M631 0a1 1 0 1 1 .001 1.999A1 1 0 0 1 631 0M621 0a1 1 0 1 1 .001 1.999A1 1 0 0 1 621 0M611 0a1 1 0 1 1 .001 1.999A1 1 0 0 1 611 0M601 0a1 1 0 1 1 .001 1.999A1 1 0 0 1 601 0M591 0a1 1 0 1 1 .001 1.999A1 1 0 0 1 591 0M581 0a1 1 0 1 1 .001 1.999A1 1 0 0 1 581 0M571 0a1 1 0 1 1 .001 1.999A1 1 0 0 1 571 0M561 0a1 1 0 1 1 .001 1.999A1 1 0 0 1 561 0M551 0a1 1 0 1 1 .001 1.999A1 1 0 0 1 551 0M541 0a1 1 0 1 1 .001 1.999A1 1 0 0 1 541 0M531 0a1 1 0 1 1 .001 1.999A1 1 0 0 1 531 0M521 0a1 1 0 1 1 .001 1.999A1 1 0 0 1 521 0M511 0a1 1 0 1 1 .001 1.999A1 1 0 0 1 511 0M501 0a1 1 0 1 1 .001 1.999A1 1 0 0 1 501 0M491 0a1 1 0 1 1 .001 1.999A1 1 0 0 1 491 0M481 0a1 1 0 1 1 .001 1.999A1 1 0 0 1 481 0M471 0a1 1 0 1 1 .001 1.999A1 1 0 0 1 471 0M461 0a1 1 0 1 1 .001 1.999A1 1 0 0 1 461 0M451 0a1 1 0 1 1 .001 1.999A1 1 0 0 1 451 0M441 0a1 1 0 1 1 .001 1.999A1 1 0 0 1 441 0M431 0a1 1 0 1 1 .001 1.999A1 1 0 0 1 431 0M421 0a1 1 0 1 1 .001 1.999A1 1 0 0 1 421 0M411 0a1 1 0 1 1 .001 1.999A1 1 0 0 1 411 0M401 0a1 1 0 1 1 .001 1.999A1 1 0 0 1 401 0M391 0a1 1 0 1 1 .001 1.999A1 1 0 0 1 391 0M381 0a1 1 0 1 1 .001 1.999A1 1 0 0 1 381 0M371 0a1 1 0 1 1 .001 1.999A1 1 0 0 1 371 0M361 0a1 1 0 1 1 .001 1.999A1 1 0 0 1 361 0M351 0a1 1 0 1 1 .001 1.999A1 1 0 0 1 351 0M341 0a1 1 0 1 1 .001 1.999A1 1 0 0 1 341 0M331 0a1 1 0 1 1 .001 1.999A1 1 0 0 1 331 0M321 0a1 1 0 1 1 .001 1.999A1 1 0 0 1 321 0M311 0a1 1 0 1 1 .001 1.999A1 1 0 0 1 311 0M301 0a1 1 0 1 1 .001 1.999A1 1 0 0 1 301 0M291 0a1 1 0 1 1 .001 1.999A1 1 0 0 1 291 0M281 0a1 1 0 1 1 .001 1.999A1 1 0 0 1 281 0M271 0a1 1 0 1 1 .001 1.999A1 1 0 0 1 271 0M261 0a1 1 0 1 1 .001 1.999A1 1 0 0 1 261 0M251 0a1 1 0 1 1 .001 1.999A1 1 0 0 1 251 0M241 0a1 1 0 1 1 .001 1.999A1 1 0 0 1 241 0M231 0a1 1 0 1 1 .001 1.999A1 1 0 0 1 231 0M221 0a1 1 0 1 1 .001 1.999A1 1 0 0 1 221 0M211 0a1 1 0 1 1 .001 1.999A1 1 0 0 1 211 0M201 0a1 1 0 1 1 .001 1.999A1 1 0 0 1 201 0M191 0a1 1 0 1 1 .001 1.999A1 1 0 0 1 191 0M181 0a1 1 0 1 1 .001 1.999A1 1 0 0 1 181 0M171 0a1 1 0 1 1 .001 1.999A1 1 0 0 1 171 0M161 0a1 1 0 1 1 .001 1.999A1 1 0 0 1 161 0M151 0a1 1 0 1 1 .001 1.999A1 1 0 0 1 151 0M141 0a1 1 0 1 1 .001 1.999A1 1 0 0 1 141 0M131 0a1 1 0 1 1 .001 1.999A1 1 0 0 1 131 0M121 0a1 1 0 1 1 .001 1.999A1 1 0 0 1 121 0M111 0a1 1 0 1 1 .001 1.999A1 1 0 0 1 111 0M101 0a1 1 0 1 1 .001 1.999A1 1 0 0 1 101 0M91 0a1 1 0 1 1 .001 1.999A1 1 0 0 1 91 0M81 0a1 1 0 1 1 .001 1.999A1 1 0 0 1 81 0M71 0a1 1 0 1 1 .001 1.999A1 1 0 0 1 71 0M61 0a1 1 0 1 1 .001 1.999A1 1 0 0 1 61 0M51 0a1 1 0 1 1 .001 1.999A1 1 0 0 1 51 0M41 0a1 1 0 1 1 .001 1.999A1 1 0 0 1 41 0M31 0a1 1 0 1 1 .001 1.999A1 1 0 0 1 31 0M21 0a1 1 0 1 1 .001 1.999A1 1 0 0 1 21 0M11 0a1 1 0 1 1 .001 1.999A1 1 0 0 1 11 0M1 0a1 1 0 1 1 .001 1.999A1 1 0 0 1 1 0"/></g></g></svg>