<svg xmlns="http://www.w3.org/2000/svg" width="25" height="23" viewBox="0 0 25 23"><g fill="#3C4674" fill-rule="evenodd"><path d="M10.02 21.765l-6.966-3.247v-.462a.068.068 0 0 0-.02-.049.072.072 0 0 0-.048-.02l-1.004.002a.342.342 0 0 1-.242-.582c.064-.064.15-.1.24-.1l1.006-.002c.037 0 .067-.03.067-.068v-3.901a.067.067 0 0 0-.02-.048.067.067 0 0 0-.048-.02l-1.004.001a.342.342 0 0 1 0-.681l1.004-.003c.038 0 .068-.03.068-.068V8.617a.068.068 0 0 0-.068-.069l-1.004.002a.342.342 0 0 1 0-.682l1.004-.002c.038 0 .068-.03.068-.068V4.039a.068.068 0 0 0-.068-.068H.072a.068.068 0 0 0-.068.068v17.788c0 .038.03.068.068.068H9.99a.068.068 0 0 0 .029-.13zM24.928 3.766H21.81a.068.068 0 0 0-.068.069v3.962c0 .038.03.069.068.069l1.005.002a.34.34 0 1 1-.002.682l-1.003-.002a.067.067 0 0 0-.068.068v3.902c0 .037.03.067.068.067l1.005.002a.34.34 0 1 1-.002.682l-1.003-.002a.068.068 0 0 0-.049.02.067.067 0 0 0-.02.049v3.9c0 .038.031.07.069.07h1.005a.342.342 0 0 1-.002.683l-1.003-.002a.067.067 0 0 0-.068.069v.462l-7.405 3.452a.068.068 0 0 0-.037.076.067.067 0 0 0 .066.054h10.562c.038 0 .068-.03.068-.068V3.834a.068.068 0 0 0-.068-.068z"/><path d="M11.88 3.754L4.107.13a.069.069 0 0 0-.066.004.069.069 0 0 0-.031.058v17.675c0 .026.015.05.04.061l7.774 3.626c.01.004.02.006.03.006a.068.068 0 0 0 .068-.068V3.816a.07.07 0 0 0-.04-.062zm-1.083 8.407a.342.342 0 0 1-.453.166L5.297 9.973a.34.34 0 0 1-.165-.453.343.343 0 0 1 .453-.165l5.047 2.354a.34.34 0 0 1 .165.452zM5.132 14.24a.343.343 0 0 1 .454-.165l5.046 2.354a.341.341 0 1 1-.288.617l-5.047-2.353a.338.338 0 0 1-.165-.453zm5.665-6.798a.342.342 0 0 1-.453.165L5.297 5.253a.34.34 0 1 1 .288-.617l5.047 2.353a.34.34 0 0 1 .165.453zM20.786 17.866V.19a.069.069 0 0 0-.03-.058.07.07 0 0 0-.067-.004l-7.775 3.625a.069.069 0 0 0-.039.062v17.675a.069.069 0 0 0 .097.062l7.775-3.626a.068.068 0 0 0 .04-.061zm-6.623-6.158l5.047-2.353a.343.343 0 0 1 .465.426.339.339 0 0 1-.177.192l-5.047 2.354a.339.339 0 0 1-.453-.166.338.338 0 0 1 .165-.453zm0 4.72l5.047-2.353a.34.34 0 1 1 .288.618l-5.047 2.353a.339.339 0 0 1-.453-.165.339.339 0 0 1 .165-.452zm5.512-11.367a.338.338 0 0 1-.177.192l-5.047 2.354a.339.339 0 0 1-.453-.165.339.339 0 0 1 .165-.453l5.047-2.354a.34.34 0 0 1 .465.426z"/></g></svg>