<svg xmlns="http://www.w3.org/2000/svg" width="21" height="25" viewBox="0 0 21 25"><g fill="#3C4674" fill-rule="evenodd"><path d="M12.525 7.58c.001 1.323 1.198 2.526 2.512 2.526 1.315 0 2.512-1.203 2.512-2.525 0-1.323-1.197-2.528-2.512-2.528-1.316 0-2.514 1.204-2.512 2.528M15.037 11.107c1.06 0 1.848.719 2.197 1.722 1.149 3.028 2.294 6.058 3.45 9.084.094.25.141.524.141.808A2.274 2.274 0 0 1 18.558 25h-7.04a2.274 2.274 0 0 1-2.268-2.28c0-.283.048-.558.142-.807 1.156-3.025 2.3-6.056 3.45-9.084.349-1.003 1.137-1.722 2.197-1.722M2.794 2.528c0 1.322 1.197 2.525 2.511 2.525 1.316 0 2.512-1.203 2.512-2.525C7.817 1.205 6.621 0 5.305 0S2.791 1.204 2.794 2.528M6.252 19.947c1.06 0 1.975-.718 2.197-1.721l1.855-9.475c.024-.136.035-.275.035-.416a2.274 2.274 0 0 0-2.267-2.28h-5.53a2.274 2.274 0 0 0-2.267 2.28c0 .141.012.28.036.416l1.854 9.475c.209 1.003 1.138 1.722 2.198 1.722"/></g></svg>