<svg height="25" viewBox="0 0 23 25" width="23" xmlns="http://www.w3.org/2000/svg"><path d="m6.075 2.725c0-1.5 1.2-2.725 2.7-2.725s2.725 1.225 2.725 2.725-1.2 2.725-2.7 2.725a2.731 2.731 0 0 1 -2.725-2.725zm15.125 17.4c-.3.05-.825.225-1.25.375l-1.975-4.9c-.25-.875-.9-1.45-1.625-1.45h-5.925v-1.075h4.325c.9 0 1.625-.725 1.625-1.625s-.725-1.625-1.625-1.625h-4.325v-1.625c0-.9-.725-1.625-1.625-1.625-.425 0-.85.175-1.15.475s-.475.725-.475 1.15v7.6c0 .825.775 1.625 1.625 1.625h6.175l2.575 5.725c.275.6.625 1.4 1.375 1.4.15 0 .3-.05.45-.125l2.3-1.15c.525-.25 1.25-.625 1.25-1.5 0-1-.825-1.8-1.725-1.65zm-12.425-1.65c-1.45 0-2.7-1.275-2.7-2.725v-5.8c-3.425.75-5.975 3.8-5.975 7.425-.025 4.2 3.4 7.625 7.6 7.625 3.325 0 6.15-2.15 7.175-5.125l-.625-1.4z" fill="#3c4674" fill-rule="evenodd"/></svg>