<svg xmlns="http://www.w3.org/2000/svg" width="25" height="25" viewBox="0 0 25 25"><path fill="#3C4674" fill-rule="evenodd" d="M21.997 10.64c.39-.278.75-.718.507-.964-.07-.072-.71-.708-1.58-1.573L24.9 4.127a.34.34 0 1 0-.48-.48l-3.978 3.977c-.48-.48-1.007-1.003-1.535-1.528l-1.525-1.533L21.359.586a.339.339 0 1 0-.48-.48L16.901 4.08a610.452 610.452 0 0 0-1.575-1.583c-.246-.242-.686.118-.963.507a.37.37 0 0 0-.061.21l5.76 5.761a.18.18 0 1 1-.254.255l-5.405-5.405c.04.227.038.458-.158.654a31.103 31.103 0 0 1-1.464 1.366c-1.594 1.387-1.545 1.895-1.502 2.638.027.461.149 1.164-.368 1.68-.94.94-1.265.389-1.64.764l-.285.284a.29.29 0 0 0 0 .411l3.032 3.033a.18.18 0 1 1-.254.255L9.09 12.236l-.7.7a.278.278 0 0 0 0 .392l1.465 1.465a.18.18 0 0 1-.255.255l-.781-.78-.182.181-.565-.564a.25.25 0 0 0-.375.015l-.742.88a.31.31 0 0 0 .017.409l1.244 1.243a.18.18 0 1 1-.255.256l-.78-.781-.183.181-.402-.402a.239.239 0 0 0-.366.023l-.668.857a.324.324 0 0 0 .026.415l.26.259-.003.003.78.78a.18.18 0 1 1-.256.255l-.78-.78-.18.18-.203-.204a.243.243 0 0 0-.37.02l-.196.244a.317.317 0 0 0 .023.41l.918.92c.07.07.07.184 0 .254a.182.182 0 0 1-.255 0l-.508-.507L0 23.635l1.36 1.36 4.819-4.82.077.076a.29.29 0 0 0 .412 0l.049-.05.138.138a.316.316 0 0 0 .411.023l.244-.196a.244.244 0 0 0 .02-.37l-.204-.203.438-.437.26.259c.106.108.293.12.413.026l.857-.668a.238.238 0 0 0 .023-.365l-.403-.403.438-.437.463.463c.107.108.29.116.408.017l.88-.742a.25.25 0 0 0 .015-.375l-.564-.564.437-.438.685.684a.277.277 0 0 0 .391 0l.955-.954.358.357a.29.29 0 0 0 .411 0l.284-.284c.376-.376-.176-.701.764-1.641.516-.517 1.22-.395 1.68-.368.744.043 1.251.092 2.638-1.502.284-.327.81-.908 1.367-1.463.462-.463 1.114.138 1.473-.118zm-7.6-.39a.48.48 0 0 1-.68 0l-1.59-1.59a.48.48 0 1 1 .68-.68l1.59 1.59a.48.48 0 0 1 0 .68z"/></svg>