<svg height="191" viewBox="0 0 292 191" width="292" xmlns="http://www.w3.org/2000/svg"><g fill="none" fill-rule="evenodd"><path d="m0 0h146.075v190.33h-146.075z" fill="#4db04f"/><path d="m145.878 0h146.075v190.33h-146.075z" fill="#f2f2f2"/><text fill="#fff" font-family="LucidaGrande, Lucida Grande" font-size="13.852"><tspan x="14.607" y="25.994">First look accuracy</tspan></text><path d="m99.375 66.087h.001c0 1.209.995 2.2 2.21 2.2v.001c-1.215 0-2.21.99-2.21 2.2h-.001c0-1.21-.996-2.2-2.21-2.2v-.002c1.214 0 2.21-.99 2.21-2.2zm4.829 21.911h.001c.872 0 1.584.71 1.584 1.577v.002c0 .867-.712 1.576-1.584 1.576h-.001c-.872 0-1.584-.71-1.584-1.576v-.002c0-.867.712-1.577 1.584-1.577zm-54.558-22.958h.001c0 1.81 1.489 3.291 3.307 3.291-1.818 0-3.307 1.482-3.307 3.292 0-1.81-1.489-3.291-3.308-3.291v-.001c1.819 0 3.307-1.482 3.307-3.292z" stroke="#fff" stroke-linecap="round" stroke-linejoin="round" stroke-opacity=".5" stroke-width=".554"/><path d="m93.452 76.49 3.279 6.462.481 1.022.441 1.061.4 1.098.357 1.132.314 1.166.27 1.196.227 1.225.18 1.252.136 1.276.088 1.3.041 1.32-.008 1.34-.056 1.356-.107 1.37-.157 1.384-.208 1.394-.261 1.404-.314 1.41-.364 1.398-.407 1.369-.45 1.337-.49 1.303-.53 1.27-.568 1.233-.604 1.198-.638 1.157-.672 1.119-.702 1.076-.732 1.033-.76.99-.787.943-.812.897-.834.848-.857.798-.876.746-.895.693-.912.64-.926.582-.94.526-.953.467-.964.407-.971.346-6.292 2.126 1.157-.412 1.146-.484 1.134-.557 1.12-.626 1.103-.695 1.085-.76 1.066-.826 1.043-.888 1.02-.95.993-1.008.966-1.068.936-1.123.905-1.177.872-1.231.836-1.282.8-1.33.76-1.38.719-1.424.675-1.47.631-1.51.584-1.553.536-1.592.485-1.629.433-1.664.373-1.679.31-1.67.249-1.66.188-1.647.127-1.632.067-1.615.009-1.594-.05-1.573-.104-1.546-.161-1.52-.215-1.49-.27-1.458-.322-1.425-.374-1.387-.426-1.348-.475-1.307-.525-1.263z" fill="#386b3b"/><path d="m80.881 65.641c12.468 2.98 19.068 19.939 14.743 37.88-4.326 17.941-17.94 30.07-30.408 27.092-12.467-2.978-19.068-19.937-14.742-37.879s17.94-30.072 30.406-27.093z" fill="#94cf96"/><path d="m80.881 65.641c12.468 2.98 19.068 19.939 14.743 37.88-4.326 17.941-17.94 30.07-30.408 27.092-12.467-2.978-19.068-19.937-14.742-37.879s17.94-30.072 30.406-27.093z" stroke="#459447" stroke-linecap="round" stroke-linejoin="round" stroke-width=".554"/><path d="m76.553 73.127c9.669 1.911 15.226 14.628 12.413 28.404-2.813 13.777-12.931 23.397-22.6 21.486-9.67-1.91-15.227-14.628-12.414-28.404 2.813-13.777 12.932-23.397 22.601-21.486z" fill="#f0f2f5"/><path d="m76.553 73.127c9.669 1.911 15.226 14.628 12.413 28.404-2.813 13.777-12.931 23.397-22.6 21.486-9.67-1.91-15.227-14.628-12.414-28.404 2.813-13.777 12.932-23.397 22.601-21.486z" stroke="#459447" stroke-linecap="round" stroke-linejoin="round" stroke-width=".554"/><path d="m74.055 81.014c6.466 1.455 10.019 10.27 7.935 19.688-2.084 9.419-9.016 15.874-15.482 14.419s-10.019-10.27-7.935-19.688 9.016-15.874 15.482-14.419z" fill="#94cf96"/><path d="m74.055 81.014c6.466 1.455 10.019 10.27 7.935 19.688-2.084 9.419-9.016 15.874-15.482 14.419s-10.019-10.27-7.935-19.688 9.016-15.874 15.482-14.419z" stroke="#459447" stroke-linecap="round" stroke-linejoin="round" stroke-width=".554"/><path d="m71.4 88.74c3.327.706 5.278 5.453 4.355 10.601-.921 5.15-4.365 8.75-7.693 8.045-3.326-.706-5.277-5.453-4.355-10.602s4.366-8.75 7.694-8.044z" fill="#f0f2f5"/><path d="m71.4 88.74c3.327.706 5.278 5.453 4.355 10.601-.921 5.15-4.365 8.75-7.693 8.045-3.326-.706-5.277-5.453-4.355-10.602s4.366-8.75 7.694-8.044z" stroke="#459447" stroke-linecap="round" stroke-linejoin="round" stroke-width=".554"/><path d="m70.611 93.148c1.753.373 2.782 2.875 2.296 5.59-.486 2.713-2.302 4.611-4.055 4.24-1.754-.373-2.782-2.875-2.296-5.589s2.301-4.613 4.055-4.24" fill="#4db04f"/><path d="m70.044 96.315c.624.132.99 1.023.817 1.987-.173.966-.818 1.641-1.443 1.51-.623-.133-.989-1.023-.816-1.989.172-.966.819-1.64 1.442-1.508z" fill="#4fa66e"/><path d="m70.044 96.315c.624.132.99 1.023.817 1.987-.173.966-.818 1.641-1.443 1.51-.623-.133-.989-1.023-.816-1.989.172-.966.819-1.64 1.442-1.508z" stroke="#386b3b" stroke-linecap="round" stroke-linejoin="round" stroke-width="1.385"/><path d="m28.857 93.767-5.293-1.187.99 2.62 4.914.274z" fill="#3d783d"/><path d="m24.736 96.852 24.77.785 19.797.628" stroke="#f0f2f5" stroke-linecap="round" stroke-linejoin="round" stroke-width="1.385"/><path d="m24.72 96.342 44.567 1.412" stroke="#3d783d" stroke-linecap="round" stroke-linejoin="round" stroke-width="1.385"/><path d="m28.915 98.96-5.293 1.187.99-2.62h4.914z" fill="#3d783d"/><path d="m40.607 131.252h64.86" style="stroke:#3d783d;stroke-dasharray:1.108148 1.662222;stroke-linecap:round;stroke-linejoin:round;stroke-opacity:.5;stroke-width:.554"/><path d="m146.075 0v190.33h-146.075z" fill="#82858f" fill-opacity=".1"/><text fill="#333" font-family="HelveticaNeue-Light, Helvetica Neue" font-size="12" font-weight="300"><tspan x="160.778" y="26.665">CURRENT</tspan> <tspan x="170.336" y="42.013">VALUE</tspan></text><text fill="#333" font-family="HelveticaNeue-Light, Helvetica Neue" font-size="12" font-weight="300"><tspan x="236.184" y="26.665">TARGET</tspan> <tspan x="240.336" y="42.013">VALUE</tspan></text><text fill="#4caf50" font-family=".SFNSDisplay, .SF NS Display" font-size="24"><tspan x="200.734" y="163.665">20</tspan> <tspan font-family=".AppleSystemUIFont" font-size="16" x="229.574" y="163.665">%</tspan></text><g fill="#333"><text font-family="HelveticaNeue-Light, Helvetica Neue" font-size="14" font-weight="300"><tspan x="162.734" y="126.665">Score Improvement</tspan></text><g font-family=".SFNSDisplay, .SF NS Display" font-size="24"><text><tspan x="167.144" y="73.665">30</tspan> <tspan font-family=".AppleSystemUIFont" font-size="18" x="196.605" y="73.665">%</tspan></text><text><tspan x="239.734" y="73.665">45</tspan> <tspan font-family=".AppleSystemUIFont" font-size="18" x="268.984" y="73.665">%</tspan></text></g></g></g></svg>