<svg height="25" viewBox="0 0 25 25" width="25" xmlns="http://www.w3.org/2000/svg"><path d="m12.5 25c-6.904 0-12.5-5.596-12.5-12.5s5.596-12.5 12.5-12.5 12.5 5.596 12.5 12.5-5.596 12.5-12.5 12.5zm2.24-15.14h2.04l.6-.82h-2.68a4.397 4.397 0 0 0 -.37-1.25 2.719 2.719 0 0 0 -.77-.97h3.22l.6-.82h-8.78l-.6.82h2.3c.52 0 .963.057 1.33.17s.673.27.92.47.437.433.57.7.227.56.28.88h-4.8l-.6.82h5.44c-.027.48-.143.887-.35 1.22a2.414 2.414 0 0 1 -.83.81c-.347.207-.753.36-1.22.46s-.967.15-1.5.15h-1.18v.9c.293 0 .547.033.76.1s.413.173.6.32.377.337.57.57.417.517.67.85l3.54 4.7h1.52l-4.8-6.5c.28-.04.617-.137 1.01-.29a4.365 4.365 0 0 0 1.14-.67 4.04 4.04 0 0 0 .94-1.09c.26-.433.403-.943.43-1.53z" fill="#3c4674" fill-rule="evenodd"/></svg>