<svg height="191" viewBox="0 0 147 191" width="147" xmlns="http://www.w3.org/2000/svg" xmlns:xlink="http://www.w3.org/1999/xlink"><defs><path id="a" d="m0 0h677.995a3.999 3.999 0 0 1 4.005 3.992v479.016a3.999 3.999 0 0 1 -4.005 3.992h-677.995z"/><filter id="b" height="102.9%" width="102.1%" x="-.7%" y="-1%"><feOffset dx="2" dy="2" in="SourceAlpha" result="shadowOffsetOuter1"/><feGaussianBlur in="shadowOffsetOuter1" result="shadowBlurOuter1" stdDeviation="2"/><feColorMatrix in="shadowBlurOuter1" values="0 0 0 0 0 0 0 0 0 0 0 0 0 0 0 0 0 0 0.5 0"/></filter><mask id="c" fill="#fff"><path d="m2.147.047h28.95a1.415 1.415 0 0 1 1.414 1.405v2.794c0 .387-.16.738-.415.992h-.002a1.41 1.41 0 0 1 -.997.412h-28.95c-.388 0-.741-.157-.997-.412l-.002-.001a1.396 1.396 0 0 1 -.414-.991v-2.794a1.415 1.415 0 0 1 1.414-1.405zm28.95.715h-28.95a.694.694 0 0 0 -.49.203v-.001a.689.689 0 0 0 -.204.488v2.794a.694.694 0 0 0 .694.69h28.95a.693.693 0 0 0 .49-.203.685.685 0 0 0 .205-.487v-2.794a.697.697 0 0 0 -.695-.69zm-30.363-.715h31.776v5.603h-31.776z" fill="#fff" fill-rule="evenodd"/></mask></defs><g fill="none" fill-rule="evenodd"><g transform="translate(-364 -63)"><use fill="#000" filter="url(#b)" xlink:href="#a"/><use fill="#fff" xlink:href="#a"/></g><path d="m.88 0h146.283v190.33h-146.283z" fill="#f56b5c"/><path d="m146.966 0h146.284v190.33h-146.284z" fill="#f2f2f2"/><text fill="#fff" font-family="HelveticaNeue-Light, Helvetica Neue" font-size="13.852" font-weight="300"><tspan x="47.743" y="26.142">Incorrect</tspan> <tspan x="39.633" y="42.544">Time Spent</tspan></text><path d="m104.8 65.173h.001a2.41 2.41 0 0 0 2.409 2.394 2.41 2.41 0 0 0 -2.409 2.394 2.41 2.41 0 0 0 -2.41-2.394 2.41 2.41 0 0 0 2.41-2.394zm.523 21.357h.002c.94 0 1.71.764 1.71 1.7s-.77 1.7-1.71 1.7h-.002c-.94 0-1.71-.764-1.71-1.7s.77-1.7 1.71-1.7zm-60.477-29.163h.001c0 1.95 1.607 3.548 3.57 3.548-1.963 0-3.57 1.597-3.57 3.548 0-1.95-1.607-3.547-3.57-3.547v-.001c1.963 0 3.57-1.597 3.57-3.548z" stroke="#fff" stroke-linecap="round" stroke-linejoin="round" stroke-opacity=".5" stroke-width=".554"/><path d="m50.102 65.079h47.64c1.333 0 2.423 1.09 2.423 2.409v60.973c0 1.318-1.096 2.408-2.423 2.408h-47.64c-1.327 0-2.423-1.083-2.423-2.408v-60.973a2.422 2.422 0 0 1 2.423-2.409z" fill="#f78c80"/><path d="m50.102 65.079h47.64c1.333 0 2.423 1.09 2.423 2.409v60.973c0 1.318-1.096 2.408-2.423 2.408h-47.64c-1.327 0-2.423-1.083-2.423-2.408v-60.973a2.422 2.422 0 0 1 2.423-2.409z" stroke="#c44d40" stroke-linecap="round" stroke-linejoin="round" stroke-width=".554"/><path d="m54.707 73.353h40.052c.723 0 1.315.587 1.315 1.306v50.254c0 .72-.592 1.307-1.315 1.307h-40.052a1.314 1.314 0 0 1 -1.315-1.307v-50.253c0-.719.592-1.306 1.315-1.306z" fill="#ffe3e0"/><path d="m54.707 73.353h40.052c.723 0 1.315.587 1.315 1.306v50.254c0 .72-.592 1.307-1.315 1.307h-40.052a1.314 1.314 0 0 1 -1.315-1.307v-50.253c0-.719.592-1.306 1.315-1.306z" stroke="#c44d40" stroke-linecap="round" stroke-linejoin="round" stroke-width=".554"/><path d="m60.24 78.673h17.814v3.651h-17.814zm.409 12.941h6.982v6.939h-6.981zm10.593 0h6.982v6.939h-6.982zm10.594 0h6.981v6.939h-6.981zm-21.187 10.473h6.982v6.94h-6.981zm10.593 0h6.982v6.94h-6.982zm10.594 0h6.981v6.94h-6.981zm-21.187 10.473h6.982v6.94h-6.981zm10.593 0h6.982v6.94h-6.982zm10.594 0h6.981v6.94h-6.981z" fill="#f56b5c"/><path d="m59.332 86.657h30.803" stroke="#f56b5c" stroke-linecap="round" stroke-linejoin="round" stroke-width=".554"/><path d="m59.447 71.105h28.95a1.413 1.413 0 0 1 1.415 1.405v2.793a1.415 1.415 0 0 1 -1.414 1.405h-28.95c-.389 0-.742-.158-.998-.413h-.002a1.396 1.396 0 0 1 -.414-.992v-2.793c0-.387.158-.737.414-.992v-.001c.256-.254.61-.412 1-.412zm28.95.715h-28.95a.69.69 0 0 0 -.49.203v-.001a.686.686 0 0 0 -.204.488v2.793a.689.689 0 0 0 .694.69h28.95a.7.7 0 0 0 .492-.202h-.001a.688.688 0 0 0 .204-.488v-2.793a.693.693 0 0 0 -.694-.69z" fill="#000" fill-opacity=".2"/><path d="m59.447 71.105h28.95a1.413 1.413 0 0 1 1.415 1.405v2.793a1.415 1.415 0 0 1 -1.414 1.405h-28.95c-.389 0-.742-.158-.998-.413h-.002a1.396 1.396 0 0 1 -.414-.992v-2.793c0-.387.158-.737.414-.992v-.001c.256-.254.61-.412 1-.412zm28.95.715h-28.95a.69.69 0 0 0 -.49.203v-.001a.686.686 0 0 0 -.204.488v2.793a.689.689 0 0 0 .694.69h28.95a.7.7 0 0 0 .492-.202h-.001a.688.688 0 0 0 .204-.488v-2.793a.693.693 0 0 0 -.694-.69z" stroke="#383336" stroke-opacity=".2" stroke-width=".554"/><path d="m2.147.047h28.95a1.415 1.415 0 0 1 1.414 1.405v2.794c0 .387-.16.738-.415.992h-.002a1.41 1.41 0 0 1 -.997.412h-28.95c-.388 0-.741-.157-.997-.412l-.002-.001a1.396 1.396 0 0 1 -.414-.991v-2.794a1.415 1.415 0 0 1 1.414-1.405zm28.95.715h-28.95a.694.694 0 0 0 -.49.203v-.001a.689.689 0 0 0 -.204.488v2.794a.694.694 0 0 0 .694.69h28.95a.693.693 0 0 0 .49-.203.685.685 0 0 0 .205-.487v-2.794a.697.697 0 0 0 -.695-.69z" mask="url(#c)" transform="translate(57.3 70.718)"/><path d="m64.155 69.935h19.535c.657 0 1.193.534 1.193 1.187s-.536 1.187-1.193 1.187h-19.535a1.194 1.194 0 0 1 -1.194-1.187c0-.653.537-1.187 1.194-1.187" fill="#fff"/><path d="m84.884 71.122c0 .653-.538 1.187-1.194 1.187h-19.535a1.194 1.194 0 0 1 -1.194-1.187z" fill="#e6e6e6"/><path d="m99.397 115.15c4.367 0 7.907 3.518 7.907 7.86 0 4.34-3.54 7.86-7.907 7.86-4.369 0-7.909-3.52-7.909-7.86 0-4.342 3.54-7.86 7.909-7.86z" fill="#f55947"/><path d="m99.397 115.15c4.367 0 7.907 3.518 7.907 7.86 0 4.34-3.54 7.86-7.907 7.86-4.369 0-7.909-3.52-7.909-7.86 0-4.342 3.54-7.86 7.909-7.86z" stroke="#c44d40" stroke-linecap="round" stroke-linejoin="round" stroke-width=".554"/><path d="m96.15 119.784a1.243 1.243 0 0 1 1.746 0l1.507 1.497 1.52-1.486a1.244 1.244 0 0 1 1.745.014c.476.481.47 1.263-.014 1.736l-1.505 1.472 1.493 1.484c.48.477.48 1.258 0 1.735a1.242 1.242 0 0 1 -1.745 0l-1.508-1.498-1.52 1.486a1.243 1.243 0 0 1 -1.744-.014 1.225 1.225 0 0 1 .013-1.735l1.506-1.472-1.494-1.484a1.226 1.226 0 0 1 0-1.735z" stroke="#fff" stroke-width=".554"/><path d="m96.15 119.784a1.243 1.243 0 0 1 1.746 0l1.507 1.497 1.52-1.486a1.244 1.244 0 0 1 1.745.014c.476.481.47 1.263-.014 1.736l-1.505 1.472 1.493 1.484c.48.477.48 1.258 0 1.735a1.242 1.242 0 0 1 -1.745 0l-1.508-1.498-1.52 1.486a1.243 1.243 0 0 1 -1.744-.014 1.225 1.225 0 0 1 .013-1.735l1.506-1.472-1.494-1.484a1.226 1.226 0 0 1 0-1.735" fill="#fff"/><path d="m47.666 131.32c-4.6 0-8.324-3.722-8.324-8.274 0-4.573 3.744-8.275 8.324-8.275 4.601 0 8.325 3.722 8.325 8.275.02 4.552-3.724 8.273-8.325 8.273zm0-15.56c-4.042 0-7.328 3.267-7.328 7.286 0 4.018 3.286 7.284 7.328 7.284 4.043 0 7.33-3.266 7.33-7.284 0-4.019-3.287-7.285-7.33-7.285zm1.326-3.353h-2.632a.481.481 0 0 0 -.487.484c0 .271.214.484.487.484h.819v.834h.975v-.834h.818a.481.481 0 0 0 .488-.484c0-.271-.195-.484-.468-.484m-8.122 2.668 1.089 1.083.69-.685-1.09-1.082z" fill="#c44d40"/><path d="m47.687 130.797c-4.281 0-7.751-3.46-7.751-7.73 0-4.269 3.47-7.73 7.75-7.73 4.283 0 7.752 3.461 7.752 7.73 0 4.27-3.47 7.73-7.751 7.73" fill="#faada6"/><path d="m47.666 116.445v6.6l6.252-2.254c-.919-2.538-3.37-4.346-6.252-4.346" fill="#f56b5c"/><path d="m147.064.335v190.33h-146.284z" fill="#82858f" fill-opacity=".1"/><path d="m34.349 130.869h79.147" style="stroke:#c44d40;stroke-dasharray:1.108148 1.662222;stroke-linecap:round;stroke-linejoin:round;stroke-opacity:.5;stroke-width:.554"/></g></svg>