<svg height="60" viewBox="0 0 60 60" width="60" xmlns="http://www.w3.org/2000/svg" xmlns:xlink="http://www.w3.org/1999/xlink"><defs><path id="a" d="m43 0h677.995a3.996 3.996 0 0 1 4.005 3.995v72.01a4 4 0 0 1 -4.005 3.995h-677.995z"/><filter id="b" height="117.5%" width="102.1%" x="-.7%" y="-6.2%"><feOffset dx="2" dy="2" in="SourceAlpha" result="shadowOffsetOuter1"/><feGaussianBlur in="shadowOffsetOuter1" result="shadowBlurOuter1" stdDeviation="2"/><feColorMatrix in="shadowBlurOuter1" values="0 0 0 0 0 0 0 0 0 0 0 0 0 0 0 0 0 0 0.5 0"/></filter></defs><g fill="none" fill-rule="evenodd"><g transform="translate(-645 -10)"><use fill="#000" filter="url(#b)" xlink:href="#a"/><use fill="#2eb8eb" xlink:href="#a"/></g><path d="m29.944.086c16.516 0 29.905 13.39 29.905 29.906s-13.389 29.905-29.905 29.905-29.904-13.39-29.904-29.905c0-16.517 13.39-29.906 29.904-29.906" fill="#fff"/><g fill="#2b2e47" font-family="LucidaGrande, Lucida Grande" font-size="5.699"><text><tspan x="13.35" y="49.171">K</tspan></text><text><tspan x="20.41" y="49.171">A</tspan></text><text><tspan x="27.71" y="49.171">L</tspan></text><text><tspan x="33.916" y="49.171">A</tspan></text><text><tspan x="41.216" y="49.171">M</tspan></text></g><path d="m20.382 36.675c-.198-.372-.406-.48-.807-1.36-.318-.696-.617-1.774-.747-2.56-.022-.136-.041-.349-.072-.467-.076-.292-.671-.885-.112-2.228.17.329.069.365.363.581.23-.027.548-.194.647-.42.116-.267-.249-1.362-.022-2.945a7.586 7.586 0 0 1 .457-1.696c.501-1.226.432-.97 1.05-1.102 1.003-.216 1.955-1.158 2.457-1.856.687-.957 1.026-1.88.72-3.381.47.204.39.256 1.038.256-.566-.438-.892-.43-.801-1.38.293-3.062 3.172-1.599 4.305-2.004 2.03-.726 2.149-2.609 1.758-4.457-.139-.656-.357-1.12-.53-1.7-1.913 0-3.243-.213-5.255.744-1.517.722-2.422 1.64-3.459 2.775-1.725 1.89-3.821 4.97-5.285 7.182-.903 1.366-1.642 2.262-2.044 4.185-.407 1.95.002 3.7.847 5.007.305.472.504.395.447.973-.044.451.1.92.26 1.238.644 1.273 1.704 1.599 1.926 2.002.272.494.237.738.886 1.42.371.39 1.296 1.06 1.973 1.193" fill="#f27336"/><path d="m30.549 15.973c.892.497 2.913-.612 3.965.942.473.7.42 1.442.42 2.274 0 1.455-1.24 2.875.813 4.495.515.407.41 2.5 2.048 4.11.649.638.56.123.727 1.351.147 1.078-.513 1.737-.02 2.635.177.326.164.33.267.656.073.234.155.454.257.67l.375.625c-.505.393-1.485 2.343-1.773 2.957 1.504-.462 1.714-2.077 2.343-2.306.28-.102.43-.152.658-.266a7.62 7.62 0 0 0 1.142-.702c1.102-.82 1.993-1.867 2.205-3.337.058-.402-.004-.437.111-.814.657-2.142-.728-3.626-.916-4.305-1.318-4.761-2.974-9.686-6.896-12.806-1.558-1.24-3.172-2.042-5.88-2.042.19 1.021.961 2.727.551 4.48-.131.561-.46.86-.397 1.383" fill="#2e5236"/><path d="m21.809 23.85c.259-.303.327-.391.273-.963-.097-1.01-.925-1.867-.75-3.143.104-.755.52-1.363.598-2.019.1-.849.224-1.553.441-2.254.613-1.974 1.944-3.342 3.783-4.062.709-.277 1.504-.28 2.191-.511-4.247-.165-6.271 3.298-6.889 6.663-.153.833-.262 1.449-.527 2.17-.28.762-.076.561.506 1.879.637 1.44.307 1.674.374 2.24" fill="#e3f2f5"/><path d="m12.352 40.987c.943-.2 2.06-.727 3.9-1.085 1.052-.205 2.516-.908 3.601-1.324-.052-.376-.24-.664-.308-1.028-.31.062-2.98 1.526-3.477 1.785-1.37.714-.472.392-1.861.753-.428.11-1.544.537-1.855.9" fill="#f27336"/><path d="m38.011 21.036c0 2.25-.644 3.7.212 5.479.152.316.163.336.356.46-.136-.36-.319-.57-.445-.982-.11-.359-.204-.82-.184-1.255.017-.343.124-.892.175-1.281.054-.422.068-.912.09-1.343.09-1.78-.228-3.595-.56-5.181-.49-2.326-1.856-3.83-3.673-4.948-.427-.263-1.534-.818-2.04-.867.614.424 1.131.453 2.498 1.484.727.549 1.463 1.27 1.963 2.042.936 1.444 1.608 4.1 1.608 6.392" fill="#e3f2f5"/><path d="m29.317 40.04c-1.502 0-2.343.009-3.782-.527-.378-.14-.872-.195-1.242-.3-.423-.123-.854-.352-1.195-.42.349.334 2.06.925 2.483 1.061 2.643.847 4.518.937 7.164-.08.653-.25 2.221-1.014 2.574-1.504-.702.18-3.03 1.77-6.002 1.77" fill="#f27336"/><path d="m37.43 26.115c-.189-.636-.365-1.009-.513-1.752-.438-2.202.004-3.735-.465-6.228-.231-1.227-.688-2.32-1.347-3.114-.505-.608-1.707-1.6-2.986-1.427.76.334 1.685.337 2.765 1.64.684.826 1.133 1.833 1.366 3.101.423 2.298-.372 4.624.91 7.396zm-13.669-4.605c.09-1.295-.253-1.699-.611-2.545-.33-.778.37-3.275 2.162-4.088 1.071-.486 1.585-.286 2.819-.31-.021-.01-.053-.042-.065-.023l-.67-.125c-2.371-.096-3.99.739-4.629 3.221-.125.489-.307.937-.013 1.335.911 1.23.7 1.82 1.007 2.534" fill="#e3f2f5"/><path d="m47.537 39.167c-1.28-.593-2.703-1.083-4.04-1.61-1.138-.448-2.946-1.274-4.448-1.17 1.719.29 4.11 1.642 5.087 1.915z" fill="#0a6e45"/><path d="m32.18 15.384c1.837-.029 2.698.653 3.143 2.027.961 2.964-.746 4.704.459 5.48-.367-1.488.008-1.175.1-2.852.094-1.71-.279-4.163-2.075-4.643-.789-.21-.936-.053-1.626-.012" fill="#fcfcfc"/><path d="m18.033 26.964c-.172-.198-.45-.376-.665-.597-1.266-1.3-1.123-3.408-.644-5.076.206-.719.515-1.251.685-1.891-.015.014-.035.018-.04.047l-.213.356c-.064.14-.124.273-.21.478-.137.326-.27.666-.384 1.006a9.678 9.678 0 0 0 -.513 2.254c-.189 1.576.681 3.234 1.984 3.423" fill="#e3f2f5"/><path d="m35.965 43.241c1.031-.223 1.632-1.336 1.973-2.274.336-.926.742-2.464.774-3.665-.04.073-.025.028-.082.191l-.182.676c-.439 1.508-.996 3.306-1.958 4.503-.184.229-.372.38-.525.57" fill="#2e5236"/><path d="m16.963 30.975c-.103-.172-.003-.031-.151-.202l-.465-.539c-2.113-2.773-.928-6.88-.988-7.558-.696 2.19-.898 4.68.25 6.831.264.493.86 1.283 1.354 1.468" fill="#e3f2f5"/><path d="m29.723 45.328c1.11.094 2.528-1.123 3.068-1.66.423-.422 1.911-2.164 2.075-2.71-.225.163-1.286 1.624-2.314 2.473-.475.392-.85.71-1.352 1.033z" fill="#f27336"/><path d="m39.621 29.498c.473.641 1.805.808 2.844-.011.553-.436 1.237-1.693.961-2.864-.007.757-.666 2.139-1.071 2.528-.269.257-.78.535-1.219.624-.723.147-1.003-.1-1.515-.277" fill="#e3f2f5"/><path d="m17.392 32.116c-.133-.175-.355-.317-.52-.482-1.147-1.147-1.803-2.032-2.362-3.636-.127-.364-.113-.572-.284-.821.096 1.68 1.623 4.327 3.166 4.94" fill="#fcfcfc"/><path d="m22.66 42.836-.165-.203c-.658-.688-1.431-1.289-2.062-2.015l-.734-.778c.253.84 2.186 2.74 2.961 2.996m-3.1-14.738a13.053 13.053 0 0 1 -1.97-1.26c-.493-.214-.9-.647-1.175-1.19-.978-1.362-.486-3.83.056-5.569l-.384.578c-.903 1.366-1.642 2.262-2.044 4.185-.407 1.95.002 3.7.847 5.007.305.472.504.395.447.973-.044.451.1.92.26 1.238.644 1.273 1.704 1.599 1.926 2.002.272.494.237.738.886 1.42.371.39 1.296 1.06 1.973 1.193-.198-.372-.406-.48-.807-1.36-.318-.696-.617-1.774-.747-2.56-.022-.136-.041-.349-.072-.467-.076-.292-.671-.885-.112-2.228.17.329.069.365.363.581.23-.027.548-.194.647-.42.095-.218-.13-.987-.094-2.123zm-2.748 2.675c.148.17.048.03.151.202-.494-.185-1.09-.975-1.353-1.468-1.15-2.151-.947-4.64-.251-6.83.06.677-1.125 4.784.988 7.557l.465.54zm.06.861c.165.165.387.307.52.482-1.543-.612-3.07-3.26-3.166-4.939.171.25.157.457.284.82.559 1.605 1.215 2.49 2.362 3.637z" fill="#f27336"/><path d="m21.603 16.869c.268-1.432.39-3.143.442-4.112-.223.23-.445.469-.673.718-1.58 1.73-3.47 4.458-4.9 6.604-.543 1.739-1.035 4.207-.057 5.569a3.753 3.753 0 0 1 -.366-2.107 9.678 9.678 0 0 1 .513-2.254c.114-.34.247-.68.384-1.006.086-.205.146-.338.21-.478l.212-.356c.006-.03.026-.033.04-.047-.17.64-.478 1.172-.684 1.89-.479 1.669-.622 3.777.644 5.077.216.221.493.4.665.597a1.745 1.745 0 0 1 -.443-.127c.603.48 1.297.904 1.97 1.261.008-.256.03-.53.072-.822a7.586 7.586 0 0 1 .457-1.696c.501-1.226.432-.97 1.05-1.102.414-.09.82-.302 1.19-.571a19.278 19.278 0 0 1 -.25-.498c-.036.165-.122.268-.27.442-.04-.34.063-.56.013-.995a21.693 21.693 0 0 1 -.796-2.071c-.211-.385-.277-.486-.173-.832-.045-.695.277-1.048.603-2.392.042-.23.091-.462.147-.692" fill="#f29633"/><path d="m35.437 13.064c-.916-2.265-1.91-2.484-1.91-2.484-.88-.302-1.892-.47-3.132-.47.19 1.021.961 2.727.551 4.48-.131.561-.46.86-.397 1.383.892.497 2.913-.612 3.965.942.473.7.42 1.442.42 2.274 0 1.455-1.24 2.875.813 4.495.515.407.41 2.5 2.048 4.11.197.194.326.281.415.343.28-.313 2.087.594.111-1.423a5.415 5.415 0 0 1 -.098-.199c-.856-1.779-.212-3.229-.212-5.48 0-2.29-.672-4.947-1.608-6.391-.5-.771-1.236-1.493-1.963-2.042-1.367-1.03-1.884-1.06-2.498-1.484.506.049 1.613.604 2.04.867.526.324 1.015.68 1.455 1.08zm-3.318.53c1.28-.173 2.481.82 2.986 1.427.659.794 1.116 1.887 1.347 3.114.47 2.493.027 4.026.465 6.228.148.743.324 1.116.513 1.752l-.27-.384c-1.282-2.772-.487-5.098-.91-7.396-.233-1.268-.682-2.275-1.366-3.1-1.08-1.304-2.005-1.307-2.765-1.641zm.062 1.79c.69-.041.837-.199 1.626.012 1.796.48 2.17 2.933 2.075 4.643-.092 1.677-.467 1.364-.1 2.851-1.205-.775.502-2.515-.459-5.48-.445-1.373-1.306-2.055-3.142-2.026z" fill="#0a6e45"/><path d="m42.13 22.697c-.541-1.716-1.092-3.488-1.902-5.063-1.033-2.01-2.146-4.045-3.953-5.482-.821-.654-1.658-1.186-2.663-1.543.258.109 1.068.583 1.825 2.455a7.002 7.002 0 0 1 2.217 3.869c.333 1.586.65 3.402.56 5.181-.021.431-.035.921-.09 1.343-.05.39-.157.938-.174 1.281-.02.435.075.896.184 1.255.126.412.309.623.445.981.46.299.193 1.102-.37 1.163-.026-.081.616 1.024 1.777 1.286.793.178 2.145-.251 2.443-.875 1.316-2.751-.143-4.783-.299-5.85" fill="#00a859"/></g></svg>