<svg height="25" viewBox="0 0 25 25" width="25" xmlns="http://www.w3.org/2000/svg"><path d="m3.956 7.973-2.221-5.921.966-.363 2.321 6.191-.246.093h2.214l-2.221-5.921.965-.363 2.322 6.191-.247.093h2.214l-2.22-5.921.965-.363 2.322 6.191-.247.093h14.157v-7.458a.515.515 0 0 0 -.515-.515h-23.97a.515.515 0 0 0 -.515.515v7.457h3.956zm8.544-2.343h5.29v1.031h-5.29v-1.03zm-12.5 11.428v7.426c0 .286.23.516.515.516h23.97c.285 0 .515-.23.515-.516v-7.426zm25-1.126v-6.834h-25v6.834h11.358l2.276-6.068.966.362-2.14 5.706h1.897l2.275-6.068.965.362-2.14 5.706h1.897l2.276-6.068.965.362-2.14 5.706h1.897l2.276-6.068.965.362-2.14 5.706zm-18.707-.158-.58-.852 5.462-3.725.58.852z" fill="#3c4674" fill-rule="evenodd"/></svg>