<svg height="23" viewBox="0 0 25 23" width="25" xmlns="http://www.w3.org/2000/svg"><path d="m23.512 4.128c.822 0 1.488.66 1.488 1.475v15.923c0 .814-.666 1.474-1.488 1.474h-22.024c-.822 0-1.488-.66-1.488-1.474v-15.923c0-.815.666-1.475 1.488-1.475h6.548v-2.654c0-.814.666-1.474 1.488-1.474h5.655c.822 0 1.488.66 1.488 1.474v2.654zm-12.5-1.18v1.18h2.678v-1.18zm2.38 7.667c0-.814-.07-1.474-.892-1.474s-.893.66-.893 1.474v2.064h-2.083c-.822 0-1.488.07-1.488.885s.666.885 1.488.885h2.083v2.064c0 .814.071 1.474.893 1.474s.893-.66.893-1.474v-2.064h2.083c.822 0 1.488-.07 1.488-.885 0-.814-.666-.885-1.488-.885h-2.083v-2.064z" fill="#3c4674" fill-rule="evenodd"/></svg>