<svg height="192" viewBox="0 0 294 192" width="294" xmlns="http://www.w3.org/2000/svg" xmlns:xlink="http://www.w3.org/1999/xlink"><mask id="a" fill="#fff"><path d="m2.083.146h29.087c.391 0 .746.16 1.003.416.258.257.417.612.417 1.002v2.821a1.42 1.42 0 0 1 -1.42 1.42h-29.088c-.39 0-.744-.16-1.002-.417l-.001-.001a1.415 1.415 0 0 1 -.419-1.002v-2.82c0-.39.16-.744.418-1.002a1.418 1.418 0 0 1 1.005-.418zm29.087.722h-29.088a.697.697 0 0 0 -.492.205l-.001-.001a.696.696 0 0 0 -.204.492v2.821a.694.694 0 0 0 .698.697h29.087a.695.695 0 0 0 .697-.697v-2.82a.696.696 0 0 0 -.697-.697zm-30.509-.722h31.93v5.659h-31.931v-5.66z" fill="#fff" fill-rule="evenodd"/></mask><g fill="none" fill-rule="evenodd"><path d="m.781.337h146.317v191.326h-146.318z" fill="#6bb5f5"/><path d="m146.901.337h146.317v191.326h-146.318z" fill="#f2f2f2"/><text fill="#fff" font-family="LucidaGrande, Lucida Grande" font-size="13.856"><tspan x="20.007" y="26.399">Non attempt time</tspan></text><path d="m50.006 65.493h47.867c1.339 0 2.434 1.1 2.434 2.432v61.569a2.449 2.449 0 0 1 -2.434 2.432h-47.867a2.444 2.444 0 0 1 -2.435-2.432v-61.569a2.44 2.44 0 0 1 2.435-2.432z" fill="#4f8cc7"/><path d="m50.006 65.493h47.867c1.339 0 2.434 1.1 2.434 2.432v61.569a2.449 2.449 0 0 1 -2.434 2.432h-47.867a2.444 2.444 0 0 1 -2.435-2.432v-61.569a2.44 2.44 0 0 1 2.435-2.432z" stroke="#306396" stroke-linecap="round" stroke-linejoin="round" stroke-width=".555"/><path d="m54.632 73.847h40.244c.727 0 1.32.593 1.32 1.32v50.746c0 .725-.593 1.319-1.32 1.319h-40.244c-.726 0-1.32-.594-1.32-1.32v-50.745c0-.726.594-1.319 1.32-1.319z" fill="#e6f2fc"/><path d="m54.632 73.847h40.244c.727 0 1.32.593 1.32 1.32v50.746c0 .725-.593 1.319-1.32 1.319h-40.244c-.726 0-1.32-.594-1.32-1.32v-50.745c0-.726.594-1.319 1.32-1.319z" stroke="#306396" stroke-linecap="round" stroke-linejoin="round" stroke-width=".555"/><path d="m60.192 79.219h17.899v3.688h-17.899z" fill="#85c2f7"/><path d="m64.11 92.286h.001a3.515 3.515 0 0 1 3.508 3.504 3.516 3.516 0 0 1 -3.508 3.504 3.516 3.516 0 0 1 -3.508-3.504 3.515 3.515 0 0 1 3.507-3.504" fill="#ffb029"/><path d="m71.246 92.286h17.66v7.008h-17.66z" fill="#85c2f7"/><path d="m81.89 92.286h7.015v7.008h-7.015z" fill="#85c2f7"/><path d="m64.11 102.862h.001a3.516 3.516 0 0 1 3.508 3.504 3.516 3.516 0 0 1 -3.508 3.504 3.516 3.516 0 0 1 -3.508-3.503v-.001a3.516 3.516 0 0 1 3.507-3.504" fill="#ffb029"/><path d="m71.246 102.862h17.66v7.008h-17.66z" fill="#85c2f7"/><path d="m81.89 102.862h7.015v7.008h-7.015z" fill="#85c2f7"/><path d="m64.11 113.438h.001a3.516 3.516 0 0 1 3.508 3.504 3.516 3.516 0 0 1 -3.508 3.504 3.516 3.516 0 0 1 -3.508-3.504 3.516 3.516 0 0 1 3.507-3.504" fill="#ffb029"/><path d="m71.246 113.438h17.66v7.007h-17.66z" fill="#85c2f7"/><path d="m81.89 113.438h7.015v7.007h-7.015z" fill="#85c2f7"/><path d="m59.28 87.282h30.949" stroke="#85c2f7" stroke-linecap="round" stroke-linejoin="round" stroke-width=".555"/><path d="m59.396 71.577h29.088c.39 0 .746.16 1.002.416.258.258.418.612.418 1.002v2.822c0 .39-.16.745-.418 1.002a1.418 1.418 0 0 1 -1.002.416h-29.088c-.39 0-.745-.16-1.002-.416l-.002-.002a1.413 1.413 0 0 1 -.417-1v-2.822c0-.389.16-.744.417-1v-.002a1.42 1.42 0 0 1 1.004-.416zm29.088.722h-29.088a.693.693 0 0 0 -.493.205.693.693 0 0 0 -.205.491v2.822a.695.695 0 0 0 .698.697h29.088a.697.697 0 0 0 .493-.205h-.001a.698.698 0 0 0 .205-.492v-2.822a.694.694 0 0 0 -.205-.49.692.692 0 0 0 -.492-.206z" fill="#000" fill-opacity=".2"/><path d="m2.083.146h29.087c.391 0 .746.16 1.003.416.258.257.417.612.417 1.002v2.821a1.42 1.42 0 0 1 -1.42 1.42h-29.088c-.39 0-.744-.16-1.002-.417l-.001-.001a1.415 1.415 0 0 1 -.419-1.002v-2.82c0-.39.16-.744.418-1.002a1.418 1.418 0 0 1 1.005-.418zm29.087.722h-29.088a.697.697 0 0 0 -.492.205l-.001-.001a.696.696 0 0 0 -.204.492v2.821a.694.694 0 0 0 .698.697h29.087a.695.695 0 0 0 .697-.697v-2.82a.696.696 0 0 0 -.697-.697z" mask="url(#a)" transform="translate(57.313 71.088)"/><path d="m64.125 70.396h19.629c.66 0 1.2.539 1.2 1.198v.001c0 .66-.54 1.199-1.2 1.199h-19.629c-.66 0-1.199-.54-1.199-1.199v-.001c0-.66.54-1.198 1.2-1.198" fill="#fff"/><path d="m84.953 71.595c0 .659-.54 1.199-1.2 1.199h-19.627c-.66 0-1.2-.54-1.2-1.2h22.027z" fill="#e6e6e6"/><path d="m99.053 131.224c-4.285 0-7.757-3.48-7.757-7.774s3.472-7.774 7.757-7.774c4.284 0 7.756 3.48 7.756 7.774 0 4.293-3.472 7.774-7.756 7.774" fill="#cce6fa"/><path d="m99.031 131.926c-4.702 0-8.508-3.822-8.508-8.5 0-4.696 3.827-8.497 8.508-8.497 4.702 0 8.508 3.822 8.508 8.498.02 4.677-3.806 8.5-8.508 8.5zm0-15.981c-4.132 0-7.49 3.355-7.49 7.482 0 4.128 3.358 7.482 7.49 7.482s7.49-3.354 7.49-7.482c0-4.127-3.358-7.482-7.49-7.482zm1.384-3.68h-2.748a.504.504 0 0 0 -.508.508c0 .285.223.509.508.509h.855v.874h1.017v-.874h.856c.285 0 .509-.224.509-.509s-.204-.508-.489-.508m-8.48 2.8 1.137 1.136.72-.72-1.137-1.135z" fill="#306396"/><path d="m99.031 116.82v6.607l6.229-2.257a6.608 6.608 0 0 0 -6.229-4.35" fill="#ffb029"/><path d="m107.193 67.122c0 1.174.964 2.135 2.139 2.135v.001a2.144 2.144 0 0 0 -2.138 2.136h-.001a2.143 2.143 0 0 0 -2.138-2.136 2.143 2.143 0 0 0 2.138-2.136zm0 23.973c1.023 0 1.86.835 1.86 1.857a1.862 1.862 0 0 1 -1.86 1.857 1.862 1.862 0 0 1 -1.859-1.857c0-1.022.836-1.857 1.859-1.857zm-62.815-31.99h.001a3.89 3.89 0 0 0 3.88 3.875 3.89 3.89 0 0 0 -3.88 3.876 3.89 3.89 0 0 0 -3.88-3.875 3.89 3.89 0 0 0 3.88-3.876z" stroke="#fff" stroke-linecap="round" stroke-linejoin="round" stroke-opacity=".5" stroke-width=".555"/><path d="m147.098.337v191.326h-146.318z" fill="#82858f" fill-opacity=".1"/><path d="m39.763 131.926h68.354" style="stroke:#306396;stroke-dasharray:1.10845 1.662675;stroke-linecap:round;stroke-linejoin:round;stroke-opacity:.5;stroke-width:.555"/><g transform="translate(162 15)"><text fill="#333" font-family="HelveticaNeue-Light, Helvetica Neue" font-size="12" font-weight="300"><tspan x=".044" y="12">CURRENT</tspan> <tspan x="9.602" y="27.348">VALUE</tspan></text><text fill="#333" font-family="HelveticaNeue-Light, Helvetica Neue" font-size="12" font-weight="300"><tspan x="75.45" y="12">TARGET</tspan> <tspan x="79.602" y="27.348">VALUE</tspan></text><text fill="#4caf50" font-family=".SFNSDisplay, .SF NS Display" font-size="24"><tspan x="40" y="149">13</tspan> <tspan font-family=".AppleSystemUIFont" font-size="16" x="65.547" y="149">%</tspan></text><g fill="#333"><text font-family="HelveticaNeue-Light, Helvetica Neue" font-size="14" font-weight="300"><tspan x="2" y="112">Score Improvement</tspan></text><text font-family=".SFNSDisplay, .SF NS Display" font-size="24"><tspan x="6.41" y="59">30</tspan> <tspan font-family=".AppleSystemUIFont" font-size="18" x="35.871" y="59">%</tspan></text><text font-family=".SFNSDisplay, .SF NS Display" font-size="24"><tspan x="79" y="59">10</tspan> <tspan font-family=".AppleSystemUIFont" font-size="18" x="104.898" y="59">%</tspan></text></g></g></g></svg>