<svg xmlns="http://www.w3.org/2000/svg" xmlns:xlink="http://www.w3.org/1999/xlink" width="147" height="192" viewBox="0 0 147 192"><defs><path id="b" d="M0 0h677.995A3.999 3.999 0 0 1 682 3.992v479.016a3.999 3.999 0 0 1-4.005 3.992H0V0z"/><filter id="a" width="102.1%" height="102.9%" x="-.7%" y="-1%" filterUnits="objectBoundingBox"><feOffset dx="2" dy="2" in="SourceAlpha" result="shadowOffsetOuter1"/><feGaussianBlur in="shadowOffsetOuter1" result="shadowBlurOuter1" stdDeviation="2"/><feColorMatrix in="shadowBlurOuter1" values="0 0 0 0 0 0 0 0 0 0 0 0 0 0 0 0 0 0 0.5 0"/></filter><path id="c" d="M2.083.146H31.17c.391 0 .746.16 1.003.416.258.257.417.612.417 1.002v2.821a1.42 1.42 0 0 1-1.42 1.42H2.082c-.39 0-.744-.16-1.002-.417l-.001-.001A1.415 1.415 0 0 1 .66 4.385v-2.82c0-.39.16-.744.418-1.002A1.418 1.418 0 0 1 2.083.145zM31.17.868H2.082a.697.697 0 0 0-.492.205l-.001-.001a.696.696 0 0 0-.204.492v2.821a.694.694 0 0 0 .698.697H31.17a.695.695 0 0 0 .697-.697v-2.82a.696.696 0 0 0-.697-.697zM.661.146h31.93v5.659H.66V.145z"/></defs><g fill="none" fill-rule="evenodd"><g transform="translate(-25 -274)"><use fill="#000" filter="url(#a)" xlink:href="#b"/><use fill="#FFF" xlink:href="#b"/></g><path fill="#6BB5F5" d="M.781.337h146.317v191.326H.78z"/><path fill="#F2F2F2" d="M146.901.337h146.317v191.326H146.9z"/><text fill="#FFF" font-family="LucidaGrande, Lucida Grande" font-size="13.856"><tspan x="20.007" y="26.399">Non attempt time</tspan></text><path fill="#4F8CC7" d="M50.006 65.493h47.867c1.339 0 2.434 1.1 2.434 2.432v61.569a2.449 2.449 0 0 1-2.434 2.432H50.006a2.444 2.444 0 0 1-2.435-2.432V67.925a2.44 2.44 0 0 1 2.435-2.432z"/><path stroke="#306396" stroke-linecap="round" stroke-linejoin="round" stroke-width=".555" d="M50.006 65.493h47.867c1.339 0 2.434 1.1 2.434 2.432v61.569a2.449 2.449 0 0 1-2.434 2.432H50.006a2.444 2.444 0 0 1-2.435-2.432V67.925a2.44 2.44 0 0 1 2.435-2.432z"/><path fill="#E6F2FC" d="M54.632 73.847h40.244c.727 0 1.32.593 1.32 1.32v50.746c0 .725-.593 1.319-1.32 1.319H54.632c-.726 0-1.32-.594-1.32-1.32V75.167c0-.726.594-1.319 1.32-1.319z"/><path stroke="#306396" stroke-linecap="round" stroke-linejoin="round" stroke-width=".555" d="M54.632 73.847h40.244c.727 0 1.32.593 1.32 1.32v50.746c0 .725-.593 1.319-1.32 1.319H54.632c-.726 0-1.32-.594-1.32-1.32V75.167c0-.726.594-1.319 1.32-1.319z"/><path fill="#85C2F7" d="M60.192 79.219h17.899v3.688H60.192z"/><path fill="#FFB029" d="M64.11 92.286h.001a3.515 3.515 0 0 1 3.508 3.504 3.516 3.516 0 0 1-3.508 3.504 3.516 3.516 0 0 1-3.508-3.504 3.515 3.515 0 0 1 3.507-3.504"/><path fill="#85C2F7" d="M71.246 92.286h17.66v7.008h-17.66z"/><path fill="#85C2F7" d="M81.89 92.286h7.015v7.008H81.89z"/><path fill="#FFB029" d="M64.11 102.862h.001a3.516 3.516 0 0 1 3.508 3.504 3.516 3.516 0 0 1-3.508 3.504 3.516 3.516 0 0 1-3.508-3.503v-.001a3.516 3.516 0 0 1 3.507-3.504"/><path fill="#85C2F7" d="M71.246 102.862h17.66v7.008h-17.66z"/><path fill="#85C2F7" d="M81.89 102.862h7.015v7.008H81.89z"/><path fill="#FFB029" d="M64.11 113.438h.001a3.516 3.516 0 0 1 3.508 3.504 3.516 3.516 0 0 1-3.508 3.504 3.516 3.516 0 0 1-3.508-3.504 3.516 3.516 0 0 1 3.507-3.504"/><path fill="#85C2F7" d="M71.246 113.438h17.66v7.007h-17.66z"/><path fill="#85C2F7" d="M81.89 113.438h7.015v7.007H81.89z"/><path stroke="#85C2F7" stroke-linecap="round" stroke-linejoin="round" stroke-width=".555" d="M59.28 87.282h30.949"/><path fill="#000" fill-opacity=".2" d="M59.396 71.577h29.088c.39 0 .746.16 1.002.416.258.258.418.612.418 1.002v2.822c0 .39-.16.745-.418 1.002a1.418 1.418 0 0 1-1.002.416H59.396c-.39 0-.745-.16-1.002-.416l-.002-.002a1.413 1.413 0 0 1-.417-1v-2.822c0-.389.16-.744.417-1v-.002a1.42 1.42 0 0 1 1.004-.416zm29.088.722H59.396a.693.693 0 0 0-.493.205.693.693 0 0 0-.205.491v2.822a.695.695 0 0 0 .698.697h29.088a.697.697 0 0 0 .493-.205h-.001a.698.698 0 0 0 .205-.492v-2.822a.694.694 0 0 0-.205-.49.692.692 0 0 0-.492-.206z"/><g transform="translate(57.313 71.088)"><mask id="d" fill="#fff"><use xlink:href="#c"/></mask><path d="M2.083.146H31.17c.391 0 .746.16 1.003.416.258.257.417.612.417 1.002v2.821a1.42 1.42 0 0 1-1.42 1.42H2.082c-.39 0-.744-.16-1.002-.417l-.001-.001A1.415 1.415 0 0 1 .66 4.385v-2.82c0-.39.16-.744.418-1.002A1.418 1.418 0 0 1 2.083.145zM31.17.868H2.082a.697.697 0 0 0-.492.205l-.001-.001a.696.696 0 0 0-.204.492v2.821a.694.694 0 0 0 .698.697H31.17a.695.695 0 0 0 .697-.697v-2.82a.696.696 0 0 0-.697-.697z" mask="url(#d)"/></g><path fill="#FFF" d="M64.125 70.396h19.629c.66 0 1.2.539 1.2 1.198v.001c0 .66-.54 1.199-1.2 1.199H64.125c-.66 0-1.199-.54-1.199-1.199v-.001c0-.66.54-1.198 1.2-1.198"/><path fill="#E6E6E6" d="M84.953 71.595c0 .659-.54 1.199-1.2 1.199H64.126c-.66 0-1.2-.54-1.2-1.2h22.027z"/><path fill="#CCE6FA" d="M99.053 131.224c-4.285 0-7.757-3.48-7.757-7.774 0-4.294 3.472-7.774 7.757-7.774 4.284 0 7.756 3.48 7.756 7.774 0 4.293-3.472 7.774-7.756 7.774"/><path fill="#306396" d="M99.031 131.926c-4.702 0-8.508-3.822-8.508-8.5 0-4.696 3.827-8.497 8.508-8.497 4.702 0 8.508 3.822 8.508 8.498.02 4.677-3.806 8.5-8.508 8.5zm0-15.981c-4.132 0-7.49 3.355-7.49 7.482 0 4.128 3.358 7.482 7.49 7.482s7.49-3.354 7.49-7.482c0-4.127-3.358-7.482-7.49-7.482zM100.415 112.265h-2.748a.504.504 0 0 0-.508.508c0 .285.223.509.508.509h.855v.874h1.017v-.874h.856c.285 0 .509-.224.509-.509 0-.285-.204-.508-.489-.508M91.935 115.065l1.137 1.136.72-.72-1.137-1.135z"/><path fill="#FFB029" d="M99.031 116.82v6.607l6.229-2.257a6.608 6.608 0 0 0-6.229-4.35"/><path stroke="#FFF" stroke-linecap="round" stroke-linejoin="round" stroke-opacity=".5" stroke-width=".555" d="M107.193 67.122c0 1.174.964 2.135 2.139 2.135v.001a2.144 2.144 0 0 0-2.138 2.136h-.001a2.143 2.143 0 0 0-2.138-2.136 2.143 2.143 0 0 0 2.138-2.136zM107.193 91.095c1.023 0 1.86.835 1.86 1.857a1.862 1.862 0 0 1-1.86 1.857 1.862 1.862 0 0 1-1.859-1.857c0-1.022.836-1.857 1.859-1.857zM44.378 59.105h.001a3.89 3.89 0 0 0 3.88 3.875 3.89 3.89 0 0 0-3.88 3.876 3.89 3.89 0 0 0-3.88-3.875 3.89 3.89 0 0 0 3.88-3.876z"/><path fill="#82858F" fill-opacity=".1" d="M147.098.337v191.326H.78z"/><path stroke="#306396" stroke-dasharray="1.108449736041223,1.662674708994563" stroke-linecap="round" stroke-linejoin="round" stroke-opacity=".5" stroke-width=".555" d="M39.763 131.926h68.354"/></g></svg>