<svg xmlns="http://www.w3.org/2000/svg" width="25" height="25" viewBox="0 0 25 25"><g fill="#3C4674" fill-rule="evenodd"><path d="M24.722 13.18c.111-5-1.833-8.805-6.11-11.196-4.556-2.527-9.14-2.256-13.39.76C1.694 5.245.14 8.778.278 13.18c6.389-1.603 12.139-4.157 17.389-7.88 1.583 3.26 3 6.549 7.055 7.88zM12.528 22.99c-5.278-.028-8.584-2.963-10.195-7.854a14.05 14.05 0 0 0-1.61.38c1.083 4.892 5.5 9.24 11.833 9.212 6.194-.027 10.777-4.402 11.694-9.239-.528-.109-1.056-.244-1.583-.353-1.667 4.837-4.834 7.88-10.14 7.853z"/><path d="M12.556 19.701c2-.054 3.583-.951 4.777-2.473.223-.271-.583-1.06-.833-.788-2.444 2.555-5.611 2.555-8-.027-.222-.217-1.083.462-.889.734 1.195 1.549 2.806 2.527 4.945 2.554zM9.583 12.853c0-.652-.389-1.087-1.11-1.087-.723 0-1.084.408-1.112 1.087.056.734.472 1.087 1.167 1.06.639-.027 1.055-.435 1.055-1.06zM16.556 11.766c-.723 0-1.084.38-1.14 1.06.056.707.445 1.114 1.14 1.087.638 0 1.083-.408 1.083-1.033 0-.652-.361-1.114-1.083-1.114z"/></g></svg>