<svg xmlns="http://www.w3.org/2000/svg" width="18" height="25" viewBox="0 0 18 25"><g fill="#3C4674" fill-rule="evenodd"><path d="M17.708 18.671c-.038-.722-.17-1.48-.674-2.036-.538-.592-3.56-1.232-4.26-1.463l-.125-.041-.144-.031-.29-.082c-.02.164-.042.318-.073.472-.383 2.237-.91 4.382-1.748 6.434 0-.01-.166-1.251-.32-2.442-.156-1.108-.3-2.186-.3-2.227.03-.072.061-.133.082-.194.031-.062.062-.123.083-.175.01-.02.01-.03.021-.04l.093-.216a.351.351 0 0 0 .052-.082.645.645 0 0 0 .103-.308c0-.102-.042-.195-.073-.267l-.02-.04c0-.022 0-.022-.01-.042-.01-.01-.01-.03-.021-.041 0-.01-.01-.031-.032-.051 0-.02 0-.031-.01-.031-.031-.051-.062-.072-.093-.082-.031-.031-.072-.031-.103-.041h-.073c-.02-.021-.041-.021-.061-.021h-1.51c-.01 0-.042 0-.062.02h-.083c-.031.01-.062.01-.103.032-.032.02-.062.04-.114.133a.08.08 0 0 0-.021.041.078.078 0 0 0-.02.041c0 .02 0 .02-.011.041l-.021.031c-.031.082-.073.175-.073.277 0 .113.062.215.104.308.02.02.03.06.051.082l.093.215c.01.021.01.031.021.051.021.052.052.114.083.175.031.061.052.123.083.184 0 .041-.135 1.119-.29 2.227-.145 1.14-.3 2.31-.331 2.432a25.892 25.892 0 0 1-.549-1.498l-.724-2.586a31.129 31.129 0 0 1-.527-2.771c-.062.01-.114.03-.197.051-.062.01-.104.021-.155.031l-.114.041c-.104.02-.207.051-.3.082-.65.215-1.317.37-1.979.539-.557.142-1.16.213-1.669.495-.466.26-.621.79-.786 1.262C.044 18.88.115 20.327.1 21.709c-.01.41-.01.831 0 1.242.01.41 9.61 4.11 17.708 0 0-1.027.01-.832 0-1.242a70.251 70.251 0 0 0-.101-3.038zM14.175 7.426c-.103-.133-.277-.235-.551-.36.016-.335.033-.669.052-1.002l.029-.57.001-.004c.017-.377.034-.756.042-1.135.017-.73-.265-1.36-.78-1.88-.716-.724-1.605-1.118-2.594-1.305-.849-.16-1.737-.095-2.558-.438-.287-.12-.597-.19-.898-.277-.103-.03-.208-.052-.353-.089.112.329.207.6.326.95-.65 0-1.199-.273-1.806-.367a2.38 2.38 0 0 0-.227-.025l.09.142.585.902-1.415.052-.319.013c-.002.025-.002.05-.002.075l.2.109.658.351c-.731.808-.758 1.76-.664 2.746.057.589.081 1.18.121 1.784-.361.053-.639.197-.674.588a2.585 2.585 0 0 0-.005.07c-.05.724.11 1.397.541 2 .172.236.363.408.713.27.177.43.323.832.507 1.216.45.947 1.072 1.751 2.11 2.112a4.59 4.59 0 0 0 3.144-.014c1.09-.398 1.707-1.267 2.158-2.275.123-.275.217-.564.343-.838.034-.072.15-.166.209-.155.254.048.4-.085.533-.255.35-.447.528-.96.588-1.522.047-.443.04-.685-.104-.869zm-2.51 4.188c-.668 1.02-1.628 1.488-2.79 1.534-1.278-.058-2.238-.574-2.897-1.646a9.258 9.258 0 0 1-.933-1.992c-.027-.08-.048-.164-.073-.246.193.227.448.368.765.413.271.038.537.058.79.058.25 0 .497-.019.734-.057.563-.09.954-.406 1.129-.913.092-.266.152-.544.21-.813l.049-.225c.039-.172.098-.204.215-.207.118.003.177.035.216.207l.049.225c.058.269.118.547.21.812.175.507.566.823 1.13.913.236.038.483.058.733.058.253 0 .519-.02.79-.059.3-.043.548-.169.738-.377a8.726 8.726 0 0 1-1.065 2.315zM6.602 8.273a.761.761 0 0 0 .704-1.053c.173.032.348.074.525.138.192.069.283.216.263.427-.006.062-.01.125-.014.185-.006.089-.012.18-.023.269-.072.554-.374.87-.924.964a3.984 3.984 0 0 1-.414.042 8.821 8.821 0 0 0-.157.012l-.18-.008c-.126-.006-.244-.01-.358-.022-.434-.044-.701-.215-.82-.522a2.572 2.572 0 0 1-.154-.757c-.025-.427.076-.561.513-.681.111-.03.228-.05.345-.069a.745.745 0 0 0-.071.316c0 .42.343.759.765.759zm4.44 0c.423 0 .765-.34.765-.759a.747.747 0 0 0-.082-.334c.152.02.298.048.439.087.437.12.538.254.513.681-.016.275-.07.537-.154.758-.119.307-.387.478-.82.522-.114.011-.232.016-.358.021l-.18.008a8.822 8.822 0 0 0-.157-.011c-.136-.01-.276-.018-.414-.042-.55-.095-.852-.41-.924-.965-.011-.088-.017-.18-.023-.268l-.014-.186c-.02-.21.071-.358.263-.427a3.36 3.36 0 0 1 .437-.122.744.744 0 0 0-.056.278c.001.42.343.759.765.759zm1.248-1.578a17.908 17.908 0 0 0-1.117-.038c-.483 0-.923.025-1.344.076a9.162 9.162 0 0 1-.963.078 9.153 9.153 0 0 1-.966-.078c-.421-.05-.86-.076-1.344-.076-.341 0-.707.013-1.117.038-.235.015-.495.042-.779.078a.93.93 0 0 1 .261-.423c1.149.052 3.915-.068 5.84-2.176a.557.557 0 0 1 .098.072c.109.425.555 1.694 2.031 2.078a.829.829 0 0 1 .215.453c-.3-.038-.57-.066-.815-.082z"/></g></svg>