<svg height="191" viewBox="0 0 294 191" width="294" xmlns="http://www.w3.org/2000/svg"><g fill="none" fill-rule="evenodd"><path d="m.878 0h145.945v190.33h-145.945z" fill="#8ac44a"/><path d="m147.373 0h145.945v190.33h-145.945z" fill="#f2f2f2"/><path d="m74.824 64.45a5.912 5.912 0 0 0 -2.926.772l-24.007 13.813a5.81 5.81 0 0 0 -2.918 5.036v27.613c0 2.08 1.118 3.98 2.918 5.034l24.007 13.788a5.717 5.717 0 0 0 5.836 0l23.998-13.788c1.814-1.055 2.919-2.955 2.919-5.034v-27.613a5.784 5.784 0 0 0 -2.92-5.036l-23.996-13.813a5.93 5.93 0 0 0 -2.91-.772zm-3.322 8.633v10.68l-7.3 4.2-9.287-5.344zm6.628 10.67v-10.677l16.577 9.545-9.267 5.338zm10.62 9.925 9.264-5.333v19.06l-9.265-5.329v-8.398zm-3.308 14.116 9.258 5.332-16.571 9.538v-10.666zm-13.94 4.193v10.67l-16.581-9.53 9.28-5.337 7.3 4.197zm-10.604-9.918-9.296 5.345v-19.079l9.296 5.35zm13.926-12.604 7.29 4.21v8.4l-7.29 4.196-7.305-4.196v-8.4z" fill="#383336" fill-opacity=".1"/><path d="m73.487 64.45a5.907 5.907 0 0 0 -2.925.772l-24.008 13.813a5.81 5.81 0 0 0 -2.917 5.036v27.613c0 2.08 1.117 3.98 2.917 5.033l24.008 13.789c.891.532 1.907.8 2.925.8a5.74 5.74 0 0 0 2.911-.8l23.998-13.79c1.813-1.053 2.92-2.953 2.92-5.032v-27.613a5.786 5.786 0 0 0 -2.92-5.036l-23.998-13.813a5.935 5.935 0 0 0 -2.91-.772zm-3.322 8.633v10.68l-7.299 4.2-9.288-5.344zm6.628 10.67v-10.678l16.577 9.546-9.267 5.338zm10.62 9.925 9.264-5.333v19.06l-9.263-5.329v-8.398zm-3.308 14.116 9.259 5.332-16.572 9.538v-10.666zm-13.94 4.193v10.67l-16.58-9.53 9.278-5.337zm-10.602-9.918-9.298 5.345v-19.079l9.298 5.35zm13.924-12.604 7.29 4.21v8.4l-7.29 4.196-7.304-4.196v-8.4z" fill="#f7fafc"/><path d="m73.487 64.45a5.907 5.907 0 0 0 -2.925.772l-24.008 13.813a5.81 5.81 0 0 0 -2.917 5.036v27.613c0 2.08 1.117 3.98 2.917 5.033l24.008 13.789c.891.532 1.907.8 2.925.8a5.74 5.74 0 0 0 2.911-.8l23.998-13.79c1.813-1.053 2.92-2.953 2.92-5.032v-27.613a5.786 5.786 0 0 0 -2.92-5.036l-23.998-13.813a5.935 5.935 0 0 0 -2.91-.772zm-3.322 8.633v10.68l-7.299 4.2-9.288-5.344zm6.628 10.67v-10.678l16.577 9.546-9.267 5.338zm10.62 9.925 9.264-5.333v19.06l-9.263-5.329v-8.398zm-3.308 14.116 9.259 5.332-16.572 9.538v-10.666zm-13.94 4.193v10.67l-16.58-9.53 9.278-5.337zm-10.602-9.918-9.298 5.345v-19.079l9.298 5.35zm13.924-12.604 7.29 4.21v8.4l-7.29 4.196-7.304-4.196v-8.4z" stroke="#73a640" stroke-linecap="round" stroke-linejoin="round" stroke-width=".553"/><text fill="#fff" font-family="HelveticaNeue-Light, Helvetica Neue" font-size="12.292" font-weight="300" letter-spacing=".781"><tspan x="22.828" y="25.142">Perfect Attempts</tspan></text><path d="m102.778 64.936h.001a2.8 2.8 0 0 0 2.796 2.786 2.799 2.799 0 0 0 -2.796 2.785 2.799 2.799 0 0 0 -2.796-2.785 2.8 2.8 0 0 0 2.795-2.786zm1.472 54.174h.002c1.336 0 2.43 1.09 2.43 2.421v.002a2.432 2.432 0 0 1 -2.43 2.42h-.002a2.432 2.432 0 0 1 -2.43-2.42v-.002a2.432 2.432 0 0 1 2.43-2.42zm-57.64-58.516c0 2.78 2.283 5.054 5.073 5.054-2.79 0-5.073 2.274-5.073 5.053 0-2.779-2.283-5.053-5.072-5.053 2.789 0 5.072-2.275 5.072-5.054z" stroke="#fff" stroke-linecap="round" stroke-linejoin="round" stroke-opacity=".5" stroke-width=".553"/><path d="m146.725.335v190.33h-145.946z" fill="#82858f" fill-opacity=".1" opacity=".4"/><path d="m27 131.239h93.505" style="stroke:#73a640;stroke-dasharray:1.105638 1.658457;stroke-linecap:round;stroke-linejoin:round;stroke-opacity:.5;stroke-width:.553"/><g transform="translate(159.64 15.159)"><text fill="#333" font-family="HelveticaNeue-Light, Helvetica Neue" font-size="12.124" font-weight="300"><tspan x="1.044" y="12">CURRENT</tspan> <tspan x="10.701" y="27.352">VALUE</tspan></text><text fill="#333" font-family="HelveticaNeue-Light, Helvetica Neue" font-size="12.124" font-weight="300"><tspan x="77.223" y="12">TARGET</tspan> <tspan x="81.417" y="27.352">VALUE</tspan></text><text fill="#4caf50" font-family=".SFNSDisplay, .SF NS Display" font-size="24.247"><tspan x="41.412" y="150.333">10</tspan> <tspan font-family=".AppleSystemUIFont" font-size="16.165" x="41.412" y="178.333">%</tspan></text><g fill="#333"><text font-family="HelveticaNeue-Light, Helvetica Neue" font-size="14.144" font-weight="300"><tspan x="3.021" y="113.037">Score Improvement</tspan></text><text font-family=".SFNSDisplay, .SF NS Display" font-size="24.247"><tspan x="7.806" y="59.381">20</tspan> <tspan font-family=".AppleSystemUIFont" font-size="18.186" x="36.919" y="59.381">%</tspan></text><text font-family=".SFNSDisplay, .SF NS Display" font-size="24.247"><tspan x="77" y="59">40</tspan> <tspan font-family=".AppleSystemUIFont" font-size="18.186" x="107.049" y="59">%</tspan></text></g></g></g></svg>