<svg height="193" viewBox="0 0 294 193" width="294" xmlns="http://www.w3.org/2000/svg" xmlns:xlink="http://www.w3.org/1999/xlink"><mask id="a" fill="#fff"><path d="m2.084.146h29.111c.392 0 .747.16 1.004.418.258.258.418.614.418 1.005v2.831c0 .392-.16.748-.418 1.006a1.42 1.42 0 0 1 -1.004.418h-29.11c-.392 0-.746-.16-1.004-.418l-.002-.002a1.42 1.42 0 0 1 -.417-1.004v-2.83c0-.39.16-.746.417-1.004a1.417 1.417 0 0 1 1.005-.421zm29.111.724h-29.11a.7.7 0 0 0 -.698.699l-.002 2.831a.697.697 0 0 0 .698.699h29.111a.698.698 0 0 0 .698-.699v-2.83a.698.698 0 0 0 -.698-.699zm-30.533-.724h31.955v5.677h-31.955z" fill="#fff" fill-rule="evenodd"/></mask><g fill="none" fill-rule="evenodd"><path d="m.782.338h146.435v191.926h-146.435z" fill="#663bb8"/><path d="m146.782.338h146.435v191.926h-146.435z" fill="#f2f2f2"/><text fill="#fff" font-family="HelveticaNeue-Light, Helvetica Neue" font-size="13.075" font-weight="300" letter-spacing="1.038"><tspan x="9.992" y="26.441">Perfect attempts on</tspan> <tspan x="17.552" y="42.82">difficult questions</tspan> <tspan x="133.555" y="42.82"/></text><path d="m108.879 70.958c0 1.179.964 2.143 2.14 2.143-1.176 0-2.14.965-2.14 2.143a2.148 2.148 0 0 0 -2.14-2.142v-.002c1.177 0 2.14-.964 2.14-2.143zm-3.735 22.677h.001c1.024 0 1.86.838 1.86 1.863a1.866 1.866 0 0 1 -1.86 1.863 1.866 1.866 0 0 1 -1.86-1.862v-.001c0-1.025.836-1.863 1.86-1.863zm-60.147-35.22h.001a3.897 3.897 0 0 0 3.883 3.887v.001a3.897 3.897 0 0 0 -3.883 3.888 3.897 3.897 0 0 0 -3.883-3.888 3.897 3.897 0 0 0 3.882-3.888z" stroke="#fff" stroke-linecap="round" stroke-linejoin="round" stroke-opacity=".5" stroke-width=".549"/><path d="m50.046 65.698h47.906a2.449 2.449 0 0 1 2.436 2.44v61.762a2.453 2.453 0 0 1 -2.436 2.44h-47.906a2.449 2.449 0 0 1 -2.436-2.44v-61.762a2.445 2.445 0 0 1 2.436-2.44z" fill="#baabe8"/><path d="m50.046 65.698h47.906a2.449 2.449 0 0 1 2.436 2.44v61.762a2.453 2.453 0 0 1 -2.436 2.44h-47.906a2.449 2.449 0 0 1 -2.436-2.44v-61.762a2.445 2.445 0 0 1 2.436-2.44z" stroke="#6b40b8" stroke-linecap="round" stroke-linejoin="round" stroke-width=".549"/><path d="m54.677 74.08h40.276c.727 0 1.321.594 1.321 1.322v50.906c0 .728-.594 1.323-1.321 1.323h-40.276a1.326 1.326 0 0 1 -1.322-1.323v-50.906c0-.728.594-1.323 1.322-1.323z" fill="#ede8fa"/><path d="m54.677 74.08h40.276c.727 0 1.321.594 1.321 1.322v50.906c0 .728-.594 1.323-1.321 1.323h-40.276a1.326 1.326 0 0 1 -1.322-1.323v-50.906c0-.728.594-1.323 1.322-1.323z" stroke="#8775bf" stroke-linecap="round" stroke-linejoin="round" stroke-width=".549"/><path d="m60.241 79.468h17.913v3.699h-17.913zm.411 13.108h7.021v7.03h-7.02zm10.653 0h7.02v7.03h-7.02zm10.652 0h7.02v7.03h-7.02zm-21.305 10.609h7.021v7.03h-7.02zm10.653 0h7.02v7.03h-7.02zm10.652 0h7.02v7.03h-7.02zm-21.305 10.609h7.021v7.03h-7.02zm10.653 0h7.02v7.03h-7.02zm10.652 0h7.02v7.03h-7.02z" fill="#9682d1"/><path d="m59.327 87.556h30.975" stroke="#9682d1" stroke-linecap="round" stroke-linejoin="round" stroke-width="1.372"/><path d="m59.444 71.801h29.111c.392 0 .747.16 1.004.418.258.258.418.614.418 1.005v2.83c0 .392-.16.748-.418 1.006a1.418 1.418 0 0 1 -1.004.418h-29.111c-.39 0-.746-.16-1.003-.418l-.002-.002a1.42 1.42 0 0 1 -.417-1.003v-2.83c0-.391.16-.747.417-1.004v-.002a1.42 1.42 0 0 1 1.005-.418zm29.111.725h-29.111a.693.693 0 0 0 -.493.206l-.001-.001a.696.696 0 0 0 -.204.493v2.83a.698.698 0 0 0 .698.7h29.111a.697.697 0 0 0 .494-.206h-.001a.7.7 0 0 0 .205-.493v-2.83a.697.697 0 0 0 -.205-.493.692.692 0 0 0 -.493-.206z" fill="#000" fill-opacity=".2"/><path d="m2.084.146h29.111c.392 0 .747.16 1.004.418.258.258.418.614.418 1.005v2.831c0 .392-.16.748-.418 1.006a1.42 1.42 0 0 1 -1.004.418h-29.11c-.392 0-.746-.16-1.004-.418l-.002-.002a1.42 1.42 0 0 1 -.417-1.004v-2.83c0-.39.16-.746.417-1.004a1.417 1.417 0 0 1 1.005-.421zm29.111.724h-29.11a.7.7 0 0 0 -.698.699l-.002 2.831a.697.697 0 0 0 .698.699h29.111a.698.698 0 0 0 .698-.699v-2.83a.698.698 0 0 0 -.698-.699z" mask="url(#a)" transform="translate(57.36 71.311)"/><path d="m64.177 70.617h19.645c.66 0 1.2.54 1.2 1.202v.001c0 .661-.54 1.202-1.2 1.202h-19.645c-.66 0-1.2-.54-1.2-1.202v-.001c0-.662.54-1.202 1.2-1.202" fill="#fff"/><path d="m85.022 71.82c0 .66-.54 1.202-1.201 1.202h-19.643a1.205 1.205 0 0 1 -1.201-1.203h22.045z" fill="#e6e6e6"/><path d="m98.011 114.203c4.962 0 8.986 4.028 8.986 8.996 0 4.969-4.024 8.996-8.986 8.996s-8.986-4.027-8.986-8.996c0-4.968 4.024-8.996 8.986-8.996z" fill="#5ec782"/><path d="m98.011 114.203c4.962 0 8.986 4.028 8.986 8.996 0 4.969-4.024 8.996-8.986 8.996s-8.986-4.027-8.986-8.996c0-4.968 4.024-8.996 8.986-8.996z" stroke="#fff" stroke-width=".549"/><path d="m98.013 117.533a.99.99 0 0 0 -.493.132l-4.049 2.34a.986.986 0 0 0 -.492.855v4.679a.99.99 0 0 0 .492.853l4.049 2.337a.956.956 0 0 0 .984 0l4.047-2.337a.986.986 0 0 0 .492-.853v-4.68a.982.982 0 0 0 -.492-.853l-4.047-2.341a.994.994 0 0 0 -.49-.132zm-.56 1.464v1.81l-1.231.711-1.567-.905zm1.118 1.808v-1.81l2.795 1.618-1.563.905zm1.79 1.682 1.563-.903v3.23l-1.563-.903zm-.558 2.393 1.562.904-2.794 1.617v-1.808zm-2.35.71v1.809l-2.797-1.615 1.566-.905 1.23.712zm-1.789-1.68-1.567.906v-3.234l1.567.907v1.42zm2.35-2.136 1.228.713v1.423l-1.229.712-1.232-.712v-1.423l1.232-.713z" fill="#fff"/><path d="m27.09 132.34h93.819" style="stroke:#baabe8;stroke-dasharray:1.097623 1.646435;stroke-linecap:round;stroke-linejoin:round;stroke-opacity:.5;stroke-width:.549"/><path d="m36.086 122.953-.16-3.679s-.026-.185.16-.309c.185-.124 5.085-4.013 5.085-4.013s.044-.09.275-.072c.232.019 3.387.325 3.387.325s.306.029.343.26c.13-.139.288-.176.473-.158.186.02 3.378.335 3.378.335s.325.01.399.26c.149-.13.334-.185.622-.158.287.028 3.452.353 3.452.353s.325.028.315.39c-.01.363-.14 3.484-.14 3.484s0 .149-.101.325c-.102.177-1.188 1.7-1.188 1.7l1.707 1.71s.186.093.168.474c-.019.38-.158 3.512-.158 3.512s.019.25-.205.362c.103.13.168.204.158.446-.009.242-.148 3.4-.148 3.4s.028.4-.436.465-12.582 1.848-12.582 1.848-.502.112-.761-.297c-.26-.408-2.691-5.723-2.691-5.723s-.056-.13-.065-.594c-.01-.464-.12-2.815-.12-2.815s-.018-.237.14-.339l-.13-.251-.001-.516-.844-.12c-.001 0-.307-.028-.332-.605zm8.814-2.307a.23.23 0 0 0 -.203-.22l-3.72-.423a.175.175 0 0 0 -.202.175v3.636c0 .11.09.208.202.22l3.72.423c.112.012.203-.066.203-.175zm-.327 4.83c0-.104-.093-.177-.205-.164l-3.73.444c-.111.013-.202.108-.2.212l.031 3.457c.001.104.093.177.205.164l3.73-.444c.112-.014.202-.108.2-.212zm.11 4.32c0-.104-.091-.175-.204-.16l-3.729.514c-.113.015-.202.112-.201.215l.032 3.458c0 .103.092.175.204.16l3.73-.514c.112-.015.202-.112.201-.216l-.032-3.457zm4.585-.46c0-.1-.088-.167-.195-.153l-3.556.49c-.106.014-.192.106-.19.205l.03 3.296c0 .099.088.167.194.153l3.556-.49c.107-.015.192-.107.192-.205zm.045-4.09-2.254-.248-1.496.137a.225.225 0 0 0 -.197.209l-.065 3.432c-.001.103.083.177.19.165l3.569-.409c.106-.012.195-.105.197-.208l.056-3.079zm4.63 3.46c0-.099-.086-.168-.193-.155l-3.701.44c-.107.014-.195.105-.195.204l-.014 3.296c0 .099.086.168.193.155l3.562-.441c.107-.014.193-.105.194-.203zm.095-4.274c.002-.099-.083-.17-.19-.159l-3.207.329-.616.86-.065 2.675c-.002.098.083.17.19.16l3.57-.37c.107-.012.196-.102.198-.2zm-4.202-3.149c0-.11-.093-.208-.208-.222l-3.82-.438c-.115-.013-.208.065-.208.175v3.636c0 .108.093.208.207.22l3.82.439c.116.013.209-.065.209-.174zm-9.774-1.236a.233.233 0 0 0 -.2-.218l-3.533-.383c-.106-.012-.19.067-.185.176l.133 3.619a.234.234 0 0 0 .2.217l3.535.383c.105.012.188-.067.185-.175l-.135-3.62zm-.945 7.7.91 1.7-.103-3.808-.909-1.58.102 3.689zm.14 4.218.89 1.849-.12-3.567-.873-1.784.102 3.502zm-.994-2.136.845 1.802-.093-3.521-.845-1.58zm-.805-1.693.676 1.454-.12-3.403-.715-1.366.16 3.315zm.652-2.344.844 1.607-.096-3.507-.817-.116.07 2.016zm-.812-1.573.696 1.294-.06-1.765-.636-.074zm-.847-5.273c.018 0 3.192.415 3.496.44.302.025.426-.142.426-.142s1.058-.923 1.218-1.078c.161-.155-.086-.161-.086-.161l-3.118-.347c-.495-.056-.556.037-.556.037l-1.435 1.115c-.112.087.037.136.055.136zm1.936-1.542s2.809.329 3.26.372c.449.043.495-.1.495-.1s.841-.768 1.045-.936c.204-.17-.043-.197-.043-.197s-2.988-.328-3.229-.347c-.241-.018-.285.056-.285.056l-1.317 1.034c-.102.08.074.118.074.118zm1.726-1.404s2.827.328 3.155.359c.329.03.359-.013.408-.044.05-.031.81-.725.996-.899.186-.175 0-.172 0-.172s-2.777-.272-3.075-.304c-.296-.03-.358.037-.358.037l-1.175.923c-.09.07.05.1.05.1zm4.293.278c-.167.136 0 .18 0 .18s2.938.328 3.312.365c.373.037.375-.093.375-.093s.736-.793.86-.916c.124-.125-.037-.118-.037-.118s-3.075-.316-3.278-.335c-.205-.018-.262.075-.262.075s-.803.706-.97.842zm-1.515 1.363c-.285.224-.087.26-.087.26s2.815.316 3.316.377c.501.062.546-.08.546-.08s.74-.762.947-.972c.208-.211 0-.199 0-.199s-3.114-.347-3.343-.365c-.228-.019-.346.068-.346.068s-.749.688-1.033.911zm-1.782 1.64c-.204.168-.068.212-.068.212s3.316.402 3.668.433c.353.031.427-.111.427-.111s.755-.775 1.027-1.035 0-.264 0-.264-3.093-.361-3.426-.392c-.333-.03-.44.075-.44.075s-.984.916-1.188 1.083zm4.8.558c-.173.161-.062.205-.062.205s3.706.477 3.916.489c.211.012.285-.105.285-.105s.68-.83.89-1.103c.211-.272 0-.272 0-.272s-3.167-.366-3.532-.397c-.365-.03-.451.081-.47.081 0 0-.854.941-1.027 1.102zm1.578-1.672c-.173.173-.062.242-.062.242s3.03.371 3.483.42c.451.05.526-.11.526-.11s.65-.843.804-1.016c.154-.174-.043-.199-.043-.199s-3.23-.353-3.477-.384c-.247-.03-.371.106-.371.106s-.687.767-.86.941zm1.336-1.474c-.192.18 0 .229 0 .229s2.907.34 3.303.366c.396.024.396-.031.483-.087s.6-.78.736-.923c.136-.142 0-.142 0-.142s-3.118-.322-3.36-.354c-.24-.03-.327.069-.327.069s-.643.662-.835.842zm3.928 4.7s.285-.377.619-.86c.334-.481.26-.539.26-.539s.117-2.787.136-3.164c.018-.377-.062-.2-.062-.2s-.569.738-.724.911c-.155.174-.117.378-.117.378l-.112 3.475zm-1.157 1.673.984-1.437.111-3.652s-.662.815-.86 1.045c-.197.229-.173.452-.173.452zm-1.324 1.933 1.09-1.555.098-3.89-.884 1.07c-.291.35-.235.571-.235.571z" fill="#663bb8"/><path d="m40.113 115.998 3.155.36c.329.03.359-.012.408-.044l.996-.899c.186-.175 0-.172 0-.172l-3.074-.304c-.298-.03-.359.037-.359.037l-1.175.923c-.09.07.05.099.05.099m5.262-.563-.97.842c-.167.136 0 .18 0 .18l3.312.365c.373.037.375-.093.375-.093l.86-.917c.124-.124-.037-.117-.037-.117l-3.278-.335c-.205-.019-.262.075-.262.075" fill="#baabe8"/><path d="m49.658 115.85-.835.842c-.192.18 0 .229 0 .229s2.908.34 3.303.366c.396.024.396-.031.482-.087.088-.056.6-.78.737-.923.136-.142 0-.142 0-.142l-3.36-.354c-.24-.03-.327.069-.327.069" fill="#ede8fa"/><path d="m52.194 117.503-3.476-.384c-.247-.031-.371.105-.371.105l-.86.942c-.173.173-.062.242-.062.242l3.483.42c.451.05.525-.11.525-.11s.65-.843.805-1.016c.154-.173-.044-.199-.044-.199m-1.255 1.549-3.533-.397c-.365-.03-.451.08-.47.08 0 .001-.854.942-1.027 1.103s-.062.205-.062.205 3.705.477 3.916.49c.21.011.285-.106.285-.106l.89-1.103c.21-.272 0-.272 0-.272" fill="#baabe8"/><path d="m45.136 119.814 1.027-1.035c.272-.26 0-.265 0-.265l-3.426-.391c-.333-.032-.44.074-.44.074s-.984.917-1.188 1.084-.068.21-.068.21l3.668.434c.353.031.427-.111.427-.111m-2.332-1.914 3.316.377c.501.062.546-.08.546-.08l.947-.973c.207-.21 0-.198 0-.198l-3.343-.365c-.23-.019-.346.068-.346.068s-.749.688-1.033.911c-.285.224-.087.26-.087.26m-.662-.224 1.046-.936c.203-.17-.044-.197-.044-.197l-3.229-.347c-.241-.019-.285.056-.285.056l-1.317 1.035c-.102.08.074.117.074.117l3.26.372c.449.043.495-.1.495-.1" fill="#ede8fa"/><path d="m41.505 118.005-3.118-.347c-.495-.056-.557.037-.557.037l-1.434 1.115c-.112.087.037.136.055.136s3.192.415 3.495.44.427-.142.427-.142l1.218-1.079c.161-.154-.086-.16-.086-.16" fill="#baabe8"/><path d="m39.862 119.83-3.534-.384a.163.163 0 0 0 -.184.176l.133 3.619a.234.234 0 0 0 .2.217l3.535.384a.164.164 0 0 0 .184-.176l-.134-3.62a.232.232 0 0 0 -.2-.217" fill="#fcd936"/><path d="m40.775 120.178v3.636c0 .11.09.208.202.22l3.72.422a.175.175 0 0 0 .203-.175v-3.635a.23.23 0 0 0 -.203-.22l-3.72-.422a.174.174 0 0 0 -.202.174" fill="#f56b5c"/><path d="m45.6 120.798v3.636c0 .11.093.208.208.22l3.82.439c.115.013.208-.065.208-.174v-3.637c0-.108-.093-.207-.208-.221l-3.82-.438c-.115-.013-.208.066-.208.175" fill="#5ec782"/><path d="m50.339 121.194-.068 3.804 1.088-1.555.1-3.89-.885 1.07c-.291.35-.235.571-.235.571m1.317-1.721-.062 3.592.985-1.436.11-3.653-.86 1.045c-.197.229-.173.452-.173.452m1.207-1.555-.112 3.475s.285-.378.618-.86c.334-.482.26-.54.26-.54l.137-3.164c.018-.377-.062-.2-.062-.2s-.569.738-.724.911c-.155.175-.117.378-.117.378" fill="#6b809c"/><path d="m37.994 125.513-.06-1.765-.636-.074v.545z" fill="#baabe8"/><path d="m38.04 123.776.07 2.016.845 1.607-.097-3.507z" fill="#ede8fa"/><path d="m39.015 124.06.102 3.688.91 1.7-.103-3.809z" fill="#9682d1"/><path d="m40.638 125.756c-.111.013-.202.108-.2.212l.031 3.457c.001.104.093.177.205.164l3.73-.444c.112-.014.202-.108.2-.212l-.031-3.457c-.001-.104-.093-.178-.205-.164z" fill="#ede8fa"/><path d="m45.366 125.345-.065 3.431c-.001.103.083.177.19.165l3.569-.409c.106-.012.195-.105.197-.208l.056-3.079-2.253-.247-1.497.137a.224.224 0 0 0 -.197.21m4.659.116-.065 2.676c-.002.1.083.17.19.158l3.57-.369c.107-.01.196-.1.199-.199l.119-3.295c.002-.099-.083-.17-.19-.159l-3.207.329z" fill="#9682d1"/><path d="m53.75 128.55-3.701.442c-.107.013-.194.104-.195.203l-.014 3.296c0 .099.086.168.193.155l3.562-.442c.107-.013.193-.104.194-.202l.154-3.296c0-.099-.086-.169-.193-.156" fill="#5ec782"/><path d="m49.298 132.632-.03-3.296c0-.1-.089-.167-.195-.153l-3.556.49c-.106.015-.193.107-.19.205l.03 3.296c0 .098.088.167.195.153l3.555-.49c.107-.014.192-.106.19-.205" fill="#ede8fa"/><path d="m44.716 133.253-.032-3.457c0-.104-.092-.175-.205-.16l-3.729.514c-.112.015-.202.112-.201.215l.032 3.458c0 .103.092.175.204.16l3.73-.513c.112-.016.202-.112.201-.217" fill="#5ec782"/><path d="m40.147 133.814-.12-3.568-.873-1.783.102 3.503zm-2.013-4.224-.122-3.403-.713-1.366.16 3.315z" fill="#ede8fa"/><path d="m38.17 126.53.093 3.298.845 1.803-.093-3.521z" fill="#baabe8"/><path d="m147.217.338v191.926h-146.435z" fill="#82858f" fill-opacity=".1"/><text fill="#333" font-family="HelveticaNeue-Light, Helvetica Neue" font-size="12" font-weight="300"><tspan x="160.044" y="27">CURRENT</tspan> <tspan x="169.602" y="42.348">VALUE</tspan></text><text fill="#333" font-family="HelveticaNeue-Light, Helvetica Neue" font-size="12" font-weight="300"><tspan x="235.45" y="27">TARGET</tspan> <tspan x="239.602" y="42.348">VALUE</tspan></text><text fill="#4caf50" font-family=".SFNSDisplay, .SF NS Display" font-size="24"><tspan x="200" y="164">20</tspan> <tspan font-family=".AppleSystemUIFont" font-size="16" x="228.84" y="164">%</tspan></text><g fill="#333"><text font-family="HelveticaNeue-Light, Helvetica Neue" font-size="14" font-weight="300"><tspan x="162" y="127">Score Improvement</tspan></text><g font-family=".SFNSDisplay, .SF NS Display" font-size="24"><text><tspan x="175.309" y="74">15</tspan> <tspan font-family=".AppleSystemUIFont" font-size="18" x="181.14" y="102">%</tspan></text><text><tspan x="239" y="74">35</tspan> <tspan font-family=".AppleSystemUIFont" font-size="18" x="267.945" y="74">%</tspan></text></g></g></g></svg>