<svg height="22" viewBox="0 0 25 22" width="25" xmlns="http://www.w3.org/2000/svg"><g fill="none" fill-rule="evenodd"><path d="m0 9.789c0 .023.003.045.003.067v-.134c0 .022-.003.044-.003.067z" fill="#6e6e6e"/><g fill="#3c4674"><circle cx="7.531" cy="7.741" r="1"/><path d="m17.103 12.066a.868.868 0 1 0 -.398-1.69.868.868 0 0 0 .398 1.69z"/><path d="m22.57 18.402c-1.148 0-2.523-1.294-3.98-2.664-.158-.15-.32-.3-.482-.453l-.495-2.113a.929.929 0 1 0 -1.832.139c-1.451-1.06-3.084-1.853-5.017-1.853v-8.333l-5.556-3.125-5.208 3.125v18.75h1.042v-1.389h3.472v1.389h1.042v-1.389h4.167v1.389h1.041v-8.333c2.455 0 4.46 1.888 6.4 3.713 1.765 1.662 3.432 3.231 5.406 3.231h.347v1.389h1.042v-1.389h1.041v-2.084zm-18.056 1.39h-3.472v-1.39h3.472zm0-2.084h-3.472v-1.388h3.472v1.39zm0-2.083h-3.472v-1.389h3.472zm5.208-4.167h-1.069l-.413-1.766a.93.93 0 1 0 -1.814.425l.314 1.341h-5.698v-7.638h8.68v7.64z"/></g></g></svg>