<svg xmlns="http://www.w3.org/2000/svg" width="25" height="25" viewBox="0 0 25 25"><g fill="none" fill-rule="evenodd"><circle cx="12.5" cy="12.5" r="12.5" fill="#3C4674"/><path fill="#FFF" d="M15.69 17.724c.406 0 .758-.07 1.053-.21.296-.14.535-.334.72-.58.183-.247.319-.538.406-.871.087-.334.131-.694.131-1.081s-.044-.748-.13-1.082a2.492 2.492 0 0 0-.408-.87 1.892 1.892 0 0 0-.719-.58c-.295-.141-.647-.211-1.053-.211-.407 0-.758.07-1.054.21-.295.14-.535.334-.72.58-.183.247-.319.538-.406.871-.087.334-.13.695-.13 1.082 0 .387.043.747.13 1.08.087.334.223.625.407.871.184.247.424.44.72.58.295.141.646.211 1.053.211zm-6.38-5.63c-.3 0-.55-.066-.748-.196a1.44 1.44 0 0 1-.472-.508 2.294 2.294 0 0 1-.247-.682 3.726 3.726 0 0 1-.073-.719c0-.232.024-.469.073-.71.048-.243.13-.465.247-.668a1.46 1.46 0 0 1 .472-.5c.199-.131.448-.197.748-.197.31 0 .565.066.763.196.199.13.356.298.473.5.116.204.196.426.24.668a4.004 4.004 0 0 1 0 1.43 2.156 2.156 0 0 1-.24.682 1.44 1.44 0 0 1-.473.508c-.198.13-.453.196-.763.196zm0 .653c.407 0 .758-.07 1.054-.21.295-.141.535-.334.72-.581.183-.247.319-.537.406-.87.087-.335.13-.695.13-1.082 0-.387-.043-.747-.13-1.081a2.492 2.492 0 0 0-.407-.87 1.831 1.831 0 0 0-.72-.574c-.295-.136-.646-.203-1.053-.203-.406 0-.758.067-1.053.203a1.831 1.831 0 0 0-.72.573c-.183.247-.319.537-.406.87-.087.335-.131.695-.131 1.082 0 .387.044.747.13 1.081.088.334.224.624.408.87.184.248.423.441.719.581.295.14.647.21 1.053.21zM9.66 18l6.582-11h-.698L8.976 18h.683zm6.03-.929c-.3 0-.55-.065-.749-.196a1.44 1.44 0 0 1-.472-.508 2.294 2.294 0 0 1-.247-.682 3.726 3.726 0 0 1-.073-.718c0-.232.024-.47.073-.711.048-.242.13-.464.247-.668a1.46 1.46 0 0 1 .472-.5c.199-.13.448-.196.749-.196.31 0 .564.065.762.196.199.13.356.297.473.5.116.204.196.426.24.668a4.004 4.004 0 0 1 0 1.43 2.156 2.156 0 0 1-.24.681 1.44 1.44 0 0 1-.473.508c-.198.13-.452.196-.762.196z"/></g></svg>