<svg height="191" viewBox="0 0 295 191" width="295" xmlns="http://www.w3.org/2000/svg"><g fill="none" fill-rule="evenodd"><path d="m.88 0h146.393v190.33h-146.392z" fill="#70bdfa"/><path d="m148 0h146.392v190.33h-146.392z" fill="#f2f2f2"/><text fill="#fff" font-family="HelveticaNeue-Light, Helvetica Neue" font-size="12.32" font-weight="300" letter-spacing=".783"><tspan x="49.319" y="25.142">Stamina</tspan></text><path d="m97.088 50.955a2.327 2.327 0 0 0 2.329 2.312 2.327 2.327 0 0 0 -2.328 2.313h-.001a2.327 2.327 0 0 0 -2.328-2.312v-.001c1.28 0 2.328-1.04 2.328-2.312zm10.039 34.013h.001a1.52 1.52 0 0 1 1.521 1.51v.002a1.52 1.52 0 0 1 -1.521 1.51h-.001a1.52 1.52 0 0 1 -1.521-1.51v-.002c0-.83.684-1.51 1.52-1.51zm-63.149-26.952h.001c0 1.734 1.429 3.153 3.175 3.153v.002c-1.746 0-3.175 1.418-3.175 3.153 0-1.735-1.43-3.153-3.176-3.153v-.002c1.747 0 3.175-1.419 3.175-3.153z" stroke="#fff" stroke-linecap="round" stroke-linejoin="round" stroke-opacity=".5" stroke-width=".554"/><path d="m34.138 117.853c.18 6.281 2.35 8.004 6.21 11.819l-39.378.151v2.33h32.009c19.731 0 39.789-.351 59.478.027 21.312.408 21.62-27.542 1.942-28.764l-4.06.513c-.108 1.14.029 1.541.787 2.275 17.042-2.67 20.208 18.05 7.541 22.786-14.653 5.48-23.138-15.786-9.501-21.971l-.664-2.069c-3.258.62-7.068 5.24-7.808 8.538l.431.842c.793.573.449 1.623.287 2.518l-1.562.05.02.955c.29 6.413 2.344 8.019 6.212 11.818l-29.213.148c3.115-2.637 2.995-3.778 5.115-6.217.045-1.428.497-.44-.357-1.314l-2.2.176c-.551 7.068-17.362 11.854-22.021-.147-1.812-4.667-.615-10.185 3.092-13.4 4.818-4.178 8.511-3.37 13.936-1.725l1.22-1.83c-9.473-5.861-20.948 1.555-21.516 12.49" fill="#3b3d42"/><path d="m76.87 75.528c4.554.565 4.272-.266 9.77 4.504l3.923-2.414c-.905-2.97-2.548-2.68-3.79-4.54-1.823-1.382-3.313-1.74-5.657-2.22-4.74.08-5.889-1.592-9.777-2.107-4.302-.57-6.773.605-10.682 1.515-11.715 2.727-12.07-3.388-18.858-3.546l-.07 4.662c6.94 2.877 8.617 5.38 17.026 4.342 3.15-.39 6.078-1.675 9.037-1.997 4.28-.466 5.409 1.32 9.079 1.801" fill="#f55947"/><path d="m62.636 92.993c1.954.178 7.823 3.13 9.86 4.142 1.376.435 1.514.303 2.421 1.302l1.131.29c-.126 1.121.394.525-.707 1.479l-1.284 4.905-.116 2.118 3.23 1.138.757-1.606 2.741-6.524.923-1.817c-.643-2.246-5.9-6.596-7.75-8.644-1.556-.913-2.775-2.175-4.381-3.198-.727-.462-1.654-.78-2.255-1.247-2.418-1.877-.131-1.75-4.028-1.614-2.109.403-3.624 1.907-3.756 4.127-.182 3.029 1.524 3.514 3.214 5.149" fill="#0075b8"/><path d="m63.178 83.717c2.345-.081 1.61-.263 4.028 1.614.6.467 1.528.785 2.255 1.247 1.606 1.023 2.825 2.285 4.381 3.198l.114-.757 4.494 2.712c.602-1.867 1.435-.97 2.166-2.745l-3.15-2.238c1.13-1.074 1.858-1.834 3.243-1.861.993-2.072 4.429-2.953 5.93-4.855-5.497-4.77-4.892-4.26-9.768-4.504-1.662 1.008-9.954 7.375-11.44 7.66-.785.362-1.7.508-2.253.529m-5.095 30.563-.898.774-5.524-.058c-1.96.432-1.482.638-1.997-.717-1.978 1.79-2.218.604-3.284 2.09-.891 1.24-.498 2.937.763 3.705l16.701 2.875c3.568.614 6.493-1.027 7.114-4.022l4.639-.465-3.867.007.011-1.607-1.558-.364-1.034-1.051c-1.889-.69-1.485-.081-2.845-1.376l-.419.934c-1.32-.158-.762.11-1.629-.803-1.488.679-1.109.805-3.089.862-1.748.051-2.709.515-3.084-.785" fill="#c2d6e3"/><path d="m34.138 117.853c.568-10.937 12.043-18.351 21.516-12.492l-1.22 1.83c-.448 1.287-3.726 6.343-4.77 7.088.515 1.355.038 1.149 1.997.717l4.498-6.427 1.098-1.97 3.067 2.598 1.058-1.282-2.877-3.037 2.031-3.18 2.572 8.446 1.148 4.058c.867.913.309.645 1.63.803l.418-.934-.171-1.684c-.75-.566-1.831-3.913-1.156-4.587-1.292-.255-2.415-6.077-2.55-7.47l4.472-.03 6.215-.002 2.227-.092c1.1-.954.581-.358.707-1.48l-1.13-.289-2.3-.069-7.048-.014-3.728.066-.252-.953-2.044.201.544 1.505-3.175 4.703c-6.54-2.428-10.495-3.562-16.949.237-4.33 2.549-7.999 8.329-7.46 13.642zm47.454-19.433-.923 1.817 4.093.263-6.834 6.26-.757 1.607-.52 2.027c2.658-1.192 8.115-8.422 10.324-9.302l.627 1.85c-3.212 1.935-7.206 3.893-8.575 9.86l1.667.686c.74-3.297 4.55-7.918 7.808-8.537 1.009 3.141 3.718 8.13 3.833 10.851.842.952.84 1.4 1.21 2.748l.865.214.617-.359c.192-1.29-.266-1.915-.613-3.214-.786-1.08-3.738-9.196-4.075-11.262l4.061-.513-.061-1.537c-2.038-.139-3.63.025-5.016.35l-1.941-5.077-1.91.085.28 1.188z" fill="#f55947"/><path d="m83.3 69.015-2.197.35.013 1.493c2.181.801 3.51 1.32 5.657 2.22l3.35.041.063-3.045 4.794-.554c2.715-1.678 2.913-3.019 1.688-5.975-.4 2.823-11.556 1.492-13.121 1.033z" fill="#3b3d42"/><path d="m77.783 112.443-1.57-1.443c-.702-1.191-1.628-1.18-3.107-1.795l-1.698 1.061-1.404 4.624-.855.556c1.272-.983.549-.544 1.07-.418l10.096.05c1.59-.384.562-.025.81-.749l-.43-.842-1.668-.685-1.244-.36z" fill="#fff"/><path d="m64.977 107.8c-.675.674.406 4.021 1.156 4.587l7.051-5.528.446-1.748-.516-4.813-6.215.002 1.986 4.21c-1.797 1.177-2.573 1.587-3.908 3.29m-5.431-10.132 2.044-.201c1.897-.755 1.372-.322 2.582-1.794l1.398 2.68 7.048.015-.121-1.233c-2.038-1.011-7.907-3.964-9.86-4.142l.46.961-7.602.182c-1.633 1.202-1.396 2.454-1.159 4.36z" fill="#3b3d42"/><path d="m78.45 91.731c2.678 1.813 3.383 1.889 6.198 3.079l1.913.074 3.44-.188-.595-3.537 1.89.237-2.889-1.048c-.962 1.089 1.002.387-1.403.896-2.147.453-5.37-1.784-6.388-2.258-.731 1.774-1.564.877-2.165 2.745m8.322-18.653c1.242 1.86 2.885 1.57 3.79 4.54.565-.397 1.056-.74 1.483-1.049a2.372 2.372 0 0 1 -.315-.254c-.49-.475-.713-1.115-.573-1.976l1.172.185c-.07.44.02.743.23.945.128.125.301.227.513.312 1.653-1.392 1.797-2.427 1.907-6.26l-4.794.553-.062 3.045z" fill="#f0f2f5"/><path d="m56.159 108.57c1.422.95 2.855 2.809 3.462 4.575l-1.538 1.134c.375 1.3 1.336.836 3.084.785 1.98-.057 1.6-.183 3.09-.862l-1.15-4.058-1.482 1.263-1.3-2.21-3.068-2.597zm24.457-19.584c1.018.474 4.24 2.711 6.388 2.258 2.405-.509.44.193 1.403-.896-1.924-.37-5.954-4.025-7.698-5.462-1.385.027-2.113.788-3.243 1.862z" fill="#3b3d42"/><path d="m70.219 115.029-.036 1.47 1.558.363 3.847.097.009 1.503.565-1.685 1.964.168 1.724-.048 1.563-.048c.16-.896.505-1.946-.288-2.519-.248.724.78.365-.81.75z" fill="#0075b8"/><path d="m98.81 127.005c2.701-.212 5.677-4.532 5.79-7.2-2.499-.385-1.457.87-3.037 3.124-1.212 1.73-2.14 1.664-3.223 3zm-40.533-4.734c-.6-.716-.358-.655-1.73-.49-1.284 2.455-2.52 2.524-3.882 4.13l.619 1.157c2.14-.668 4.126-2.874 4.993-4.797m31.723-27.575 2.83.609c.504-3.033-.747-1.919-1.534-3.91l-1.89-.236.595 3.537z" fill="#3b3d42"/><path d="m73.184 106.86.615.259-.693 2.088c1.48.614 2.405.603 3.106 1.793l.438-.607.521-2.026-3.23-1.138.116-2.118h-.427l-.446 1.748z" fill="#c79e69"/><path d="m91.86 118.585c.629 1.676 2.986 1.683 3.955 1.272.869-.384 1.28-1.103 1.283-2.12-1.062-1.776-.982-1.79-2.684-2.546.347 1.299.805 1.923.613 3.214z" fill="#c2d6e3"/><path d="m75.597 118.462-.009-1.503-3.847-.097-.01 1.607zm9.874-21.225 1.91-.085-.82-2.268-1.913-.074z" fill="#3b3d42"/><path d="m93.545 118.55c-.371-1.348-.368-1.796-1.21-2.748-.758 1.41-.716 1.205-.484 2.793z" fill="#c2d6e3"/><path d="m79.87 117.853-.02-.956-1.724.048.153.854zm-10.72-2.406 1.033 1.051.036-1.47c-.521-.125.202-.564-1.07.419" fill="#c70000"/><path d="m147.174.335v190.33h-146.392z" fill="#0075b8" fill-opacity=".1" opacity=".4"/><text fill="#333" font-family="HelveticaNeue-Light, Helvetica Neue" font-size="12" font-weight="300"><tspan x="160.044" y="27">CURRENT</tspan> <tspan x="169.602" y="42.348">VALUE</tspan></text><text fill="#333" font-family="HelveticaNeue-Light, Helvetica Neue" font-size="12" font-weight="300"><tspan x="235.45" y="27">TARGET</tspan> <tspan x="239.602" y="42.348">VALUE</tspan></text><text fill="#4caf50" font-family=".SFNSDisplay, .SF NS Display" font-size="24"><tspan x="200" y="164">20</tspan> <tspan font-family=".AppleSystemUIFont" font-size="16" x="228.84" y="164">%</tspan></text><g fill="#333"><text font-family="HelveticaNeue-Light, Helvetica Neue" font-size="14" font-weight="300"><tspan x="162" y="127">Score Improvement</tspan></text><g font-family=".SFNSDisplay, .SF NS Display" font-size="24"><text><tspan x="166.41" y="74">30</tspan> <tspan font-family=".AppleSystemUIFont" font-size="18" x="195.871" y="74">%</tspan></text><text><tspan x="239" y="74">60</tspan> <tspan font-family=".AppleSystemUIFont" font-size="18" x="268.625" y="74">%</tspan></text></g></g></g></svg>