<svg height="191" viewBox="0 0 293 191" width="293" xmlns="http://www.w3.org/2000/svg"><g fill="none" fill-rule="evenodd"><path d="m.879 0h146.074v190.33h-146.073z" fill="#fcd936"/><path d="m146.757 0h146.075v190.33h-146.075z" fill="#f2f2f2"/><text fill="#fff" font-family="HelveticaNeue-Light, Helvetica Neue" font-size="12.32" font-weight="300" letter-spacing=".783"><tspan x="23.727" y="25.142">Too Fast Correct</tspan></text><path d="m22.953 114.7h46.539" style="stroke:#d1ad0f;stroke-dasharray:1.108148 1.662222;stroke-linecap:round;stroke-linejoin:round;stroke-opacity:.5;stroke-width:.554"/><path d="m80.367 109.242h6.024zm18.447 0h3.158zm9.99-19.949a2.23 2.23 0 0 1 2.235 2.225 2.231 2.231 0 0 1 -2.235 2.225h-.96a2.23 2.23 0 0 1 -2.234-2.225c0-1.229 1-2.225 2.234-2.225zm-30.207 18.02a2.234 2.234 0 0 1 1.785 2.18 2.231 2.231 0 0 1 -2.236 2.224h-10.816l-10.853 10.966a5.592 5.592 0 0 1 -7.88.064l-.065-.064-3.808-3.842c-.074.008-.15.01-.225.01h-10.911a2.23 2.23 0 0 1 -2.236-2.223 2.232 2.232 0 0 1 2.236-2.225h6.738l-4.538-4.58a5.53 5.53 0 0 1 .065-7.844 5.592 5.592 0 0 1 7.88.066l8.77 8.847 27.394-27.677a5.592 5.592 0 0 1 7.88-.065 5.53 5.53 0 0 1 1.08 6.433h12.97a2.23 2.23 0 0 1 2.235 2.224c0 1.228-1 2.226-2.235 2.226h-15.145a1.736 1.736 0 0 0 -.17-.007h-11.049c-1.22 0-2.21.986-2.21 2.2s.99 2.199 2.21 2.199h11.05c.097 0 .192-.006.285-.018h1.575c1.235 0 2.236.997 2.236 2.225a2.23 2.23 0 0 1 -2.236 2.225h-12.272l-.005.006h-6.457a2.23 2.23 0 0 0 -2.236 2.225 2.23 2.23 0 0 0 2.236 2.225zm17.995-.045c1.127 0 2.06.83 2.213 1.911l.009.063a2.231 2.231 0 0 1 -2.222 2.476h-7.98a2.231 2.231 0 0 1 -2.165-2.782 2.234 2.234 0 0 1 2.166-1.668zm-1.46-8.861c1.234 0 2.236.997 2.236 2.225a2.23 2.23 0 0 1 -2.236 2.225h-.96a2.23 2.23 0 0 1 -2.235-2.225 2.231 2.231 0 0 1 2.235-2.225z" fill="#4a4a4d" fill-opacity=".16"/><path d="m80.22 107.133h6.024zm18.445 0h3.16zm9.991-19.949c1.235 0 2.236.997 2.236 2.226s-1 2.225-2.236 2.225h-.959a2.23 2.23 0 0 1 -2.236-2.225c0-1.229 1.001-2.226 2.236-2.226h.96zm-30.206 18.02a2.238 2.238 0 0 1 1.785 2.18 2.232 2.232 0 0 1 -2.236 2.226h-9.105c-1.325 0-2.159.434-2.767 1.068l-9.798 9.896a5.592 5.592 0 0 1 -7.88.066l-.066-.066-3.807-3.84a2.46 2.46 0 0 1 -.226.01h-10.91a2.23 2.23 0 0 1 -2.235-2.224 2.232 2.232 0 0 1 2.235-2.226h6.738l-4.537-4.58a5.53 5.53 0 0 1 .065-7.843 5.592 5.592 0 0 1 7.88.066l8.768 8.848 27.396-27.678a5.593 5.593 0 0 1 7.88-.065 5.531 5.531 0 0 1 1.08 6.432h12.969a2.23 2.23 0 0 1 2.236 2.225 2.231 2.231 0 0 1 -2.236 2.225h-15.144a2.073 2.073 0 0 0 -.17-.006h-5.02c-1.221 0-2.21.985-2.21 2.2 0 1.214.989 2.198 2.21 2.198h5.02c.097 0 .193-.005.285-.017h1.576a2.23 2.23 0 0 1 2.235 2.225c0 1.228-1 2.224-2.235 2.224h-12.273l-.006.007h-2.689a2.231 2.231 0 0 0 -2.236 2.224 2.231 2.231 0 0 0 2.236 2.225zm17.994-.045c1.127 0 2.06.832 2.214 1.912l.007.062a2.232 2.232 0 0 1 -2.221 2.477h-7.979a2.232 2.232 0 0 1 -2.165-2.781 2.235 2.235 0 0 1 2.165-1.67h7.98zm-1.164-8.859c1.234 0 2.236.996 2.236 2.225a2.23 2.23 0 0 1 -2.236 2.224h-.96a2.23 2.23 0 0 1 -2.234-2.224c0-1.229 1-2.225 2.235-2.225z" fill="#f7fafc"/><path d="m80.22 107.133h6.024zm18.445 0h3.16zm9.991-19.949c1.235 0 2.236.997 2.236 2.226s-1 2.225-2.236 2.225h-.959a2.23 2.23 0 0 1 -2.236-2.225c0-1.229 1.001-2.226 2.236-2.226h.96zm-30.206 18.02a2.238 2.238 0 0 1 1.785 2.18 2.232 2.232 0 0 1 -2.236 2.226h-9.105c-1.325 0-2.159.434-2.767 1.068l-9.798 9.896a5.592 5.592 0 0 1 -7.88.066l-.066-.066-3.807-3.84a2.46 2.46 0 0 1 -.226.01h-10.91a2.23 2.23 0 0 1 -2.235-2.224 2.232 2.232 0 0 1 2.235-2.226h6.738l-4.537-4.58a5.53 5.53 0 0 1 .065-7.843 5.592 5.592 0 0 1 7.88.066l8.768 8.848 27.396-27.678a5.593 5.593 0 0 1 7.88-.065 5.531 5.531 0 0 1 1.08 6.432h12.969a2.23 2.23 0 0 1 2.236 2.225 2.231 2.231 0 0 1 -2.236 2.225h-15.144a2.073 2.073 0 0 0 -.17-.006h-5.02c-1.221 0-2.21.985-2.21 2.2 0 1.214.989 2.198 2.21 2.198h5.02c.097 0 .193-.005.285-.017h1.576a2.23 2.23 0 0 1 2.235 2.225c0 1.228-1 2.224-2.235 2.224h-12.273l-.006.007h-2.689a2.231 2.231 0 0 0 -2.236 2.224 2.231 2.231 0 0 0 2.236 2.225zm17.994-.045c1.127 0 2.06.832 2.214 1.912l.007.062a2.232 2.232 0 0 1 -2.221 2.477h-7.979a2.232 2.232 0 0 1 -2.165-2.781 2.235 2.235 0 0 1 2.165-1.67h7.98zm-1.164-8.859c1.234 0 2.236.996 2.236 2.225a2.23 2.23 0 0 1 -2.236 2.224h-.96a2.23 2.23 0 0 1 -2.234-2.224c0-1.229 1-2.225 2.235-2.225z" stroke="#d1ad0f" stroke-linecap="round" stroke-linejoin="round" stroke-width=".554"/><path d="m92.602 74.721c0 1.196.983 2.175 2.185 2.175a2.187 2.187 0 0 0 -2.185 2.174 2.186 2.186 0 0 0 -2.185-2.174 2.186 2.186 0 0 0 2.185-2.175zm12.444 29.683c.862 0 1.566.7 1.566 1.559a1.566 1.566 0 0 1 -3.133 0c0-.858.705-1.56 1.567-1.56zm-47.385-20.664c0 1.79 1.472 3.253 3.27 3.253v.001c-1.798 0-3.27 1.464-3.27 3.254 0-1.79-1.471-3.254-3.269-3.254v-.001c1.798 0 3.269-1.464 3.269-3.253z" stroke="#fff" stroke-linecap="round" stroke-linejoin="round" stroke-opacity=".5" stroke-width=".554"/><path d="m113.95 73.031v41.24" stroke="#d1ad0f" stroke-linecap="round" stroke-linejoin="round" stroke-width="1.108"/><path d="m38.648 125.52h39.144" style="stroke:#d1ad0f;stroke-dasharray:1.108148 1.662222;stroke-linecap:round;stroke-linejoin:round;stroke-opacity:.5;stroke-width:.554"/><path d="m113.95 76.205v1.995" stroke="#4a4a4d" stroke-linecap="round" stroke-linejoin="round" stroke-opacity=".5" stroke-width="1.108"/><path d="m105.935 52.037h16.03c.685 0 1.244.557 1.244 1.238v21.792c0 .682-.56 1.238-1.244 1.238h-16.03a1.244 1.244 0 0 1 -1.244-1.238v-21.792c0-.681.56-1.238 1.244-1.238z" fill="#fcd936"/><path d="m105.935 52.037h16.03c.685 0 1.244.557 1.244 1.238v21.792c0 .682-.56 1.238-1.244 1.238h-16.03a1.244 1.244 0 0 1 -1.244-1.238v-21.792c0-.681.56-1.238 1.244-1.238z" stroke="#3b3d42" stroke-width=".554"/><path d="m105.935 52.037h16.03c.684 0 1.244.56 1.244 1.238v5.661h-18.518v-5.66c0-.681.56-1.239 1.244-1.239z" fill="#3b3d42"/><path d="m105.935 52.037h16.03c.684 0 1.244.56 1.244 1.238v5.661h-18.518v-5.66c0-.681.56-1.239 1.244-1.239z" stroke="#3b3d42" stroke-width=".554"/><g fill="#f7d400" font-family="BebasNeue, Bebas Neue" font-size="5.266"><text><tspan x="105.917" y="56.035">C</tspan></text><text><tspan x="108.387" y="56.035">A</tspan></text><text><tspan x="110.967" y="56.035">U</tspan></text><text><tspan x="113.5" y="56.035">T</tspan></text><text><tspan x="115.813" y="56.035">I</tspan></text><text><tspan x="117.252" y="56.035">O</tspan></text><text><tspan x="119.776" y="56.035">N</tspan></text></g><text fill="#3b3d42" font-family="LucidaGrande, Lucida Grande" font-size="4.402"><tspan x="108.86" y="63.736">OBEY</tspan></text><text fill="#3b3d42" font-family="LucidaGrande, Lucida Grande" font-size="4.402"><tspan x="107.859" y="67.888">SPEED</tspan></text><text fill="#3b3d42" font-family="LucidaGrande, Lucida Grande" font-size="4.402"><tspan x="109.262" y="72.04">LIMIT</tspan></text><path d="m146.855.335v190.33h-146.075z" fill="#82858f" fill-opacity=".1" opacity=".2"/><path d="m75.867 114.7h8.353m12.927 10.82h39.143m-45.668-10.82h38.417m-37.915 10.82h-5.45" style="stroke:#d1ad0f;stroke-dasharray:1.108148 1.662222;stroke-linecap:round;stroke-linejoin:round;stroke-opacity:.5;stroke-width:.554"/><g transform="translate(159 15)"><text fill="#333" font-family="HelveticaNeue-Light, Helvetica Neue" font-size="12" font-weight="300"><tspan x=".044" y="12">CURRENT</tspan> <tspan x="9.602" y="27.348">VALUE</tspan></text><text fill="#333" font-family="HelveticaNeue-Light, Helvetica Neue" font-size="12" font-weight="300"><tspan x="75.45" y="12">TARGET</tspan> <tspan x="79.602" y="27.348">VALUE</tspan></text><text fill="#4caf50" font-family=".SFNSDisplay, .SF NS Display" font-size="24"><tspan x="40" y="149">10</tspan> <tspan font-family=".AppleSystemUIFont" font-size="16" x="65.898" y="149">%</tspan></text><text fill="#333" font-family="HelveticaNeue-Light, Helvetica Neue" font-size="14" font-weight="300"><tspan x="2" y="112">Score Improvement</tspan></text><text fill="#333" font-family=".SFNSDisplay, .SF NS Display" font-size="24"><tspan x="15.537" y="59">12</tspan> <tspan font-family=".AppleSystemUIFont" font-size="18" x="21.14" y="87">%</tspan></text><text fill="#333" font-family=".SFNSDisplay, .SF NS Display" font-size="24"><tspan x="79" y="59">5</tspan> <tspan font-family=".AppleSystemUIFont" font-size="18" x="93.391" y="59">%</tspan></text></g></g></svg>