<svg xmlns="http://www.w3.org/2000/svg" width="25" height="23" viewBox="0 0 25 23"><g fill="#3C4674" fill-rule="evenodd"><g><ellipse cx="4.301" cy="1.894" rx="1.882" ry="1.894"/><path d="M6.586 4.33h-4.57A2.029 2.029 0 0 0 0 6.358v6.088c0 .411.331.744.74.744.407 0 .738-.333.738-.744V6.765h.404v15.153c0 .595.484 1.082 1.075 1.082s1.075-.487 1.075-1.082v-8.66h.538v8.66c0 .595.484 1.082 1.075 1.082.592 0 1.075-.487 1.075-1.082V6.765h.404v5.682c0 .411.33.744.739.744.408 0 .74-.333.74-.744V6.36c0-1.116-.908-2.03-2.017-2.03z"/></g><g transform="translate(14.382)"><ellipse cx="5.344" cy="1.894" rx="1.882" ry="1.894"/><path d="M10.54 11.867L8.95 5.85a2.036 2.036 0 0 0-1.963-1.52H3.7c-.92 0-1.727.625-1.964 1.52L.149 11.867a.677.677 0 0 0 .65.85c.297 0 .57-.2.649-.502l1.44-5.45h.38l-2.359 8.93h2.285v6.358c0 .52.424.947.941.947.518 0 .941-.426.941-.947v-6.359h.538v6.359c0 .52.423.947.94.947.518 0 .941-.426.941-.947v-6.359H9.78l-2.358-8.93h.38l1.44 5.451a.673.673 0 0 0 .822.48.677.677 0 0 0 .476-.828z"/></g><path d="M11.643 0h1.094v23h-1.094z"/></g></svg>