<svg xmlns="http://www.w3.org/2000/svg" width="22" height="25" viewBox="0 0 22 25"><path fill="#3C4674" fill-rule="evenodd" d="M18.676 18.178a.841.841 0 0 0-.722-.401.839.839 0 0 0-.722.401l-1.61 2.615a2.76 2.76 0 0 0-.09 2.747A2.684 2.684 0 0 0 17.747 25h.41a2.684 2.684 0 0 0 2.213-1.452 2.76 2.76 0 0 0-.09-2.747l-1.61-2.615.005-.008zM6.656 4.768A1.872 1.872 0 0 0 4.778 6.49H2.095A1.87 1.87 0 0 0 .217 8.351v1.367a1.87 1.87 0 0 0 1.878 1.862h2.683a1.872 1.872 0 0 0 1.878 1.72H11.4a1.872 1.872 0 0 0 1.878-1.72h2.12v1.018a1.863 1.863 0 0 0-1.246 1.75v.242a1.87 1.87 0 0 0 1.878 1.862h3.861a1.87 1.87 0 0 0 1.878-1.862v-.242a1.863 1.863 0 0 0-1.245-1.75V8.343a1.87 1.87 0 0 0-1.878-1.862H13.28a1.872 1.872 0 0 0-1.878-1.72h-.461V3.723h.834a1.87 1.87 0 0 0 1.878-1.861A1.87 1.87 0 0 0 11.775 0h-5.42a1.87 1.87 0 0 0-1.877 1.862 1.87 1.87 0 0 0 1.878 1.861h.834v1.05l-.534-.004z"/></svg>