<svg height="48" viewBox="0 0 48 48" width="48" xmlns="http://www.w3.org/2000/svg"><g fill="none" fill-rule="evenodd"><path d="m23.93 4.022c10.954 0 19.835 8.88 19.835 19.835 0 10.954-8.88 19.834-19.835 19.834-10.954 0-19.835-8.88-19.835-19.834 0-10.955 8.88-19.835 19.835-19.835" fill="#4a80c1"/><path d="m43.765 23.857c0-10.955-8.88-19.835-19.835-19.835-10.954 0-19.835 8.88-19.835 19.835 0 10.112 7.567 18.456 17.347 19.68v-17.312c0-1.214.993-2.206 2.207-2.206h.563c1.213 0 2.206.992 2.206 2.206v17.31c9.78-1.223 17.347-9.567 17.347-19.68" fill="#54b8e8"/><path d="m26.418 26.324v-.098a2.213 2.213 0 0 0 -2.207-2.206h-.099a2.312 2.312 0 0 1 2.306 2.304" fill="#f7991c"/><path d="m23.93 24.02h-.281a2.213 2.213 0 0 0 -2.207 2.206v17.31c.815.102 1.646.155 2.488.155z" fill="#f29b53"/><path d="m26.418 26.324v17.212-17.211z" fill="#e37625"/><path d="m26.418 43.536v-17.212a2.312 2.312 0 0 0 -2.306-2.304h-.182v19.67c.843 0 1.673-.053 2.488-.155" fill="#ec6160"/><path d="m23.93 6.154c1.823 0 3.3 4.046 3.3 9.038 0 4.99-1.477 9.037-3.3 9.037s-3.3-4.046-3.3-9.037c0-4.992 1.477-9.038 3.3-9.038" fill="#fff"/><path d="m23.93 6.154v18.076c1.823 0 3.3-4.047 3.3-9.038 0-4.992-1.477-9.038-3.3-9.038" fill="#bbb"/><path d="m38.348 29.168c-.757 1.658-5.052 1.322-9.592-.75-4.54-2.073-7.607-5.098-6.85-6.756.757-1.659 5.05-1.322 9.591.75 4.54 2.073 7.608 5.098 6.85 6.756" fill="#bbb"/><path d="m25.954 21.66c.757 1.659-2.31 4.684-6.85 6.757-4.541 2.073-8.836 2.41-9.593.752-.757-1.659 2.31-4.684 6.85-6.757s8.835-2.41 9.593-.751" fill="#fff"/><path d="m23.93 18.826a4.314 4.314 0 1 1 0 8.628 4.314 4.314 0 0 1 0-8.628" fill="#fcdd40"/><path d="m28.244 23.14a4.315 4.315 0 0 1 -4.314 4.315v-8.63a4.314 4.314 0 0 1 4.314 4.315" fill="#f5b52a"/><path d="m23.93 20.193a2.947 2.947 0 1 1 0 5.894 2.947 2.947 0 0 1 0-5.894" fill="#fff"/><path d="m26.877 23.14a2.946 2.946 0 0 1 -2.947 2.947v-5.894a2.947 2.947 0 0 1 2.947 2.947" fill="#e0e0e2"/><path d="m23.93 20.852a2.288 2.288 0 1 1 0 4.576 2.288 2.288 0 0 1 0-4.576" fill="#34b677"/><path d="m26.218 23.14a2.288 2.288 0 0 1 -2.288 2.288v-4.576a2.288 2.288 0 0 1 2.288 2.288" fill="#03a652"/></g></svg>