<svg height="48" viewBox="0 0 48 48" width="48" xmlns="http://www.w3.org/2000/svg"><g fill="none" fill-rule="evenodd"><path d="m24 3c11.046 0 20 8.807 20 19.672s-8.954 19.672-20 19.672-20-8.807-20-19.672 8.954-19.672 20-19.672" fill="#54b8e8"/><g fill-rule="nonzero" transform="translate(12 11)"><ellipse cx="12.001" cy="12.083" fill="#fff" rx="11.994" ry="11.864"/><ellipse cx="12.001" cy="12.083" fill="#f5a623" opacity=".506" rx="9.526" ry="9.423"/><path d="m13.722 13.445 4.247-1.362-4.763-1.192-1.206-4.712-1.09 4.428c-1.09-.908-1.894-1.477-1.894-1.477s.573.795 1.492 1.873l-4.476 1.079 4.763 1.192 1.205 4.713 1.147-4.315a19.425 19.425 0 0 0 1.952 1.533s-.46-.795-1.378-1.76z" fill="#54b8e8"/><path d="m7.295 16.738 5.05-2.952c-.115 0-.23.057-.344.057-.976 0-1.78-.795-1.78-1.76 0-.114 0-.227.058-.34z" fill="#f2705b"/><path d="m12 10.323c.976 0 1.78.795 1.78 1.76 0 .113 0 .227-.058.34l2.984-4.995-5.05 2.952c.115-.057.23-.057.345-.057z" fill="#fff"/><ellipse cx="12.001" cy="12.083" fill="#334a5e" rx="2.008" ry="1.987"/><ellipse cx="12.001" cy="12.083" fill="#f6f7f7" rx="1.148" ry="1.135"/><path d="m11.713 2.659h1v1h-1zm0 18.109h1v1h-1zm-3.872-16.362-.866.5-.5-.866.866-.5zm9.169 15.656-.866.5-.5-.866.866-.5zm-12.445-12.58-.5.866-.866-.5.5-.866zm15.821 9.06-.5.866-.866-.5.5-.866zm-17.912-4.743h1v1h-1zm18.306 0h1v1h-1zm-16.246 4.893-.866.5-.5-.866.866-.5zm15.877-9.1-.866.5-.5-.866.866-.5zm-12.544 12.131-.5.866-.866-.5.5-.866zm9.156-15.651-.5.866-.866-.5.5-.866z" fill="#54b8e8"/></g></g></svg>