<svg height="48" viewBox="0 0 48 48" width="48" xmlns="http://www.w3.org/2000/svg"><g fill="none" fill-rule="evenodd"><path d="m24.008 4.17c10.955 0 19.835 8.88 19.835 19.834s-8.88 19.835-19.835 19.835c-10.954 0-19.834-8.88-19.834-19.835 0-10.954 8.88-19.835 19.834-19.835" fill="#54b8e8"/><path d="m8.547 36.436c3.654 4.529 9.214 7.403 15.461 7.403s11.807-2.874 15.462-7.403z" fill="#46a5db"/><path d="m25.633 15.008-.625.594 6.029 4.904a3.2 3.2 0 0 1 .28-.875zm1.405-1.905a2.83 2.83 0 0 1 -.343.843l5.122 5.029c.25-.187.531-.312.844-.343l-5.623-5.53z" fill="#324a5e"/><path d="m26.382 14.29-6.465 6.216-1.344-1.718c-.562-.719-1.374-1.156-2.217-1.219l6.81-6.59a2.31 2.31 0 0 1 3.247.062c.375.406.594.875.625 1.374.094.688-.156 1.375-.656 1.875" fill="#fff"/><path d="m23.228 24.722c-.094 0-4.686 1.718-5.092 3.999l-4.654-5.935c-1.094-1.406-.844-3.436.531-4.53a3.23 3.23 0 0 1 4.53.563z" fill="#324a5e"/><path d="m15.419 35.749v.687h14.993v-.687a1.22 1.22 0 0 0 -1.219-1.218h-12.556c-.688.03-1.218.562-1.218 1.218" fill="#fff"/><path d="m16.793 34v.53h12.244v-.53c0-.531-.437-.938-1-.938h-10.243c-.563 0-1 .438-1 .938" fill="#324a5e"/><path d="m22.915 24.691c-2.655 0-4.841 2.187-4.841 4.842v3.53h9.683v-3.53c0-2.655-2.187-4.842-4.842-4.842" fill="#fff"/><path d="m22.915 28.408a1.062 1.062 0 1 1 0 2.124 1.062 1.062 0 0 1 0-2.124m-6.84-9.277a1.843 1.843 0 1 1 0 3.686 1.843 1.843 0 0 1 0-3.686m8.652-7.652a1.312 1.312 0 1 1 0 2.623 1.312 1.312 0 0 1 0-2.623" fill="#46a5db"/><path d="m34.379 26.003c0 .78-.094 1.656-.282 2.374h-.749v-1.655c.281-.125.468-.375.468-.688a.76.76 0 0 0 -.75-.75.76.76 0 0 0 -.749.75c0 .313.188.594.469.688v1.655h-.75a10.074 10.074 0 0 1 -.281-2.374c0-.53.031-.937.125-1.28h2.342c.094.343.157.78.157 1.28" fill="#324a5e"/><path d="m34.754 24.722c.28-.936.437-2.061.437-3.06 0-2.406-.968-3.093-2.124-3.093-1.187 0-2.124.687-2.124 3.092 0 1 .156 2.125.437 3.061z" fill="#fff"/><path d="m33.067 20.224a.719.719 0 1 1 0 1.438.719.719 0 0 1 0-1.438" fill="#46a5db"/></g></svg>