<svg height="48" viewBox="0 0 48 48" width="48" xmlns="http://www.w3.org/2000/svg"><g fill="none" fill-rule="evenodd"><path d="m24 4.17c11.046 0 20 8.88 20 19.834s-8.954 19.835-20 19.835-20-8.88-20-19.835c0-10.954 8.954-19.834 20-19.834z" fill="#54b8e8"/><path d="m11.094 33.983h10.843v1.767h-9.562a1.276 1.276 0 0 1 -1.281-1.27z" fill="#414141"/><path d="m19.906 18.952-8.324 12.618a2.953 2.953 0 0 0 -.488 1.626v.789h9.562l-.75-15.032z" fill="#e9e9e9"/><path d="m26.063 33.983h10.843v.497c0 .701-.573 1.27-1.28 1.27h-9.563z" fill="#414141"/><path d="m28.094 18.952 8.323 12.617a2.95 2.95 0 0 1 .49 1.626v.789h-9.563z" fill="#e9e9e9"/><path d="m20.875 11.67c-1.155 2.726-1.875 6.26-1.875 7.81v16.239h10v-16.24c0-1.58-.719-5.082-1.875-7.81h-6.25z" fill="#bbb"/><path d="m22.313 11.67c-.625 2.727-1 6.26-1 7.81v16.239h5.406v-16.24c0-1.58-.406-5.082-1-7.81h-3.406z" fill="#e9e9e9"/><path d="m25.387 15.272a2.606 2.606 0 0 0 -2.764-.012.772.772 0 0 1 -.953-.106.76.76 0 0 1 .137-1.189 4.23 4.23 0 0 1 4.407-.006.76.76 0 0 1 .129 1.196l-.017.016a.768.768 0 0 1 -.94.101m-7.011 20.447h4.313v.917a.916.916 0 0 1 -.92.911h-2.474a.916.916 0 0 1 -.919-.911z" fill="#414141"/><path d="m22.656 35.719h-4.281v-5.02c0-1.054.875-1.922 1.938-1.922h.406c1.062 0 1.937.868 1.937 1.921z" fill="#fff"/><path d="m25.344 35.719h4.312v.917a.916.916 0 0 1 -.92.911h-2.473a.916.916 0 0 1 -.92-.911v-.917z" fill="#414141"/><path d="m29.625 35.719h-4.281v-5.02c0-1.054.875-1.922 1.937-1.922h.407c1.062 0 1.937.868 1.937 1.921z" fill="#fff"/><path d="m15.625 29.614a1.4 1.4 0 0 1 1.406 1.394 1.4 1.4 0 0 1 -1.406 1.395 1.4 1.4 0 0 1 -1.406-1.395 1.4 1.4 0 0 1 1.406-1.394m16.75 0a1.4 1.4 0 0 1 1.406 1.394 1.4 1.4 0 0 1 -1.406 1.395 1.4 1.4 0 0 1 -1.406-1.395 1.4 1.4 0 0 1 1.406-1.394" fill="#55bfe9"/><path d="m24 8.012c-1.188 0-2.281 1.612-3.125 3.658h6.25c-.844-2.046-1.937-3.658-3.125-3.658" fill="#414141"/></g></svg>