<svg height="40" viewBox="0 0 40 40" width="40" xmlns="http://www.w3.org/2000/svg"><g fill="none" fill-rule="evenodd"><path d="m20 0c11.045 0 20 8.954 20 20s-8.955 20-20 20c-11.046 0-20-8.954-20-20s8.954-20 20-20z" fill="#54b8e8"/><path d="m5.84620565 2.25892857h-5.2285586c-.34111705 0-.61764705.27653-.61764705.61764705v19.50577738c0 .341117.27653.617647.61764705.617647h15.76470595c.341117 0 .617647-.27653.617647-.617647v-19.50577738c0-.34111705-.27653-.61764705-.617647-.61764705h-5.2285587c-.2344813-1.28582708-1.3334623-2.25892857-2.6537943-2.25892857s-2.41931301.97310149-2.65379435 2.25892857z" fill="#e9e9e9" transform="translate(11 8)"/><path d="m13 12h13v17h-13z" fill="#fff"/><path d="m17.6266118 11.010662h-3.8207295c-.1137056 0-.2058823.0921767-.2058823.2058824v1.4658018c0 .1137057.0921767.2058824.2058823.2058824h11.3882354c.1137056 0 .2058823-.0921767.2058823-.2058824v-1.4658018c0-.1137057-.0921767-.2058824-.2058823-.2058824h-3.8207295c.0004852-.0172477.0007294-.0349615.0007294-.0531524 0-1.06630937-.839071-1.93072389-1.8741176-1.93072389s-1.8741176.86441452-1.8741176 1.93072389c0 .0181909.0002442.0359047.0007294.0531524z" fill="#414141"/><path d="m18.7393983 22.4519166c.0082183-.4801638.0636911-.8594472.1664201-1.1378615s.312293-.5870864.6286982-.9260255l.8074458-.8170814c.3451694-.383324.5177515-.7948868.5177515-1.2347007 0-.423674-.1130001-.7555469-.3390039-.9956288s-.5547316-.3601211-.9861934-.3601211c-.4191342 0-.7560802.1089431-1.0108481.3268326s-.38215.5104218-.38215.8776059c0 .2468802-.1946224.368316-.5838674.3643074-.389245-.0040085-.5747179-.1254443-.5564186-.3643074.0082183-.6536684.2455187-1.1812354.7119083-1.5827169s1.0735088-.6022192 1.8213758-.6022192c.7766312 0 1.3816958.2047727 1.8152122.6143241.4335163.4095515.6502712.9714154.6502712 1.6856087 0 .7061232-.3328369 1.4021485-.9985208 2.0880968l-.6718442.6536651c-.2999686.3268342-.4499507.7969034-.4499507 1.4102219-.0666183.302609-.2635632.448839-.5908349.43869-.3272716-.010149-.510422-.156379-.5494511-.43869zm-.0493097 1.9186281c0-.1815745.0565001-.3338931.169502-.4569603s.2804476-.1845999.5023422-.1845999.3903676.0615327.5054241.1845999.1725838.2753858.1725838.4569603c0 .1815746-.0575273.3318757-.1725838.4509079s-.2835295.1785474-.5054241.1785474-.3893403-.0595152-.5023422-.1785474-.169502-.2693333-.169502-.4509079z" fill="#4a4a4a"/></g></svg>