<svg xmlns="http://www.w3.org/2000/svg" width="95" height="124" viewBox="0 0 95 124"><g fill="none" fill-rule="evenodd"><path fill="#FFE197" d="M92.61 1.622H1.622v120h65.934l5.274-19.781 19.78-5.275z"/><path fill="#FFD473" d="M92.61 96.566l-25.054 25.056H33.929v-120H92.61z"/><path fill="#AAA" d="M67.556 96.566v25.056L92.61 96.566z"/><path stroke="#777" stroke-linecap="round" stroke-linejoin="round" stroke-width="3.244" d="M67.556 96.566v25.056L92.61 96.566z"/><path fill="#1FBAEA" d="M19.838 30.694a1.975 1.975 0 0 1-1.4-.579l-3.955-3.956a1.978 1.978 0 0 1 2.797-2.797l2.558 2.557 7.349-7.149a1.978 1.978 0 0 1 2.797 2.798l-8.748 8.547a1.973 1.973 0 0 1-1.398.58M76.786 48.22H35.907a1.979 1.979 0 0 1 0-3.957h40.88a1.979 1.979 0 0 1 0 3.957M76.786 27.397H35.907a1.979 1.979 0 0 1 0-3.956h40.88a1.978 1.978 0 1 1 0 3.956M76.786 69.597H35.907a1.98 1.98 0 0 1 0-3.957h40.88a1.978 1.978 0 1 1 0 3.957M76.786 90.387H35.907a1.979 1.979 0 0 1 0-3.956h40.88a1.978 1.978 0 1 1 0 3.956M14.516 46.241a5.321 5.321 0 1 1 10.643 0 5.321 5.321 0 0 1-10.643 0M14.516 67.618a5.321 5.321 0 1 1 10.643 0 5.321 5.321 0 0 1-10.643 0M14.516 88.408a5.321 5.321 0 1 1 10.643 0 5.321 5.321 0 0 1-10.643 0"/><path stroke="#777" stroke-linecap="round" stroke-linejoin="round" stroke-width="3.244" d="M92.61 1.622H1.622v120h65.934l17.825-17.826 7.229-7.23z"/></g></svg>