<svg height="48" viewBox="0 0 48 48" width="48" xmlns="http://www.w3.org/2000/svg" xmlns:xlink="http://www.w3.org/1999/xlink"><mask id="a" fill="#fff"><path d="m0 1.774v-1.764h1.604v1.765h-1.603z" fill="#fff" fill-rule="evenodd"/></mask><g fill="none" fill-rule="evenodd"><path d="m42 24c0 9.941-8.06 18-18 18s-18-8.059-18-18c0-9.94 8.06-18 18-18s18 8.06 18 18" fill="#f26f66"/><path d="m34.064 19.828-13.698 13.513s-7.009 2.09-7.33 1.77c-.319-.32 1.602-7.498 1.602-7.498l13.698-13.513a1.647 1.647 0 0 1 2.376 0l3.352 3.37c.658.64.658 1.701 0 2.358" fill="#2194bb"/><path d="m15.834 29.298 15.046-15.046-.168-.169a1.663 1.663 0 0 0 -2.376.017l-13.681 13.53s-.034.134-.102.37z" fill="#43a3c5"/><path d="m34.452 19.272a1.706 1.706 0 0 0 -.37-1.82l-.338-.336-15.046 15.046 1.315 1.297c.185-.05.303-.084.353-.1z" fill="#2085a8"/><path d="m13.02 35.06.101.101c.792.118 6.875-1.685 7.245-1.802l.017-.018s-.387-1.819-.725-2.14c-.336-.337-1.802-.387-2.14-.707-.336-.337-.37-1.803-.723-2.14-.337-.337-2.056-.69-2.14-.707 0-.017-1.77 6.57-1.634 7.413" fill="#fac9ba"/><path d="m13.004 34.976c.117-.202.708-1.247 3.774-6.622-.337-.337-2.056-.691-2.14-.708.017-.017-1.651 6.217-1.634 7.33" fill="#fcdbd1"/><path d="m13.004 34.993v.05l.1.101c.792.118 6.875-1.685 7.245-1.802l.017-.017s-.37-1.803-.707-2.14a1149.925 1149.925 0 0 1 -6.655 3.808" fill="#e4b4a6"/><path d="m1.166.43a1.579 1.579 0 0 0 -.926-.421c-.186.944-.304 1.634-.203 1.735.084.085.725-.016 1.567-.202 0-.421-.185-.86-.438-1.112" fill="#2194bb" mask="url(#a)" transform="translate(13 33.4)"/></g></svg>