<svg height="48" viewBox="0 0 48 48" width="48" xmlns="http://www.w3.org/2000/svg" xmlns:xlink="http://www.w3.org/1999/xlink"><mask id="a" fill="#fff"><path d="m.0006 1.77429765v-1.76547765h1.6035v1.76547765z" fill="#fff" fill-rule="evenodd"/></mask><g fill="none" fill-rule="evenodd"><path d="m36.00006 17.99994c0 9.9414-8.0592 18-18 18s-18-8.0586-18-18c0-9.9408 8.0592-18 18-18s18 8.0592 18 18" fill="#8ac87c" transform="translate(6 6)"/><g transform="translate(13.2 12.6)"><path d="m21.0645 6.82848-13.698 13.5126s-7.0092 2.0898-7.3296 1.7694c-.3198-.3198 1.6008-7.4976 1.6008-7.4976l13.6986-13.5126c.657-.6744 1.7184-.6744 2.3754 0l3.3528 3.3696c.6576.6402.6576 1.7016 0 2.3586" fill="#2194bb"/><path d="m2.83422 16.2978 15.0456-15.0462-.168-.1686c-.657-.657-1.7184-.657-2.3754.0168l-13.6818 13.53s-.0336.1344-.1014.3702z" fill="#43a3c5"/><path d="m21.4524 6.2724c.2358-.6066.1176-1.3308-.3708-1.8198l-.3372-.3366-15.0462 15.0462 1.3146 1.2972c.1848-.0504.303-.0846.3534-.1008z" fill="#2085a8"/><path d="m.02058 22.0602.1008.1008c.792.1182 6.8742-1.6848 7.245-1.8024l.0168-.0174s-.3876-1.8192-.7248-2.1396c-.3366-.3372-1.8024-.3876-2.1396-.7074-.3366-.3372-.3702-1.803-.7242-2.1402-.3366-.3366-2.0556-.6906-2.1396-.7074 0-.0168-1.7694 6.5712-1.6344 7.4136" fill="#fac9ba"/><path d="m.0036 21.97584c.1176-.2022.708-1.2468 3.774-6.6216-.3366-.3372-2.0556-.6912-2.1396-.708.0168-.0168-1.6512 6.2172-1.6344 7.3296" fill="#fcdbd1"/><path d="m.0036 21.99282v.0504l.1008.1008c.792.1182 6.8742-1.6848 7.245-1.8024l.0168-.0168s-.3708-1.803-.7074-2.1402c-5.577 3.2016-6.504 3.7236-6.6552 3.8082" fill="#e4b4a6"/><path d="m1.1661.43002c-.219-.219-.573-.3876-.9264-.4212-.186.9438-.3036 1.6344-.2028 1.7352.0846.0846.7248-.0162 1.5672-.2016 0-.4218-.1854-.8598-.438-1.1124" fill="#2194bb" mask="url(#a)" transform="translate(0 20.4)"/></g></g></svg>