<svg xmlns="http://www.w3.org/2000/svg" width="22" height="21" viewBox="0 0 22 21"><path fill="#50B7E8" fill-rule="evenodd" d="M19.541 6.82l-4.829-4.83a3.419 3.419 0 0 1 2.184-.783 3.42 3.42 0 0 1 2.426 1.003 3.395 3.395 0 0 1 1.003 2.426c0 .81-.278 1.572-.784 2.185zM7.73 18.657l-1.974-1.974 10.97-10.971L18.7 7.685 7.73 18.656zm6.118-15.82l2.019 2.02-10.97 10.971-2.019-2.019 10.97-10.971zm6.325-1.476a4.632 4.632 0 0 0-6.557 0L1.594 13.379a.6.6 0 0 0-.17.344l-.891 6.598a.6.6 0 0 0 .17.506c.112.112.268.18.425.18.027 0 .054 0 .08-.005l3.975-.538a.605.605 0 1 0-.161-1.2l-3.187.43.622-4.601L7.3 19.936a.593.593 0 0 0 .85 0L20.174 7.917a4.609 4.609 0 0 0 1.36-3.28 4.59 4.59 0 0 0-1.36-3.277z"/></svg>