<svg height="18" viewBox="0 0 18 18" width="18" xmlns="http://www.w3.org/2000/svg"><g fill="none" fill-rule="evenodd"><g transform="translate(.337748 .337748)"><path d="m8.6585993 17.3222639c-4.76148193 0-8.63525904-3.8873823-8.63525904-8.66559841 0-.72285506.58397245-1.3088367 1.30428852-1.3088367.72031606 0 1.30423947.58598164 1.30423947 1.3088367 0 3.33481921 2.70352711 6.04787581 6.02673105 6.04787581.7203651 0 1.30428851.5860309 1.30428851 1.3088367 0 .7229043-.58392341 1.3088859-1.30428851 1.3088859" fill="#9f9e9e"/><path d="m1.9044015 12.820728c-.50937582 0-.99305234-.3012101-1.20286456-.8018981-1.36441703-3.25636682-.64047168-6.97714843 1.84421903-9.47925951.50854207-.51205719 1.33440182-.51333684 1.84446426-.00314991.51025862.51023616.51168091 1.33900693.00313885 1.85106412-1.73431039 1.74647728-2.23961552 4.34367625-1.287172 6.6167298.2791611.6663536-.03281075 1.4337011-.69677472 1.7138462-.16508367.0696918-.33649408.1026674-.50501086.1026674" fill="#e7587f"/><path d="m3.46877281 4.7715275c-.33418898 0-.66823084-.12806352-.92306588-.38414133-.50888537-.51151581-.5082478-1.34023736.00156942-1.8510149 1.23807849-1.24037538 2.79872242-2.06545485 4.51292458-2.38590894 1.67217105-.31262854 3.38195917-.12870334 4.94456497.53218708.6637187.28068649.975102 1.04832932.6954014 1.71438757-.2796515.66615668-1.044598.97863757-1.7083658.69790187-2.26830657-.95929516-4.85947281-.45127378-6.60153222 1.29407149-.25463887.25504425-.58814123.38251716-.92149647.38251716" fill="#f5b429"/><path d="m14.4770287 9.97431701h-7.91052898c-.72031606 0-1.30423947-.58598164-1.30423947-1.3088367 0-.72285505.58392341-1.30888591 1.30423947-1.30888591h7.72244348c.2160408 0 .2426229-.14952227.2207491-.23319175-.4736224-1.81360972-1.773644-3.32044777-3.5062869-4.04851987-.6643563-.27906231-.9775543-1.04591767-.6993741-1.71276339.2781802-.66669808 1.0426363-.98090157 1.7068455-.70174082 2.5466339 1.07003416 4.4433305 3.31572291 5.0735519 6.00746839.1874969.80056924.0037764 1.63091496-.503981 2.27797532-.5092777.64893061-1.2732433 1.02376986-2.0959642 1.02849473z" fill="#54b6e7"/></g><g fill="#928f90" transform="translate(11.145695 15.596026)"><path d="m.5100738.5978669c.13350055 0 .22977734-.06059964.22977734-.22341241 0-.10888862-.05693526-.15457676-.1767518-.15457676h-.16078712l-.06296274.37798917zm-.25690101.53022516h.20599323c.13529251 0 .24525331-.05219025.24525331-.2168236 0-.09614449-.0431698-.16107887-.18440833-.16107887h-.20420128zm.41198646-.45913546c.1433563.01447803.2199216.09787839.2199216.23572306 0 .27178808-.1865261.38457796-.44546342.38457796h-.39846535l.20216497-1.23045876h.36694325c.22749668 0 .31782744.1027333.31782744.27568935 0 .19835761-.1216085.30941361-.26292849.32614569z"/><path d="m1.92618969 1.28922295h-.71222017l.20200206-1.23037207h.71230162l-.02736802.1671475h-.52797474l-.05880866.36351114h.465012l-.02736802.1672342h-.465012l-.06084498.36524503h.52585698z"/><path d="m2.55354456 1.28922295.17259773-1.06322457h-.33550262l.02736802-.1671475h.86160395l-.02948579.1671475h-.33762037l-.17463404 1.06322457z"/><path d="m3.63612898.79403113h.36889812c-.06076352-.32172426-.08633959-.60356893-.08430328-.60356893h-.00790088s-.04325125.13394341-.13928368.32571222zm.3963476.1589115h-.47283144l-.16502265.33628899h-.19605603l.62400717-1.23037207h.23735242l.21593043 1.23037207h-.18848096z"/></g></g></svg>