<svg height="22" viewBox="0 0 137 22" width="137" xmlns="http://www.w3.org/2000/svg" xmlns:xlink="http://www.w3.org/1999/xlink"><mask id="a" fill="#fff"><path d="m0 12.8558182v-12.76317659h5.8044564v12.76317659z" fill="#fff" fill-rule="evenodd"/></mask><mask id="b" fill="#fff"><path d="m.02883232.06257576h12.99264068v5.70686666h-12.99264068z" fill="#fff" fill-rule="evenodd"/></mask><g fill="none" fill-rule="evenodd"><g fill="#928f90" transform="translate(28.800391 3.75)"><path d="m9.62324008 14.4569091h-9.12273754c-.27635506 0-.50050254-.2203939-.50050254-.4923333v-13.47224247c0-.27193939.22414748-.49233333.50050254-.49233333h9.04938803c.27635507 0 .50071823.22039394.50071823.49233333v.20278788c0 .27172728-.22436316.49233334-.50071823.49233334h-7.76792893c-.2765708 0-.50050254.22039393-.50050254.49233333v4.41593939c0 .2719394.22393174.49254546.50050254.49254546h7.51573605c.2765708 0 .50071828.22039394.50071828.49233333v.19239394c0 .27215152-.22414748.49254545-.50071828.49254545h-7.51573605c-.2765708 0-.50050254.22039394-.50050254.49233334v4.51924241c0 .2719394.22393174.4923333.50050254.4923333h7.84127844c.2765708 0 .50093402.220394.50093402.4925455v.2025758c0 .2719394-.22436322.4923333-.50093402.4923333"/><path d="m28.1165933 14.4569091h-.279591c-.2767866 0-.500934-.2203939-.500934-.4923333v-11.88939398c0-.15654546-.2153024-.20554546-.2852002-.06469697l-5.1860261 10.45587875c-.0839205.1692728-.2584492.276394-.4498051.276394h-.7298277c-.1911402 0-.3656688-.106697-.4495893-.2755455l-5.1855947-10.39839392c-.0703292-.14042424-.2852002-.09142424-.2852002.06512121v11.83063641c0 .2719394-.2243632.4923333-.500934.4923333h-.279591c-.2767866 0-.5009341-.2203939-.5009341-.4923333v-13.47224247c0-.27193939.2241475-.49233333.5009341-.49233333h1.1198744c.1907087 0 .3652374.10648485.4491579.27490909l5.0527026 10.09272731c.1835895.3667575.7151577.3665454.8987473-.0004243l5.0427788-10.09187877c.0841362-.16863636.2584492-.27533333.4493736-.27533333h1.1196587c.2765708 0 .5007183.22039394.5007183.49233333v13.47224247c0 .2719394-.2241475.4923333-.5007183.4923333"/><path d="m34.6080535 8.17515152v4.60196968c0 .2719394.2241475.4923333.5007183.4923333h4.088588c2.3946458 0 3.9701502-.7021212 3.9701502-2.7987272 0-2.09596972-1.5755044-2.78790912-3.9701502-2.78790912h-4.088588c-.2765708 0-.5007183.22039394-.5007183.49233334zm0-6.49536364v4.33321212c0 .27215152.2241475.49254545.5007183.49254545h3.8683238c2.2475153 0 3.8961534-.60921212 3.8961534-2.66445454 0-2.0340303-1.6592091-2.65363636-3.9067244-2.65363636h-3.8577528c-.2765708 0-.5007183.22039393-.5007183.49233333zm4.4003235-1.67978788c3.0563015 0 5.1987544 1.06357576 5.1987544 3.74860606 0 1.48145455-.7268073 2.50175758-1.8783946 3.02887879-.1971808.09036363-.1950235.36675757.005609.44884848 1.316408.53687879 2.1774018 1.61890909 2.1774018 3.28596967 0 2.7571515-2.0691034 3.9446061-5.2617487 3.9446061h-5.4224704c-.2765708 0-.5007183-.2203939-.5007183-.4923333v-13.47203034c0-.27215152.2241475-.49254546.5007183-.49254546z"/><path d="m49.3715231 14.4569091h-.279591c-.2767866 0-.5009341-.2203939-.5009341-.4923333v-13.47224247c0-.27193939.2241475-.49233333.5009341-.49233333h.279591c.2765708 0 .5007183.22039394.5007183.49233333v13.47224247c0 .2719394-.2241475.4923333-.5007183.4923333"/><path d="m55.9779166 8.17515152v4.60196968c0 .2719394.2241474.4923333.5007182.4923333h4.0885881c2.3946457 0 3.9701501-.7021212 3.9701501-2.7987272 0-2.09596972-1.5755044-2.78790912-3.9701501-2.78790912h-4.0885881c-.2765708 0-.5007182.22039394-.5007182.49233334zm0-6.49536364v4.33321212c0 .27215152.2241474.49254545.5007182.49254545h3.8683238c2.2475153 0 3.8961534-.60921212 3.8961534-2.66445454 0-2.0340303-1.6592091-2.65363636-3.9067244-2.65363636h-3.8577528c-.2765708 0-.5007182.22039393-.5007182.49233333zm4.4003234-1.67978788c3.0563015 0 5.1987544 1.06357576 5.1987544 3.74860606 0 1.48145455-.7268073 2.50175758-1.8783946 3.02887879-.1971808.09036363-.1950234.36675757.005609.44884848 1.316408.53687879 2.1774018 1.61890909 2.1774018 3.28596967 0 2.7571515-2.0691034 3.9446061-5.2617487 3.9446061h-5.4224704c-.2765708 0-.5007183-.2203939-.5007183-.4923333v-13.47203034c0-.27215152.2241475-.49254546.5007183-.49254546z"/><path d="m79.6234558 14.4569091h-9.1227375c-.2763551 0-.5007183-.2203939-.5007183-.4923333v-13.47224247c0-.27193939.2243632-.49233333.5007183-.49233333h9.0491723c.2765708 0 .5005025.22039394.5005025.49233333v.20278788c0 .27172728-.2239317.49233334-.5005025.49233334h-7.767929c-.276355 0-.5007182.22039393-.5007182.49233333v4.41593939c0 .2719394.2243632.49254546.5007182.49254546h7.5157361c.2765708 0 .500934.22039394.500934.49233333v.19239394c0 .27215152-.2243632.49254545-.500934.49254545h-7.5157361c-.276355 0-.5007182.22039394-.5007182.49233334v4.51924241c0 .2719394.2243632.4923333.5007182.4923333h7.8414942c.2763551 0 .5005026.220394.5005026.4925455v.2025758c0 .2719394-.2241475.4923333-.5005026.4923333"/></g><g transform="translate(.816047 .5)"><path d="m10.548803 20.9373606c-5.81510603 0-10.54593374-4.6518182-10.54593374-10.3693333 0-.86481821.71300039-1.56609094 1.59297879-1.56609094.87954692 0 1.59254732.70127273 1.59254732 1.56609094 0 3.9906363 3.30202238 7.2369394 7.36040763 7.2369394.8797627 0 1.5927631.7012727 1.5927631 1.566303 0 .8648182-.7130004 1.5660909-1.5927631 1.5660909" fill="#9e9d9d"/><path d="m2.29993863 12.8558182c-.6219607 0-1.21285573-.360394-1.46893182-.9594243-1.6663283-3.89666663-.78225096-8.34887875 2.25226145-11.34318178.62088203-.61260606 1.62965354-.61430303 2.25269291-.00381818.62325511.61069697.62476525 1.60236364.00388321 2.2149697-2.11807499 2.0900303-2.73528955 5.19781818-1.57226833 7.91763636.34129096.7975758-.03991077 1.7156364-.85107006 2.0507879-.20127969.0835757-.41075726.1230303-.61656736.1230303" fill="#e6587f" mask="url(#a)" transform="translate(0 2.695021)"/><path d="m1.62175768 5.76944242c-.40816845 0-.81612117-.15336363-1.12742512-.45966666-.62131351-.6119697-.62066631-1.60363637.0019416-2.21475758 1.51207859-1.48442424 3.41787147-2.47163636 5.51156853-2.85515151 2.04213668-.3739697 4.13044041-.154 6.03882211.63678788.8107278.336 1.1910666 1.25448484.8493442 2.05142424-.3415067.79715151-1.2756343 1.17112121-2.0865779.83512121-2.77023843-1.14778788-5.93483835-.53984848-8.06240563 1.54848485-.31087248.30524242-.718178.45775757-1.12526779.45775757" fill="#f4b325" mask="url(#b)" transform="translate(2.588806 .149567)"/><path d="m17.6547526 12.1447879h-9.66099348c-.87976266 0-1.59297878-.7012727-1.59297878-1.5660909 0-.86503033.71321612-1.56630306 1.59297878-1.56630306h9.43145268c.2636268 0 .2962026-.17881818.2694516-.27915152-.5783825-2.17-2.1661837-3.9730303-4.2821013-4.84442424-.811375-.33387879-1.1938712-1.25151515-.8543061-2.04951515.3397809-.79778788 1.273477-1.17387879 2.0846363-.83978788 3.110235 1.28057576 5.4263536 3.9679394 6.196092 7.18878788.2291094.95793939.0047462 1.95151517-.6154887 2.72575757-.6219607.7765758-1.5547939 1.2252121-2.5596822 1.2307273z" fill="#56b5e6"/></g><g fill="#928f90" transform="translate(113.735812 3.75)"><path d="m2.70194931 2.92567273c.70717557 0 1.21717041-.29654546 1.21717041-1.09327273 0-.53284848-.30159593-.75642424-.93628493-.75642424h-.85171726l-.33352454 1.84969697zm-1.36084916 2.59466666h1.09118184c.71666787 0 1.29914927-.25539394 1.29914927-1.0610303 0-.47048485-.22867788-.78824242-.97684289-.78824242h-1.08168955zm2.18236368-2.24678787c.75938317.07084848 1.16496282.47896969 1.16496282 1.15351515 0 1.33-.98806106 1.88193939-2.35969691 1.88193939h-2.11074004l1.07090286-6.02127273h1.94376203c1.20508932 0 1.68358701.50272728 1.68358701 1.34909091 0 .97066667-.64418129 1.51412121-1.39277777 1.596z"/><path d="m10.2033606 6.30883636h-3.77275363l1.07003992-6.02084848h3.77318511l-.1449731.81793939h-2.79677373l-.31151969 1.77884849h2.46324912l-.1449731.81836363h-2.46324917l-.32230638 1.78733334h2.78555555z"/><path d="m13.5265681 6.30883636.9142801-5.20290909h-1.7772155l.1449731-.81793939h4.5640654l-.1561913.81793939h-1.7884336l-.9250668 5.20290909z"/><path d="m19.2612054 3.88560606h1.9541173c-.3218749-1.57436364-.4573558-2.95357576-.4465691-2.95357576h-.0418524s-.2291093.65545455-.7378098 1.59387879zm2.0995219.77763636h-2.5046701l-.8741535 1.64563637h-1.0385428l3.3054741-6.02084849h1.2572969l1.1438209 6.02084849h-.9984163z"/></g></g></svg>