<svg height="14" viewBox="0 0 67 14" width="67" xmlns="http://www.w3.org/2000/svg" xmlns:xlink="http://www.w3.org/1999/xlink"><mask id="a" fill="#fff"><path d="m6.40826656 9.24363984v-9.01599984h-6.20741323v9.01599984z" fill="#fff" fill-rule="evenodd"/></mask><mask id="b" fill="#fff"><path d="m8.63852855.14186666h-7.96659952v3.55898661h7.96659952z" fill="#fff" fill-rule="evenodd"/></mask><g fill="none" fill-rule="evenodd"><g fill="#929090"><path d="m23.0071329 11.9017731h-5.5934665c-.1698667 0-.3070667-.1372-.3070667-.3070666v-8.40186655c0-.16893333.1372-.30706667.3070667-.30706667h5.5486665c.1689334 0 .3070667.13813334.3070667.30706667v.12693333c0 .16893333-.1381333.30706666-.3070667.30706666h-4.7637332c-.1689333 0-.3070667.1372-.3070667.30706666v2.75333329c0 .16986666.1381334.30706666.3070667.30706666h4.6087999c.1698667 0 .3070667.13813333.3070667.30706666v.1204c0 .16986666-.1372.30706666-.3070667.30706666h-4.6087999c-.1689333 0-.3070667.1372-.3070667.30706666v2.81866657c0 .1689334.1381334.3061334.3070667.3061334h4.8085332c.1698667 0 .3070667.1381333.3070667.308v.126c0 .1698666-.1372.3070666-.3070667.3070666"/><path d="m34.3957594 11.9017731h-.1717333c-.1689333 0-.3070667-.1372-.3070667-.3070666v-7.4143999c0-.098-.1316-.12786667-.1745333-.04013334l-3.1798666 6.52026654c-.0513334.1054667-.1586667.1726667-.2762667.1726667h-.4470666c-.1176 0-.224-.0672-.2762667-.1717333l-3.1798666-6.48479994c-.0429333-.08773333-.1745333-.05693333-.1745333.04013333v7.37799991c0 .1698666-.1372.3070666-.3070667.3070666h-.1717333c-.1689334 0-.3070667-.1372-.3070667-.3070666v-8.40186655c0-.16893333.1381333-.30706667.3070667-.30706667h.6869333c.1176 0 .224.06626667.2753333.17173333l3.0986666 6.2943999c.112.22866666.4386667.22866666.5506667 0l3.0921333-6.2943999c.0513333-.10453333.1586666-.17173333.2753333-.17173333h.6869333c.1698667 0 .3070667.13813334.3070667.30706667v8.40186655c0 .1698666-.1372.3070666-.3070667.3070666"/><path d="m38.4443727 7.9842932v2.8699999c0 .1698667.1372.3070667.3070666.3070667h2.5069333c1.4681333 0 2.4341333-.4377333 2.4341333-1.74533329 0-1.30759998-.966-1.73879997-2.4341333-1.73879997h-2.5069333c-.1698666 0-.3070666.13719999-.3070666.30706666zm0-4.0506666v2.70199995c0 .16986667.1372.30706667.3070666.30706667h2.3716c1.3785333 0 2.3893333-.37986667 2.3893333-1.66133331 0-1.26839998-1.0173333-1.65479997-2.3958666-1.65479997h-2.3650667c-.1698666 0-.3070666.1372-.3070666.30706666zm2.6982666-1.04719998c1.8741333 0 3.1873333.66266665 3.1873333 2.33706662 0 .92399999-.4452 1.56053331-1.1517333 1.88906664-.1204.056-.1194667.22866666.0037333.27999999.8073333.33506667 1.3356 1.00986665 1.3356 2.04959997 0 1.71919996-1.2693333 2.45933326-3.2265333 2.45933326h-3.3254666c-.1698667 0-.3070667-.1372-.3070667-.3070666v-8.40093322c0-.16986666.1372-.30706666.3070667-.30706666z"/><path d="m47.4040925 11.9017731h-.1717333c-.1698667 0-.3070667-.1372-.3070667-.3070666v-8.40186655c0-.16893333.1372-.30706667.3070667-.30706667h.1717333c.1698667 0 .3070667.13813334.3070667.30706667v8.40186655c0 .1698666-.1372.3070666-.3070667.3070666"/><path d="m51.4527058 7.9842932v2.8699999c0 .1698667.1372.3070667.3070667.3070667h2.5069332c1.4681334 0 2.4341333-.4377333 2.4341333-1.74533329 0-1.30759998-.9659999-1.73879997-2.4341333-1.73879997h-2.5069332c-.1698667 0-.3070667.13719999-.3070667.30706666zm0-4.0506666v2.70199995c0 .16986667.1372.30706667.3070667.30706667h2.3715999c1.3785333 0 2.3893333-.37986667 2.3893333-1.66133331 0-1.26839998-1.0173333-1.65479997-2.3958666-1.65479997h-2.3650666c-.1698667 0-.3070667.1372-.3070667.30706666zm2.6982666-1.04719998c1.8741333 0 3.1873333.66266665 3.1873333 2.33706662 0 .92399999-.4452 1.56053331-1.1517333 1.88906664-.1204.056-.1194667.22866666.0037333.27999999.8073333.33506667 1.3356 1.00986665 1.3356 2.04959997 0 1.71919996-1.2693333 2.45933326-3.2265333 2.45933326h-3.3254666c-.1698667 0-.3070667-.1372-.3070667-.3070666v-8.40093322c0-.16986666.1372-.30706666.3070667-.30706666z"/><path d="m6.10138656 9.24363984h-5.59346657c-.16986666 0-.30706666-.1372-.30706666-.30706666v-8.40186652c0-.16893333.1372-.30706666.30706666-.30706666h5.54866657c.16893333 0 .30706666.13813333.30706666.30706666v.12693333c0 .16893333-.13813333.30706666-.30706666.30706666h-4.76373325c-.16893333 0-.30706666.1372-.30706666.30706666v2.75333329c0 .16986666.13813333.30706666.30706666.30706666h4.60879992c.16986667 0 .30706666.13813333.30706666.30706666v.1204c0 .16986666-.13719999.30706666-.30706666.30706666h-4.60879992c-.16893333 0-.30706666.1372-.30706666.30706666v2.81866662c0 .16893333.13813333.30613333.30706666.30613333h4.80853325c.16986667 0 .30706666.13813333.30706666.30799999v.126c0 .16986666-.13719999.30706666-.30706666.30706666" mask="url(#a)" transform="translate(59.733332 2.658133)"/></g><path d="m6.46827989 13.8581331c-3.56533327 0-6.46613322-2.9008-6.46613322-6.46613323 0-.53946665.43679999-.97719998.97626665-.97719998.53946665 0 .97719998.43773333.97719998.97719998 0 2.48826663 2.02439997 4.51266663 4.51266659 4.51266663.53946666 0 .97719998.4377333.97719998.9771999 0 .5385334-.43773332.9762667-.97719998.9762667" fill="#9f9e9e"/><path d="m1.41045331 10.4988798c-.38173333 0-.74386665-.2249333-.90066665-.59826664-1.02199999-2.43039995-.47973333-5.20706657 1.38133331-7.07373321.38079999-.38266666.99866665-.38359999 1.38039997-.0028.38266666.3808.3836.99959998.0028 1.38133331-1.29919997 1.30386665-1.67719997 3.24146661-.96413331 4.93826658.20906666.49653333-.02426667 1.06959996-.52173333 1.27866666-.1232.0522667-.25199999.0765333-.37799999.0765333" fill="#e7587f"/><path d="m1.64854664 3.70085327c-.25013333 0-.50026666-.0952-.69159999-.28653333-.38079999-.38173332-.37986666-1.00053331.00186667-1.38133331.92679998-.92586665 2.09533329-1.5409333 3.37959994-1.78079997 1.25159998-.23333333 2.53213329-.09613333 3.70253327.3976.49746666.20906666.72986665.78213332.52079999 1.27959997-.21.49653333-.78213332.72986666-1.27959998.52079999-1.69866664-.71586665-3.6390666-.33693332-4.94386658.96506666-.1904.19039999-.43959999.28559999-.68973332.28559999" fill="#f6b429" mask="url(#b)" transform="translate(.933333 .791467)"/><path d="m10.8255465 8.37479986h-5.92386658c-.53946666 0-.97719999-.43773333-.97719999-.97626665 0-.53946666.43773333-.97719999.97719999-.97719999h5.78293328c.1614666 0 .1819999-.11106666.1651999-.17359999-.3546666-1.35333331-1.32813326-2.47799996-2.62546657-3.02119995-.49746666-.20813333-.73173332-.78119999-.52359999-1.27866665.20813333-.49746665.78026665-.73173332 1.27773331-.52359999 1.90679995.79893332 3.32733325 2.47426663 3.79959995 4.48279993.1409333.59826665.0028 1.21706664-.3770667 1.7005333-.3817333.48439999-.9538666.76346665-1.5698666.76719999z" fill="#53b6e7"/></g></svg>