<svg viewBox="0 0 13 14" xmlns="http://www.w3.org/2000/svg" xmlns:xlink="http://www.w3.org/1999/xlink"><mask id="a" fill="#fff"><path d="m8.70347989.14712099h-8.02649877v3.69080092h8.02649877z" fill="#fff" fill-rule="evenodd"/></mask><g fill="none" fill-rule="evenodd"><path d="m6.51691357 13.8528788c-3.59214029 0-6.51475076-3.008237-6.51475076-6.70561967 0-.55944691.4400842-1.01339258.983607-1.01339258s.98454735.45394567.98454735 1.01339258c0 2.58042465 2.03962102 4.67980237 4.54659641 4.67980237.5435228 0 .98454735.4539457.98454735 1.0133926 0 .558479-.44102455 1.0124247-.98454735 1.0124247" fill="#9f9e9e"/><path d="m1.42105822 10.3692087c-.3846035 0-.74945963-.2332642-.90743858-.62042468-1.02968419-2.52041477-.48334034-5.39992089 1.39171927-7.33572333.38366316-.3968395 1.00617543-.3978074 1.39077893-.0029037.38554385.39490369.3864842 1.0366222.00282105 1.4324938-1.3089684 1.352158-1.6898105 3.36152093-.97138244 5.12116534.21063859.51492345-.02444912 1.10921477-.52565613 1.32602467-.12412631.0542025-.25389473.0793679-.3808421.0793679" fill="#e7587f"/><path d="m1.66094173 3.83792191c-.25201403 0-.50402807-.09872592-.69679999-.29714567-.38366315-.3958716-.3827228-1.03759011.0018807-1.43249381.9337684-.96015801 2.11108768-1.59800491 3.40501047-1.84675552 1.2610105-.24197531 2.55117188-.09969383 3.73037186.41232592.50120701.21680987.73535438.81110122.52471578 1.32699257-.21157894.51492345-.78801402.75689875-1.28922103.54008888-1.71143856-.74238024-3.666428-.34941234-4.98103851 1.00080986-.19183157.19745185-.44290525.29617777-.69491928.29617777" fill="#f6b429" mask="url(#a)" transform="translate(.940351 .302262)"/><path d="m10.9069416 8.16645911h-5.96840695c-.5435228 0-.98454735-.45394567-.98454735-1.01242467 0-.55944691.44102455-1.01339258.98454735-1.01339258h5.82641395c.1626807 0 .1833684-.11518024.1664421-.18002962-.3573333-1.40345677-1.33811928-2.56977774-2.64520698-3.13309625-.50120701-.21584197-.73723508-.81013332-.52753683-1.32602467.20969824-.51589135.78613332-.75883455 1.28734032-.54299258 1.92113679.82852344 3.35235079 2.56590613 3.82816839 4.64882955.141993.62042468.002821 1.26214319-.3799018 1.76351602-.3846035.50234073-.9610386.7917432-1.5816701.7956148z" fill="#53b6e7"/></g></svg>