<svg height="76" viewBox="0 0 76 76" width="76" xmlns="http://www.w3.org/2000/svg"><g fill="none" fill-rule="evenodd"><circle cx="38" cy="38" r="36" stroke="#f16661" stroke-width="3.26"/><path d="m38.504 44.945a2.505 2.505 0 0 1 -2.504-2.448l-.417-18.623a2.934 2.934 0 0 1 2.933-2.999 2.93 2.93 0 0 1 2.93 3l-.436 18.622a2.507 2.507 0 0 1 -2.506 2.448zm-3.152 7.36c0-.89.289-1.63.867-2.215.578-.586 1.367-.88 2.367-.88s1.789.294 2.367.88.867 1.324.867 2.215c0 .86-.28 1.578-.843 2.156s-1.36.867-2.391.867-1.828-.289-2.39-.867c-.563-.578-.844-1.297-.844-2.156z" fill="#f16661"/></g></svg>