<svg height="48" viewBox="0 0 48 48" width="48" xmlns="http://www.w3.org/2000/svg" xmlns:xlink="http://www.w3.org/1999/xlink"><mask id="a" fill="#fff"><path d="m47.5486154.35670857v47.02994283h-47.48238463v-47.02994283z" fill="#fff" fill-rule="evenodd"/></mask><mask id="b" fill="#fff"><path d="m37.5093231 5.34664322c-4.3426416 5.55172238-11.139297 9.12558538-18.7787077 9.12558538-7.3510564 0-13.92192248-3.3091594-18.27683078-8.50546525v-5.95021478h37.05553848z" fill="#fff" fill-rule="evenodd"/></mask><mask id="c" fill="#fff"><path d="m23.1804 5.3737444c-4.3435448 5.5362492-11.1305042 9.0984842-18.75747692 9.0984842-1.49454828 0-2.95684722-.1367849-4.37483077-.3984042v-14.04433869h23.13230769z" fill="#fff" fill-rule="evenodd"/></mask><mask id="d" fill="#fff"><path d="m.45378462 5.96676335c4.3549083 5.19630585 10.92577438 8.50546525 18.27683078 8.50546525 7.6394107 0 14.4360661-3.573863 18.7787077-9.12558538v-5.33009465h-37.05553848z" fill="#fff" fill-rule="evenodd"/></mask><g fill="none" fill-rule="evenodd"><path d="m.06623077 23.87168c0-12.9869714 10.62923073-23.51497143 23.74107693-23.51497143 13.1123077 0 23.7415385 10.52800003 23.7415385 23.51497143s-10.6292308 23.5149714-23.7415385 23.5149714c-13.1118462 0-23.74107693-10.528-23.74107693-23.5149714" fill="#eaeaea" mask="url(#a)" transform="translate(0 .165029)"/><g transform="translate(5.076923 10.222171)"><path d="m10.9358308 8.15872c0-4.26377143 3.4901538-7.72068571 7.794923-7.72068571 4.3047693 0 7.7944616 3.45691428 7.7944616 7.72068571 0 4.2637714-3.4896923 7.7202286-7.7944616 7.7202286-4.3047692 0-7.794923-3.4564572-7.794923-7.7202286" fill="#bcbcbc"/><path d="m14.4703846 8.15872c0-2.33051429 1.9070769-4.21942857 4.26-4.21942857" stroke="#e0e0e0" stroke-linecap="round" stroke-linejoin="round" stroke-width="1.489846"/><path d="m18.7305692.43821714c-.7024615 0-1.3804615.10057143-2.028.27337143 3.3198462.88502857 5.7669231 3.87931429 5.7669231 7.44731429 0 3.56754284-2.4470769 6.56182854-5.7669231 7.44685714.6475385.1728 1.3255385.2733714 2.028.2733714 4.3047693 0 7.7944616-3.4564571 7.7944616-7.72022854 0-4.26377143-3.4896923-7.72068572-7.7944616-7.72068572" fill="#9b9b9b"/><path d="m22.7262462.01654857h-7.4893847c-8.16461535 0-14.78307688 5.17942857-14.78307688 13.26582853v6.0749715h37.05553848v-6.0749715c0-8.08639996-6.6189231-13.26582853-14.7830769-13.26582853" fill="#777" mask="url(#b)" transform="translate(0 22.857143)"/><path d="m8.41855385.02948571h-7.48938462c-.28430769 0-.60092308.00137143-.88107692.01371429 7.77046154.3456 13.90153849 5.43405714 13.90153849 13.2393143v6.4041143h9.2307692v-6.4041143c0-8.08685716-6.5976923-13.25302859-14.76184615-13.25302859" fill="#636363" mask="url(#c)" transform="translate(14.307692 22.857143)"/><g stroke="#777" stroke-linecap="round" stroke-linejoin="round"><path d="m22.7262462.01654857h-7.4893847c-8.16461535 0-14.78307688 5.17942857-14.78307688 13.26582853v6.0749715h37.05553848v-6.0749715c0-8.08639996-6.6189231-13.26582853-14.7830769-13.26582853z" mask="url(#d)" stroke-width="1.528154" transform="translate(0 22.857143)"/><path d="m10.9358308 8.15872c0-4.26377143 3.4901538-7.72068571 7.794923-7.72068571 4.3047693 0 7.7944616 3.45691428 7.7944616 7.72068571 0 4.2637714-3.4896923 7.7202286-7.7944616 7.7202286-4.3047692 0-7.794923-3.4564572-7.794923-7.7202286z" stroke-width="1.131692"/></g></g></g></svg>