<svg height="48" viewBox="0 0 48 48" width="48" xmlns="http://www.w3.org/2000/svg"><g fill="none" fill-rule="evenodd" opacity=".537138"><circle cx="24" cy="24" fill="#fff" r="24"/><g fill-rule="nonzero"><path d="m0 12v8c0 1.1045695.8954305 2 2 2h5.17157288c.53043297 0 1.0391408.2107137 1.41421356.5857864l5.99999996 6c.7810486.7810486 2.0473786.7810486 2.8284272 0 .3750727-.3750727.5857864-.8837805.5857864-1.4142135v-22.34314578c0-1.10456949-.8954305-2-2-2-.530433 0-1.0391408.21071369-1.4142136.58578644l-5.99999996 6c-.37507276.37507276-.88378059.58578644-1.41421356.58578644h-5.17157288c-1.1045695 0-2 .8954305-2 2z" fill="#2f2f2f" transform="translate(14 8)"/><g transform="matrix(.70710678 .70710678 -.70710678 .70710678 11.949747 7)"><path d="m2.28427125 3.5h35.99999995c.8284272 0 1.5-.67157288 1.5-1.5s-.6715728-1.5-1.5-1.5h-35.99999995c-.82842713 0-1.5.67157288-1.5 1.5s.67157287 1.5 1.5 1.5z" fill="#2f2f2f"/><path d="m2.28427125 6.5h35.99999995c.8284272 0 1.5-.67157288 1.5-1.5s-.6715728-1.5-1.5-1.5h-35.99999995c-.82842713 0-1.5.67157288-1.5 1.5s.67157287 1.5 1.5 1.5z" fill="#fff"/></g></g></g></svg>