<svg height="185" viewBox="0 0 147 185" width="147" xmlns="http://www.w3.org/2000/svg" xmlns:xlink="http://www.w3.org/1999/xlink"><mask id="a" fill="#fff"><path d="m.256 47.966h46.578v-47.953h-46.578z" fill="#fff" fill-rule="evenodd"/></mask><mask id="b" fill="#fff"><path d="m.044 83.198h89.507v-83.041h-89.507z" fill="#fff" fill-rule="evenodd"/></mask><mask id="c" fill="#fff"><path d="m51.95 8.597c-7.287-5.313-16.204-8.44-25.837-8.44-9.631.001-18.549 3.128-25.833 8.441v21.006h51.67z" fill="#fff" fill-rule="evenodd"/></mask><g fill="none" fill-rule="evenodd"><path d="m24 111h7v-45h-7z" fill="#c0bebb"/><path d="m68.037 57.703c0-13.622 10.946-24.664 24.45-24.664 13.502 0 24.448 11.042 24.448 24.664 0 13.621-10.946 24.664-24.449 24.664s-24.45-11.043-24.45-24.664" fill="#2f1815"/><path d="m78.537 53.667c0-17.308 12.71-31.34 28.388-31.34s28.388 14.032 28.388 31.34-12.71 31.34-28.388 31.34c-15.679 0-28.388-14.032-28.388-31.34" fill="#2f1815"/><path d="m39.023 117.886a3.478 3.478 0 0 0 -4.27 2.463l-1.096 4.063-15.523-7.733-3.418-1.71a3.112 3.112 0 0 0 -4.184 1.416 3.153 3.153 0 0 0 1.407 4.213l6.195 3.099v1.068l-1.473-.736a3.11 3.11 0 0 0 -4.183 1.416 3.153 3.153 0 0 0 1.407 4.213l2.717 1.36a3.107 3.107 0 0 0 -4.124 1.438 3.153 3.153 0 0 0 1.407 4.213l2.342 1.172c.016 3.001 2.505 5.427 4.56 5.632l30.051 38.282 7.65-6.382-25.04-31.9s6.563-1.266 6.563-7.918v-7.965l1.458-5.404c.503-1.868-.592-3.793-2.446-4.3" fill="#ebba9e"/><path d="m46.834 43.026-15.894 10.812-30.684-43.013 15.892-10.812z" fill="#27b898" mask="url(#a)" transform="translate(23.91 137.034)"/><path d="m45.487 144.656-15.628 11.182-5.693-7.979 15.893-10.812z" fill="#fefefe"/><path d="m89.551 91.687h-89.507v-46.465c0-24.89 20.037-45.065 44.754-45.065s44.752 20.176 44.752 45.065v46.465z" fill="#2cb899" mask="url(#b)" transform="translate(57.212 101.802)"/><path d="m51.95 2.741-2.779-2.838a8.707 8.707 0 0 0 -12.502 0l-2.777 2.838-1.1 2.09.594.627-1.07 1.76-1.64.5-1.208 3.82c-.275.87-.412.784-.427 1.653-.052-.056-.097.055-.15 0l-2.778-2.041-2.777 2.04c-.053.056-.099-.055-.151.001-.015-.87-.151-.783-.426-1.654l-1.209-3.819-2.01-1.104-.697-1.156.594-.627-1.1-2.09-2.777-2.838a8.708 8.708 0 0 0 -12.503 0l-2.777 2.838 2.776 2.839a8.782 8.782 0 0 0 3.049 2.03 9.056 9.056 0 0 0 -1.744 3.583l-.919 3.902 3.819.939a8.602 8.602 0 0 0 4.579-.13 9.187 9.187 0 0 0 .282 4.426l1.208 3.819 3.737-1.235a8.775 8.775 0 0 0 3.688-2.37c.041 2.256.897 4.5 2.582 6.222l2.777 2.838 2.777-2.838c1.685-1.722 2.541-3.966 2.582-6.223a8.777 8.777 0 0 0 3.689 2.371l3.736 1.235 1.209-3.819a9.182 9.182 0 0 0 .281-4.426 8.604 8.604 0 0 0 4.58.13l3.818-.939-.918-3.902a9.062 9.062 0 0 0 -1.745-3.584 8.777 8.777 0 0 0 3.049-2.029l2.777-2.838z" fill="#ede9e2" mask="url(#c)" transform="translate(76 102)"/><path d="m101.713 112.59c-6.032 0-10.922-4.9-10.922-10.946v-22.806h21.843v22.806c0 6.046-4.89 10.947-10.921 10.947" fill="#c0bebb"/><path d="m101.713 103.13c-6.032 0-10.922-4.9-10.922-10.947v-11.957h21.843v11.957c0 6.046-4.89 10.947-10.921 10.947" fill="#f69b8a"/><path d="m120.642 52.22-.112.029c-8.528-6.515-14.43 3.37-27.513-6.515a63.63 63.63 0 0 1 -10.131 6.515l-.112-.028a19.214 19.214 0 0 0 -.446 4.096v19.63c0 1.238.112 2.457.344 3.63 1.69 8.993 9.576 15.79 19.041 15.79 9.464 0 17.34-6.797 19.03-15.79.224-1.173.345-2.392.345-3.63v-19.63c0-1.406-.158-2.775-.446-4.096" fill="#f8b39e"/><path d="m89.159 62.353c0-.877.71-1.589 1.585-1.589.876 0 1.586.712 1.586 1.59 0 .877-.71 1.589-1.586 1.589a1.587 1.587 0 0 1 -1.585-1.59m18.564 0c0-.877.71-1.589 1.586-1.589.875 0 1.585.712 1.585 1.59 0 .877-.71 1.589-1.585 1.589a1.587 1.587 0 0 1 -1.586-1.59" fill="#231f20"/><path d="m98.232 71.08a4.479 4.479 0 0 0 3.877 2.251c1.616 0 3.075-.87 3.876-2.25a1 1 0 1 0 -1.73-1.004 2.48 2.48 0 0 1 -2.146 1.254 2.48 2.48 0 0 1 -2.148-1.254 1 1 0 1 0 -1.73 1.004z" fill="#231f20" fill-rule="nonzero"/><path d="m106.433 112.59a4.725 4.725 0 0 0 -4.72-4.73 4.725 4.725 0 0 0 -4.72 4.73 4.725 4.725 0 0 0 4.72 4.731 4.725 4.725 0 0 0 4.72-4.73" fill="#2cb899"/><path d="m75.223 136.492v43.41m52.98-43.41v43.41" stroke="#1a9377" stroke-linecap="round" stroke-linejoin="round" stroke-width="2.625"/><path d="m82.403 58.634v10.31a3.8 3.8 0 0 1 -3.795-3.804v-2.703a3.8 3.8 0 0 1 3.795-3.803m38.685 10.31v-10.31a3.8 3.8 0 0 1 3.795 3.804v2.702a3.8 3.8 0 0 1 -3.795 3.804" fill="#e19d83"/><path d="m32.718 115.78h-10.246a2.993 2.993 0 0 1 -2.99-2.996 2.993 2.993 0 0 1 2.99-2.997h10.246a2.993 2.993 0 0 1 2.99 2.997 2.993 2.993 0 0 1 -2.99 2.996m11.56 30.29-9.62-18.557a15.45 15.45 0 0 1 -1.735-7.112v-4.621h-10.655v4.76a14.88 14.88 0 0 1 -1.67 6.85l-9.685 18.68c-2.23 4.303.885 9.445 5.723 9.445h21.919c4.838 0 7.954-5.142 5.723-9.445" fill="#ede9e2"/><path d="m39.695 137.23c.373 1.766-2.363 7.298-10.074 1.587-5.374-3.98-11.997-5.69-15.638 1.331l-3.192 6.158c-2.175 4.196.862 9.209 5.58 9.209h22.625c4.637 0 7.624-4.929 5.485-9.053z" fill="#4ec0ee"/><path d="m42.807 143.233c-5.432 5.446-13.038 8.837-21.464 8.837-3.966 0-7.749-.757-11.211-2.119.362 2.996 2.864 5.563 6.239 5.563h22.624c4.638 0 7.625-4.928 5.486-9.052l-1.674-3.23z" fill="#0798d1"/><path d="m31.033 135.647a2.34 2.34 0 0 1 2.338-2.343 2.34 2.34 0 0 1 2.337 2.343 2.34 2.34 0 0 1 -2.337 2.343 2.34 2.34 0 0 1 -2.338-2.343m-5.009-11.007c0-.864.699-1.564 1.561-1.564s1.56.7 1.56 1.564-.698 1.564-1.56 1.564-1.56-.7-1.56-1.564" fill="#54b8e8"/><path d="m16.926 144.528a4.14 4.14 0 0 1 4.136-4.144 4.14 4.14 0 0 1 4.135 4.144 4.14 4.14 0 0 1 -4.135 4.145 4.14 4.14 0 0 1 -4.136-4.145" fill="#fefefe"/><path d="m28.017 124.414a3.058 3.058 0 0 1 -4.058 1.51l-8.345-3.834a3.07 3.07 0 0 1 -1.508-4.068 3.059 3.059 0 0 1 4.06-1.511l8.344 3.834a3.072 3.072 0 0 1 1.507 4.069m-2.272 6.931a3.058 3.058 0 0 1 -4.059 1.51l-8.345-3.834a3.072 3.072 0 0 1 -1.507-4.068 3.059 3.059 0 0 1 4.06-1.51l8.344 3.834a3.071 3.071 0 0 1 1.507 4.068m0 6.911a3.059 3.059 0 0 1 -4.059 1.51l-8.345-3.834a3.072 3.072 0 0 1 -1.507-4.068 3.058 3.058 0 0 1 4.06-1.51l8.344 3.834a3.071 3.071 0 0 1 1.507 4.068" fill="#ebba9e"/><g fill="#c0bebb"><path d="m.195 66.82c0-3.773 3.051-6.832 6.816-6.832s6.816 3.059 6.816 6.832-3.051 6.831-6.816 6.831-6.816-3.058-6.816-6.831m40.143 0c0-3.773 3.051-6.832 6.816-6.832 3.764 0 6.816 3.059 6.816 6.832s-3.052 6.831-6.816 6.831c-3.765 0-6.816-3.058-6.816-6.831"/><path d="m9.043 65.75c0-4.365 3.53-7.903 7.884-7.903s7.884 3.538 7.884 7.902c0 4.365-3.53 7.903-7.884 7.903-4.355 0-7.884-3.538-7.884-7.903m21.921.001c0-4.365 3.53-7.903 7.884-7.903 4.355 0 7.885 3.538 7.885 7.902 0 4.365-3.53 7.903-7.885 7.903-4.354 0-7.884-3.538-7.884-7.903m7.366 31.617a2.66 2.66 0 0 1 2.658-2.663 2.66 2.66 0 0 1 2.656 2.663 2.66 2.66 0 0 1 -2.656 2.663 2.66 2.66 0 0 1 -2.657-2.663m-29.432 0a2.66 2.66 0 0 1 2.656-2.663 2.66 2.66 0 0 1 2.657 2.663 2.66 2.66 0 0 1 -2.657 2.663 2.66 2.66 0 0 1 -2.655-2.663m48.056-28.278a2.66 2.66 0 0 1 2.657-2.663 2.66 2.66 0 0 1 2.657 2.663 2.66 2.66 0 0 1 -2.657 2.662 2.66 2.66 0 0 1 -2.657-2.662m-50.714-39.418a2.66 2.66 0 0 1 2.657-2.663 2.66 2.66 0 0 1 2.656 2.662 2.66 2.66 0 0 1 -2.656 2.663 2.66 2.66 0 0 1 -2.657-2.663m34.746-26.749a2.66 2.66 0 0 1 2.656-2.663 2.66 2.66 0 0 1 2.657 2.663 2.66 2.66 0 0 1 -2.657 2.662 2.66 2.66 0 0 1 -2.656-2.662m-10.274 32.96a2.66 2.66 0 0 1 2.657-2.664 2.66 2.66 0 0 1 2.656 2.663 2.66 2.66 0 0 1 -2.656 2.663 2.66 2.66 0 0 1 -2.657-2.663"/><path d="m16.47 62.683c0-6.057 4.9-10.968 10.944-10.968 6.043 0 10.943 4.911 10.943 10.968 0 6.058-4.9 10.969-10.943 10.969-6.044 0-10.943-4.911-10.943-10.969"/><path d="m12.617 56.709c0-8.191 6.625-14.831 14.797-14.831s14.797 6.64 14.797 14.83c0 8.192-6.625 14.832-14.797 14.832s-14.797-6.64-14.797-14.831"/></g><path d="m35.708 97.366c0 1.47-3.787 2.663-8.459 2.663-4.671 0-8.46-1.193-8.46-2.663s3.789-2.663 8.46-2.663c4.672 0 8.46 1.192 8.46 2.663zm6.502-13.364c0 1.47-6.267 2.663-13.999 2.663-7.731 0-14-1.193-14-2.663 0-1.471 6.269-2.663 14-2.663 7.732 0 14 1.192 14 2.663z" stroke="#c0bebb" stroke-width="2"/><path d="m102.108 81h7.301a1 1 0 1 0 0-2h-7.3a1 1 0 1 0 0 2z" fill="#231f20" fill-rule="nonzero"/></g></svg>