<svg height="72" viewBox="0 0 65 72" width="65" xmlns="http://www.w3.org/2000/svg" xmlns:xlink="http://www.w3.org/1999/xlink"><defs><path id="a" d="m7.429 50.518c1.944-.285 3.478-1.82 3.743-3.753a24.643 24.643 0 0 0 15.545 7.235 4.365 4.365 0 0 0 -.834 5.224 29.97 29.97 0 0 1 -18.454-8.706zm-7.414-29.218c3.65-12.311 15.135-21.3 28.74-21.3 4.734 0 9.211 1.088 13.191 3.027a4.392 4.392 0 0 0 -2.298 4.76 24.708 24.708 0 0 0 -10.893-2.51c-11.04 0-20.382 7.198-23.51 17.117a4.444 4.444 0 0 0 -3.345-1.509c-.674 0-1.313.15-1.885.416zm48.407-14.005c6.3 5.44 10.283 13.452 10.283 22.384 0 1.876-.176 3.71-.512 5.49a4.444 4.444 0 0 0 -3.544-1.752c-.566 0-1.106.105-1.604.296.22-1.312.335-2.66.335-4.034 0-7.365-3.293-13.969-8.5-18.443 1.91-.381 3.377-1.978 3.542-3.941zm7.588 34.705c-4.042 8.768-12.266 15.245-22.145 16.928a4.372 4.372 0 0 0 -1.225-5.148 24.632 24.632 0 0 0 18.316-13.529 4.443 4.443 0 0 0 3.693 1.96c.475 0 .932-.074 1.361-.211z"/><mask id="b" fill="#fff"><use fill="#fff" fill-rule="evenodd" xlink:href="#a"/></mask></defs><g fill="none" fill-rule="evenodd"><g transform="translate(6.212 .44)"><use fill="#50b7e8" xlink:href="#a"/><path d="m39.766 10.498 8.708-5.277 9.429 13.301 1.608 16.104-9.872 2.748v-15.334zm-34.442 40.562 10.039 8.738 11.148 1.045 4.27-9.179-13.81-1.979-7.099-4.891c-1.331-3.347-2.108-4.867-2.33-4.562-.22.305-.96 3.914-2.218 10.828z" fill="#9fa0a1" mask="url(#b)"/></g><g transform="translate(4.548 .44)"><g><path d="m31.503 60.678c-1.96 0-3.55-1.575-3.55-3.518 0-1.942 1.59-3.517 3.55-3.517s3.55 1.575 3.55 3.517c0 1.943-1.59 3.518-3.55 3.518zm0-1.368a2.16 2.16 0 0 0 2.169-2.15 2.16 2.16 0 0 0 -2.17-2.15 2.16 2.16 0 0 0 -2.169 2.15 2.16 2.16 0 0 0 2.17 2.15z" fill="#50b7e8"/><path d="m31.503 60.428c1.822 0 3.3-1.464 3.3-3.268s-1.478-3.267-3.3-3.267c-1.823 0-3.3 1.463-3.3 3.267s1.477 3.268 3.3 3.268zm0-.868a2.41 2.41 0 0 1 -2.42-2.4 2.41 2.41 0 0 1 2.42-2.4 2.41 2.41 0 0 1 2.419 2.4 2.41 2.41 0 0 1 -2.42 2.4z" stroke="#50b7e8" stroke-width=".5"/></g><g><path d="m56.35 41.331c-1.96 0-3.55-1.575-3.55-3.517 0-1.943 1.59-3.518 3.55-3.518s3.55 1.575 3.55 3.518c0 1.942-1.59 3.517-3.55 3.517zm0-1.368a2.16 2.16 0 0 0 2.169-2.15 2.16 2.16 0 0 0 -2.17-2.149 2.16 2.16 0 0 0 -2.169 2.15 2.16 2.16 0 0 0 2.17 2.15z" fill="#50b7e8"/><path d="m56.35 41.081c1.822 0 3.3-1.463 3.3-3.267s-1.478-3.268-3.3-3.268c-1.823 0-3.3 1.464-3.3 3.268s1.477 3.267 3.3 3.267zm0-.868a2.41 2.41 0 0 1 -2.42-2.4 2.41 2.41 0 0 1 2.42-2.399 2.41 2.41 0 0 1 2.419 2.4 2.41 2.41 0 0 1 -2.42 2.4z" stroke="#50b7e8" stroke-width=".5"/></g><g><path d="m45.7 10.443c-1.96 0-3.549-1.575-3.549-3.518s1.59-3.517 3.55-3.517 3.55 1.574 3.55 3.517-1.59 3.518-3.55 3.518zm0-1.368a2.16 2.16 0 0 0 2.17-2.15 2.16 2.16 0 0 0 -2.17-2.15 2.16 2.16 0 0 0 -2.168 2.15 2.16 2.16 0 0 0 2.169 2.15z" fill="#50b7e8"/><path d="m45.7 10.193c1.824 0 3.3-1.464 3.3-3.268s-1.476-3.267-3.3-3.267c-1.822 0-3.299 1.463-3.299 3.267s1.477 3.268 3.3 3.268zm0-.868a2.41 2.41 0 0 1 -2.418-2.4 2.41 2.41 0 0 1 2.419-2.4 2.41 2.41 0 0 1 2.419 2.4 2.41 2.41 0 0 1 -2.42 2.4z" stroke="#50b7e8" stroke-width=".5"/></g><g><path d="m3.55 28.8c-1.96 0-3.55-1.575-3.55-3.518 0-1.942 1.59-3.517 3.55-3.517s3.55 1.575 3.55 3.517c0 1.943-1.59 3.518-3.55 3.518zm0-1.368a2.16 2.16 0 0 0 2.169-2.15 2.16 2.16 0 0 0 -2.17-2.15 2.16 2.16 0 0 0 -2.169 2.15 2.16 2.16 0 0 0 2.17 2.15z" fill="#50b7e8"/><path d="m3.55 28.55c1.822 0 3.3-1.463 3.3-3.268 0-1.804-1.478-3.267-3.3-3.267-1.823 0-3.3 1.463-3.3 3.267 0 1.805 1.477 3.268 3.3 3.268zm0-.868a2.41 2.41 0 0 1 -2.42-2.4 2.41 2.41 0 0 1 2.42-2.4 2.41 2.41 0 0 1 2.419 2.4 2.41 2.41 0 0 1 -2.42 2.4z" stroke="#50b7e8" stroke-width=".5"/></g><g><path d="m8.43 49.685c-1.96 0-3.55-1.574-3.55-3.517s1.59-3.518 3.55-3.518 3.55 1.575 3.55 3.518-1.59 3.517-3.55 3.517zm0-1.367a2.16 2.16 0 0 0 2.17-2.15 2.16 2.16 0 0 0 -2.17-2.15 2.16 2.16 0 0 0 -2.169 2.15 2.16 2.16 0 0 0 2.17 2.15z" fill="#50b7e8"/><path d="m8.43 49.435c1.823 0 3.3-1.463 3.3-3.267s-1.477-3.268-3.3-3.268-3.3 1.464-3.3 3.268 1.477 3.267 3.3 3.267zm0-.867a2.41 2.41 0 0 1 -2.419-2.4 2.41 2.41 0 0 1 2.42-2.4 2.41 2.41 0 0 1 2.418 2.4 2.41 2.41 0 0 1 -2.419 2.4z" stroke="#50b7e8" stroke-width=".5"/></g></g><g transform="translate(0 39.353)"><path d="m1.775 7.915h5.324v17.588h-5.324z" fill="#50b7e8"/><path d="m2.025 8.165h4.824v17.088h-4.824z" stroke="#50b7e8" stroke-width=".5"/><ellipse cx="4.437" cy="4.397" fill="#fff" rx="4.437" ry="4.397"/><ellipse cx="4.437" cy="28.25" fill="#fff" rx="4.437" ry="4.397"/><path d="m4.437 31.768c-1.96 0-3.55-1.575-3.55-3.518 0-1.942 1.59-3.517 3.55-3.517s3.55 1.575 3.55 3.517c0 1.943-1.59 3.518-3.55 3.518zm0-1.368a2.16 2.16 0 0 0 2.17-2.15 2.16 2.16 0 0 0 -2.17-2.15 2.16 2.16 0 0 0 -2.17 2.15 2.16 2.16 0 0 0 2.17 2.15z" fill="#50b7e8"/><path d="m4.437 31.518c1.823 0 3.3-1.464 3.3-3.268s-1.477-3.267-3.3-3.267-3.3 1.463-3.3 3.267 1.477 3.268 3.3 3.268zm0-.868a2.41 2.41 0 0 1 -2.42-2.4 2.41 2.41 0 0 1 2.42-2.4 2.41 2.41 0 0 1 2.42 2.4 2.41 2.41 0 0 1 -2.42 2.4z" stroke="#50b7e8" stroke-width=".5"/><path d="m4.437 7.475c-1.96 0-3.55-1.575-3.55-3.518 0-1.942 1.59-3.517 3.55-3.517s3.55 1.575 3.55 3.517c0 1.943-1.59 3.518-3.55 3.518zm0-1.368a2.16 2.16 0 0 0 2.17-2.15 2.16 2.16 0 0 0 -2.17-2.15 2.16 2.16 0 0 0 -2.17 2.15 2.16 2.16 0 0 0 2.17 2.15z" fill="#50b7e8"/><path d="m4.437 7.225c1.823 0 3.3-1.464 3.3-3.268s-1.477-3.267-3.3-3.267-3.3 1.463-3.3 3.267 1.477 3.268 3.3 3.268zm0-.868a2.41 2.41 0 0 1 -2.42-2.4 2.41 2.41 0 0 1 2.42-2.4 2.41 2.41 0 0 1 2.42 2.4 2.41 2.41 0 0 1 -2.42 2.4z" stroke="#50b7e8" stroke-width=".5"/></g><path d="m24.979 30.119h19.411v1.759h-19.411z" fill="#50b7e8"/><g transform="translate(20.854 16.928)"><path d="m3.478 22.842a13.886 13.886 0 0 0 10.388 4.639c7.657 0 13.865-6.152 13.865-13.74m-2.707-8.159a13.887 13.887 0 0 0 -11.158-5.582c-7.658 0-13.866 6.152-13.866 13.74" stroke="#9fa0a1" stroke-width="3.957"/><g fill="#9fa0a1"><ellipse cx="24.847" cy="5.276" rx="2.108" ry="2.089"/><ellipse cx="3.217" cy="22.644" rx="2.108" ry="2.089"/></g></g></g></svg>