<svg height="48" viewBox="0 0 48 48" width="48" xmlns="http://www.w3.org/2000/svg"><g fill="none" fill-rule="evenodd" opacity=".54"><circle cx="24" cy="24" fill="#fff" r="24"/><g fill="#2f2f2f" fill-rule="nonzero"><path d="m28 30c-3.3137085 0-6-2.6862915-6-6s2.6862915-6 6-6 6 2.6862915 6 6-2.6862915 6-6 6zm0-.8c2.8718807 0 5.2-2.3281193 5.2-5.2s-2.3281193-5.2-5.2-5.2-5.2 2.3281193-5.2 5.2 2.3281193 5.2 5.2 5.2z"/><path d="m28 33c-4.9705627 0-9-4.0294373-9-9s4.0294373-9 9-9 9 4.0294373 9 9-4.0294373 9-9 9zm0-.8571429c4.4971758 0 8.1428571-3.6456813 8.1428571-8.1428571s-3.6456813-8.1428571-8.1428571-8.1428571-8.1428571 3.6456813-8.1428571 8.1428571 3.6456813 8.1428571 8.1428571 8.1428571z"/><path d="m11 20v8c0 1.1045695.8954305 2 2 2h5.1715729c.530433 0 1.0391408.2107137 1.4142135.5857864l6 6c.7810486.7810486 2.0473786.7810486 2.8284272 0 .3750727-.3750727.5857864-.8837805.5857864-1.4142135v-22.3431458c0-1.1045695-.8954305-2-2-2-.530433 0-1.0391408.2107137-1.4142136.5857865l-6 6c-.3750727.3750727-.8837805.5857864-1.4142135.5857864h-5.1715729c-1.1045695 0-2 .8954305-2 2z"/></g></g></svg>