<svg xmlns="http://www.w3.org/2000/svg" width="21" height="18" viewBox="0 0 21 18"><path fill="#B2B2B2" fill-rule="evenodd" d="M20.571 2.667a8.57 8.57 0 0 1-2.42.666 4.245 4.245 0 0 0 1.855-2.36c-.816.494-1.71.84-2.671 1.04A4.215 4.215 0 0 0 14.257.667c-2.329 0-4.223 1.906-4.223 4.266 0 .334.04.654.105.96-3.5-.173-6.604-1.866-8.683-4.453a4.294 4.294 0 0 0-.579 2.147c0 1.48.75 2.786 1.882 3.546A4.015 4.015 0 0 1 .85 6.6v.053a4.261 4.261 0 0 0 3.381 4.187 4.358 4.358 0 0 1-1.118.147c-.263 0-.526-.027-.79-.08.54 1.693 2.092 2.933 3.934 2.96a8.34 8.34 0 0 1-5.236 1.826c-.329 0-.67-.013-1-.053a11.905 11.905 0 0 0 6.46 1.907c7.761 0 11.997-6.494 11.997-12.12l-.013-.56a8.53 8.53 0 0 0 2.105-2.2"/></svg>