<svg height="20" viewBox="0 0 22 20" width="22" xmlns="http://www.w3.org/2000/svg"><path d="m8.643 5.433c-.25-1.96-1.657-3.533-3.13-3.573-1.474-.053-2.46 1.453-2.211 3.413.25 1.96 1.658 3.587 3.131 3.627s2.473-1.507 2.21-3.467zm-2.407 7.267c-2.197-.013-4.17 1.36-4.17 3.013 0 1.694 1.591 3.107 3.788 3.107 3.092 0 4.17-1.333 4.17-3.013 0-.214-.026-.414-.065-.6-.25-.96-1.105-1.427-2.29-2.267a4.898 4.898 0 0 0 -1.433-.24zm2.618-10.893c1.21.96 1.855 1.973 1.855 3.426 0 1.227-.671 2.36-1.619 3.107-.92.733-1.105 1.04-1.105 1.667 0 .52.987 1.426 1.513 1.8 1.513 1.08 2 2.08 2 3.76 0 2.093-2 4.173-5.63 4.173-3.185 0-5.868-1.307-5.868-3.4 0-2.133 2.447-4.173 5.63-4.173l1-.014c-.434-.426-.789-.96-.789-1.613 0-.373.132-.76.303-1.093-.185.013-.356 0-.54 0-2.604 0-4.354-1.934-4.354-4.267 0-2.28 2.407-4.347 4.973-4.347h5.735l-1.289.974zm8.998 3.84v3.853h-.947v-3.853h-3.815v-.96h3.815v-3.854h.947v3.854h3.802v.96z" fill="#b2b2b2" fill-rule="evenodd"/></svg>