<svg height="512" viewBox="0 0 512 512" width="512" xmlns="http://www.w3.org/2000/svg" xmlns:xlink="http://www.w3.org/1999/xlink"><clipPath id="a"><path d="m0 0h512v512h-512z"/></clipPath><g clip-path="url(#a)"><path d="m-167.86.45h429.52v256.07h-429.52z" fill="#fff" fill-rule="evenodd"/><path d="m-167.86.45-.018 19.22 102.5 63.22 38.565 1.34-141.05-83.78z" fill="#c00"/><path d="m-123.97.45 124.26 77.916v-77.916z" fill="#006"/><path d="m16.866.45v99.468h-184.73v56.84h184.73v99.467h56.84v-99.468h184.73v-56.84h-184.731v-99.467h-56.84z" fill="#c00"/><path d="m90.283.45v73.417l121.57-72.847z" fill="#006"/><path d="m94.12 81.87 34.19-.33 132.82-80.52-35.24.688z" fill="#c00"/><path d="m259.78 22.495-101.46 60.395 100.11.45v89.995h-85.258l84.47 54.942 1.24 27.948-45.117-.647-123.48-72.77v73.417h-89.995v-73.417l-115.83 73.22-52.315.197v255.78h852.58v-511.55l-424.04-.46m-428.54 28.87-.45 53.12 89.757 1.35-89.307-54.472zm-.005 144.465v54.47l85.258-53.9z" fill="#006"/><path d="m160.45 175.58-35.543-.33 133.97 80.07-.88-18.318-97.55-61.422zm-295.02 81.09 125.62-79.17-32.994.262-125.92 78.79" fill="#c00"/><path d="m368.61 245.108 2.165 2.166z" fill="#49497d"/><path d="m370.775 245.108 2.166 2.166-2.165-2.166z" fill="#0e0e6e"/><path d="m364.28 247.274 2.164 2.165-2.165-2.166z" fill="#262678"/><path d="m366.444 247.274 2.166 2.165-2.166-2.166z" fill="#808067"/><path d="m372.94 247.274 2.166 2.165-2.165-2.166z" fill="#58587b"/><path d="m292.817 249.44 2.166 2.165-2.166-2.166z" fill="#0e0e6e"/><path d="m359.948 249.44 2.165 2.165-2.165-2.166z" fill="#1b1b74"/><path d="m362.113 249.44 2.166 2.165-2.167-2.166z" fill="#6e6c70"/><path d="m296.628 253.36c0 55.95-6.45 119.004 35.255 162.823 8.58 9.014 24.9 29.572 38.892 28.783 14.647-.825 33.483-22.5 41.86-33.114 36.304-47.754 30.533-104.713 31.767-160.14-16.393 7.363-24.557 9.788-38.892 9.745-10.618 1.09-26.998-6.045-36.792-10.714-6.4 4.275-15.687 9.373-32.374 9.945-19.273.848-25.38-2.418-39.716-7.33z" fill="#cc3"/><path d="m375.106 249.44 2.166 2.165-2.166-2.166z" fill="#99994e"/><path d="m377.272 249.44 2.165 2.165-2.165-2.166z" fill="#49497d"/><path d="m444.402 249.44 2.166 2.165-2.166-2.166z" fill="#0e0e6e"/><path d="m294.983 251.605 2.165 2.165z" fill="#a4a43d"/><path d="m297.148 251.605 2.166 2.165z" fill="#6e6c70"/><path d="m299.314 251.605 2.165 2.165-2.166-2.165z" fill="#3a3a7c"/><path d="m355.617 251.605 2.165 2.165z" fill="#1b1b74"/><path d="m357.782 251.605 2.166 2.165z" fill="#6e6c70"/><path d="m359.948 251.605 2.165 2.165z" fill="#a4a43d"/><path d="m368.61 251.605 2.165 2.165z" fill="#d0d045"/><path d="m377.272 251.605 2.165 2.165z" fill="#a4a43d"/><path d="m379.437 251.605 2.166 2.165z" fill="#8d8d5b"/><path d="m381.603 251.605 2.165 2.165z" fill="#3a3a7c"/><path d="m437.906 251.605 2.165 2.165-2.164-2.165z" fill="#262678"/><path d="m440.07 251.605 2.167 2.165-2.166-2.165z" fill="#53527c"/><path d="m442.237 251.605 2.165 2.165z" fill="#8d8d5b"/><path d="m303.645 253.77 2.165 2.166z" fill="#737370"/><path d="m305.81 253.77 2.166 2.166z" fill="#53527c"/><path d="m307.976 253.77 2.165 2.166-2.164-2.166z" fill="#1b1b74"/><path d="m351.286 253.77 2.165 2.166-2.164-2.166z" fill="#262678"/><path d="m353.45 253.77 2.167 2.166-2.166-2.166z" fill="#6e6c70"/><path d="m355.617 253.77 2.165 2.166z" fill="#a4a43d"/><path d="m366.444 253.77 2.166 2.166z" fill="#e5e59d"/><path d="m301.068 259.444c-1.165 29.392-.27 62.49 4.324 93.94 5.08 16.43 4.4 25.454 11.95 35.3l105.67-.822c6.368-10.36 11.09-26.068 11.7-32.313 5.9-31.763 6.04-66.814 6.182-98.164-10.626 5.65-24.542 9.652-38.048 7.895-10.827-.824-20.832-3.296-32.482-9.88-10.107 6.054-13.63 8.818-30.317 9.525-12.993.64-23.518 1.693-38.98-5.482z" fill="#fff"/><path d="m370.775 253.77 2.166 2.166-2.165-2.166z" fill="#f2f1d7"/><path d="m372.94 253.77 2.166 2.166-2.165-2.166z" fill="#d9d868"/><path d="m381.603 253.77 2.165 2.166z" fill="#a4a43d"/><path d="m383.768 253.77 2.166 2.166z" fill="#99994e"/><path d="m385.934 253.77 2.165 2.166-2.166-2.166z" fill="#49497d"/><path d="m388.1 253.77 2.165 2.166-2.166-2.166z" fill="#0e0e6e"/><path d="m431.41 253.77 2.165 2.166-2.166-2.166z" fill="#3a3a7c"/><path d="m433.575 253.77 2.165 2.166z" fill="#667"/><path d="m435.74 253.77 2.166 2.166z" fill="#99994e"/><path d="m437.906 253.77 2.165 2.166-2.164-2.166m-129.93 2.166 2.165 2.165-2.164-2.164z" fill="#a4a43d"/><path d="m310.14 255.936 2.167 2.165-2.166-2.164z" fill="#99994e"/><path d="m312.307 255.936 2.165 2.165-2.165-2.164z" fill="#6e6c70"/><path d="m314.472 255.936 2.166 2.165-2.166-2.164z" fill="#49497d"/><path d="m316.638 255.936 2.165 2.165-2.165-2.164m28.15 0 2.167 2.165-2.166-2.164z" fill="#1b1b74"/><path d="m346.955 255.936 2.165 2.165-2.165-2.164z" fill="#53527c"/><path d="m349.12 255.936 2.166 2.165-2.166-2.164z" fill="#8d8d5b"/><path d="m351.286 255.936 2.165 2.165-2.164-2.164z" fill="#a4a43d"/><path d="m362.113 255.936 2.166 2.165-2.167-2.164z" fill="#e5e59d"/><path d="m364.28 255.936 2.164 2.165-2.165-2.164z" fill="#fbfaf2"/><path d="m375.106 255.936 2.166 2.165-2.166-2.164z" fill="#f2f1d2"/><path d="m377.272 255.936 2.165 2.165-2.165-2.164z" fill="#d9d868"/><path d="m388.1 255.936 2.165 2.165-2.166-2.164z" fill="#a4a43d"/><path d="m390.265 255.936 2.165 2.165-2.165-2.164z" fill="#6e6c70"/><path d="m392.43 255.936 2.166 2.165-2.166-2.164z" fill="#3a3a7c"/><path d="m420.582 255.936 2.165 2.165-2.165-2.164z" fill="#0e0e6e"/><path d="m422.747 255.936 2.166 2.165-2.166-2.164z" fill="#32327b"/><path d="m424.913 255.936 2.165 2.165-2.165-2.164z" fill="#58587b"/><path d="m427.078 255.936 2.166 2.165-2.166-2.164z" fill="#808067"/><path d="m430.694 256.65 1.443.722z" fill="#a4a43d"/><path d="m299.314 258.1 2.165 2.167-2.166-2.166z" fill="#dddc7a"/><path d="m301.48 258.1 2.165 2.167-2.166-2.166z" fill="#d0d045"/><path d="m318.088 258.816 1.443.722-1.442-.722z" fill="#a4a43d"/><path d="m320.97 258.1 2.164 2.167-2.165-2.166z" fill="#808067"/><path d="m323.134 258.1 2.166 2.167-2.166-2.166z" fill="#667"/><path d="m325.3 258.1 2.165 2.167-2.165-2.166z" fill="#58587b"/><path d="m327.465 258.1 2.166 2.167-2.165-2.166z" fill="#49497d"/><path d="m340.458 258.1 2.166 2.167-2.166-2.166z" fill="#737370"/><path d="m342.624 258.1 2.165 2.167-2.166-2.166z" fill="#99994e"/><path d="m344.79 258.1 2.165 2.167-2.166-2.166z" fill="#a4a43d"/><path d="m357.782 258.1 2.166 2.167-2.166-2.166z" fill="#e5e59d"/><path d="m359.948 258.1 2.165 2.167-2.165-2.166z" fill="#fbfaf2"/><path d="m379.437 258.1 2.166 2.167-2.166-2.166z" fill="#f2f1d2"/><path d="m381.603 258.1 2.165 2.167-2.165-2.166z" fill="#d9d868"/><path d="m393.88 258.816 1.443.722-1.442-.722z" fill="#a4a43d"/><path d="m396.76 258.1 2.167 2.167-2.166-2.166z" fill="#808067"/><path d="m398.927 258.1 2.165 2.167-2.165-2.166z" fill="#667"/><path d="m401.092 258.1 2.166 2.167-2.166-2.166z" fill="#58587b"/><path d="m403.258 258.1 2.165 2.167-2.165-2.166z" fill="#3a3a7c"/><path d="m413.37 258.816 1.443.722z" fill="#58587b"/><path d="m416.25 258.1 2.166 2.167-2.165-2.166z" fill="#737370"/><path d="m418.416 258.1 2.166 2.167-2.166-2.166z" fill="#99994e"/><path d="m420.582 258.1 2.165 2.167-2.165-2.166z" fill="#a4a43d"/><path d="m437.906 258.1 2.165 2.167-2.164-2.166z" fill="#dddc7a"/><path d="m440.07 258.1 2.167 2.167-2.166-2.166z" fill="#d0d045"/><path d="m303.645 260.267 2.165 2.165z" fill="#f2f1d7"/><path d="m305.81 260.267 2.166 2.165z" fill="#e0dea1"/><path d="m307.976 260.267 2.165 2.165-2.164-2.165z" fill="#dddc7a"/><path d="m351.286 260.267 2.165 2.165-2.164-2.165z" fill="#d9d868"/><path d="m353.45 260.267 2.167 2.165-2.166-2.165z" fill="#e5e3af"/><path d="m383.768 260.267 2.166 2.165z" fill="#f6f6e4"/><path d="m385.934 260.267 2.165 2.165-2.166-2.165z" fill="#e1e18c"/><path d="m429.244 260.267 2.165 2.165-2.166-2.165z" fill="#d4d456"/><path d="m431.41 260.267 2.165 2.165-2.166-2.165z" fill="#e1e18c"/><path d="m433.575 260.267 2.165 2.165z" fill="#eeedc1"/><path d="m312.307 262.432 2.165 2.166z" fill="#f2f1d2"/><path d="m314.472 262.432 2.166 2.166z" fill="#e0dea1"/><path d="m316.638 262.432 2.165 2.166z" fill="#dddc7a"/><path d="m318.803 262.432 2.166 2.166-2.167-2.166z" fill="#d0d045"/><path d="m344.79 262.432 2.165 2.166-2.166-2.166z" fill="#dddc7a"/><path d="m346.955 262.432 2.165 2.166z" fill="#e5e3af"/><path d="m349.12 262.432 2.166 2.166z" fill="#f6f6e4"/><path d="m390.265 262.432 2.165 2.166z" fill="#eeedc1"/><path d="m392.43 262.432 2.166 2.166z" fill="#e1e18c"/><path d="m394.596 262.432 2.165 2.166-2.164-2.166z" fill="#d4d456"/><path d="m420.582 262.432 2.165 2.166z" fill="#d9d868"/><path d="m422.747 262.432 2.166 2.166z" fill="#e1e18c"/><path d="m424.913 262.432 2.165 2.166z" fill="#eeedc1"/><path d="m427.078 262.432 2.166 2.166z" fill="#f6f6e4"/><path d="m323.134 264.598 2.166 2.165z" fill="#f2f1d7"/><path d="m325.3 264.598 2.165 2.165z" fill="#f2f1d2"/><path d="m327.465 264.598 2.166 2.165-2.165-2.165z" fill="#eeedc1"/><path d="m337.578 265.312 1.442.722z" fill="#f2f1d2"/><path d="m340.458 264.598 2.166 2.165z" fill="#fbfaf2"/><path d="m351.286 264.598 4.33 4.33v-4.33z" fill="#fef8f1"/><path d="m398.927 264.598 2.165 2.165z" fill="#f2f1d7"/><path d="m401.092 264.598 2.166 2.165z" fill="#f2f1d2"/><path d="m403.258 264.598 2.165 2.165z" fill="#e5e3af"/><path d="m406.874 265.312 1.442.722z" fill="#e5e59d"/><path d="m409.754 264.598 2.166 2.165z" fill="#e0dea1"/><path d="m413.37 265.312 1.443.722z" fill="#f2f1d2"/><path d="m416.25 264.598 2.166 2.165-2.165-2.165z" fill="#fbfaf2"/><path d="m346.955 266.763 2.165 2.166-2.165-2.167z" fill="#fef8f1"/><path d="m349.12 266.763 2.166 2.166-2.166-2.167z" fill="#fbbe66"/><path d="m346.955 268.93 2.165 2.164-2.165-2.165z" fill="#fbc477"/><path d="m351.286 268.93 2.165 2.164-2.164-2.165z" fill="#fcb144"/><path d="m346.955 271.094 2.165 2.166z" fill="#fe9f11"/><path d="m351.286 271.094 2.165 2.166-2.164-2.166z" fill="#fea522"/><path d="m344.79 273.26 2.165 2.165-2.166-2.165m8.66 0 2.167 2.165-2.166-2.165z" fill="#fae3c9"/><path d="m364.28 273.26 2.164 2.165-2.165-2.165z" fill="#fbead6"/><path d="m366.444 273.26 2.166 2.165z" fill="#f9d6aa"/><path d="m375.106 273.26 2.166 2.165z" fill="#fae3c9"/><path d="m377.272 273.26 2.165 2.165z" fill="#fef8f1"/><path d="m344.79 275.425 2.165 2.166-2.166-2.165z" fill="#f9d099"/><path d="m353.45 275.425 2.167 2.166-2.166-2.165z" fill="#fdab33"/><path d="m357.782 275.425 2.166 2.166-2.166-2.165z" fill="#fcf1e4"/><path d="m359.948 275.425 2.165 2.166-2.165-2.165z" fill="#fbc477"/><path d="m362.113 275.425 2.166 2.166-2.167-2.165z" fill="#fea522"/><path d="m379.437 275.425 2.166 2.166-2.166-2.165z" fill="#fcb755"/><path d="m381.603 275.425 2.165 2.166-2.165-2.165z" fill="#f9d6aa"/><path d="m344.79 277.59 2.165 2.166-2.166-2.165z" fill="#faca88"/><path d="m355.617 277.59 2.165 2.166-2.165-2.165m28.15 0 2.167 2.166-2.166-2.165z" fill="#fea522"/><path d="m385.934 277.59 2.165 2.166-2.166-2.165z" fill="#f8dcbb"/><path d="m299.314 279.756 2.165 2.166-2.166-2.166z" fill="#f6f6e4"/><path d="m344.79 279.756 2.165 2.166-2.166-2.166z" fill="#fbc477"/><path d="m388.1 279.756 2.165 2.166-2.166-2.166z" fill="#fbbe66"/><path d="m390.265 279.756 2.165 2.166z" fill="#f8dcbb"/><path d="m344.79 281.922 2.165 2.165-2.166-2.165z" fill="#faca88"/><path d="m394.596 281.922 2.165 2.165-2.164-2.165z" fill="#fcb755"/><path d="m396.76 281.922 2.167 2.165-2.166-2.165z" fill="#f8dcbb"/><path d="m342.624 284.087 2.165 2.166-2.166-2.166z" fill="#fef8f1"/><path d="m344.79 284.087 2.165 2.166-2.166-2.166z" fill="#fe9f11"/><path d="m405.423 284.087 2.166 2.166-2.167-2.166z" fill="#fdab33"/><path d="m407.59 284.087 2.164 2.166-2.165-2.166z" fill="#fcb144"/><path d="m409.754 284.087 2.166 2.166z" fill="#fbc477"/><path d="m411.92 284.087 4.33 4.33z" fill="#f9d6aa"/><path d="m414.085 284.087 2.166 2.166-2.165-2.166z" fill="#fef8f1"/><path d="m342.624 286.253 2.165 2.165-2.166-2.165z" fill="#fcb144"/><path d="m372.94 286.253 2.166 2.165-2.165-2.165z" fill="#fdab33"/><path d="m375.106 286.253 2.166 2.165zm8.662 0 2.166 2.165z" fill="#fbc477"/><path d="m385.934 286.253 2.165 2.165-2.166-2.165z" fill="#fea522"/><path d="m340.458 288.418 2.166 2.166z" fill="#fae3c9"/><path d="m368.61 288.418 2.165 2.166z" fill="#fcb144"/><path d="m370.775 288.418 2.166 2.166-2.165-2.166z" fill="#fae3c9"/><path d="m388.1 288.418 2.165 2.166-2.166-2.166z" fill="#f8dcbb"/><path d="m390.265 288.418 2.165 2.166z" fill="#fdab33"/><path d="m403.258 288.418 2.165 2.166z" fill="#fe9f11"/><path d="m405.423 288.418 2.166 2.166-2.167-2.166z" fill="#fcb755"/><path d="m407.59 288.418 2.164 2.166-2.165-2.166z" fill="#f9d099"/><path d="m409.754 288.418 2.166 2.166z" fill="#fbead6"/><path d="m340.458 290.584 2.166 2.165-2.166-2.166z" fill="#fcb144"/><path d="m366.444 290.584 2.166 2.165-2.166-2.166z" fill="#fbbe66"/><path d="m392.43 290.584 2.166 2.165-2.166-2.166z" fill="#f9d099"/><path d="m401.092 290.584 2.166 2.165-2.166-2.166z" fill="#fbead6"/><path d="m338.293 292.75 2.165 2.165-2.165-2.166z" fill="#fcf1e4"/><path d="m364.28 292.75 2.164 2.165-2.165-2.166z" fill="#fbbe66"/><path d="m394.596 292.75 2.165 2.165-2.164-2.166z" fill="#f9d099"/><path d="m401.092 292.75 2.166 2.165-2.166-2.166z" fill="#fae3c9"/><path d="m338.293 294.915 2.165 2.165z" fill="#fbc477"/><path d="m362.113 294.915 2.166 2.165-2.167-2.165m34.648 0 2.167 2.165-2.166-2.165z" fill="#fcb144"/><path d="m401.092 294.915 2.166 2.165z" fill="#fbbe66"/><path d="m299.314 297.08 2.165 2.166-2.166-2.166z" fill="#f6f6e4"/><path d="m338.293 297.08 2.165 2.166z" fill="#fea522"/><path d="m362.113 297.08 2.166 2.166-2.167-2.166z" fill="#fbead6"/><path d="m396.76 297.08 2.167 2.166-2.166-2.166z" fill="#fcf1e4"/><path d="m403.258 297.08 2.165 2.166z" fill="#fef8f1"/><path d="m336.127 299.246 2.166 2.165-2.166-2.164z" fill="#fcf1e4"/><path d="m359.948 299.246 2.165 2.165-2.165-2.164z" fill="#fbbe66"/><path d="m398.927 299.246 2.165 2.165-2.165-2.164z" fill="#faca88"/><path d="m403.258 299.246 2.165 2.165-2.165-2.164z" fill="#f9d099"/><path d="m336.127 301.41 2.166 2.167-2.166-2.166z" fill="#f9d6aa"/><path d="m359.948 301.41 2.165 2.167-2.165-2.166z" fill="#fcf1e4"/><path d="m370.775 301.41 2.166 2.167-2.165-2.166z" fill="#fae3c9"/><path d="m372.94 301.41 2.166 2.167-2.165-2.166z" fill="#fea522"/><path d="m375.106 301.41 2.166 2.167-2.166-2.166z" fill="#fcb144"/><path d="m377.272 301.41 2.165 2.167-2.165-2.166z" fill="#f9d6aa"/><path d="m398.927 301.41 2.165 2.167-2.165-2.166z" fill="#fef8f1"/><path d="m401.092 301.41 2.166 2.167-2.166-2.166z" fill="#fea522"/><path d="m403.258 301.41 2.165 2.167-2.165-2.166z" fill="#fdab33"/><path d="m336.127 303.577-2.165 6.496z" fill="#faca88"/><path d="m357.782 303.577 2.166 2.165z" fill="#fea522"/><path d="m359.948 303.577 2.165 2.165z" fill="#fef8f1"/><path d="m370.775 303.577 2.166 2.165-2.165-2.165z" fill="#f9d099"/><path d="m379.437 303.577 2.166 2.165z" fill="#fdab33"/><path d="m381.603 303.577 2.165 2.165z" fill="#fae3c9"/><path d="m401.092 303.577 2.166 2.165z" fill="#f8dcbb"/><path d="m403.258 303.577 2.165 2.165z" fill="#f90"/><path d="m406.138 305.027.723 1.444-.722-1.443z" fill="#fbead6"/><path d="m362.113 305.742 2.166 2.166-2.167-2.166z" fill="#fea522"/><path d="m364.28 305.742 2.164 2.166-2.165-2.166z" fill="#fbbe66"/><path d="m366.444 305.742 2.166 2.166z" fill="#faca88"/><path d="m368.61 305.742 2.165 2.166z" fill="#fcb144"/><path d="m370.775 305.742 2.166 2.166-2.165-2.166z" fill="#fae3c9"/><path d="m372.94 305.742 2.166 2.166-2.165-2.166z" fill="#fe9f11"/><path d="m383.768 305.742 2.166 2.166z" fill="#fdab33"/><path d="m385.934 305.742 2.165 2.166-2.166-2.166z" fill="#fbc477"/><path d="m388.1 305.742 2.165 2.166-2.166-2.166z" fill="#faca88"/><path d="m390.265 305.742 2.165 2.166z" fill="#f9d6aa"/><path d="m393.88 306.457 1.443.722-1.442-.723z" fill="#fae3c9"/><path d="m396.76 305.742 2.167 2.166-2.166-2.166z" fill="#fef8f1"/><path d="m403.258 305.742 2.165 2.166z" fill="#fbc477"/><path d="m310.14 307.908 2.167 2.165-2.166-2.165z" fill="#fef8f1"/><path d="m312.307 307.908 2.165 2.165z" fill="#fcf1e4"/><path d="m368.61 307.908 2.165 2.165z" fill="#fcb755"/><path d="m372.94 307.908 2.166 2.165-2.165-2.165z" fill="#fbead6"/><path d="m375.106 307.908 2.166 2.165z" fill="#fea522"/><path d="m392.43 307.908 2.166 2.165z" fill="#fe9f11"/><path d="m394.596 307.908-2.166 4.33z" fill="#fcb144"/><path d="m398.927 307.908 2.165 2.165z" fill="#fe9f11"/><path d="m401.092 307.908 2.166 2.165z" fill="#fbbe66"/><path d="m403.258 307.908 2.165 2.165z" fill="#fcf1e4"/><path d="m310.14 310.073 2.167 2.166-2.166-2.167z" fill="#fae3c9"/><path d="m312.307 310.073 4.33 4.33z" fill="#fe9f11"/><path d="m314.472 310.073 2.166 2.166-2.166-2.167zm19.49 0 2.165 2.166-2.165-2.167z" fill="#fbead6"/><path d="m336.127 310.073 2.166 2.166-2.166-2.167z" fill="#fae3c9"/><path d="m355.617 310.073 2.165 2.166-2.165-2.167z" fill="#fe9f11"/><path d="m357.782 310.073 2.166 2.166-2.166-2.167z" fill="#fbc477"/><path d="m359.948 310.073 2.165 2.166-2.165-2.167z" fill="#fea522"/><path d="m366.444 310.073 2.166 2.166-2.166-2.167z" fill="#fbc477"/><path d="m368.61 310.073 2.165 2.166-2.165-2.167z" fill="#fef8f1"/><path d="m377.272 310.073 2.165 2.166-2.165-2.167z" fill="#fbc477"/><path d="m394.596 310.073 2.165 2.166-2.164-2.167z" fill="#fff"/><path d="m396.76 310.073 2.167 2.166-2.166-2.167z" fill="#fdab33"/><path d="m405.423 310.073 2.166 2.166-2.167-2.167z" fill="#fbc477"/><path d="m310.14 312.24 2.167 2.164-2.166-2.165z" fill="#fef8f1"/><path d="m316.638 312.24 2.165 2.164-2.165-2.165z" fill="#fbead6"/><path d="m327.465 312.24 2.166 2.164-2.165-2.165z" fill="#f9d6aa"/><path d="m338.293 312.24 2.165 2.164-2.165-2.165z" fill="#fe9f11"/><path d="m341.91 312.953 1.44.722z" fill="#f9d6aa"/><path d="m355.617 312.24 2.165 2.164-2.165-2.165z" fill="#f8dcbb"/><path d="m362.113 312.24 2.166 2.164-2.167-2.165z" fill="#fcf1e4"/><path d="m379.437 312.24 2.166 2.164-2.166-2.165z" fill="#f9d6aa"/><path d="m394.596 312.24 2.165 2.164-2.164-2.165z" fill="#fdab33"/><path d="m407.59 312.24 2.164 2.164-2.165-2.165z" fill="#fcb755"/><path d="m409.754 312.24 2.166 2.164-2.166-2.165z" fill="#fef8f1"/><path d="m292.817 314.404 2.166 2.166z" fill="#53527c"/><path d="m312.307 314.404 2.165 2.166z" fill="#fcb755"/><path d="m316.638 314.404 2.165 2.166z" fill="#fea522"/><path d="m325.3 314.404 2.165 2.166z" fill="#fbead6"/><path d="m329.63 314.404 2.166 2.166-2.165-2.166z" fill="#fe9f11"/><path d="m331.796 314.404 2.166 2.166z" fill="#fcf1e4"/><path d="m338.293 314.404 2.165 2.166z" fill="#fbbe66"/><path d="m340.458 314.404 2.166 2.166z" fill="#fbc477"/><path d="m342.624 314.404 2.165 2.166-2.166-2.166z" fill="#fbbe66"/><path d="m353.45 314.404 2.167 2.166-2.166-2.166z" fill="#fea522"/><path d="m381.603 314.404 2.165 2.166z" fill="#f9d6aa"/><path d="m409.754 314.404 2.166 2.166z" fill="#fcb144"/><path d="m444.402 314.404 2.166 2.166z" fill="#8d8d5b"/><path d="m299.314 316.57 2.165 2.165-2.166-2.165z" fill="#e5e3af"/><path d="m312.307 316.57 2.165 2.165z" fill="#f8dcbb"/><path d="m318.803 316.57 2.166 2.165-2.167-2.165z" fill="#fdab33"/><path d="m325.3 316.57 2.165 2.165z" fill="#fe9f11"/><path d="m329.63 316.57 2.166 2.165-2.165-2.165z" fill="#faca88"/><path d="m338.293 316.57 2.165 2.165z" fill="#fcf1e4"/><path d="m353.45 316.57 2.167 2.165-2.166-2.165m30.318 0 2.166 2.165z" fill="#f9d099"/><path d="m411.92 316.57 2.165 2.165z" fill="#fbbe66"/><path d="m314.472 318.735 2.166 2.166-2.166-2.165z" fill="#fea522"/><path d="m320.97 318.735 2.164 2.166-2.165-2.165z" fill="#fdab33"/><path d="m323.134 318.735 2.166 2.166-2.166-2.165z" fill="#fea522"/><path d="m327.465 318.735 2.166 2.166-2.165-2.165z" fill="#fe9f11"/><path d="m329.63 318.735 2.166 2.166-2.165-2.165z" fill="#fef8f1"/><path d="m340.458 318.735 2.166 2.166-2.166-2.165z" fill="#fbbe66"/><path d="m353.45 318.735 2.167 2.166-2.166-2.165z" fill="#fef8f1"/><path d="m385.934 318.735 2.165 2.166-2.166-2.165z" fill="#fbbe66"/><path d="m414.085 318.735 2.166 2.166-2.165-2.165z" fill="#f9d099"/><path d="m314.472 320.9 2.166 2.166-2.166-2.165z" fill="#f9d6aa"/><path d="m327.465 320.9 2.166 2.166-2.165-2.165z" fill="#f9d099"/><path d="m340.458 320.9 2.166 2.166-2.166-2.165z" fill="#fcf1e4"/><path d="m351.286 320.9 2.165 2.166-2.164-2.165m36.813 0 2.165 2.166-2.166-2.165z" fill="#fdab33"/><path d="m416.25 320.9 2.166 2.166-2.165-2.165z" fill="#fbead6"/><path d="m316.638 323.066 2.165 2.166z" fill="#fea522"/><path d="m325.3 323.066 2.165 2.166z" fill="#fe9f11"/><path d="m342.624 323.066 2.165 2.166-2.166-2.166z" fill="#fcb144"/><path d="m351.286 323.066 2.165 2.166-2.164-2.166z" fill="#faca88"/><path d="m388.1 323.066 2.165 2.166-2.166-2.166z" fill="#f8dcbb"/><path d="m416.25 323.066 2.166 2.166-2.165-2.166z" fill="#fcb144"/><path d="m299.314 325.232 2.165 2.165-2.166-2.165z" fill="#d3d079"/><path d="m316.638 325.232 2.165 2.165zm25.986 0 2.165 2.165-2.166-2.165z" fill="#faca88"/><path d="m351.286 325.232 2.165 2.165-2.164-2.165m36.813 0 2.165 2.165-2.166-2.165z" fill="#fae3c9"/><path d="m418.416 325.232 2.166 2.165z" fill="#f8dcbb"/><path d="m437.906 325.232 2.165 2.165-2.164-2.165z" fill="#f2f1d7"/><path d="m445.117 326.682.723 1.444z" fill="#58587b"/><path d="m300.028 328.848.723 1.443-.722-1.442z" fill="#d9d868"/><path d="m316.638 327.397 2.165 2.166z" fill="#f8dcbb"/><path d="m385.934 327.397 2.165 2.166-2.166-2.166z" fill="#f9d6aa"/><path d="m388.1 327.397 2.165 2.166-2.166-2.166z" fill="#fe9f11"/><path d="m418.416 327.397 2.166 2.166z" fill="#fcb144"/><path d="m438.62 328.848.723 1.443-.723-1.442z" fill="#f2f1d2"/><path d="m316.638 329.563 2.165 2.165z" fill="#fcf1e4"/><path d="m383.768 329.563 2.166 2.165z" fill="#fef8f1"/><path d="m385.934 329.563 2.165 2.165-2.166-2.165z" fill="#fe9f11"/><path d="m392.43 329.563-2.165 4.33z" fill="#fdab33"/><path d="m394.596 329.563 2.165 2.165-2.164-2.165z" fill="#fcb755"/><path d="m420.582 329.563 2.165 2.165z" fill="#fea522"/><path d="m422.747 329.563 2.166 2.165z" fill="#f9d099"/><path d="m444.402 329.563 2.166 2.165z" fill="#53527c"/><path d="m295.697 333.18.723 1.44z" fill="#808067"/><path d="m318.803 331.728 2.166 2.166-2.167-2.166m6.497 0 2.165 2.166z" fill="#fea522"/><path d="m349.12 331.728 2.166 2.166z" fill="#fe9f11"/><path d="m383.768 331.728 2.166 2.166z" fill="#fae3c9"/><path d="m392.43 331.728 2.166 2.166z" fill="#fef8f1"/><path d="m396.76 331.728 2.167 2.166-2.166-2.166z" fill="#fcb144"/><path d="m424.913 331.728 2.165 2.166z" fill="#fcb755"/><path d="m427.078 331.728 4.33 4.33z" fill="#fef8f1"/><path d="m438.62 333.18.723 1.44z" fill="#e5e59d"/><path d="m445.117 333.18.723 1.44z" fill="#32327b"/><path d="m319.518 335.344.723 1.443-.722-1.443z" fill="#fcb755"/><path d="m327.465 333.894 2.166 2.165-2.165-2.166z" fill="#fef8f1"/><path d="m349.12 333.894 2.166 2.165-2.166-2.166z" fill="#fbbe66"/><path d="m383.768 333.894 2.166 2.165-2.166-2.166z" fill="#fbead6"/><path d="m388.1 333.894 2.165 2.165-2.166-2.166z" fill="#fe9f11"/><path d="m390.265 333.894 2.165 2.165-2.165-2.166z" fill="#fcf1e4"/><path d="m396.76 333.894 2.167 2.165-2.166-2.166z" fill="#fbead6"/><path d="m427.078 333.894 2.166 2.165-2.166-2.166z" fill="#fdab33"/><path d="m294.983 336.06 2.165 2.165-2.165-2.166z" fill="#667"/><path d="m301.48 336.06 2.165 2.165-2.166-2.166z" fill="#f6f6e4"/><path d="m327.465 336.06 2.166 2.165-2.165-2.166z" fill="#f9d6aa"/><path d="m344.79 336.06 2.165 2.165-2.166-2.166z" fill="#fdab33"/><path d="m346.955 336.06 2.165 2.165-2.165-2.166z" fill="#fe9f11"/><path d="m349.12 336.06 2.166 2.165-2.166-2.166z" fill="#fcf1e4"/><path d="m385.934 336.06 2.165 2.165-2.166-2.166z" fill="#fea522"/><path d="m388.1 336.06 2.165 2.165-2.166-2.166m10.827 0 2.165 2.165-2.165-2.166z" fill="#faca88"/><path d="m429.244 336.06 2.165 2.165-2.166-2.166z" fill="#fcb144"/><path d="m437.906 336.06 2.165 2.165-2.164-2.166z" fill="#dddc7a"/><path d="m294.983 338.225 2.165 2.165z" fill="#58587b"/><path d="m301.48 338.225 2.165 2.165-2.166-2.165z" fill="#f2f1d2"/><path d="m319.518 339.675.723 1.443-.722-1.443z" fill="#fcb144"/><path d="m327.465 338.225 2.166 2.165-2.165-2.165z" fill="#fea522"/><path d="m349.12 338.225 2.166 2.165z" fill="#fef8f1"/><path d="m351.286 338.225 2.165 2.165-2.164-2.165z" fill="#fea522"/><path d="m355.617 338.225 2.165 2.165z" fill="#fcb144"/><path d="m357.782 338.225 2.166 2.165z" fill="#fbead6"/><path d="m385.934 338.225 2.165 2.165-2.166-2.165z" fill="#f8dcbb"/><path d="m388.1 338.225 2.165 2.165-2.166-2.165z" fill="#fcf1e4"/><path d="m398.927 338.225 2.165 2.165z" fill="#fef8f1"/><path d="m401.092 338.225 2.166 2.165z" fill="#fe9f11"/><path d="m431.41 338.225 2.165 2.165-2.166-2.165z" fill="#fbead6"/><path d="m437.906 338.225 2.165 2.165-2.164-2.165z" fill="#d9d868"/><path d="m294.983 340.39 2.165 2.166z" fill="#3a3a7c"/><path d="m301.48 340.39 2.165 2.166-2.166-2.166z" fill="#e5e3af"/><path d="m329.63 340.39 2.166 2.166-2.165-2.166z" fill="#faca88"/><path d="m351.286 340.39 2.165 2.166-2.164-2.166z" fill="#fbead6"/><path d="m357.782 340.39 2.166 2.166z" fill="#fe9f11"/><path d="m359.948 340.39 2.165 2.166z" fill="#fcf1e4"/><path d="m383.768 340.39 2.166 2.166z" fill="#fbead6"/><path d="m385.934 340.39 2.165 2.166-2.166-2.166z" fill="#fae3c9"/><path d="m388.1 340.39 2.165 2.166-2.166-2.166z" fill="#fbead6"/><path d="m401.092 340.39 2.166 2.166zm17.324 0 2.166 2.166z" fill="#fbbe66"/><path d="m420.582 340.39 2.165 2.166z" fill="#fcf1e4"/><path d="m422.747 340.39 2.166 2.166z" fill="#fef8f1"/><path d="m424.913 340.39 2.165 2.166z" fill="#f8dcbb"/><path d="m427.078 340.39 2.166 2.166z" fill="#fcb755"/><path d="m431.41 340.39 2.165 2.166-2.166-2.166z" fill="#fae3c9"/><path d="m442.237 340.39 2.165 2.166z" fill="#808067"/><path d="m294.983 342.556 2.165 2.165-2.165-2.164z" fill="#32327b"/><path d="m297.863 344.006.723 1.443-.723-1.444z" fill="#a4a43d"/><path d="m301.48 342.556 2.165 2.165-2.166-2.164z" fill="#e5e59d"/><path d="m318.803 342.556 2.166 2.165-2.167-2.164z" fill="#fbc477"/><path d="m331.796 342.556 2.166 2.165-2.166-2.164z" fill="#f9d6aa"/><path d="m353.45 342.556 2.167 2.165-2.166-2.164z" fill="#fbbe66"/><path d="m359.948 342.556 2.165 2.165-2.165-2.164z" fill="#f9d099"/><path d="m379.437 342.556 2.166 2.165-2.166-2.164z" fill="#fae3c9"/><path d="m381.603 342.556 2.165 2.165-2.165-2.164z" fill="#fcb144"/><path d="m390.265 342.556 2.165 2.165-2.165-2.164z" fill="#fae3c9"/><path d="m401.092 342.556 2.166 2.165-2.166-2.164z" fill="#f8dcbb"/><path d="m418.416 342.556 2.166 2.165-2.166-2.164z" fill="#f9d099"/><path d="m429.244 342.556 2.165 2.165-2.166-2.164z" fill="#fbc477"/><path d="m431.41 342.556 2.165 2.165-2.166-2.164z" fill="#fbead6"/><path d="m442.237 342.556 2.165 2.165-2.165-2.164z" fill="#737370"/><path d="m301.48 344.72 2.165 2.167-2.166-2.166z" fill="#d9d868"/><path d="m318.803 344.72 2.166 2.167-2.167-2.166z" fill="#f9d099"/><path d="m333.962 344.72 2.165 2.167-2.165-2.166m19.49 0 2.165 2.167-2.166-2.166z" fill="#f9d6aa"/><path d="m359.948 344.72 2.165 2.167-2.165-2.166z" fill="#fbc477"/><path d="m370.775 344.72 2.166 2.167-2.165-2.166z" fill="#fef8f1"/><path d="m372.94 344.72 2.166 2.167-2.165-2.166z" fill="#f8dcbb"/><path d="m375.106 344.72 2.166 2.167-2.166-2.166z" fill="#fbc477"/><path d="m377.272 344.72 2.165 2.167-2.165-2.166z" fill="#fea522"/><path d="m390.265 344.72 2.165 2.167-2.165-2.166z" fill="#fbead6"/><path d="m435.74 344.72 2.166 2.167-2.166-2.166z" fill="#f2f1d2"/><path d="m442.237 344.72 2.165 2.167-2.165-2.166z" fill="#58587b"/><path d="m297.148 346.887 2.166 2.165z" fill="#99994e"/><path d="m301.48 346.887 2.165 2.165-2.166-2.165z" fill="#d0d045"/><path d="m336.127 346.887 2.166 2.165z" fill="#fcb144"/><path d="m338.293 346.887 2.165 2.165z" fill="#fae3c9"/><path d="m353.45 346.887 2.167 2.165-2.166-2.165z" fill="#fef8f1"/><path d="m362.113 346.887 2.166 2.165-2.167-2.165z" fill="#fcb755"/><path d="m364.28 346.887 2.164 2.165-2.165-2.165z" fill="#fbc477"/><path d="m366.444 346.887 2.166 2.165z" fill="#fcb144"/><path d="m368.61 346.887 2.165 2.165z" fill="#fea522"/><path d="m385.934 346.887 2.165 2.165-2.166-2.165z" fill="#fe9f11"/><path d="m388.1 346.887 2.165 2.165-2.166-2.165z" fill="#f9d6aa"/><path d="m418.416 346.887 2.166 2.165z" fill="#fef8f1"/><path d="m435.74 346.887 2.166 2.165z" fill="#e0dea1"/><path d="m442.237 346.887 2.165 2.165z" fill="#3a3a7c"/><path d="m297.148 349.052 2.166 2.166z" fill="#737370"/><path d="m303.645 349.052 2.165 2.166z" fill="#fbfaf2"/><path d="m320.97 349.052 2.164 2.166-2.165-2.166z" fill="#fea522"/><path d="m340.458 349.052 2.166 2.166z" fill="#fe9f11"/><path d="m342.624 349.052 2.165 2.166-2.166-2.166z" fill="#fcb144"/><path d="m344.79 349.052 2.165 2.166-2.166-2.166z" fill="#fbc477"/><path d="m346.955 349.052 2.165 2.166z" fill="#faca88"/><path d="m349.12 349.052 2.166 2.166z" fill="#fbc477"/><path d="m351.286 349.052 2.165 2.166-2.164-2.166z" fill="#fcb144"/><path d="m353.45 349.052 2.167 2.166-2.166-2.166z" fill="#fdab33"/><path d="m383.768 349.052 2.166 2.166z" fill="#fbc477"/><path d="m385.934 349.052 2.165 2.166-2.166-2.166z" fill="#fef8f1"/><path d="m416.25 349.052 2.166 2.166-2.165-2.166z" fill="#fdab33"/><path d="m435.74 349.052 2.166 2.166z" fill="#e1e18c"/><path d="m440.786 350.503.723 1.442-.724-1.442z" fill="#a4a43d"/><path d="m442.237 349.052 2.165 2.166z" fill="#262678"/><path d="m297.148 351.218 2.166 2.165z" fill="#58587b"/><path d="m303.645 351.218 2.165 2.165z" fill="#f2f1d2"/><path d="m320.97 351.218 2.164 2.165-2.165-2.165z" fill="#faca88"/><path d="m379.437 351.218 2.166 2.165z" fill="#fe9f11"/><path d="m381.603 351.218 2.165 2.165z" fill="#fbead6"/><path d="m401.092 351.218 2.166 2.165z" fill="#fbc477"/><path d="m416.25 351.218 2.166 2.165-2.165-2.165z" fill="#faca88"/><path d="m435.74 351.218 2.166 2.165z" fill="#d4d456"/><path d="m297.148 353.383 2.166 2.166-2.166-2.167z" fill="#32327b"/><path d="m303.645 353.383 2.165 2.166-2.165-2.167z" fill="#e5e59d"/><path d="m320.97 353.383 2.164 2.166-2.165-2.167z" fill="#fef8f1"/><path d="m323.134 353.383 2.166 2.166-2.166-2.167z" fill="#fe9f11"/><path d="m379.437 353.383 2.166 2.166-2.166-2.167z" fill="#fbead6"/><path d="m401.092 353.383 2.166 2.166-2.166-2.167z" fill="#fea522"/><path d="m416.25 353.383 2.166 2.166-2.165-2.167z" fill="#fcf1e4"/><path d="m440.07 353.383 2.167 2.166-2.166-2.167z" fill="#808067"/><path d="m297.148 355.55 2.166 2.164-2.166-2.165z" fill="#0e0e6e"/><path d="m299.314 355.55 2.165 2.164-2.166-2.165z" fill="#a4a43d"/><path d="m303.645 355.55 2.165 2.164-2.165-2.165z" fill="#d9d868"/><path d="m323.134 355.55 2.166 2.164-2.166-2.165z" fill="#f8dcbb"/><path d="m398.927 355.55 2.165 2.164-2.165-2.165z" fill="#f9d6aa"/><path d="m414.085 355.55 2.166 2.164-2.165-2.165z" fill="#faca88"/><path d="m433.575 355.55 2.165 2.164-2.165-2.165z" fill="#f2f1d2"/><path d="m440.07 355.55 2.167 2.164-2.166-2.165z" fill="#58587b"/><path d="m299.314 357.714 2.165 2.166-2.166-2.166z" fill="#8d8d5b"/><path d="m325.3 357.714 2.165 2.166z" fill="#f9d6aa"/><path d="m368.61 357.714 2.165 2.166z" fill="#fdab33"/><path d="m370.775 357.714 2.166 2.166-2.165-2.166z" fill="#fff"/><path d="m374.39 358.43 1.444.722-1.443-.723z" fill="#fcb144"/><path d="m396.76 357.714-2.164 4.33 2.165-4.33z" fill="#fef8f1"/><path d="m398.927 357.714 2.165 2.166z" fill="#fe9f11"/><path d="m411.92 357.714-2.166 4.33z" fill="#fdab33"/><path d="m433.575 357.714 2.165 2.166z" fill="#e5e59d"/><path d="m440.07 357.714 2.167 2.166-2.166-2.166z" fill="#3a3a7c"/><path d="m299.314 359.88 2.165 2.165-2.166-2.165z" fill="#667"/><path d="m305.81 359.88 2.166 2.165z" fill="#f2f1d2"/><path d="m327.465 359.88 2.166 2.165-2.165-2.165z" fill="#f9d6aa"/><path d="m368.61 359.88 2.165 2.165z" fill="#fe9f11"/><path d="m370.775 359.88 2.166 2.165-2.165-2.165z" fill="#faca88"/><path d="m372.94 359.88 2.166 2.165-2.165-2.165z" fill="#fea522"/><path d="m375.106 359.88 2.166 2.165z" fill="#fcf1e4"/><path d="m396.76 359.88 2.167 2.165-2.166-2.165z" fill="#fdab33"/><path d="m411.92 359.88 2.165 2.165z" fill="#fef8f1"/><path d="m433.575 359.88 2.165 2.165z" fill="#d9d868"/><path d="m437.906 359.88 2.165 2.165-2.164-2.165z" fill="#a4a43d"/><path d="m440.07 359.88 2.167 2.165-2.166-2.165z" fill="#0e0e6e"/><path d="m299.314 362.045 2.165 2.166-2.166-2.165z" fill="#3a3a7c"/><path d="m305.81 362.045 2.166 2.166-2.166-2.165z" fill="#e5e59d"/><path d="m329.63 362.045 4.332 4.33-4.33-4.33z" fill="#fae3c9"/><path d="m331.796 362.045 2.166 2.166-2.166-2.165z" fill="#fe9f11"/><path d="m372.94 362.045 2.166 2.166-2.165-2.165z" fill="#f8dcbb"/><path d="m392.43 362.045 2.166 2.166-2.166-2.165z" fill="#fcf1e4"/><path d="m394.596 362.045 2.165 2.166-2.164-2.165z" fill="#fdab33"/><path d="m407.59 362.045 2.164 2.166-2.165-2.165z" fill="#fcb144"/><path d="m409.754 362.045 2.166 2.166-2.166-2.165z" fill="#fef8f1"/><path d="m431.41 362.045 2.165 2.166-2.166-2.165z" fill="#fbfaf2"/><path d="m437.906 362.045 2.165 2.166-2.164-2.165z" fill="#8d8d5b"/><path d="m299.314 364.21 2.165 2.166-2.166-2.165z" fill="#0e0e6e"/><path d="m301.48 364.21 2.165 2.166-2.166-2.165z" fill="#a4a43d"/><path d="m305.81 364.21 2.166 2.166-2.166-2.165z" fill="#d4d456"/><path d="m370.775 364.21 2.166 2.166-2.165-2.165z" fill="#f9d6aa"/><path d="m390.265 364.21 2.165 2.166-2.165-2.165z" fill="#f9d099"/><path d="m392.43 364.21 2.166 2.166-2.166-2.165z" fill="#fe9f11"/><path d="m405.423 364.21 2.166 2.166-2.167-2.165z" fill="#faca88"/><path d="m431.41 364.21 2.165 2.166-2.166-2.165z" fill="#eeedc1"/><path d="m437.906 364.21 2.165 2.166-2.164-2.165z" fill="#58587b"/><path d="m301.48 366.376 2.165 2.166-2.166-2.166z" fill="#737370"/><path d="m307.976 366.376 2.165 2.166-2.164-2.166z" fill="#f6f6e4"/><path d="m331.796 366.376 2.166 2.166z" fill="#fbbe66"/><path d="m366.444 366.376 2.166 2.166z" fill="#fcb144"/><path d="m369.324 367.827.723 1.442-.723-1.443z" fill="#f8dcbb"/><path d="m385.934 366.376 2.165 2.166-2.166-2.166z" fill="#fbbe66"/><path d="m388.1 366.376 2.165 2.166-2.166-2.166z" fill="#fe9f11"/><path d="m401.092 366.376 2.166 2.166z" fill="#fbc477"/><path d="m403.258 366.376 2.165 2.166z" fill="#fcf1e4"/><path d="m431.41 366.376 2.165 2.166-2.166-2.166z" fill="#d3d079"/><path d="m435.74 366.376 2.166 2.166z" fill="#a4a43d"/><path d="m437.906 366.376 2.165 2.166-2.164-2.166z" fill="#262678"/><path d="m301.48 368.542 2.165 2.165-2.166-2.165z" fill="#49497d"/><path d="m307.976 368.542 2.165 2.165-2.164-2.165z" fill="#e0dea1"/><path d="m329.63 368.542 2.166 2.165-2.165-2.165z" fill="#fae3c9"/><path d="m359.948 368.542 2.165 2.165z" fill="#fdab33"/><path d="m362.113 368.542 2.166 2.165-2.167-2.165z" fill="#fbc477"/><path d="m364.28 368.542 2.164 2.165-2.165-2.165z" fill="#fbead6"/><path d="m370.775 368.542 2.166 2.165-2.165-2.165z" fill="#fcb144"/><path d="m398.927 368.542 2.165 2.165z" fill="#f9d6aa"/><path d="m435.74 368.542 2.166 2.165z" fill="#99994e"/><path d="m301.48 370.707 2.165 2.166-2.166-2.166z" fill="#0e0e6e"/><path d="m303.645 370.707 2.165 2.166z" fill="#a4a43d"/><path d="m307.976 370.707 2.165 2.166-2.164-2.166z" fill="#d4d456"/><path d="m327.465 370.707 2.166 2.166-2.165-2.166z" fill="#f9d099"/><path d="m329.63 370.707 2.166 2.166-2.165-2.166m10.828 0 2.166 2.166z" fill="#fe9f11"/><path d="m342.624 370.707 2.165 2.166-2.166-2.166z" fill="#f9d6aa"/><path d="m344.79 370.707 2.165 2.166-2.166-2.166z" fill="#f9d099"/><path d="m353.45 370.707 2.167 2.166-2.166-2.166z" fill="#f9d6aa"/><path d="m355.617 370.707 2.165 2.166z" fill="#fae3c9"/><path d="m357.782 370.707 2.166 2.166z" fill="#fef8f1"/><path d="m375.106 370.707 2.166 2.166z" fill="#fbead6"/><path d="m377.272 370.707 2.165 2.166z" fill="#fae3c9"/><path d="m379.437 370.707 2.166 2.166z" fill="#faca88"/><path d="m381.603 370.707 2.165 2.166z" fill="#fbc477"/><path d="m383.768 370.707 2.166 2.166z" fill="#fdab33"/><path d="m394.596 370.707 2.165 2.166-2.164-2.166z" fill="#fe9f11"/><path d="m396.76 370.707 2.167 2.166-2.166-2.166z" fill="#f9d6aa"/><path d="m429.244 370.707 2.165 2.166-2.166-2.166z" fill="#e5e3af"/><path d="m435.74 370.707 2.166 2.166z" fill="#667"/><path d="m303.645 372.873 2.165 2.165z" fill="#737370"/><path d="m310.14 372.873 2.167 2.165-2.166-2.165z" fill="#f2f1d7"/><path d="m325.3 372.873 2.165 2.165z" fill="#fea522"/><path d="m336.127 372.873 2.166 2.165z" fill="#fe9f11"/><path d="m338.293 372.873 2.165 2.165z" fill="#fbbe66"/><path d="m340.458 372.873 2.166 2.165z" fill="#fcf1e4"/><path d="m392.43 372.873 2.166 2.165z" fill="#fea522"/><path d="m394.596 372.873 2.165 2.165-2.164-2.165z" fill="#fbead6"/><path d="m429.244 372.873 2.165 2.165-2.166-2.165z" fill="#dddc7a"/><path d="m433.575 372.873 2.165 2.165z" fill="#a4a43d"/><path d="m435.74 372.873 2.166 2.165z" fill="#262678"/><path d="m303.645 375.038 2.165 2.166z" fill="#49497d"/><path d="m306.525 376.49.723 1.44z" fill="#a4a43d"/><path d="m310.14 375.038 2.167 2.166-2.166-2.166z" fill="#d3d079"/><path d="m327.465 375.038 2.166 2.166-2.165-2.166z" fill="#f9d099"/><path d="m329.63 375.038 2.166 2.166-2.165-2.166z" fill="#fcb144"/><path d="m331.796 375.038 2.166 2.166z" fill="#faca88"/><path d="m333.962 375.038 2.165 2.166z" fill="#f8dcbb"/><path d="m336.127 375.038 2.166 2.166z" fill="#fef8f1"/><path d="m383.768 375.038 2.166 2.166z" fill="#f8dcbb"/><path d="m392.43 375.038 2.166 2.166z" fill="#fcf1e4"/><path d="m427.078 375.038 2.166 2.166z" fill="#f6f6e4"/><path d="m433.575 375.038 2.165 2.166z" fill="#8d8d5b"/><path d="m312.307 377.204 2.165 2.165-2.165-2.166z" fill="#fbfaf2"/><path d="m383.768 377.204 2.166 2.165-2.166-2.166z" fill="#fbbe66"/><path d="m390.265 377.204 2.165 2.165-2.165-2.166z" fill="#faca88"/><path d="m427.078 377.204 2.166 2.165-2.166-2.166z" fill="#e1e18c"/><path d="m433.575 377.204 2.165 2.165-2.165-2.166z" fill="#49497d"/><path d="m305.81 379.37 2.166 2.165-2.166-2.166z" fill="#58587b"/><path d="m312.307 379.37 2.165 2.165-2.165-2.166z" fill="#e5e59d"/><path d="m383.768 379.37 2.166 2.165-2.166-2.166z" fill="#fe9f11"/><path d="m388.1 379.37 2.165 2.165-2.166-2.166z" fill="#fdab33"/><path d="m424.913 379.37 2.165 2.165-2.165-2.166z" fill="#fbfaf2"/><path d="m431.41 379.37 2.165 2.165-2.166-2.166z" fill="#a4a43d"/><path d="m433.575 379.37 2.165 2.165-2.165-2.166z" fill="#0e0e6e"/><path d="m305.81 381.535 2.166 2.165z" fill="#1b1b74"/><path d="m307.976 381.535 2.165 2.165-2.164-2.165z" fill="#a4a43d"/><path d="m312.307 381.535 2.165 2.165z" fill="#d0d045"/><path d="m381.603 381.535 2.165 2.165z" fill="#fbead6"/><path d="m385.934 381.535 2.165 2.165-2.166-2.165z" fill="#fe9f11"/><path d="m388.1 381.535 2.165 2.165-2.166-2.165z" fill="#fbead6"/><path d="m424.913 381.535 2.165 2.165z" fill="#e5e59d"/><path d="m431.41 381.535 2.165 2.165-2.166-2.165z" fill="#667"/><path d="m307.976 383.7 2.165 2.166-2.164-2.166z" fill="#6e6c70"/><path d="m314.472 383.7 2.166 2.166z" fill="#e5e3af"/><path d="m382.317 385.15.723 1.443-.723-1.442z" fill="#faca88"/><path d="m385.934 383.7 2.165 2.166-2.166-2.166z" fill="#fae3c9"/><path d="m422.747 383.7 2.166 2.166z" fill="#fbfaf2"/><path d="m429.244 383.7 2.165 2.166-2.166-2.166z" fill="#a4a43d"/><path d="m431.41 383.7 2.165 2.166-2.166-2.166m-123.434 2.166 2.165 2.165-2.164-2.164z" fill="#1b1b74"/><path d="m310.14 385.866 2.167 2.165-2.166-2.164z" fill="#a4a43d"/><path d="m314.472 385.866 2.166 2.165-2.166-2.164z" fill="#d0d045"/><path d="m316.638 385.866 2.165 2.165-2.165-2.164z" fill="#fbfaf2"/><path d="m383.768 385.866 2.166 2.165-2.166-2.164z" fill="#f9d6aa"/><path d="m422.747 385.866 2.166 2.165-2.166-2.164z" fill="#e5e59d"/><path d="m429.244 385.866 2.165 2.165-2.166-2.164m-119.103 2.163 2.167 2.167-2.166-2.166z" fill="#6e6c70"/><path d="m316.638 388.03 2.165 2.167-2.165-2.166z" fill="#8cbf84"/><path d="m317.57 388.03c7.52 15.83 34.12 53.17 54.44 52.443 19.734-.706 42.02-37.14 50.737-52.442h-105.177z" fill="#0cf"/><path d="m427.078 388.03 2.166 2.167-2.166-2.166z" fill="#a4a43d"/><path d="m429.244 388.03 2.165 2.167-2.166-2.166m-119.103 2.167 2.167 2.165-2.166-2.165z" fill="#1b1b74"/><path d="m312.307 390.197 2.165 2.165z" fill="#a4a43d"/><path d="m316.638 390.197 2.165 2.165z" fill="#adb333"/><path d="m318.803 390.197 2.166 2.165-2.167-2.165z" fill="#1ac5b5"/><path d="m420.582 390.197 2.165 2.165z" fill="#68b070"/><path d="m427.078 390.197 2.166 2.165z" fill="#667"/><path d="m312.307 392.362 2.165 2.166z" fill="#58587b"/><path d="m318.803 392.362 2.166 2.166-2.167-2.166z" fill="#7fb15c"/><path d="m418.416 392.362 2.166 2.166z" fill="#27c2aa"/><path d="m424.913 392.362-2.166 4.33z" fill="#a4a43d"/><path d="m427.078 392.362 2.166 2.166zm-114.77 2.166 2.164 2.165-2.165-2.165z" fill="#0e0e6e"/><path d="m314.472 394.528 4.33 4.33z" fill="#a4a43d"/><path d="m320.97 394.528 2.164 2.165-2.165-2.165z" fill="#34be9e"/><path d="m418.416 394.528 2.166 2.165z" fill="#96b247"/><path d="m424.913 394.528 2.165 2.165z" fill="#53527c"/><path d="m314.472 396.693 2.166 2.166-2.166-2.167z" fill="#3a3a7c"/><path d="m320.97 396.693 2.164 2.166-2.165-2.167z" fill="#a2b23d"/><path d="m323.134 396.693 2.166 2.166-2.166-2.167z" fill="#0dc9c1"/><path d="m416.25 396.693 2.166 2.166-2.165-2.167z" fill="#5bb47c"/><path d="m422.747 396.693 2.166 2.166-2.166-2.167z" fill="#8d8d5b"/><path d="m316.638 398.86 2.165 2.164-2.165-2.165z" fill="#737370"/><path d="m323.134 398.86 2.166 2.164-2.166-2.165z" fill="#74b166"/><path d="m414.085 398.86 2.166 2.164-2.165-2.165z" fill="#27c2aa"/><path d="m420.582 398.86-2.166 4.33z" fill="#a4a43d"/><path d="m422.747 398.86 2.166 2.164-2.166-2.165z" fill="#262678"/><path d="m316.638 401.024 2.165 2.166z" fill="#0e0e6e"/><path d="m318.803 401.024 4.33 4.33z" fill="#a4a43d"/><path d="m325.3 401.024 2.165 2.166z" fill="#42bb92"/><path d="m411.92 401.024 2.165 2.166z" fill="#0dc9c1"/><path d="m414.085 401.024 2.166 2.166-2.165-2.166z" fill="#96b247"/><path d="m420.582 401.024 2.165 2.166z" fill="#58587b"/><path d="m318.803 403.19 2.166 2.165-2.167-2.165z" fill="#3a3a7c"/><path d="m325.3 403.19 2.165 2.165z" fill="#adb333"/><path d="m327.465 403.19 2.166 2.165-2.165-2.165z" fill="#27c2aa"/><path d="m411.92 403.19 2.165 2.165z" fill="#74b166"/><path d="m418.416 403.19 2.166 2.165z" fill="#8d8d5b"/><path d="m320.97 405.355 2.164 2.166-2.165-2.165z" fill="#6e6c70"/><path d="m327.465 405.355 2.166 2.166-2.165-2.165z" fill="#96b247"/><path d="m329.63 405.355 2.166 2.166-2.165-2.165z" fill="#0dc9c1"/><path d="m409.754 405.355 2.166 2.166-2.166-2.165z" fill="#42bb92"/><path d="m416.25 405.355-4.33 6.497z" fill="#a4a43d"/><path d="m418.416 405.355 2.166 2.166-2.166-2.165z" fill="#1b1b74"/><path d="m320.97 407.52 2.164 2.166-2.165-2.165z" fill="#0e0e6e"/><path d="m323.134 407.52 2.166 2.166-2.166-2.165z" fill="#8d8d5b"/><path d="m329.63 407.52 2.166 2.166-2.165-2.165z" fill="#7fb15c"/><path d="m407.59 407.52 2.164 2.166-2.165-2.165z" fill="#34be9e"/><path d="m416.25 407.52 2.166 2.166-2.165-2.165z" fill="#3a3a7c"/><path d="m323.134 409.686 2.166 2.166z" fill="#1b1b74"/><path d="m325.3 409.686 23.82 23.82z" fill="#a4a43d"/><path d="m331.796 409.686 2.166 2.166z" fill="#74b166"/><path d="m405.423 409.686 2.166 2.166-2.167-2.166z" fill="#27c2aa"/><path d="m407.59 409.686 2.164 2.166-2.165-2.166z" fill="#adb333"/><path d="m414.085 409.686 2.166 2.166-2.165-2.166z" fill="#667"/><path d="m325.3 411.852 2.165 2.165z" fill="#32327b"/><path d="m333.962 411.852 2.165 2.165z" fill="#42bb92"/><path d="m403.258 411.852-8.662 10.827 8.662-10.828z" fill="#0dc9c1"/><path d="m405.423 411.852 2.166 2.165-2.167-2.165z" fill="#adb333"/><path d="m411.92 411.852 2.165 2.165z" fill="#737370"/><path d="m327.465 414.017 2.166 2.166-2.165-2.166z" fill="#49497d"/><path d="m336.127 414.017 2.166 2.166z" fill="#42bb92"/><path d="m403.258 414.017 2.165 2.166z" fill="#96b247"/><path d="m409.754 414.017-2.165 4.33 2.164-4.33z" fill="#8d8d5b"/><path d="m411.92 414.017 2.165 2.166z" fill="#0e0e6e"/><path d="m329.63 416.183 2.166 2.165-2.165-2.165z" fill="#53527c"/><path d="m338.293 416.183 2.165 2.165z" fill="#42bb92"/><path d="m401.092 416.183 2.166 2.165z" fill="#96b247"/><path d="m409.754 416.183 2.166 2.165z" fill="#0e0e6e"/><path d="m331.796 418.348 2.166 2.166z" fill="#6e6c70"/><path d="m340.458 418.348 2.166 2.166z" fill="#42bb92"/><path d="m398.927 418.348 2.165 2.166z" fill="#96b247"/><path d="m405.423 418.348-4.33 6.497z" fill="#a4a43d"/><path d="m407.59 418.348 2.164 2.166-2.165-2.166z" fill="#262678"/><path d="m333.962 420.514 2.165 2.165-2.165-2.166z" fill="#6e6c70"/><path d="m342.624 420.514 2.165 2.165-2.166-2.166z" fill="#42bb92"/><path d="m396.76 420.514 2.167 2.165-2.166-2.166z" fill="#96b247"/><path d="m405.423 420.514 2.166 2.165-2.167-2.166z" fill="#262678"/><path d="m336.127 422.68 2.166 2.165-2.166-2.166z" fill="#6e6c70"/><path d="m344.79 422.68 2.165 2.165-2.166-2.166z" fill="#68b070"/><path d="m392.43 422.68 2.166 2.165-2.166-2.166z" fill="#27c2aa"/><path d="m394.596 422.68 2.165 2.165-2.164-2.166z" fill="#adb333"/><path d="m403.258 422.68 2.165 2.165-2.165-2.166z" fill="#262678"/><path d="m338.293 424.845 2.165 2.165z" fill="#667"/><path d="m346.955 424.845 2.165 2.165z" fill="#74b166"/><path d="m390.265 424.845 2.165 2.165z" fill="#34be9e"/><path d="m392.43 424.845 2.166 2.165z" fill="#adb333"/><path d="m398.927 424.845-2.166 4.33 2.167-4.33z" fill="#8d8d5b"/><path d="m401.092 424.845 2.166 2.165z" fill="#262678"/><path d="m340.458 427.01 2.166 2.166z" fill="#49497d"/><path d="m349.12 427.01 2.166 2.166z" fill="#96b247"/><path d="m351.286 427.01 2.165 2.166-2.164-2.166z" fill="#0dc9c1"/><path d="m388.1 427.01 2.165 2.166-2.166-2.166z" fill="#42bb92"/><path d="m398.927 427.01 2.165 2.166z" fill="#0e0e6e"/><path d="m342.624 429.176 2.165 2.165-2.166-2.164z" fill="#49497d"/><path d="m351.286 429.176 2.165 2.165-2.164-2.164z" fill="#a2b23d"/><path d="m353.45 429.176 2.167 2.165-2.166-2.164z" fill="#27c2aa"/><path d="m385.934 429.176 2.165 2.165-2.166-2.164z" fill="#74b166"/><path d="m392.43 429.176-6.496 8.662z" fill="#a4a43d"/><path d="m394.596 429.176 2.165 2.165-2.164-2.164z" fill="#808067"/><path d="m396.76 429.176 2.167 2.165-2.166-2.164z" fill="#0e0e6e"/><path d="m344.79 431.34 2.165 2.167-2.166-2.166z" fill="#262678"/><path d="m353.45 431.34 2.167 2.167-2.166-2.166z" fill="#adb333"/><path d="m355.617 431.34 2.165 2.167-2.165-2.166z" fill="#42bb92"/><path d="m381.603 431.34 2.165 2.167-2.165-2.166z" fill="#0dc9c1"/><path d="m383.768 431.34 2.166 2.167-2.166-2.166z" fill="#96b247"/><path d="m392.43 431.34 2.166 2.167-2.166-2.166z" fill="#6e6c70"/><path d="m346.955 433.507 2.165 2.165z" fill="#1b1b74"/><path d="m349.12 433.507 2.166 2.165z" fill="#8d8d5b"/><path d="m357.782 433.507 2.166 2.165z" fill="#74b166"/><path d="m359.948 433.507 2.165 2.165z" fill="#0dc9c1"/><path d="m379.437 433.507 2.166 2.165z" fill="#34be9e"/><path d="m381.603 433.507 2.165 2.165z" fill="#adb333"/><path d="m390.265 433.507 2.165 2.165z" fill="#49497d"/><path d="m349.12 435.672 2.166 2.166z" fill="#0e0e6e"/><path d="m351.286 435.672 2.165 2.166-2.164-2.166z" fill="#6e6c70"/><path d="m353.45 435.672 4.332 4.33-4.33-4.33z" fill="#a4a43d"/><path d="m359.948 435.672 2.165 2.166z" fill="#96b247"/><path d="m362.113 435.672 2.166 2.166-2.167-2.166z" fill="#27c2aa"/><path d="m377.272 435.672 2.165 2.166z" fill="#68b070"/><path d="m388.1 435.672 2.165 2.166-2.166-2.166z" fill="#32327b"/><path d="m353.45 437.838 2.167 2.165-2.166-2.165z" fill="#49497d"/><path d="m364.28 437.838 2.164 2.165-2.165-2.165z" fill="#5bb47c"/><path d="m372.94 437.838 2.166 2.165-2.165-2.165z" fill="#27c2aa"/><path d="m375.106 437.838 2.166 2.165z" fill="#96b247"/><path d="m381.603 437.838-2.166 4.33z" fill="#a4a43d"/><path d="m383.768 437.838 2.166 2.165z" fill="#808067"/><path d="m385.934 437.838 2.165 2.165-2.166-2.165z" fill="#0e0e6e"/><path d="m355.617 440.003 2.165 2.166-2.165-2.167z" fill="#262678"/><path d="m357.782 440.003 2.166 2.166-2.166-2.167z" fill="#8d8d5b"/><path d="m366.444 440.003 2.166 2.166-2.166-2.167z" fill="#8bb252"/><path d="m368.61 440.003 2.165 2.166-2.165-2.167z" fill="#1ac5b5"/><path d="m370.775 440.003 2.166 2.166-2.165-2.167z" fill="#5bb47c"/><path d="m381.603 440.003 2.165 2.166-2.165-2.167z" fill="#58587b"/><path d="m357.782 442.17 2.166 2.164-2.166-2.165z" fill="#0e0e6e"/><path d="m359.948 442.17 2.165 2.164-2.165-2.165z" fill="#667"/><path d="m362.113 442.17 2.166 2.164-2.167-2.165z" fill="#a4a43d"/><path d="m377.272 442.17 2.165 2.164-2.165-2.165z" fill="#99994e"/><path d="m379.437 442.17 2.166 2.164-2.166-2.165m-17.324 2.164 2.166 2.166-2.167-2.166z" fill="#32327b"/><path d="m364.28 444.334 2.164 2.166-2.165-2.166z" fill="#99994e"/><path d="m372.94 444.334 2.166 2.166-2.165-2.166z" fill="#a4a43d"/><path d="m375.106 444.334 2.166 2.166z" fill="#667"/><path d="m377.272 444.334 2.165 2.166zm-12.992 2.166 2.164 2.165-2.165-2.165z" fill="#0e0e6e"/><path d="m366.444 446.5 2.166 2.165z" fill="#667"/><path d="m368.61 446.5 2.165 2.165z" fill="#a4a43d"/><path d="m370.775 446.5 2.166 2.165-2.165-2.165z" fill="#99994e"/><path d="m372.94 446.5 2.166 2.165-2.165-2.165z" fill="#32327b"/><path d="m368.61 448.665 2.165 2.166-2.165-2.165z" fill="#262678"/><path d="m370.775 448.665 2.166 2.166-2.165-2.165z" fill="#0e0e6e"/><path d="m372.94 303.577c3.342 7.86 14.055 16.537 17 20.79-3.75 4.254-4.498 3.79-4.006 11.692 6.518-6.82 6.635-7.532 10.827-6.497 9.185 9.164 1.645 28.846-5.945 33.125-7.588 4.565-6.21-.158-17.584 5.563 5.215 4.46 11.257-.653 16.194.714 2.683 3.183-1.275 8.984.81 14.448 4.364-.42 3.84-9.23 4.855-12.423 3.187-11.704 22.352-19.866 23.326-30.6 4.04-1.897 8.08-.593 12.993 2.166-2.448-10.057-10.543-9.95-12.712-13.09-5.165-7.892-9.743-16.896-20.774-19.23-8.374-1.775-7.748.532-13.114-3.128-3.335-2.603-13.49-7.523-11.867-3.532z" fill="#f90"/><path d="m397.017 312.505a1.746 1.746 0 1 1 -3.495-.001 1.746 1.746 0 0 1 3.497.001z" fill="#fff" fill-rule="evenodd"/><path d="m346.16 336.92c5.386-6.627 8.055-20.153 10.44-24.744 5.512 1.327 5.452 2.206 12.21-1.92-9.076-2.577-9.76-2.348-10.803-6.538 3.812-12.402 24.737-14.93 32.066-10.218 7.58 4.577 2.762 5.566 13.134 12.95 1.506-6.695-5.837-9.648-6.936-14.652 1.563-3.86 8.54-3.07 12.398-7.466-2.41-3.662-9.954.917-13.253 1.51-11.836 2.65-28.005-10.482-37.95-6.33-3.566-2.686-4.3-6.866-4.157-12.5-7.748 6.863-3.87 13.97-5.634 17.355-4.566 8.254-10.388 16.507-7.3 27.352 2.344 8.23 4.09 6.6 3.362 13.055-.744 4.164-.35 15.443 2.42 12.142z" fill="#f90"/><path d="m342.805 311.46a1.747 1.747 0 0 1 2.36.728 1.745 1.745 0 1 1 -3.087 1.63 1.746 1.746 0 0 1 .727-2.358z" fill="#fff" fill-rule="evenodd"/><path d="m389.94 341.57c-8.457-1.184-21.414 3.528-26.576 3.862-1.715-5.403-.932-5.807-7.958-9.455 2.488 9.1 3.037 9.566-.008 12.627-12.586 3.152-25.573-13.45-25.332-22.158-.005-8.856 3.334-5.243 4.288-17.938-6.508 2.173-5.237 9.985-8.95 13.514-4.112.66-7.046-5.72-12.803-6.748-1.886 3.957 5.935 8.045 8.15 10.56 8.39 8.76 5.514 29.39 14.213 35.755-.455 4.44-3.652 7.23-8.548 10.02 9.88 3.083 13.957-3.91 17.767-4.153 9.425-.363 19.5.35 27.184-7.902 5.833-6.265 3.533-6.916 9.435-9.63 3.95-1.518 13.398-7.69 9.14-8.353z" fill="#f90"/><path d="m369.887 357.608a1.746 1.746 0 1 1 1.8-2.995 1.746 1.746 0 0 1 -1.8 2.996z" fill="#fff" fill-rule="evenodd"/></g></svg>