<svg height="512" viewBox="0 0 512 512" width="512" xmlns="http://www.w3.org/2000/svg" xmlns:xlink="http://www.w3.org/1999/xlink"><clipPath id="a"><path d="m0 0h512v512h-512z"/></clipPath><g clip-path="url(#a)"><path d="m0 0v512.006h768.01v-512.006z" fill="#39c"/><path d="m0 341.338v28.445h768.01v-28.445zm0 56.889v28.445h768.01v-28.445z" fill="#ff0"/><path d="m122.065 28.067 2.38 2.38zm-2.38 4.76 2.38 2.38zm4.76 0 2.38 2.38z" fill="#9cc"/><path d="m119.685 35.208 2.38 2.38zm4.76 0 2.38 2.38z" fill="#ccf"/><path d="m117.305 39.97 2.38 2.38z" fill="#6cc"/><path d="m122.065 39.97 2.38 2.38z" fill="#c66"/><path d="m126.826 39.97 2.38 2.38z" fill="#6cc"/><path d="m117.305 42.35 2.38 2.38zm9.521 0 2.38 2.38z" fill="#ccf"/><path d="m119.685 44.73 2.38 2.38zm4.76 0 2.38 2.38z" fill="#fcc"/><path d="m114.924 47.11 2.38 2.38z" fill="#6cc"/><path d="m121.673 32.904-16.687 63.256-63.442 17.23 63.26 16.51 16.87 63.257 16.866-63.257 63.26-16.87-63.26-16.87z" fill="#c00" stroke="#fff" stroke-width="2.975"/><path d="m129.207 47.11 2.38 2.38z" fill="#6cc"/><path d="m114.924 49.49 2.38 2.38zm14.283 0 2.38 2.38z" fill="#9cf"/><path d="m117.305 51.87 2.38 2.38zm9.52 0 2.382 2.38-2.38-2.38z" fill="#fcc"/><path d="m112.544 54.25 2.38 2.38z" fill="#69c"/><path d="m118.097 55.84.794 1.585-.793-1.586m9.522 0 .793 1.585-.794-1.586z" fill="#c33"/><path d="m131.587 54.25 2.38 2.38z" fill="#69c"/><path d="m112.544 56.63 2.38 2.382-2.38-2.38m19.043 0 2.38 2.38z" fill="#9cf"/><path d="m114.924 59.012 2.38 2.38zm14.283 0 2.38 2.38z" fill="#fcc"/><path d="m110.163 61.392 2.38 2.38zm23.805 0 2.38 2.38z" fill="#69c"/><path d="m110.163 63.773 2.38 2.38zm23.805 0 2.38 2.38z" fill="#9cc"/><path d="m110.163 66.153 2.38 2.38zm23.805 0 2.38 2.38z" fill="#cff"/><path d="m107.783 68.533 2.38 2.38z" fill="#69c"/><path d="m112.544 68.533 2.38 2.38zm19.043 0 2.38 2.38z" fill="#fcc"/><path d="m136.348 68.533 2.38 2.38z" fill="#69c"/><path d="m107.783 70.914 2.38 2.38z" fill="#9cc"/><path d="m113.337 72.502.793 1.586zm19.043 0 .793 1.586z" fill="#c33"/><path d="m136.348 70.914 2.38 2.38z" fill="#9cc"/><path d="m107.783 73.294 2.38 2.38zm28.565 0 2.38 2.38z" fill="#cff"/><path d="m110.163 75.675 2.38 2.38zm23.805 0 2.38 2.38z" fill="#fcc"/><path d="m105.403 78.055 2.38 2.38z" fill="#9cc"/><path d="m110.956 79.643.794 1.586-.794-1.587m23.804 0 .794 1.586-.794-1.587z" fill="#c33"/><path d="m138.728 78.055 2.38 2.38z" fill="#9cc"/><path d="m105.403 80.435 2.38 2.38zm33.325 0 2.38 2.38z" fill="#ccf"/><path d="m107.783 82.816 2.38 2.38zm28.565 0 2.38 2.38z" fill="#fcc"/><path d="m103.022 85.196 2.38 2.38z" fill="#9cc"/><path d="m108.576 86.784.793 1.587-.794-1.586m28.565 0 .794 1.587-.793-1.586z" fill="#c33"/><path d="m141.11 85.196 2.38 2.38z" fill="#9cc"/><path d="m103.022 87.577 2.38 2.38zm38.087 0 2.38 2.38z" fill="#ccf"/><path d="m105.403 89.957 2.38 2.38zm33.325 0 2.38 2.38z" fill="#fcc"/><path d="m100.642 92.337 2.38 2.38z" fill="#9cc"/><path d="m105.403 92.337 2.38 2.38zm33.325 0 2.38 2.38z" fill="#c33"/><path d="m143.49 92.337 2.38 2.38zm-49.99 2.38 2.38 2.38z" fill="#9cc"/><path d="m95.88 94.718 2.382 2.38-2.38-2.38m52.368 0 2.38 2.38z" fill="#ccf"/><path d="m150.63 94.718 2.38 2.38zm-64.27 2.38 2.38 2.38z" fill="#9cc"/><path d="m88.74 97.098 2.38 2.38z" fill="#ccf"/><path d="m98.26 97.098 2.382 2.38-2.38-2.38z" fill="#fcc"/><path d="m100.642 97.098 2.38 2.38zm42.847 0 2.38 2.38z" fill="#c33"/><path d="m145.87 97.098 2.38 2.38z" fill="#fcc"/><path d="m155.39 97.098 2.382 2.38-2.38-2.38z" fill="#ccf"/><path d="m157.77 97.098 2.382 2.38-2.38-2.38z" fill="#9cc"/><path d="m76.838 99.48 2.38 2.38z" fill="#69c"/><path d="m79.218 99.48 2.38 2.38z" fill="#9cc"/><path d="m81.6 99.48 2.38 2.38z" fill="#cff"/><path d="m91.12 99.48 2.38 2.38z" fill="#fcc"/><path d="m95.088 100.27 1.587.795-1.587-.794m54.75 0 1.586.795-1.586-.794z" fill="#c33"/><path d="m153.01 99.48 2.38 2.38z" fill="#fcc"/><path d="m162.532 99.48 2.38 2.38z" fill="#cff"/><path d="m164.913 99.48 2.38 2.38z" fill="#9cc"/><path d="m167.293 99.48 2.38 2.38zm-97.596 2.38 2.38 2.38z" fill="#69c"/><path d="m72.077 101.86 2.38 2.38z" fill="#9cc"/><path d="m74.457 101.86 2.38 2.38z" fill="#cff"/><path d="m83.98 101.86 2.38 2.38z" fill="#fcc"/><path d="m87.947 102.652 1.587.793zm69.032 0 1.586.793-1.587-.793z" fill="#c33"/><path d="m160.152 101.86 2.38 2.38z" fill="#fcc"/><path d="m169.673 101.86 2.38 2.38z" fill="#cff"/><path d="m172.054 101.86 2.38 2.38z" fill="#9cc"/><path d="m174.434 101.86 2.38 2.38zm-111.88 2.38 2.382 2.38-2.38-2.38z" fill="#69c"/><path d="m64.936 104.24 2.38 2.38z" fill="#9cf"/><path d="m76.838 104.24 2.38 2.38z" fill="#fcc"/><path d="m80.806 105.032 1.587.794zm83.314 0 1.587.794z" fill="#c33"/><path d="m167.293 104.24 2.38 2.38z" fill="#fcc"/><path d="m179.195 104.24 2.38 2.38z" fill="#9cf"/><path d="m181.575 104.24 2.38 2.38z" fill="#69c"/><path d="m55.414 106.62 2.38 2.38z" fill="#6cc"/><path d="m57.795 106.62 2.38 2.38z" fill="#9cf"/><path d="m67.316 106.62 2.38 2.38zm109.499 0 2.38 2.38z" fill="#fcc"/><path d="m186.336 106.62 2.38 2.38z" fill="#9cf"/><path d="m188.717 106.62 2.38 2.38zm-140.444 2.38 2.38 2.38z" fill="#6cc"/><path d="m50.654 109 2.38 2.38z" fill="#ccf"/><path d="m60.175 109 2.38 2.38z" fill="#fcc"/><path d="m64.143 109.793 1.587.793zm116.64 0 1.587.793z" fill="#c33"/><path d="m183.956 109 2.38 2.38z" fill="#fcc"/><path d="m193.477 109 2.38 2.38z" fill="#ccf"/><path d="m195.858 109 2.38 2.38z" fill="#6cc"/><path d="m41.132 111.38 2.38 2.38z" fill="#9cc"/><path d="m43.512 111.38 2.38 2.38z" fill="#ccf"/><path d="m53.034 111.38 2.38 2.38zm138.063 0 2.38 2.38z" fill="#fcc"/><path d="m200.62 111.38 2.38 2.38z" fill="#ccf"/><path d="m203 111.38 2.38 2.38zm-166.63 2.38 2.38 2.38z" fill="#9cc"/><path d="m48.273 113.76 2.38 2.38zm147.585 0 2.38 2.38z" fill="#c66"/><path d="m207.76 113.76 2.38 2.38zm-166.628 2.38 2.38 2.382-2.38-2.38z" fill="#9cc"/><path d="m43.512 116.14 2.38 2.382-2.38-2.38z" fill="#ccf"/><path d="m53.034 116.14 2.38 2.382-2.38-2.38m138.063 0 2.38 2.38z" fill="#fcc"/><path d="m200.62 116.14 2.38 2.382-2.38-2.38z" fill="#ccf"/><path d="m203 116.14 2.38 2.382-2.38-2.38z" fill="#9cc"/><path d="m48.273 118.522 2.38 2.38z" fill="#6cc"/><path d="m50.654 118.522 2.38 2.38z" fill="#ccf"/><path d="m60.175 118.522 2.38 2.38z" fill="#fcc"/><path d="m64.143 119.314 1.587.794zm116.64 0 1.587.794z" fill="#c33"/><path d="m183.956 118.522 2.38 2.38z" fill="#fcc"/><path d="m193.477 118.522 2.38 2.38z" fill="#ccf"/><path d="m195.858 118.522 2.38 2.38zm-140.444 2.38 2.38 2.38z" fill="#6cc"/><path d="m57.795 120.902 2.38 2.38z" fill="#9cf"/><path d="m67.316 120.902 2.38 2.38zm109.499 0 2.38 2.38z" fill="#fcc"/><path d="m186.336 120.902 2.38 2.38z" fill="#9cf"/><path d="m188.717 120.902 2.38 2.38z" fill="#6cc"/><path d="m62.555 123.283 2.38 2.38z" fill="#69c"/><path d="m64.936 123.283 2.38 2.38z" fill="#9cf"/><path d="m76.838 123.283 2.38 2.38z" fill="#fcc"/><path d="m80.806 124.075 1.587.794-1.587-.795m83.314 0 1.587.794-1.587-.795z" fill="#c33"/><path d="m167.293 123.283 2.38 2.38z" fill="#fcc"/><path d="m179.195 123.283 2.38 2.38z" fill="#9cf"/><path d="m181.575 123.283 2.38 2.38zm-111.878 2.38 2.38 2.38z" fill="#69c"/><path d="m72.077 125.663 2.38 2.38z" fill="#9cc"/><path d="m74.457 125.663 2.38 2.38z" fill="#cff"/><path d="m83.98 125.663 2.38 2.38z" fill="#fcc"/><path d="m87.947 126.456 1.587.793-1.587-.794m69.032 0 1.586.793-1.587-.794z" fill="#c33"/><path d="m160.152 125.663 2.38 2.38z" fill="#fcc"/><path d="m169.673 125.663 2.38 2.38z" fill="#cff"/><path d="m172.054 125.663 2.38 2.38z" fill="#9cc"/><path d="m174.434 125.663 2.38 2.38zm-97.596 2.38 2.38 2.38z" fill="#69c"/><path d="m79.218 128.043 2.38 2.38z" fill="#9cc"/><path d="m81.6 128.043 2.38 2.38z" fill="#cff"/><path d="m91.12 128.043 2.38 2.38z" fill="#fcc"/><path d="m95.088 128.836 1.587.794zm54.75 0 1.586.794z" fill="#c33"/><path d="m153.01 128.043 2.38 2.38z" fill="#fcc"/><path d="m162.532 128.043 2.38 2.38z" fill="#cff"/><path d="m164.913 128.043 2.38 2.38z" fill="#9cc"/><path d="m167.293 128.043 2.38 2.38z" fill="#69c"/><path d="m86.36 130.424 2.38 2.38z" fill="#9cc"/><path d="m88.74 130.424 2.38 2.38z" fill="#ccf"/><path d="m98.26 130.424 2.382 2.38-2.38-2.38z" fill="#fcc"/><path d="m100.642 130.424 2.38 2.38zm42.847 0 2.38 2.38z" fill="#c33"/><path d="m145.87 130.424 2.38 2.38z" fill="#fcc"/><path d="m155.39 130.424 2.382 2.38-2.38-2.38z" fill="#ccf"/><path d="m157.77 130.424 2.382 2.38-2.38-2.38m-64.27 2.38 2.38 2.38z" fill="#9cc"/><path d="m95.88 132.804 2.382 2.38-2.38-2.38m52.368 0 2.38 2.38z" fill="#ccf"/><path d="m150.63 132.804 2.38 2.38zm-49.988 2.38 2.38 2.38z" fill="#9cc"/><path d="m105.403 135.185 2.38 2.38zm33.325 0 2.38 2.38z" fill="#c33"/><path d="m143.49 135.185 2.38 2.38z" fill="#9cc"/><path d="m105.403 137.565 2.38 2.38zm33.325 0 2.38 2.38z" fill="#fcc"/><path d="m103.022 139.945 2.38 2.38z" fill="#ccf"/><path d="m108.576 141.533.793 1.587-.794-1.587m28.565 0 .794 1.587-.793-1.587z" fill="#c33"/><path d="m141.11 139.945 2.38 2.38z" fill="#ccf"/><path d="m103.022 142.326 2.38 2.38zm38.087 0 2.38 2.38z" fill="#9cc"/><path d="m107.783 144.706 2.38 2.38zm28.565 0 2.38 2.38z" fill="#fcc"/><path d="m105.403 147.087 2.38 2.38z" fill="#ccf"/><path d="m110.956 148.674.794 1.587-.794-1.586m23.804 0 .794 1.587-.794-1.586z" fill="#c33"/><path d="m138.728 147.087 2.38 2.38z" fill="#ccf"/><path d="m105.403 149.467 2.38 2.38zm33.325 0 2.38 2.38z" fill="#9cc"/><path d="m110.163 151.847 2.38 2.38zm23.805 0 2.38 2.38z" fill="#fcc"/><path d="m107.783 154.228 2.38 2.38z" fill="#cff"/><path d="m113.337 155.816.793 1.586zm19.043 0 .793 1.586z" fill="#c33"/><path d="m136.348 154.228 2.38 2.38z" fill="#cff"/><path d="m107.783 156.608 2.38 2.38zm28.565 0 2.38 2.38z" fill="#9cc"/><path d="m107.783 158.99 2.38 2.38z" fill="#69c"/><path d="m112.544 158.99 2.38 2.38zm19.043 0 2.38 2.38z" fill="#fcc"/><path d="m136.348 158.99 2.38 2.38z" fill="#69c"/><path d="m110.163 161.37 2.38 2.38zm23.805 0 2.38 2.38z" fill="#cff"/><path d="m110.163 163.75 2.38 2.38zm23.805 0 2.38 2.38z" fill="#9cc"/><path d="m110.163 166.13 2.38 2.38zm23.805 0 2.38 2.38z" fill="#69c"/><path d="m114.924 168.51 2.38 2.38zm14.283 0 2.38 2.38z" fill="#fcc"/><path d="m112.544 170.89 2.38 2.38z" fill="#9cf"/><path d="m118.097 172.478.794 1.587-.793-1.587m9.522 0 .793 1.587-.794-1.587z" fill="#c33"/><path d="m131.587 170.89 2.38 2.38z" fill="#9cf"/><path d="m112.544 173.27 2.38 2.38zm19.043 0 2.38 2.38z" fill="#69c"/><path d="m117.305 175.65 2.38 2.382-2.38-2.38m9.52 0 2.382 2.38-2.38-2.38z" fill="#fcc"/><path d="m114.924 178.032 2.38 2.38zm14.283 0 2.38 2.38z" fill="#9cf"/><path d="m114.924 180.412 2.38 2.38zm14.283 0 2.38 2.38z" fill="#6cc"/><path d="m119.685 182.793 2.38 2.38zm4.76 0 2.38 2.38z" fill="#fcc"/><path d="m117.305 185.173 2.38 2.38zm9.52 0 2.382 2.38-2.38-2.38z" fill="#ccf"/><path d="m117.305 187.553 2.38 2.38z" fill="#6cc"/><path d="m122.065 187.553 2.38 2.38z" fill="#c66"/><path d="m126.826 187.553 2.38 2.38z" fill="#6cc"/><path d="m119.685 192.314 2.38 2.38zm4.76 0 2.38 2.38z" fill="#ccf"/><path d="m119.685 194.695 2.38 2.38zm4.76 0 2.38 2.38zm-2.38 4.76 2.38 2.38z" fill="#9cc"/></g></svg>