<svg height="512" viewBox="0 0 512 512" width="512" xmlns="http://www.w3.org/2000/svg" xmlns:xlink="http://www.w3.org/1999/xlink"><clipPath id="a"><path d="m0 0h512v512h-512z"/></clipPath><g clip-path="url(#a)" fill-rule="evenodd"><path d="m0 0h512v512h-512z" fill="#009"/><path d="m77 .006 436.91 436.91v-436.91z" fill="#fc0"/><path d="m461.41 470.395-26.123-19.086-26.849 18.994 10.151-31.164-26.419-19.246 32.731.066 10.177-31.117 10.055 31.156 32.74.094-26.195 19.365zm76.714 10.447-32.74-.094-10.055-31.156-10.177 31.117-32.731-.066 26.419 19.246-10.151 31.164 26.849-18.994 26.123 19.086-9.731-30.938zm-146.32-101.26 26.195-19.365-32.74-.094-10.055-31.156-10.177 31.117-32.731-.066 26.419 19.246-10.151 31.164 26.849-18.994 26.123 19.086zm-60.333-60.416 26.195-19.367-32.74-.092-10.055-31.156-10.177 31.117-32.731-.066 26.419 19.244-10.151 31.166 26.849-18.996 26.123 19.088zm-59.667-59.666 26.195-19.368-32.74-.093-10.055-31.156-10.175 31.117-32.732-.066 26.418 19.246-10.151 31.166 26.849-18.996 26.123 19.088zm-60.417-60.251 26.195-19.367-32.74-.093-10.055-31.156-10.177 31.117-32.731-.066 26.419 19.245-10.151 31.166 26.849-18.996 26.123 19.088zm-59.667-59.917 26.195-19.367-32.74-.093-10.055-31.156-10.177 31.117-32.731-.066 26.419 19.245-10.151 31.166 26.849-18.996 26.123 19.088zm-60-60 26.195-19.367-32.74-.093-10.054-31.156-10.177 31.117-32.731-.066 26.419 19.245-10.152 31.165 26.849-18.996 26.123 19.088zm-60-60 26.195-19.367-32.74-.093-10.054-31.156-10.177 31.117-32.731-.066 26.419 19.245-10.152 31.165 26.849-18.996 26.123 19.088z" fill="#fff"/></g></svg>