<svg height="512" viewBox="0 0 512 512" width="512" xmlns="http://www.w3.org/2000/svg" xmlns:xlink="http://www.w3.org/1999/xlink"><clipPath id="a"><path d="m0 0h416.25v416.25h-416.25z"/></clipPath><g clip-path="url(#a)" fill-rule="evenodd" transform="scale(1.23)"><path d="m0 0h625v104.06h-625z" fill="#ff0"/><path d="m0 104.06h625v104.06h-625z" fill="#fff"/><path d="m0 208.12h625v104.06h-625z" fill="#be0027"/><path d="m0 312.19h625v104.06h-625z" fill="#3b5aa3"/><path d="m0 0v416.238l310.45-207.533z" fill="#239e46"/><g fill="#fff"><path d="m127.81 114.98c-69.183-3.51-100.7 51.6-100.63 94.2-.159 50.38 47.582 91.93 91.71 89.43-23.794-11.26-52.85-42.82-53.117-89.64-.244-42.423 23.977-79.31 62.038-93.99z"/><path d="m126.77 160.21-9.75-7.63-11.82 3.72 4.24-11.64-7.18-10.09 12.38.43 7.37-9.95 3.41 11.91 11.75 3.94-10.28 6.93zm-.207 42.327-9.75-7.63-11.82 3.72 4.24-11.64-7.18-10.09 12.38.43 7.37-9.95 3.41 11.91 11.75 3.94-10.28 6.93zm.207 42.742-9.75-7.63-11.82 3.72 4.24-11.64-7.18-10.09 12.38.43 7.37-9.95 3.41 11.91 11.75 3.94-10.28 6.93zm-.207 43.161-9.75-7.63-11.82 3.72 4.24-11.64-7.18-10.09 12.38.43 7.37-9.95 3.41 11.91 11.75 3.94-10.28 6.93z"/></g></g></svg>