<svg height="512" viewBox="0 0 512 512" width="512" xmlns="http://www.w3.org/2000/svg" xmlns:xlink="http://www.w3.org/1999/xlink"><clipPath id="a"><path d="m27.682 0h708.66v708.66h-708.66z"/></clipPath><g clip-path="url(#a)" fill-rule="evenodd" transform="matrix(.72249 0 0 .72249 -20 0)"><path d="m0 0h1063v708.66h-1063z" fill="#fff"/><path d="m0 0h1063v354.33h-1063z" fill="#df0000"/><g fill="#fff"><path d="m245.165 59.399c-49.08 11.253-85.548 47.594-95.86 97.004-14.008 67.128 29.719 132.855 96.976 146.885-67.952 19.373-138.17-19.688-157.365-87.013-19.193-67.323 19.868-137.541 87.193-156.736 23.634-6.74 45.392-6.783 69.056-.14z"/><path d="m202.056 162.445-18.946-13.81 23.44-.202 7.281-22.303 7.428 22.248 23.458.037-18.854 13.939 7.226 22.32-19.093-13.627-19.001 13.756zm25.93 76.86-18.946-13.81 23.44-.202 7.281-22.303 7.428 22.248 23.458.037-18.854 13.939 7.226 22.32-19.093-13.627-19.001 13.756zm86.26-.57-18.946-13.81 23.44-.202 7.281-22.303 7.428 22.248 23.458.037-18.854 13.939 7.226 22.32-19.093-13.627-19.001 13.756zm25.72-76.23-18.946-13.81 23.44-.202 7.281-22.303 7.428 22.248 23.458.037-18.854 13.939 7.226 22.32-19.093-13.627-19.001 13.756zm-68.29-50.58-18.946-13.81 23.44-.202 7.281-22.303 7.428 22.248 23.458.037-18.854 13.939 7.226 22.32-19.093-13.627-19.001 13.756z"/></g></g></svg>