<svg height="512" viewBox="0 0 512 512" width="512" xmlns="http://www.w3.org/2000/svg"><g fill-rule="evenodd"><path d="m0 170.667h512v170.667h-512z" fill="#fff"/><path d="m0 341.333h512v170.667h-512z"/><path d="m0 0h512v170.667h-512z" fill="#f00"/><path d="m151.36 299.73-30.743-22.258-30.592 22.476 11.378-36.525-30.536-22.554 37.779-.314 11.718-36.414 11.969 36.33 37.779.047-30.38 22.767 11.629 36.444zm285.48 0-30.743-22.258-30.592 22.476 11.378-36.525-30.536-22.554 37.779-.314 11.718-36.414 11.969 36.33 37.779.047-30.38 22.767 11.629 36.444z" fill="#090"/></g></svg>