<svg height="512" viewBox="0 0 512 512" width="512" xmlns="http://www.w3.org/2000/svg" xmlns:xlink="http://www.w3.org/1999/xlink"><defs><path id="a" d="m0-21 12.344 37.99-32.316-23.48h39.944l-32.316 23.48z" fill="#fff"/></defs><path d="m0 0h512v512h-512z" fill="#002395"/><path d="m0 0h312.32v209.92h-312.32z" fill="#fff"/><path d="m0 0h102.4v204.8h-102.4z" fill="#002395"/><path d="m204.8 0h102.4v204.8h-102.4z" fill="#ed2939"/><path d="m282.394 234.24 16.48 26.24h46.88v91.52l-35.2-55.04-47.36 75.52h23.04l24.32-43.52 49.92 89.6 49.92-89.6 24.32 43.52h23.04l-47.36-75.52-35.2 55.04v-50.56h21.12l15.68-24.96h-36.8v-16h46.88l16.48-26.24zm55.04 112h-51.2v17.92h51.2zm97.28 0h-51.2v17.92h51.2z" fill="#fff"/><g transform="matrix(1.28 0 0 1.28 -172.006 0)"><use height="100%" width="100%" x="416" xlink:href="#a" y="362"/><use height="100%" width="100%" x="371" xlink:href="#a" y="328"/><use height="100%" width="100%" x="461" xlink:href="#a" y="328"/><use height="100%" width="100%" x="333" xlink:href="#a" y="227"/><use height="100%" width="100%" x="499" xlink:href="#a" y="227"/></g></svg>