<svg height="512" viewBox="0 0 512 512" width="512" xmlns="http://www.w3.org/2000/svg" xmlns:xlink="http://www.w3.org/1999/xlink"><clipPath id="a"><path d="m0 0h512v512h-512z"/></clipPath><g clip-path="url(#a)"><path d="m.003-2.23h257.784v128.028h-257.784z" fill="#fff" fill-rule="evenodd"/><path d="m.003-2.23-.01 9.61 61.517 31.608 23.147.67z" fill="#c00"/><path d="m26.342-2.23 74.58 38.957v-38.957z" fill="#006"/><path d="m110.875-2.23v49.732h-110.865v28.419h110.865v49.732h34.114v-49.733h110.864v-28.418h-110.863v-49.732h-34.114z" fill="#c00"/><path d="m154.933-2.23v36.707l72.963-36.423-72.963-.283z" fill="#006"/><path d="m157.243 38.48 20.518-.167 79.711-40.259-21.15.345-79.079 40.08z" fill="#c00"/><path d="m.003 84.209v27.235l51.17-26.953-51.17-.285z" fill="#006"/><path d="m197.044 85.334-21.332-.166 80.409 40.034-.53-9.159-58.547-30.71zm-177.058 40.544 75.394-39.585-19.802.131-75.574 39.394" fill="#c00"/><path d="m256.93 9.017-60.89 30.196 60.08.225v44.996h-51.17l50.698 27.47.744 13.973-27.08-.323-74.11-36.384v36.707h-54.013v-36.707l-69.52 36.609-31.399.098v127.878h511.701v-255.765l-254.5-.211m-257.2 14.435-.271 26.559 53.87.674-53.6-27.233z" fill="#006"/><g fill-rule="evenodd" stroke-width="1pt"><g fill="#009fca"><path d="m255.983-2.23h255.986v255.987h-255.986z"/><path d="m-.004 125.763h270.142v127.994h-270.142z"/></g><g fill="#009fca" transform="matrix(.51604 0 0 .51604 -.004 258.888)"><path d="m505.97-19.81h486.16v515.87h-486.16z"/><path d="m0-25.343h523.49v521.41h-523.49z"/></g><path d="m478.056 226.298 7.064 20.407-18.439-12.629-18.438 12.626 7.067-20.404-18.458-12.605 22.804.021 7.028-20.416 7.029 20.416 22.804-.015zm-57.236 162.756 7.064 20.407-18.439-12.629-18.439 12.626 7.067-20.404-18.457-12.605 22.804.021 7.028-20.416 7.029 20.416 22.804-.015zm57.236-36.843 7.064 20.407-18.439-12.629-18.438 12.626 7.067-20.404-18.458-12.605 22.804.022 7.028-20.417 7.029 20.417 22.804-.016zm-246.106 118.043 7.065 20.407-18.439-12.63-18.438 12.627 7.067-20.404-18.458-12.605 22.804.021 7.028-20.416 7.029 20.416 22.804-.015zm43.069-88.429-7.064-20.407 18.439 12.629 18.438-12.626-7.067 20.404 18.458 12.605-22.804-.021-7.029 20.416-7.028-20.416-22.804.015zm67.248-93.002-7.063-20.408 18.438 12.63 18.439-12.627-7.067 20.405 18.458 12.604-22.805-.02-7.028 20.416-7.028-20.417-22.805.015zm56.52-19.322-7.063-20.407 18.438 12.629 18.439-12.626-7.067 20.404 18.458 12.605-22.805-.021-7.028 20.416-7.028-20.416-22.805.015zm-56.52 160.967-7.063-20.407 18.438 12.629 18.439-12.626-7.067 20.404 18.458 12.605-22.805-.021-7.028 20.416-7.028-20.416-22.805.015zm-67.248 16.457-7.064-20.407 18.439 12.63 18.438-12.627-7.067 20.404 18.458 12.605-22.804-.021-7.029 20.416-7.028-20.416-22.804.015z" fill="#fff40d"/></g></g></svg>