<svg height="512" viewBox="0 0 512 512" width="512" xmlns="http://www.w3.org/2000/svg"><g fill-rule="evenodd" transform="scale(3.9385)"><g stroke-width="1pt"><path d="m0 0h247v10h-247zm0 20h247v10h-247zm0 20h247v10h-247zm0 20h247v10h-247zm0 20h247v10h-247zm0 20h247v10h-247zm0 20h247v10h-247z" fill="#bd3d44"/><path d="m0 10h247v10h-247zm0 20h247v10h-247zm0 20h247v10h-247zm0 20h247v10h-247zm0 20h247v10h-247zm0 20h247v10h-247z" fill="#fff"/></g><path d="m0 0h98.8v70h-98.8z" fill="#192f5d"/><g fill="#fff"><path d="m8.233 2.996.9 2.767h2.908l-2.353 1.71.899 2.766-2.354-1.71-2.353 1.71.899-2.766-2.354-1.71h2.91zm16.467 0 .899 2.767h2.909l-2.353 1.71.898 2.766-2.353-1.709-2.353 1.71.898-2.766-2.353-1.71h2.909zm16.467 0 .899 2.767h2.909l-2.353 1.71.899 2.766-2.354-1.71-2.353 1.71.899-2.766-2.354-1.71h2.91zm16.466 0 .899 2.767h2.909l-2.353 1.71.899 2.766-2.354-1.71-2.353 1.71.899-2.766-2.354-1.71h2.91zm16.467 0 .899 2.767h2.909l-2.354 1.71.9 2.766-2.354-1.709-2.353 1.71.898-2.766-2.353-1.71h2.909zm16.467 0 .899 2.767h2.909l-2.354 1.71.9 2.766-2.354-1.71-2.353 1.71.898-2.766-2.353-1.71h2.909zm-74.1 7 .899 2.767h2.909l-2.353 1.71.898 2.766-2.353-1.71-2.353 1.71.898-2.766-2.353-1.71h2.909zm16.466 0 .899 2.767h2.909l-2.353 1.71.899 2.766-2.354-1.71-2.353 1.71.899-2.766-2.354-1.71h2.91zm16.467 0 .899 2.767h2.909l-2.353 1.71.899 2.766-2.354-1.71-2.353 1.71.899-2.766-2.354-1.71h2.91zm16.467 0 .899 2.767h2.909l-2.353 1.71.898 2.766-2.353-1.71-2.353 1.71.899-2.766-2.354-1.71h2.91zm16.466 0 .899 2.767h2.909l-2.354 1.71.9 2.766-2.354-1.71-2.353 1.71.898-2.766-2.353-1.71h2.909zm-74.1 7 .9 2.767h2.908l-2.353 1.71.899 2.766-2.354-1.71-2.353 1.71.899-2.766-2.354-1.71h2.91zm16.467 0 .899 2.767h2.909l-2.353 1.71.898 2.766-2.353-1.71-2.353 1.71.898-2.766-2.353-1.71h2.909zm16.467 0 .899 2.767h2.909l-2.353 1.71.899 2.766-2.354-1.71-2.353 1.71.899-2.766-2.354-1.71h2.91zm16.466 0 .899 2.767h2.909l-2.353 1.71.899 2.766-2.354-1.71-2.353 1.71.899-2.766-2.354-1.71h2.91zm16.467 0 .899 2.767h2.909l-2.354 1.71.9 2.766-2.354-1.71-2.353 1.71.898-2.766-2.353-1.71h2.909zm16.467 0 .899 2.767h2.909l-2.354 1.71.9 2.766-2.354-1.71-2.353 1.71.898-2.766-2.353-1.71h2.909zm-74.1 7 .899 2.767h2.909l-2.353 1.71.898 2.766-2.353-1.71-2.353 1.71.898-2.766-2.353-1.71h2.909zm16.466 0 .899 2.767h2.909l-2.353 1.71.899 2.766-2.354-1.71-2.353 1.71.899-2.766-2.354-1.71h2.91zm16.467 0 .899 2.767h2.909l-2.353 1.71.899 2.766-2.354-1.71-2.353 1.71.899-2.766-2.354-1.71h2.91zm16.467 0 .899 2.767h2.909l-2.353 1.71.898 2.766-2.353-1.71-2.353 1.71.899-2.766-2.354-1.71h2.91zm16.466 0 .899 2.767h2.909l-2.354 1.71.9 2.766-2.354-1.71-2.353 1.71.898-2.766-2.353-1.71h2.909zm-74.1 7 .9 2.767h2.908l-2.353 1.71.899 2.766-2.354-1.71-2.353 1.71.899-2.766-2.354-1.71h2.91zm16.467 0 .899 2.767h2.909l-2.353 1.71.898 2.766-2.353-1.71-2.353 1.71.898-2.766-2.353-1.71h2.909zm16.467 0 .899 2.767h2.909l-2.353 1.71.899 2.766-2.354-1.71-2.353 1.71.899-2.766-2.354-1.71h2.91zm16.466 0 .899 2.767h2.909l-2.353 1.71.899 2.766-2.354-1.71-2.353 1.71.899-2.766-2.354-1.71h2.91zm16.467 0 .899 2.767h2.909l-2.354 1.71.9 2.766-2.354-1.71-2.353 1.71.898-2.766-2.353-1.71h2.909zm16.467 0 .899 2.767h2.909l-2.354 1.71.9 2.766-2.354-1.71-2.353 1.71.898-2.766-2.353-1.71h2.909zm-74.1 7 .899 2.767h2.909l-2.353 1.71.898 2.766-2.353-1.71-2.353 1.71.898-2.766-2.353-1.71h2.909zm16.466 0 .899 2.767h2.909l-2.353 1.71.899 2.766-2.354-1.71-2.353 1.71.899-2.766-2.354-1.71h2.91zm16.467 0 .899 2.767h2.909l-2.353 1.71.899 2.766-2.354-1.71-2.353 1.71.899-2.766-2.354-1.71h2.91zm16.467 0 .899 2.767h2.909l-2.353 1.71.898 2.766-2.353-1.71-2.353 1.71.899-2.766-2.354-1.71h2.91zm16.466 0 .899 2.767h2.909l-2.354 1.71.9 2.766-2.354-1.71-2.353 1.71.898-2.766-2.353-1.71h2.909z"/><path d="m8.233 44.996.9 2.767h2.908l-2.353 1.71.899 2.766-2.354-1.71-2.353 1.71.899-2.766-2.354-1.71h2.91zm16.467 0 .899 2.767h2.909l-2.353 1.71.898 2.766-2.353-1.71-2.353 1.71.898-2.766-2.353-1.71h2.909zm16.467 0 .899 2.767h2.909l-2.353 1.71.899 2.766-2.354-1.71-2.353 1.71.899-2.766-2.354-1.71h2.91zm16.466 0 .899 2.767h2.909l-2.353 1.71.899 2.766-2.354-1.71-2.353 1.71.899-2.766-2.354-1.71h2.91zm16.467 0 .899 2.767h2.909l-2.354 1.71.9 2.766-2.354-1.71-2.353 1.71.898-2.766-2.353-1.71h2.909zm16.467 0 .899 2.767h2.909l-2.354 1.71.9 2.766-2.354-1.71-2.353 1.71.898-2.766-2.353-1.71h2.909zm-74.1 7 .899 2.767h2.909l-2.353 1.71.898 2.766-2.353-1.71-2.353 1.71.898-2.766-2.353-1.71h2.909zm16.466 0 .899 2.767h2.909l-2.353 1.71.899 2.766-2.354-1.71-2.353 1.71.899-2.766-2.354-1.71h2.91zm16.467 0 .899 2.767h2.909l-2.353 1.71.899 2.766-2.354-1.71-2.353 1.71.899-2.766-2.354-1.71h2.91zm16.467 0 .899 2.767h2.909l-2.353 1.71.898 2.766-2.353-1.71-2.353 1.71.899-2.766-2.354-1.71h2.91zm16.466 0 .899 2.767h2.909l-2.354 1.71.9 2.766-2.354-1.71-2.353 1.71.898-2.766-2.353-1.71h2.909z"/><path d="m8.233 58.996.9 2.767h2.908l-2.353 1.71.899 2.766-2.354-1.71-2.353 1.71.899-2.766-2.354-1.71h2.91zm16.467 0 .899 2.767h2.909l-2.353 1.71.898 2.766-2.353-1.71-2.353 1.71.898-2.766-2.353-1.71h2.909zm16.467 0 .899 2.767h2.909l-2.353 1.71.899 2.766-2.354-1.71-2.353 1.71.899-2.766-2.354-1.71h2.91zm16.466 0 .899 2.767h2.909l-2.353 1.71.899 2.766-2.354-1.71-2.353 1.71.899-2.766-2.354-1.71h2.91zm16.467 0 .899 2.767h2.909l-2.354 1.71.9 2.766-2.354-1.71-2.353 1.71.898-2.766-2.353-1.71h2.909zm16.467 0 .899 2.767h2.909l-2.354 1.71.9 2.766-2.354-1.71-2.353 1.71.898-2.766-2.353-1.71h2.909z"/></g></g></svg>