<svg height="31" viewBox="0 0 31 31" width="31" xmlns="http://www.w3.org/2000/svg"><path d="m9.22241183 15.6410694-7.89988623-8.18202503c-1.76336747-1.76336746-1.76336747-4.37315131 0-6.13651877 1.76336746-1.76336747 4.37315131-1.76336747 6.13651877 0l7.89988623 7.89988623 7.8998862-7.89988623c1.7633675-1.76336747 4.6905575-1.76336747 6.4186576 0 1.7633675 1.76336746 1.7633675 4.69055745 0 6.41865756l-7.8998862 7.89988624 7.8998862 7.8998862c1.7633675 1.7633675 1.7633675 4.3731513 0 6.1365188s-4.3731513 1.7633675-6.1365188 0l-7.8998862-7.8998862-7.89988624 7.8998862c-1.76336746 1.7633675-4.69055745 1.7633675-6.41865756 0-1.76336747-1.7633675-1.76336747-4.6905574 0-6.4186576z" fill="#4a4a4a" fill-rule="evenodd"/></svg>