<svg height="126" viewBox="0 0 360 126" width="360" xmlns="http://www.w3.org/2000/svg" xmlns:xlink="http://www.w3.org/1999/xlink"><defs><path id="a" d="m0 19h360v126h-360z"/><linearGradient id="b" x1="52.781%" x2="52.781%" y1="65.891%" y2="199.608%"><stop offset="0" stop-color="#fff"/><stop offset="1" stop-color="#fffafc"/></linearGradient><path id="c" d="m0 0h360v163h-360z"/><linearGradient id="d" x1="77.39%" x2="-28.947%" y1="-19.442%" y2="140.996%"><stop offset="0" stop-color="#fff7f1"/><stop offset="1" stop-color="#fff0f7"/></linearGradient><linearGradient id="e" x1="100%" x2="15.99%" y1="121.984%" y2="23.573%"><stop offset="0" stop-color="#fff0e4"/><stop offset="1" stop-color="#fff3f8"/></linearGradient><linearGradient id="f" x1="59.712%" x2="59.712%" y1="89.763%" y2="0%"><stop offset="0" stop-color="#f693b4"/><stop offset="1" stop-color="#ea5a7d"/></linearGradient><mask id="g" fill="#fff"><use fill="none" xlink:href="#a"/></mask><mask id="h" fill="#fff"><use fill="none" xlink:href="#c"/></mask></defs><g fill="none" fill-rule="evenodd"><g transform="translate(0 -19)"><use fill="#e8e4e4" xlink:href="#a"/><g mask="url(#g)"><use fill="url(#b)" xlink:href="#c"/><path d="m-73.089 132.524 167.063-48.984-28.406 149.768h-138.658z" fill="url(#d)" mask="url(#h)" opacity=".3" transform="matrix(.99026807 .1391731 -.1391731 .99026807 22.14999 .088387)"/><path d="m275.943-55.531 167.062-48.984-28.405 149.768h-138.657z" fill="url(#e)" mask="url(#h)" opacity=".2" transform="matrix(.95630476 .2923717 -.2923717 .95630476 7.044038 -106.39476)"/><g mask="url(#h)" opacity=".1"><g transform="translate(-5.625 -41.665)"><g stroke="#fee8ed" stroke-width=".563"><path d="m3.375 146.109h68.906v-84.962c-.188-6.42-2.447-9.629-6.777-9.629h-62.129v94.59z"/><path d="m3.375 179.328h26.866c4.713-.567 7.07-3.025 7.07-7.373v-62.39c-.565-4.916 1.414-7.373 5.939-7.373s110.858 1.04 319 3.12"/><path d="m2.531 248.573h82.097c6.019.188 9.028-2.634 9.028-8.468s-.376-37.166-1.128-93.996"/><path d="m72.596 146.39v62.357c-.376 6.045 2.444 9.067 8.461 9.067h69.95c6.016.378 9.024 3.496 9.024 9.353 0 5.858-.564 48.655-1.692 128.393"/><path d="m102.094 357.249v-92.587c.941-6.03 5.836-8.666 14.685-7.911 8.848.755 56.668.755 143.46 0 8.095-.378 12.614 1.604 13.555 5.945.941 4.34.941 24.912 0 61.714-.377 4.53-3.671 6.794-9.884 6.794h-46.032c-6.212-.566-9.319-3.208-9.319-7.926 0-4.719.66-77.85 1.977-219.397"/><path d="m315.263 357.249v-267.795c1.133-5.662-.945-8.493-6.233-8.493h-185.561v-80.961"/><path d="m361.406 26.604h-256.978c-7.727-.753-11.59 1.507-11.59 6.783v23.456c-.377 4.145 3.486 6.217 11.59 6.217 8.105 0 42.783-.47 104.035-1.413m.787-59.395v79.108m20.25-79.952v79.67"/><path d="m285.469 1.126v169.137c-.567 6.043-3.781 9.065-9.641 9.065h-24.953"/><path d="m352.125 2.252v185.668c-.189 5.472-2.64 8.208-7.353 8.208h-83.144c-7.919.566-11.878-1.51-11.878-6.226 0-4.717.566-26.983 1.697-66.796l98.981.566m-293.615 233.858v-74.45c.376-4.718 3.108-7.077 8.193-7.077h48.033c3.39.566 5.086-2.548 5.086-9.342s-.188-61.617-.565-164.47m-45.841 44.199h45.844"/></g><g fill="#ffdde6"><ellipse cx="188.578" cy="99.517" rx="2.109" ry="2.111"/><ellipse cx="285.328" cy="122.883" rx="2.109" ry="2.111"/><ellipse cx="209.109" cy="81.5" rx="1.547" ry="1.548"/><ellipse cx="249.891" cy="179.187" rx="1.547" ry="1.548"/><ellipse cx="146.109" cy="107.963" rx="1.547" ry="1.548"/><ellipse cx="72.422" cy="146.531" rx="1.547" ry="1.548"/><ellipse cx="229.641" cy="81.5" rx="1.547" ry="1.548"/><ellipse cx="92.391" cy="146.531" rx="1.547" ry="1.548"/></g></g></g><g fill="#fff"><rect height="38.686" mask="url(#h)" opacity=".5" rx="6.469" transform="matrix(-.22495105 -.97437006 .97437006 -.22495105 -73.51967 200.123814)" width="33.365" x="26.151" y="109.959"/><rect height="33.385" mask="url(#h)" opacity=".7" rx="6.469" transform="matrix(.2923717 -.95630476 .95630476 .2923717 108.549506 390.226238)" width="33.365" x="301.272" y="105.072"/></g></g></g><path d="m0 96c35.655-2.08 60.462-4.344 74.42-6.794 53.604-9.406 99.922-22.993 136.872-33.445 36.95-10.451 66.851-17.064 132.708-40.761" stroke="url(#f)" stroke-dasharray="1.04 3.12" stroke-linecap="round" stroke-linejoin="round" transform="translate(-7 29)"/><path d="m345.359 33.791 4.166 9.815 5.366-8.07zm-8.128 3.783 4.166 9.814 5.367-8.069z" fill="#ea5a7d"/></g></svg>