<svg height="480" viewBox="0 0 1279 480" width="1279" xmlns="http://www.w3.org/2000/svg" xmlns:xlink="http://www.w3.org/1999/xlink"><defs><path id="a" d="m0 0h1280v480h-1280z"/><filter id="b" height="100.2%" width="100.1%" x="0%" y="-.1%"><feOffset dy="-1" in="SourceAlpha" result="shadowOffsetInner1"/><feComposite in="shadowOffsetInner1" in2="SourceAlpha" k2="-1" k3="1" operator="arithmetic" result="shadowInnerInner1"/><feColorMatrix in="shadowInnerInner1" values="0 0 0 0 0 0 0 0 0 0 0 0 0 0 0 0 0 0 0.4 0"/></filter><linearGradient id="c" x1="52.781%" x2="52.781%" y1="65.891%" y2="199.608%"><stop offset="0" stop-color="#fff"/><stop offset="1" stop-color="#fffafc"/></linearGradient><path id="d" d="m0 0h1280v579h-1280z"/><linearGradient id="e" x1="77.39%" x2="-28.947%" y1="-19.442%" y2="140.996%"><stop offset="0" stop-color="#fff7f1"/><stop offset="1" stop-color="#fff0f7"/></linearGradient><linearGradient id="f" x1="100%" x2="15.99%" y1="121.984%" y2="23.573%"><stop offset="0" stop-color="#fff0e4"/><stop offset="1" stop-color="#fff3f8"/></linearGradient><mask id="g" fill="#fff"><use fill="none" xlink:href="#a"/></mask><mask id="h" fill="#fff"><use fill="none" xlink:href="#d"/></mask></defs><g fill="none" fill-rule="evenodd"><g transform="translate(-1)"><use fill="#fff" xlink:href="#a"/><use fill="#000" filter="url(#b)" xlink:href="#a"/><g mask="url(#g)"><use fill="url(#c)" xlink:href="#d"/><path d="m-259.87 470.746 594-174-101 532h-493z" fill="url(#e)" mask="url(#h)" opacity=".3" transform="matrix(.99026807 .1391731 -.1391731 .99026807 78.680452 .309108)"/><path d="m981.13-197.254 594-174-101 532h-493z" fill="url(#f)" mask="url(#h)" opacity=".2" transform="matrix(.95630476 .2923717 -.2923717 .95630476 25.074911 -378.288146)"/><g mask="url(#h)" opacity=".1"><g transform="translate(-20 -148)"><g stroke="#fee8ed" stroke-width="2"><path d="m12 519h245v-301.796c-.67-22.804-8.702-34.204-24.098-34.204h-220.902z"/><path d="m12 637h95.524c16.759-2.015 25.138-10.745 25.138-26.191v-221.619c-2.012-17.459 5.028-26.19 21.116-26.19s394.162 3.694 1134.222 11.08"/><path d="m9 882.969h291.9c21.4.668 32.1-9.359 32.1-30.08 0-20.722-1.337-132.018-4.012-333.889"/><path d="m258.118 520v221.5c-1.337 21.471 8.691 32.207 30.085 32.207h248.708c21.393 1.343 32.089 12.417 32.089 33.224s-2.006 172.83-6.017 456.069"/><path d="m363 1269v-328.882c3.347-21.416 20.751-30.783 52.213-28.101 31.462 2.681 201.488 2.681 510.08 0 28.784-1.341 44.85 5.698 48.197 21.117 3.347 15.42 3.347 88.492 0 219.218-1.339 16.09-13.053 24.134-35.144 24.134h-163.666c-22.09-2.011-33.135-11.397-33.135-28.156 0-16.76 2.343-276.537 7.028-779.33"/><path d="m1120.933 1269v-951.247c4.03-20.111-3.357-30.167-22.16-30.167h-659.773v-287.586"/><path d="m1285 94.502h-913.699c-27.474-2.677-41.212 5.354-41.212 24.093v83.32c-1.339 14.723 12.397 22.085 41.212 22.085s152.116-1.673 369.903-5.02m2.796-210.98v281m72-284v283"/><path d="m1015 4v600.797c-2.016 21.469-13.443 32.203-34.279 32.203h-88.721"/><path d="m1252 8v659.521c-.67 19.437-9.385 29.156-26.144 29.156h-295.624c-28.155 2.01-42.232-5.362-42.232-22.118s2.011-95.845 6.033-237.267l351.934 2.01m-1043.967 830.698v-264.46c1.34-16.758 11.05-25.136 29.134-25.136h170.783c12.055 2.01 18.083-9.05 18.083-33.183s-.67-218.874-2.01-584.221m-162.99 157h163"/></g><g fill="#ffdde6"><circle cx="670.5" cy="353.5" r="7.5"/><circle cx="1014.5" cy="436.5" r="7.5"/><circle cx="743.5" cy="289.5" r="5.5"/><circle cx="519.5" cy="383.5" r="5.5"/><circle cx="257.5" cy="520.5" r="5.5"/><circle cx="816.5" cy="289.5" r="5.5"/><circle cx="328.5" cy="520.5" r="5.5"/></g></g></g><g fill="#fff"><rect height="137.42" mask="url(#h)" opacity=".5" rx="23" transform="matrix(-.22495105 -.97437006 .97437006 -.22495105 -260.973025 711.012683)" width="118.63" x="92.981" y="390.59"/><rect height="118.587" mask="url(#h)" opacity=".7" rx="23" transform="matrix(.2923717 -.95630476 .95630476 .2923717 386.350655 1387.174944)" width="118.63" x="1071.19" y="373.233"/></g></g><path d="m0 479h145.664m25.45 0h1106.886" mask="url(#g)" stroke="#eee" stroke-linecap="square"/></g><path d="m-1 407.1c221.106 32.352 432.641 48.529 634.607 48.529 189.915 0 402.054-29.579 625.44-108.629" stroke="#ea5a7d" stroke-dasharray="1 10" stroke-linecap="round" stroke-linejoin="round" stroke-width="2"/><path d="m1240 336.696 12.331 22.247 11.327-20.82zm-19 11 12.331 22.247 11.327-20.82z" fill="#ea5a7d"/></g></svg>