<svg xmlns="http://www.w3.org/2000/svg" width="65" height="75" viewBox="0 0 65 75"><g fill="none" fill-rule="evenodd"><path fill="#EA5A7D" d="M33.44 8.581a15.521 15.521 0 0 0-.7-.03c-.306.009-.49.014-.725.03-11.432.779-20.05 10.17-20.05 21.563 0 13.889 12.203 18.81 12.203 24.243v.026h17.621v-.026c0-5.433 11.952-10.342 11.952-24.23 0-11.393-8.87-20.797-20.301-21.576"/><path fill="#D85373" d="M39.32 9.807c5.412 4.362 8.663 10.73 8.663 17.801 0 15.271-14.738 20.656-14.738 26.63v.174h8.544v-.024c0-5.433 11.952-10.343 11.952-24.232 0-9.338-6.021-17.34-14.422-20.349"/><path fill="#FFF" d="M44.611 28.652a11.532 11.532 0 0 0-6.727-7.988 1.716 1.716 0 0 0-.362-.106 11.37 11.37 0 0 0-12.186 2.6l-.015.019a11.517 11.517 0 0 0-3.327 8.076c0 .015-.005.029-.005.044 0 .038.003.075.004.114a11.093 11.093 0 0 0 .041.871c.006.063.008.125.015.188a11.002 11.002 0 0 0 .128.889c.097.54.232 1.065.4 1.576l.011.03c1.526 4.56 5.812 7.855 10.851 7.855.955 0 1.73-.78 1.73-1.74 0-.962-.775-1.741-1.73-1.741-3.3 0-6.14-2.024-7.357-4.904l-.005-.017a8.192 8.192 0 0 1-.503-1.71l-.009-.048a8.392 8.392 0 0 1-.077-.562c0-.007 0-.013-.002-.02a8.701 8.701 0 0 1-.03-.485l-.005-.182a8.043 8.043 0 0 1 2.333-5.791l.006-.008a7.928 7.928 0 0 1 8.743-1.71c.075.03.151.05.228.07 2.19 1 3.828 3.28 4.436 5.617.03.111-.006.642-.292.642h-10.24c-.955 0-1.73.919-1.73 1.88 0 .961.775 1.881 1.73 1.881h10.499c1.09 0 2.104-.976 2.78-1.84.672-.86.915-2.435.667-3.5"/><path fill="#86A5AA" d="M41.907 62.544H23.926a3.138 3.138 0 0 1-3.129-3.148c0-1.739 1.4-3.149 3.129-3.149h17.98c1.728 0 3.129 1.41 3.129 3.149 0 1.738-1.4 3.148-3.128 3.148M39.927 70.321H25.906a2.975 2.975 0 0 1-2.966-2.984 2.975 2.975 0 0 1 2.966-2.985h14.02a2.975 2.975 0 0 1 2.966 2.985 2.975 2.975 0 0 1-2.965 2.984M28.138 71.998c-.223 0-.357.23-.232.399 1.083 1.462 2.921 2.45 5.01 2.45s3.928-.988 5.01-2.45c.125-.17-.01-.399-.232-.399h-9.556z"/><path fill="#FFF" d="M18.976 29.287c-2.148-1.537-2.116-5.296.073-8.394 2.19-3.098 5.706-4.363 7.855-2.825 2.149 1.537 2.115 5.296-.074 8.394s-5.705 4.363-7.854 2.825" opacity=".4"/><path stroke="#FDD236" stroke-linecap="round" stroke-linejoin="round" stroke-width="3.675" d="M31.168 5.524V2.3M50.47 12.797l2.598-2.614M51.617 49.258l2.597 2.613M58.867 29.81h3.737M14.174 12.797l-2.597-2.614M13.027 49.258L10.43 51.87M6.005 29.81H2.267"/></g></svg>