<svg xmlns="http://www.w3.org/2000/svg" xmlns:xlink="http://www.w3.org/1999/xlink" width="49" height="53" viewBox="0 0 49 53"><defs><path id="a" d="M0 49.862h41.724V0H0z"/></defs><g fill="none" fill-rule="evenodd" transform="rotate(-16 19.442 10.27)"><path fill="#ED6060" d="M38.888 10.84l-.043 34.497c-.152 2.103-1.632 3.842-3.62 3.842H6.503c-1.987 0-3.452-1.737-3.62-3.842l.001-34.498h36.005z"/><path fill="#E23B3B" d="M8.727 12.02h2.945v28.168c0 2.178-2.945 2.178-2.945 0V12.02zM26.417 12.02h2.945v27.738c0 2.177-2.945 2.177-2.945 0V12.02zM17.572 12.02h2.945v27.738c0 2.177-2.945 2.177-2.945 0V12.02z"/><path fill="#DD3636" d="M34.347 11.234l-.032 29.59c-.132 2.104-1.427 3.881-3.163 3.881H6.046c-1.737 0-3.282-2.21-3.698-4.315v-7.223 12.17c.416 2.105 2.167 3.914 4.154 3.914h28.724c1.987 0 3.467-1.577 3.619-3.68l.043-34.337h-4.54z"/><path stroke="#777" stroke-linecap="round" stroke-linejoin="round" stroke-width="1.368" d="M38.888 11.144l-.043 33.89c0 .202-.004.405-.031.605-.264 1.965-1.696 3.54-3.588 3.54H6.502c-1.788 0-3.154-1.407-3.53-3.223a4.994 4.994 0 0 1-.09-1.017l.001-33.795h36.005z"/><mask id="b" fill="#fff"><use xlink:href="#a"/></mask><path fill="#D1D1D1" d="M0 12.932h41.724v-2.798H0z" mask="url(#b)"/><path fill="#636363" d="M7.577 7.412c0-1.029.84-1.863 1.875-1.863a1.87 1.87 0 0 1 1.876 1.863 1.87 1.87 0 0 1-1.876 1.864 1.87 1.87 0 0 1-1.875-1.864M12.223 7.412c0-1.029.84-1.863 1.876-1.863a1.87 1.87 0 0 1 1.875 1.863A1.87 1.87 0 0 1 14.1 9.276a1.87 1.87 0 0 1-1.876-1.864M17.998 1.863A1.87 1.87 0 0 1 19.874 0a1.87 1.87 0 0 1 1.875 1.863 1.87 1.87 0 0 1-1.875 1.864 1.87 1.87 0 0 1-1.876-1.864M14.183 3.47a1.65 1.65 0 0 1 1.656-1.646 1.65 1.65 0 0 1 1.655 1.645 1.65 1.65 0 0 1-1.655 1.645 1.65 1.65 0 0 1-1.656-1.645M27.75 8.296c0-.614.502-1.111 1.12-1.111.617 0 1.118.497 1.118 1.111s-.501 1.112-1.119 1.112a1.115 1.115 0 0 1-1.119-1.112M23.458 7.412c0-1.029.84-1.863 1.875-1.863a1.87 1.87 0 0 1 1.876 1.863 1.87 1.87 0 0 1-1.876 1.864 1.87 1.87 0 0 1-1.875-1.864M9.92 3.95c0-.885.721-1.603 1.612-1.603.89 0 1.612.718 1.612 1.603 0 .884-.722 1.601-1.612 1.601-.89 0-1.612-.717-1.612-1.601M26.857 4.79c0-1.03.84-1.864 1.875-1.864a1.87 1.87 0 0 1 1.876 1.864 1.87 1.87 0 0 1-1.876 1.863 1.87 1.87 0 0 1-1.875-1.863M22.293 3.25a1.64 1.64 0 0 1 1.644-1.634 1.64 1.64 0 0 1 1.645 1.635c0 .902-.736 1.634-1.645 1.634a1.64 1.64 0 0 1-1.644-1.634M17.127 6.718a2.566 2.566 0 0 1 2.574-2.559 2.567 2.567 0 0 1 2.575 2.559A2.567 2.567 0 0 1 19.7 9.276a2.566 2.566 0 0 1-2.574-2.558M30.906 7.066c0-1.22.996-2.21 2.224-2.21 1.228 0 2.224.99 2.224 2.21s-.996 2.21-2.224 2.21a2.217 2.217 0 0 1-2.224-2.21" mask="url(#b)"/></g></svg>