<svg xmlns="http://www.w3.org/2000/svg" xmlns:xlink="http://www.w3.org/1999/xlink" width="360" height="1111" viewBox="0 0 360 1111"><style>@font-face{font-family:&apos;National-Book&apos;;src:url(https://assets.embibe.com/staging/font/National/NationalWeb-Book.ttf) format(&apos;truetype&apos;)}@font-face{font-family:&apos;National-Regular&apos;;src:url(https://assets.embibe.com/staging/font/National/NationalWeb-Regular.ttf) format(&apos;truetype&apos;)}@font-face{font-family:&apos;Roboto-Light&apos;;src:url(https://assets.embibe.com/staging/font/Roboto/Roboto-Light.ttf) format(&apos;truetype&apos;)}@font-face{font-family:&apos;Roboto-Regular&apos;;src:url(https://assets.embibe.com/staging/font/Roboto/Roboto-Regular.ttf) format(&apos;truetype&apos;)}</style><defs><linearGradient id="b" x1="100%" x2="30.94%" y1="-14.062%" y2="47.607%"><stop offset="0%" stop-color="#FFF1E2"/><stop offset="100%" stop-color="#FFF4F9"/></linearGradient><path id="a" d="M0 0h360v1111H0z"/><linearGradient id="c" x1="77.39%" x2="-28.947%" y1="-19.442%" y2="140.996%"><stop offset="0%" stop-color="#FFF0E4"/><stop offset="100%" stop-color="#FFEBF4"/></linearGradient><path id="e" d="M3.764.106c-.896.17-1.71.609-2.357 1.268L1.4 1.38A4.636 4.636 0 0 0 .09 4.608l-.003.018.001.045a5.222 5.222 0 0 0 .017.348l.006.075c.01.1.024.2.04.297l.01.058c.038.216.091.426.158.63l.004.012C.925 7.913 2.614 9.23 4.6 9.23a.688.688 0 0 0 .68-.696.688.688 0 0 0-.68-.695c-1.3 0-2.419-.809-2.898-1.96l-.003-.006A3.312 3.312 0 0 1 1.5 5.19c0-.007-.002-.013-.003-.02a3.385 3.385 0 0 1-.03-.224l-.001-.008a3.33 3.33 0 0 1-.012-.194l-.002-.073a3.237 3.237 0 0 1 .919-2.314l.002-.003a3.09 3.09 0 0 1 3.444-.683c.03.012.06.02.09.028.863.4 1.508 1.31 1.748 2.244.011.045-.003.257-.115.257H3.506c-.376 0-.681.367-.681.751s.305.752.68.752h4.137c.43 0 .828-.39 1.094-.735.266-.344.362-.974.264-1.4A4.592 4.592 0 0 0 6.35.379a.683.683 0 0 0-.143-.043A4.438 4.438 0 0 0 3.764.106z"/><rect id="h" width="213" height="135" x="100.8" y="10.2" rx="8.4"/><filter id="g" width="110.3%" height="116.3%" x="-5.2%" y="-7.4%" filterUnits="objectBoundingBox"><feOffset dy="1" in="SourceAlpha" result="shadowOffsetOuter1"/><feGaussianBlur in="shadowOffsetOuter1" result="shadowBlurOuter1" stdDeviation="3.5"/><feColorMatrix in="shadowBlurOuter1" values="0 0 0 0 0.654901961 0 0 0 0 0.654901961 0 0 0 0 0.654901961 0 0 0 0.199699955 0"/></filter><path id="i" d="M3.764.107A4.451 4.451 0 0 0 1.407 1.38l-.006.008A4.67 4.67 0 0 0 .09 4.63c-.001.006-.003.011-.003.017l.001.046a5.271 5.271 0 0 0 .017.35l.006.075c.01.101.024.2.04.299l.01.058c.038.217.091.428.158.633l.004.012C.925 7.95 2.614 9.273 4.6 9.273a.69.69 0 0 0 .68-.699.69.69 0 0 0-.68-.698c-1.3 0-2.419-.813-2.898-1.969L1.698 5.9a3.34 3.34 0 0 1-.198-.686l-.003-.02a3.416 3.416 0 0 1-.03-.225l-.001-.008a3.36 3.36 0 0 1-.012-.195l-.002-.073a3.26 3.26 0 0 1 .919-2.325l.002-.003a3.08 3.08 0 0 1 3.444-.686c.03.012.06.02.09.028.863.401 1.508 1.317 1.748 2.255.011.044-.003.257-.115.257H3.506c-.376 0-.681.37-.681.755 0 .386.305.755.68.755h4.137c.43 0 .828-.392 1.094-.738.266-.345.362-.978.264-1.405A4.608 4.608 0 0 0 6.35.379a.68.68 0 0 0-.143-.042 4.42 4.42 0 0 0-2.443-.23z"/><path id="k" d="M0 .103h38.898v39.223H0z"/><linearGradient id="l" x1="50%" x2="50%" y1="0%" y2="100%"><stop offset="0%" stop-color="#FFE47A"/><stop offset="100%" stop-color="#FFD21F"/></linearGradient></defs><g fill="none" fill-rule="evenodd"><g><mask id="d" fill="#fff"><use xlink:href="#a"/></mask><use fill="url(#b)" xlink:href="#a"/><path fill="url(#c)" d="M-25.73 1206.134L271 1119l-49.267 277.4L-44 1426z" mask="url(#d)" transform="rotate(8 113.5 1272.5)"/><path fill="url(#c)" d="M102.27 734.134L399 647l-49.267 277.4L84 954z" mask="url(#d)" transform="scale(-1 1) rotate(8 0 -2653.11)"/><g mask="url(#d)" opacity=".439"><g transform="translate(-20 -148)"><path stroke="#F7DCE3" stroke-width="2" d="M12 519h245V217.204C256.33 194.4 248.298 183 232.902 183H12v336z"/><path stroke="#F7DCE3" stroke-width="2" d="M12 637h95.524c16.759-2.015 25.138-10.745 25.138-26.191V389.19C130.65 371.731 137.69 363 153.778 363S547.94 366.694 1288 374.08"/><path stroke="#F7DCE3" stroke-width="2" d="M9 882.969h291.9c21.4.668 32.1-9.359 32.1-30.08 0-20.722-1.337-132.018-4.012-333.889"/><path stroke="#F7DCE3" stroke-width="2" d="M258.118 520v221.5c-1.337 21.471 8.691 32.207 30.085 32.207h248.708C558.304 775.05 569 786.124 569 806.931c0 20.807-2.006 172.83-6.017 456.069v173"/><path stroke="#F7DCE3" stroke-width="2" d="M359.5 1436.5L363 1269V940.118c3.347-21.416 20.751-30.783 52.213-28.101 31.462 2.681 201.488 2.681 510.08 0 28.784-1.341 44.85 5.698 48.197 21.117 3.347 15.42 3.347 88.492 0 219.218-1.339 16.09-13.053 24.134-35.144 24.134H774.68c-22.09-2.011-33.135-11.397-33.135-28.156 0-16.76 2.343-276.537 7.028-779.33M1285 94.502H371.301c-27.474-2.677-41.212 5.354-41.212 24.093v83.32C328.75 216.638 342.486 224 371.301 224c28.815 0 152.116-1.673 369.903-5.02"/><path stroke="#F7DCE3" stroke-width="2" d="M202 1437v-431.46c1.34-16.758 11.05-25.136 29.134-25.136h170.783c12.055 2.01 18.083-9.05 18.083-33.183s-.67-218.874-2.01-584.221M255 520h163M12 731h41c14.667 3.351 22 11.393 22 24.127v325.72C73.667 1100.281 66.333 1110 53 1110H0l12-379z"/><circle cx="133" cy="519" r="11" fill="#FFD5DF"/><circle cx="75" cy="883" r="11" fill="#FFD5DF"/></g></g></g><g transform="translate(-32 810)"><rect width="372" height="261" fill="#FFF" rx="100"/><g transform="translate(56 24)"><ellipse cx="20" cy="20.487" fill="#EA5A7D" rx="19.648" ry="20.147"/><path fill="#FFF" d="M20.381 8.73a6.028 6.028 0 0 0-.275-.012c-.12.003-.193.005-.286.012-4.503.31-7.898 4.063-7.898 8.615 0 5.55 4.807 7.516 4.807 9.687v.01h6.941v-.01c0-2.171 4.709-4.133 4.709-9.682 0-4.551-3.494-8.31-7.998-8.62"/><path fill="#FFE3EA" d="M22.698 9.22c2.132 1.742 3.412 4.287 3.412 7.112 0 6.102-5.805 8.253-5.805 10.64v.07h3.365v-.01c0-2.171 4.709-4.133 4.709-9.682a8.66 8.66 0 0 0-5.681-8.13"/><path fill="#C80" d="M24.782 16.75a4.591 4.591 0 0 0-2.65-3.192.669.669 0 0 0-.143-.043 4.42 4.42 0 0 0-2.443-.228c-.895.17-1.71.608-2.357 1.267l-.006.008a4.636 4.636 0 0 0-1.31 3.226l-.002.018.001.045a4.496 4.496 0 0 0 .017.349l.005.075a4.455 4.455 0 0 0 .05.355c.039.215.092.425.159.63l.004.011c.6 1.822 2.29 3.139 4.274 3.139a.688.688 0 0 0 .681-.696.688.688 0 0 0-.68-.695c-1.3 0-2.42-.809-2.899-1.96l-.002-.006a3.308 3.308 0 0 1-.198-.683l-.003-.02a3.398 3.398 0 0 1-.031-.224v-.008a3.526 3.526 0 0 1-.013-.194l-.001-.073a3.238 3.238 0 0 1 .919-2.313l.002-.004a3.091 3.091 0 0 1 3.444-.683c.03.013.06.02.09.028.862.4 1.508 1.311 1.747 2.244.012.045-.002.257-.115.257h-4.034c-.376 0-.68.367-.68.751s.304.752.68.752H23.424c.43 0 .829-.39 1.095-.735.265-.344.36-.973.263-1.399"/><g transform="translate(15.783 13.18)"><mask id="f" fill="#fff"><use xlink:href="#e"/></mask><use fill="#EA5A7D" xlink:href="#e"/><path fill="#EF990F" d="M20.379 1.669L-.071 22.545l-3.658-3.516L16.72-1.847z" mask="url(#f)"/></g><g><path fill="#FFF" d="M23.72 30.321h-7.083c-.68 0-1.232-.563-1.232-1.258 0-.694.551-1.258 1.232-1.258h7.083c.68 0 1.232.564 1.232 1.258 0 .695-.551 1.258-1.232 1.258M22.94 33.429h-5.523a1.18 1.18 0 0 1-1.168-1.193 1.18 1.18 0 0 1 1.168-1.192h5.523a1.18 1.18 0 0 1 1.168 1.192 1.18 1.18 0 0 1-1.168 1.193M18.297 34.099c-.088 0-.141.091-.092.159.426.584 1.15.979 1.973.979.823 0 1.548-.395 1.974-.98.05-.067-.004-.158-.091-.158h-3.764z"/><path fill="#EA5A7D" d="M14.687 16.353c-.846-.614-.833-2.116.03-3.354.862-1.238 2.247-1.743 3.093-1.129.847.615.834 2.116-.029 3.354-.862 1.238-2.247 1.744-3.094 1.13" opacity=".1"/><path stroke="#FFF" stroke-linecap="round" stroke-linejoin="round" stroke-width=".755" d="M19.49 6.859V5.57M27.094 9.764l1.023-1.044M27.545 24.332l1.023 1.045M30.401 16.562h1.472M12.796 9.764L11.772 8.72M12.344 24.332l-1.023 1.045M9.578 16.562H8.105"/></g></g><text fill="#121212" font-family="National-Book, National" font-size="16" font-weight="300" transform="translate(56 24)"><tspan x="0" y="68.751">Why not expose yourself to that reality as </tspan> <tspan x="0" y="88.751">you prepare? RANKUP predicts your college </tspan> <tspan x="0" y="108.751">and branch right from your first test and </tspan> <tspan x="0" y="128.751">links improvement plans to the next level of </tspan> <tspan x="0" y="148.751">college so that you are mindful of what you </tspan> <tspan x="0" y="168.751">need to do and work accordingly to ensure </tspan> <tspan x="0" y="188.751">you end up at your dream college! This is the </tspan> <tspan x="0" y="208.751">power of data.</tspan></text></g><path fill="#D8D8D8" stroke="#F48BA4" stroke-dasharray="0.6,5.399999999999999" stroke-linecap="round" stroke-width="1.2" d="M-65.1 763.792h401.409"/><path stroke="#F48BA4" d="M331.2 764a3 3 0 1 1 6 0 3 3 0 0 1-6 0z"/><path fill="#BEC4C1" d="M164.32 757.918c-7.03-1.945-16.882-3.155-27.801-3.155-10.92 0-20.773 1.21-27.802 3.155H97.873v7.163c0 5.698 17.301 10.319 38.646 10.319 21.343 0 38.646-4.62 38.646-10.32v-7.162h-10.844"/><path fill="#E5E5E5" d="M164.32 757.918c-7.03-1.945-16.882-3.155-27.801-3.155-10.92 0-20.773 1.21-27.802 3.155H97.873v7.163c0 5.698 17.301 10.319 38.646 10.319 21.343 0 38.646-4.62 38.646-10.32v-7.162h-10.844z"/><path fill="#EEEEEA" d="M97.873 756.698c0-5.698 17.301-10.319 38.646-10.319 21.343 0 38.646 4.62 38.646 10.32 0 5.698-17.303 10.317-38.646 10.317-21.345 0-38.646-4.62-38.646-10.318"/><path fill="#EEEDED" d="M97.873 756.698c0-5.698 17.301-10.319 38.646-10.319 21.343 0 38.646 4.62 38.646 10.32 0 5.698-17.303 10.317-38.646 10.317-21.345 0-38.646-4.62-38.646-10.318z"/><path fill="#FFFFFE" d="M10.188 710.923c0 16.376 12.919 29.652 28.854 29.652h193.655c15.935 0 28.853-13.276 28.853-29.652v-.659H10.188v.659"/><path fill="#F68DA6" d="M10.188 710.923c0 16.376 12.919 29.652 28.854 29.652h193.655c15.935 0 28.853-13.276 28.853-29.652v-.659H10.188v.659z"/><path fill="#4E5554" d="M232.697 560H39.042c-15.935 0-28.854 13.137-28.854 29.342v120.922H261.55V589.342c0-16.205-12.918-29.342-28.853-29.342"/><path fill="#FFAEC2" d="M232.697 560H39.042c-15.935 0-28.854 13.137-28.854 29.342v120.922H261.55V589.342c0-16.205-12.918-29.342-28.853-29.342z"/><path fill="#90CCB9" d="M23.828 710.909V589.635c0-8.873 7.083-16.092 15.79-16.092H233.42c8.707 0 15.79 7.22 15.79 16.092v121.274H23.828"/><path d="M23.828 710.909V589.635c0-8.873 7.083-16.092 15.79-16.092H233.42c8.707 0 15.79 7.22 15.79 16.092v121.274H23.828z"/><path fill="#90CCB9" d="M23.828 710.909V589.635c0-8.873 7.083-16.092 15.79-16.092H233.42c8.707 0 15.79 7.22 15.79 16.092v121.274H23.828"/><path fill="#FFF9FA" d="M23.828 710.909V589.635c0-8.873 7.083-16.092 15.79-16.092H233.42c8.707 0 15.79 7.22 15.79 16.092v121.274H23.828z"/><path fill="#E25476" d="M132.947 724.35c0-2.793 2.208-5.057 4.933-5.057 2.724 0 4.932 2.264 4.932 5.057 0 2.794-2.208 5.058-4.932 5.058-2.725 0-4.933-2.264-4.933-5.058z"/><path fill="#F2F2F2" d="M116.06 756.698h39.62v-16.123h-39.62z"/><g><path fill="#90CCB9" d="M23.828 710.909V589.635c0-8.873 7.083-16.092 15.79-16.092H233.42c8.707 0 15.79 7.22 15.79 16.092v121.274H23.828"/><path d="M23.828 710.909V589.635c0-8.873 7.083-16.092 15.79-16.092H233.42c8.707 0 15.79 7.22 15.79 16.092v121.274H23.828z"/><path fill="#90CCB9" d="M23.828 710.909V589.635c0-8.873 7.083-16.092 15.79-16.092H233.42c8.707 0 15.79 7.22 15.79 16.092v121.274H23.828"/><path fill="#F6F6F6" d="M23.828 710.909V589.635c0-8.873 7.083-16.092 15.79-16.092H233.42c8.707 0 15.79 7.22 15.79 16.092v121.274H23.828z"/></g><g transform="translate(-72 560)"><use fill="#000" filter="url(#g)" xlink:href="#h"/><use fill="#FFF" xlink:href="#h"/></g><g fill="#2F2F2F" font-family="Roboto-Regular, Roboto" font-size="9"><text transform="translate(99.6 583.4)"><tspan x=".906" y="8.518">College predictor</tspan></text></g><path stroke="#F1F1F1" stroke-linecap="square" stroke-width=".6" d="M30.3 685.7h206.4"/><g><g transform="translate(45.6 604.4)"><text fill="#6C6C6C" font-family="Roboto-Light, Roboto" font-size="6" font-weight="300"><tspan x="1.115" y="6">Previous Score </tspan> <tspan x="9.544" y="13.8">Quotient</tspan></text><text fill="#6C6C6C" font-family="Roboto-Light, Roboto" font-size="4.8" font-weight="300"><tspan x="7.8" y="70.6">IIT Guwahati</tspan></text><text fill="#6C6C6C" font-family="Roboto-Regular, Roboto" font-size="9.6"><tspan x="4.8" y="33">71.05%</tspan></text><circle cx="21" cy="51.6" r="11.4" fill="#50B7E8"/><path fill="#FFF" fill-rule="nonzero" d="M27 50.369v-1.1L21 45.6l-6 3.668v1.1h1.059v5.503h-.706v1.1h11.294v-1.1h-.706v-5.502H27zm-8.118 4.401h-1.411V50.37h1.411v4.401zm2.824 0h-1.412V50.37h1.412v4.401zM21 49.268c-.585 0-1.059-.493-1.059-1.1 0-.608.474-1.1 1.059-1.1s1.059.492 1.059 1.1c0 .607-.474 1.1-1.059 1.1zm3.53 5.502h-1.412V50.37h1.411v4.401z"/></g><g transform="translate(110 604.4)"><text fill="#2F2F2F" font-family="Roboto-Regular, Roboto" font-size="7.2"><tspan x="8.357" y="94.6">TODAY</tspan></text><text fill="#6C6C6C" font-family="Roboto-Light, Roboto" font-size="6" font-weight="300"><tspan x="1.888" y="6">Current Score </tspan> <tspan x="8.744" y="13.8">Quotient</tspan></text><text fill="#6C6C6C" font-family="Roboto-Regular, Roboto" font-size="9.6"><tspan x="3.6" y="33">78.83%</tspan></text><text fill="#6C6C6C" font-family="Roboto-Light, Roboto" font-size="4.8" font-weight="300"><tspan x="9.013" y="70.6">IIT Kanpur</tspan></text><circle cx="19.8" cy="51.6" r="11.4" fill="#FFDE3F"/><path fill="#FFF" fill-rule="nonzero" d="M25.8 50.369v-1.1l-6-3.669-6 3.668v1.1h1.059v5.503h-.706v1.1h11.294v-1.1h-.706v-5.502H25.8zm-8.118 4.401h-1.411V50.37h1.411v4.401zm2.824 0h-1.412V50.37h1.412v4.401zm-.706-5.502c-.585 0-1.059-.493-1.059-1.1 0-.608.474-1.1 1.059-1.1s1.059.492 1.059 1.1c0 .607-.474 1.1-1.059 1.1zm3.53 5.502h-1.412V50.37h1.411v4.401z"/></g><g transform="translate(171.8 604.4)"><text fill="#6C6C6C" font-family="Roboto-Light, Roboto" font-size="6" font-weight="300"><tspan x="6.693" y="6">Predicted Score </tspan> <tspan x="16.244" y="13.8">Quotient</tspan></text><text fill="#39BB9C" font-family="Roboto-Regular, Roboto" font-size="9.6"><tspan x="11.8" y="33">81.99%</tspan></text><text fill="#6C6C6C" font-family="Roboto-Light, Roboto" font-size="4.8" font-weight="300"><tspan x="15.4" y="70.6">IIT Bombay</tspan></text><text fill="#2F2F2F" font-family="Roboto-Regular, Roboto" font-size="7.2"><tspan x="1.101" y="94.6">WHERE YOU GO</tspan></text><circle cx="27" cy="51.6" r="11.4" fill="#4183D7"/><path fill="#FFF" fill-rule="nonzero" d="M33 50.369v-1.1L27 45.6l-6 3.668v1.1h1.059v5.503h-.706v1.1h11.294v-1.1h-.706v-5.502H33zm-8.118 4.401h-1.411V50.37h1.411v4.401zm2.824 0h-1.412V50.37h1.412v4.401zM27 49.268c-.585 0-1.059-.493-1.059-1.1 0-.608.474-1.1 1.059-1.1s1.059.492 1.059 1.1c0 .607-.474 1.1-1.059 1.1zm3.53 5.502h-1.412V50.37h1.411v4.401z"/></g></g><g><path stroke="#F48BA4" stroke-width="1.226" d="M67.615 552.5V435.232a7.353 7.353 0 0 0-7.353-7.353H41.636c-4.183 0-7.56-3.425-7.56-7.668v-61.684c0-4.244 3.377-7.668 7.56-7.668h50.728c4.183 0 7.251 2.396 7.251 7.668v61.684c-.307 3.663-3.384 6.435-6.769 7.668h-8"/><path fill="#FFF5F7" stroke="#F48BA4" stroke-width="1.226" d="M96.23 388.425a3.07 3.07 0 0 1 3.08-3.061 3.07 3.07 0 0 1 3.079 3.061 3.07 3.07 0 0 1-3.08 3.06 3.07 3.07 0 0 1-3.078-3.06zM78.385 427.86a3.07 3.07 0 0 1 3.078-3.062 3.07 3.07 0 0 1 3.08 3.061 3.07 3.07 0 0 1-3.08 3.061 3.07 3.07 0 0 1-3.078-3.06zM64.846 555.9a3.07 3.07 0 0 1 3.079-3.062 3.07 3.07 0 0 1 3.08 3.062 3.07 3.07 0 0 1-3.08 3.06 3.07 3.07 0 0 1-3.079-3.06zM31 368.092a3.07 3.07 0 0 1 3.079-3.062 3.07 3.07 0 0 1 3.08 3.062 3.07 3.07 0 0 1-3.08 3.06 3.07 3.07 0 0 1-3.079-3.06z"/><path fill="#FFF" fill-rule="nonzero" d="M41.53 421.717a2.528 2.528 0 0 1-2.53-2.523v-60.883a2.528 2.528 0 0 1 2.53-2.523h50.94c1.396 0 2.53 1.13 2.53 2.523v60.883a2.528 2.528 0 0 1-2.53 2.523H41.53z"/><path fill="#EA5A7D" fill-rule="nonzero" d="M54.208 377.353l2.653-2.655a2.055 2.055 0 0 0 0-2.904 2.049 2.049 0 0 0-2.901 0l-2.652 2.655-2.653-2.655a2.049 2.049 0 0 0-2.9 0 2.055 2.055 0 0 0 0 2.904l2.652 2.655-2.652 2.656a2.055 2.055 0 0 0 0 2.904c.801.803 2.099.803 2.9 0l2.653-2.655 2.652 2.655c.801.803 2.1.803 2.9 0a2.055 2.055 0 0 0 0-2.904l-2.652-2.656z"/><g fill-rule="nonzero"><path fill="#EA5A7D" d="M86.36 378.963a2.09 2.09 0 0 1-2.991 0l-.641-.589v7.52c0 3.485-2.862 6.3-6.408 6.3H58.947c-1.197 0-2.136.924-2.136 2.1v8.68c0 .696-.329 1.303-.844 1.683a2.165 2.165 0 0 1-1.292.418c-1.197 0-2.137-.924-2.137-2.1v-8.68c0-3.487 2.863-6.302 6.409-6.302H76.32c1.196 0 2.136-.924 2.136-2.1v-7.519l-.641.589a2.09 2.09 0 0 1-2.99 0 2.007 2.007 0 0 1 0-2.94l4.272-4.201a2.09 2.09 0 0 1 2.99 0l4.272 4.2a2.007 2.007 0 0 1 0 2.94z" opacity=".8"/><path fill="#F6B72C" d="M77.581 346.075h-3.046c-1.032-2.944-4.095-5.075-7.45-5.075-3.355 0-6.418 2.131-7.45 5.075h-3.046c-4.285 0-7.743 3.4-7.743 7.613 0 4.213 3.458 7.613 7.743 7.613h20.992c4.285 0 7.743-3.4 7.743-7.613 0-4.212-3.458-7.613-7.743-7.613z"/></g><path fill="#EA5A7D" fill-rule="nonzero" d="M84.978 407.545l2.652-2.655a2.055 2.055 0 0 0 0-2.904 2.049 2.049 0 0 0-2.9 0l-2.653 2.655-2.652-2.655a2.049 2.049 0 0 0-2.901 0 2.055 2.055 0 0 0 0 2.904l2.652 2.655-2.652 2.656a2.055 2.055 0 0 0 0 2.904c.801.803 2.1.803 2.9 0l2.653-2.655 2.652 2.655c.802.803 2.1.803 2.9 0a2.055 2.055 0 0 0 0-2.904l-2.651-2.656z"/><path fill="#F8E494" fill-rule="nonzero" d="M86.032 353.884c0 4.278-3.402 7.731-7.616 7.731H68.092V341c3.3 0 6.313 2.164 7.328 5.154h2.996c4.214 0 7.616 3.453 7.616 7.73z"/><path fill="#EA5A7D" fill-rule="nonzero" d="M54.385 413.707c-3.054 0-5.539-2.487-5.539-5.545s2.485-5.546 5.539-5.546 5.538 2.488 5.538 5.546c0 3.058-2.484 5.545-5.538 5.545z"/><g transform="translate(115 331)"><rect width="296" height="161" fill="#FFF" rx="80.5"/><text fill="#121212" font-family="National-Book, National" font-size="16" font-weight="300" transform="translate(50 24)"><tspan x="0" y="69">Choose amongst our </tspan> <tspan x="0" y="89">unlimited assessments on </tspan> <tspan x="0" y="109">any part of the syllabus</tspan></text><g transform="translate(50 24)"><ellipse cx="20" cy="20.584" fill="#EA5A7D" rx="19.648" ry="20.242"/><path fill="#FFF" d="M20.381 8.77a6 6 0 0 0-.275-.011c-.12.003-.193.005-.286.012-4.503.312-7.898 4.083-7.898 8.656 0 5.575 4.807 7.551 4.807 9.732v.01h6.941v-.01c0-2.18 4.709-4.152 4.709-9.727 0-4.573-3.494-8.349-7.998-8.661"/><path fill="#FFE3EA" d="M22.698 9.263c2.132 1.751 3.412 4.308 3.412 7.146 0 6.13-5.805 8.292-5.805 10.69v.07h3.365v-.01c0-2.18 4.709-4.152 4.709-9.727 0-3.749-2.372-6.961-5.681-8.169"/><path fill="#C80" d="M24.782 16.828a4.608 4.608 0 0 0-2.65-3.207.666.666 0 0 0-.143-.042 4.4 4.4 0 0 0-2.443-.23 4.453 4.453 0 0 0-2.357 1.274l-.006.007a4.67 4.67 0 0 0-1.31 3.242l-.002.018.001.046a4.538 4.538 0 0 0 .017.35l.005.075a4.496 4.496 0 0 0 .05.357c.039.216.092.427.159.632l.004.012c.6 1.831 2.29 3.154 4.274 3.154a.69.69 0 0 0 .681-.7.69.69 0 0 0-.68-.698c-1.3 0-2.42-.812-2.899-1.968l-.002-.007a3.336 3.336 0 0 1-.198-.686l-.003-.02a3.43 3.43 0 0 1-.031-.225v-.009a3.559 3.559 0 0 1-.013-.194l-.001-.073a3.261 3.261 0 0 1 .919-2.325l.002-.003a3.08 3.08 0 0 1 3.444-.687c.03.013.06.02.09.028.862.402 1.508 1.317 1.747 2.255.012.045-.002.258-.115.258h-4.034c-.376 0-.68.369-.68.755s.304.755.68.755H23.424c.43 0 .829-.392 1.095-.739.265-.345.36-.977.263-1.405"/><g transform="translate(15.783 13.242)"><mask id="j" fill="#fff"><use xlink:href="#i"/></mask><use fill="#EA5A7D" xlink:href="#i"/><path fill="#EF990F" d="M20.379 1.677L-.071 22.65-3.73 19.12 16.72-1.855z" mask="url(#j)"/></g><g><path fill="#FFF" d="M23.72 30.464h-7.083c-.68 0-1.232-.566-1.232-1.264 0-.698.551-1.263 1.232-1.263h7.083c.68 0 1.232.565 1.232 1.263s-.551 1.264-1.232 1.264M22.94 33.586h-5.523c-.645 0-1.168-.536-1.168-1.198 0-.662.523-1.198 1.168-1.198h5.523c.645 0 1.168.536 1.168 1.198 0 .662-.523 1.198-1.168 1.198M18.297 34.26c-.088 0-.141.091-.092.16.426.586 1.15.983 1.973.983.823 0 1.548-.397 1.974-.984.05-.068-.004-.16-.091-.16h-3.764z"/><path fill="#EA5A7D" d="M14.687 16.43c-.846-.617-.833-2.126.03-3.37.862-1.243 2.247-1.75 3.093-1.134.847.618.834 2.126-.029 3.37-.862 1.244-2.247 1.752-3.094 1.134" opacity=".1"/><path stroke="#FFF" stroke-linecap="round" stroke-linejoin="round" stroke-width=".755" d="M19.49 6.891V5.597M27.094 9.81l1.023-1.049M27.545 24.447l1.023 1.05M30.401 16.64h1.472M12.796 9.81l-1.024-1.049M12.344 24.447l-1.023 1.05M9.578 16.64H8.105"/></g></g></g></g><g stroke="#F48BA4"><g stroke-width="1.6"><path d="M189 228.627c1.582-.4 3.233-.61 4.931-.61 9.76 0 17.965 6.98 20.341 16.444a13.079 13.079 0 0 1 5.037-1.017c7.561 0 13.691 6.436 13.691 14.377 0 7.94-6.13 14.376-13.691 14.376h-11.214"/><path fill="#FFF5F7" d="M189 228.017a4.009 4.009 0 0 1 4-4.017c2.21 0 4 1.799 4 4.017a4.008 4.008 0 0 1-4 4.016c-2.21 0-4-1.798-4-4.016z"/><path d="M176.2 238.459c1.938-3.42 4.708-6.212 8-8.033M161.8 250.508a11.07 11.07 0 0 1 6.986-2.478c1.607 0 3.131.348 4.514.968.095-2.287.547-4.48 1.3-6.523M193.8 272.197h-25.451c-6.268 0-11.349-5.394-11.349-12.05"/><path fill="#FFF5F7" d="M153 260.148a4.009 4.009 0 0 1 4-4.017c2.21 0 4 1.799 4 4.017a4.008 4.008 0 0 1-4 4.016c-2.21 0-4-1.797-4-4.016z"/><path d="M204.2 272.197h-6.4"/></g><g transform="rotate(58 -86.658 246.506)"><circle cx="4" cy="21" r="4" fill="#FFF5F7" stroke-width="1.6"/><path stroke-dasharray="1,8" stroke-linecap="round" stroke-width="2" d="M10.865 17.771L39.802 1.656"/></g><g transform="rotate(-3 5136.07 -1039.849)"><circle cx="4.756" cy="63.689" r="4" fill="#FFF5F7" stroke-width="1.6"/><path stroke-dasharray="1,8" stroke-linecap="round" stroke-width="2" d="M11.609 56.309L87.596 1.21"/></g></g><g transform="translate(-141 48)"><rect width="457" height="144" fill="#FFF" rx="72"/><text fill="#121212" font-family="National-Book, National" font-size="16" font-weight="300" transform="translate(165 24)"><tspan x="0" y="72">I wish I had done more to get into IIT </tspan> <tspan x="0" y="92">Bombay.</tspan></text><g transform="translate(165 24.077)"><mask id="m" fill="#fff"><use xlink:href="#k"/></mask><path fill="url(#l)" d="M38.898 19.714c0 10.831-8.708 19.612-19.45 19.612C8.709 39.326 0 30.546 0 19.714 0 8.884 8.708.103 19.449.103c10.741 0 19.449 8.78 19.449 19.611" mask="url(#m)"/></g><path stroke="#403408" stroke-linecap="round" stroke-linejoin="round" stroke-width="2.487" d="M178.745 39.323l-4.632 2.647"/><path stroke="#403408" stroke-linecap="round" stroke-linejoin="round" stroke-width="2.458" d="M194.821 41.97l-4.561-2.67"/><path stroke="#403408" stroke-linecap="round" stroke-width="1.998" d="M177.48 51.723s1.472-5.2 7-5.2c5.528 0 6.939 5.16 6.939 5.16"/><g><path fill="#777" d="M218.972 48.402l3.854 1.557.792-1.96-3.855-1.557z"/><path fill="#AAA" d="M218.887 46.088l5.432 2.195.864-2.139-5.432-2.194z"/><path fill="#ED6060" d="M208.405 53.874c2.027-5.018 7.672-7.47 12.607-5.477 4.935 1.994 7.291 7.679 5.264 12.697-2.028 5.02-7.672 7.471-12.607 5.477-4.935-1.993-7.292-7.678-5.264-12.697"/><path fill="#E23B3B" d="M208.386 61.488c2.118 5.108 7.782 7.308 12.75 5.15 4.967-2.158 7.356-7.856 5.238-12.965l-17.988 7.815z"/><path fill="#FFF" d="M210.543 54.635c1.57-3.887 5.942-5.787 9.764-4.242 3.822 1.544 5.648 5.947 4.077 9.834-1.57 3.887-5.942 5.786-9.764 4.242-3.822-1.545-5.647-5.947-4.077-9.834"/><path stroke="#777" stroke-linecap="round" stroke-linejoin="round" stroke-width=".562" d="M222.212 55.515l.742-.322M219.58 62.534l.31.747M215.38 52.754l-.31-.747M212.396 59.632l-.741.322"/><path stroke="#777" stroke-linecap="round" stroke-linejoin="round" stroke-width=".764" d="M218.389 54.385l-1.368 3.385 3.329 1.345"/><path fill="#FFF" d="M211.51 58.64c-.23-.304-.293-.78-.308-1.075a.111.111 0 0 0-.19-.077c-.217.202-.592.501-.968.56a.127.127 0 0 0-.08.199c.23.304.292.779.307 1.075.005.1.117.145.19.076.217-.202.592-.5.968-.559a.126.126 0 0 0 .08-.2"/></g></g></g></svg>