<svg xmlns="http://www.w3.org/2000/svg" xmlns:xlink="http://www.w3.org/1999/xlink" width="360" height="1325" viewBox="0 0 360 1325"><style>@font-face{font-family:&apos;National-Book&apos;;src:url(https://assets.embibe.com/staging/font/National/NationalWeb-Book.ttf) format(&apos;truetype&apos;)}@font-face{font-family:&apos;National-Regular&apos;;src:url(https://assets.embibe.com/staging/font/National/NationalWeb-Regular.ttf) format(&apos;truetype&apos;)}@font-face{font-family:&apos;Roboto-Light&apos;;src:url(https://assets.embibe.com/staging/font/Roboto/Roboto-Light.ttf) format(&apos;truetype&apos;)}@font-face{font-family:&apos;Roboto-Regular&apos;;src:url(https://assets.embibe.com/staging/font/Roboto/Roboto-Regular.ttf) format(&apos;truetype&apos;)}</style><defs><linearGradient id="b" x1="100%" x2="30.94%" y1="-14.062%" y2="47.607%"><stop offset="0%" stop-color="#FFF1E2"/><stop offset="100%" stop-color="#FFF4F9"/></linearGradient><path id="a" d="M0 0h360v1325H0z"/><linearGradient id="c" x1="77.39%" x2="-28.947%" y1="-19.442%" y2="140.996%"><stop offset="0%" stop-color="#FFF0E4"/><stop offset="100%" stop-color="#FFEBF4"/></linearGradient><path id="e" d="M3.764.106c-.896.17-1.71.609-2.357 1.268L1.4 1.38A4.636 4.636 0 0 0 .09 4.608l-.003.018.001.045a5.222 5.222 0 0 0 .017.348l.006.075c.01.1.024.2.04.297l.01.058c.038.216.091.426.158.63l.004.012C.925 7.913 2.614 9.23 4.6 9.23a.688.688 0 0 0 .68-.696.688.688 0 0 0-.68-.695c-1.3 0-2.419-.809-2.898-1.96l-.003-.006A3.312 3.312 0 0 1 1.5 5.19c0-.007-.002-.013-.003-.02a3.385 3.385 0 0 1-.03-.224l-.001-.008a3.33 3.33 0 0 1-.012-.194l-.002-.073a3.237 3.237 0 0 1 .919-2.314l.002-.003a3.09 3.09 0 0 1 3.444-.683c.03.012.06.02.09.028.863.4 1.508 1.31 1.748 2.244.011.045-.003.257-.115.257H3.506c-.376 0-.681.367-.681.751s.305.752.68.752h4.137c.43 0 .828-.39 1.094-.735.266-.344.362-.974.264-1.4A4.592 4.592 0 0 0 6.35.379a.683.683 0 0 0-.143-.043A4.438 4.438 0 0 0 3.764.106z"/><rect id="h" width="122.4" height="132" x="62.4" y="16.2" rx="8.4"/><filter id="g" width="118%" height="116.7%" x="-9%" y="-7.6%" filterUnits="objectBoundingBox"><feOffset dy="1" in="SourceAlpha" result="shadowOffsetOuter1"/><feGaussianBlur in="shadowOffsetOuter1" result="shadowBlurOuter1" stdDeviation="3.5"/><feColorMatrix in="shadowBlurOuter1" values="0 0 0 0 0.654901961 0 0 0 0 0.654901961 0 0 0 0 0.654901961 0 0 0 0.199699955 0"/></filter><rect id="j" width="96.6" height="125.4" x="189" rx="8.4"/><filter id="i" width="122.8%" height="117.5%" x="-11.4%" y="-8%" filterUnits="objectBoundingBox"><feOffset dy="1" in="SourceAlpha" result="shadowOffsetOuter1"/><feGaussianBlur in="shadowOffsetOuter1" result="shadowBlurOuter1" stdDeviation="3.5"/><feColorMatrix in="shadowBlurOuter1" values="0 0 0 0 0.654901961 0 0 0 0 0.654901961 0 0 0 0 0.654901961 0 0 0 0.27137115 0"/></filter><rect id="l" width="109.8" height="119.4" rx="8.4"/><filter id="k" height="118.4%" y="-8.4%" filterUnits="objectBoundingBox"><feOffset dy="1" in="SourceAlpha" result="shadowOffsetOuter1"/><feGaussianBlur in="shadowOffsetOuter1" result="shadowBlurOuter1" stdDeviation="3.5"/><feColorMatrix in="shadowBlurOuter1" values="0 0 0 0 0.654901961 0 0 0 0 0.654901961 0 0 0 0 0.654901961 0 0 0 0.199699955 0"/></filter><path id="m" d="M3.764.107A4.451 4.451 0 0 0 1.407 1.38l-.006.008A4.67 4.67 0 0 0 .09 4.63c-.001.006-.003.011-.003.017l.001.046a5.271 5.271 0 0 0 .017.35l.006.075c.01.101.024.2.04.299l.01.058c.038.217.091.428.158.633l.004.012C.925 7.95 2.614 9.273 4.6 9.273a.69.69 0 0 0 .68-.699.69.69 0 0 0-.68-.698c-1.3 0-2.419-.813-2.898-1.969L1.698 5.9a3.34 3.34 0 0 1-.198-.686l-.003-.02a3.416 3.416 0 0 1-.03-.225l-.001-.008a3.36 3.36 0 0 1-.012-.195l-.002-.073a3.26 3.26 0 0 1 .919-2.325l.002-.003a3.08 3.08 0 0 1 3.444-.686c.03.012.06.02.09.028.863.401 1.508 1.317 1.748 2.255.011.044-.003.257-.115.257H3.506c-.376 0-.681.37-.681.755 0 .386.305.755.68.755h4.137c.43 0 .828-.392 1.094-.738.266-.345.362-.978.264-1.405A4.608 4.608 0 0 0 6.35.379a.68.68 0 0 0-.143-.042 4.42 4.42 0 0 0-2.443-.23z"/><linearGradient id="o" x1="50%" x2="50%" y1="-10.088%" y2="50%"><stop offset="0%" stop-color="#2FA7BF"/><stop offset="32.452%" stop-color="#93BC72"/><stop offset="100%" stop-color="#FFD21F"/></linearGradient><path id="p" d="M0 18.995h16.043V0H0z"/></defs><g fill="none" fill-rule="evenodd"><g><mask id="d" fill="#fff"><use xlink:href="#a"/></mask><use fill="url(#b)" xlink:href="#a"/><path fill="url(#c)" d="M102.27 885.015L399 780l-49.267 334.326L84 1150z" mask="url(#d)" transform="scale(-1 1) rotate(8 0 -2488.61)"/><g mask="url(#d)" opacity=".439"><g transform="translate(-20 -178)"><path stroke="#F7DCE3" stroke-width="2" d="M12 625.545h245V261.793c-.67-27.483-8.702-41.225-24.098-41.225H12v404.977z"/><path stroke="#F7DCE3" stroke-width="2" d="M12 767.769h95.524c16.759-2.428 25.138-12.951 25.138-31.568V469.088c-2.011-21.046 5.028-31.568 21.116-31.568S547.94 441.972 1288 450.875"/><path stroke="#F7DCE3" stroke-width="2" d="M9 1064.232h291.9c21.4.806 32.1-11.28 32.1-36.255 0-24.976-1.337-159.12-4.012-402.432"/><path stroke="#F7DCE3" stroke-width="2" d="M258.118 626.75v266.971c-1.337 25.88 8.691 38.82 30.085 38.82h248.708C558.304 934.159 569 947.507 569 972.585c0 25.078-2.006 208.31-6.017 549.695v208.515"/><path stroke="#F7DCE3" stroke-width="2" d="M359.5 1731.397l3.5-201.886v-396.398c3.347-25.812 20.751-37.101 52.213-33.87 31.462 3.233 201.488 3.233 510.08 0 28.784-1.615 44.85 6.869 48.197 25.453 3.347 18.584 3.347 106.658 0 264.22-1.339 19.393-13.053 29.09-35.144 29.09H774.68c-22.09-2.425-33.135-13.737-33.135-33.937 0-20.2 2.343-333.306 7.028-939.317M1285 113.902H371.301c-27.474-3.226-41.212 6.453-41.212 29.039v100.425c-1.34 17.746 12.397 26.619 41.212 26.619 28.815 0 152.116-2.017 369.903-6.05"/><path stroke="#F7DCE3" stroke-width="2" d="M202 1732v-520.033c1.34-20.199 11.05-30.298 29.134-30.298h170.783c12.055 2.424 18.083-10.907 18.083-39.995 0-29.087-.67-263.805-2.01-704.154M255 626.75h163M12 881.066h41c14.667 4.04 22 13.733 22 29.08v392.586c-1.333 23.426-8.667 35.139-22 35.139H0l12-456.805z"/><ellipse cx="133" cy="625.545" fill="#FFD5DF" rx="11" ry="13.258"/><ellipse cx="75" cy="1064.27" fill="#FFD5DF" rx="11" ry="13.258"/></g></g></g><g transform="translate(-32 868)"><rect width="372" height="221" fill="#FFF" rx="100"/><g transform="translate(56 24)"><ellipse cx="20" cy="20.487" fill="#EA5A7D" rx="19.648" ry="20.147"/><path fill="#FFF" d="M20.381 8.73a6.028 6.028 0 0 0-.275-.012c-.12.003-.193.005-.286.012-4.503.31-7.898 4.063-7.898 8.615 0 5.55 4.807 7.516 4.807 9.687v.01h6.941v-.01c0-2.171 4.709-4.133 4.709-9.682 0-4.551-3.494-8.31-7.998-8.62"/><path fill="#FFE3EA" d="M22.698 9.22c2.132 1.742 3.412 4.287 3.412 7.112 0 6.102-5.805 8.253-5.805 10.64v.07h3.365v-.01c0-2.171 4.709-4.133 4.709-9.682a8.66 8.66 0 0 0-5.681-8.13"/><path fill="#C80" d="M24.782 16.75a4.591 4.591 0 0 0-2.65-3.192.669.669 0 0 0-.143-.043 4.42 4.42 0 0 0-2.443-.228c-.895.17-1.71.608-2.357 1.267l-.006.008a4.636 4.636 0 0 0-1.31 3.226l-.002.018.001.045a4.496 4.496 0 0 0 .017.349l.005.075a4.455 4.455 0 0 0 .05.355c.039.215.092.425.159.63l.004.011c.6 1.822 2.29 3.139 4.274 3.139a.688.688 0 0 0 .681-.696.688.688 0 0 0-.68-.695c-1.3 0-2.42-.809-2.899-1.96l-.002-.006a3.308 3.308 0 0 1-.198-.683l-.003-.02a3.398 3.398 0 0 1-.031-.224v-.008a3.526 3.526 0 0 1-.013-.194l-.001-.073a3.238 3.238 0 0 1 .919-2.313l.002-.004a3.091 3.091 0 0 1 3.444-.683c.03.013.06.02.09.028.862.4 1.508 1.311 1.747 2.244.012.045-.002.257-.115.257h-4.034c-.376 0-.68.367-.68.751s.304.752.68.752H23.424c.43 0 .829-.39 1.095-.735.265-.344.36-.973.263-1.399"/><g transform="translate(15.783 13.18)"><mask id="f" fill="#fff"><use xlink:href="#e"/></mask><use fill="#EA5A7D" xlink:href="#e"/><path fill="#EF990F" d="M20.379 1.669L-.071 22.545l-3.658-3.516L16.72-1.847z" mask="url(#f)"/></g><g><path fill="#FFF" d="M23.72 30.321h-7.083c-.68 0-1.232-.563-1.232-1.258 0-.694.551-1.258 1.232-1.258h7.083c.68 0 1.232.564 1.232 1.258 0 .695-.551 1.258-1.232 1.258M22.94 33.429h-5.523a1.18 1.18 0 0 1-1.168-1.193 1.18 1.18 0 0 1 1.168-1.192h5.523a1.18 1.18 0 0 1 1.168 1.192 1.18 1.18 0 0 1-1.168 1.193M18.297 34.099c-.088 0-.141.091-.092.159.426.584 1.15.979 1.973.979.823 0 1.548-.395 1.974-.98.05-.067-.004-.158-.091-.158h-3.764z"/><path fill="#EA5A7D" d="M14.687 16.353c-.846-.614-.833-2.116.03-3.354.862-1.238 2.247-1.743 3.093-1.129.847.615.834 2.116-.029 3.354-.862 1.238-2.247 1.744-3.094 1.13" opacity=".1"/><path stroke="#FFF" stroke-linecap="round" stroke-linejoin="round" stroke-width=".755" d="M19.49 6.859V5.57M27.094 9.764l1.023-1.044M27.545 24.332l1.023 1.045M30.401 16.562h1.472M12.796 9.764L11.772 8.72M12.344 24.332l-1.023 1.045M9.578 16.562H8.105"/></g></g><text fill="#121212" font-family="National-Book, National" font-size="16" font-weight="300" transform="translate(56 24)"><tspan x="0" y="68.751">If you do your revision really really well, you </tspan> <tspan x="0" y="88.751">can definitely improve, and that depends </tspan> <tspan x="0" y="108.751">largely on how diligently you follow </tspan> <tspan x="0" y="128.751">RANKUP’s improvement plan. If you do, your </tspan> <tspan x="0" y="148.751">effort rating can go up to 100% and a 100% </tspan> <tspan x="0" y="168.751">effort rating means guaranteed success!</tspan></text></g><g transform="translate(-32 1116)"><rect width="372" height="169" fill="#FFF" rx="84.5"/><text fill="#121212" font-family="National-Book, National" font-size="16" font-weight="300" transform="translate(56 24)"><tspan x="0" y="16.751">How do we measure it? </tspan> <tspan x="0" y="36.751">The time you spend on questions - whether </tspan> <tspan x="0" y="56.751">you rush through them, when you get them </tspan> <tspan x="0" y="76.751">wrong, if you look at the solutions - we look </tspan> <tspan x="0" y="96.751">at all of that and we compute how hard you </tspan> <tspan x="0" y="116.751">tried.</tspan></text></g><g transform="translate(128 717)"><path fill="#FFAEC2" fill-rule="nonzero" d="M205.546 0H33.854C29.182 0 25.2 3.805 25.2 8.517V120.6h189V8.517c0-4.713-3.968-8.517-8.654-8.517z"/><circle cx="120.3" cy="6.3" r="1.5" stroke="#8492A5" stroke-width="1.039" opacity=".2"/><path fill="#F68DA6" fill-rule="nonzero" d="M221.926 130.733H17.762C7.148 130.733 0 127.296 0 125.835v-4.442c0-.439.462-.793 1.037-.793h237.614c.575 0 1.038.354 1.038.793v4.617c-.002 1.155-5.538 4.723-17.763 4.723z"/><path stroke="#A12C49" stroke-linecap="square" stroke-width=".519" d="M.173 125.44h238.872" opacity=".2"/><path fill="#F6F6F6" fill-rule="nonzero" d="M33 13.2h174v100.2H33z"/></g><path fill="#BEC4C1" d="M183.92 758.118c-7.03-1.945-16.882-3.155-27.801-3.155-10.92 0-20.773 1.21-27.802 3.155h-10.844v7.163c0 5.698 17.301 10.319 38.646 10.319 21.343 0 38.646-4.62 38.646-10.32v-7.162h-10.844"/><path fill="#E5E5E5" d="M183.92 758.118c-7.03-1.945-16.882-3.155-27.801-3.155-10.92 0-20.773 1.21-27.802 3.155h-10.844v7.163c0 5.698 17.301 10.319 38.646 10.319 21.343 0 38.646-4.62 38.646-10.32v-7.162h-10.844z"/><path fill="#EEEEEA" d="M117.473 756.898c0-5.698 17.301-10.319 38.646-10.319 21.343 0 38.646 4.62 38.646 10.32 0 5.698-17.303 10.317-38.646 10.317-21.345 0-38.646-4.62-38.646-10.318"/><path fill="#EEEDED" d="M117.473 756.898c0-5.698 17.301-10.319 38.646-10.319 21.343 0 38.646 4.62 38.646 10.32 0 5.698-17.303 10.317-38.646 10.317-21.345 0-38.646-4.62-38.646-10.318z"/><path fill="#F2F2F2" d="M135.66 756.898h39.62v-16.123h-39.62z"/><path fill="#F68DA6" d="M29.788 711.123c0 16.376 12.919 29.652 28.854 29.652h193.655c15.935 0 28.853-13.276 28.853-29.652v-.659H29.788v.659z"/><path fill="#FFAEC2" d="M252.297 560.2H58.642c-15.935 0-28.854 13.137-28.854 29.342v120.922H281.15V589.542c0-16.205-12.918-29.342-28.853-29.342z"/><path fill="#90CCB9" d="M43.428 711.109V589.835c0-8.873 7.083-16.092 15.79-16.092H253.02c8.707 0 15.79 7.22 15.79 16.092v121.274H43.428"/><path d="M43.428 711.109V589.835c0-8.873 7.083-16.092 15.79-16.092H253.02c8.707 0 15.79 7.22 15.79 16.092v121.274H43.428z"/><path fill="#90CCB9" d="M43.428 711.109V589.835c0-8.873 7.083-16.092 15.79-16.092H253.02c8.707 0 15.79 7.22 15.79 16.092v121.274H43.428"/><path fill="#FFF9FA" d="M43.428 711.109V589.835c0-8.873 7.083-16.092 15.79-16.092H253.02c8.707 0 15.79 7.22 15.79 16.092v121.274H43.428z"/><path fill="#E25476" d="M152.547 724.55c0-2.793 2.208-5.057 4.933-5.057 2.724 0 4.932 2.264 4.932 5.057 0 2.794-2.208 5.058-4.932 5.058-2.725 0-4.933-2.264-4.933-5.058z"/><g><path fill="#90CCB9" d="M43.428 711.109V589.835c0-8.873 7.083-16.092 15.79-16.092H253.02c8.707 0 15.79 7.22 15.79 16.092v121.274H43.428"/><path d="M43.428 711.109V589.835c0-8.873 7.083-16.092 15.79-16.092H253.02c8.707 0 15.79 7.22 15.79 16.092v121.274H43.428z"/><path fill="#90CCB9" d="M43.428 711.109V589.835c0-8.873 7.083-16.092 15.79-16.092H253.02c8.707 0 15.79 7.22 15.79 16.092v121.274H43.428"/><path fill="#F6F6F6" d="M43.428 711.109V589.835c0-8.873 7.083-16.092 15.79-16.092H253.02c8.707 0 15.79 7.22 15.79 16.092v121.274H43.428z"/></g><g transform="translate(-14 553)"><use fill="#000" filter="url(#g)" xlink:href="#h"/><use fill="#FFF" xlink:href="#h"/></g><g transform="translate(59.2 580)"><text fill="#6C6C6C" font-family="Roboto-Light, Roboto" font-size="6" font-weight="300"><tspan x="2.4" y="33.6">As the temperature is raised from </tspan> <tspan x="2.4" y="42.6">20 C to 40 C, the average kinetic </tspan> <tspan x="2.4" y="51.6">energy of neon atoms changes by a </tspan> <tspan x="2.4" y="60.6">factor of which of the following?</tspan></text><text fill="#F6B72C" font-family="Roboto-Regular, Roboto" font-size="6"><tspan x="2.4" y="6">Try doing this without a hint for </tspan> <tspan x="2.4" y="14.4">some more time</tspan></text><text fill="#6C6C6C" font-family="Roboto-Light, Roboto" font-size="6" font-weight="300"><tspan x="15.6" y="84">313/293</tspan></text><text fill="#6C6C6C" font-family="Roboto-Light, Roboto" font-size="3.6" font-weight="300"><tspan x="1.8" y="81.6">A</tspan></text><text fill="#6C6C6C" font-family="Roboto-Light, Roboto" font-size="6" font-weight="300"><tspan x="11.743" y="103.462">1/2</tspan></text><text fill="#6C6C6C" font-family="Roboto-Light, Roboto" font-size="6" font-weight="300"><tspan x="66" y="84.6">313/293</tspan></text><text fill="#6C6C6C" font-family="Roboto-Light, Roboto" font-size="6" font-weight="300"><tspan x="66" y="103.8">2</tspan></text><path stroke="#979797" stroke-width=".5" d="M11.395 81.713l2.084 3.155 2.099-7.613H36.66"/><text fill="#6C6C6C" font-family="Roboto-Light, Roboto" font-size="3.6" font-weight="300"><tspan x="2.4" y="100.8">B</tspan></text><circle cx="3.3" cy="101.1" r="3.3" stroke="#979797" stroke-width=".5"/><circle cx="3.3" cy="81.9" r="3.3" stroke="#979797" stroke-width=".5"/><text fill="#6C6C6C" font-family="Roboto-Light, Roboto" font-size="3.6" font-weight="300"><tspan x="57" y="82.2">C</tspan></text><circle cx="57.9" cy="82.5" r="3.3" stroke="#979797" stroke-width=".5"/><text fill="#6C6C6C" font-family="Roboto-Light, Roboto" font-size="3.6" font-weight="300"><tspan x="57" y="101.4">D</tspan></text><circle cx="57.9" cy="101.7" r="3.3" stroke="#979797" stroke-width=".5"/></g><g transform="translate(-14 553)"><use fill="#000" filter="url(#i)" xlink:href="#j"/><use fill="#FFF" xlink:href="#j"/></g><g><path fill="#71716E" d="M194.09 645.776h3.758v-1.85h-3.758z"/><path fill="#A3A4A0" d="M193.298 643.925h5.342V641.8h-5.342z"/><path fill="#87D37C" d="M187 653.785c0-4.868 4.006-8.813 8.947-8.813 4.941 0 8.947 3.945 8.947 8.813 0 4.866-4.006 8.811-8.947 8.811-4.941 0-8.947-3.945-8.947-8.811"/><path fill="#F6B72C" d="M189.621 660.026c3.568 3.515 9.159 3.441 12.652 0 3.495-3.44 3.568-8.947 0-12.462l-12.652 12.462"/><path fill="#FFFFFE" d="M189.073 653.785c0-3.74 3.077-6.772 6.874-6.772 3.796 0 6.874 3.032 6.874 6.772 0 3.739-3.078 6.77-6.874 6.77-3.797 0-6.874-3.031-6.874-6.77"/><path fill="#71716E" d="M196.186 649.201v-.688a.26.26 0 0 0-.262-.259.26.26 0 0 0-.262.259v.688a.26.26 0 0 0 .262.258.26.26 0 0 0 .262-.258M196.186 659.357v-.517a.26.26 0 0 0-.262-.258.26.26 0 0 0-.262.258v.517a.26.26 0 0 0 .262.258.26.26 0 0 0 .262-.258M199.525 650.73l.484-.477c.1-.1.1-.26 0-.358-.1-.1-.263-.1-.363 0l-.485.477a.25.25 0 0 0 0 .358c.1.098.263.098.364 0M199.375 657.39l.485.476c.1.1.263.1.363 0a.25.25 0 0 0 0-.358l-.484-.477c-.1-.1-.264-.1-.364 0a.25.25 0 0 0 0 .358M200.905 654.193h.524a.26.26 0 0 0 .262-.258.26.26 0 0 0-.262-.258h-.524a.26.26 0 0 0-.263.258.26.26 0 0 0 .263.258M192.75 650.372l-.484-.477c-.1-.1-.263-.1-.364 0a.25.25 0 0 0 0 .358l.485.477c.1.098.263.098.364 0 .1-.1.1-.26 0-.358M192.173 657.031l-.485.477c-.1.1-.1.26 0 .358.1.1.264.1.364 0l.485-.477a.25.25 0 0 0 0-.358c-.1-.1-.263-.1-.364 0M191.118 653.677h-.699a.26.26 0 0 0-.262.258.26.26 0 0 0 .262.258h.7a.26.26 0 0 0 .261-.258.26.26 0 0 0-.262-.258M195.487 650.922v3.27a.347.347 0 0 0 .35.345h3.32c.193 0 .35-.153.35-.344a.347.347 0 0 0-.35-.344h-2.97v-2.927a.347.347 0 0 0-.35-.344.347.347 0 0 0-.35.344"/><path fill="#FFFFFE" d="M191.378 656.658c-.305-.169-.526-.529-.643-.761a.107.107 0 0 0-.192 0c-.118.232-.338.592-.644.76a.105.105 0 0 0 0 .187c.306.168.526.53.644.762.04.078.152.078.192 0 .117-.232.338-.594.643-.762a.105.105 0 0 0 0-.186"/></g><g fill-rule="nonzero" transform="translate(203.8 568.6)"><path fill="#FFEFF3" d="M36 15.6A20.791 20.791 0 0 0 18 5.262 20.791 20.791 0 0 0 0 15.6a20.791 20.791 0 0 0 18 10.338A20.791 20.791 0 0 0 36 15.6z"/><ellipse cx="18" cy="15.6" fill="#FFC4D3" rx="10.286" ry="10.233"/><ellipse cx="18" cy="15.6" fill="#FF7496" rx="5.538" ry="5.51"/><g fill="#EA5A7D"><path d="M5.34 7.138a.592.592 0 0 1-.593-.59V3.004c0-.326.266-.59.594-.59H8.9c.328 0 .594.264.594.59 0 .326-.266.59-.594.59H5.934v2.952c0 .326-.266.59-.593.59zM30.66 7.138a.592.592 0 0 1-.594-.59V3.594h-2.967a.592.592 0 0 1-.594-.59c0-.326.266-.59.594-.59h3.56c.328 0 .594.264.594.59v3.542c0 .326-.266.59-.594.59zM8.901 28.785h-3.56a.592.592 0 0 1-.594-.59v-3.542c0-.326.266-.59.594-.59.327 0 .593.264.593.59v2.952h2.967c.328 0 .594.264.594.59 0 .326-.266.59-.594.59zM30.66 28.785h-3.561a.592.592 0 0 1-.594-.59c0-.326.266-.59.594-.59h2.967v-2.952c0-.327.266-.59.593-.59.328 0 .594.263.594.59v3.542c0 .326-.266.59-.594.59z"/></g><path fill="#D84A6D" d="M33.033 15.01h-14.44V.643A.592.592 0 0 0 18 .053a.592.592 0 0 0-.593.59V15.01H2.967a.592.592 0 0 0-.593.59c0 .326.265.59.593.59h14.44v14.367c0 .326.265.59.593.59a.592.592 0 0 0 .593-.59V16.19h14.44a.592.592 0 0 0 .593-.59.592.592 0 0 0-.593-.59z"/></g><g><text fill="#2F2F2F" font-family="Roboto-Regular, Roboto" font-size="7.863" transform="translate(192.4 608.8)"><tspan x="20.398" y="53.616">00.07</tspan></text><text fill="#6C6C6C" font-family="Roboto-Light, Roboto" font-size="5.616" font-weight="300" transform="translate(192.4 608.8)"><tspan x="19.8" y="34.4">Time spent on this </tspan> <tspan x="19.8" y="40.4">question</tspan></text><text fill="#6C6C6C" font-family="Roboto-Regular, Roboto" font-size="6.739" transform="translate(192.4 608.8)"><tspan x=".628" y="6.581">Tracking your effort</tspan></text></g><g><g transform="translate(218 699)"><use fill="#000" filter="url(#k)" xlink:href="#l"/><use fill="#FFF" xlink:href="#l"/></g><g transform="translate(237.2 709.8)"><rect width="33" height="10.2" fill="#EA5A7D" rx="5.1"/><text fill="#FFF" font-family="Roboto-Regular, Roboto" font-size="4.8"><tspan x="3" y="4">Effort Rating</tspan></text></g><text fill="#6C6C6C" font-family="Roboto-Light, Roboto" font-size="4.8" font-weight="300" transform="translate(237.2 709.8)"><tspan x="36" y="4">Score achieved</tspan></text><text fill="#6C6C6C" font-family="Roboto-Regular, Roboto" font-size="6" transform="translate(237.2 709.8)"><tspan x="1.2" y="27">Effort Rating Improvement</tspan></text><g><text fill="#6C6C6C" font-family="Roboto-Light, Roboto" font-size="4.8" font-weight="300" transform="translate(221.8 758.4)"><tspan x="83.2" y="43">Tests</tspan></text><text fill="#6C6C6C" font-family="Roboto-Light, Roboto" font-size="4.8" font-weight="300" transform="rotate(-90 496.4 277.4)"><tspan x="-.2" y="7.6">Score</tspan></text><g stroke="#EFEFEF" stroke-width=".5"><path d="M233.559 759.698v35.472H315.4"/><path stroke-linecap="square" d="M233.38 788.463h81.489M233.38 781.974h81.489M233.38 775.486h81.489M233.38 768.998h81.489M233.38 762.51h81.489M244.866 795.384v-36.77M268.198 795.384v-36.77M291.53 795.384v-36.77"/></g><g transform="translate(233.8 759.6)"><path stroke="#EA5A7D" stroke-width=".5" d="M0 0l10.768 10.338 11.845-6.892h11.485l12.204 4.308 11.127 6.461L69.273 16.8 80.4 8.4"/><circle cx="80.1" cy="8.7" r="1" fill="#EA5A7D"/><circle cx="69.3" cy="16.5" r="1" fill="#EA5A7D"/><circle cx="57.3" cy="14.1" r="1" fill="#EA5A7D"/><circle cx="45.3" cy="7.5" r="1" fill="#EA5A7D"/><circle cx="34.5" cy="3.9" r="1" fill="#EA5A7D"/><circle cx="22.5" cy="3.3" r="1" fill="#EA5A7D"/><circle cx="10.5" cy="10.5" r="1" fill="#EA5A7D"/></g></g></g><g><path stroke="#F48BA4" stroke-width="1.226" d="M67.615 552.5V435.232a7.353 7.353 0 0 0-7.353-7.353H41.636c-4.183 0-7.56-3.425-7.56-7.668v-61.684c0-4.244 3.377-7.668 7.56-7.668h50.728c4.183 0 7.251 2.396 7.251 7.668v61.684c-.307 3.663-3.384 6.435-6.769 7.668h-8"/><path fill="#FFF5F7" stroke="#F48BA4" stroke-width="1.226" d="M96.23 388.425a3.07 3.07 0 0 1 3.08-3.061 3.07 3.07 0 0 1 3.079 3.061 3.07 3.07 0 0 1-3.08 3.06 3.07 3.07 0 0 1-3.078-3.06zM78.385 427.86a3.07 3.07 0 0 1 3.078-3.062 3.07 3.07 0 0 1 3.08 3.061 3.07 3.07 0 0 1-3.08 3.061 3.07 3.07 0 0 1-3.078-3.06zM64.846 555.9a3.07 3.07 0 0 1 3.079-3.062 3.07 3.07 0 0 1 3.08 3.062 3.07 3.07 0 0 1-3.08 3.06 3.07 3.07 0 0 1-3.079-3.06zM31 368.092a3.07 3.07 0 0 1 3.079-3.062 3.07 3.07 0 0 1 3.08 3.062 3.07 3.07 0 0 1-3.08 3.06 3.07 3.07 0 0 1-3.079-3.06z"/><path fill="#FFF" fill-rule="nonzero" d="M41.53 421.717a2.528 2.528 0 0 1-2.53-2.523v-60.883a2.528 2.528 0 0 1 2.53-2.523h50.94c1.396 0 2.53 1.13 2.53 2.523v60.883a2.528 2.528 0 0 1-2.53 2.523H41.53z"/><path fill="#EA5A7D" fill-rule="nonzero" d="M54.208 377.353l2.653-2.655a2.055 2.055 0 0 0 0-2.904 2.049 2.049 0 0 0-2.901 0l-2.652 2.655-2.653-2.655a2.049 2.049 0 0 0-2.9 0 2.055 2.055 0 0 0 0 2.904l2.652 2.655-2.652 2.656a2.055 2.055 0 0 0 0 2.904c.801.803 2.099.803 2.9 0l2.653-2.655 2.652 2.655c.801.803 2.1.803 2.9 0a2.055 2.055 0 0 0 0-2.904l-2.652-2.656z"/><g fill-rule="nonzero"><path fill="#EA5A7D" d="M86.36 378.963a2.09 2.09 0 0 1-2.991 0l-.641-.589v7.52c0 3.485-2.862 6.3-6.408 6.3H58.947c-1.197 0-2.136.924-2.136 2.1v8.68c0 .696-.329 1.303-.844 1.683a2.165 2.165 0 0 1-1.292.418c-1.197 0-2.137-.924-2.137-2.1v-8.68c0-3.487 2.863-6.302 6.409-6.302H76.32c1.196 0 2.136-.924 2.136-2.1v-7.519l-.641.589a2.09 2.09 0 0 1-2.99 0 2.007 2.007 0 0 1 0-2.94l4.272-4.201a2.09 2.09 0 0 1 2.99 0l4.272 4.2a2.007 2.007 0 0 1 0 2.94z" opacity=".8"/><path fill="#F6B72C" d="M77.581 346.075h-3.046c-1.032-2.944-4.095-5.075-7.45-5.075-3.355 0-6.418 2.131-7.45 5.075h-3.046c-4.285 0-7.743 3.4-7.743 7.613 0 4.213 3.458 7.613 7.743 7.613h20.992c4.285 0 7.743-3.4 7.743-7.613 0-4.212-3.458-7.613-7.743-7.613z"/></g><path fill="#EA5A7D" fill-rule="nonzero" d="M84.978 407.545l2.652-2.655a2.055 2.055 0 0 0 0-2.904 2.049 2.049 0 0 0-2.9 0l-2.653 2.655-2.652-2.655a2.049 2.049 0 0 0-2.901 0 2.055 2.055 0 0 0 0 2.904l2.652 2.655-2.652 2.656a2.055 2.055 0 0 0 0 2.904c.801.803 2.1.803 2.9 0l2.653-2.655 2.652 2.655c.802.803 2.1.803 2.9 0a2.055 2.055 0 0 0 0-2.904l-2.651-2.656z"/><path fill="#F8E494" fill-rule="nonzero" d="M86.032 353.884c0 4.278-3.402 7.731-7.616 7.731H68.092V341c3.3 0 6.313 2.164 7.328 5.154h2.996c4.214 0 7.616 3.453 7.616 7.73z"/><path fill="#EA5A7D" fill-rule="nonzero" d="M54.385 413.707c-3.054 0-5.539-2.487-5.539-5.545s2.485-5.546 5.539-5.546 5.538 2.488 5.538 5.546c0 3.058-2.484 5.545-5.538 5.545z"/><g transform="translate(115 331)"><rect width="296" height="161" fill="#FFF" rx="80.5"/><text fill="#121212" font-family="National-Book, National" font-size="16" font-weight="300" transform="translate(50 24)"><tspan x="0" y="69">Choose amongst our </tspan> <tspan x="0" y="89">unlimited assessments on </tspan> <tspan x="0" y="109">any part of the syllabus</tspan></text><g transform="translate(50 24)"><ellipse cx="20" cy="20.584" fill="#EA5A7D" rx="19.648" ry="20.242"/><path fill="#FFF" d="M20.381 8.77a6 6 0 0 0-.275-.011c-.12.003-.193.005-.286.012-4.503.312-7.898 4.083-7.898 8.656 0 5.575 4.807 7.551 4.807 9.732v.01h6.941v-.01c0-2.18 4.709-4.152 4.709-9.727 0-4.573-3.494-8.349-7.998-8.661"/><path fill="#FFE3EA" d="M22.698 9.263c2.132 1.751 3.412 4.308 3.412 7.146 0 6.13-5.805 8.292-5.805 10.69v.07h3.365v-.01c0-2.18 4.709-4.152 4.709-9.727 0-3.749-2.372-6.961-5.681-8.169"/><path fill="#C80" d="M24.782 16.828a4.608 4.608 0 0 0-2.65-3.207.666.666 0 0 0-.143-.042 4.4 4.4 0 0 0-2.443-.23 4.453 4.453 0 0 0-2.357 1.274l-.006.007a4.67 4.67 0 0 0-1.31 3.242l-.002.018.001.046a4.538 4.538 0 0 0 .017.35l.005.075a4.496 4.496 0 0 0 .05.357c.039.216.092.427.159.632l.004.012c.6 1.831 2.29 3.154 4.274 3.154a.69.69 0 0 0 .681-.7.69.69 0 0 0-.68-.698c-1.3 0-2.42-.812-2.899-1.968l-.002-.007a3.336 3.336 0 0 1-.198-.686l-.003-.02a3.43 3.43 0 0 1-.031-.225v-.009a3.559 3.559 0 0 1-.013-.194l-.001-.073a3.261 3.261 0 0 1 .919-2.325l.002-.003a3.08 3.08 0 0 1 3.444-.687c.03.013.06.02.09.028.862.402 1.508 1.317 1.747 2.255.012.045-.002.258-.115.258h-4.034c-.376 0-.68.369-.68.755s.304.755.68.755H23.424c.43 0 .829-.392 1.095-.739.265-.345.36-.977.263-1.405"/><g transform="translate(15.783 13.242)"><mask id="n" fill="#fff"><use xlink:href="#m"/></mask><use fill="#EA5A7D" xlink:href="#m"/><path fill="#EF990F" d="M20.379 1.677L-.071 22.65-3.73 19.12 16.72-1.855z" mask="url(#n)"/></g><g><path fill="#FFF" d="M23.72 30.464h-7.083c-.68 0-1.232-.566-1.232-1.264 0-.698.551-1.263 1.232-1.263h7.083c.68 0 1.232.565 1.232 1.263s-.551 1.264-1.232 1.264M22.94 33.586h-5.523c-.645 0-1.168-.536-1.168-1.198 0-.662.523-1.198 1.168-1.198h5.523c.645 0 1.168.536 1.168 1.198 0 .662-.523 1.198-1.168 1.198M18.297 34.26c-.088 0-.141.091-.092.16.426.586 1.15.983 1.973.983.823 0 1.548-.397 1.974-.984.05-.068-.004-.16-.091-.16h-3.764z"/><path fill="#EA5A7D" d="M14.687 16.43c-.846-.617-.833-2.126.03-3.37.862-1.243 2.247-1.75 3.093-1.134.847.618.834 2.126-.029 3.37-.862 1.244-2.247 1.752-3.094 1.134" opacity=".1"/><path stroke="#FFF" stroke-linecap="round" stroke-linejoin="round" stroke-width=".755" d="M19.49 6.891V5.597M27.094 9.81l1.023-1.049M27.545 24.447l1.023 1.05M30.401 16.64h1.472M12.796 9.81l-1.024-1.049M12.344 24.447l-1.023 1.05M9.578 16.64H8.105"/></g></g></g></g><g stroke="#F48BA4"><g stroke-width="1.6"><path d="M189 228.627c1.582-.4 3.233-.61 4.931-.61 9.76 0 17.965 6.98 20.341 16.444a13.079 13.079 0 0 1 5.037-1.017c7.561 0 13.691 6.436 13.691 14.377 0 7.94-6.13 14.376-13.691 14.376h-11.214"/><path fill="#FFF5F7" d="M189 228.017a4.009 4.009 0 0 1 4-4.017c2.21 0 4 1.799 4 4.017a4.008 4.008 0 0 1-4 4.016c-2.21 0-4-1.798-4-4.016z"/><path d="M176.2 238.459c1.938-3.42 4.708-6.212 8-8.033M161.8 250.508a11.07 11.07 0 0 1 6.986-2.478c1.607 0 3.131.348 4.514.968.095-2.287.547-4.48 1.3-6.523M193.8 272.197h-25.451c-6.268 0-11.349-5.394-11.349-12.05"/><path fill="#FFF5F7" d="M153 260.148a4.009 4.009 0 0 1 4-4.017c2.21 0 4 1.799 4 4.017a4.008 4.008 0 0 1-4 4.016c-2.21 0-4-1.797-4-4.016z"/><path d="M204.2 272.197h-6.4"/></g><g transform="rotate(58 -86.658 246.506)"><circle cx="4" cy="21" r="4" fill="#FFF5F7" stroke-width="1.6"/><path stroke-dasharray="1,8" stroke-linecap="round" stroke-width="2" d="M10.865 17.771L39.802 1.656"/></g><g transform="rotate(-3 5136.07 -1039.849)"><circle cx="4.756" cy="63.689" r="4" fill="#FFF5F7" stroke-width="1.6"/><path stroke-dasharray="1,8" stroke-linecap="round" stroke-width="2" d="M11.609 56.309L87.596 1.21"/></g></g><g transform="translate(-141 48)"><rect width="457" height="144" fill="#FFF" rx="72"/><text fill="#121212" font-family="National-Book, National" font-size="16" font-weight="300" transform="translate(165 24)"><tspan x="0" y="72">If I try really hard, can I really improve </tspan> <tspan x="0" y="92">in just a few tests?</tspan></text><path fill="url(#o)" d="M19.09 0C8.547 0 0 8.506 0 18.998s8.547 18.997 19.09 18.997 19.09-8.505 19.09-18.997C38.18 8.506 29.633 0 19.09 0z" transform="translate(166 24)"/><path stroke="#403408" stroke-linecap="round" stroke-linejoin="round" stroke-width="2.424" d="M174.91 38.877l4.582 2.588-4.547 2.564"/><path stroke="#403408" stroke-linecap="round" stroke-linejoin="round" stroke-width="2.396" d="M195.27 44.03l-4.476-2.588 4.442-2.565"/><path stroke="#403408" stroke-linecap="round" stroke-width="1.947" d="M178.249 53.477s1.446-5.037 6.872-5.037c5.425 0 6.81 4.997 6.81 4.997"/><path fill="#2FA7BF" d="M182.125 33.602a1.93 1.93 0 0 1-1.947 1.91 1.929 1.929 0 0 1-1.92-1.938c.008-1.063 1.967-4.677 1.967-4.677s1.908 3.642 1.9 4.705"/><g><g transform="rotate(40 42.762 320.177)"><path fill="#ED6060" d="M14.953 4.13l-.017 13.141c-.058.801-.627 1.464-1.391 1.464H2.5c-.764 0-1.327-.662-1.392-1.464V4.13h13.845z"/><path fill="#E23B3B" d="M3.356 4.58h1.132v10.73c0 .83-1.132.83-1.132 0V4.58zM10.158 4.58h1.132v10.566c0 .83-1.132.83-1.132 0V4.579zM6.757 4.58h1.132v10.566c0 .83-1.132.83-1.132 0V4.579z"/><path fill="#DD3636" d="M13.207 4.28l-.013 11.272c-.05.801-.548 1.479-1.216 1.479H2.325c-.668 0-1.262-.842-1.422-1.644v-2.752 4.636c.16.802.833 1.491 1.597 1.491h11.045c.764 0 1.333-.6 1.391-1.402l.017-13.08h-1.746z"/><path stroke="#777" stroke-linecap="round" stroke-linejoin="round" stroke-width=".525" d="M14.953 4.245l-.016 12.91c0 .078-.002.155-.013.231-.101.749-.652 1.349-1.38 1.349H2.5c-.688 0-1.213-.536-1.358-1.228a1.885 1.885 0 0 1-.034-.387V4.245h13.845z"/><mask id="q" fill="#fff"><use xlink:href="#p"/></mask><path fill="#D1D1D1" d="M0 4.927h16.043V3.86H0z" mask="url(#q)"/><path fill="#636363" d="M2.913 2.824c0-.392.323-.71.722-.71.398 0 .72.318.72.71 0 .392-.322.71-.72.71a.716.716 0 0 1-.722-.71M4.7 2.824c0-.392.323-.71.721-.71.398 0 .721.318.721.71 0 .392-.323.71-.72.71a.716.716 0 0 1-.722-.71M6.92.71c0-.392.323-.71.722-.71.398 0 .72.318.72.71 0 .392-.322.71-.72.71A.716.716 0 0 1 6.92.71M5.454 1.322c0-.347.285-.627.636-.627.352 0 .637.28.637.627a.632.632 0 0 1-.637.626.632.632 0 0 1-.636-.626M10.67 3.16c0-.233.193-.423.43-.423.238 0 .43.19.43.423a.427.427 0 0 1-.43.424.427.427 0 0 1-.43-.424M9.02 2.824c0-.392.323-.71.721-.71.398 0 .721.318.721.71 0 .392-.323.71-.721.71a.716.716 0 0 1-.721-.71M3.814 1.505c0-.337.278-.61.62-.61.343 0 .62.273.62.61 0 .337-.277.61-.62.61a.615.615 0 0 1-.62-.61M10.327 1.825c0-.392.323-.71.721-.71.398 0 .721.318.721.71 0 .392-.323.71-.721.71a.716.716 0 0 1-.721-.71M8.572 1.238c0-.343.283-.622.632-.622.35 0 .632.279.632.622a.627.627 0 0 1-.632.623.627.627 0 0 1-.632-.623M6.586 2.56c0-.54.443-.976.99-.976.546 0 .99.437.99.975a.982.982 0 0 1-.99.975.982.982 0 0 1-.99-.975M11.884 2.692c0-.465.383-.842.855-.842s.855.377.855.842a.849.849 0 0 1-.855.842.849.849 0 0 1-.855-.842" mask="url(#q)"/></g></g></g></g></svg>