<svg height="40" viewBox="0 0 43 40" width="43" xmlns="http://www.w3.org/2000/svg" xmlns:xlink="http://www.w3.org/1999/xlink"><linearGradient id="a" x1="50%" x2="50%" y1="0%" y2="100%"><stop offset="0" stop-color="#88dcf5"/><stop offset="1" stop-color="#50b7e8"/></linearGradient><g fill="url(#a)" opacity=".9" transform="translate(.512 .587)"><path d="m11.906 34.92c.332 0 .664-.11.885-.443l9.85-13.175c.332-.443.222-1.218-.221-1.55s-1.217-.221-1.55.222l-9.85 13.175c-.331.442-.22 1.217.222 1.55.221.11.443.221.664.221z"/><path d="m31.495 34.92c.221 0 .443-.11.664-.221.443-.332.553-1.107.221-1.55l-9.739-13.175c-.332-.443-1.107-.554-1.55-.222-.442.333-.553 1.108-.22 1.55l9.739 13.175c.22.222.553.443.885.443z"/><path d="m21.756 21.745h.332l15.826-4.982c.553-.221.885-.775.775-1.44-.222-.553-.775-.885-1.44-.774l-15.824 4.871c-.554.221-.886.775-.775 1.44.221.664.664.885 1.107.885z"/><path d="m21.756 21.745a1.11 1.11 0 0 0 1.106-1.107l-.11-16.275a1.11 1.11 0 0 0 -1.107-1.107 1.11 1.11 0 0 0 -1.107 1.107l.111 16.275c0 .664.443 1.107 1.107 1.107z"/><path d="m21.756 21.745c.442 0 .885-.332 1.106-.775.222-.553-.11-1.218-.774-1.44l-15.494-4.87c-.554-.222-1.218.11-1.44.775-.22.553.112 1.217.776 1.439l15.494 4.871z"/><path d="m21.556 15.014c2.935 0 5.311 2.363 5.311 5.28 0 2.918-2.376 5.28-5.31 5.28-2.936 0-5.312-2.362-5.312-5.28 0-2.917 2.376-5.28 5.311-5.28z"/><path d="m11.62 34.92h19.91c.447 0 .894-.334 1.006-.779l6.152-18.126c.112-.445 0-1-.447-1.223l-16.108-11.454c-.335-.223-.895-.223-1.342 0l-15.883 11.454c-.448.333-.56.778-.448 1.223l6.152 18.126c.112.445.56.779 1.007.779zm19.126-2.224h-18.232l-5.594-16.57 14.542-10.453 14.765 10.453-5.48 16.57z"/><ellipse cx="5.311" cy="16.579" rx="4.061" ry="4.066" transform="matrix(-1 0 0 1 10.622 0)"/><path d="m5.31 21.896c2.887 0 5.312-2.428 5.312-5.317 0-2.89-2.425-5.318-5.311-5.318s-5.311 2.428-5.311 5.318 2.425 5.317 5.31 5.317zm0-8.323c1.617 0 3.003 1.387 3.003 3.006 0 1.618-1.386 3.005-3.002 3.005s-3.002-1.387-3.002-3.005c0-1.619 1.386-3.006 3.002-3.006z"/><ellipse cx="21.556" cy="20.332" rx="3.436" ry="3.441" transform="matrix(-1 0 0 1 43.112 0)"/><ellipse cx="20.931" cy="4.692" rx="4.061" ry="4.066" transform="matrix(-1 0 0 1 41.863 0)"/><path d="m21.556 10.635c2.887 0 5.311-2.427 5.311-5.317s-2.424-5.318-5.31-5.318c-2.887 0-5.312 2.428-5.312 5.318a5.3 5.3 0 0 0 5.311 5.317zm0-8.323c1.617 0 3.002 1.387 3.002 3.006 0 1.618-1.385 3.005-3.002 3.005-1.616 0-3.002-1.387-3.002-3.005 0-1.619 1.386-3.006 3.002-3.006z"/><ellipse cx="37.801" cy="15.953" rx="4.061" ry="4.066" transform="matrix(-1 0 0 1 75.603 0)"/><path d="m37.177 21.896c2.886 0 5.31-2.428 5.31-5.317 0-2.89-2.424-5.318-5.31-5.318-2.887 0-5.311 2.428-5.311 5.318s2.424 5.317 5.31 5.317zm0-8.323c1.616 0 3.001 1.387 3.001 3.006 0 1.618-1.385 3.005-3.001 3.005-1.617 0-3.002-1.387-3.002-3.005 0-1.619 1.385-3.006 3.002-3.006z"/><ellipse cx="11.559" cy="34.721" rx="4.061" ry="4.066" transform="matrix(-1 0 0 1 23.118 0)"/><path d="m12.184 39.413c2.886 0 5.31-2.428 5.31-5.318s-2.424-5.317-5.31-5.317-5.311 2.427-5.311 5.317 2.424 5.318 5.31 5.318zm0-8.323c1.616 0 3.002 1.387 3.002 3.005 0 1.619-1.386 3.006-3.002 3.006s-3.002-1.387-3.002-3.006c0-1.618 1.386-3.005 3.002-3.005z"/><ellipse cx="31.553" cy="34.721" rx="4.061" ry="4.066" transform="matrix(-1 0 0 1 63.107 0)"/><path d="m30.928 39.413c2.887 0 5.311-2.428 5.311-5.318s-2.424-5.317-5.31-5.317c-2.887 0-5.311 2.427-5.311 5.317s2.424 5.318 5.31 5.318zm0-8.323c1.617 0 3.002 1.387 3.002 3.005 0 1.619-1.385 3.006-3.002 3.006-1.616 0-3.001-1.387-3.001-3.006 0-1.618 1.385-3.005 3.001-3.005z"/></g></svg>