<svg xmlns="http://www.w3.org/2000/svg" xmlns:xlink="http://www.w3.org/1999/xlink" width="1280" height="1387" viewBox="0 0 1280 1387"><style>@font-face{font-family:&apos;National-Book&apos;;src:url(https://assets.embibe.com/staging/fonts/National/NationalWeb-Book.ttf) format(&apos;truetype&apos;)}@font-face{font-family:&apos;National-Regular&apos;;src:url(https://assets.embibe.com/staging/fonts/Roboto/NationalWeb-Regular.ttf) format(&apos;truetype&apos;)}@font-face{font-family:&apos;Roboto-Regular&apos;;src:url(https://assets.embibe.com/staging/fonts/Roboto/Roboto-Regular.ttf) format(&apos;truetype&apos;)}</style><defs><linearGradient id="b" x1="100%" x2="30.94%" y1="-14.062%" y2="47.607%"><stop offset="0%" stop-color="#FFF1E2"/><stop offset="100%" stop-color="#FFF4F9"/></linearGradient><path id="a" d="M0 0h1280v1387H0z"/><linearGradient id="c" x1="77.39%" x2="-28.947%" y1="-19.442%" y2="140.996%"><stop offset="0%" stop-color="#FFF0E4"/><stop offset="100%" stop-color="#FFDAEB"/></linearGradient><path id="e" d="M5.646.161A6.661 6.661 0 0 0 2.11 2.087l-.009.012A7.091 7.091 0 0 0 .135 7l-.002.027.001.069a8.036 8.036 0 0 0 .025.529l.009.114c.014.152.036.302.06.451l.015.088c.058.328.137.647.237.958l.006.017c.902 2.769 3.435 4.769 6.412 4.769.564 0 1.022-.473 1.022-1.057 0-.583-.458-1.056-1.022-1.056-1.95 0-3.628-1.229-4.347-2.977l-.003-.01a5.082 5.082 0 0 1-.297-1.038l-.006-.03a5.206 5.206 0 0 1-.045-.34l-.001-.013a5.123 5.123 0 0 1-.018-.295c-.001-.036-.003-.073-.003-.11a4.952 4.952 0 0 1 1.378-3.515l.004-.005c1.365-1.404 3.392-1.812 5.166-1.039.044.02.09.03.135.043 1.294.607 2.262 1.992 2.621 3.41.017.068-.003.39-.173.39H5.26c-.565 0-1.022.558-1.022 1.141 0 .584.457 1.142 1.022 1.142h6.203c.645 0 1.244-.593 1.643-1.117.397-.522.541-1.478.394-2.125-.493-2.172-1.98-3.985-3.974-4.849-.07-.03-.142-.05-.215-.064A6.583 6.583 0 0 0 5.646.16z"/><path id="g" d="M5.646.161A6.661 6.661 0 0 0 2.11 2.087l-.009.012A7.091 7.091 0 0 0 .135 7l-.002.027.001.069a8.036 8.036 0 0 0 .025.529l.009.114c.014.152.036.302.06.451l.015.088c.058.328.137.647.237.958l.006.017c.902 2.769 3.435 4.769 6.412 4.769.564 0 1.022-.473 1.022-1.057 0-.583-.458-1.056-1.022-1.056-1.95 0-3.628-1.229-4.347-2.977l-.003-.01a5.082 5.082 0 0 1-.297-1.038l-.006-.03a5.206 5.206 0 0 1-.045-.34l-.001-.013a5.123 5.123 0 0 1-.018-.295c-.001-.036-.003-.073-.003-.11a4.952 4.952 0 0 1 1.378-3.515l.004-.005c1.365-1.404 3.392-1.812 5.166-1.039.044.02.09.03.135.043 1.294.607 2.262 1.992 2.621 3.41.017.068-.003.39-.173.39H5.26c-.565 0-1.022.558-1.022 1.141 0 .584.457 1.142 1.022 1.142h6.203c.645 0 1.244-.593 1.643-1.117.397-.522.541-1.478.394-2.125-.493-2.172-1.98-3.985-3.974-4.849-.07-.03-.142-.05-.215-.064A6.583 6.583 0 0 0 5.646.16z"/><rect id="j" width="211" height="225" x="32" y="29" rx="14"/><filter id="i" width="118%" height="116.9%" x="-9%" y="-7.6%" filterUnits="objectBoundingBox"><feOffset dy="2" in="SourceAlpha" result="shadowOffsetOuter1"/><feGaussianBlur in="shadowOffsetOuter1" result="shadowBlurOuter1" stdDeviation="6"/><feColorMatrix in="shadowBlurOuter1" values="0 0 0 0 0.654901961 0 0 0 0 0.654901961 0 0 0 0 0.654901961 0 0 0 0.199699955 0"/></filter><rect id="l" width="161" height="209" x="248" rx="14"/><filter id="k" width="123.6%" height="118.2%" x="-11.8%" y="-8.1%" filterUnits="objectBoundingBox"><feOffset dy="2" in="SourceAlpha" result="shadowOffsetOuter1"/><feGaussianBlur in="shadowOffsetOuter1" result="shadowBlurOuter1" stdDeviation="6"/><feColorMatrix in="shadowBlurOuter1" values="0 0 0 0 0.654901961 0 0 0 0 0.654901961 0 0 0 0 0.654901961 0 0 0 0.27137115 0"/></filter><path id="m" d="M5.646.161A6.661 6.661 0 0 0 2.11 2.087l-.009.012A7.091 7.091 0 0 0 .135 7l-.002.027.001.069a8.036 8.036 0 0 0 .025.529l.009.114c.014.152.036.302.06.451l.015.088c.058.328.137.647.237.958l.006.017c.902 2.769 3.435 4.769 6.412 4.769.564 0 1.022-.473 1.022-1.057 0-.583-.458-1.056-1.022-1.056-1.95 0-3.628-1.229-4.347-2.977l-.003-.01a5.082 5.082 0 0 1-.297-1.038l-.006-.03a5.206 5.206 0 0 1-.045-.34l-.001-.013a5.123 5.123 0 0 1-.018-.295c-.001-.036-.003-.073-.003-.11a4.952 4.952 0 0 1 1.378-3.515l.004-.005c1.365-1.404 3.392-1.812 5.166-1.039.044.02.09.03.135.043 1.294.607 2.262 1.992 2.621 3.41.017.068-.003.39-.173.39H5.26c-.565 0-1.022.558-1.022 1.141 0 .584.457 1.142 1.022 1.142h6.203c.645 0 1.244-.593 1.643-1.117.397-.522.541-1.478.394-2.125-.493-2.172-1.98-3.985-3.974-4.849-.07-.03-.142-.05-.215-.064A6.583 6.583 0 0 0 5.646.16z"/><path id="o" d="M0 .165h62.835V62.92H0z"/><linearGradient id="p" x1="50%" x2="50%" y1="0%" y2="100%"><stop offset="0%" stop-color="#FFE47A"/><stop offset="100%" stop-color="#FFD21F"/></linearGradient></defs><g fill="none" fill-rule="evenodd"><g><mask id="d" fill="#fff"><use xlink:href="#a"/></mask><use fill="url(#b)" xlink:href="#a"/><path fill="url(#c)" d="M-165.333 987.806l594-174-98.624 553.948-531.95 59.109z" mask="url(#d)" transform="rotate(8 113.38 1120.334)"/><g mask="url(#d)" opacity=".55"><g transform="translate(-20 -148)"><path stroke="#F7DCE3" stroke-width="2" d="M12 519h245V217.204C256.33 194.4 248.298 183 232.902 183H12v336z"/><path stroke="#F7DCE3" stroke-width="2" d="M12 637h95.524c16.759-2.015 25.138-10.745 25.138-26.191V389.19C130.65 371.731 137.69 363 153.778 363S547.94 366.694 1288 374.08"/><path stroke="#F7DCE3" stroke-width="2" d="M9 882.969h291.9c21.4.668 32.1-9.359 32.1-30.08 0-20.722-1.337-132.018-4.012-333.889"/><path stroke="#F7DCE3" stroke-width="2" d="M258.118 520v221.5c-1.337 21.471 8.691 32.207 30.085 32.207h248.708C558.304 775.05 569 786.124 569 806.931c0 20.807-2.006 172.83-6.017 456.069v173"/><path stroke="#F7DCE3" stroke-width="2" d="M359.5 1436.5L363 1269V940.118c3.347-21.416 20.751-30.783 52.213-28.101 31.462 2.681 201.488 2.681 510.08 0 28.784-1.341 44.85 5.698 48.197 21.117 3.347 15.42 3.347 88.492 0 219.218-1.339 16.09-13.053 24.134-35.144 24.134H774.68c-22.09-2.011-33.135-11.397-33.135-28.156 0-16.76 2.343-276.537 7.028-779.33"/><path stroke="#F7DCE3" stroke-width="2" d="M1279 1038H859v394"/><path stroke="#F7DCE3" stroke-width="2" d="M1120.933 1431.5V317.753c4.03-20.111-3.357-30.167-22.16-30.167H439V0"/><path stroke="#F7DCE3" stroke-width="2" d="M1285 94.502H371.301c-27.474-2.677-41.212 5.354-41.212 24.093v83.32C328.75 216.638 342.486 224 371.301 224c28.815 0 152.116-1.673 369.903-5.02M744 8v281M816 5v283"/><path stroke="#F7DCE3" stroke-width="2" d="M1015 4v600.797c-2.016 21.469-13.443 32.203-34.279 32.203H892"/><path stroke="#F7DCE3" stroke-width="2" d="M1252 8v659.521c-.67 19.437-9.385 29.156-26.144 29.156H930.232c-28.155 2.01-42.232-5.362-42.232-22.118s2.011-95.845 6.033-237.267l351.934 2.01M202 1437v-431.46c1.34-16.758 11.05-25.136 29.134-25.136h170.783c12.055 2.01 18.083-9.05 18.083-33.183s-.67-218.874-2.01-584.221M255 520h163M12 731h41c14.667 3.351 22 11.393 22 24.127v325.72C73.667 1100.281 66.333 1110 53 1110H0l12-379z"/><circle cx="742.5" cy="216.5" r="14.5" fill="#FFD5DF"/><circle cx="888.5" cy="637.5" r="14.5" fill="#FFD5DF"/><circle cx="1122" cy="701" r="11" fill="#FFD5DF"/><circle cx="440" cy="277" r="11" fill="#FFD5DF"/><circle cx="133" cy="519" r="11" fill="#FFD5DF"/><circle cx="418" cy="520" r="11" fill="#FFD5DF"/><circle cx="75" cy="883" r="11" fill="#FFD5DF"/></g></g></g><g stroke="#F48BA4"><path stroke-dasharray="1,8" stroke-linecap="round" stroke-width="2" d="M284 1092l107.177 85.51"/><path stroke-width="1.667" d="M402 1182a5 5 0 1 0-10.001 0 5 5 0 0 0 10.001 0z"/></g><g transform="translate(400 1164)"><rect width="480" height="159" fill="#FFF" rx="70"/><text fill="#121212" font-family="National-Book, National" font-size="24" font-weight="300"><tspan x="55.584" y="57">YOUR WEAKNESSES + IMPORTANT FOR </tspan> <tspan x="64.968" y="88">EXAM CONCEPTS + MINIMUM TIME = </tspan> <tspan x="110.808" y="119">YOUR RANKUP STUDY PLAN</tspan></text></g><g stroke="#F48BA4"><path stroke-dasharray="1,8" stroke-linecap="round" stroke-width="2" d="M247 731l-107.177 85.51"/><path stroke-width="1.667" d="M129 821a5 5 0 1 1 10.001 0A5 5 0 0 1 129 821z"/></g><g transform="translate(-80 844)"><rect width="583" height="237" fill="#FFF" rx="100"/><text fill="#2F2F2F" font-family="National-Book, National" font-size="24" font-weight="300" transform="translate(120 32)"><tspan x="0" y="103">Get important questions and concepts</tspan> <tspan x="0" y="135">from any combination of chapters across</tspan> <tspan x="0" y="167">subjects !</tspan></text><text fill="#2F2F2F" font-family="National-Book, National" font-size="24" font-weight="300" transform="translate(120 32)"><tspan x="76" y="41">SELECT TOPICS TO IMPROVE</tspan></text><g transform="translate(120 32)"><ellipse cx="30" cy="31.127" fill="#EA5A7D" rx="29.472" ry="30.611"/><path fill="#FFF" d="M30.572 13.263a8.928 8.928 0 0 0-.413-.018c-.18.006-.29.009-.429.018-6.755.473-11.847 6.174-11.847 13.09 0 8.431 7.21 11.419 7.21 14.717v.015H35.506v-.015c0-3.298 7.063-6.278 7.063-14.71 0-6.915-5.24-12.624-11.996-13.097"/><path fill="#FFE3EA" d="M34.046 14.008c3.199 2.647 5.12 6.514 5.12 10.806 0 9.27-8.709 12.539-8.709 16.165v.106h5.049v-.015c0-3.298 7.062-6.278 7.062-14.71 0-5.668-3.558-10.526-8.522-12.352"/><path fill="#C80" d="M37.173 25.448c-.494-2.173-1.98-3.986-3.975-4.85a.993.993 0 0 0-.214-.064 6.55 6.55 0 0 0-3.664-.347 6.663 6.663 0 0 0-3.536 1.926l-.009.01a7.091 7.091 0 0 0-1.966 4.903c0 .01-.003.018-.003.027l.002.069a6.918 6.918 0 0 0 .025.53c.003.037.004.075.008.113a6.851 6.851 0 0 0 .076.54c.058.327.137.646.237.957l.006.018c.902 2.768 3.434 4.768 6.412 4.768.564 0 1.022-.473 1.022-1.057 0-.583-.458-1.056-1.022-1.056-1.95 0-3.628-1.229-4.347-2.977-.002-.003-.002-.007-.003-.01a5.076 5.076 0 0 1-.298-1.038l-.005-.03a5.226 5.226 0 0 1-.045-.34l-.001-.013a5.425 5.425 0 0 1-.019-.294l-.002-.111a4.954 4.954 0 0 1 1.378-3.515l.004-.005c1.365-1.404 3.391-1.812 5.166-1.039.044.02.09.03.135.044 1.293.606 2.261 1.991 2.62 3.41.018.067-.003.389-.172.389h-6.05c-.565 0-1.022.558-1.022 1.141 0 .584.457 1.142 1.022 1.142h6.203c.645 0 1.243-.593 1.642-1.116.398-.523.542-1.48.395-2.125"/><g transform="translate(23.674 20.025)"><mask id="f" fill="#fff"><use xlink:href="#e"/></mask><use fill="#EA5A7D" xlink:href="#e"/><path fill="#EF990F" d="M30.569 2.535L-.108 34.253l-5.486-5.341L25.082-2.805z" mask="url(#f)"/></g><g><path fill="#FFF" d="M35.58 46.068H24.956c-1.021 0-1.85-.856-1.85-1.911 0-1.056.829-1.912 1.85-1.912H35.58c1.02 0 1.848.856 1.848 1.912 0 1.055-.827 1.91-1.848 1.91M34.41 50.789h-8.284c-.968 0-1.753-.811-1.753-1.812 0-1 .785-1.812 1.753-1.812h8.284c.968 0 1.753.811 1.753 1.812s-.785 1.812-1.753 1.812M27.445 51.807c-.132 0-.211.14-.137.242a3.647 3.647 0 0 0 2.96 1.487c1.234 0 2.32-.6 2.96-1.487.074-.103-.005-.242-.137-.242h-5.646z"/><path fill="#EA5A7D" d="M22.031 24.846c-1.27-.933-1.25-3.215.043-5.096 1.294-1.88 3.371-2.648 4.641-1.715s1.25 3.215-.043 5.096c-1.293 1.88-3.371 2.648-4.641 1.715" opacity=".1"/><path stroke="#FFF" stroke-linecap="round" stroke-linejoin="round" stroke-width="1.132" d="M29.235 10.42V8.465M40.64 14.835l1.535-1.586M41.318 36.969l1.534 1.587M45.602 25.163h2.208M19.193 14.835L17.66 13.25M18.516 36.969l-1.535 1.587M14.366 25.163h-2.208"/></g></g></g><g transform="translate(526 899)"><rect width="118" height="36" fill="#50B7E8" rx="18"/><g transform="translate(88 4)"><circle cx="12" cy="13.6" r="12" fill="#FFF"/><text fill="#C6C6C6" font-family="Roboto-Regular, Roboto" font-size="22.4"><tspan x="5.651" y="21">+</tspan></text></g><text fill="#FFF" font-family="Roboto-Regular, Roboto" font-size="10" transform="translate(14 4)"><tspan x=".478" y="17">PROBABILITY</tspan></text></g><g transform="translate(668 899)"><rect width="118" height="36" fill="#F49C53" rx="18"/><g transform="translate(88 4)"><circle cx="12" cy="13.6" r="12" fill="#FFF"/><text fill="#C6C6C6" font-family="Roboto-Regular, Roboto" font-size="22.4"><tspan x="5.651" y="21">+</tspan></text></g><text fill="#FFF" font-family="Roboto-Regular, Roboto" font-size="10" transform="translate(15 4)"><tspan x=".5" y="17">SOLID STATE</tspan></text></g><g transform="translate(551 951)"><rect width="152" height="36" fill="#87D37C" rx="18"/><g transform="translate(122 4)"><circle cx="12" cy="13.6" r="12" fill="#FFF"/><text fill="#C6C6C6" font-family="Roboto-Regular, Roboto" font-size="22.4"><tspan x="5.651" y="21">+</tspan></text></g><text fill="#FFF" font-family="Roboto-Regular, Roboto" font-size="10" transform="translate(12 4)"><tspan x=".114" y="17">BIONOMIAL THEOREM</tspan></text></g><g transform="translate(727 951)"><rect width="103" height="36" fill="#4183D7" rx="18"/><g transform="translate(73 4)"><circle cx="12" cy="13.6" r="12" fill="#FFF"/><text fill="#C6C6C6" font-family="Roboto-Regular, Roboto" font-size="22.4"><tspan x="5.651" y="21">+</tspan></text></g><text fill="#FFF" font-family="Roboto-Regular, Roboto" font-size="10" transform="translate(19 4)"><tspan x=".362" y="17">VECTOR</tspan></text></g><g stroke="#F48BA4"><path fill="#D8D8D8" stroke-dasharray="1,9" stroke-linecap="round" stroke-width="2" d="M537 1007h320"/><path stroke-width="1.667" d="M520 1007a5 5 0 1 1 10.001 0 5 5 0 0 1-10.001 0z"/><path stroke-width="1.818" d="M859 1007a5 5 0 1 1 10.001 0 5 5 0 0 1-10.001 0z"/></g><g transform="translate(646 1029)"><rect width="80" height="36" fill="#9FA0A1" rx="18"/><text fill="#FFF" font-family="National-Regular, National" font-size="12"><tspan x="18.48" y="21">IMPROVE</tspan></text></g><g><g transform="translate(215 496)"><rect width="550" height="235" fill="#FFF" rx="70"/><text fill="#2F2F2F" font-family="National-Book, National" font-size="24" font-weight="300" transform="translate(40 32)"><tspan x="0" y="103">Get a focused study plan with only 300-400</tspan> <tspan x="0" y="135">questions and just 10 concepts handpicked </tspan> <tspan x="0" y="166">for you to improve on the entire syllabus</tspan></text><g transform="translate(40 32)"><ellipse cx="30" cy="31.127" fill="#EA5A7D" rx="29.472" ry="30.611"/><path fill="#FFF" d="M30.572 13.263a8.928 8.928 0 0 0-.413-.018c-.18.006-.29.009-.429.018-6.755.473-11.847 6.174-11.847 13.09 0 8.431 7.21 11.419 7.21 14.717v.015H35.506v-.015c0-3.298 7.063-6.278 7.063-14.71 0-6.915-5.24-12.624-11.996-13.097"/><path fill="#FFE3EA" d="M34.046 14.008c3.199 2.647 5.12 6.514 5.12 10.806 0 9.27-8.709 12.539-8.709 16.165v.106h5.049v-.015c0-3.298 7.062-6.278 7.062-14.71 0-5.668-3.558-10.526-8.522-12.352"/><path fill="#C80" d="M37.173 25.448c-.494-2.173-1.98-3.986-3.975-4.85a.993.993 0 0 0-.214-.064 6.55 6.55 0 0 0-3.664-.347 6.663 6.663 0 0 0-3.536 1.926l-.009.01a7.091 7.091 0 0 0-1.966 4.903c0 .01-.003.018-.003.027l.002.069a6.918 6.918 0 0 0 .025.53c.003.037.004.075.008.113a6.851 6.851 0 0 0 .076.54c.058.327.137.646.237.957l.006.018c.902 2.768 3.434 4.768 6.412 4.768.564 0 1.022-.473 1.022-1.057 0-.583-.458-1.056-1.022-1.056-1.95 0-3.628-1.229-4.347-2.977-.002-.003-.002-.007-.003-.01a5.076 5.076 0 0 1-.298-1.038l-.005-.03a5.226 5.226 0 0 1-.045-.34l-.001-.013a5.425 5.425 0 0 1-.019-.294l-.002-.111a4.954 4.954 0 0 1 1.378-3.515l.004-.005c1.365-1.404 3.391-1.812 5.166-1.039.044.02.09.03.135.044 1.293.606 2.261 1.991 2.62 3.41.018.067-.003.389-.172.389h-6.05c-.565 0-1.022.558-1.022 1.141 0 .584.457 1.142 1.022 1.142h6.203c.645 0 1.243-.593 1.642-1.116.398-.523.542-1.48.395-2.125"/><g transform="translate(23.674 20.025)"><mask id="h" fill="#fff"><use xlink:href="#g"/></mask><use fill="#EA5A7D" xlink:href="#g"/><path fill="#EF990F" d="M30.569 2.535L-.108 34.253l-5.486-5.341L25.082-2.805z" mask="url(#h)"/></g><g><path fill="#FFF" d="M35.58 46.068H24.956c-1.021 0-1.85-.856-1.85-1.911 0-1.056.829-1.912 1.85-1.912H35.58c1.02 0 1.848.856 1.848 1.912 0 1.055-.827 1.91-1.848 1.91M34.41 50.789h-8.284c-.968 0-1.753-.811-1.753-1.812 0-1 .785-1.812 1.753-1.812h8.284c.968 0 1.753.811 1.753 1.812s-.785 1.812-1.753 1.812M27.445 51.807c-.132 0-.211.14-.137.242a3.647 3.647 0 0 0 2.96 1.487c1.234 0 2.32-.6 2.96-1.487.074-.103-.005-.242-.137-.242h-5.646z"/><path fill="#EA5A7D" d="M22.031 24.846c-1.27-.933-1.25-3.215.043-5.096 1.294-1.88 3.371-2.648 4.641-1.715s1.25 3.215-.043 5.096c-1.293 1.88-3.371 2.648-4.641 1.715" opacity=".1"/><path stroke="#FFF" stroke-linecap="round" stroke-linejoin="round" stroke-width="1.132" d="M29.235 10.42V8.465M40.64 14.835l1.535-1.586M41.318 36.969l1.534 1.587M45.602 25.163h2.208M19.193 14.835L17.66 13.25M18.516 36.969l-1.535 1.587M14.366 25.163h-2.208"/></g></g><text fill="#121212" font-family="National-Book, National" font-size="24" font-weight="300" transform="translate(40 32)"><tspan x="76.588" y="39">PERSONALIZED PRACTICE PLANS</tspan></text></g><path fill="#BEC4C1" d="M952.868 777.863c-11.717-3.24-28.138-5.258-46.336-5.258-18.2 0-34.623 2.017-46.336 5.258H842.12V789.8c0 9.498 28.836 17.199 64.41 17.199 35.572 0 64.41-7.701 64.41-17.199v-11.938h-18.073"/><path fill="#E5E5E5" d="M952.868 777.863c-11.717-3.24-28.138-5.258-46.336-5.258-18.2 0-34.623 2.017-46.336 5.258H842.12V789.8c0 9.498 28.836 17.199 64.41 17.199 35.572 0 64.41-7.701 64.41-17.199v-11.938h-18.073z"/><path fill="#EEEEEA" d="M842.121 775.83c0-9.497 28.836-17.198 64.41-17.198 35.572 0 64.41 7.701 64.41 17.198 0 9.498-28.838 17.197-64.41 17.197-35.574 0-64.41-7.7-64.41-17.197"/><path fill="#EEEDED" d="M842.121 775.83c0-9.497 28.836-17.198 64.41-17.198 35.572 0 64.41 7.701 64.41 17.198 0 9.498-28.838 17.197-64.41 17.197-35.574 0-64.41-7.7-64.41-17.197z"/><path fill="#FFFFFE" d="M695.98 699.538c0 27.294 21.531 49.42 48.09 49.42h322.759c26.558 0 48.088-22.126 48.088-49.42v-1.098H695.981v1.098"/><path fill="#F68DA6" d="M695.98 699.538c0 27.294 21.531 49.42 48.09 49.42h322.759c26.558 0 48.088-22.126 48.088-49.42v-1.098H695.981v1.098z"/><path fill="#4E5554" d="M1066.829 448h-322.76c-26.558 0-48.088 21.894-48.088 48.904V698.44h418.936V496.904c0-27.01-21.53-48.904-48.088-48.904"/><path fill="#FFAEC2" d="M1066.829 448h-322.76c-26.558 0-48.088 21.894-48.088 48.904V698.44h418.936V496.904c0-27.01-21.53-48.904-48.088-48.904z"/><path fill="#90CCB9" d="M718.714 699.515V497.391c0-14.788 11.805-26.82 26.316-26.82h323.003c14.512 0 26.317 12.032 26.317 26.82v202.124H718.714"/><path d="M718.714 699.515V497.391c0-14.788 11.805-26.82 26.316-26.82h323.003c14.512 0 26.317 12.032 26.317 26.82v202.124H718.714z"/><path fill="#90CCB9" d="M718.714 699.515V497.391c0-14.788 11.805-26.82 26.316-26.82h323.003c14.512 0 26.317 12.032 26.317 26.82v202.124H718.714"/><path fill="#FFF9FA" d="M718.714 699.515V497.391c0-14.788 11.805-26.82 26.316-26.82h323.003c14.512 0 26.317 12.032 26.317 26.82v202.124H718.714z"/><path fill="#E25476" d="M900.578 721.917c0-4.655 3.68-8.429 8.221-8.429 4.54 0 8.222 3.774 8.222 8.43 0 4.655-3.681 8.429-8.222 8.429-4.54 0-8.221-3.774-8.221-8.43z"/><path fill="#F2F2F2" d="M872.432 775.83h66.034v-26.872h-66.034z"/><g><path fill="#90CCB9" d="M718.714 699.515V497.391c0-14.788 11.805-26.82 26.316-26.82h323.003c14.512 0 26.317 12.032 26.317 26.82v202.124H718.714"/><path d="M718.714 699.515V497.391c0-14.788 11.805-26.82 26.316-26.82h323.003c14.512 0 26.317 12.032 26.317 26.82v202.124H718.714z"/><path fill="#90CCB9" d="M718.714 699.515V497.391c0-14.788 11.805-26.82 26.316-26.82h323.003c14.512 0 26.317 12.032 26.317 26.82v202.124H718.714"/><path fill="#F6F6F6" d="M718.714 699.515V497.391c0-14.788 11.805-26.82 26.316-26.82h323.003c14.512 0 26.317 12.032 26.317 26.82v202.124H718.714z"/></g><g transform="translate(695 436)"><use fill="#000" filter="url(#i)" xlink:href="#j"/><use fill="#FFF" xlink:href="#j"/></g><g><path fill="#FFF" d="M733.457 520.217h196.476v164.311H733.457z"/><text fill="#2F2F2F" font-family="Roboto-Regular, Roboto" font-size="12" transform="translate(726 481)"><tspan x="59.975" y="35">Concepts for You</tspan></text><text fill="#2F2F2F" font-family="Roboto-Medium, Roboto" font-size="14" font-weight="400" transform="translate(726 481)"><tspan x="44.9" y="13">YOUR STUDY PLAN</tspan></text><text fill="#6C6C6C" font-family="Roboto-Light, Roboto" font-size="9.36" font-weight="300" transform="translate(726 481)"><tspan x="17" y="69">Newton’s First Law</tspan></text><text fill="#6C6C6C" font-family="Roboto-Light, Roboto" font-size="9.36" font-weight="300" transform="translate(726 481)"><tspan x="16.572" y="108.124">Roots of Quadratic Equation</tspan></text><text fill="#6C6C6C" font-family="Roboto-Light, Roboto" font-size="9.36" font-weight="300" transform="translate(726 481)"><tspan x="16.572" y="147.437">Xenon Tetrafluoride</tspan></text><g transform="translate(885 539)"><rect width="38" height="12" fill="#50B7E8" rx="6"/><text fill="#FFF" font-family="Roboto-Medium, Roboto" font-size="6" font-weight="400"><tspan x="9.928" y="8">START</tspan></text></g><path stroke="#F5F5F5" stroke-linecap="square" stroke-width=".936" d="M727.255 564.468h211.119M727.255 602.468h211.119M727.255 641.468h211.119"/><g transform="translate(885 580)"><rect width="38" height="12" fill="#39BB9C" rx="6"/><text fill="#FFF" font-family="Roboto-Medium, Roboto" font-size="6" font-weight="400"><tspan x="10.143" y="8">DONE</tspan></text></g><g transform="translate(885 617)"><rect width="38" height="12" fill="#39BB9C" rx="6"/><text fill="#FFF" font-family="Roboto-Medium, Roboto" font-size="6" font-weight="400"><tspan x="11.143" y="8">DONE</tspan></text></g><text fill="#6C6C6C" font-family="Roboto-Light, Roboto" font-size="9.36" font-weight="300" transform="translate(726 481)"><tspan x="16.572" y="181.135">Equation of Chord</tspan></text><g transform="translate(885 654)"><rect width="38" height="12" fill="#F49C53" rx="6"/><text fill="#FFF" font-family="Roboto-Medium, Roboto" font-size="6" font-weight="400"><tspan x="7.343" y="8">RESUME</tspan></text></g></g><g transform="translate(695 436)"><use fill="#000" filter="url(#k)" xlink:href="#l"/><use fill="#FFF" xlink:href="#l"/></g><g><text fill="#2F2F2F" font-family="National-Regular, National" font-size="13" transform="translate(973 543)"><tspan x="5.426" y="13.693">Ionic Equilibrium</tspan></text><text fill="#6C6C6C" font-family="Roboto-Light, Roboto" font-size="9.36" font-weight="300" transform="translate(973 543)"><tspan x=".962" y="36">23 Q handpicked for you</tspan></text><g transform="translate(1005 601)"><rect width="38" height="12" fill="#50B7E8" rx="6"/><text fill="#FFF" font-family="Roboto-Medium, Roboto" font-size="6" font-weight="400"><tspan x="9.928" y="8">START</tspan></text></g><text fill="#2F2F2F" font-family="Roboto-Regular, Roboto" font-size="12" transform="translate(969 468)"><tspan x="5.215" y="11" font-family="National-Book">Questions For You</tspan></text><g><path fill="#D8D8D8" d="M969 498h102v4.001H969z"/><path fill="#50B7E8" d="M969 498h72v4.001h-72z"/></g></g></g><g><path stroke="#F48BA4" stroke-width="1.6" d="M836.803 409.59v-109a9.6 9.6 0 0 0-9.6-9.6h-24.317c-5.461 0-9.869-4.455-9.869-9.973v-80.223c0-5.518 4.408-9.972 9.869-9.972h66.228c5.461 0 9.467 3.116 9.467 9.972v80.223c-.402 4.764-4.419 8.37-8.837 9.973h-10.445"/><path fill="#FFF5F7" stroke="#F48BA4" stroke-width="1.6" d="M874.162 239.679c0-2.199 1.8-3.982 4.02-3.982 2.22 0 4.02 1.783 4.02 3.982 0 2.199-1.8 3.98-4.02 3.98-2.22 0-4.02-1.781-4.02-3.98zM850.863 290.965c0-2.199 1.8-3.982 4.02-3.982 2.22 0 4.02 1.783 4.02 3.982 0 2.199-1.8 3.98-4.02 3.98-2.22 0-4.02-1.781-4.02-3.98zM833.188 411.968c0-2.198 1.8-3.981 4.02-3.981 2.22 0 4.02 1.783 4.02 3.981 0 2.2-1.8 3.98-4.02 3.98-2.22 0-4.02-1.78-4.02-3.98zM789 213.234c0-2.198 1.8-3.981 4.02-3.981 2.22 0 4.02 1.783 4.02 3.981 0 2.2-1.8 3.98-4.02 3.98-2.22 0-4.02-1.78-4.02-3.98z"/><path fill="#FFF" fill-rule="nonzero" d="M802.748 282.976c-1.823 0-3.304-1.47-3.304-3.28v-79.183c0-1.81 1.481-3.28 3.304-3.28h66.504c1.823 0 3.304 1.47 3.304 3.28v79.182c0 1.81-1.481 3.281-3.304 3.281h-66.504z"/><path fill="#EA5A7D" fill-rule="nonzero" d="M819.3 225.28l3.462-3.454a2.665 2.665 0 0 0 0-3.778 2.682 2.682 0 0 0-3.786 0l-3.463 3.454-3.463-3.454a2.682 2.682 0 0 0-3.787 0 2.665 2.665 0 0 0 0 3.778l3.463 3.453-3.463 3.454a2.665 2.665 0 0 0 0 3.777 2.682 2.682 0 0 0 3.787 0l3.463-3.453 3.463 3.453a2.682 2.682 0 0 0 3.786 0 2.665 2.665 0 0 0 0-3.777l-3.462-3.454z"/><g fill-rule="nonzero"><path fill="#EA5A7D" d="M861.274 227.372a2.735 2.735 0 0 1-3.904 0l-.836-.765v9.779c0 4.534-3.737 8.194-8.367 8.194h-22.681c-1.562 0-2.789 1.202-2.789 2.731v11.29c0 .904-.428 1.693-1.1 2.188a2.834 2.834 0 0 1-1.689.544c-1.561 0-2.788-1.202-2.788-2.732v-11.29c0-4.534 3.736-8.194 8.366-8.194h22.682c1.561 0 2.788-1.202 2.788-2.731v-9.779l-.837.765a2.735 2.735 0 0 1-3.904 0 2.603 2.603 0 0 1 0-3.824l5.578-5.463a2.735 2.735 0 0 1 3.904 0l5.577 5.463a2.603 2.603 0 0 1 0 3.824z" opacity=".8"/><path fill="#F6B72C" d="M849.814 184.6h-3.976c-1.348-3.828-5.346-6.6-9.727-6.6-4.38 0-8.38 2.772-9.727 6.6h-3.976c-5.594 0-10.109 4.423-10.109 9.902 0 5.478 4.515 9.9 10.109 9.9h27.406c5.594 0 10.109-4.422 10.109-9.9 0-5.48-4.515-9.901-10.109-9.901z"/></g><path fill="#EA5A7D" fill-rule="nonzero" d="M859.47 264.545l3.463-3.453a2.665 2.665 0 0 0 0-3.778 2.682 2.682 0 0 0-3.787 0l-3.462 3.454-3.463-3.454a2.682 2.682 0 0 0-3.787 0 2.665 2.665 0 0 0 0 3.778l3.463 3.453-3.463 3.454a2.665 2.665 0 0 0 0 3.777 2.682 2.682 0 0 0 3.787 0l3.463-3.453 3.462 3.453a2.682 2.682 0 0 0 3.787 0 2.665 2.665 0 0 0 0-3.777l-3.462-3.454z"/><path fill="#F8E494" fill-rule="nonzero" d="M860.847 194.757c0 5.563-4.44 10.054-9.943 10.054h-13.478V178c4.309 0 8.242 2.815 9.567 6.703h3.911c5.502 0 9.943 4.49 9.943 10.054z"/><path fill="#EA5A7D" fill-rule="nonzero" d="M819.53 272.559c-3.987 0-7.23-3.235-7.23-7.212s3.243-7.212 7.23-7.212c3.987 0 7.23 3.235 7.23 7.212s-3.243 7.212-7.23 7.212z"/><g transform="translate(906 154)"><rect width="480" height="237" fill="#FFF" rx="70"/><g transform="translate(40 32)"><ellipse cx="30" cy="31.127" fill="#EA5A7D" rx="29.472" ry="30.611"/><path fill="#FFF" d="M30.572 13.263a8.928 8.928 0 0 0-.413-.018c-.18.006-.29.009-.429.018-6.755.473-11.847 6.174-11.847 13.09 0 8.431 7.21 11.419 7.21 14.717v.015H35.506v-.015c0-3.298 7.063-6.278 7.063-14.71 0-6.915-5.24-12.624-11.996-13.097"/><path fill="#FFE3EA" d="M34.046 14.008c3.199 2.647 5.12 6.514 5.12 10.806 0 9.27-8.709 12.539-8.709 16.165v.106h5.049v-.015c0-3.298 7.062-6.278 7.062-14.71 0-5.668-3.558-10.526-8.522-12.352"/><path fill="#C80" d="M37.173 25.448c-.494-2.173-1.98-3.986-3.975-4.85a.993.993 0 0 0-.214-.064 6.55 6.55 0 0 0-3.664-.347 6.663 6.663 0 0 0-3.536 1.926l-.009.01a7.091 7.091 0 0 0-1.966 4.903c0 .01-.003.018-.003.027l.002.069a6.918 6.918 0 0 0 .025.53c.003.037.004.075.008.113a6.851 6.851 0 0 0 .076.54c.058.327.137.646.237.957l.006.018c.902 2.768 3.434 4.768 6.412 4.768.564 0 1.022-.473 1.022-1.057 0-.583-.458-1.056-1.022-1.056-1.95 0-3.628-1.229-4.347-2.977-.002-.003-.002-.007-.003-.01a5.076 5.076 0 0 1-.298-1.038l-.005-.03a5.226 5.226 0 0 1-.045-.34l-.001-.013a5.425 5.425 0 0 1-.019-.294l-.002-.111a4.954 4.954 0 0 1 1.378-3.515l.004-.005c1.365-1.404 3.391-1.812 5.166-1.039.044.02.09.03.135.044 1.293.606 2.261 1.991 2.62 3.41.018.067-.003.389-.172.389h-6.05c-.565 0-1.022.558-1.022 1.141 0 .584.457 1.142 1.022 1.142h6.203c.645 0 1.243-.593 1.642-1.116.398-.523.542-1.48.395-2.125"/><g transform="translate(23.674 20.025)"><mask id="n" fill="#fff"><use xlink:href="#m"/></mask><use fill="#EA5A7D" xlink:href="#m"/><path fill="#EF990F" d="M30.569 2.535L-.108 34.253l-5.486-5.341L25.082-2.805z" mask="url(#n)"/></g><g><path fill="#FFF" d="M35.58 46.068H24.956c-1.021 0-1.85-.856-1.85-1.911 0-1.056.829-1.912 1.85-1.912H35.58c1.02 0 1.848.856 1.848 1.912 0 1.055-.827 1.91-1.848 1.91M34.41 50.789h-8.284c-.968 0-1.753-.811-1.753-1.812 0-1 .785-1.812 1.753-1.812h8.284c.968 0 1.753.811 1.753 1.812s-.785 1.812-1.753 1.812M27.445 51.807c-.132 0-.211.14-.137.242a3.647 3.647 0 0 0 2.96 1.487c1.234 0 2.32-.6 2.96-1.487.074-.103-.005-.242-.137-.242h-5.646z"/><path fill="#EA5A7D" d="M22.031 24.846c-1.27-.933-1.25-3.215.043-5.096 1.294-1.88 3.371-2.648 4.641-1.715s1.25 3.215-.043 5.096c-1.293 1.88-3.371 2.648-4.641 1.715" opacity=".1"/><path stroke="#FFF" stroke-linecap="round" stroke-linejoin="round" stroke-width="1.132" d="M29.235 10.42V8.465M40.64 14.835l1.535-1.586M41.318 36.969l1.534 1.587M45.602 25.163h2.208M19.193 14.835L17.66 13.25M18.516 36.969l-1.535 1.587M14.366 25.163h-2.208"/></g></g><text fill="#2F2F2F" font-family="National-Book, National" font-size="24" font-weight="300" transform="translate(40 32)"><tspan x="0" y="103" font-family="National-Book">Choose amongst our unlimited</tspan> <tspan x="0" y="135">assessments on any part of </tspan> <tspan x="0" y="167">the syllabus</tspan></text></g></g><g stroke="#F48BA4" stroke-width="2"><path d="M602 61.76a25.254 25.254 0 0 1 6.164-.76c12.2 0 22.456 8.69 25.426 20.472a16.406 16.406 0 0 1 6.296-1.266c9.452 0 17.114 8.012 17.114 17.897 0 9.885-7.662 17.897-17.114 17.897h-14.017"/><path fill="#FFF5F7" d="M602 61a5 5 0 1 1 10.001 0A5 5 0 0 1 602 61z"/><path d="M586 74c2.423-4.257 5.885-7.733 10-10M568 89a13.873 13.873 0 0 1 14.375-1.88A26.52 26.52 0 0 1 584 79M608 116h-31.814c-7.835 0-14.186-6.715-14.186-15"/><path fill="#FFF5F7" d="M557 101a5 5 0 1 1 10.001 0A5 5 0 0 1 557 101z"/><path d="M621 116h-8"/><g transform="translate(438 102)"><circle cx="5" cy="49" r="5" fill="#FFF5F7"/><path stroke-dasharray="1,8" stroke-linecap="round" d="M10 47L119.5.5"/></g><g transform="translate(656 108)"><path stroke-dasharray="1,8" stroke-linecap="round" d="M0 0l103 71"/><circle cx="108" cy="76" r="5" fill="#FFF5F7"/></g></g><g transform="translate(-50 56)"><rect width="480" height="256" fill="#FFF" rx="100"/><text fill="#2F2F2F" font-family="National-Book, National" font-size="24" font-weight="300" transform="translate(90 32)"><tspan x="0" y="124" font-family="National-Book">The syllabus is so vast. I don’t know </tspan> <tspan x="0" y="155">how to plan to study 15,000 </tspan> <tspan x="0" y="186">concepts in 100 chapters !</tspan></text><g transform="translate(90 32.124)"><mask id="q" fill="#fff"><use xlink:href="#o"/></mask><path fill="url(#p)" d="M62.835 31.543c0 17.33-14.066 31.378-31.418 31.378C14.067 62.921 0 48.872 0 31.543 0 14.213 14.066.165 31.417.165c17.352 0 31.418 14.048 31.418 31.378" mask="url(#q)"/></g><path stroke="#403408" stroke-linecap="round" stroke-linejoin="round" stroke-width="3.99" d="M112.204 56.517l-7.483 4.236"/><path stroke="#403408" stroke-linecap="round" stroke-linejoin="round" stroke-width="3.944" d="M138.173 60.753l-7.369-4.274"/><path stroke="#403408" stroke-linecap="round" stroke-width="3.206" d="M110.159 76.357s2.38-8.32 11.309-8.32c8.929 0 11.208 8.255 11.208 8.255"/><g><path fill="#777" d="M170.56 85.313l6.552 2.647 1.32-3.267-6.553-2.647z"/><path fill="#AAA" d="M170.39 81.444l9.233 3.73 1.44-3.563-9.233-3.73z"/><path fill="#ED6060" d="M152.708 94.336c3.38-8.364 12.92-12.397 21.31-9.008 8.389 3.39 12.45 12.918 9.07 21.282-3.379 8.365-12.92 12.398-21.309 9.008-8.389-3.39-12.45-12.918-9.07-21.282"/><path fill="#E23B3B" d="M152.764 107.06c3.65 8.564 13.278 12.306 21.674 8.757 8.397-3.55 12.381-13.046 8.732-21.61l-30.406 12.853z"/><path fill="#FFF" d="M156.342 95.631c2.618-6.478 10.007-9.601 16.505-6.976 6.497 2.625 9.643 10.005 7.025 16.483-2.617 6.479-10.006 9.602-16.504 6.977-6.497-2.625-9.643-10.005-7.026-16.484"/><path stroke="#777" stroke-linecap="round" stroke-linejoin="round" stroke-width=".939" d="M176.135 97.238l1.254-.53M171.754 108.94l.533 1.251M164.52 92.544l-.535-1.251M159.542 104.006l-1.253.53"/><path stroke="#777" stroke-linecap="round" stroke-linejoin="round" stroke-width="1.277" d="M169.64 95.304l-2.28 5.643 5.66 2.286"/><path fill="#FFF" d="M158.027 102.337c-.393-.51-.504-1.306-.534-1.8a.19.19 0 0 0-.323-.13c-.365.335-.997.83-1.634.923a.209.209 0 0 0-.134.332c.393.51.504 1.306.534 1.8.01.168.2.245.323.13.364-.335.997-.83 1.634-.923a.208.208 0 0 0 .134-.332"/></g></g></g></svg>