<svg height="918" viewBox="0 0 1280 918" width="1280" xmlns="http://www.w3.org/2000/svg" xmlns:xlink="http://www.w3.org/1999/xlink"><defs><linearGradient id="a" x1="100%" x2="30.94%" y1="-14.062%" y2="47.607%"><stop offset="0" stop-color="#fff1e2"/><stop offset="1" stop-color="#fff4f9"/></linearGradient><path id="b" d="m0 0h1280v918h-1280z"/><linearGradient id="c" x1="77.39%" x2="-28.947%" y1="-19.442%" y2="140.996%"><stop offset="0" stop-color="#fff7f2"/><stop offset="1" stop-color="#ffdaeb"/></linearGradient><path id="d" d="m5.646.161a6.661 6.661 0 0 0 -3.536 1.926l-.009.012a7.091 7.091 0 0 0 -1.966 4.901l-.002.027.001.069a8.036 8.036 0 0 0 .025.529l.009.114c.014.152.036.302.06.451l.015.088c.058.328.137.647.237.958l.006.017c.902 2.769 3.435 4.769 6.412 4.769.564 0 1.022-.473 1.022-1.057 0-.583-.458-1.056-1.022-1.056-1.95 0-3.628-1.229-4.347-2.977l-.003-.01a5.082 5.082 0 0 1 -.297-1.038l-.006-.03a5.206 5.206 0 0 1 -.045-.34l-.001-.013a5.123 5.123 0 0 1 -.018-.295c-.001-.036-.003-.073-.003-.11a4.952 4.952 0 0 1 1.378-3.515l.004-.005c1.365-1.404 3.392-1.812 5.166-1.039.044.02.09.03.135.043 1.294.607 2.262 1.992 2.621 3.41.017.068-.003.39-.173.39h-6.049c-.565 0-1.022.558-1.022 1.141 0 .584.457 1.142 1.022 1.142h6.203c.645 0 1.244-.593 1.643-1.117.397-.522.541-1.478.394-2.125-.493-2.172-1.98-3.985-3.974-4.849-.07-.03-.142-.05-.215-.064a6.583 6.583 0 0 0 -3.665-.348z"/><rect id="e" height="225" rx="14" width="355" x="168" y="17"/><filter id="f" height="116.9%" width="110.7%" x="-5.4%" y="-7.6%"><feOffset dy="2" in="SourceAlpha" result="shadowOffsetOuter1"/><feGaussianBlur in="shadowOffsetOuter1" result="shadowBlurOuter1" stdDeviation="6"/><feColorMatrix in="shadowBlurOuter1" values="0 0 0 0 0.654901961 0 0 0 0 0.654901961 0 0 0 0 0.654901961 0 0 0 0.199699955 0"/></filter><path id="g" d="m5.646.161a6.661 6.661 0 0 0 -3.536 1.926l-.009.012a7.091 7.091 0 0 0 -1.966 4.901l-.002.027.001.069a8.036 8.036 0 0 0 .025.529l.009.114c.014.152.036.302.06.451l.015.088c.058.328.137.647.237.958l.006.017c.902 2.769 3.435 4.769 6.412 4.769.564 0 1.022-.473 1.022-1.057 0-.583-.458-1.056-1.022-1.056-1.95 0-3.628-1.229-4.347-2.977l-.003-.01a5.082 5.082 0 0 1 -.297-1.038l-.006-.03a5.206 5.206 0 0 1 -.045-.34l-.001-.013a5.123 5.123 0 0 1 -.018-.295c-.001-.036-.003-.073-.003-.11a4.952 4.952 0 0 1 1.378-3.515l.004-.005c1.365-1.404 3.392-1.812 5.166-1.039.044.02.09.03.135.043 1.294.607 2.262 1.992 2.621 3.41.017.068-.003.39-.173.39h-6.049c-.565 0-1.022.558-1.022 1.141 0 .584.457 1.142 1.022 1.142h6.203c.645 0 1.244-.593 1.643-1.117.397-.522.541-1.478.394-2.125-.493-2.172-1.98-3.985-3.974-4.849-.07-.03-.142-.05-.215-.064a6.583 6.583 0 0 0 -3.665-.348z"/><linearGradient id="h" x1="50%" x2="50%" y1="0%" y2="100%"><stop offset="0" stop-color="#ffe47a"/><stop offset="1" stop-color="#ffd21f"/></linearGradient><mask id="i" fill="#fff"><use fill="none" xlink:href="#b"/></mask><mask id="j" fill="#fff"><use fill="none" xlink:href="#d"/></mask><mask id="k" fill="#fff"><use fill="none" xlink:href="#g"/></mask><mask id="l" fill="#fff"><path d="m0 .165h62.835v62.755h-62.835z" fill="none"/></mask></defs><g fill="none" fill-rule="evenodd"><use fill="url(#a)" xlink:href="#b"/><path d="m-159.87 990.746 594-174-101 532h-493z" fill="url(#c)" mask="url(#i)" transform="matrix(.99026807 .1391731 -.1391731 .99026807 152.023658 -8.547598)"/><g mask="url(#i)" opacity=".439"><g transform="translate(-20 -148)"><g stroke="#f7dce3" stroke-width="2"><path d="m12 519h245v-301.796c-.67-22.804-8.702-34.204-24.098-34.204h-220.902z"/><path d="m12 637h95.524c16.759-2.015 25.138-10.745 25.138-26.191v-221.619c-2.012-17.459 5.028-26.19 21.116-26.19s394.162 3.694 1134.222 11.08"/><path d="m9 882.969h291.9c21.4.668 32.1-9.359 32.1-30.08 0-20.722-1.337-132.018-4.012-333.889"/><path d="m258.118 520v221.5c-1.337 21.471 8.691 32.207 30.085 32.207h248.708c21.393 1.343 32.089 12.417 32.089 33.224s-2.006 172.83-6.017 456.069"/><path d="m363 1269v-328.882c3.347-21.416 20.751-30.783 52.213-28.101 31.462 2.681 201.488 2.681 510.08 0 28.784-1.341 44.85 5.698 48.197 21.117 3.347 15.42 3.347 88.492 0 219.218-1.339 16.09-13.053 24.134-35.144 24.134h-163.666c-22.09-2.011-33.135-11.397-33.135-28.156 0-16.76 2.343-276.537 7.028-779.33"/><path d="m1279 1038h-420v228"/><path d="m1120.933 1269v-951.247c4.03-20.111-3.357-30.167-22.16-30.167h-659.773v-287.586"/><path d="m1285 94.502h-913.699c-27.474-2.677-41.212 5.354-41.212 24.093v83.32c-1.339 14.723 12.397 22.085 41.212 22.085s152.116-1.673 369.903-5.02m2.796-210.98v281m72-284v283"/><path d="m1015 4v600.797c-2.016 21.469-13.443 32.203-34.279 32.203h-88.721"/><path d="m1252 8v659.521c-.67 19.437-9.385 29.156-26.144 29.156h-295.624c-28.155 2.01-42.232-5.362-42.232-22.118s2.011-95.845 6.033-237.267l351.934 2.01m-1043.967 830.698v-264.46c1.34-16.758 11.05-25.136 29.134-25.136h170.783c12.055 2.01 18.083-9.05 18.083-33.183s-.67-218.874-2.01-584.221m-162.99 157h163m-406 211h41c14.667 3.351 22 11.393 22 24.127v325.72c-1.333 19.434-8.667 29.153-22 29.153h-53z"/></g><g fill="#ffd5df"><circle cx="742.5" cy="216.5" r="14.5"/><circle cx="888.5" cy="637.5" r="14.5"/><circle cx="1122" cy="701" r="11"/><circle cx="440" cy="277" r="11"/><circle cx="133" cy="519" r="11"/><circle cx="418" cy="520" r="11"/><circle cx="75" cy="883" r="11"/></g></g></g><rect fill="#fff" height="333" rx="70" width="671" x="-54" y="475"/><g transform="translate(40 507)"><text fill="#2f2f2f" font-family="National-Book, National" font-size="24" font-weight="300"><tspan x="0" y="103">Why not expose yourself to that reality as you prepare?</tspan> <tspan x="0" y="134">RANKUP predicts your college and branch right from</tspan> <tspan x="0" y="165">your first test and links improvement plans to the next</tspan> <tspan x="0" y="196">level of college so that you are mindful of what you need</tspan> <tspan x="0" y="227">to do and work accordingly to ensure you end up at your</tspan> <tspan x="0" y="258">dream college! This is the power of data.</tspan></text><ellipse cx="30" cy="31.127" fill="#ea5a7d" rx="29.472" ry="30.611"/><path d="m30.572 13.263a8.928 8.928 0 0 0 -.413-.018c-.18.006-.29.009-.429.018-6.755.473-11.847 6.174-11.847 13.09 0 8.431 7.21 11.419 7.21 14.717v.015h10.413v-.015c0-3.298 7.063-6.278 7.063-14.71 0-6.915-5.24-12.624-11.996-13.097" fill="#fff"/><path d="m34.046 14.008c3.199 2.647 5.12 6.514 5.12 10.806 0 9.27-8.709 12.539-8.709 16.165v.106h5.049v-.015c0-3.298 7.062-6.278 7.062-14.71 0-5.668-3.558-10.526-8.522-12.352" fill="#ffe3ea"/><path d="m37.173 25.448c-.494-2.173-1.98-3.986-3.975-4.85a.993.993 0 0 0 -.214-.064 6.55 6.55 0 0 0 -3.664-.347 6.663 6.663 0 0 0 -3.536 1.926l-.009.01a7.091 7.091 0 0 0 -1.966 4.903c0 .01-.003.018-.003.027l.002.069a6.918 6.918 0 0 0 .025.53c.003.037.004.075.008.113a6.851 6.851 0 0 0 .076.54c.058.327.137.646.237.957l.006.018c.902 2.768 3.434 4.768 6.412 4.768.564 0 1.022-.473 1.022-1.057 0-.583-.458-1.056-1.022-1.056-1.95 0-3.628-1.229-4.347-2.977-.002-.003-.002-.007-.003-.01a5.076 5.076 0 0 1 -.298-1.038l-.005-.03a5.226 5.226 0 0 1 -.045-.34l-.001-.013a5.425 5.425 0 0 1 -.019-.294l-.002-.111a4.954 4.954 0 0 1 1.378-3.515l.004-.005c1.365-1.404 3.391-1.812 5.166-1.039.044.02.09.03.135.044 1.293.606 2.261 1.991 2.62 3.41.018.067-.003.389-.172.389h-6.05c-.565 0-1.022.558-1.022 1.141 0 .584.457 1.142 1.022 1.142h6.203c.645 0 1.243-.593 1.642-1.116.398-.523.542-1.48.395-2.125" fill="#c80"/><g transform="translate(23.674 20.025)"><use fill="#ea5a7d" xlink:href="#d"/><path d="m30.569 2.535-30.677 31.718-5.486-5.341 30.676-31.717z" fill="#ef990f" mask="url(#j)"/></g><path d="m35.58 46.068h-10.624c-1.021 0-1.85-.856-1.85-1.911 0-1.056.829-1.912 1.85-1.912h10.624c1.02 0 1.848.856 1.848 1.912 0 1.055-.827 1.91-1.848 1.91m-1.17 4.722h-8.284c-.968 0-1.753-.811-1.753-1.812 0-1 .785-1.812 1.753-1.812h8.284c.968 0 1.753.811 1.753 1.812s-.785 1.812-1.753 1.812m-6.965 1.018c-.132 0-.211.14-.137.242a3.647 3.647 0 0 0 2.96 1.487c1.234 0 2.32-.6 2.96-1.487.074-.103-.005-.242-.137-.242z" fill="#fff"/><path d="m22.031 24.846c-1.27-.933-1.25-3.215.043-5.096 1.294-1.88 3.371-2.648 4.641-1.715s1.25 3.215-.043 5.096c-1.293 1.88-3.371 2.648-4.641 1.715" fill="#ea5a7d" opacity=".1"/><path d="m29.235 10.42v-1.955m11.405 6.37 1.535-1.586m-.857 23.72 1.534 1.587m2.75-13.393h2.208m-28.617-10.328-1.533-1.585m.856 23.719-1.535 1.587m-2.615-13.393h-2.208" stroke="#fff" stroke-linecap="round" stroke-linejoin="round" stroke-width="1.132"/></g><path d="m524.5 798.653h669.015" fill="#d8d8d8" stroke="#f48ba4" stroke-dasharray="1 9" stroke-linecap="round" stroke-width="2"/><path d="m513 799a5 5 0 1 1 10.001 0 5 5 0 0 1 -10.001 0zm672 0a5 5 0 1 1 10.001 0 5 5 0 0 1 -10.001 0z" stroke="#f48ba4" stroke-width="1.667"/><path d="m906.868 788.863c-11.717-3.24-28.138-5.258-46.336-5.258-18.2 0-34.623 2.017-46.336 5.258h-18.076v11.937c0 9.498 28.836 17.199 64.41 17.199 35.572 0 64.41-7.701 64.41-17.199v-11.938h-18.073" fill="#bec4c1"/><path d="m906.868 788.863c-11.717-3.24-28.138-5.258-46.336-5.258-18.2 0-34.623 2.017-46.336 5.258h-18.076v11.937c0 9.498 28.836 17.199 64.41 17.199 35.572 0 64.41-7.701 64.41-17.199v-11.938h-18.073z" fill="#e5e5e5"/><path d="m796.121 786.83c0-9.497 28.836-17.198 64.41-17.198 35.572 0 64.41 7.701 64.41 17.198 0 9.498-28.838 17.197-64.41 17.197-35.574 0-64.41-7.7-64.41-17.197" fill="#eeeeea"/><path d="m796.121 786.83c0-9.497 28.836-17.198 64.41-17.198 35.572 0 64.41 7.701 64.41 17.198 0 9.498-28.838 17.197-64.41 17.197-35.574 0-64.41-7.7-64.41-17.197z" fill="#eeeded"/><path d="m649.98 710.538c0 27.294 21.531 49.42 48.09 49.42h322.759c26.558 0 48.088-22.126 48.088-49.42v-1.098h-418.936v1.098" fill="#fffffe"/><path d="m649.98 710.538c0 27.294 21.531 49.42 48.09 49.42h322.759c26.558 0 48.088-22.126 48.088-49.42v-1.098h-418.936v1.098z" fill="#f68da6"/><path d="m1020.829 459h-322.76c-26.558 0-48.088 21.894-48.088 48.904v201.536h418.936v-201.536c0-27.01-21.53-48.904-48.088-48.904" fill="#4e5554"/><path d="m1020.829 459h-322.76c-26.558 0-48.088 21.894-48.088 48.904v201.536h418.936v-201.536c0-27.01-21.53-48.904-48.088-48.904z" fill="#ffaec2"/><path d="m672.714 710.515v-202.124c0-14.788 11.805-26.82 26.316-26.82h323.003c14.512 0 26.317 12.032 26.317 26.82v202.124z" fill="#90ccb9"/><path d="m672.714 710.515v-202.124c0-14.788 11.805-26.82 26.316-26.82h323.003c14.512 0 26.317 12.032 26.317 26.82v202.124z"/><path d="m672.714 710.515v-202.124c0-14.788 11.805-26.82 26.316-26.82h323.003c14.512 0 26.317 12.032 26.317 26.82v202.124z" fill="#90ccb9"/><path d="m672.714 710.515v-202.124c0-14.788 11.805-26.82 26.316-26.82h323.003c14.512 0 26.317 12.032 26.317 26.82v202.124z" fill="#fff9fa"/><path d="m854.578 732.917c0-4.655 3.68-8.429 8.221-8.429 4.54 0 8.222 3.774 8.222 8.43 0 4.655-3.681 8.429-8.222 8.429-4.54 0-8.221-3.774-8.221-8.43z" fill="#e25476"/><path d="m826.432 786.83h66.034v-26.872h-66.034z" fill="#f2f2f2"/><path d="m672.714 710.515v-202.124c0-14.788 11.805-26.82 26.316-26.82h323.003c14.512 0 26.317 12.032 26.317 26.82v202.124z" fill="#90ccb9"/><path d="m672.714 710.515v-202.124c0-14.788 11.805-26.82 26.316-26.82h323.003c14.512 0 26.317 12.032 26.317 26.82v202.124z"/><path d="m672.714 710.515v-202.124c0-14.788 11.805-26.82 26.316-26.82h323.003c14.512 0 26.317 12.032 26.317 26.82v202.124z" fill="#90ccb9"/><path d="m672.714 710.515v-202.124c0-14.788 11.805-26.82 26.316-26.82h323.003c14.512 0 26.317 12.032 26.317 26.82v202.124z" fill="#f6f6f6"/><g transform="translate(513 459)"><use fill="#000" filter="url(#f)" xlink:href="#e"/><use fill="#fff" xlink:href="#e"/></g><text fill="#2f2f2f" font-family="Roboto-Regular, Roboto" font-size="15" transform="translate(799 498)"><tspan x="1.511" y="14.864">College predictor</tspan></text><path d="m683.5 668.5h344" stroke="#f1f1f1" stroke-linecap="square"/><g transform="translate(709 533)"><g fill="#6c6c6c"><text font-family="Roboto-Light, Roboto" font-size="10" font-weight="300"><tspan x="1.858" y="9">Previous Score</tspan> <tspan x="15.906" y="22">Quotient</tspan></text><text font-family="Roboto-Light, Roboto" font-size="8" font-weight="300"><tspan x="13" y="118">IIT Guwahati</tspan></text><text font-family="Roboto-Regular, Roboto" font-size="16"><tspan x="8" y="55">71.05%</tspan></text></g><circle cx="35" cy="86" fill="#50b7e8" r="19"/><path d="m45 83.948v-1.834l-10-6.114-10 6.114v1.834h1.765v9.17h-1.177v1.834h18.824v-1.834h-1.177v-9.17zm-13.53 7.336h-2.352v-7.336h2.353v7.336zm4.706 0h-2.352v-7.336h2.352zm-1.176-9.17c-.975 0-1.765-.822-1.765-1.834 0-1.013.79-1.835 1.765-1.835s1.765.822 1.765 1.835c0 1.012-.79 1.834-1.765 1.834zm5.882 9.17h-2.352v-7.336h2.353v7.336z" fill="#fff" fill-rule="nonzero"/></g><g transform="translate(818 533)"><text fill="#2f2f2f" font-family="Roboto-Regular, Roboto" font-size="12"><tspan x="12.262" y="157">TODAY</tspan></text><g fill="#6c6c6c"><text font-family="Roboto-Light, Roboto" font-size="10" font-weight="300"><tspan x="1.48" y="9">Current Score</tspan> <tspan x="12.906" y="22">Quotient</tspan></text><text font-family="Roboto-Regular, Roboto" font-size="16"><tspan x="5" y="55">78.83%</tspan></text><text font-family="Roboto-Light, Roboto" font-size="8" font-weight="300"><tspan x="14.021" y="118">IIT Kanpur</tspan></text></g><circle cx="32" cy="86" fill="#ffde3f" r="19"/><path d="m42 83.948v-1.834l-10-6.114-10 6.114v1.834h1.765v9.17h-1.177v1.834h18.824v-1.834h-1.177v-9.17zm-13.53 7.336h-2.352v-7.336h2.353v7.336zm4.706 0h-2.352v-7.336h2.352zm-1.176-9.17c-.975 0-1.765-.822-1.765-1.834 0-1.013.79-1.835 1.765-1.835s1.765.822 1.765 1.835c0 1.012-.79 1.834-1.765 1.834zm5.882 9.17h-2.352v-7.336h2.353v7.336z" fill="#fff" fill-rule="nonzero"/></g><g transform="translate(921 533)"><text fill="#6c6c6c" font-family="Roboto-Light, Roboto" font-size="10" font-weight="300"><tspan x="9.488" y="9">Predicted Score</tspan> <tspan x="25.406" y="22">Quotient</tspan></text><text fill="#39bb9c" font-family="Roboto-Regular, Roboto" font-size="16"><tspan x="18" y="55">81.99%</tspan></text><text fill="#6c6c6c" font-family="Roboto-Light, Roboto" font-size="8" font-weight="300"><tspan x="24" y="118">IIT Bombay</tspan></text><text fill="#2f2f2f" font-family="Roboto-Regular, Roboto" font-size="12"><tspan x=".168" y="157">WHERE YOU GO</tspan></text><circle cx="44" cy="86" fill="#4183d7" r="19"/><path d="m54 83.948v-1.834l-10-6.114-10 6.114v1.834h1.765v9.17h-1.177v1.834h18.824v-1.834h-1.177v-9.17zm-13.53 7.336h-2.352v-7.336h2.353v7.336zm4.706 0h-2.352v-7.336h2.352zm-1.176-9.17c-.975 0-1.765-.822-1.765-1.834 0-1.013.79-1.835 1.765-1.835s1.765.822 1.765 1.835c0 1.012-.79 1.834-1.765 1.834zm5.882 9.17h-2.352v-7.336h2.353v7.336z" fill="#fff" fill-rule="nonzero"/></g><path d="m836.803 409.59v-109a9.6 9.6 0 0 0 -9.6-9.6h-24.317c-5.461 0-9.869-4.455-9.869-9.973v-80.223c0-5.518 4.408-9.972 9.869-9.972h66.228c5.461 0 9.467 3.116 9.467 9.972v80.223c-.402 4.764-4.419 8.37-8.837 9.973h-10.445" stroke="#f48ba4" stroke-width="1.6"/><path d="m874.162 239.679c0-2.199 1.8-3.982 4.02-3.982s4.02 1.783 4.02 3.982-1.8 3.98-4.02 3.98-4.02-1.781-4.02-3.98zm-23.299 51.286c0-2.199 1.8-3.982 4.02-3.982s4.02 1.783 4.02 3.982-1.8 3.98-4.02 3.98-4.02-1.781-4.02-3.98zm-17.675 121.003c0-2.198 1.8-3.981 4.02-3.981s4.02 1.783 4.02 3.981c0 2.2-1.8 3.98-4.02 3.98s-4.02-1.78-4.02-3.98zm-44.188-198.734c0-2.198 1.8-3.981 4.02-3.981s4.02 1.783 4.02 3.981c0 2.2-1.8 3.98-4.02 3.98s-4.02-1.78-4.02-3.98z" fill="#fff5f7" stroke="#f48ba4" stroke-width="1.6"/><g fill-rule="nonzero"><path d="m802.748 282.976c-1.823 0-3.304-1.47-3.304-3.28v-79.183c0-1.81 1.481-3.28 3.304-3.28h66.504c1.823 0 3.304 1.47 3.304 3.28v79.182c0 1.81-1.481 3.281-3.304 3.281z" fill="#fff"/><path d="m819.3 225.28 3.462-3.454a2.665 2.665 0 0 0 0-3.778 2.682 2.682 0 0 0 -3.786 0l-3.463 3.454-3.463-3.454a2.682 2.682 0 0 0 -3.787 0 2.665 2.665 0 0 0 0 3.778l3.463 3.453-3.463 3.454a2.665 2.665 0 0 0 0 3.777 2.682 2.682 0 0 0 3.787 0l3.463-3.453 3.463 3.453a2.682 2.682 0 0 0 3.786 0 2.665 2.665 0 0 0 0-3.777l-3.462-3.454z" fill="#ea5a7d"/><path d="m861.274 227.372a2.735 2.735 0 0 1 -3.904 0l-.836-.765v9.779c0 4.534-3.737 8.194-8.367 8.194h-22.681c-1.562 0-2.789 1.202-2.789 2.731v11.29c0 .904-.428 1.693-1.1 2.188a2.834 2.834 0 0 1 -1.689.544c-1.561 0-2.788-1.202-2.788-2.732v-11.29c0-4.534 3.736-8.194 8.366-8.194h22.682c1.561 0 2.788-1.202 2.788-2.731v-9.779l-.837.765a2.735 2.735 0 0 1 -3.904 0 2.603 2.603 0 0 1 0-3.824l5.578-5.463a2.735 2.735 0 0 1 3.904 0l5.577 5.463a2.603 2.603 0 0 1 0 3.824z" fill="#ea5a7d" opacity=".8"/><path d="m849.814 184.6h-3.976c-1.348-3.828-5.346-6.6-9.727-6.6-4.38 0-8.38 2.772-9.727 6.6h-3.976c-5.594 0-10.109 4.423-10.109 9.902 0 5.478 4.515 9.9 10.109 9.9h27.406c5.594 0 10.109-4.422 10.109-9.9 0-5.48-4.515-9.901-10.109-9.901z" fill="#f6b72c"/><path d="m859.47 264.545 3.463-3.453a2.665 2.665 0 0 0 0-3.778 2.682 2.682 0 0 0 -3.787 0l-3.462 3.454-3.463-3.454a2.682 2.682 0 0 0 -3.787 0 2.665 2.665 0 0 0 0 3.778l3.463 3.453-3.463 3.454a2.665 2.665 0 0 0 0 3.777 2.682 2.682 0 0 0 3.787 0l3.463-3.453 3.462 3.453a2.682 2.682 0 0 0 3.787 0 2.665 2.665 0 0 0 0-3.777l-3.462-3.454z" fill="#ea5a7d"/><path d="m860.847 194.757c0 5.563-4.44 10.054-9.943 10.054h-13.478v-26.811c4.309 0 8.242 2.815 9.567 6.703h3.911c5.502 0 9.943 4.49 9.943 10.054z" fill="#f8e494"/><path d="m819.53 272.559c-3.987 0-7.23-3.235-7.23-7.212s3.243-7.212 7.23-7.212 7.23 3.235 7.23 7.212-3.243 7.212-7.23 7.212z" fill="#ea5a7d"/></g><rect fill="#fff" height="237" rx="70" width="480" x="906" y="154"/><g transform="translate(946 186)"><ellipse cx="30" cy="31.127" fill="#ea5a7d" rx="29.472" ry="30.611"/><path d="m30.572 13.263a8.928 8.928 0 0 0 -.413-.018c-.18.006-.29.009-.429.018-6.755.473-11.847 6.174-11.847 13.09 0 8.431 7.21 11.419 7.21 14.717v.015h10.413v-.015c0-3.298 7.063-6.278 7.063-14.71 0-6.915-5.24-12.624-11.996-13.097" fill="#fff"/><path d="m34.046 14.008c3.199 2.647 5.12 6.514 5.12 10.806 0 9.27-8.709 12.539-8.709 16.165v.106h5.049v-.015c0-3.298 7.062-6.278 7.062-14.71 0-5.668-3.558-10.526-8.522-12.352" fill="#ffe3ea"/><path d="m37.173 25.448c-.494-2.173-1.98-3.986-3.975-4.85a.993.993 0 0 0 -.214-.064 6.55 6.55 0 0 0 -3.664-.347 6.663 6.663 0 0 0 -3.536 1.926l-.009.01a7.091 7.091 0 0 0 -1.966 4.903c0 .01-.003.018-.003.027l.002.069a6.918 6.918 0 0 0 .025.53c.003.037.004.075.008.113a6.851 6.851 0 0 0 .076.54c.058.327.137.646.237.957l.006.018c.902 2.768 3.434 4.768 6.412 4.768.564 0 1.022-.473 1.022-1.057 0-.583-.458-1.056-1.022-1.056-1.95 0-3.628-1.229-4.347-2.977-.002-.003-.002-.007-.003-.01a5.076 5.076 0 0 1 -.298-1.038l-.005-.03a5.226 5.226 0 0 1 -.045-.34l-.001-.013a5.425 5.425 0 0 1 -.019-.294l-.002-.111a4.954 4.954 0 0 1 1.378-3.515l.004-.005c1.365-1.404 3.391-1.812 5.166-1.039.044.02.09.03.135.044 1.293.606 2.261 1.991 2.62 3.41.018.067-.003.389-.172.389h-6.05c-.565 0-1.022.558-1.022 1.141 0 .584.457 1.142 1.022 1.142h6.203c.645 0 1.243-.593 1.642-1.116.398-.523.542-1.48.395-2.125" fill="#c80"/><g transform="translate(23.674 20.025)"><use fill="#ea5a7d" xlink:href="#g"/><path d="m30.569 2.535-30.677 31.718-5.486-5.341 30.676-31.717z" fill="#ef990f" mask="url(#k)"/></g><path d="m35.58 46.068h-10.624c-1.021 0-1.85-.856-1.85-1.911 0-1.056.829-1.912 1.85-1.912h10.624c1.02 0 1.848.856 1.848 1.912 0 1.055-.827 1.91-1.848 1.91m-1.17 4.722h-8.284c-.968 0-1.753-.811-1.753-1.812 0-1 .785-1.812 1.753-1.812h8.284c.968 0 1.753.811 1.753 1.812s-.785 1.812-1.753 1.812m-6.965 1.018c-.132 0-.211.14-.137.242a3.647 3.647 0 0 0 2.96 1.487c1.234 0 2.32-.6 2.96-1.487.074-.103-.005-.242-.137-.242z" fill="#fff"/><path d="m22.031 24.846c-1.27-.933-1.25-3.215.043-5.096 1.294-1.88 3.371-2.648 4.641-1.715s1.25 3.215-.043 5.096c-1.293 1.88-3.371 2.648-4.641 1.715" fill="#ea5a7d" opacity=".1"/><path d="m29.235 10.42v-1.955m11.405 6.37 1.535-1.586m-.857 23.72 1.534 1.587m2.75-13.393h2.208m-28.617-10.328-1.533-1.585m.856 23.719-1.535 1.587m-2.615-13.393h-2.208" stroke="#fff" stroke-linecap="round" stroke-linejoin="round" stroke-width="1.132"/><text fill="#2f2f2f" font-family="National-Book, National" font-size="24" font-weight="300"><tspan x="0" y="103">Choose amongst our unlimited</tspan> <tspan x="0" y="135">assessments on any part of</tspan> <tspan x="0" y="167">the syllabus</tspan></text></g><g stroke="#f48ba4" stroke-width="2"><path d="m602 61.76a25.254 25.254 0 0 1 6.164-.76c12.2 0 22.456 8.69 25.426 20.472a16.406 16.406 0 0 1 6.296-1.266c9.452 0 17.114 8.012 17.114 17.897s-7.662 17.897-17.114 17.897h-14.017"/><path d="m602 61a5 5 0 1 1 10.001 0 5 5 0 0 1 -10.001 0z" fill="#fff5f7"/><path d="m586 74c2.423-4.257 5.885-7.733 10-10m-28 25a13.873 13.873 0 0 1 14.375-1.88 26.52 26.52 0 0 1 1.625-8.12m24 37h-31.814c-7.835 0-14.186-6.715-14.186-15"/><path d="m557 101a5 5 0 1 1 10.001 0 5 5 0 0 1 -10.001 0z" fill="#fff5f7"/><path d="m621 116h-8"/><g transform="translate(438 102)"><circle cx="5" cy="49" fill="#fff5f7" r="5"/><path d="m10 47 109.5-46.5" stroke-dasharray="1 8" stroke-linecap="round"/></g><g transform="translate(656 108)"><path d="m0 0 103 71" stroke-dasharray="1 8" stroke-linecap="round"/><circle cx="108" cy="76" fill="#fff5f7" r="5"/></g></g><g transform="translate(-50 56)"><rect fill="#fff" height="225" rx="100" width="480"/><text fill="#2f2f2f" font-family="National-Book, National" font-size="24" font-weight="300" transform="translate(90 32)"><tspan x="0" y="124">I wish I had done more to get into IIT</tspan> <tspan x="0" y="155">Bombay.</tspan></text><path d="m62.835 31.543c0 17.33-14.066 31.378-31.418 31.378-17.35 0-31.417-14.049-31.417-31.378 0-17.33 14.066-31.378 31.417-31.378 17.352 0 31.418 14.048 31.418 31.378" fill="url(#h)" mask="url(#l)" transform="translate(90 32.124)"/><g stroke="#403408" stroke-linecap="round"><path d="m112.204 56.517-7.483 4.236" stroke-linejoin="round" stroke-width="3.99"/><path d="m138.173 60.753-7.369-4.274" stroke-linejoin="round" stroke-width="3.944"/><path d="m110.159 76.357s2.38-8.32 11.309-8.32 11.208 8.255 11.208 8.255" stroke-width="3.206"/></g><path d="m170.56 85.313 6.552 2.647 1.32-3.267-6.553-2.647z" fill="#777"/><path d="m170.39 81.444 9.233 3.73 1.44-3.563-9.233-3.73z" fill="#aaa"/><path d="m152.708 94.336c3.38-8.364 12.92-12.397 21.31-9.008 8.389 3.39 12.45 12.918 9.07 21.282-3.379 8.365-12.92 12.398-21.309 9.008s-12.45-12.918-9.07-21.282" fill="#ed6060"/><path d="m152.764 107.06c3.65 8.564 13.278 12.306 21.674 8.757 8.397-3.55 12.381-13.046 8.732-21.61z" fill="#e23b3b"/><path d="m156.342 95.631c2.618-6.478 10.007-9.601 16.505-6.976 6.497 2.625 9.643 10.005 7.025 16.483-2.617 6.479-10.006 9.602-16.504 6.977-6.497-2.625-9.643-10.005-7.026-16.484" fill="#fff"/><path d="m176.135 97.238 1.254-.53m-5.635 12.232.533 1.251m-7.767-17.647-.535-1.251m-4.443 12.713-1.253.53" stroke="#777" stroke-linecap="round" stroke-linejoin="round" stroke-width=".939"/><path d="m169.64 95.304-2.28 5.643 5.66 2.286" stroke="#777" stroke-linecap="round" stroke-linejoin="round" stroke-width="1.277"/><path d="m158.027 102.337c-.393-.51-.504-1.306-.534-1.8a.19.19 0 0 0 -.323-.13c-.365.335-.997.83-1.634.923a.209.209 0 0 0 -.134.332c.393.51.504 1.306.534 1.8.01.168.2.245.323.13.364-.335.997-.83 1.634-.923a.208.208 0 0 0 .134-.332" fill="#fff"/></g></g></svg>