<svg height="298" viewBox="0 0 1280 298" width="1280" xmlns="http://www.w3.org/2000/svg" xmlns:xlink="http://www.w3.org/1999/xlink"><defs><path id="a" d="m0 0h1280v298h-1280z"/><mask id="b" fill="#fff"><use fill="none" xlink:href="#a"/></mask></defs><g fill="none" fill-rule="evenodd"><use fill="#fff" xlink:href="#a"/><g mask="url(#b)" opacity=".3"><g transform="translate(-96 -8)"><g stroke="#9fa0a1" stroke-width="2"><path d="m12 519h245v-301.796c-.67-22.804-8.702-34.204-24.098-34.204h-220.902zm1108.933 848.5v-1049.747c4.03-20.111-3.357-30.167-22.16-30.167h-659.773v-287.586" opacity=".1"/><path d="m1285 94.502h-913.699c-27.474-2.677-41.212 5.354-41.212 24.093v83.32c-1.339 14.723 12.397 22.085 41.212 22.085s152.116-1.673 369.903-5.02m2.796-210.98v281m72-284v283" opacity=".1"/><path d="m1015 4v600.797c-2.016 21.469-13.443 32.203-34.279 32.203h-88.721" opacity=".1"/><path d="m1197 7v659.521c-.67 19.437-9.385 29.156-26.144 29.156h-295.624c-28.155 2.01-42.232-5.362-42.232-22.118s2.011-95.845 6.033-237.267l351.934 2.01" opacity=".1"/></g><g fill="#9fa0a1" fill-opacity=".2"><circle cx="742.5" cy="216.5" r="14.5"/><circle cx="440" cy="95" r="11"/><circle cx="440" cy="277" r="11"/><circle cx="1015" cy="95" r="11"/></g></g></g></g></svg>