<svg height="60" viewBox="0 0 66 60" width="66" xmlns="http://www.w3.org/2000/svg" xmlns:xlink="http://www.w3.org/1999/xlink"><mask id="a" fill="#fff"><path d="m20.52 2.728c-2.27 1.948-5.51 3.538-10.037 3.538-4.76 0-8.075-1.745-10.331-3.812v-2.41h20.368z" fill="none"/></mask><g fill="none" fill-rule="evenodd"><path d="m60.432 26.321c0 14.537-11.753 26.322-26.25 26.322-14.498 0-26.25-11.785-26.25-26.322s11.752-26.321 26.25-26.321c14.497 0 26.25 11.784 26.25 26.321" fill="#ffd21f"/><path d="m22.648 27.119a1.997 1.997 0 0 1 -1.989-1.994v-4.785c0-1.096.895-1.994 1.989-1.994s1.988.898 1.988 1.994v4.786a1.997 1.997 0 0 1 -1.988 1.994m23.863-.001a1.997 1.997 0 0 1 -1.988-1.994v-4.785c0-1.096.894-1.994 1.988-1.994s1.989.898 1.989 1.994v4.786a1.997 1.997 0 0 1 -1.989 1.994m-25.839 5.663c-.57.001-.965.597-.748 1.14 1.124 2.828 4.881 9.946 14.199 9.946 9.313 0 13.154-7.167 14.314-10.02.223-.546-.175-1.148-.75-1.147l-27.015.08z" fill="#403408"/><path d="m20.52 5.41c0 2.963-4.56 5.365-10.184 5.365-5.626 0-10.184-2.402-10.184-5.365 0-2.964 4.558-5.366 10.184-5.366 5.624 0 10.184 2.402 10.184 5.366" fill="#ff5a58" mask="url(#a)" transform="translate(23.84 37.488)"/><path d="m33.784 20.017c.466 0 1.3.067 1.3.994.023.978.249 2.078.677 3.313 1.846 5.313 4.4 6.119 8.643 5.97 1.529-.055 3.377-.028 4.67-1.126 1.186-1.008 2.033-2.704 2.832-5.672.273-1.013.42-1.931.441-2.76.05-.614.685-.958 1.17-1.132a.846.846 0 0 0 .551-.8v-1.536a.882.882 0 0 0 -.596-.84c-1.589-.527-4.492-1.4-9.78-1.258-4.294.117-8.455.882-9.908.882-1.452 0-5.613-.765-9.908-.882-5.288-.143-8.19.73-9.78 1.257a.882.882 0 0 0 -.596.841v1.536c0 .36.22.681.552.8.484.174 1.12.518 1.169 1.132.021.829.168 1.747.441 2.76.8 2.968 1.646 4.664 2.832 5.672 1.293 1.098 3.142 1.071 4.67 1.125 4.243.15 6.797-.656 8.643-5.97.429-1.234.654-2.334.678-3.312 0-.927.833-.994 1.3-.994" fill="#2f2f2f"/><path d="m24.232 17.58c-3.976-.146-8.144-.048-6.309 5.825 1.659 5.31 3.182 5.174 5.75 5.287 2.569.113 5.144-.026 6.756-4.609 1.714-4.874-.454-6.29-6.197-6.503m19.9 0c3.975-.146 8.143-.048 6.309 5.825-1.66 5.31-3.183 5.174-5.75 5.287-2.569.113-5.144-.026-6.756-4.609-1.715-4.874.453-6.29 6.197-6.503" fill="#2fa7bf"/><path d="m65.143 36.604c-.497-.579-.699-1.515-.779-2.1-.027-.198-.251-.276-.381-.133-.385.422-1.059 1.051-1.777 1.205-.176.037-.243.261-.122.403.497.579.699 1.515.78 2.1.027.198.25.277.38.133.385-.421 1.06-1.05 1.777-1.204.176-.038.244-.262.122-.404" fill="#fff"/><path d="m13.869 36.284-12.31 7.106-.967 9.56 18.694 6.915 3.35-19.643z" fill="#55b89a"/><path d="m.683 53.106 22.042-12.732-8.856-4.09-12.253 7.074-.933 9.748" fill="#269070"/><path d="m.684 53.108 7.345-4.243 11.254 11.002z" fill="#75c1a6"/><path d="m22.728 40.38-7.347 4.24 3.902 15.247 3.445-19.486" fill="#2ba07a"/><path d="m1.772 43.268 6.489 5.463-7.578 4.375 1.09-9.838" fill="#55b89a"/><path d="m13.925 36.269 1.462 8.348-7.431 4.29-6.439-5.492z" fill="#32b088"/><path d="m9.24 47.472c-.713-.014-1.488-.474-1.945-.797a.207.207 0 0 0 -.332.192c.051.556.062 1.458-.283 2.083a.24.24 0 0 0 .203.352c.714.014 1.49.474 1.945.795.155.11.35-.003.332-.192-.05-.555-.061-1.457.284-2.081a.24.24 0 0 0 -.203-.352" fill="#fffffe"/></g></svg>