<svg xmlns="http://www.w3.org/2000/svg" xmlns:xlink="http://www.w3.org/1999/xlink" width="63" height="54" viewBox="0 0 63 54"><defs><path id="a" d="M63 .311v40.851c0 1.427-.149 1.944-.427 2.466-.28.521-.689.93-1.21 1.21-.522.278-1.039.427-2.465.427H4.102c-1.426 0-1.943-.149-2.465-.428a2.908 2.908 0 0 1-1.21-1.21C.15 43.108 0 42.59 0 41.163V0l63 .311z"/></defs><g fill="none" fill-rule="evenodd"><g><mask id="b" fill="#fff"><use xlink:href="#a"/></mask><use fill="#EA5A7D" xlink:href="#a"/><path fill="#CECECE" d="M-3 36.237h70v10.031H-3z" mask="url(#b)"/><ellipse cx="33.095" cy="40.897" fill="#ACACAC" rx="1.994" ry="1.985"/><ellipse cx="15.949" cy="18.265" fill="#FFF" rx="10.367" ry="10.324"/><path stroke="#EA5A7D" stroke-linecap="round" stroke-linejoin="round" stroke-width="1.6" d="M11.962 19.316l2.962 2.92 5.81-7.148"/><path stroke="#FFF" stroke-linecap="round" stroke-linejoin="round" stroke-width="1.6" d="M32.696 17.868h23.127M32.696 12.309h23.127M32.696 23.426h23.127"/></g><path fill="#D9D9D9" d="M19.923 49.335h24.223l7.674 4.071H14.06z"/><path fill="#D9D9D9" d="M30.304 45.265h5.582v5.559h-5.582z"/></g></svg>