<svg xmlns="http://www.w3.org/2000/svg" width="40" height="40" viewBox="0 0 40 40"><g fill="none" fill-rule="evenodd"><path fill="#FFF" d="M20 0C8.962 0 0 8.962 0 20s8.962 20 20 20 20-8.962 20-20S31.038 0 20 0z"/><path fill="#EA5A7D" d="M20 40V0c11.038 0 20 8.962 20 20s-8.962 20-20 20z"/><path fill="#EA5A7D" d="M20 40V0C8.962 0 0 8.962 0 20s8.962 20 20 20z" opacity=".8"/><g fill="#FFF" fill-rule="nonzero"><path d="M12.518 12.004h-.002a.825.825 0 0 0-.576.23.78.78 0 0 0-.242.566v11.934c0 .438.37.795.824.796 1.915.005 5.125.39 7.34 2.631v-12.49a.744.744 0 0 0-.114-.403c-1.817-2.83-5.31-3.26-7.23-3.264zM29.302 24.734V12.8a.78.78 0 0 0-.242-.565.826.826 0 0 0-.576-.231h-.002c-1.92.004-5.413.434-7.23 3.264a.744.744 0 0 0-.113.403v12.49c2.214-2.24 5.424-2.627 7.34-2.63.454-.002.823-.359.823-.797z"/><path d="M31.177 14.756h-.597v9.978c0 1.118-.941 2.029-2.098 2.032-1.625.004-4.305.31-6.202 2.048 3.282-.777 6.741-.272 8.713.162.246.054.5-.002.698-.154a.782.782 0 0 0 .309-.621V15.55c0-.438-.37-.795-.823-.795zM10.42 24.734v-9.978h-.597c-.454 0-.823.357-.823.796V28.2c0 .244.113.47.31.622a.842.842 0 0 0 .697.154c1.972-.435 5.431-.94 8.713-.163-1.897-1.736-4.577-2.044-6.202-2.047-1.157-.003-2.098-.914-2.098-2.032z"/></g><g fill="#EA5A7D" opacity=".2"><path d="M20 40V0c11.038 0 20 8.962 20 20s-8.962 20-20 20z"/></g></g></svg>