<svg xmlns="http://www.w3.org/2000/svg" width="40" height="40" viewBox="0 0 40 40"><g fill="none" fill-rule="evenodd"><path fill="#FFF" d="M20 0C8.962 0 0 8.962 0 20s8.962 20 20 20 20-8.962 20-20S31.038 0 20 0z"/><path fill="#EA5A7D" d="M20 40V0c11.038 0 20 8.962 20 20s-8.962 20-20 20z"/><path fill="#EA5A7D" d="M20 40V0C8.962 0 0 8.962 0 20s8.962 20 20 20z" opacity=".8"/><g fill-rule="nonzero"><path fill="#FFF" d="M30.825 22.72l-1.863-3.774C28.882 13.406 24.425 9 18.982 9c-.651 0-1.317.067-1.995.202-3.94.768-7.08 3.976-7.811 7.978-.506 2.817.106 5.62 1.743 7.884 1.357 1.887 2.076 4.106 2.076 6.262 0 .378.292.674.665.674h9.315a.663.663 0 0 0 .665-.674v-1.76c0-.19.16-.351.346-.351h2.98a2.006 2.006 0 0 0 1.996-2.022v-2.021h.36c.585 0 1.117-.297 1.424-.809a1.72 1.72 0 0 0 .08-1.644z"/><path fill="#EA5A7D" d="M18.983 13.043c-3.3 0-5.988 2.722-5.988 6.064 0 3.343 2.688 6.065 5.988 6.065 3.3 0 5.987-2.722 5.987-6.065 0-3.342-2.687-6.064-5.987-6.064z"/><path fill="#FFF" d="M22.11 18.231l-3.127 3.167-.2.203a.62.62 0 0 1-.466.202.62.62 0 0 1-.465-.202l-1.996-2.022a.657.657 0 0 1 0-.943.638.638 0 0 1 .931 0l1.53 1.536.666-.674 2.195-2.21a.638.638 0 0 1 .932 0 .657.657 0 0 1 0 .943z"/></g><g fill="#EA5A7D" opacity=".2"><path d="M20 40V0c11.038 0 20 8.962 20 20s-8.962 20-20 20z"/></g></g></svg>