<svg height="40" viewBox="0 0 40 40" width="40" xmlns="http://www.w3.org/2000/svg"><g fill="none" fill-rule="evenodd"><path d="m20 0c-11.038 0-20 8.962-20 20s8.962 20 20 20 20-8.962 20-20-8.962-20-20-20z" fill="#fff"/><path d="m20 40v-40c11.038 0 20 8.962 20 20s-8.962 20-20 20z" fill="#ea5a7d"/><path d="m20 40v-40c-11.038 0-20 8.962-20 20s8.962 20 20 20z" fill="#ea5a7d" opacity=".8"/><path d="m18.728 10h3.152v10.214h-3.152zm-4.728 3.143h3.152v7.071h-3.152zm9.456 3.536h3.152v3.535h-3.152v-3.534zm3.544 4.714h-.875l-2.3 2.293-.37.37v-.556l.092-.091 2.02-2.016h-.556l-1.555 1.55v-.555l.998-.995h-.557l-.441.44v-.44h-2.059l-2.299 2.293-.37.37v-.556l.091-.091 2.021-2.016h-.557l-1.555 1.55v-.555l.998-.995h-.557l-.441.44v-.44h-2.059l-2.299 2.293-.37.37v-.556l.092-.091 2.02-2.016h-.557l-1.555 1.55v-.555l.998-.995h-.557l-.441.44v-.44zm-9.848.075v.556l-2.225 2.218-.557.555-.37.37v-.556l.092-.091.557-.556zm4.728 0v.556l-2.225 2.218-.557.555-.37.37v-.556l.091-.091.558-.556zm4.728 0v.556l-2.225 2.218-.557.555-.37.37v-.556l.091-.091.557-.556zm-9.456 1.111v.556l-1.668 1.662-1.484 1.48v-.555l.649-.647.557-.555 1.946-1.94zm4.728 0v.556l-1.668 1.662-1.484 1.48v-.555l.649-.647.557-.555 1.946-1.94zm4.728 0v.556l-1.668 1.662-.526.524h-.557l.247-.246.557-.555 1.947-1.94zm-9.456 1.111v.556l-1.11 1.107-2.042 2.036v-.556l1.763-1.758zm4.728 0v.556l-1.11 1.107-2.042 2.036v-.556l1.763-1.758zm4.728 0v.556l-1.08 1.075h-.556l.247-.246zm-9.456 1.111v.556l-.553.551-2.599 2.592v-.556l2.32-2.313zm4.728 0v.556l-.554.551-2.598 2.592v-.556l2.32-2.313zm4.728 0v.52h-.522zm-9.456 1.111v.556l-2.396 2.39h-.556l2.678-2.672.275-.274zm4.728 0v.556l-3.152 3.143v-.555l2.877-2.87zm-4.728 1.111v.556l-1.282 1.278h-.556zm4.728 0v.556l-3.152 3.143v-.555zm-4.728 1.111v.556l-.168.167h-.557zm4.728 0v.556l-3.152 3.143v-.555zm0 1.112v.556l-2.205 2.198h-.557zm0 1.111v.556l-1.09 1.087h-.558zm0 1.111v.532h-.534z" fill="#fff"/><path d="m20 40v-40c11.038 0 20 8.962 20 20s-8.962 20-20 20z" fill="#ea5a7d" opacity=".2"/></g></svg>