<svg height="1159" viewBox="0 0 1280 1159" width="1280" xmlns="http://www.w3.org/2000/svg" xmlns:xlink="http://www.w3.org/1999/xlink"><defs><linearGradient id="a" x1="100%" x2="30.94%" y1="-14.062%" y2="47.607%"><stop offset="0" stop-color="#fff1e2"/><stop offset="1" stop-color="#fff4f9"/></linearGradient><path id="b" d="m0 0h1280v1159h-1280z"/><linearGradient id="c" x1="77.39%" x2="-28.947%" y1="-19.442%" y2="140.996%"><stop offset="0" stop-color="#fff0e4"/><stop offset="1" stop-color="#ffdaeb"/></linearGradient><path id="d" d="m5.646.161a6.661 6.661 0 0 0 -3.536 1.926l-.009.012a7.091 7.091 0 0 0 -1.966 4.901l-.002.027.001.069a8.036 8.036 0 0 0 .025.529l.009.114c.014.152.036.302.06.451l.015.088c.058.328.137.647.237.958l.006.017c.902 2.769 3.435 4.769 6.412 4.769.564 0 1.022-.473 1.022-1.057 0-.583-.458-1.056-1.022-1.056-1.95 0-3.628-1.229-4.347-2.977l-.003-.01a5.082 5.082 0 0 1 -.297-1.038l-.006-.03a5.206 5.206 0 0 1 -.045-.34l-.001-.013a5.123 5.123 0 0 1 -.018-.295c-.001-.036-.003-.073-.003-.11a4.952 4.952 0 0 1 1.378-3.515l.004-.005c1.365-1.404 3.392-1.812 5.166-1.039.044.02.09.03.135.043 1.294.607 2.262 1.992 2.621 3.41.017.068-.003.39-.173.39h-6.049c-.565 0-1.022.558-1.022 1.141 0 .584.457 1.142 1.022 1.142h6.203c.645 0 1.244-.593 1.643-1.117.397-.522.541-1.478.394-2.125-.493-2.172-1.98-3.985-3.974-4.849-.07-.03-.142-.05-.215-.064a6.583 6.583 0 0 0 -3.665-.348z"/><rect id="e" height="146" rx="17.5" width="127.212"/><filter id="f" height="111.6%" width="113.4%" x="-6.7%" y="-4.5%"><feOffset dy="2" in="SourceAlpha" result="shadowOffsetOuter1"/><feGaussianBlur in="shadowOffsetOuter1" result="shadowBlurOuter1" stdDeviation="2.5"/><feColorMatrix in="shadowBlurOuter1" values="0 0 0 0 0.892591412 0 0 0 0 0.892591412 0 0 0 0 0.892591412 0 0 0 0.5 0"/></filter><rect id="g" height="145" rx="17.335" width="127"/><filter id="h" height="111.7%" width="113.4%" x="-6.7%" y="-4.5%"><feOffset dy="2" in="SourceAlpha" result="shadowOffsetOuter1"/><feGaussianBlur in="shadowOffsetOuter1" result="shadowBlurOuter1" stdDeviation="2.5"/><feColorMatrix in="shadowBlurOuter1" values="0 0 0 0 0.892591412 0 0 0 0 0.892591412 0 0 0 0 0.892591412 0 0 0 0.5 0"/></filter><rect id="i" height="144" rx="17.229" width="127"/><filter id="j" height="111.8%" width="113.4%" x="-6.7%" y="-4.5%"><feOffset dy="2" in="SourceAlpha" result="shadowOffsetOuter1"/><feGaussianBlur in="shadowOffsetOuter1" result="shadowBlurOuter1" stdDeviation="2.5"/><feColorMatrix in="shadowBlurOuter1" values="0 0 0 0 0.892591412 0 0 0 0 0.892591412 0 0 0 0 0.892591412 0 0 0 0.5 0"/></filter><rect id="k" height="146" rx="18" width="409.212" x=".788" y=".94"/><filter id="l" height="121.9%" width="107.8%" x="-3.9%" y="-9.6%"><feOffset dy="2" in="SourceAlpha" result="shadowOffsetOuter1"/><feGaussianBlur in="shadowOffsetOuter1" result="shadowBlurOuter1" stdDeviation="5"/><feComposite in="shadowBlurOuter1" in2="SourceAlpha" operator="out" result="shadowBlurOuter1"/><feColorMatrix in="shadowBlurOuter1" values="0 0 0 0 0.654901961 0 0 0 0 0.654901961 0 0 0 0 0.654901961 0 0 0 0.5 0"/></filter><path id="m" d="m5.646.161a6.661 6.661 0 0 0 -3.536 1.926l-.009.012a7.091 7.091 0 0 0 -1.966 4.901l-.002.027.001.069a8.036 8.036 0 0 0 .025.529l.009.114c.014.152.036.302.06.451l.015.088c.058.328.137.647.237.958l.006.017c.902 2.769 3.435 4.769 6.412 4.769.564 0 1.022-.473 1.022-1.057 0-.583-.458-1.056-1.022-1.056-1.95 0-3.628-1.229-4.347-2.977l-.003-.01a5.082 5.082 0 0 1 -.297-1.038l-.006-.03a5.206 5.206 0 0 1 -.045-.34l-.001-.013a5.123 5.123 0 0 1 -.018-.295c-.001-.036-.003-.073-.003-.11a4.952 4.952 0 0 1 1.378-3.515l.004-.005c1.365-1.404 3.392-1.812 5.166-1.039.044.02.09.03.135.043 1.294.607 2.262 1.992 2.621 3.41.017.068-.003.39-.173.39h-6.049c-.565 0-1.022.558-1.022 1.141 0 .584.457 1.142 1.022 1.142h6.203c.645 0 1.244-.593 1.643-1.117.397-.522.541-1.478.394-2.125-.493-2.172-1.98-3.985-3.974-4.849-.07-.03-.142-.05-.215-.064a6.583 6.583 0 0 0 -3.665-.348z"/><linearGradient id="n" x1="50%" x2="50%" y1="-10.088%" y2="50%"><stop offset="0" stop-color="#2fa7bf"/><stop offset=".32452" stop-color="#93bc72"/><stop offset="1" stop-color="#ffd21f"/></linearGradient><mask id="o" fill="#fff"><use fill="none" xlink:href="#b"/></mask><mask id="p" fill="#fff"><use fill="none" xlink:href="#d"/></mask><mask id="q" fill="#fff"><use fill="none" xlink:href="#e"/></mask><mask id="r" fill="#fff"><use fill="none" xlink:href="#g"/></mask><mask id="s" fill="#fff"><use fill="none" xlink:href="#i"/></mask><mask id="t" fill="#fff"><use fill="none" xlink:href="#k"/></mask><mask id="u" fill="#fff"><use fill="none" xlink:href="#m"/></mask><mask id="v" fill="#fff"><path d="m0 31.912h26.822v-31.912h-26.822z" fill="none"/></mask></defs><g fill="none" fill-rule="evenodd"><use fill="url(#a)" xlink:href="#b"/><path d="m-159.87 990.746 594-174-101 532h-493z" fill="url(#c)" mask="url(#o)" transform="matrix(.99026807 .1391731 -.1391731 .99026807 152.023658 -8.547598)"/><g mask="url(#o)" opacity=".439"><g transform="translate(-20 -148)"><g stroke="#f7dce3" stroke-width="2"><path d="m12 519h245v-301.796c-.67-22.804-8.702-34.204-24.098-34.204h-220.902z"/><path d="m12 637h95.524c16.759-2.015 25.138-10.745 25.138-26.191v-221.619c-2.012-17.459 5.028-26.19 21.116-26.19s394.162 3.694 1134.222 11.08"/><path d="m9 882.969h291.9c21.4.668 32.1-9.359 32.1-30.08 0-20.722-1.337-132.018-4.012-333.889"/><path d="m258.118 520v221.5c-1.337 21.471 8.691 32.207 30.085 32.207h248.708c21.393 1.343 32.089 12.417 32.089 33.224v499.069"/><path d="m363 1305.5v-365.382c3.347-21.416 20.751-30.783 52.213-28.101 31.462 2.681 201.488 2.681 510.08 0 28.784-1.341 44.85 5.698 48.197 21.117 3.347 15.42 3.347 88.492 0 219.218-1.339 16.09-13.053 24.134-35.144 24.134h-163.666c-22.09-2.011-33.135-11.397-33.135-28.156 0-16.76 2.343-276.537 7.028-779.33"/><path d="m1279 1038h-420v265"/><path d="m1120.933 1310.5v-992.747c4.03-20.111-3.357-30.167-22.16-30.167h-659.773v-287.586"/><path d="m1285 94.502h-913.699c-27.474-2.677-41.212 5.354-41.212 24.093v83.32c-1.339 14.723 12.397 22.085 41.212 22.085s152.116-1.673 369.903-5.02m2.796-210.98v281m72-284v283"/><path d="m1015 4v600.797c-2.016 21.469-13.443 32.203-34.279 32.203h-88.721"/><path d="m1252 8v659.521c-.67 19.437-9.385 29.156-26.144 29.156h-295.624c-28.155 2.01-42.232-5.362-42.232-22.118s2.011-95.845 6.033-237.267l351.934 2.01m-1043.967 865.698v-299.46c1.34-16.758 11.05-25.136 29.134-25.136h170.783c12.055 2.01 18.083-9.05 18.083-33.183s-.67-218.874-2.01-584.221m-162.99 157h163m-406 211h41c14.667 3.351 22 11.393 22 24.127v325.72c-1.333 19.434-8.667 29.153-22 29.153h-53z"/></g><g fill="#ffd5df"><circle cx="742.5" cy="216.5" r="14.5"/><circle cx="888.5" cy="637.5" r="14.5"/><circle cx="1122" cy="701" r="11"/><circle cx="440" cy="277" r="11"/><circle cx="133" cy="519" r="11"/><circle cx="418" cy="520" r="11"/><circle cx="75" cy="883" r="11"/></g></g></g><g transform="translate(807 912)"><rect fill="#fff" height="195" rx="70" width="550"/><text fill="#2f2f2f" font-family="National-Book, National" font-size="24" font-weight="300" transform="translate(40 32)"><tspan x="0" y="25">Get your current and target values with</tspan> <tspan x="0" y="56">predicted score improvement. Carefully</tspan> <tspan x="0" y="87">study each learn strategy to boost your</tspan> <tspan x="0" y="118">score.</tspan></text></g><rect fill="#fff" height="266" rx="70" width="550" x="103" y="599"/><g transform="translate(143 631)"><text fill="#2f2f2f" font-family="National-Book, National" font-size="24" font-weight="300"><tspan x="0" y="103">Improve your test taking skills by applying</tspan> <tspan x="0" y="134">RANKUP’s personalized hacks. Never again</tspan> <tspan x="0" y="165">lose marks because of careless mistakes,</tspan> <tspan x="0" y="196">time pressure, overconfidence or stress.</tspan></text><ellipse cx="30" cy="31.127" fill="#ea5a7d" rx="29.472" ry="30.611"/><path d="m30.572 13.263a8.928 8.928 0 0 0 -.413-.018c-.18.006-.29.009-.429.018-6.755.473-11.847 6.174-11.847 13.09 0 8.431 7.21 11.419 7.21 14.717v.015h10.413v-.015c0-3.298 7.063-6.278 7.063-14.71 0-6.915-5.24-12.624-11.996-13.097" fill="#fff"/><path d="m34.046 14.008c3.199 2.647 5.12 6.514 5.12 10.806 0 9.27-8.709 12.539-8.709 16.165v.106h5.049v-.015c0-3.298 7.062-6.278 7.062-14.71 0-5.668-3.558-10.526-8.522-12.352" fill="#ffe3ea"/><path d="m37.173 25.448c-.494-2.173-1.98-3.986-3.975-4.85a.993.993 0 0 0 -.214-.064 6.55 6.55 0 0 0 -3.664-.347 6.663 6.663 0 0 0 -3.536 1.926l-.009.01a7.091 7.091 0 0 0 -1.966 4.903c0 .01-.003.018-.003.027l.002.069a6.918 6.918 0 0 0 .025.53c.003.037.004.075.008.113a6.851 6.851 0 0 0 .076.54c.058.327.137.646.237.957l.006.018c.902 2.768 3.434 4.768 6.412 4.768.564 0 1.022-.473 1.022-1.057 0-.583-.458-1.056-1.022-1.056-1.95 0-3.628-1.229-4.347-2.977-.002-.003-.002-.007-.003-.01a5.076 5.076 0 0 1 -.298-1.038l-.005-.03a5.226 5.226 0 0 1 -.045-.34l-.001-.013a5.425 5.425 0 0 1 -.019-.294l-.002-.111a4.954 4.954 0 0 1 1.378-3.515l.004-.005c1.365-1.404 3.391-1.812 5.166-1.039.044.02.09.03.135.044 1.293.606 2.261 1.991 2.62 3.41.018.067-.003.389-.172.389h-6.05c-.565 0-1.022.558-1.022 1.141 0 .584.457 1.142 1.022 1.142h6.203c.645 0 1.243-.593 1.642-1.116.398-.523.542-1.48.395-2.125" fill="#c80"/><g transform="translate(23.674 20.025)"><use fill="#ea5a7d" xlink:href="#d"/><path d="m30.569 2.535-30.677 31.718-5.486-5.341 30.676-31.717z" fill="#ef990f" mask="url(#p)"/></g><path d="m35.58 46.068h-10.624c-1.021 0-1.85-.856-1.85-1.911 0-1.056.829-1.912 1.85-1.912h10.624c1.02 0 1.848.856 1.848 1.912 0 1.055-.827 1.91-1.848 1.91m-1.17 4.722h-8.284c-.968 0-1.753-.811-1.753-1.812 0-1 .785-1.812 1.753-1.812h8.284c.968 0 1.753.811 1.753 1.812s-.785 1.812-1.753 1.812m-6.965 1.018c-.132 0-.211.14-.137.242a3.647 3.647 0 0 0 2.96 1.487c1.234 0 2.32-.6 2.96-1.487.074-.103-.005-.242-.137-.242z" fill="#fff"/><path d="m22.031 24.846c-1.27-.933-1.25-3.215.043-5.096 1.294-1.88 3.371-2.648 4.641-1.715s1.25 3.215-.043 5.096c-1.293 1.88-3.371 2.648-4.641 1.715" fill="#ea5a7d" opacity=".1"/><path d="m29.235 10.42v-1.955m11.405 6.37 1.535-1.586m-.857 23.72 1.534 1.587m2.75-13.393h2.208m-28.617-10.328-1.533-1.585m.856 23.719-1.535 1.587m-2.615-13.393h-2.208" stroke="#fff" stroke-linecap="round" stroke-linejoin="round" stroke-width="1.132"/></g><path d="m438.949 887.653h785.099" fill="#d8d8d8" stroke="#f48ba4" stroke-dasharray="1 9" stroke-linecap="round" stroke-width="2"/><path d="m423 888a5 5 0 1 1 10.001 0 5 5 0 0 1 -10.001 0z" stroke="#f48ba4" stroke-width="1.667"/><g transform="translate(537 562)"><path d="m514.286 0h-429.438c-11.684 0-21.645 9.52-21.645 21.312v280.47h472.728v-280.47c-.001-11.792-9.925-21.312-21.645-21.312z" fill="#ffaec2" fill-rule="nonzero"/><ellipse cx="300.433" cy="16.334" opacity=".2" rx="3.463" ry="3.439" stroke="#8492a5" stroke-width="1.72"/><path d="m82.251 33.529h433.83v251.043h-433.83z" fill="#f6f6f6" fill-rule="nonzero"/><path d="m554.816 328.149h-510.41c-26.536 0-44.406-9.04-44.406-12.885v-11.687c0-1.156 1.156-2.088 2.593-2.088h594.034c1.439 0 2.596.932 2.596 2.088v12.147c-.006 3.039-13.845 12.425-44.407 12.425z" fill="#e9819a" fill-rule="nonzero"/><path d="m.433 314.224h597.18" opacity=".2" stroke="#a12c49" stroke-linecap="square" stroke-width=".86"/><g transform="translate(100 146)"><use fill="#000" filter="url(#f)" xlink:href="#e"/><use fill="#fff" xlink:href="#e"/><g mask="url(#q)"><text font-family="National-Book, National" font-size="14" font-weight="300" transform="translate(16 24)"><tspan fill="#2f2f2f" x=".064" y="100">Wasted attempts</tspan></text><path d="m37.787 59.25 2.32-4.02a2.648 2.648 0 0 0 -.198-.126c-1.213-.7-2.729-.364-3.37.746-.64 1.11-.173 2.591 1.039 3.291.069.04.138.076.209.11zm-5.16 8.852 4.237-7.34a4.673 4.673 0 0 1 -.2-.108c-2.078-1.2-2.857-3.779-1.73-5.73 1.127-1.952 3.749-2.567 5.827-1.367.067.038.131.078.195.119l4.238-7.341c.845-1.464 2.892-2.04 4.371-1.026l1.352.931-15.504 26.854-1.489-.694c-1.63-.761-2.142-2.834-1.297-4.298z" fill="#5c5d59"/><path d="m35.372 73.977 15.65-27.107-1.731-1-15.65 27.107z" fill="#ccccc7"/><path d="m78.495 43.5-.033 25.644c-.115 1.564-1.235 2.856-2.74 2.856h-21.749c-1.504 0-2.613-1.29-2.74-2.856v-25.644z" fill="#dd5c5a"/><path d="m55.846 44.5h2.019v21.267c0 1.644-2.02 1.644-2.02 0v-21.267m13.127 0h2.02v20.776c0 1.632-2.02 1.632-2.02 0zm-6.563 0h2.02v20.776c0 1.632-2.02 1.632-2.02 0z" fill="#d03a3c"/><path d="m75.151 43.5-.024 22.215c-.1 1.58-1.071 2.903-2.377 2.903h-18.866c-1.305 0-2.352-1.348-2.582-2.93v-5.424 9.141c.23 1.581 1.431 3.095 2.925 3.095h21.583c1.494 0 2.606-1.406 2.72-2.986l.033-26.014h-3.413" fill="#cb3737"/><path d="m51.302 41.5h27.262v2h-27.262z" fill="#ccccc7"/><g transform="translate(50.797 24)"><path d="m0 0h27.262v17h-27.262z" fill="#f5f5f5"/><g fill="#d8d8d8"><rect height="3.658" rx="1" width="4.281" x="2.704" y="5.38"/><rect height="3.658" rx="1" width="15.997" x="8.562" y="5.38"/><rect height="3.658" rx="1" width="4.281" x="2.704" y="10.544"/><rect height="3.658" rx="1" width="15.997" x="8.562" y="10.544"/><path d="m2.704 3.228h21.855v1h-21.855z"/></g></g><path d="m24 97.67 79.997-.67" stroke="#ededed" stroke-linecap="square" stroke-width=".5"/></g></g><g transform="translate(238 147)"><use fill="#000" filter="url(#h)" xlink:href="#g"/><use fill="#fff" xlink:href="#g"/><g mask="url(#r)"><text font-family="National-Book, National" font-size="14" font-weight="300" transform="translate(20 24)"><tspan fill="#2f2f2f" x=".219" y="99">Too fast correct</tspan></text><path d="m24 96h80" stroke="#ededed" stroke-linecap="square" stroke-width=".5"/><g transform="translate(48.5 24)"><rect fill="#f16661" height="52" rx="7.5" width="39"/><rect fill="#fff" height="47.5" rx="5.5" width="35.5" x="2" y="2.5"/><rect fill="#fd9e9a" height="2" rx="1" width="13" x="13" y="1.5"/><g fill="#e7e7e7"><path d="m6.783 14.5h25.934c.156 0 .283-.112.283-.25s-.127-.25-.283-.25h-25.934c-.156 0-.283.112-.283.25s.127.25.283.25m-.283-4.5h15v-3h-15z"/><path d="m7 44.262h5.9v-5.887h-5.9zm0-9.187h5.9v-5.887h-5.9zm0-9.089h5.9v-5.887h-5.9zm8.93 18.276h5.9v-5.887h-5.9zm0-9.187h5.9v-5.887h-5.9zm0-9.089h5.9v-5.887h-5.9zm8.93 18.276h5.9v-5.887h-5.9zm0-9.187h5.9v-5.887h-5.9zm0-9.089h5.9v-5.887h-5.9z"/></g></g><path d="m92.694 71.964a.863.863 0 0 1 .687.844.86.86 0 0 1 -.86.86h-3.508c-.51.001-.83.169-1.065.414l-3.772 3.83a2.147 2.147 0 0 1 -3.036.024l-.025-.025-1.465-1.486c-.03.003-.06.004-.087.004h-4.203a.861.861 0 0 1 0-1.721h2.596l-1.748-1.772a2.146 2.146 0 0 1 3.06-3.01l3.376 3.424 10.55-10.71a2.147 2.147 0 0 1 3.45 2.464h4.996a.86.86 0 0 1 0 1.722h-5.833a.926.926 0 0 0 -.065-.002h-1.933a.851.851 0 1 0 0 1.701h1.933a.89.89 0 0 0 .11-.006h.607a.86.86 0 0 1 0 1.721h-4.726l-.003.003h-1.035a.861.861 0 1 0 0 1.721h2" fill="#72c9e9"/><path d="m57.604 71.701c-.265-.337-.635-.506-1.111-.506-.25 0-.491.043-.723.128-.233.086-.42.182-.563.288a3.364 3.364 0 0 1 -.461.288.98.98 0 0 1 -.44.129c-.262 0-.52-.132-.776-.395-.203-.212-.305-.547-.305-1.005 0-.544.07-1.245.209-2.104.006-.017.016-.079.03-.185l.044-.292a.984.984 0 0 1 .03-.15v-.017c-.272.011-.746.06-1.42.146s-1.197.129-1.568.129c-.355 0-.654-.076-.898-.228s-.366-.39-.366-.717c0-.212.05-.415.152-.61s.213-.356.332-.485c.119-.13.23-.298.33-.507a1.5 1.5 0 0 0 .153-.665c0-.453-.156-.806-.47-1.06-.314-.256-.703-.383-1.168-.383-.494 0-.912.13-1.255.39-.342.261-.514.626-.514 1.096 0 .246.044.483.131.712.087.23.184.414.292.554.107.14.205.292.292.456.087.163.13.307.13.433 0 .258-.133.513-.4.765-.215.2-.555.3-1.02.3-.552 0-1.264-.068-2.135-.206a1.68 1.68 0 0 0 -.187-.03 11.891 11.891 0 0 1 -.296-.043 1.011 1.011 0 0 1 -.153-.03v8.794c0 .006.006.009.017.009.012.005.02.008.027.008l.113.017c.052.012.132.023.24.035.107.011.187.023.24.034.87.137 1.582.206 2.134.206.465 0 .805-.1 1.02-.3.267-.253.4-.508.4-.765a.946.946 0 0 0 -.13-.434 3.322 3.322 0 0 0 -.292-.455 2.203 2.203 0 0 1 -.292-.554 1.987 1.987 0 0 1 -.13-.712c0-.47.17-.835.513-1.096.343-.26.759-.39 1.246-.39.471 0 .863.127 1.177.382s.47.608.47 1.06a1.5 1.5 0 0 1 -.152.666c-.102.209-.212.378-.331.507-.12.129-.23.29-.331.485a1.3 1.3 0 0 0 -.153.61c0 .326.122.565.366.717s.543.227.898.227c.267 0 .552-.014.854-.043.302-.028.637-.067 1.006-.116.369-.048.652-.081.85-.098.064-.006.16-.009.287-.009v-.043c.006-.223-.038-.552-.13-.988-.093-.435-.14-.764-.14-.987 0-.71.32-1.065.959-1.065.215 0 .42.05.618.15s.362.21.493.327c.13.117.302.226.514.326s.437.15.675.15c.459 0 .818-.154 1.076-.463.259-.31.388-.696.388-1.16 0-.48-.132-.89-.396-1.228z" fill="#39bb9c" fill-rule="nonzero"/></g></g><g transform="translate(378 147)"><use fill="#000" filter="url(#j)" xlink:href="#i"/><use fill="#fff" xlink:href="#i"/><g mask="url(#s)"><text font-family="National-Book, National" font-size="14" font-weight="300" transform="translate(23 24)"><tspan fill="#2f2f2f" x="18.446" y="99">Stamina</tspan></text><path d="m24 96h80" stroke="#ededed" stroke-linecap="square" stroke-width=".5"/><g transform="translate(23.5 24)"><circle cx="18" cy="29.5" r="15" stroke="#3a3a3a" stroke-width="2.5"/><path d="m32 18.17c-3.277-4.364-8.244-7.17-14.124-7.17-8.386 0-15.982 5.708-17.876 13.5" stroke="#ea5a7d" stroke-width="2"/><circle cx="61.5" cy="29.5" r="15" stroke="#3a3a3a" stroke-width="2.5"/><path d="m17 29.5 9.112-20.768 31.888-1.232-27.525 22z" stroke="#ea5a7d" stroke-linecap="round" stroke-linejoin="round" stroke-width="2"/><path d="m15.979 27.518c10.468-2.018 17.571-2.522 21.31-1.514 5.606 1.514 3.541 7.996-3.633 7.996s-12.721-.91-17.678-2.58c-3.305-1.113-3.305-2.414 0-3.902z" fill="#b6c8ce"/><path d="m56.5 2.5 6.5 27.5" stroke="#ea5a7d" stroke-width="2"/><path d="m56.5 2.5 7-2.5" stroke="#3a3a3a" stroke-linecap="round" stroke-linejoin="round" stroke-width="2"/><path d="m23.816 4.541c4.468-1.027 7.825-1.541 10.074-1.541 3.372 0-8.296 5-9.185 5-.421 0-2.074-.073-2.195-1.24-.082-.777.354-1.517 1.306-2.219z" fill="#3a3a3a"/><circle cx="62.75" cy="28.75" fill="#b6c8ce" r="2.25"/></g></g></g></g><g transform="translate(631 551)"><use fill="#000" filter="url(#l)" xlink:href="#k"/><use fill="#fff" xlink:href="#k"/><rect height="145" rx="18" stroke="#50b7e8" width="408.212" x="1.288" y="1.44"/><g mask="url(#t)"><path d="m19 1h139v146h-139c-9.941 0-18-8.059-18-18v-110c0-9.941 8.059-18 18-18z" fill="#fff"/><path d="m157.5 146.5v-145h-138.5c-9.665 0-17.5 7.835-17.5 17.5v110c0 9.665 7.835 17.5 17.5 17.5z" stroke="#50b7e8"/></g></g><g transform="translate(867 648)"><rect fill="#ea5a7d" height="23.333" rx="11.667" width="101.5"/><text fill="#fff" font-family="National-Regular, National" font-size="10"><tspan x="16.12" y="16">LEARN STRATEGY</tspan></text></g><text fill="#2f2f2f" font-family="Roboto-Light, Roboto" font-size="10" font-weight="300" transform="translate(810 577)"><tspan x="6.656" y="9">Current</tspan> <tspan x="10.804" y="21">Value</tspan></text><text fill="#4f4f4f" font-family="Roboto-Regular, Roboto" font-size="16" transform="translate(810 577)"><tspan x="0" y="48">7.41%</tspan></text><text fill="#2f2f2f" font-family="Roboto-Light, Roboto" font-size="10" font-weight="300" transform="translate(946 577)"><tspan x="24.444" y="9">Score</tspan> <tspan x="7.747" y="21">Improvement</tspan></text><text fill="#39bb9c" font-family="Roboto-Regular, Roboto" font-size="16" transform="translate(946 577)"><tspan x="26" y="49">2%</tspan></text><text fill="#2f2f2f" font-family="Roboto-Light, Roboto" font-size="10" font-weight="300" transform="translate(883 577)"><tspan x="8.917" y="9">Target</tspan> <tspan x="10.804" y="21">Value</tspan></text><text fill="#4f4f4f" font-family="Roboto-Regular, Roboto" font-size="16" transform="translate(883 577)"><tspan x="6" y="48">6%</tspan></text><rect fill="#fff" height="23.333" rx="11.667" width="110" x="655" y="659"/><rect height="22.424" rx="11.212" stroke="#f6b72c" stroke-width=".909" width="109.091" x="655.455" y="659.455"/><text fill="#f6b72c" font-family="National-Regular, National" font-size="10" transform="translate(655 659)"><tspan x="11.091" y="15">IMPROVEMENT STORY</tspan></text><text fill="#2f2f2f" font-family="Roboto-Regular, Roboto" font-size="12" transform="translate(655 565)"><tspan x="28.545" y="11">First Look</tspan> <tspan x="5.523" y="29">Overtime Incorrect</tspan></text><g transform="translate(690 609)"><rect fill="#f16661" height="32.075" rx="4.545" width="23.636" x="11.818"/><rect fill="#fff" height="29.299" rx="3.333" width="21.515" x="13.03" y="1.542"/><rect fill="#fd9e9a" height="1.234" rx=".617" width="7.879" x="19.697" y=".925"/><path d="m35.5 32.635c-2.181 0-3.95-1.835-3.95-4.099 0-2.263 1.769-4.1 3.95-4.1 2.182 0 3.95 1.837 3.95 4.1 0 2.264-1.768 4.099-3.95 4.099" fill="#f1ba38"/><path d="m35.545 32.874c-2.394 0-4.333-2.015-4.333-4.48 0-2.477 1.949-4.482 4.333-4.482 2.395 0 4.333 2.015 4.333 4.481.01 2.466-1.938 4.481-4.333 4.481m0-8.425c-2.104 0-3.815 1.768-3.815 3.944s1.71 3.945 3.815 3.945c2.104 0 3.815-1.769 3.815-3.945s-1.71-3.944-3.815-3.944m.705-1.935h-1.399a.261.261 0 0 0 -.259.268c0 .15.114.268.26.268h.435v.461h.518v-.461h.435c.145 0 .26-.118.26-.268s-.104-.268-.25-.268m-4.7 1.253.579.6.367-.38-.58-.6z" fill="#5f4589"/><path d="m35.437 24.96v3.486l3.172-1.19c-.466-1.341-1.71-2.295-3.172-2.295" fill="#573e85"/><path d="m15.758 6.168h9.09v-1.85h-9.09z" fill="#e7e7e7"/><path d="m16.06 27.449h3.637v-3.701h-3.636zm0-5.86h3.637v-3.701h-3.636zm0-5.552h3.637v-3.7h-3.636zm5.455 11.412h3.637v-3.701h-3.637zm0-5.86h3.637v-3.701h-3.637zm0-5.552h3.637v-3.7h-3.637zm5.455 11.412h3.636v-3.701h-3.636zm0-5.86h3.636v-3.701h-3.636zm0-5.552h3.636v-3.7h-3.636z" fill="#e7e7e7"/><path d="m15 14.804c.92 0 1.667.76 1.667 1.696 0 .937-.746 1.696-1.667 1.696-.92 0-1.667-.76-1.667-1.696 0-.937.747-1.696 1.667-1.696" fill="#f8e494"/><path d="m8.182 13.201-.622-.556-6.65 8.078.621.557 6.65-8.079" fill="#d2d5d7"/><path d="m5.64 30.533.724-.41-5.034-9.151-.724.41 5.034 9.15" fill="#d2d5d7"/><path d="m1.212 20.047c.67 0 1.212.552 1.212 1.233 0 .682-.543 1.234-1.212 1.234-.67 0-1.212-.552-1.212-1.234 0-.68.542-1.233 1.212-1.233m.909 12.028c2.506-3.272 8.277-3.308 10.606 0zm6.061-20.664c.669 0 1.212.552 1.212 1.234 0 .681-.543 1.234-1.212 1.234-.67 0-1.212-.553-1.212-1.234 0-.682.542-1.234 1.212-1.234" fill="#eea235"/><path d="m17.273 12.907c-1.023 2.77-2.752 4.759-4.96 6.214-1.086-1.25-2.494-2.377-2.728-3.953-.066-.45-.11-.92-.052-1.43l-1.908-1.785c-1.134-1.13.732-2.984 1.921-2.208l2.004 1.567c.767-.218 1.457-.26 2.093-.18 1.391.179 2.483 1.154 3.63 1.775" fill="#f1ba38"/></g><path d="m836.803 503.2v-144.8a9.6 9.6 0 0 0 -9.6-9.6h-24.317c-5.461 0-9.869-4.447-9.869-9.956v-80.088c0-5.51 4.408-9.956 9.869-9.956h66.228c5.461 0 9.467 3.112 9.467 9.956v80.088c-.402 4.756-4.419 8.356-8.837 9.956h-10.445" stroke="#f48ba4" stroke-width="1.6"/><path d="m874.162 297.575c0-2.195 1.8-3.975 4.02-3.975s4.02 1.78 4.02 3.975-1.8 3.974-4.02 3.974-4.02-1.779-4.02-3.974zm-23.299 51.2c0-2.195 1.8-3.975 4.02-3.975s4.02 1.78 4.02 3.975-1.8 3.974-4.02 3.974-4.02-1.779-4.02-3.974zm-17.675 159.2c0-2.195 1.8-3.975 4.02-3.975s4.02 1.78 4.02 3.975-1.8 3.974-4.02 3.974-4.02-1.779-4.02-3.974zm-44.188-236.8c0-2.195 1.8-3.975 4.02-3.975s4.02 1.78 4.02 3.975-1.8 3.974-4.02 3.974-4.02-1.779-4.02-3.974z" fill="#fff5f7" stroke="#f48ba4" stroke-width="1.6"/><g fill-rule="nonzero"><path d="m802.748 340.8c-1.823 0-3.304-1.468-3.304-3.276v-79.048c0-1.808 1.481-3.276 3.304-3.276h66.504c1.823 0 3.304 1.468 3.304 3.276v79.048c0 1.808-1.481 3.276-3.304 3.276z" fill="#fff"/><path d="m819.3 283.2 3.462-3.448a2.658 2.658 0 0 0 0-3.77 2.685 2.685 0 0 0 -3.786 0l-3.463 3.447-3.463-3.448a2.685 2.685 0 0 0 -3.787 0 2.658 2.658 0 0 0 0 3.771l3.463 3.448-3.463 3.448a2.658 2.658 0 0 0 0 3.77 2.685 2.685 0 0 0 3.787 0l3.463-3.447 3.463 3.448a2.685 2.685 0 0 0 3.786 0 2.658 2.658 0 0 0 0-3.771z" fill="#ea5a7d"/><path d="m861.274 285.289a2.738 2.738 0 0 1 -3.904 0l-.836-.763v9.762c0 4.526-3.737 8.18-8.367 8.18h-22.681c-1.562 0-2.789 1.2-2.789 2.727v11.27c0 .903-.428 1.69-1.1 2.185a2.837 2.837 0 0 1 -1.689.543c-1.561 0-2.788-1.2-2.788-2.727v-11.271c0-4.527 3.736-8.18 8.366-8.18h22.682c1.561 0 2.788-1.2 2.788-2.727v-9.762l-.837.763a2.738 2.738 0 0 1 -3.904 0 2.596 2.596 0 0 1 0-3.817l5.578-5.454a2.738 2.738 0 0 1 3.904 0l5.577 5.454a2.595 2.595 0 0 1 0 3.817z" fill="#ea5a7d" opacity=".8"/><path d="m849.814 242.59h-3.976c-1.348-3.823-5.346-6.59-9.727-6.59-4.38 0-8.38 2.767-9.727 6.59h-3.976c-5.594 0-10.109 4.414-10.109 9.884 0 5.469 4.515 9.884 10.109 9.884h27.406c5.594 0 10.109-4.415 10.109-9.884 0-5.47-4.515-9.884-10.109-9.884z" fill="#f6b72c"/><path d="m859.47 322.4 3.463-3.448a2.658 2.658 0 0 0 0-3.77 2.685 2.685 0 0 0 -3.787 0l-3.462 3.447-3.463-3.448a2.685 2.685 0 0 0 -3.787 0 2.658 2.658 0 0 0 0 3.771l3.463 3.448-3.463 3.448a2.658 2.658 0 0 0 0 3.77 2.685 2.685 0 0 0 3.787 0l3.463-3.447 3.462 3.448a2.685 2.685 0 0 0 3.787 0 2.658 2.658 0 0 0 0-3.771l-3.462-3.448z" fill="#ea5a7d"/><path d="m860.847 252.729c0 5.553-4.44 10.037-9.943 10.037h-13.478v-26.766c4.309 0 8.242 2.81 9.567 6.691h3.911c5.502 0 9.943 4.484 9.943 10.038z" fill="#f8e494"/><path d="m819.53 330.4c-3.987 0-7.23-3.23-7.23-7.2s3.243-7.2 7.23-7.2 7.23 3.23 7.23 7.2-3.243 7.2-7.23 7.2z" fill="#ea5a7d"/></g><rect fill="#fff" height="237" rx="70" width="480" x="906" y="207"/><g transform="translate(946 239)"><ellipse cx="30" cy="31.127" fill="#ea5a7d" rx="29.472" ry="30.611"/><path d="m30.572 13.263a8.928 8.928 0 0 0 -.413-.018c-.18.006-.29.009-.429.018-6.755.473-11.847 6.174-11.847 13.09 0 8.431 7.21 11.419 7.21 14.717v.015h10.413v-.015c0-3.298 7.063-6.278 7.063-14.71 0-6.915-5.24-12.624-11.996-13.097" fill="#fff"/><path d="m34.046 14.008c3.199 2.647 5.12 6.514 5.12 10.806 0 9.27-8.709 12.539-8.709 16.165v.106h5.049v-.015c0-3.298 7.062-6.278 7.062-14.71 0-5.668-3.558-10.526-8.522-12.352" fill="#ffe3ea"/><path d="m37.173 25.448c-.494-2.173-1.98-3.986-3.975-4.85a.993.993 0 0 0 -.214-.064 6.55 6.55 0 0 0 -3.664-.347 6.663 6.663 0 0 0 -3.536 1.926l-.009.01a7.091 7.091 0 0 0 -1.966 4.903c0 .01-.003.018-.003.027l.002.069a6.918 6.918 0 0 0 .025.53c.003.037.004.075.008.113a6.851 6.851 0 0 0 .076.54c.058.327.137.646.237.957l.006.018c.902 2.768 3.434 4.768 6.412 4.768.564 0 1.022-.473 1.022-1.057 0-.583-.458-1.056-1.022-1.056-1.95 0-3.628-1.229-4.347-2.977-.002-.003-.002-.007-.003-.01a5.076 5.076 0 0 1 -.298-1.038l-.005-.03a5.226 5.226 0 0 1 -.045-.34l-.001-.013a5.425 5.425 0 0 1 -.019-.294l-.002-.111a4.954 4.954 0 0 1 1.378-3.515l.004-.005c1.365-1.404 3.391-1.812 5.166-1.039.044.02.09.03.135.044 1.293.606 2.261 1.991 2.62 3.41.018.067-.003.389-.172.389h-6.05c-.565 0-1.022.558-1.022 1.141 0 .584.457 1.142 1.022 1.142h6.203c.645 0 1.243-.593 1.642-1.116.398-.523.542-1.48.395-2.125" fill="#c80"/><g transform="translate(23.674 20.025)"><use fill="#ea5a7d" xlink:href="#m"/><path d="m30.569 2.535-30.677 31.718-5.486-5.341 30.676-31.717z" fill="#ef990f" mask="url(#u)"/></g><path d="m35.58 46.068h-10.624c-1.021 0-1.85-.856-1.85-1.911 0-1.056.829-1.912 1.85-1.912h10.624c1.02 0 1.848.856 1.848 1.912 0 1.055-.827 1.91-1.848 1.91m-1.17 4.722h-8.284c-.968 0-1.753-.811-1.753-1.812 0-1 .785-1.812 1.753-1.812h8.284c.968 0 1.753.811 1.753 1.812s-.785 1.812-1.753 1.812m-6.965 1.018c-.132 0-.211.14-.137.242a3.647 3.647 0 0 0 2.96 1.487c1.234 0 2.32-.6 2.96-1.487.074-.103-.005-.242-.137-.242z" fill="#fff"/><path d="m22.031 24.846c-1.27-.933-1.25-3.215.043-5.096 1.294-1.88 3.371-2.648 4.641-1.715s1.25 3.215-.043 5.096c-1.293 1.88-3.371 2.648-4.641 1.715" fill="#ea5a7d" opacity=".1"/><path d="m29.235 10.42v-1.955m11.405 6.37 1.535-1.586m-.857 23.72 1.534 1.587m2.75-13.393h2.208m-28.617-10.328-1.533-1.585m.856 23.719-1.535 1.587m-2.615-13.393h-2.208" stroke="#fff" stroke-linecap="round" stroke-linejoin="round" stroke-width="1.132"/><text fill="#2f2f2f" font-family="National-Book, National" font-size="24" font-weight="300"><tspan x="0" y="103">Choose amongst our unlimited</tspan> <tspan x="0" y="135">assessments on any part of</tspan> <tspan x="0" y="167">the syllabus</tspan></text></g><g stroke="#f48ba4" stroke-width="2"><path d="m607 110.76a25.254 25.254 0 0 1 6.164-.76c12.2 0 22.456 8.69 25.426 20.472a16.406 16.406 0 0 1 6.296-1.266c9.452 0 17.114 8.012 17.114 17.897s-7.662 17.897-17.114 17.897h-14.017"/><path d="m607 110a5 5 0 1 1 10.001 0 5 5 0 0 1 -10.001 0z" fill="#fff5f7"/><path d="m591 123c2.423-4.257 5.885-7.733 10-10m-28 25a13.873 13.873 0 0 1 14.375-1.88 26.52 26.52 0 0 1 1.625-8.12m24 37h-31.814c-7.835 0-14.186-6.715-14.186-15"/><path d="m562 150a5 5 0 1 1 10.001 0 5 5 0 0 1 -10.001 0z" fill="#fff5f7"/><path d="m626 165h-8"/><g transform="translate(443 151)"><circle cx="5" cy="49" fill="#fff5f7" r="5"/><path d="m10 47 109.5-46.5" stroke-dasharray="1 8" stroke-linecap="round"/></g><g transform="translate(661 157)"><path d="m0 0 103 71" stroke-dasharray="1 8" stroke-linecap="round"/><circle cx="108" cy="76" fill="#fff5f7" r="5"/></g></g><g transform="translate(-111 298)"><rect fill="#fff" height="127" rx="63.5" width="480"/><text fill="#2f2f2f" font-family="National-Book, National" font-size="24" font-weight="300"><tspan x="151" y="57">I run out of time in the paper.</tspan> <tspan x="151" y="89">I made a careless mistake.</tspan></text></g><g transform="translate(-52 58)"><rect fill="#fff" height="224" rx="100" width="480"/><text fill="#2f2f2f" font-family="National-Book, National" font-size="24" font-weight="300" transform="translate(92 32)"><tspan x="0" y="123">I know the subject but I’m not able</tspan> <tspan x="0" y="154">to score marks.</tspan></text><path d="m31.916 0c-17.626 0-31.916 14.29-31.916 31.916 0 17.627 14.29 31.916 31.916 31.916 17.627 0 31.916-14.29 31.916-31.916 0-17.627-14.29-31.916-31.916-31.916z" fill="url(#n)" transform="translate(92 32)"/><g stroke="#403408" stroke-linecap="round"><path d="m106.895 56.994 7.662 4.347-7.602 4.308" stroke-linejoin="round" stroke-width="4.04"/><path d="m140.937 65.65-7.485-4.348 7.427-4.308" stroke-linejoin="round" stroke-width="3.993"/><path d="m112.479 81.52s2.417-8.461 11.488-8.461 11.387 8.396 11.387 8.396" stroke-width="3.246"/></g><path d="m118.96 48.13a3.233 3.233 0 0 1 -6.465-.045c.012-1.786 3.288-7.858 3.288-7.858s3.189 6.118 3.176 7.904" fill="#2fa7bf"/><g transform="matrix(.76604444 .64278761 -.64278761 .76604444 175.326269 71.387036)"><path d="m25 6.937-.028 22.079c-.098 1.346-1.05 2.458-2.327 2.458h-18.465c-1.278 0-2.22-1.111-2.327-2.458v-22.079z" fill="#ed6060"/><path d="m5.61 7.693h1.894v18.027c0 1.394-1.894 1.394-1.894 0zm11.372 0h1.893v17.752c0 1.394-1.893 1.394-1.893 0zm-5.686 0h1.894v17.752c0 1.394-1.894 1.394-1.894 0z" fill="#e23b3b"/><path d="m22.08 7.19-.02 18.938c-.085 1.346-.917 2.483-2.034 2.483h-16.14c-1.116 0-2.11-1.414-2.377-2.761v-4.623 7.789c.268 1.347 1.393 2.505 2.67 2.505h18.466c1.278 0 2.23-1.01 2.327-2.356l.028-21.975z" fill="#dd3636"/><path d="m25 7.132-.028 21.69c0 .129-.003.259-.02.387-.17 1.257-1.09 2.265-2.307 2.265h-18.465c-1.15 0-2.028-.9-2.27-2.062a3.182 3.182 0 0 1 -.057-.651v-21.629z" stroke="#777" stroke-linecap="round" stroke-linejoin="round" stroke-width=".876"/><path d="m0 8.277h26.822v-1.791h-26.822z" fill="#d1d1d1" mask="url(#v)"/><path d="m4.87 4.744a1.2 1.2 0 0 1 1.206-1.193 1.2 1.2 0 0 1 1.206 1.193 1.2 1.2 0 0 1 -1.206 1.192 1.2 1.2 0 0 1 -1.205-1.192m2.987 0a1.2 1.2 0 0 1 1.206-1.193 1.2 1.2 0 0 1 1.205 1.193 1.2 1.2 0 0 1 -1.205 1.192 1.2 1.2 0 0 1 -1.206-1.192m3.712-3.551a1.2 1.2 0 0 1 1.206-1.193 1.2 1.2 0 0 1 1.206 1.193 1.2 1.2 0 0 1 -1.206 1.192 1.2 1.2 0 0 1 -1.206-1.192m-2.452 1.027c0-.581.476-1.052 1.064-1.052s1.064.47 1.064 1.052-.476 1.053-1.064 1.053a1.058 1.058 0 0 1 -1.064-1.053m8.722 3.09c0-.393.322-.712.719-.712s.719.319.719.712a.715.715 0 0 1 -.72.711.716.716 0 0 1 -.718-.711m-2.76-.566a1.2 1.2 0 0 1 1.206-1.193 1.2 1.2 0 0 1 1.205 1.193 1.2 1.2 0 0 1 -1.205 1.192 1.2 1.2 0 0 1 -1.206-1.192m-8.703-2.216a1.03 1.03 0 0 1 1.036-1.026c.573 0 1.037.46 1.037 1.026a1.03 1.03 0 0 1 -1.037 1.025 1.03 1.03 0 0 1 -1.036-1.025m10.888.537a1.2 1.2 0 0 1 1.206-1.192 1.2 1.2 0 0 1 1.206 1.192 1.2 1.2 0 0 1 -1.206 1.193 1.2 1.2 0 0 1 -1.206-1.193m-2.934-.985c0-.577.473-1.045 1.057-1.045s1.057.468 1.057 1.046c0 .577-.473 1.045-1.057 1.045a1.052 1.052 0 0 1 -1.057-1.045m-3.321 2.219c0-.905.741-1.638 1.655-1.638s1.655.733 1.655 1.637-.74 1.638-1.655 1.638a1.646 1.646 0 0 1 -1.655-1.638m8.858.223c0-.781.64-1.414 1.43-1.414s1.43.633 1.43 1.414-.64 1.414-1.43 1.414-1.43-.633-1.43-1.414" fill="#636363" mask="url(#v)"/></g></g></g></svg>