<svg height="1121" viewBox="0 0 1280 1121" width="1280" xmlns="http://www.w3.org/2000/svg" xmlns:xlink="http://www.w3.org/1999/xlink"><defs><linearGradient id="a" x1="100%" x2="30.94%" y1="-14.062%" y2="47.607%"><stop offset="0" stop-color="#fff1e2"/><stop offset="1" stop-color="#fff4f9"/></linearGradient><path id="b" d="m0 0h1280v1121h-1280z"/><linearGradient id="c" x1="77.39%" x2="-28.947%" y1="-19.442%" y2="140.996%"><stop offset="0" stop-color="#fff0e4"/><stop offset="1" stop-color="#ffdaeb"/></linearGradient><path id="d" d="m5.646.161a6.661 6.661 0 0 0 -3.536 1.926l-.009.012a7.091 7.091 0 0 0 -1.966 4.901l-.002.027.001.069a8.036 8.036 0 0 0 .025.529l.009.114c.014.152.036.302.06.451l.015.088c.058.328.137.647.237.958l.006.017c.902 2.769 3.435 4.769 6.412 4.769.564 0 1.022-.473 1.022-1.057 0-.583-.458-1.056-1.022-1.056-1.95 0-3.628-1.229-4.347-2.977l-.003-.01a5.082 5.082 0 0 1 -.297-1.038l-.006-.03a5.206 5.206 0 0 1 -.045-.34l-.001-.013a5.123 5.123 0 0 1 -.018-.295c-.001-.036-.003-.073-.003-.11a4.952 4.952 0 0 1 1.378-3.515l.004-.005c1.365-1.404 3.392-1.812 5.166-1.039.044.02.09.03.135.043 1.294.607 2.262 1.992 2.621 3.41.017.068-.003.39-.173.39h-6.049c-.565 0-1.022.558-1.022 1.141 0 .584.457 1.142 1.022 1.142h6.203c.645 0 1.244-.593 1.643-1.117.397-.522.541-1.478.394-2.125-.493-2.172-1.98-3.985-3.974-4.849-.07-.03-.142-.05-.215-.064a6.583 6.583 0 0 0 -3.665-.348z"/><linearGradient id="e" x1="50%" x2="50%" y1="-10.088%" y2="50%"><stop offset="0" stop-color="#2fa7bf"/><stop offset=".32452" stop-color="#93bc72"/><stop offset="1" stop-color="#ffd21f"/></linearGradient><path id="f" d="m5.646.161a6.661 6.661 0 0 0 -3.536 1.926l-.009.012a7.091 7.091 0 0 0 -1.966 4.901l-.002.027.001.069a8.036 8.036 0 0 0 .025.529l.009.114c.014.152.036.302.06.451l.015.088c.058.328.137.647.237.958l.006.017c.902 2.769 3.435 4.769 6.412 4.769.564 0 1.022-.473 1.022-1.057 0-.583-.458-1.056-1.022-1.056-1.95 0-3.628-1.229-4.347-2.977l-.003-.01a5.082 5.082 0 0 1 -.297-1.038l-.006-.03a5.206 5.206 0 0 1 -.045-.34l-.001-.013a5.123 5.123 0 0 1 -.018-.295c-.001-.036-.003-.073-.003-.11a4.952 4.952 0 0 1 1.378-3.515l.004-.005c1.365-1.404 3.392-1.812 5.166-1.039.044.02.09.03.135.043 1.294.607 2.262 1.992 2.621 3.41.017.068-.003.39-.173.39h-6.049c-.565 0-1.022.558-1.022 1.141 0 .584.457 1.142 1.022 1.142h6.203c.645 0 1.244-.593 1.643-1.117.397-.522.541-1.478.394-2.125-.493-2.172-1.98-3.985-3.974-4.849-.07-.03-.142-.05-.215-.064a6.583 6.583 0 0 0 -3.665-.348z"/><rect id="g" height="220" rx="14" width="204" x="104" y="27"/><filter id="h" height="117.3%" width="118.6%" x="-9.3%" y="-7.7%"><feOffset dy="2" in="SourceAlpha" result="shadowOffsetOuter1"/><feGaussianBlur in="shadowOffsetOuter1" result="shadowBlurOuter1" stdDeviation="6"/><feColorMatrix in="shadowBlurOuter1" values="0 0 0 0 0.654901961 0 0 0 0 0.654901961 0 0 0 0 0.654901961 0 0 0 0.199699955 0"/></filter><rect id="i" height="209" rx="14" width="161" x="315"/><filter id="j" height="118.2%" width="123.6%" x="-11.8%" y="-8.1%"><feOffset dy="2" in="SourceAlpha" result="shadowOffsetOuter1"/><feGaussianBlur in="shadowOffsetOuter1" result="shadowBlurOuter1" stdDeviation="6"/><feColorMatrix in="shadowBlurOuter1" values="0 0 0 0 0.654901961 0 0 0 0 0.654901961 0 0 0 0 0.654901961 0 0 0 0.27137115 0"/></filter><rect id="k" height="199" rx="14" width="183"/><filter id="l" height="119.1%" width="120.8%" x="-10.4%" y="-8.5%"><feOffset dy="2" in="SourceAlpha" result="shadowOffsetOuter1"/><feGaussianBlur in="shadowOffsetOuter1" result="shadowBlurOuter1" stdDeviation="6"/><feColorMatrix in="shadowBlurOuter1" values="0 0 0 0 0.654901961 0 0 0 0 0.654901961 0 0 0 0 0.654901961 0 0 0 0.199699955 0"/></filter><mask id="m" fill="#fff"><use fill="none" xlink:href="#b"/></mask><mask id="n" fill="#fff"><use fill="none" xlink:href="#d"/></mask><mask id="o" fill="#fff"><path d="m0 31.912h26.822v-31.912h-26.822z" fill="none"/></mask><mask id="p" fill="#fff"><use fill="none" xlink:href="#f"/></mask></defs><g fill="none" fill-rule="evenodd"><g transform="translate(-2)"><use fill="url(#a)" xlink:href="#b"/><path d="m-159.87 990.746 594-174-101 532h-493z" fill="url(#c)" mask="url(#m)" transform="matrix(.99026807 .1391731 -.1391731 .99026807 152.023658 -8.547598)"/><g mask="url(#m)" opacity=".439"><g transform="translate(-20 -148)"><g stroke="#f7dce3" stroke-width="2"><path d="m12 519h245v-301.796c-.67-22.804-8.702-34.204-24.098-34.204h-220.902z"/><path d="m12 637h95.524c16.759-2.015 25.138-10.745 25.138-26.191v-221.619c-2.012-17.459 5.028-26.19 21.116-26.19s394.162 3.694 1134.222 11.08"/><path d="m9 882.969h291.9c21.4.668 32.1-9.359 32.1-30.08 0-20.722-1.337-132.018-4.012-333.889"/><path d="m258.118 520v221.5c-1.337 21.471 8.691 32.207 30.085 32.207h248.708c21.393 1.343 32.089 12.417 32.089 33.224s-2.006 172.83-6.017 456.069"/><path d="m363 1269v-328.882c3.347-21.416 20.751-30.783 52.213-28.101 31.462 2.681 201.488 2.681 510.08 0 28.784-1.341 44.85 5.698 48.197 21.117 3.347 15.42 3.347 88.492 0 219.218-1.339 16.09-13.053 24.134-35.144 24.134h-163.666c-22.09-2.011-33.135-11.397-33.135-28.156 0-16.76 2.343-276.537 7.028-779.33"/><path d="m1279 1038h-420v228"/><path d="m1120.933 1269v-951.247c4.03-20.111-3.357-30.167-22.16-30.167h-659.773v-287.586"/><path d="m1285 94.502h-913.699c-27.474-2.677-41.212 5.354-41.212 24.093v83.32c-1.339 14.723 12.397 22.085 41.212 22.085s152.116-1.673 369.903-5.02m2.796-210.98v281m72-284v283"/><path d="m1015 4v600.797c-2.016 21.469-13.443 32.203-34.279 32.203h-88.721"/><path d="m1252 8v659.521c-.67 19.437-9.385 29.156-26.144 29.156h-295.624c-28.155 2.01-42.232-5.362-42.232-22.118s2.011-95.845 6.033-237.267l351.934 2.01m-1043.967 830.698v-264.46c1.34-16.758 11.05-25.136 29.134-25.136h170.783c12.055 2.01 18.083-9.05 18.083-33.183s-.67-218.874-2.01-584.221m-162.99 157h163m-406 211h41c14.667 3.351 22 11.393 22 24.127v325.72c-1.333 19.434-8.667 29.153-22 29.153h-53z"/></g><g fill="#ffd5df"><circle cx="742.5" cy="216.5" r="14.5"/><circle cx="888.5" cy="637.5" r="14.5"/><circle cx="1122" cy="701" r="11"/><circle cx="440" cy="277" r="11"/><circle cx="133" cy="519" r="11"/><circle cx="418" cy="520" r="11"/><circle cx="75" cy="883" r="11"/></g></g></g></g><path d="m836.803 409.59v-109a9.6 9.6 0 0 0 -9.6-9.6h-24.317c-5.461 0-9.869-4.455-9.869-9.973v-80.223c0-5.518 4.408-9.972 9.869-9.972h66.228c5.461 0 9.467 3.116 9.467 9.972v80.223c-.402 4.764-4.419 8.37-8.837 9.973h-10.445" stroke="#f48ba4" stroke-width="1.6"/><path d="m874.162 239.679c0-2.199 1.8-3.982 4.02-3.982s4.02 1.783 4.02 3.982-1.8 3.98-4.02 3.98-4.02-1.781-4.02-3.98zm-23.299 51.286c0-2.199 1.8-3.982 4.02-3.982s4.02 1.783 4.02 3.982-1.8 3.98-4.02 3.98-4.02-1.781-4.02-3.98zm-17.675 121.003c0-2.198 1.8-3.981 4.02-3.981s4.02 1.783 4.02 3.981c0 2.2-1.8 3.98-4.02 3.98s-4.02-1.78-4.02-3.98zm-44.188-198.734c0-2.198 1.8-3.981 4.02-3.981s4.02 1.783 4.02 3.981c0 2.2-1.8 3.98-4.02 3.98s-4.02-1.78-4.02-3.98z" fill="#fff5f7" stroke="#f48ba4" stroke-width="1.6"/><g fill-rule="nonzero"><path d="m802.748 282.976c-1.823 0-3.304-1.47-3.304-3.28v-79.183c0-1.81 1.481-3.28 3.304-3.28h66.504c1.823 0 3.304 1.47 3.304 3.28v79.182c0 1.81-1.481 3.281-3.304 3.281z" fill="#fff"/><path d="m819.3 225.28 3.462-3.454a2.665 2.665 0 0 0 0-3.778 2.682 2.682 0 0 0 -3.786 0l-3.463 3.454-3.463-3.454a2.682 2.682 0 0 0 -3.787 0 2.665 2.665 0 0 0 0 3.778l3.463 3.453-3.463 3.454a2.665 2.665 0 0 0 0 3.777 2.682 2.682 0 0 0 3.787 0l3.463-3.453 3.463 3.453a2.682 2.682 0 0 0 3.786 0 2.665 2.665 0 0 0 0-3.777l-3.462-3.454z" fill="#ea5a7d"/><path d="m861.274 227.372a2.735 2.735 0 0 1 -3.904 0l-.836-.765v9.779c0 4.534-3.737 8.194-8.367 8.194h-22.681c-1.562 0-2.789 1.202-2.789 2.731v11.29c0 .904-.428 1.693-1.1 2.188a2.834 2.834 0 0 1 -1.689.544c-1.561 0-2.788-1.202-2.788-2.732v-11.29c0-4.534 3.736-8.194 8.366-8.194h22.682c1.561 0 2.788-1.202 2.788-2.731v-9.779l-.837.765a2.735 2.735 0 0 1 -3.904 0 2.603 2.603 0 0 1 0-3.824l5.578-5.463a2.735 2.735 0 0 1 3.904 0l5.577 5.463a2.603 2.603 0 0 1 0 3.824z" fill="#ea5a7d" opacity=".8"/><path d="m849.814 184.6h-3.976c-1.348-3.828-5.346-6.6-9.727-6.6-4.38 0-8.38 2.772-9.727 6.6h-3.976c-5.594 0-10.109 4.423-10.109 9.902 0 5.478 4.515 9.9 10.109 9.9h27.406c5.594 0 10.109-4.422 10.109-9.9 0-5.48-4.515-9.901-10.109-9.901z" fill="#f6b72c"/><path d="m859.47 264.545 3.463-3.453a2.665 2.665 0 0 0 0-3.778 2.682 2.682 0 0 0 -3.787 0l-3.462 3.454-3.463-3.454a2.682 2.682 0 0 0 -3.787 0 2.665 2.665 0 0 0 0 3.778l3.463 3.453-3.463 3.454a2.665 2.665 0 0 0 0 3.777 2.682 2.682 0 0 0 3.787 0l3.463-3.453 3.462 3.453a2.682 2.682 0 0 0 3.787 0 2.665 2.665 0 0 0 0-3.777l-3.462-3.454z" fill="#ea5a7d"/><path d="m860.847 194.757c0 5.563-4.44 10.054-9.943 10.054h-13.478v-26.811c4.309 0 8.242 2.815 9.567 6.703h3.911c5.502 0 9.943 4.49 9.943 10.054z" fill="#f8e494"/><path d="m819.53 272.559c-3.987 0-7.23-3.235-7.23-7.212s3.243-7.212 7.23-7.212 7.23 3.235 7.23 7.212-3.243 7.212-7.23 7.212z" fill="#ea5a7d"/></g><rect fill="#fff" height="237" rx="70" width="480" x="906" y="154"/><g transform="translate(946 186)"><ellipse cx="30" cy="31.127" fill="#ea5a7d" rx="29.472" ry="30.611"/><path d="m30.572 13.263a8.928 8.928 0 0 0 -.413-.018c-.18.006-.29.009-.429.018-6.755.473-11.847 6.174-11.847 13.09 0 8.431 7.21 11.419 7.21 14.717v.015h10.413v-.015c0-3.298 7.063-6.278 7.063-14.71 0-6.915-5.24-12.624-11.996-13.097" fill="#fff"/><path d="m34.046 14.008c3.199 2.647 5.12 6.514 5.12 10.806 0 9.27-8.709 12.539-8.709 16.165v.106h5.049v-.015c0-3.298 7.062-6.278 7.062-14.71 0-5.668-3.558-10.526-8.522-12.352" fill="#ffe3ea"/><path d="m37.173 25.448c-.494-2.173-1.98-3.986-3.975-4.85a.993.993 0 0 0 -.214-.064 6.55 6.55 0 0 0 -3.664-.347 6.663 6.663 0 0 0 -3.536 1.926l-.009.01a7.091 7.091 0 0 0 -1.966 4.903c0 .01-.003.018-.003.027l.002.069a6.918 6.918 0 0 0 .025.53c.003.037.004.075.008.113a6.851 6.851 0 0 0 .076.54c.058.327.137.646.237.957l.006.018c.902 2.768 3.434 4.768 6.412 4.768.564 0 1.022-.473 1.022-1.057 0-.583-.458-1.056-1.022-1.056-1.95 0-3.628-1.229-4.347-2.977-.002-.003-.002-.007-.003-.01a5.076 5.076 0 0 1 -.298-1.038l-.005-.03a5.226 5.226 0 0 1 -.045-.34l-.001-.013a5.425 5.425 0 0 1 -.019-.294l-.002-.111a4.954 4.954 0 0 1 1.378-3.515l.004-.005c1.365-1.404 3.391-1.812 5.166-1.039.044.02.09.03.135.044 1.293.606 2.261 1.991 2.62 3.41.018.067-.003.389-.172.389h-6.05c-.565 0-1.022.558-1.022 1.141 0 .584.457 1.142 1.022 1.142h6.203c.645 0 1.243-.593 1.642-1.116.398-.523.542-1.48.395-2.125" fill="#c80"/><g transform="translate(23.674 20.025)"><use fill="#ea5a7d" xlink:href="#d"/><path d="m30.569 2.535-30.677 31.718-5.486-5.341 30.676-31.717z" fill="#ef990f" mask="url(#n)"/></g><path d="m35.58 46.068h-10.624c-1.021 0-1.85-.856-1.85-1.911 0-1.056.829-1.912 1.85-1.912h10.624c1.02 0 1.848.856 1.848 1.912 0 1.055-.827 1.91-1.848 1.91m-1.17 4.722h-8.284c-.968 0-1.753-.811-1.753-1.812 0-1 .785-1.812 1.753-1.812h8.284c.968 0 1.753.811 1.753 1.812s-.785 1.812-1.753 1.812m-6.965 1.018c-.132 0-.211.14-.137.242a3.647 3.647 0 0 0 2.96 1.487c1.234 0 2.32-.6 2.96-1.487.074-.103-.005-.242-.137-.242z" fill="#fff"/><path d="m22.031 24.846c-1.27-.933-1.25-3.215.043-5.096 1.294-1.88 3.371-2.648 4.641-1.715s1.25 3.215-.043 5.096c-1.293 1.88-3.371 2.648-4.641 1.715" fill="#ea5a7d" opacity=".1"/><path d="m29.235 10.42v-1.955m11.405 6.37 1.535-1.586m-.857 23.72 1.534 1.587m2.75-13.393h2.208m-28.617-10.328-1.533-1.585m.856 23.719-1.535 1.587m-2.615-13.393h-2.208" stroke="#fff" stroke-linecap="round" stroke-linejoin="round" stroke-width="1.132"/><text fill="#2f2f2f" font-family="National-Book, National" font-size="24" font-weight="300"><tspan x="0" y="103">Choose amongst our unlimited</tspan> <tspan x="0" y="135">assessments on any part of</tspan> <tspan x="0" y="167">the syllabus</tspan></text></g><g stroke="#f48ba4" stroke-width="2"><path d="m602 61.76a25.254 25.254 0 0 1 6.164-.76c12.2 0 22.456 8.69 25.426 20.472a16.406 16.406 0 0 1 6.296-1.266c9.452 0 17.114 8.012 17.114 17.897s-7.662 17.897-17.114 17.897h-14.017"/><path d="m602 61a5 5 0 1 1 10.001 0 5 5 0 0 1 -10.001 0z" fill="#fff5f7"/><path d="m586 74c2.423-4.257 5.885-7.733 10-10m-28 25a13.873 13.873 0 0 1 14.375-1.88 26.52 26.52 0 0 1 1.625-8.12m24 37h-31.814c-7.835 0-14.186-6.715-14.186-15"/><path d="m557 101a5 5 0 1 1 10.001 0 5 5 0 0 1 -10.001 0z" fill="#fff5f7"/><path d="m621 116h-8"/><g transform="translate(438 102)"><circle cx="5" cy="49" fill="#fff5f7" r="5"/><path d="m10 47 109.5-46.5" stroke-dasharray="1 8" stroke-linecap="round"/></g><g transform="translate(656 108)"><path d="m0 0 103 71" stroke-dasharray="1 8" stroke-linecap="round"/><circle cx="108" cy="76" fill="#fff5f7" r="5"/></g></g><g transform="translate(-50 56)"><rect fill="#fff" height="225" rx="100" width="480"/><text fill="#2f2f2f" font-family="National-Book, National" font-size="24" font-weight="300" transform="translate(90 32)"><tspan x="0" y="124">If I try really hard, can I really</tspan> <tspan x="0" y="155">improve in just a few tests?</tspan></text><path d="m31.916 0c-17.626 0-31.916 14.29-31.916 31.916 0 17.627 14.29 31.916 31.916 31.916 17.627 0 31.916-14.29 31.916-31.916 0-17.627-14.29-31.916-31.916-31.916z" fill="url(#e)" transform="translate(90 32)"/><g stroke="#403408" stroke-linecap="round"><path d="m104.895 56.994 7.662 4.347-7.602 4.308" stroke-linejoin="round" stroke-width="4.04"/><path d="m138.937 65.65-7.485-4.348 7.427-4.308" stroke-linejoin="round" stroke-width="3.993"/><path d="m110.479 81.52s2.417-8.461 11.488-8.461 11.387 8.396 11.387 8.396" stroke-width="3.246"/></g><path d="m116.96 48.13a3.233 3.233 0 0 1 -6.465-.045c.012-1.786 3.288-7.858 3.288-7.858s3.189 6.118 3.176 7.904" fill="#2fa7bf"/><g transform="matrix(.76604444 .64278761 -.64278761 .76604444 173.325933 71.386913)"><path d="m25 6.937-.028 22.079c-.098 1.346-1.05 2.458-2.327 2.458h-18.465c-1.278 0-2.22-1.111-2.327-2.458v-22.079z" fill="#ed6060"/><path d="m5.61 7.693h1.894v18.027c0 1.394-1.894 1.394-1.894 0zm11.372 0h1.893v17.752c0 1.394-1.893 1.394-1.893 0zm-5.686 0h1.894v17.752c0 1.394-1.894 1.394-1.894 0z" fill="#e23b3b"/><path d="m22.08 7.19-.02 18.938c-.085 1.346-.917 2.483-2.034 2.483h-16.14c-1.116 0-2.11-1.414-2.377-2.761v-4.623 7.789c.268 1.347 1.393 2.505 2.67 2.505h18.466c1.278 0 2.23-1.01 2.327-2.356l.028-21.975z" fill="#dd3636"/><path d="m25 7.132-.028 21.69c0 .129-.003.259-.02.387-.17 1.257-1.09 2.265-2.307 2.265h-18.465c-1.15 0-2.028-.9-2.27-2.062a3.182 3.182 0 0 1 -.057-.651v-21.629z" stroke="#777" stroke-linecap="round" stroke-linejoin="round" stroke-width=".876"/><path d="m0 8.277h26.822v-1.791h-26.822z" fill="#d1d1d1" mask="url(#o)"/><path d="m4.87 4.744a1.2 1.2 0 0 1 1.206-1.193 1.2 1.2 0 0 1 1.206 1.193 1.2 1.2 0 0 1 -1.206 1.192 1.2 1.2 0 0 1 -1.205-1.192m2.987 0a1.2 1.2 0 0 1 1.206-1.193 1.2 1.2 0 0 1 1.205 1.193 1.2 1.2 0 0 1 -1.205 1.192 1.2 1.2 0 0 1 -1.206-1.192m3.712-3.551a1.2 1.2 0 0 1 1.206-1.193 1.2 1.2 0 0 1 1.206 1.193 1.2 1.2 0 0 1 -1.206 1.192 1.2 1.2 0 0 1 -1.206-1.192m-2.452 1.027c0-.581.476-1.052 1.064-1.052s1.064.47 1.064 1.052-.476 1.053-1.064 1.053a1.058 1.058 0 0 1 -1.064-1.053m8.722 3.09c0-.393.322-.712.719-.712s.719.319.719.712a.715.715 0 0 1 -.72.711.716.716 0 0 1 -.718-.711m-2.76-.566a1.2 1.2 0 0 1 1.206-1.193 1.2 1.2 0 0 1 1.205 1.193 1.2 1.2 0 0 1 -1.205 1.192 1.2 1.2 0 0 1 -1.206-1.192m-8.703-2.216a1.03 1.03 0 0 1 1.036-1.026c.573 0 1.037.46 1.037 1.026a1.03 1.03 0 0 1 -1.037 1.025 1.03 1.03 0 0 1 -1.036-1.025m10.888.537a1.2 1.2 0 0 1 1.206-1.192 1.2 1.2 0 0 1 1.206 1.192 1.2 1.2 0 0 1 -1.206 1.193 1.2 1.2 0 0 1 -1.206-1.193m-2.934-.985c0-.577.473-1.045 1.057-1.045s1.057.468 1.057 1.046c0 .577-.473 1.045-1.057 1.045a1.052 1.052 0 0 1 -1.057-1.045m-3.321 2.219c0-.905.741-1.638 1.655-1.638s1.655.733 1.655 1.637-.74 1.638-1.655 1.638a1.646 1.646 0 0 1 -1.655-1.638m8.858.223c0-.781.64-1.414 1.43-1.414s1.43.633 1.43 1.414-.64 1.414-1.43 1.414-1.43-.633-1.43-1.414" fill="#636363" mask="url(#o)"/></g></g><g transform="translate(-79 447)"><rect fill="#fff" height="333" rx="70" width="598" x="40"/><rect fill="#fff" height="200" rx="100" width="759" y="365"/><text fill="#2f2f2f" font-family="National-Book, National" font-size="24" font-weight="300"><tspan x="119" y="422">How do we measure it?</tspan> <tspan x="119" y="454">The time you spend on questions - whether you rush through</tspan> <tspan x="119" y="485">them, when you get them wrong, if you look at the solutions -</tspan> <tspan x="119" y="516">we look at all of that and we compute how hard you tried.</tspan></text><g transform="translate(119 32)"><text fill="#2f2f2f" font-family="National-Book, National" font-size="24" font-weight="300"><tspan x="0" y="103">If you do your revision really really well, you can</tspan> <tspan x="0" y="134">definitely improve, and that depends largely on</tspan> <tspan x="0" y="165">how diligently you follow RANKUP’s improvement</tspan> <tspan x="0" y="196">plan. If you do, your effort rating can go up to</tspan> <tspan x="0" y="227">100% and a 100% effort rating means guaranteed</tspan> <tspan x="0" y="258">success!</tspan></text><ellipse cx="30" cy="31.127" fill="#ea5a7d" rx="29.472" ry="30.611"/><path d="m30.572 13.263a8.928 8.928 0 0 0 -.413-.018c-.18.006-.29.009-.429.018-6.755.473-11.847 6.174-11.847 13.09 0 8.431 7.21 11.419 7.21 14.717v.015h10.413v-.015c0-3.298 7.063-6.278 7.063-14.71 0-6.915-5.24-12.624-11.996-13.097" fill="#fff"/><path d="m34.046 14.008c3.199 2.647 5.12 6.514 5.12 10.806 0 9.27-8.709 12.539-8.709 16.165v.106h5.049v-.015c0-3.298 7.062-6.278 7.062-14.71 0-5.668-3.558-10.526-8.522-12.352" fill="#ffe3ea"/><path d="m37.173 25.448c-.494-2.173-1.98-3.986-3.975-4.85a.993.993 0 0 0 -.214-.064 6.55 6.55 0 0 0 -3.664-.347 6.663 6.663 0 0 0 -3.536 1.926l-.009.01a7.091 7.091 0 0 0 -1.966 4.903c0 .01-.003.018-.003.027l.002.069a6.918 6.918 0 0 0 .025.53c.003.037.004.075.008.113a6.851 6.851 0 0 0 .076.54c.058.327.137.646.237.957l.006.018c.902 2.768 3.434 4.768 6.412 4.768.564 0 1.022-.473 1.022-1.057 0-.583-.458-1.056-1.022-1.056-1.95 0-3.628-1.229-4.347-2.977-.002-.003-.002-.007-.003-.01a5.076 5.076 0 0 1 -.298-1.038l-.005-.03a5.226 5.226 0 0 1 -.045-.34l-.001-.013a5.425 5.425 0 0 1 -.019-.294l-.002-.111a4.954 4.954 0 0 1 1.378-3.515l.004-.005c1.365-1.404 3.391-1.812 5.166-1.039.044.02.09.03.135.044 1.293.606 2.261 1.991 2.62 3.41.018.067-.003.389-.172.389h-6.05c-.565 0-1.022.558-1.022 1.141 0 .584.457 1.142 1.022 1.142h6.203c.645 0 1.243-.593 1.642-1.116.398-.523.542-1.48.395-2.125" fill="#c80"/><g transform="translate(23.674 20.025)"><use fill="#ea5a7d" xlink:href="#f"/><path d="m30.569 2.535-30.677 31.718-5.486-5.341 30.676-31.717z" fill="#ef990f" mask="url(#p)"/></g><path d="m35.58 46.068h-10.624c-1.021 0-1.85-.856-1.85-1.911 0-1.056.829-1.912 1.85-1.912h10.624c1.02 0 1.848.856 1.848 1.912 0 1.055-.827 1.91-1.848 1.91m-1.17 4.722h-8.284c-.968 0-1.753-.811-1.753-1.812 0-1 .785-1.812 1.753-1.812h8.284c.968 0 1.753.811 1.753 1.812s-.785 1.812-1.753 1.812m-6.965 1.018c-.132 0-.211.14-.137.242a3.647 3.647 0 0 0 2.96 1.487c1.234 0 2.32-.6 2.96-1.487.074-.103-.005-.242-.137-.242z" fill="#fff"/><path d="m22.031 24.846c-1.27-.933-1.25-3.215.043-5.096 1.294-1.88 3.371-2.648 4.641-1.715s1.25 3.215-.043 5.096c-1.293 1.88-3.371 2.648-4.641 1.715" fill="#ea5a7d" opacity=".1"/><path d="m29.235 10.42v-1.955m11.405 6.37 1.535-1.586m-.857 23.72 1.534 1.587m2.75-13.393h2.208m-28.617-10.328-1.533-1.585m.856 23.719-1.535 1.587m-2.615-13.393h-2.208" stroke="#fff" stroke-linecap="round" stroke-linejoin="round" stroke-width="1.132"/></g></g><g transform="translate(909 573)"><path d="m342.577 0h-286.154c-7.786 0-14.423 6.34-14.423 14.195v186.805h315v-186.805c0-7.855-6.613-14.195-14.423-14.195z" fill="#ffaec2" fill-rule="nonzero"/><circle cx="200.5" cy="10.5" opacity=".2" r="2.5" stroke="#8492a5" stroke-width="1.732"/><path d="m369.877 217.888h-340.274c-17.689 0-29.603-5.728-29.603-8.163v-7.403c0-.732.77-1.322 1.729-1.322h396.021c.96 0 1.731.59 1.731 1.322v7.695c-.004 1.925-9.23 7.87-29.605 7.87z" fill="#f68da6" fill-rule="nonzero"/><path d="m.289 209.067h398.119" opacity=".2" stroke="#a12c49" stroke-linecap="square" stroke-width=".866"/><path d="m55 22h290v167h-290z" fill="#f6f6f6" fill-rule="nonzero"/></g><path d="m562.097 790h669.015" fill="#d8d8d8" stroke="#f48ba4" stroke-dasharray="1 9" stroke-linecap="round" stroke-width="2"/><path d="m545 790a5 5 0 1 1 10.001 0 5 5 0 0 1 -10.001 0z" stroke="#f48ba4" stroke-width="1.667"/><path d="m874.868 779.863c-11.717-3.24-28.138-5.258-46.336-5.258-18.2 0-34.623 2.017-46.336 5.258h-18.076v11.937c0 9.498 28.836 17.199 64.41 17.199 35.572 0 64.41-7.701 64.41-17.199v-11.938h-18.073" fill="#bec4c1"/><path d="m874.868 779.863c-11.717-3.24-28.138-5.258-46.336-5.258-18.2 0-34.623 2.017-46.336 5.258h-18.076v11.937c0 9.498 28.836 17.199 64.41 17.199 35.572 0 64.41-7.701 64.41-17.199v-11.938h-18.073z" fill="#e5e5e5"/><path d="m764.121 777.83c0-9.497 28.836-17.198 64.41-17.198 35.572 0 64.41 7.701 64.41 17.198 0 9.498-28.838 17.197-64.41 17.197-35.574 0-64.41-7.7-64.41-17.197" fill="#eeeeea"/><path d="m764.121 777.83c0-9.497 28.836-17.198 64.41-17.198 35.572 0 64.41 7.701 64.41 17.198 0 9.498-28.838 17.197-64.41 17.197-35.574 0-64.41-7.7-64.41-17.197z" fill="#eeeded"/><path d="m617.98 701.538c0 27.294 21.531 49.42 48.09 49.42h322.759c26.558 0 48.088-22.126 48.088-49.42v-1.098h-418.936v1.098z" fill="#f68da6"/><path d="m988.829 450h-322.76c-26.558 0-48.088 21.894-48.088 48.904v201.536h418.936v-201.536c0-27.01-21.53-48.904-48.088-48.904z" fill="#ffaec2"/><path d="m640.714 701.515v-202.124c0-14.788 11.805-26.82 26.316-26.82h323.003c14.512 0 26.317 12.032 26.317 26.82v202.124z" fill="#90ccb9"/><path d="m640.714 701.515v-202.124c0-14.788 11.805-26.82 26.316-26.82h323.003c14.512 0 26.317 12.032 26.317 26.82v202.124z"/><path d="m640.714 701.515v-202.124c0-14.788 11.805-26.82 26.316-26.82h323.003c14.512 0 26.317 12.032 26.317 26.82v202.124z" fill="#90ccb9"/><path d="m640.714 701.515v-202.124c0-14.788 11.805-26.82 26.316-26.82h323.003c14.512 0 26.317 12.032 26.317 26.82v202.124z" fill="#fff9fa"/><path d="m822.578 723.917c0-4.655 3.68-8.429 8.221-8.429 4.54 0 8.222 3.774 8.222 8.43 0 4.655-3.681 8.429-8.222 8.429-4.54 0-8.221-3.774-8.221-8.43z" fill="#e25476"/><path d="m794.432 777.83h66.034v-26.872h-66.034z" fill="#f2f2f2"/><path d="m640.714 701.515v-202.124c0-14.788 11.805-26.82 26.316-26.82h323.003c14.512 0 26.317 12.032 26.317 26.82v202.124z" fill="#90ccb9"/><path d="m640.714 701.515v-202.124c0-14.788 11.805-26.82 26.316-26.82h323.003c14.512 0 26.317 12.032 26.317 26.82v202.124z"/><path d="m640.714 701.515v-202.124c0-14.788 11.805-26.82 26.316-26.82h323.003c14.512 0 26.317 12.032 26.317 26.82v202.124z" fill="#90ccb9"/><path d="m640.714 701.515v-202.124c0-14.788 11.805-26.82 26.316-26.82h323.003c14.512 0 26.317 12.032 26.317 26.82v202.124z" fill="#f6f6f6"/><g transform="translate(545 438)"><use fill="#000" filter="url(#h)" xlink:href="#g"/><use fill="#fff" xlink:href="#g"/></g><g transform="translate(667 483)"><text fill="#6c6c6c" font-family="Roboto-Light, Roboto" font-size="10" font-weight="300"><tspan x="4" y="55">As the temperature is raised from</tspan> <tspan x="4" y="70">20 C to 40 C, the average kinetic</tspan> <tspan x="4" y="85">energy of neon atoms changes by a</tspan> <tspan x="4" y="100">factor of which of the following?</tspan></text><text fill="#f6b72c" font-family="Roboto-Regular, Roboto" font-size="10"><tspan x="4" y="9">Try doing this without a hint for</tspan> <tspan x="4" y="23">some more time</tspan></text><g fill="#6c6c6c" font-family="Roboto-Light, Roboto" font-weight="300"><text font-size="10"><tspan x="26" y="139">313/293</tspan></text><text font-size="6"><tspan x="3" y="137">A</tspan></text><g font-size="10"><text><tspan x="19.572" y="171.437">1/2</tspan></text><text><tspan x="110" y="140">313/293</tspan></text><text><tspan x="110" y="172">2</tspan></text></g></g><path d="m18.992 136.188 3.473 5.26 3.498-12.69h35.137" stroke="#979797" stroke-width=".5"/><text fill="#6c6c6c" font-family="Roboto-Light, Roboto" font-size="6" font-weight="300"><tspan x="4" y="169">B</tspan></text><circle cx="5.5" cy="168.5" r="5.5" stroke="#979797" stroke-width=".5"/><circle cx="5.5" cy="136.5" r="5.5" stroke="#979797" stroke-width=".5"/><text fill="#6c6c6c" font-family="Roboto-Light, Roboto" font-size="6" font-weight="300"><tspan x="95" y="138">C</tspan></text><circle cx="96.5" cy="137.5" r="5.5" stroke="#979797" stroke-width=".5"/><text fill="#6c6c6c" font-family="Roboto-Light, Roboto" font-size="6" font-weight="300"><tspan x="95" y="170">D</tspan></text><circle cx="96.5" cy="169.5" r="5.5" stroke="#979797" stroke-width=".5"/></g><g transform="translate(545 438)"><use fill="#000" filter="url(#j)" xlink:href="#i"/><use fill="#fff" xlink:href="#i"/></g><path d="m891.817 592.626h6.263v-3.084h-6.263z" fill="#71716e"/><path d="m890.497 589.542h8.903v-3.542h-8.903z" fill="#a3a4a0"/><path d="m880 605.975c0-8.113 6.676-14.689 14.911-14.689 8.236 0 14.912 6.576 14.912 14.689 0 8.11-6.676 14.686-14.912 14.686-8.235 0-14.911-6.576-14.911-14.686" fill="#87d37c"/><path d="m884.368 616.377c5.947 5.859 15.265 5.735 21.088 0 5.824-5.734 5.946-14.912 0-20.77z" fill="#f6b72c"/><path d="m883.455 605.975c0-6.234 5.13-11.286 11.456-11.286 6.327 0 11.458 5.052 11.458 11.286 0 6.231-5.13 11.283-11.458 11.283-6.327 0-11.456-5.052-11.456-11.283" fill="#fffffe"/><path d="m895.31 598.335v-1.147a.433.433 0 0 0 -.437-.43.433.433 0 0 0 -.437.43v1.147c0 .238.196.43.437.43a.433.433 0 0 0 .437-.43m0 16.926v-.86a.433.433 0 0 0 -.437-.43.433.433 0 0 0 -.437.43v.86c0 .239.196.43.437.43a.433.433 0 0 0 .437-.43m5.564-14.378.808-.795a.418.418 0 0 0 0-.597.43.43 0 0 0 -.606 0l-.807.795a.418.418 0 0 0 0 .597.435.435 0 0 0 .605 0m-.249 11.099.808.795a.43.43 0 0 0 .606 0 .417.417 0 0 0 0-.597l-.808-.794a.43.43 0 0 0 -.606 0 .418.418 0 0 0 0 .596m2.549-5.327h.874a.433.433 0 0 0 .437-.43.433.433 0 0 0 -.437-.43h-.874a.433.433 0 0 0 -.437.43c0 .238.196.43.437.43m-13.589-6.369-.808-.795a.43.43 0 0 0 -.607 0 .418.418 0 0 0 0 .597l.808.795a.436.436 0 0 0 .607 0 .418.418 0 0 0 0-.597m-.963 11.1-.808.794a.418.418 0 0 0 0 .597.43.43 0 0 0 .606 0l.808-.795a.417.417 0 0 0 0-.596.43.43 0 0 0 -.606 0m-1.758-5.592h-1.165a.433.433 0 0 0 -.437.43c0 .239.195.43.437.43h1.165a.433.433 0 0 0 .436-.43.433.433 0 0 0 -.436-.43m7.281-4.59v5.45a.579.579 0 0 0 .583.575h5.534a.577.577 0 0 0 .582-.574.58.58 0 0 0 -.582-.574h-4.952v-4.877a.58.58 0 0 0 -.582-.574.579.579 0 0 0 -.583.574" fill="#71716e"/><path d="m887.297 610.763c-.51-.281-.878-.88-1.073-1.268a.179.179 0 0 0 -.32 0c-.195.387-.563.987-1.073 1.268a.175.175 0 0 0 0 .31c.51.281.878.884 1.073 1.27a.18.18 0 0 0 .32 0c.195-.386.564-.989 1.073-1.27a.175.175 0 0 0 0-.31" fill="#fffffe"/><g fill-rule="nonzero" transform="translate(908 464)"><path d="m60 26a34.652 34.652 0 0 0 -30-17.23 34.652 34.652 0 0 0 -30 17.23 34.652 34.652 0 0 0 30 17.23c12.82 0 24.011-6.93 30-17.23z" fill="#ffeff3"/><ellipse cx="30" cy="26" fill="#ffc4d3" rx="17.143" ry="17.056"/><ellipse cx="30" cy="26" fill="#ff7496" rx="9.231" ry="9.184"/><path d="m8.901 11.896a.987.987 0 0 1 -.989-.984v-5.904c0-.543.443-.984.99-.984h5.933c.546 0 .99.44.99.984a.987.987 0 0 1 -.99.984h-4.945v4.92a.987.987 0 0 1 -.989.984zm42.198 0a.986.986 0 0 1 -.99-.984v-4.92h-4.944a.986.986 0 0 1 -.99-.984c0-.543.443-.984.99-.984h5.934c.546 0 .989.44.989.984v5.904a.986.986 0 0 1 -.99.984zm-36.264 36.08h-5.934a.987.987 0 0 1 -.989-.984v-5.904c0-.544.443-.984.99-.984.545 0 .988.44.988.984v4.92h4.945c.546 0 .99.44.99.984a.987.987 0 0 1 -.99.984zm36.264 0h-5.934a.986.986 0 0 1 -.99-.984c0-.544.444-.984.99-.984h4.945v-4.92c0-.544.443-.984.989-.984s.99.44.99.984v5.904a.987.987 0 0 1 -.99.984z" fill="#ea5a7d"/><path d="m55.055 25.016h-24.066v-23.944a.986.986 0 0 0 -.989-.984c-.546 0-.99.44-.99.984v23.944h-24.064c-.546 0-.989.44-.989.984s.443.984.99.984h24.063v23.944c0 .543.443.984.989.984s.99-.44.99-.984v-23.944h24.065c.546 0 .99-.44.99-.984a.987.987 0 0 0 -.99-.984z" fill="#d84a6d"/></g><text fill="#2f2f2f" font-family="Roboto-Regular, Roboto" font-size="13.105" transform="translate(889 531)"><tspan x="33.997" y="89.693">00.07</tspan></text><text fill="#6c6c6c" font-family="Roboto-Light, Roboto" font-size="9.36" font-weight="300" transform="translate(889 531)"><tspan x="33" y="58">Time spent on this</tspan> <tspan x="33" y="69">question</tspan></text><text fill="#6c6c6c" font-family="Roboto-Regular, Roboto" font-size="11.232" transform="translate(889 531)"><tspan x="1.047" y="10.969">Tracking your effort</tspan></text><g transform="translate(1059 543)"><use fill="#000" filter="url(#l)" xlink:href="#k"/><use fill="#fff" xlink:href="#k"/></g><g transform="translate(1091 561)"><rect fill="#ea5a7d" height="17" rx="8.5" width="55"/><text fill="#fff" font-family="Roboto-Regular, Roboto" font-size="8"><tspan x="5" y="7">Effort Rating</tspan></text></g><g fill="#6c6c6c"><text font-family="Roboto-Light, Roboto" font-size="8" font-weight="300" transform="translate(1091 561)"><tspan x="60" y="7">Score achieved</tspan></text><text font-family="Roboto-Regular, Roboto" font-size="10" transform="translate(1091 561)"><tspan x="2" y="44">Effort Rating Improvement</tspan></text><text font-family="Roboto-Light, Roboto" font-size="8" font-weight="300" transform="translate(1067 642)"><tspan x="137" y="72">Tests</tspan></text><text font-family="Roboto-Light, Roboto" font-size="8" font-weight="300" transform="matrix(0 -1 1 0 1061 665)"><tspan x="-2" y="13">Score</tspan></text></g><g stroke="#efefef" stroke-width=".5"><path d="m1085.598 644.163v59.12h136.402"/><path d="m1085.3 692.105h135.814m-135.814-10.815h135.814m-135.814-10.813h135.814m-135.814-10.814h135.814m-135.814-10.814h135.814m-116.671 54.791v-61.284m38.887 61.284v-61.284m38.886 61.284v-61.284" stroke-linecap="square"/></g><g transform="translate(1086 644)"><path d="m0 0 17.946 17.23 19.741-11.485h19.143l20.34 7.18 18.544 10.768 19.741 4.307 18.545-14" stroke="#ea5a7d" stroke-width=".655"/><g fill="#ea5a7d"><circle cx="133.5" cy="14.5" r="1.5"/><circle cx="115.5" cy="27.5" r="1.5"/><circle cx="95.5" cy="23.5" r="1.5"/><circle cx="75.5" cy="12.5" r="1.5"/><circle cx="57.5" cy="6.5" r="1.5"/><circle cx="37.5" cy="5.5" r="1.5"/><circle cx="17.5" cy="17.5" r="1.5"/></g></g></g></svg>