<svg height="26" viewBox="0 0 22 26" width="22" xmlns="http://www.w3.org/2000/svg"><g fill="none" fill-rule="evenodd"><path d="m12.926 5.455 4.176 1.687.818-2.025-4.175-1.687z" fill="#777"/><path d="m12.796 3.046 5.884 2.378.892-2.21-5.884-2.377z" fill="#aaa"/><path d="m1.648 10.965c2.095-5.186 8.128-7.64 13.474-5.48s7.981 8.116 5.886 13.302c-2.095 5.185-8.127 7.639-13.474 5.479-5.346-2.16-7.981-8.116-5.886-13.301" fill="#ed6060"/><path d="m1.76 18.885c2.369 5.352 8.503 7.739 13.812 5.58s7.781-8.046 5.413-13.398z" fill="#e23b3b"/><path d="m3.963 11.793c1.623-4.017 6.295-5.917 10.436-4.244 4.14 1.673 6.181 6.285 4.559 10.302-1.623 4.017-6.295 5.916-10.436 4.243-4.14-1.672-6.182-6.285-4.559-10.301" fill="#fff"/><path d="m16.538 12.911.792-.322m-3.504 7.579.347.783m-5.038-11.031-.346-.782m-2.745 7.886-.792.322" stroke="#777" stroke-linecap="round" stroke-linejoin="round" stroke-width=".751"/><path d="m12.403 11.669-1.413 3.498 3.606 1.457" stroke="#777" stroke-linecap="round" stroke-linejoin="round" stroke-width="1.022"/><path d="m5.073 15.976c-.253-.32-.328-.815-.35-1.123a.123.123 0 0 0 -.206-.083c-.23.206-.628.51-1.032.565a.128.128 0 0 0 -.083.206c.252.32.328.815.35 1.123a.123.123 0 0 0 .206.083c.23-.206.628-.51 1.032-.565a.128.128 0 0 0 .083-.206" fill="#fff"/></g></svg>