<svg xmlns="http://www.w3.org/2000/svg" width="48" height="48" viewBox="0 0 48 48"><g fill="none" fill-rule="evenodd"><path fill="#2AB898" d="M43.75 24.06c0 10.954-8.881 19.835-19.835 19.835-10.955 0-19.835-8.881-19.835-19.835 0-10.955 8.88-19.834 19.835-19.834 10.954 0 19.835 8.88 19.835 19.834"/><path fill="#E95A7E" d="M10.692 19.652a6.61 6.61 0 0 1 13.223 0 6.611 6.611 0 0 1 13.223 0c0 6.901-13.223 15.427-13.223 15.427s-13.223-8.526-13.223-15.427"/><path fill="#D35478" d="M37.138 19.652a6.611 6.611 0 0 0-13.179-.758V35.05c.827-.54 13.179-8.728 13.179-15.398"/><path fill="#FFF" d="M25.016 29.47c-.378 0-.725-.215-.895-.554l-3.512-7.024-1.308 2.616c-.17.34-.516.554-.896.554H9.59a1.002 1.002 0 0 1 0-2.004h8.196l1.927-3.854a1.003 1.003 0 0 1 1.792 0l3.511 7.024 1.309-2.616c.17-.34.516-.554.896-.554H38.24a1.002 1.002 0 1 1 0 2.004h-10.4l-1.927 3.854c-.17.339-.517.553-.897.553"/><path fill="#ECEAE9" d="M38.24 23.059H27.22c-.379 0-.726.214-.895.553l-1.308 2.616-1.058-2.115v4.48l.162.323a1.003 1.003 0 0 0 1.791 0l1.928-3.854h10.4a1.002 1.002 0 0 0 0-2.003"/></g></svg>