<svg height="48" viewBox="0 0 48 48" width="48" xmlns="http://www.w3.org/2000/svg"><g fill="none" fill-rule="evenodd" transform="translate(4 4)"><path d="m39.6694215 19.8347107c0 10.9537191-8.8806612 19.8347108-19.8347108 19.8347108-10.9547107 0-19.8347107-8.8809917-19.8347107-19.8347108 0-10.95504128 8.88-19.8347107 19.8347107-19.8347107 10.9540496 0 19.8347108 8.87966942 19.8347108 19.8347107" fill="#2ab898"/><circle cx="19.5" cy="19.5" fill="#d8d8d8" r="12.5"/><g fill-rule="nonzero" transform="translate(7 7)"><path d="m25.4567616 0v24.9135231c-6.8792705 0-12.4567616-5.57758-12.4567616-12.4567615 0-6.87918153 5.5766904-12.4567616 12.4567616-12.4567616z" fill="#ebebeb" transform="matrix(-1 0 0 1 38.456762 0)"/><path d="m1.00613879 4.12339858h3.12588968v-3.11725979c0-.4297153.3480427-.77855872.77775801-.77855872h1.60342885l-.03939865 12.45516013h-1.5640302c-.42971531 0-.77775801-.3480427-.77775801-.7785587v-3.10791815h-3.12588968c-.43051601 0-.77935943-.34875445-.77935943-.78007118v-3.11494662c0-.42980427.34884342-.77784697.77935943-.77784697z" fill="#e95a7e" transform="translate(7 6)"/><path d="m1.00613879 4.12339858h3.12588968v-3.11725979c0-.4297153.3480427-.77855872.77775801-.77855872h1.07241454l-.03939865 12.45516013h-1.03301589c-.42971531 0-.77775801-.3480427-.77775801-.7785587v-3.10791815h-3.12588968c-.43051601 0-.77935943-.34875445-.77935943-.78007118v-3.11494662c0-.42980427.34884342-.77784697.77935943-.77784697z" fill="#d35478" transform="matrix(-1 0 0 1 19 6)"/></g></g></svg>