<svg height="48" viewBox="0 0 48 48" width="48" xmlns="http://www.w3.org/2000/svg" xmlns:xlink="http://www.w3.org/1999/xlink"><mask id="a" fill="#fff"><path d="m.238.086h39.344v39.344h-39.344z" fill="#fff" fill-rule="evenodd"/></mask><g fill="none" fill-rule="evenodd"><path d="m39.582 19.758c0 10.864-8.808 19.672-19.672 19.672-10.865 0-19.672-8.808-19.672-19.672 0-10.865 8.807-19.672 19.672-19.672 10.864 0 19.672 8.807 19.672 19.672" fill="#2ab898" mask="url(#a)" transform="translate(4 4.242)"/><path d="m12.914 32.743h21.99c1.172 0 2.12-.95 2.12-2.12v-13.246a2.12 2.12 0 0 0 -2.12-2.12h-21.99a2.12 2.12 0 0 0 -2.118 2.12v13.248c0 1.17.948 2.12 2.118 2.12" fill="#e95a7e"/><path d="m34.905 15.257h-11.57v17.486h11.57c1.17 0 2.12-.95 2.12-2.12v-13.246a2.12 2.12 0 0 0 -2.12-2.12" fill="#e95a7e"/><path d="m13.765 30.557h11.547c.433 0 .784-.35.784-.784v-11.547a.784.784 0 0 0 -.784-.784h-11.547a.784.784 0 0 0 -.784.784v11.547c0 .433.35.784.784.784" fill="#fff"/><path d="m25.312 17.442h-1.976v13.115h1.976c.432 0 .784-.35.784-.784v-11.547a.784.784 0 0 0 -.784-.784" fill="#cfd4d8"/><path d="m26.095 23.31h-5.637a.69.69 0 0 0 -.616.382l-.726 1.451-2.068-4.135a.688.688 0 0 0 -1.231 0l-1.152 2.303h-1.684v1.377h2.11a.69.69 0 0 0 .616-.38l.726-1.453 2.067 4.137a.689.689 0 0 0 1.232 0l1.151-2.304h5.212z" fill="#e95a7e"/><path d="m23.335 24.688h2.76v-1.378h-2.76z" fill="#c43e27"/><path d="m34.839 18.535a1.093 1.093 0 1 1 -2.186 0 1.093 1.093 0 0 1 2.186 0m-4.372 0a1.092 1.092 0 1 1 -2.185 0 1.092 1.092 0 0 1 2.185 0m4.372 4.371a1.093 1.093 0 1 1 -2.187 0 1.093 1.093 0 0 1 2.187 0m-4.372 0a1.093 1.093 0 1 1 -2.186.001 1.093 1.093 0 0 1 2.186 0m-2.186 5.464h6.558v-2.185h-6.559z" fill="#fff"/></g></svg>