<svg xmlns="http://www.w3.org/2000/svg" width="52" height="52" viewBox="0 0 52 52"><g fill="none" fill-rule="evenodd"><path fill="#FFF" stroke="#50B7E8" stroke-width="1.5" d="M26.013 1C12.197 1 1 12.139 1 25.854v.292C1 39.86 12.197 51 25.988 51 39.803 51 51 39.861 51 26.146v-.292C51 12.14 39.803 1 26.013 1z"/><path fill="#50B7E8" d="M20.198 9.117a.672.672 0 0 0-.594.685v1.97h-3.542c-2.043 0-3.729 1.7-3.729 3.77V35.02c0 2.07 1.685 3.77 3.73 3.77h21.885c2.044 0 3.718-1.7 3.718-3.77V19.682v-.042a.682.682 0 0 0 0-.073v-4.024c0-2.07-1.675-3.771-3.718-3.771H34.29v-1.97a.678.678 0 0 0-.195-.487.663.663 0 0 0-.95.007.678.678 0 0 0-.188.48v1.97h-12.02v-1.97a.678.678 0 0 0-.196-.487.663.663 0 0 0-.482-.198.66.66 0 0 0-.062 0zm-4.136 4.003h3.542v2.424c0 .297.126.572.333.72a.555.555 0 0 0 .667 0c.207-.148.334-.423.333-.72V13.12h12.021v2.424c0 .297.127.572.333.72a.555.555 0 0 0 .668 0c.206-.148.333-.423.332-.72V13.12h3.657c1.315 0 2.385 1.337 2.385 2.982v4.213H13.666v-4.213c0-1.645 1.081-2.982 2.396-2.982zm-2.396 7.195h26.667V35.02c0 1.336-1.071 2.422-2.385 2.422H16.062c-1.314 0-2.396-1.086-2.396-2.422V20.315z"/><text fill="#50B7E8" font-family="Roboto-Regular, Roboto" font-size="14" transform="translate(1 1)"><tspan x="14.378" y="30">19</tspan></text></g></svg>