<svg xmlns="http://www.w3.org/2000/svg" width="52" height="52" viewBox="0 0 52 52"><g fill="none" fill-rule="evenodd"><path fill="#FFF" stroke="#50B7E8" stroke-width=".8" d="M26 1C12.203 1 1 12.133 1 25.842v.316C1 39.867 12.203 51 26 51s25-11.133 25-24.842v-.316C51 12.133 39.797 1 26 1z"/><path fill="#50B7E8" d="M19.198 9.117a.672.672 0 0 0-.594.685v1.97h-3.542c-2.043 0-3.729 1.7-3.729 3.77V35.02c0 2.07 1.685 3.77 3.73 3.77h21.885c2.044 0 3.718-1.7 3.718-3.77V19.682v-.042a.682.682 0 0 0 0-.073v-4.024c0-2.07-1.675-3.771-3.718-3.771H33.29v-1.97a.678.678 0 0 0-.195-.487.663.663 0 0 0-.95.007.678.678 0 0 0-.188.48v1.97h-12.02v-1.97a.678.678 0 0 0-.196-.487.663.663 0 0 0-.482-.198.66.66 0 0 0-.062 0zm-4.136 4.003h3.542v1.97c0 .241.126.464.333.585a.66.66 0 0 0 .667 0 .676.676 0 0 0 .333-.585v-1.97h12.021v1.97c0 .241.127.464.333.585a.66.66 0 0 0 .668 0 .676.676 0 0 0 .332-.585v-1.97h3.657c1.315 0 2.385 1.086 2.385 2.423v3.423H12.666v-3.423c0-1.337 1.081-2.423 2.396-2.423zm-2.396 5.846h26.667V34.83c0 1.442-1.071 2.613-2.385 2.613H15.062c-1.314 0-2.396-1.171-2.396-2.613V18.966z"/><text fill="#50B7E8" font-family="Roboto-Regular, Roboto" font-size="14" transform="translate(1 1)"><tspan x="13.378" y="30">18</tspan></text></g></svg>