<svg height="138" viewBox="0 0 139 138" width="139" xmlns="http://www.w3.org/2000/svg" xmlns:xlink="http://www.w3.org/1999/xlink"><mask id="a" fill="#fff"><path d="m.745.813h2.185v2.187h-2.186z" fill="none"/></mask><mask id="b" fill="#fff"><path d="m.917.813h2.187v2.187h-2.187z" fill="none"/></mask><mask id="c" fill="#fff"><path d="m.939.813h2.186v2.187h-2.186z" fill="none"/></mask><mask id="d" fill="#fff"><path d="m.112.813h2.186v2.187h-2.186z" fill="none"/></mask><mask id="e" fill="#fff"><path d="m.134.813h2.186v2.187h-2.186z" fill="none"/></mask><mask id="f" fill="#fff"><path d="m.307.813h2.186v2.187h-2.186z" fill="none"/></mask><mask id="g" fill="#fff"><path d="m.328.813h2.186v2.187h-2.186z" fill="none"/></mask><mask id="h" fill="#fff"><path d="m.501.813h2.186v2.187h-2.186z" fill="none"/></mask><g fill="none" fill-rule="evenodd"><g fill="#f6b72c"><circle cx="109" cy="17" r="2"/><circle cx="119" cy="32" r="2"/><circle cx="126.5" cy="9.5" r="1.5"/></g><g fill="#000" opacity=".05"><path d="m118.093 16a1.093 1.093 0 1 1 0 2.185 1.093 1.093 0 0 1 0-2.185m0 8a1.093 1.093 0 1 1 0 2.186 1.093 1.093 0 0 1 0-2.186m0 8a1.093 1.093 0 1 1 0 2.185 1.093 1.093 0 0 1 0-2.185m0-24a1.093 1.093 0 1 1 0 2.185 1.093 1.093 0 0 1 0-2.185m9 8a1.093 1.093 0 1 1 .001 2.187 1.093 1.093 0 0 1 -.001-2.187m0 8a1.094 1.094 0 1 1 0 2.187 1.094 1.094 0 0 1 0-2.187m0 8a1.093 1.093 0 1 1 .001 2.187 1.093 1.093 0 0 1 -.001-2.187m0-24a1.093 1.093 0 1 1 .001 2.187 1.093 1.093 0 0 1 -.001-2.187m-27 8a1.093 1.093 0 1 1 0 2.185 1.093 1.093 0 0 1 0-2.185m0 8a1.093 1.093 0 1 1 0 2.186 1.093 1.093 0 0 1 0-2.186m0 8a1.093 1.093 0 1 1 0 2.185 1.093 1.093 0 0 1 0-2.185m0-24a1.093 1.093 0 1 1 0 2.185 1.093 1.093 0 0 1 0-2.185m9 8a1.093 1.093 0 1 1 0 2.185 1.093 1.093 0 0 1 0-2.185m0 8a1.093 1.093 0 1 1 0 2.186 1.093 1.093 0 0 1 0-2.186m0 8a1.093 1.093 0 1 1 0 2.185 1.093 1.093 0 0 1 0-2.185m0-24a1.093 1.093 0 1 1 0 2.185 1.093 1.093 0 0 1 0-2.185m-27 8a1.093 1.093 0 1 1 0 2.185 1.093 1.093 0 0 1 0-2.185m0 8a1.093 1.093 0 1 1 0 2.186 1.093 1.093 0 0 1 0-2.186m0 8a1.093 1.093 0 1 1 0 2.185 1.093 1.093 0 0 1 0-2.185m0-24a1.093 1.093 0 1 1 0 2.185 1.093 1.093 0 0 1 0-2.185m10 8a1.093 1.093 0 1 1 0 2.185 1.093 1.093 0 0 1 0-2.185m0 8a1.093 1.093 0 1 1 0 2.186 1.093 1.093 0 0 1 0-2.186m0 8a1.093 1.093 0 1 1 0 2.185 1.093 1.093 0 0 1 0-2.185m0-24a1.093 1.093 0 1 1 0 2.185 1.093 1.093 0 0 1 0-2.185m-27 8a1.093 1.093 0 1 1 0 2.185 1.093 1.093 0 0 1 0-2.185m0 8a1.093 1.093 0 1 1 0 2.186 1.093 1.093 0 0 1 0-2.186m0 8a1.093 1.093 0 1 1 0 2.185 1.093 1.093 0 0 1 0-2.185m0-24a1.093 1.093 0 1 1 0 2.185 1.093 1.093 0 0 1 0-2.185m9 8a1.093 1.093 0 1 1 0 2.185 1.093 1.093 0 0 1 0-2.185m0 8a1.093 1.093 0 1 1 0 2.186 1.093 1.093 0 0 1 0-2.186m0 8a1.093 1.093 0 1 1 0 2.185 1.093 1.093 0 0 1 0-2.185m0-24a1.093 1.093 0 1 1 0 2.185 1.093 1.093 0 0 1 0-2.185m44 41a1.093 1.093 0 1 1 0 2.186 1.093 1.093 0 0 1 0-2.186m0 8a1.093 1.093 0 1 1 0 2.185 1.093 1.093 0 0 1 0-2.185"/><path d="m1.837.813a1.093 1.093 0 1 1 0 2.187 1.093 1.093 0 0 1 0-2.187" mask="url(#a)" transform="translate(116 64)"/><path d="m118.093 41a1.093 1.093 0 1 1 0 2.187 1.093 1.093 0 0 1 0-2.187m9 8a1.094 1.094 0 1 1 0 2.187 1.094 1.094 0 0 1 0-2.187m0 8a1.093 1.093 0 1 1 .001 2.187 1.093 1.093 0 0 1 -.001-2.187"/><path d="m2.01.813a1.094 1.094 0 1 1 0 2.189 1.094 1.094 0 0 1 0-2.189" mask="url(#b)" transform="translate(125 64)"/><path d="m127.093 41a1.094 1.094 0 1 1 0 2.189 1.094 1.094 0 0 1 0-2.189m-27 8a1.093 1.093 0 1 1 0 2.186 1.093 1.093 0 0 1 0-2.186m0 8a1.093 1.093 0 1 1 0 2.185 1.093 1.093 0 0 1 0-2.185"/><path d="m2.032.813a1.093 1.093 0 1 1 -.002 2.187 1.093 1.093 0 0 1 0-2.187" mask="url(#c)" transform="translate(98 64)"/><path d="m100.093 41a1.093 1.093 0 1 1 0 2.187 1.093 1.093 0 0 1 0-2.187m9 8a1.093 1.093 0 1 1 0 2.186 1.093 1.093 0 0 1 0-2.186m0 8a1.093 1.093 0 1 1 0 2.185 1.093 1.093 0 0 1 0-2.185"/><path d="m1.205.813a1.093 1.093 0 1 1 0 2.187 1.093 1.093 0 0 1 0-2.187" mask="url(#d)" transform="translate(108 64)"/><path d="m109.093 41a1.093 1.093 0 1 1 0 2.187 1.093 1.093 0 0 1 0-2.187m-27 8a1.093 1.093 0 1 1 0 2.186 1.093 1.093 0 0 1 0-2.186m0 8a1.093 1.093 0 1 1 0 2.185 1.093 1.093 0 0 1 0-2.185"/><path d="m1.227.813a1.093 1.093 0 1 1 -.001 2.187 1.093 1.093 0 0 1 0-2.187" mask="url(#e)" transform="translate(81 64)"/><path d="m82.093 41a1.093 1.093 0 1 1 0 2.187 1.093 1.093 0 0 1 0-2.187m10 8a1.093 1.093 0 1 1 0 2.186 1.093 1.093 0 0 1 0-2.186m0 8a1.093 1.093 0 1 1 0 2.185 1.093 1.093 0 0 1 0-2.185"/><path d="m1.4.813a1.093 1.093 0 1 1 0 2.187 1.093 1.093 0 0 1 0-2.187" mask="url(#f)" transform="translate(90 64)"/><path d="m92.093 41a1.093 1.093 0 1 1 0 2.187 1.093 1.093 0 0 1 0-2.187m-27 8a1.093 1.093 0 1 1 0 2.186 1.093 1.093 0 0 1 0-2.186m0 8a1.093 1.093 0 1 1 0 2.185 1.093 1.093 0 0 1 0-2.185"/><path d="m1.421.813a1.093 1.093 0 1 1 0 2.187 1.093 1.093 0 0 1 0-2.187" mask="url(#g)" transform="translate(63 64)"/><path d="m65.093 41a1.093 1.093 0 1 1 0 2.187 1.093 1.093 0 0 1 0-2.187m9 8a1.093 1.093 0 1 1 0 2.186 1.093 1.093 0 0 1 0-2.186m0 8a1.093 1.093 0 1 1 0 2.185 1.093 1.093 0 0 1 0-2.185"/><path d="m1.594.813a1.093 1.093 0 1 1 0 2.187 1.093 1.093 0 0 1 0-2.187" mask="url(#h)" transform="translate(72 64)"/><path d="m74.093 41a1.093 1.093 0 1 1 0 2.187 1.093 1.093 0 0 1 0-2.187"/></g><path d="m6 46.999c0-8.285 6.716-14.999 15-14.999s15 6.714 15 14.999c0 8.284-6.716 15.001-15 15.001s-15-6.717-15-15.001" fill="#7bbf6f"/><path d="m8 46.5c0-6.904 5.596-12.5 12.5-12.5s12.5 5.596 12.5 12.5-5.596 12.5-12.5 12.5-12.5-5.596-12.5-12.5" fill="#8bc476"/><g fill="#fffffe"><path d="m27.996 47.023-5.59.012a.174.174 0 0 0 -.178.169v5.961c0 .093.08.17.179.17a.175.175 0 0 0 .179-.17v-5.79l5.41-.011a.175.175 0 0 0 .179-.172c0-.093-.08-.17-.18-.17"/><path d="m16.847 42.107 5.433 5.219c.07.067.183.067.253 0a.165.165 0 0 0 0-.241l-5.433-5.22a.184.184 0 0 0 -.252 0 .165.165 0 0 0 -.001.242"/><path d="m26.454 43.09-4.174 3.995a.165.165 0 0 0 0 .24l4.168 3.979c.07.067.184.067.253 0a.165.165 0 0 0 0-.241l-4.041-3.859 4.048-3.873a.165.165 0 0 0 0-.241.184.184 0 0 0 -.253 0"/><path d="m14.695 47.383 7.712-.007a.175.175 0 0 0 .178-.172v-7.238c0-.093-.08-.17-.178-.17a.175.175 0 0 0 -.179.17v7.069l-7.534.007a.174.174 0 0 0 -.178.17c0 .095.08.171.179.171"/><path d="m22.571 47.137-2.271-5.116a.184.184 0 0 0 -.234-.09.169.169 0 0 0 -.095.223l2.272 5.117a.184.184 0 0 0 .234.09.168.168 0 0 0 .095-.224"/><path d="m18.173 53.335 4.38-6.033a.167.167 0 0 0 -.045-.239.186.186 0 0 0 -.248.043l-4.381 6.035a.164.164 0 0 0 .045.237.182.182 0 0 0 .249-.043m2.977-16.635a1.642 1.642 0 0 0 0 2.397l1.257 1.198 1.256-1.197a1.642 1.642 0 0 0 0-2.399 1.834 1.834 0 0 0 -2.512 0m-7.394 3.9c-.003.935.79 1.696 1.771 1.701l1.776.005.005-1.697c.003-.935-.79-1.697-1.77-1.699-.981-.002-1.779.754-1.782 1.69m9.906 15.69a1.642 1.642 0 0 0 0-2.398l-1.256-1.198-1.256 1.198a1.642 1.642 0 0 0 0 2.398 1.839 1.839 0 0 0 2.512 0m-11.954-7.897a1.839 1.839 0 0 0 2.512 0l1.255-1.198-1.255-1.2a1.839 1.839 0 0 0 -2.512 0 1.642 1.642 0 0 0 0 2.398m19.655-2.398a1.839 1.839 0 0 0 -2.512 0l-1.255 1.2 1.255 1.198a1.839 1.839 0 0 0 2.512 0 1.642 1.642 0 0 0 0-2.398m-2.701 5.956c.002-.684-.576-1.238-1.291-1.24l-1.296-.003-.002 1.236c-.002.683.576 1.239 1.292 1.239.715.002 1.296-.549 1.297-1.232m-10.192-11.385c-.27.633.049 1.356.711 1.613l1.2.466.488-1.146c.27-.632-.048-1.353-.71-1.61-.663-.258-1.419.045-1.689.677"/><path d="m22.327 47.051-5.212 2.48a.164.164 0 0 0 -.08.226c.044.086.151.12.24.08l5.211-2.48a.167.167 0 0 0 .08-.23.185.185 0 0 0 -.239-.076"/><path d="m15.706 51.361c.678.217 1.413-.129 1.641-.776l.414-1.171-1.227-.396c-.677-.218-1.412.128-1.64.775-.23.647.135 1.348.812 1.568m12.145-11.054c-.98 0-1.777.76-1.778 1.695l-.001 1.694 1.776.002c.98 0 1.777-.756 1.777-1.694.002-.935-.793-1.694-1.774-1.697m-10.171 15.49c.965-.164 1.608-1.045 1.435-1.968l-.313-1.669-1.748.299c-.966.164-1.608 1.045-1.436 1.968.173.922 1.096 1.535 2.062 1.37"/></g><path d="m46 83.999c0-8.285 6.716-14.999 15-14.999s15 6.714 15 14.999c0 8.284-6.716 15.001-15 15.001s-15-6.717-15-15.001" fill="#7bbf6f"/><path d="m48 83.5c0-6.904 5.596-12.5 12.5-12.5s12.5 5.596 12.5 12.5-5.596 12.5-12.5 12.5-12.5-5.596-12.5-12.5" fill="#8bc476"/><g fill="#fffffe"><path d="m67.996 84.023-5.59.012a.174.174 0 0 0 -.178.169v5.961c0 .093.08.17.179.17a.175.175 0 0 0 .179-.17v-5.79l5.41-.011a.175.175 0 0 0 .179-.172c0-.093-.08-.17-.18-.17"/><path d="m56.847 79.107 5.433 5.219c.07.067.183.067.253 0a.165.165 0 0 0 0-.241l-5.432-5.22a.184.184 0 0 0 -.253 0 .165.165 0 0 0 -.001.242"/><path d="m66.454 80.09-4.174 3.995a.165.165 0 0 0 0 .24l4.168 3.979c.07.067.184.067.253 0a.165.165 0 0 0 0-.241l-4.041-3.859 4.048-3.873a.165.165 0 0 0 0-.241.184.184 0 0 0 -.253 0"/><path d="m54.695 84.383 7.712-.007a.175.175 0 0 0 .178-.172v-7.238c0-.093-.08-.17-.178-.17a.175.175 0 0 0 -.179.17v7.069l-7.534.007a.174.174 0 0 0 -.178.17c0 .095.08.171.179.171"/><path d="m62.571 84.137-2.271-5.116a.184.184 0 0 0 -.234-.09.169.169 0 0 0 -.095.223l2.272 5.117a.184.184 0 0 0 .235.09.168.168 0 0 0 .094-.224"/><path d="m58.173 90.335 4.38-6.033a.167.167 0 0 0 -.044-.239.186.186 0 0 0 -.25.043l-4.38 6.035a.164.164 0 0 0 .045.236.182.182 0 0 0 .249-.042m2.977-16.635a1.642 1.642 0 0 0 0 2.397l1.257 1.198 1.256-1.197a1.642 1.642 0 0 0 0-2.399 1.834 1.834 0 0 0 -2.512 0m-7.394 3.9c-.003.935.79 1.696 1.771 1.701l1.776.005.005-1.697c.003-.935-.79-1.697-1.77-1.699-.981-.002-1.779.754-1.782 1.69m9.906 15.69a1.642 1.642 0 0 0 0-2.398l-1.256-1.198-1.256 1.198a1.642 1.642 0 0 0 0 2.398 1.839 1.839 0 0 0 2.512 0m-11.954-7.897a1.839 1.839 0 0 0 2.512 0l1.256-1.198-1.256-1.2a1.839 1.839 0 0 0 -2.512 0 1.642 1.642 0 0 0 0 2.398m19.655-2.398a1.839 1.839 0 0 0 -2.512 0l-1.255 1.2 1.255 1.198a1.839 1.839 0 0 0 2.512 0 1.642 1.642 0 0 0 0-2.398m-2.701 5.956c.002-.684-.576-1.238-1.291-1.24l-1.296-.003-.002 1.236c-.002.683.576 1.239 1.292 1.239.715.002 1.296-.549 1.297-1.232m-10.192-11.385c-.27.632.049 1.356.711 1.613l1.2.466.488-1.146c.27-.632-.049-1.353-.71-1.61-.663-.258-1.419.045-1.689.677"/><path d="m62.327 84.051-5.212 2.48a.164.164 0 0 0 -.08.226c.044.086.152.12.24.08l5.211-2.48a.167.167 0 0 0 .08-.23.185.185 0 0 0 -.239-.076"/><path d="m55.706 88.361c.678.217 1.412-.129 1.641-.776l.414-1.171-1.227-.396c-.677-.218-1.412.128-1.64.775-.23.647.135 1.348.812 1.568m12.145-11.054c-.98 0-1.777.76-1.778 1.695l-.001 1.694 1.776.002c.98 0 1.777-.756 1.778-1.694 0-.935-.794-1.694-1.775-1.697m-10.171 15.49c.965-.164 1.608-1.045 1.435-1.968l-.313-1.669-1.748.299c-.966.164-1.608 1.045-1.436 1.969.173.92 1.096 1.534 2.062 1.37"/></g><path d="m79 48.999c0-8.285 6.716-14.999 15-14.999s15 6.714 15 14.999c0 8.284-6.716 15.001-15 15.001s-15-6.717-15-15.001" fill="#7bbf6f"/><path d="m81 48.5c0-6.904 5.596-12.5 12.5-12.5s12.5 5.596 12.5 12.5-5.596 12.5-12.5 12.5-12.5-5.596-12.5-12.5" fill="#8bc476"/><g fill="#fffffe"><path d="m100.996 49.023-5.59.012a.174.174 0 0 0 -.178.169v5.961c0 .093.08.17.179.17a.175.175 0 0 0 .178-.17v-5.79l5.411-.011a.175.175 0 0 0 .179-.172c0-.093-.08-.17-.18-.17"/><path d="m89.847 44.107 5.433 5.219c.07.067.183.067.253 0a.165.165 0 0 0 0-.241l-5.433-5.22a.184.184 0 0 0 -.252 0 .165.165 0 0 0 -.001.242"/><path d="m99.454 45.09-4.174 3.995a.165.165 0 0 0 0 .24l4.168 3.979c.07.067.184.067.253 0a.165.165 0 0 0 0-.241l-4.041-3.859 4.048-3.873a.165.165 0 0 0 0-.241.184.184 0 0 0 -.253 0"/><path d="m87.695 49.383 7.712-.007a.175.175 0 0 0 .178-.172v-7.238c0-.093-.08-.17-.178-.17a.175.175 0 0 0 -.179.17v7.069l-7.534.007a.174.174 0 0 0 -.178.17c0 .095.08.171.179.171"/><path d="m95.571 49.137-2.271-5.116a.184.184 0 0 0 -.234-.09.169.169 0 0 0 -.095.223l2.272 5.117a.184.184 0 0 0 .234.09.168.168 0 0 0 .095-.224"/><path d="m91.173 55.335 4.38-6.033a.167.167 0 0 0 -.044-.239.186.186 0 0 0 -.25.043l-4.38 6.035a.164.164 0 0 0 .045.237.182.182 0 0 0 .249-.043m2.977-16.635a1.642 1.642 0 0 0 0 2.397l1.257 1.198 1.256-1.197a1.642 1.642 0 0 0 0-2.399 1.834 1.834 0 0 0 -2.512 0m-7.394 3.9c-.003.935.79 1.696 1.771 1.701l1.776.005.005-1.697c.003-.935-.79-1.697-1.77-1.699-.981-.002-1.779.754-1.782 1.69m9.906 15.69a1.642 1.642 0 0 0 0-2.398l-1.256-1.198-1.256 1.198a1.642 1.642 0 0 0 0 2.398 1.839 1.839 0 0 0 2.512 0m-11.954-7.897a1.839 1.839 0 0 0 2.512 0l1.255-1.198-1.255-1.2a1.839 1.839 0 0 0 -2.512 0 1.642 1.642 0 0 0 0 2.398m19.655-2.398a1.839 1.839 0 0 0 -2.512 0l-1.255 1.2 1.255 1.198a1.839 1.839 0 0 0 2.512 0 1.642 1.642 0 0 0 0-2.398m-2.701 5.956c.002-.684-.576-1.238-1.291-1.24l-1.296-.003-.002 1.236c-.002.683.576 1.239 1.292 1.239.715.002 1.296-.549 1.297-1.232m-10.191-11.385c-.27.633.048 1.356.71 1.613l1.2.466.488-1.146c.27-.632-.048-1.353-.71-1.61-.663-.258-1.419.045-1.688.677"/><path d="m95.327 49.051-5.212 2.48a.164.164 0 0 0 -.08.226c.044.086.151.12.24.08l5.211-2.48a.167.167 0 0 0 .08-.23.185.185 0 0 0 -.239-.076"/><path d="m88.706 53.361c.678.217 1.412-.129 1.641-.776l.414-1.171-1.227-.396c-.677-.218-1.412.128-1.64.775-.23.647.134 1.348.812 1.568m12.145-11.054c-.98 0-1.777.76-1.778 1.695l-.001 1.694 1.776.002c.98 0 1.777-.756 1.778-1.694 0-.935-.794-1.694-1.775-1.697m-10.171 15.49c.965-.164 1.608-1.045 1.435-1.968l-.313-1.669-1.748.299c-.966.164-1.608 1.045-1.436 1.968.173.922 1.096 1.535 2.062 1.37"/></g><path d="m3.922 15.26a.473.473 0 0 0 -.845 0c-.514 1.014-1.485 2.592-2.83 3.334a.456.456 0 0 0 0 .812c1.345.742 2.316 2.32 2.83 3.334.175.347.67.347.845 0 .515-1.014 1.486-2.592 2.83-3.334a.456.456 0 0 0 0-.812c-1.344-.742-2.315-2.32-2.83-3.334zm82.83 1.334c-1.344-.742-2.315-2.32-2.83-3.334a.473.473 0 0 0 -.845 0c-.514 1.014-1.484 2.592-2.83 3.334a.456.456 0 0 0 0 .812c1.346.742 2.316 2.32 2.83 3.334.175.347.67.347.845 0 .515-1.014 1.486-2.592 2.83-3.334a.456.456 0 0 0 0-.812m-50-4c-1.344-.737-2.315-2.32-2.83-3.334a.473.473 0 0 0 -.845 0c-.514 1.014-1.484 2.597-2.83 3.334a.46.46 0 0 0 0 .816c1.346.737 2.316 2.315 2.83 3.334.175.341.67.341.845 0 .515-1.019 1.486-2.597 2.83-3.334a.46.46 0 0 0 0-.816" fill="#f6bf3e"/><circle cx="28" cy="78" fill="#f6b72c" r="15"/><g transform="translate(44 32)"><circle cx="15" cy="15" fill="#f49c53" r="15"/><circle cx="15" cy="15" fill="#f6b72c" r="13"/><path d="m15.071 22.257-5.071-10.877 9.756 1.993z" fill="#fff"/></g><g transform="translate(109 108)"><circle cx="15" cy="15" fill="#f49c53" r="15"/><circle cx="15" cy="15" fill="#f6b72c" r="13"/><path d="m18.545 20.934-9.583-7.222 9.55-2.82z" fill="#fff"/></g><path d="m25 84v-12l8 5.93z" fill="#fff"/><circle cx="95" cy="83" fill="#f6b72c" r="15"/><path d="m92 89v-13l9 6.423z" fill="#fff"/><path d="m44.8 124.21-13.082 13.564h57.882l-14.933-13.564z" fill="#caf5ff"/><path d="m46.133 123.166h14.4l-15.466 14.608h-13.067z" fill="#46c4d1" opacity=".805"/><path d="m44.8 124.21h29.6v-14.088h-29.6z" fill="#caf5ff"/><path d="m59.465 124.21h14.668v-14.088z" fill="#46c4d1" opacity=".805"/><g fill-opacity=".5"><path d="m0 81.949h119.467v-27.653h-119.467z" fill="#caf5ff"/><path d="m60.267 54.818v27.13h29.333zm-59.734 0v27.13h29.33z" fill="#46c4d1"/><path d="m59.733 54.296h-59.733l29.862 27.652.005-.004.004.004zm59.2 27.652h-58.666l29.333 28.435-.533-.787.533.787z" fill="#90edfc"/><path d="m60.267 81.948h-59.734l30.4 28.174zm59.2-27.652h-59.734l29.863 27.652.004-.004.004.004z" fill="#90edfc"/><path d="m30.933 110.122h58.667l-29.333-28.174z" fill="#caf5ff"/></g><path d="m74.133 110.122h-29.333l14.665 14.087h.004z" fill="#90edfc"/><path d="m44.8 137.774h29.333l-14.663-13.572-.002.006-.002-.008z" fill="#90edfc"/><path d="m30.933 110.122-1.07-28.174h30.404zm58.667.261-.004-28.435h30.404z" fill="#46c4d1" fill-opacity=".5"/><path d="m62.753 3.594c-1.345-.742-2.316-2.32-2.83-3.334a.473.473 0 0 0 -.845 0c-.515 1.014-1.486 2.592-2.83 3.334a.456.456 0 0 0 0 .811c1.344.742 2.315 2.32 2.83 3.339.174.341.67.341.844 0 .515-1.019 1.486-2.597 2.83-3.339a.456.456 0 0 0 0-.811" fill="#f6bf3e"/></g></svg>