<svg height="40" viewBox="0 0 40 40" width="40" xmlns="http://www.w3.org/2000/svg"><g fill="none" fill-rule="evenodd"><path d="m20 0c-11.038 0-20 8.962-20 20s8.962 20 20 20 20-8.962 20-20-8.962-20-20-20z" fill="#fff"/><path d="m20 40v-40c11.038 0 20 8.962 20 20s-8.962 20-20 20z" fill="#f6b72c"/><path d="m20 40v-40c-11.038 0-20 8.962-20 20s8.962 20 20 20z" fill="#f6b72c" opacity=".8"/><path d="m18.092 9h3.394v11.143h-3.394zm-5.092 3.429h3.394v7.714h-3.394zm10.183 3.857h3.394v3.857h-3.394zm3.817 5.143h-.942l-2.476 2.502-.399.402v-.606l.099-.1 2.176-2.198h-.6l-1.675 1.691v-.606l1.075-1.085h-.6l-.475.48v-.48h-2.217l-2.476 2.501-.398.402v-.606l.098-.1 2.176-2.198h-.6l-1.674 1.691v-.606l1.074-1.085h-.6l-.474.48v-.48h-2.217l-2.476 2.502-.399.402v-.606l.099-.1 2.176-2.198h-.6l-1.675 1.692v-.606l1.075-1.085h-.6l-.475.48v-.48zm-10.606.082v.606l-2.394 2.42-.6.606-.399.402v-.606l.099-.1.6-.605 2.695-2.723zm5.092 0v.606l-2.396 2.42-.6.606-.398.402v-.606l.098-.1.6-.605zm5.091 0v.606l-2.395 2.42-.6.606-.399.402v-.606l.099-.1.6-.605zm-10.183 1.212v.606l-1.794 1.814-1.6 1.614v-.606l.699-.705.6-.606zm5.092 0v.606l-1.796 1.814-1.598 1.614v-.606l.698-.705.6-.606zm5.091 0v.606l-1.795 1.814-.566.571h-.6l.266-.268.6-.606zm-10.183 1.212v.606l-1.194 1.208-2.2 2.22v-.606l1.899-1.917zm5.092 0v.606l-1.196 1.208-2.198 2.22v-.606l1.898-1.917zm5.091 0v.606l-1.161 1.173h-.6l.266-.268zm-10.183 1.212v.606l-.595.602-2.799 2.827v-.607l2.499-2.523zm5.092 0v.606l-.596.602-2.798 2.827v-.607l2.498-2.523zm5.091 0v.567h-.562zm-10.183 1.212v.606l-2.58 2.606h-.6l2.884-2.913.296-.3zm5.092 0v.606l-3.394 3.43v-.607l3.098-3.13.296-.3zm-5.092 1.212v.606l-1.38 1.394h-.6zm5.092 0v.606l-3.394 3.43v-.607l3.394-3.43zm-5.092 1.212v.606l-.18.182h-.6zm5.092 0v.606l-3.394 3.43v-.607l3.394-3.43zm0 1.213v.606l-2.374 2.398h-.6zm0 1.212v.606l-1.174 1.186h-.6zm0 1.212v.58h-.574z" fill="#fff"/><path d="m20 40v-40c11.038 0 20 8.962 20 20s-8.962 20-20 20z" fill="#f6b72c" opacity=".2"/></g></svg>