<svg height="116" viewBox="0 0 130 116" width="130" xmlns="http://www.w3.org/2000/svg" xmlns:xlink="http://www.w3.org/1999/xlink"><mask id="a" fill="#fff"><path d="m0 104.967h125.3v-104.967h-125.3z" fill="none"/></mask><g fill="none" fill-rule="evenodd"><path d="m46.018 20.673a1.149 1.149 0 1 1 0 2.297 1.15 1.15 0 1 1 0-2.297m0 8.04a1.149 1.149 0 1 1 0 2.297 1.15 1.15 0 1 1 0-2.297m0 6.891a1.149 1.149 0 1 1 0 2.297 1.149 1.149 0 0 1 0-2.297m0-21.822a1.15 1.15 0 1 1 .001 2.3 1.15 1.15 0 0 1 -.001-2.3m0-13.782a1.149 1.149 0 1 1 0 2.297 1.15 1.15 0 1 1 0-2.297m0 6.891a1.149 1.149 0 1 1 0 2.297 1.15 1.15 0 1 1 0-2.297m-13.806 13.782a1.15 1.15 0 1 1 .003 2.3 1.15 1.15 0 0 1 -.003-2.3m0 8.04a1.15 1.15 0 1 1 -1.15 1.148c0-.635.514-1.148 1.15-1.148m0 6.891a1.15 1.15 0 1 1 -1.15 1.148c0-.634.514-1.148 1.15-1.148m0-21.822a1.15 1.15 0 0 1 1.15 1.15 1.15 1.15 0 0 1 -2.3 0 1.15 1.15 0 0 1 1.15-1.15m0-13.782a1.15 1.15 0 1 1 .003 2.3 1.15 1.15 0 0 1 -.003-2.3m0 6.891a1.15 1.15 0 1 1 -1.15 1.148c0-.634.514-1.148 1.15-1.148m6.904 13.782a1.149 1.149 0 1 1 0 2.297 1.15 1.15 0 0 1 0-2.297m0 8.04a1.148 1.148 0 1 1 0 2.297 1.15 1.15 0 0 1 0-2.297m0 6.891a1.148 1.148 0 1 1 0 2.297 1.15 1.15 0 0 1 0-2.297m0-21.822a1.15 1.15 0 1 1 0 2.299 1.15 1.15 0 0 1 0-2.299m0-13.782a1.149 1.149 0 1 1 0 2.297 1.15 1.15 0 0 1 0-2.297m0 6.891a1.148 1.148 0 1 1 0 2.297 1.15 1.15 0 0 1 0-2.297m-21.859 13.782a1.149 1.149 0 1 1 0 2.297 1.15 1.15 0 0 1 0-2.297m0 8.04a1.148 1.148 0 1 1 0 2.297 1.15 1.15 0 0 1 0-2.297m0 6.891a1.148 1.148 0 1 1 0 2.297 1.15 1.15 0 0 1 0-2.297m0-21.822a1.15 1.15 0 1 1 .001 2.299 1.15 1.15 0 0 1 0-2.299m-.001-13.782a1.149 1.149 0 1 1 0 2.297 1.15 1.15 0 0 1 0-2.297m0 6.891a1.148 1.148 0 1 1 0 2.297 1.15 1.15 0 0 1 0-2.297m8.053 13.782a1.149 1.149 0 1 1 0 2.297 1.15 1.15 0 1 1 0-2.297m0 8.04a1.149 1.149 0 1 1 0 2.297 1.15 1.15 0 1 1 0-2.297m0 6.891a1.149 1.149 0 1 1 0 2.297 1.149 1.149 0 0 1 0-2.297m0-21.822a1.15 1.15 0 1 1 .001 2.3 1.15 1.15 0 0 1 -.001-2.3m0-13.782a1.149 1.149 0 1 1 0 2.297 1.15 1.15 0 1 1 0-2.297m0 6.891a1.149 1.149 0 1 1 0 2.297 1.15 1.15 0 1 1 0-2.297m-24.159 13.782a1.149 1.149 0 1 1 0 2.297 1.15 1.15 0 0 1 0-2.297m0 8.04a1.148 1.148 0 1 1 0 2.297 1.15 1.15 0 0 1 0-2.297m0 6.891a1.148 1.148 0 1 1 0 2.297 1.15 1.15 0 0 1 0-2.297m0-21.822a1.15 1.15 0 1 1 .001 2.299 1.15 1.15 0 0 1 -.001-2.299m0-13.782a1.149 1.149 0 1 1 0 2.297 1.15 1.15 0 0 1 0-2.297m0 6.891a1.148 1.148 0 1 1 0 2.297 1.15 1.15 0 0 1 0-2.297m8.052 13.782a1.15 1.15 0 1 1 .003 2.3 1.15 1.15 0 0 1 -.003-2.3m0 8.04a1.15 1.15 0 1 1 -1.15 1.148c0-.635.515-1.148 1.15-1.148m0 6.891a1.15 1.15 0 1 1 -1.15 1.148c0-.634.515-1.148 1.15-1.148m0-21.822a1.15 1.15 0 0 1 1.151 1.15 1.15 1.15 0 0 1 -2.3 0 1.15 1.15 0 0 1 1.149-1.15m0-13.782a1.15 1.15 0 1 1 .003 2.3 1.15 1.15 0 0 1 -.003-2.3m0 6.891a1.15 1.15 0 1 1 -1.15 1.148c0-.634.515-1.148 1.15-1.148m36.815 43.644a1.149 1.149 0 1 1 0 2.297 1.149 1.149 0 0 1 0-2.297m0-6.891a1.149 1.149 0 1 1 0 2.297 1.15 1.15 0 1 1 0-2.297m-13.806 6.891a1.15 1.15 0 1 1 -1.15 1.148c0-.635.514-1.148 1.15-1.148m0-6.891a1.15 1.15 0 1 1 -1.15 1.148c0-.635.514-1.148 1.15-1.148m6.904 6.891a1.148 1.148 0 1 1 0 2.297 1.15 1.15 0 0 1 0-2.297m0-6.891a1.148 1.148 0 1 1 0 2.297 1.15 1.15 0 0 1 0-2.297m-21.859 6.891a1.148 1.148 0 1 1 0 2.297 1.15 1.15 0 0 1 0-2.297m0-6.891a1.148 1.148 0 1 1 0 2.297 1.15 1.15 0 0 1 0-2.297m8.053 6.891a1.149 1.149 0 1 1 0 2.297 1.149 1.149 0 0 1 0-2.297m0-6.891a1.149 1.149 0 1 1 0 2.297 1.15 1.15 0 1 1 0-2.297m-24.159 6.891a1.148 1.148 0 1 1 0 2.297 1.15 1.15 0 0 1 0-2.297m0-6.891a1.148 1.148 0 1 1 0 2.297 1.15 1.15 0 0 1 0-2.297m8.052 6.891a1.15 1.15 0 1 1 -1.15 1.148c0-.635.515-1.148 1.15-1.148m0-6.891a1.15 1.15 0 1 1 -1.15 1.148c0-.635.515-1.148 1.15-1.148" fill="#000" opacity=".1" transform="translate(82.832)"/><g fill="#f6b72c"><ellipse cx="108.717" cy="14.356" rx="1.726" ry="1.723"/><ellipse cx="128.274" cy="29.287" rx="1.726" ry="1.723"/><ellipse cx="115.044" cy="36.752" rx="1.15" ry="1.149"/></g><g transform="translate(.154 10.337)"><path d="m16.096 15.463a.393.393 0 0 1 0 .693c-1.13.63-1.944 1.973-2.376 2.838a.396.396 0 0 1 -.71 0c-.432-.865-1.246-2.209-2.375-2.838a.393.393 0 0 1 0-.693c1.129-.629 1.943-1.973 2.376-2.837a.396.396 0 0 1 .709 0c.432.864 1.247 2.208 2.376 2.837zm67.368-2.097c-1.13-.628-1.944-1.973-2.376-2.837a.396.396 0 0 0 -.71 0c-.431.864-1.246 2.209-2.375 2.837a.393.393 0 0 0 0 .693c1.129.63 1.944 1.974 2.376 2.838a.396.396 0 0 0 .709 0c.432-.864 1.247-2.208 2.376-2.838a.393.393 0 0 0 0-.693m-20.17-10.309c-1.13-.627-1.944-1.973-2.376-2.837a.396.396 0 0 0 -.71 0c-.431.864-1.246 2.209-2.375 2.837a.393.393 0 0 0 0 .693c1.129.63 1.944 1.974 2.376 2.838a.396.396 0 0 0 .709 0c.432-.864 1.247-2.209 2.376-2.838a.393.393 0 0 0 0-.693m-22.397 6.905c-1.13-.628-1.944-1.973-2.376-2.837a.396.396 0 0 0 -.71 0c-.431.864-1.246 2.209-2.375 2.837a.393.393 0 0 0 0 .693c1.129.63 1.944 1.974 2.376 2.838a.396.396 0 0 0 .709 0c.432-.864 1.247-2.208 2.376-2.838a.393.393 0 0 0 0-.693" fill="#ffc431"/><path d="m71.084 49.952h4.485v-2.231h-4.485z" fill="#777" mask="url(#a)"/><path d="m70.138 47.721h6.376v-2.563h-6.376zm-7.518 11.887c0-5.868 4.781-10.626 10.68-10.626 5.898 0 10.679 4.758 10.679 10.626s-4.781 10.625-10.68 10.625c-5.898 0-10.679-4.757-10.679-10.625" fill="#81ce74" mask="url(#a)"/><path d="m65.749 67.134c4.259 4.238 10.932 4.15 15.102 0 4.171-4.149 4.26-10.789 0-15.026l-15.101 15.026z" fill="#ffdd12" mask="url(#a)"/><path d="m65.095 59.608c0-4.509 3.673-8.164 8.205-8.164 4.531 0 8.205 3.655 8.205 8.164s-3.674 8.163-8.205 8.163c-4.532 0-8.205-3.654-8.205-8.163" fill="#fff" mask="url(#a)"/><path d="m62.62 59.608c0-5.868 4.781-10.626 10.68-10.626 5.898 0 10.679 4.758 10.679 10.626s-4.781 10.625-10.68 10.625c-5.898 0-10.679-4.757-10.679-10.625z" mask="url(#a)" stroke="#777" stroke-linecap="round" stroke-linejoin="round" stroke-width=".694"/><path d="m77.354 55.708.578-.575m-.322 8.606.577.574m-8.919-8.605-.58-.575m.324 8.606-.578.574m5.822-6.823v2.737h2.327" mask="url(#a)" stroke="#777" stroke-linecap="round" stroke-linejoin="round" stroke-width=".671"/><path d="m67.847 63.073c-.365-.203-.629-.638-.769-.918a.128.128 0 0 0 -.229 0c-.14.28-.404.715-.769.918a.127.127 0 0 0 0 .224c.365.204.629.639.77.918a.128.128 0 0 0 .228 0c.14-.28.404-.714.769-.918a.127.127 0 0 0 0-.224" fill="#fff" mask="url(#a)"/><path d="m33.428 52.097-3.791-2.384 1.197-1.886 3.793 2.384z" fill="#777" mask="url(#a)"/><path d="m36.802 48.546-5.39-3.388-1.376 2.167 5.39 3.388zm-19.504 4.831c3.15-4.96 9.746-6.441 14.733-3.306 4.986 3.135 6.473 9.698 3.323 14.659-3.151 4.96-9.747 6.44-14.733 3.305-4.986-3.134-6.474-9.697-3.323-14.658" fill="#81ce74" mask="url(#a)"/><path d="m15.901 61.403c1.326 5.846 7.014 9.318 12.768 8.027 5.753-1.292 9.393-6.857 8.068-12.703z" fill="#ffdd12" mask="url(#a)"/><path d="m19.39 54.692c2.42-3.811 7.488-4.948 11.319-2.54 3.83 2.41 4.973 7.451 2.553 11.262-2.42 3.812-7.489 4.949-11.32 2.54-3.83-2.408-4.973-7.45-2.552-11.262" fill="#fff" mask="url(#a)"/><path d="m17.298 53.377c3.15-4.96 9.746-6.441 14.733-3.306 4.986 3.135 6.473 9.698 3.323 14.659-3.151 4.96-9.747 6.44-14.733 3.305-4.986-3.134-6.474-9.697-3.323-14.658z" mask="url(#a)" stroke="#777" stroke-linecap="round" stroke-linejoin="round" stroke-width=".694"/><path d="m27.915 56.581-1.967 3.098 3.114 1.957" mask="url(#a)" stroke="#777" stroke-linecap="round" stroke-linejoin="round" stroke-width=".816"/><path d="m19.855 59.085c-.199-.366-.188-.874-.157-1.185a.128.128 0 0 0 -.194-.122c-.268.162-.724.39-1.142.368a.127.127 0 0 0 -.12.19c.2.366.189.873.157 1.184a.127.127 0 0 0 .194.122c.268-.162.724-.39 1.142-.368.102.006.17-.1.12-.19" fill="#fff" mask="url(#a)"/><path d="m70.24 28.944-3.793-2.384 1.198-1.887 3.792 2.385z" fill="#777" mask="url(#a)"/><path d="m73.612 25.393-5.39-3.389-1.376 2.167 5.39 3.389zm-19.504 4.831c3.151-4.96 9.747-6.441 14.733-3.306s6.474 9.698 3.323 14.658c-3.15 4.961-9.746 6.442-14.733 3.306-4.986-3.134-6.473-9.697-3.323-14.658" fill="#81ce74" mask="url(#a)"/><path d="m52.712 38.25c1.326 5.846 7.014 9.318 12.767 8.026 5.754-1.29 9.393-6.857 8.069-12.702z" fill="#ffdd12" mask="url(#a)"/><path d="m56.2 31.54c2.42-3.812 7.488-4.95 11.32-2.541 3.83 2.409 4.973 7.45 2.553 11.262-2.421 3.811-7.489 4.949-11.32 2.54-3.83-2.409-4.973-7.45-2.553-11.262" fill="#fff" mask="url(#a)"/><path d="m54.108 30.224c3.151-4.96 9.747-6.441 14.733-3.306s6.474 9.698 3.323 14.658c-3.15 4.961-9.746 6.442-14.733 3.306-4.986-3.134-6.473-9.697-3.323-14.658z" mask="url(#a)" stroke="#777" stroke-linecap="round" stroke-linejoin="round" stroke-width=".694"/><path d="m64.726 33.428-1.967 3.098 3.113 1.957" mask="url(#a)" stroke="#777" stroke-linecap="round" stroke-linejoin="round" stroke-width=".816"/><path d="m56.666 35.931c-.2-.366-.189-.873-.157-1.184a.128.128 0 0 0 -.194-.122c-.268.162-.724.39-1.142.368a.127.127 0 0 0 -.12.189c.199.366.188.874.157 1.184a.127.127 0 0 0 .193.122c.268-.162.725-.39 1.143-.367.102.005.169-.1.12-.19" fill="#fff" mask="url(#a)"/><path d="m90.972 87.038-3.792-2.384 1.197-1.887 3.793 2.385z" fill="#777" mask="url(#a)"/><path d="m94.345 83.487-5.39-3.389-1.376 2.167 5.39 3.389zm-19.505 4.831c3.152-4.96 9.747-6.441 14.734-3.307 4.986 3.135 6.473 9.698 3.323 14.66-3.151 4.96-9.747 6.44-14.733 3.305s-6.474-9.698-3.323-14.658" fill="#81ce74" mask="url(#a)"/><path d="m73.444 96.343c1.326 5.846 7.014 9.319 12.768 8.027 5.753-1.291 9.393-6.857 8.068-12.702z" fill="#ffdd12" mask="url(#a)"/><path d="m76.933 89.633c2.42-3.812 7.488-4.949 11.319-2.54 3.83 2.409 4.973 7.45 2.553 11.262-2.42 3.811-7.488 4.948-11.32 2.54-3.83-2.409-4.973-7.45-2.552-11.262" fill="#fff" mask="url(#a)"/><path d="m74.84 88.318c3.152-4.96 9.747-6.441 14.734-3.307 4.986 3.135 6.473 9.698 3.323 14.66-3.151 4.96-9.747 6.44-14.733 3.305s-6.474-9.698-3.323-14.658z" mask="url(#a)" stroke="#777" stroke-linecap="round" stroke-linejoin="round" stroke-width=".694"/><path d="m85.459 91.522-1.968 3.097 3.114 1.958" mask="url(#a)" stroke="#777" stroke-linecap="round" stroke-linejoin="round" stroke-width=".816"/><path d="m77.398 94.025c-.199-.366-.188-.873-.157-1.184a.128.128 0 0 0 -.193-.122c-.269.162-.725.39-1.143.368a.127.127 0 0 0 -.12.189c.2.366.189.874.157 1.184a.127.127 0 0 0 .194.122c.268-.162.724-.39 1.142-.367.103.005.17-.1.12-.19" fill="#fff" mask="url(#a)"/><path d="m49.886 50.042-4.376.982-.493-2.177 4.375-.982z" fill="#777" mask="url(#a)"/><path d="m49.748 45.158-6.22 1.395.567 2.5 6.22-1.395zm-10.257 17.137c-1.297-5.724 2.315-11.411 8.068-12.703 5.754-1.29 11.47 2.303 12.768 8.028 1.298 5.724-2.315 11.411-8.068 12.702-5.754 1.292-11.47-2.302-12.768-8.027" fill="#81ce74" mask="url(#a)"/><path d="m44.208 68.953c5.092 3.2 11.582 1.654 14.733-3.307 3.15-4.96 1.768-11.457-3.324-14.658l-11.41 17.965z" fill="#ffdd12" mask="url(#a)"/><path d="m41.905 61.754c-.997-4.398 1.778-8.768 6.199-9.76 4.42-.992 8.812 1.77 9.809 6.167.997 4.398-1.778 8.768-6.198 9.76s-8.813-1.77-9.81-6.167" fill="#fff" mask="url(#a)"/><path d="m39.491 62.295c-1.297-5.724 2.315-11.411 8.068-12.703 5.754-1.29 11.47 2.303 12.768 8.028 1.298 5.724-2.315 11.411-8.068 12.702-5.754 1.292-11.47-2.302-12.768-8.027z" mask="url(#a)" stroke="#777" stroke-linecap="round" stroke-linejoin="round" stroke-width=".694"/><path d="m49.276 57.09.811 3.575 3.592-.806" mask="url(#a)" stroke="#777" stroke-linecap="round" stroke-linejoin="round" stroke-width=".816"/><path d="m45.254 64.532c-.4-.119-.754-.485-.952-.728a.128.128 0 0 0 -.224.05c-.074.304-.235.786-.546 1.064a.127.127 0 0 0 .05.219c.4.118.753.485.951.727a.128.128 0 0 0 .224-.05c.075-.303.236-.785.547-1.064a.127.127 0 0 0 -.05-.218" fill="#fff" mask="url(#a)"/><path d="m43.963 23.52-4.376.983-.494-2.177 4.376-.982z" fill="#777" mask="url(#a)"/><path d="m43.824 18.637-6.22 1.395.567 2.5 6.22-1.395zm-10.256 17.137c-1.298-5.724 2.314-11.411 8.068-12.703 5.753-1.291 11.47 2.303 12.768 8.028 1.296 5.724-2.315 11.411-8.069 12.701-5.753 1.292-11.47-2.302-12.767-8.027" fill="#81ce74" mask="url(#a)"/><path d="m38.284 42.432c5.092 3.2 11.583 1.654 14.733-3.307 3.15-4.96 1.769-11.457-3.323-14.658z" fill="#ffdd12" mask="url(#a)"/><path d="m35.982 35.232c-.997-4.397 1.778-8.767 6.198-9.76 4.42-.991 8.812 1.77 9.81 6.168.997 4.398-1.779 8.768-6.199 9.76s-8.812-1.77-9.81-6.168" fill="#fff" mask="url(#a)"/><path d="m33.568 35.774c-1.298-5.724 2.314-11.411 8.068-12.703 5.753-1.291 11.47 2.303 12.768 8.028 1.296 5.724-2.315 11.411-8.069 12.701-5.753 1.292-11.47-2.302-12.767-8.027z" mask="url(#a)" stroke="#777" stroke-linecap="round" stroke-linejoin="round" stroke-width=".694"/><path d="m43.353 30.57.81 3.574 3.593-.806" mask="url(#a)" stroke="#777" stroke-linecap="round" stroke-linejoin="round" stroke-width=".816"/><path d="m39.33 38.01c-.4-.118-.753-.484-.951-.727a.128.128 0 0 0 -.224.05c-.075.304-.236.786-.547 1.064a.127.127 0 0 0 .05.219c.4.118.754.485.952.727a.128.128 0 0 0 .224-.05c.074-.304.235-.785.546-1.064a.127.127 0 0 0 -.05-.218" fill="#fff" mask="url(#a)"/><path d="m24.724 28.12-4.052-1.916.963-2.016 4.051 1.916z" fill="#777" mask="url(#a)"/><path d="m27.646 24.191-5.76-2.722-1.105 2.316 5.759 2.722zm-18.703 7.184c2.531-5.301 8.902-7.557 14.23-5.039 5.327 2.518 7.594 8.856 5.063 14.157-2.53 5.3-8.901 7.556-14.228 5.038-5.328-2.518-7.595-8.855-5.065-14.156" fill="#81ce74" mask="url(#a)"/><path d="m8.523 39.509c2.02 5.645 8.086 8.415 13.642 6.447 5.557-1.967 8.5-7.927 6.481-13.573l-20.123 7.127z" fill="#ffdd12" mask="url(#a)"/><path d="m11.179 32.431c1.944-4.072 6.838-5.805 10.931-3.87 4.094 1.934 5.836 6.804 3.891 10.876-1.944 4.072-6.839 5.805-10.932 3.87-4.093-1.934-5.835-6.803-3.89-10.876" fill="#fff" mask="url(#a)"/><path d="m8.943 31.375c2.531-5.301 8.902-7.557 14.23-5.039 5.327 2.518 7.594 8.856 5.063 14.157-2.53 5.3-8.901 7.556-14.228 5.038-5.328-2.518-7.595-8.855-5.065-14.156z" mask="url(#a)" stroke="#777" stroke-linecap="round" stroke-linejoin="round" stroke-width=".694"/><path d="m19.87 33.29-1.58 3.31 3.327 1.572" mask="url(#a)" stroke="#777" stroke-linecap="round" stroke-linejoin="round" stroke-width=".816"/><path d="m12.09 36.674c-.242-.34-.293-.846-.298-1.157a.128.128 0 0 0 -.208-.098c-.246.193-.672.473-1.09.5a.127.127 0 0 0 -.096.203c.242.34.292.845.298 1.157a.128.128 0 0 0 .207.098c.247-.193.673-.473 1.09-.501a.127.127 0 0 0 .097-.202" fill="#fff" mask="url(#a)"/><path d="m35.964 92.01-10.378 10.946h45.92l-11.847-10.946z" fill="#caf5ff" mask="url(#a)"/><path d="m36.176 92.01h11.424l-11.424 10.862h-10.601z" fill="#46c4d1" mask="url(#a)" opacity=".805"/><path d="m35.964 92.01h23.483v-11.366h-23.483z" fill="#caf5ff" mask="url(#a)"/><path d="m47.598 92.01h11.638v-11.366z" fill="#46c4d1" mask="url(#a)" opacity=".805"/><g fill-opacity=".5"><path d="m.423 57.912h94.777v-22.312h-94.777z" fill="#caf5ff" mask="url(#a)"/><path d="m48.235 36.021v21.89h23.27zm-47.389 0v21.89h23.268z" fill="#46c4d1" mask="url(#a)"/><path d="m47.812 35.6h-47.388l23.69 22.312.003-.004.004.004zm46.965 22.312h-46.542l23.27 22.943-.422-.636.423.636z" fill="#90edfc" mask="url(#a)"/><path d="m48.235 57.912h-47.389l24.118 22.732zm46.965-22.312h-47.388l23.69 22.312.004-.004.003.004z" fill="#90edfc" mask="url(#a)"/><path d="m24.964 80.644h46.542l-23.271-22.732z" fill="#caf5ff" mask="url(#a)"/></g><path d="m59.236 80.644h-23.272l11.634 11.366h.004z" fill="#90edfc" mask="url(#a)"/><path d="m35.964 102.956h23.272l-11.634-10.952-.002.005-.002-.006z" fill="#90edfc" mask="url(#a)"/><path d="m24.964 80.644-.85-22.732h24.12zm46.542.211-.004-22.943h24.121z" fill="#46c4d1" fill-opacity=".5" mask="url(#a)"/><path d="m117.137 84.297-4.477-.276.139-2.227 4.477.276z" fill="#777" mask="url(#a)"/><path d="m118.379 79.57-6.364-.393-.16 2.559 6.365.392zm-14.766 13.568c.365-5.857 5.433-10.312 11.32-9.949 5.886.363 10.363 5.405 9.998 11.262-.364 5.857-5.432 10.311-11.319 9.948-5.887-.362-10.363-5.405-9.999-11.261" fill="#81ce74" mask="url(#a)"/><path d="m106.268 100.842c3.988 4.491 10.654 4.814 15.074.929s4.921-10.506.934-14.998z" fill="#ffdd12" mask="url(#a)"/><path d="m106.083 93.29c.28-4.5 4.174-7.922 8.696-7.643 4.523.278 7.963 4.152 7.682 8.652-.28 4.5-4.173 7.922-8.696 7.643-4.523-.278-7.962-4.153-7.682-8.652" fill="#fff" mask="url(#a)"/><g stroke="#777" stroke-linecap="round" stroke-linejoin="round"><path d="m103.613 93.138c.365-5.857 5.433-10.312 11.32-9.949 5.886.363 10.363 5.405 9.998 11.262-.364 5.857-5.432 10.311-11.319 9.948-5.887-.362-10.363-5.405-9.999-11.261z" mask="url(#a)" stroke-width=".694"/><path d="m118.56 90.154.614-.541m-.857 8.569.541.61m-8.368-9.138-.541-.61m-.212 8.61-.614.54" mask="url(#a)" stroke-width=".671"/><path d="m114.471 90.866-.227 3.658 3.676.226" mask="url(#a)" stroke-width=".816"/></g><path d="m108.615 96.918c-.352-.226-.589-.676-.71-.964a.128.128 0 0 0 -.23-.014c-.156.27-.446.688-.824.869a.127.127 0 0 0 -.014.224c.353.225.588.676.71.963a.128.128 0 0 0 .23.014c.156-.27.447-.688.824-.869a.127.127 0 0 0 .014-.223" fill="#fff" mask="url(#a)"/></g></g></svg>