<svg height="116" viewBox="0 0 142 116" width="142" xmlns="http://www.w3.org/2000/svg" xmlns:xlink="http://www.w3.org/1999/xlink"><mask id="a" fill="#fff"><path d="m.745.813h2.185v2.187h-2.186z" fill="none"/></mask><mask id="b" fill="#fff"><path d="m.917.813h2.187v2.187h-2.187z" fill="none"/></mask><mask id="c" fill="#fff"><path d="m.939.813h2.186v2.187h-2.186z" fill="none"/></mask><mask id="d" fill="#fff"><path d="m.112.813h2.186v2.187h-2.186z" fill="none"/></mask><mask id="e" fill="#fff"><path d="m.134.813h2.186v2.187h-2.186z" fill="none"/></mask><mask id="f" fill="#fff"><path d="m.307.813h2.186v2.187h-2.186z" fill="none"/></mask><mask id="g" fill="#fff"><path d="m.328.813h2.186v2.187h-2.186z" fill="none"/></mask><mask id="h" fill="#fff"><path d="m.501.813h2.186v2.187h-2.186z" fill="none"/></mask><g fill="none" fill-rule="evenodd"><g fill="#000" opacity=".05"><path d="m131.093 23a1.093 1.093 0 1 1 0 2.185 1.093 1.093 0 0 1 0-2.185m0 8a1.093 1.093 0 1 1 0 2.186 1.093 1.093 0 0 1 0-2.186m0 8a1.093 1.093 0 1 1 0 2.185 1.093 1.093 0 0 1 0-2.185m0-24a1.093 1.093 0 1 1 0 2.185 1.093 1.093 0 0 1 0-2.185m9 8a1.093 1.093 0 1 1 .001 2.187 1.093 1.093 0 0 1 -.001-2.187m0 8a1.094 1.094 0 1 1 0 2.187 1.094 1.094 0 0 1 0-2.187m0 8a1.093 1.093 0 1 1 .001 2.187 1.093 1.093 0 0 1 -.001-2.187m0-24a1.093 1.093 0 1 1 .001 2.187 1.093 1.093 0 0 1 -.001-2.187m-27 8a1.093 1.093 0 1 1 0 2.185 1.093 1.093 0 0 1 0-2.185m0 8a1.093 1.093 0 1 1 0 2.186 1.093 1.093 0 0 1 0-2.186m0 8a1.093 1.093 0 1 1 0 2.185 1.093 1.093 0 0 1 0-2.185m0-24a1.093 1.093 0 1 1 0 2.185 1.093 1.093 0 0 1 0-2.185m9 8a1.093 1.093 0 1 1 0 2.185 1.093 1.093 0 0 1 0-2.185m0 8a1.093 1.093 0 1 1 0 2.186 1.093 1.093 0 0 1 0-2.186m0 8a1.093 1.093 0 1 1 0 2.185 1.093 1.093 0 0 1 0-2.185m0-24a1.093 1.093 0 1 1 0 2.185 1.093 1.093 0 0 1 0-2.185m-27 8a1.093 1.093 0 1 1 0 2.185 1.093 1.093 0 0 1 0-2.185m0 8a1.093 1.093 0 1 1 0 2.186 1.093 1.093 0 0 1 0-2.186m0 8a1.093 1.093 0 1 1 0 2.185 1.093 1.093 0 0 1 0-2.185m0-24a1.093 1.093 0 1 1 0 2.185 1.093 1.093 0 0 1 0-2.185m10 8a1.093 1.093 0 1 1 0 2.185 1.093 1.093 0 0 1 0-2.185m0 8a1.093 1.093 0 1 1 0 2.186 1.093 1.093 0 0 1 0-2.186m0 8a1.093 1.093 0 1 1 0 2.185 1.093 1.093 0 0 1 0-2.185m0-24a1.093 1.093 0 1 1 0 2.185 1.093 1.093 0 0 1 0-2.185m-27 8a1.093 1.093 0 1 1 0 2.185 1.093 1.093 0 0 1 0-2.185m0 8a1.093 1.093 0 1 1 0 2.186 1.093 1.093 0 0 1 0-2.186m0 8a1.093 1.093 0 1 1 0 2.185 1.093 1.093 0 0 1 0-2.185m0-24a1.093 1.093 0 1 1 0 2.185 1.093 1.093 0 0 1 0-2.185m9 8a1.093 1.093 0 1 1 0 2.185 1.093 1.093 0 0 1 0-2.185m0 8a1.093 1.093 0 1 1 0 2.186 1.093 1.093 0 0 1 0-2.186m0 8a1.093 1.093 0 1 1 0 2.185 1.093 1.093 0 0 1 0-2.185m0-24a1.093 1.093 0 1 1 0 2.185 1.093 1.093 0 0 1 0-2.185m44 41a1.093 1.093 0 1 1 0 2.186 1.093 1.093 0 0 1 0-2.186m0 8a1.093 1.093 0 1 1 0 2.185 1.093 1.093 0 0 1 0-2.185"/><path d="m1.837.813a1.093 1.093 0 1 1 0 2.187 1.093 1.093 0 0 1 0-2.187" mask="url(#a)" transform="translate(129 71)"/><path d="m131.093 48a1.093 1.093 0 1 1 0 2.187 1.093 1.093 0 0 1 0-2.187m9 8a1.094 1.094 0 1 1 0 2.187 1.094 1.094 0 0 1 0-2.187m0 8a1.093 1.093 0 1 1 .001 2.187 1.093 1.093 0 0 1 -.001-2.187"/><path d="m2.01.813a1.094 1.094 0 1 1 0 2.189 1.094 1.094 0 0 1 0-2.189" mask="url(#b)" transform="translate(138 71)"/><path d="m140.093 48a1.094 1.094 0 1 1 0 2.189 1.094 1.094 0 0 1 0-2.189m-27 8a1.093 1.093 0 1 1 0 2.186 1.093 1.093 0 0 1 0-2.186m0 8a1.093 1.093 0 1 1 0 2.185 1.093 1.093 0 0 1 0-2.185"/><path d="m2.032.813a1.093 1.093 0 1 1 -.002 2.187 1.093 1.093 0 0 1 0-2.187" mask="url(#c)" transform="translate(111 71)"/><path d="m113.093 48a1.093 1.093 0 1 1 0 2.187 1.093 1.093 0 0 1 0-2.187m9 8a1.093 1.093 0 1 1 0 2.186 1.093 1.093 0 0 1 0-2.186m0 8a1.093 1.093 0 1 1 0 2.185 1.093 1.093 0 0 1 0-2.185"/><path d="m1.205.813a1.093 1.093 0 1 1 0 2.187 1.093 1.093 0 0 1 0-2.187" mask="url(#d)" transform="translate(121 71)"/><path d="m122.093 48a1.093 1.093 0 1 1 0 2.187 1.093 1.093 0 0 1 0-2.187m-27 8a1.093 1.093 0 1 1 0 2.186 1.093 1.093 0 0 1 0-2.186m0 8a1.093 1.093 0 1 1 0 2.185 1.093 1.093 0 0 1 0-2.185"/><path d="m1.227.813a1.093 1.093 0 1 1 -.001 2.187 1.093 1.093 0 0 1 0-2.187" mask="url(#e)" transform="translate(94 71)"/><path d="m95.093 48a1.093 1.093 0 1 1 0 2.187 1.093 1.093 0 0 1 0-2.187m10 8a1.093 1.093 0 1 1 0 2.186 1.093 1.093 0 0 1 0-2.186m0 8a1.093 1.093 0 1 1 0 2.185 1.093 1.093 0 0 1 0-2.185"/><path d="m1.4.813a1.093 1.093 0 1 1 0 2.187 1.093 1.093 0 0 1 0-2.187" mask="url(#f)" transform="translate(103 71)"/><path d="m105.093 48a1.093 1.093 0 1 1 0 2.187 1.093 1.093 0 0 1 0-2.187m-27 8a1.093 1.093 0 1 1 0 2.186 1.093 1.093 0 0 1 0-2.186m0 8a1.093 1.093 0 1 1 0 2.185 1.093 1.093 0 0 1 0-2.185"/><path d="m1.421.813a1.093 1.093 0 1 1 0 2.187 1.093 1.093 0 0 1 0-2.187" mask="url(#g)" transform="translate(76 71)"/><path d="m78.093 48a1.093 1.093 0 1 1 0 2.187 1.093 1.093 0 0 1 0-2.187m9 8a1.093 1.093 0 1 1 0 2.186 1.093 1.093 0 0 1 0-2.186m0 8a1.093 1.093 0 1 1 0 2.185 1.093 1.093 0 0 1 0-2.185"/><path d="m1.594.813a1.093 1.093 0 1 1 0 2.187 1.093 1.093 0 0 1 0-2.187" mask="url(#h)" transform="translate(85 71)"/><path d="m87.093 48a1.093 1.093 0 1 1 0 2.187 1.093 1.093 0 0 1 0-2.187"/></g><g fill="#f6b72c"><circle cx="105" cy="24" r="2"/><circle cx="131.5" cy="32.5" r="1.5"/><circle cx="131" cy="57" r="2"/><path d="m37.817 104.457c-.526-5.362-5.032-9.457-10.515-9.457-4.206 0-7.81 2.457-9.538 5.957-.451-.223-.902-.372-1.426-.372-1.578 0-2.93 1.265-2.93 2.904 0 .372.076.67.226 1.042-3.155.075-5.634 2.607-5.634 5.735 0 3.202 2.63 5.734 5.784 5.734h23.433c3.23 0 5.783-2.607 5.783-5.734-.001-3.054-2.254-5.51-5.183-5.809" opacity=".1"/><path d="m97 48.117c0-17.187-13.878-31.117-31-31.117-17.121 0-31 13.93-31 31.117 0 7.495 2.64 14.46 7.09 19.836l15.236 21.047h17.197l15.236-21.047c4.525-5.376 7.241-12.266 7.241-19.836"/></g><path d="m87 48.117c0-17.187-9.383-31.117-21-31.117s-21 13.93-21 31.117c0 7.495 1.787 14.46 4.84 19.836l10.35 21.047h11.693l10.35-21.047c2.98-5.376 4.767-12.266 4.767-19.836" fill="#fff"/><path d="m76 48.117c0-17.187-4.231-31.117-9.5-31.117-5.27 0-9.5 13.93-9.5 31.117 0 7.495.816 14.46 2.151 19.836l4.676 21.047h5.27l4.677-21.047c1.41-5.376 2.226-12.266 2.226-19.836" fill="#f6b72c"/><path d="m73.877 89-2.022 7.327h-2.472l.75-7.327h-1.124l-.748 7.327h-3.52l-.749-7.327h-1.124l.749 7.327h-2.471l-2.022-7.327h-1.124l2.022 7.477 1.274 6.653c.224 1.047 1.198 1.87 2.246 1.87h5.841c1.124 0 2.022-.748 2.248-1.87l1.272-6.653 2.097-7.477z" fill="#df5333"/><path d="m29.816 9.457c-.526-5.362-5.033-9.457-10.516-9.457-4.206 0-7.81 2.457-9.537 5.957-.451-.223-.902-.372-1.428-.372-1.577 0-2.929 1.266-2.929 2.904 0 .373.076.67.225 1.043-3.151.074-5.631 2.606-5.631 5.734 0 3.202 2.63 5.734 5.783 5.734h23.431c3.23 0 5.784-2.607 5.784-5.734.075-3.054-2.254-5.51-5.182-5.809" fill="#f6b72c" opacity=".1"/></g></svg>