<svg height="46" viewBox="0 0 44 46" width="44" xmlns="http://www.w3.org/2000/svg"><g fill="none" fill-rule="evenodd"><path d="m26.802.244-24.097 13.913-2.005 18.522 36.38 13.163 6.778-38.08-17.056-7.517" fill="#55b89a"/><path d="m.706 32.689 43.15-24.926-17.053-7.519-23.988 13.85-2.11 18.594" fill="#269070"/><path d="m.702 32.682 14.384-8.308 21.993 21.468z" fill="#75c1a6"/><path d="m43.84 7.777-14.387 8.302 7.595 29.78z" fill="#2ba07a"/><path d="m2.747 13.944 12.257 10.288-14.357 8.29z" fill="#55b89a"/><path d="m26.761.174 2.61 15.763-14.367 8.295-12.23-10.242 23.986-13.816" fill="#32b088"/><path d="m17.548 22.51c-1.456.012-3.014-.858-3.929-1.472a.44.44 0 0 0 -.689.398c.075 1.099.049 2.883-.69 4.138a.453.453 0 0 0 .396.686c1.456-.012 3.015.858 3.927 1.469a.44.44 0 0 0 .69-.398c-.073-1.096-.047-2.88.691-4.135a.453.453 0 0 0 -.396-.686" fill="#fffffe"/></g></svg>