<svg height="20" viewBox="0 0 1279 20" width="1279" xmlns="http://www.w3.org/2000/svg" xmlns:xlink="http://www.w3.org/1999/xlink"><mask id="a" fill="#fff"><path d="m.973.813h2.186v2.187h-2.186z" fill="none"/></mask><mask id="b" fill="#fff"><path d="m.07.813h2.186v2.187h-2.186z" fill="none"/></mask><mask id="c" fill="#fff"><path d="m.167.813h2.186v2.187h-2.186z" fill="none"/></mask><mask id="d" fill="#fff"><path d="m.805.813h2.186v2.187h-2.186z" fill="none"/></mask><mask id="e" fill="#fff"><path d="m.903.813h2.186v2.187h-2.186z" fill="none"/></mask><mask id="f" fill="#fff"><path d="m0 .813h2.186v2.187h-2.186z" fill="none"/></mask><mask id="g" fill="#fff"><path d="m.875.813h2.186v2.187h-2.186z" fill="none"/></mask><mask id="h" fill="#fff"><path d="m.049.813h2.186v2.187h-2.186z" fill="none"/></mask><mask id="i" fill="#fff"><path d="m.214.813h2.186v2.187h-2.186z" fill="none"/></mask><mask id="j" fill="#fff"><path d="m.263.813h2.187v2.187h-2.187z" fill="none"/></mask><mask id="k" fill="#fff"><path d="m.36.813h2.187v2.187h-2.187z" fill="none"/></mask><mask id="l" fill="#fff"><path d="m.457.813h2.187v2.187h-2.187z" fill="none"/></mask><mask id="m" fill="#fff"><path d="m.555.813h2.187v2.187h-2.187z" fill="none"/></mask><mask id="n" fill="#fff"><path d="m.193.813h2.187v2.187h-2.187z" fill="none"/></mask><mask id="o" fill="#fff"><path d="m.29.813h2.187v2.187h-2.187z" fill="none"/></mask><mask id="p" fill="#fff"><path d="m.388.813h2.187v2.187h-2.187z" fill="none"/></mask><mask id="q" fill="#fff"><path d="m.928.813h2.187v2.187h-2.187z" fill="none"/></mask><mask id="r" fill="#fff"><path d="m.025.813h2.187v2.187h-2.187z" fill="none"/></mask><mask id="s" fill="#fff"><path d="m.409.813h2.187v2.187h-2.187z" fill="none"/></mask><mask id="t" fill="#fff"><path d="m.582.813h2.187v2.187h-2.187z" fill="none"/></mask><mask id="u" fill="#fff"><path d="m.603.813h2.187v2.187h-2.187z" fill="none"/></mask><mask id="v" fill="#fff"><path d="m.776.813h2.187v2.187h-2.187z" fill="none"/></mask><mask id="w" fill="#fff"><path d="m.798.813h2.187v2.187h-2.187z" fill="none"/></mask><mask id="x" fill="#fff"><path d="m.972.813h2.187v2.187h-2.189z" fill="none"/></mask><mask id="y" fill="#fff"><path d="m.992.813h2.187v2.187h-2.187z" fill="none"/></mask><mask id="z" fill="#fff"><path d="m.166.813h2.187v2.187h-2.187z" fill="none"/></mask><mask id="A" fill="#fff"><path d="m.187.813h2.187v2.187h-2.187z" fill="none"/></mask><mask id="B" fill="#fff"><path d="m.36.813h2.187v2.187h-2.187z" fill="none"/></mask><mask id="C" fill="#fff"><path d="m.382.813h2.187v2.187h-2.187z" fill="none"/></mask><mask id="D" fill="#fff"><path d="m.554.813h2.188v2.187h-2.189z" fill="none"/></mask><mask id="E" fill="#fff"><path d="m.576.813h2.187v2.187h-2.187z" fill="none"/></mask><mask id="F" fill="#fff"><path d="m.75.813h2.187v2.187h-2.187z" fill="none"/></mask><mask id="G" fill="#fff"><path d="m.771.813h2.186v2.187h-2.186z" fill="none"/></mask><mask id="H" fill="#fff"><path d="m.944.813h2.187v2.187h-2.187z" fill="none"/></mask><mask id="I" fill="#fff"><path d="m.966.813h2.187v2.187h-2.187z" fill="none"/></mask><mask id="J" fill="#fff"><path d="m.139.813h2.186v2.187h-2.186z" fill="none"/></mask><mask id="K" fill="#fff"><path d="m.16.813h2.187v2.187h-2.187z" fill="none"/></mask><mask id="L" fill="#fff"><path d="m.334.813h2.186v2.187h-2.186z" fill="none"/></mask><mask id="M" fill="#fff"><path d="m.354.813h2.187v2.187h-2.187z" fill="none"/></mask><mask id="N" fill="#fff"><path d="m.528.813h2.187v2.187h-2.187z" fill="none"/></mask><mask id="O" fill="#fff"><path d="m.55.813h2.186v2.187h-2.186z" fill="none"/></mask><mask id="P" fill="#fff"><path d="m.723.813h2.186v2.187h-2.186z" fill="none"/></mask><mask id="Q" fill="#fff"><path d="m.745.813h2.185v2.187h-2.186z" fill="none"/></mask><mask id="R" fill="#fff"><path d="m.917.813h2.187v2.187h-2.187z" fill="none"/></mask><mask id="S" fill="#fff"><path d="m.939.813h2.186v2.187h-2.186z" fill="none"/></mask><mask id="T" fill="#fff"><path d="m.112.813h2.186v2.187h-2.186z" fill="none"/></mask><mask id="U" fill="#fff"><path d="m.134.813h2.186v2.187h-2.186z" fill="none"/></mask><mask id="V" fill="#fff"><path d="m.307.813h2.186v2.187h-2.186z" fill="none"/></mask><mask id="W" fill="#fff"><path d="m.328.813h2.186v2.187h-2.186z" fill="none"/></mask><mask id="X" fill="#fff"><path d="m.501.813h2.186v2.187h-2.186z" fill="none"/></mask><mask id="Y" fill="#fff"><path d="m.145.813h2.186v2.187h-2.186z" fill="none"/></mask><mask id="Z" fill="#fff"><path d="m.696.813h2.186v2.187h-2.186z" fill="none"/></mask><mask id="aa" fill="#fff"><path d="m.07.813h2.186v2.187h-2.186z" fill="none"/></mask><mask id="ab" fill="#fff"><path d="m.972.813h2.187v2.187h-2.189z" fill="none"/></mask><mask id="ac" fill="#fff"><path d="m.264.813h2.186v2.187h-2.186z" fill="none"/></mask><mask id="ad" fill="#fff"><path d="m.167.813h2.186v2.187h-2.186z" fill="none"/></mask><mask id="ae" fill="#fff"><path d="m0 .813h2.186v2.187h-2.186z" fill="none"/></mask><mask id="af" fill="#fff"><path d="m.902.813h2.187v2.187h-2.187z" fill="none"/></mask><mask id="ag" fill="#fff"><path d="m.924.813h2.186v2.187h-2.186z" fill="none"/></mask><mask id="ah" fill="#fff"><path d="m.097.813h2.186v2.187h-2.186z" fill="none"/></mask><mask id="ai" fill="#fff"><path d="m.118.813h2.187v2.187h-2.187z" fill="none"/></mask><mask id="aj" fill="#fff"><path d="m.02.813h2.188v2.187h-2.188z" fill="none"/></mask><mask id="ak" fill="#fff"><path d="m.68.813h2.187v2.187h-2.187z" fill="none"/></mask><mask id="al" fill="#fff"><path d="m.772.813h2.186v2.187h-2.186z" fill="none"/></mask><mask id="am" fill="#fff"><path d="m.583.813h2.187v2.187h-2.187z" fill="none"/></mask><mask id="an" fill="#fff"><path d="m.973.813h2.186v2.187h-2.186z" fill="none"/></mask><mask id="ao" fill="#fff"><path d="m.07.813h2.186v2.187h-2.186z" fill="none"/></mask><mask id="ap" fill="#fff"><path d="m.167.813h2.186v2.187h-2.186z" fill="none"/></mask><mask id="aq" fill="#fff"><path d="m.805.813h2.186v2.187h-2.186z" fill="none"/></mask><mask id="ar" fill="#fff"><path d="m.903.813h2.186v2.187h-2.186z" fill="none"/></mask><mask id="as" fill="#fff"><path d="m0 .813h2.186v2.187h-2.186z" fill="none"/></mask><mask id="at" fill="#fff"><path d="m.875.813h2.186v2.187h-2.186z" fill="none"/></mask><mask id="au" fill="#fff"><path d="m.049.813h2.186v2.187h-2.186z" fill="none"/></mask><mask id="av" fill="#fff"><path d="m.214.813h2.186v2.187h-2.186z" fill="none"/></mask><mask id="aw" fill="#fff"><path d="m.263.813h2.187v2.187h-2.187z" fill="none"/></mask><mask id="ax" fill="#fff"><path d="m.36.813h2.187v2.187h-2.187z" fill="none"/></mask><mask id="ay" fill="#fff"><path d="m.457.813h2.187v2.187h-2.187z" fill="none"/></mask><mask id="az" fill="#fff"><path d="m.555.813h2.187v2.187h-2.187z" fill="none"/></mask><mask id="aA" fill="#fff"><path d="m.193.813h2.187v2.187h-2.187z" fill="none"/></mask><mask id="aB" fill="#fff"><path d="m.29.813h2.187v2.187h-2.187z" fill="none"/></mask><mask id="aC" fill="#fff"><path d="m.388.813h2.187v2.187h-2.187z" fill="none"/></mask><mask id="aD" fill="#fff"><path d="m.928.813h2.187v2.187h-2.187z" fill="none"/></mask><mask id="aE" fill="#fff"><path d="m.025.813h2.187v2.187h-2.187z" fill="none"/></mask><mask id="aF" fill="#fff"><path d="m.409.813h2.187v2.187h-2.187z" fill="none"/></mask><mask id="aG" fill="#fff"><path d="m.582.813h2.187v2.187h-2.187z" fill="none"/></mask><mask id="aH" fill="#fff"><path d="m.603.813h2.187v2.187h-2.187z" fill="none"/></mask><mask id="aI" fill="#fff"><path d="m.776.813h2.187v2.187h-2.187z" fill="none"/></mask><mask id="aJ" fill="#fff"><path d="m.798.813h2.187v2.187h-2.187z" fill="none"/></mask><mask id="aK" fill="#fff"><path d="m.972.813h2.187v2.187h-2.189z" fill="none"/></mask><mask id="aL" fill="#fff"><path d="m.992.813h2.187v2.187h-2.187z" fill="none"/></mask><mask id="aM" fill="#fff"><path d="m.166.813h2.187v2.187h-2.187z" fill="none"/></mask><mask id="aN" fill="#fff"><path d="m.187.813h2.187v2.187h-2.187z" fill="none"/></mask><mask id="aO" fill="#fff"><path d="m.36.813h2.187v2.187h-2.187z" fill="none"/></mask><mask id="aP" fill="#fff"><path d="m.382.813h2.187v2.187h-2.187z" fill="none"/></mask><mask id="aQ" fill="#fff"><path d="m.554.813h2.188v2.187h-2.189z" fill="none"/></mask><mask id="aR" fill="#fff"><path d="m.576.813h2.187v2.187h-2.187z" fill="none"/></mask><mask id="aS" fill="#fff"><path d="m.75.813h2.187v2.187h-2.187z" fill="none"/></mask><mask id="aT" fill="#fff"><path d="m.771.813h2.186v2.187h-2.186z" fill="none"/></mask><mask id="aU" fill="#fff"><path d="m.944.813h2.187v2.187h-2.187z" fill="none"/></mask><mask id="aV" fill="#fff"><path d="m.966.813h2.187v2.187h-2.187z" fill="none"/></mask><mask id="aW" fill="#fff"><path d="m.139.813h2.186v2.187h-2.186z" fill="none"/></mask><mask id="aX" fill="#fff"><path d="m.16.813h2.187v2.187h-2.187z" fill="none"/></mask><mask id="aY" fill="#fff"><path d="m.334.813h2.186v2.187h-2.186z" fill="none"/></mask><mask id="aZ" fill="#fff"><path d="m.354.813h2.187v2.187h-2.187z" fill="none"/></mask><mask id="a0" fill="#fff"><path d="m.528.813h2.187v2.187h-2.187z" fill="none"/></mask><mask id="a1" fill="#fff"><path d="m.55.813h2.186v2.187h-2.186z" fill="none"/></mask><mask id="a2" fill="#fff"><path d="m.723.813h2.186v2.187h-2.186z" fill="none"/></mask><mask id="a3" fill="#fff"><path d="m.745.813h2.185v2.187h-2.186z" fill="none"/></mask><mask id="a4" fill="#fff"><path d="m.917.813h2.187v2.187h-2.187z" fill="none"/></mask><mask id="a5" fill="#fff"><path d="m.939.813h2.186v2.187h-2.186z" fill="none"/></mask><mask id="a6" fill="#fff"><path d="m.112.813h2.186v2.187h-2.186z" fill="none"/></mask><mask id="a7" fill="#fff"><path d="m.134.813h2.186v2.187h-2.186z" fill="none"/></mask><mask id="a8" fill="#fff"><path d="m.307.813h2.186v2.187h-2.186z" fill="none"/></mask><mask id="a9" fill="#fff"><path d="m.328.813h2.186v2.187h-2.186z" fill="none"/></mask><mask id="ba" fill="#fff"><path d="m.501.813h2.186v2.187h-2.186z" fill="none"/></mask><mask id="bb" fill="#fff"><path d="m.145.813h2.186v2.187h-2.186z" fill="none"/></mask><mask id="bc" fill="#fff"><path d="m.696.813h2.186v2.187h-2.186z" fill="none"/></mask><mask id="bd" fill="#fff"><path d="m.07.813h2.186v2.187h-2.186z" fill="none"/></mask><mask id="be" fill="#fff"><path d="m.972.813h2.187v2.187h-2.189z" fill="none"/></mask><mask id="bf" fill="#fff"><path d="m.264.813h2.186v2.187h-2.186z" fill="none"/></mask><mask id="bg" fill="#fff"><path d="m.167.813h2.186v2.187h-2.186z" fill="none"/></mask><mask id="bh" fill="#fff"><path d="m0 .813h2.186v2.187h-2.186z" fill="none"/></mask><mask id="bi" fill="#fff"><path d="m.902.813h2.187v2.187h-2.187z" fill="none"/></mask><mask id="bj" fill="#fff"><path d="m.924.813h2.186v2.187h-2.186z" fill="none"/></mask><mask id="bk" fill="#fff"><path d="m.097.813h2.186v2.187h-2.186z" fill="none"/></mask><mask id="bl" fill="#fff"><path d="m.118.813h2.187v2.187h-2.187z" fill="none"/></mask><mask id="bm" fill="#fff"><path d="m.02.813h2.188v2.187h-2.188z" fill="none"/></mask><mask id="bn" fill="#fff"><path d="m.68.813h2.187v2.187h-2.187z" fill="none"/></mask><mask id="bo" fill="#fff"><path d="m.772.813h2.186v2.187h-2.186z" fill="none"/></mask><mask id="bp" fill="#fff"><path d="m.583.813h2.187v2.187h-2.187z" fill="none"/></mask><g fill-rule="evenodd" opacity=".15"><path d="m60 0a1 1 0 1 1 0 2 1 1 0 0 1 0-2m-10 0a1 1 0 1 1 0 2 1 1 0 0 1 0-2m0 9a1 1 0 1 1 .001 1.999 1 1 0 0 1 -.001-1.999"/><path d="m2.066.813a1.093 1.093 0 1 1 -.001 2.187 1.093 1.093 0 0 1 0-2.187" mask="url(#a)" transform="translate(48 17)"/><path d="m40 0a1 1 0 1 1 0 2 1 1 0 0 1 0-2m0 9a1 1 0 1 1 .001 1.999 1 1 0 0 1 -.001-1.999"/><path d="m1.163.813a1.093 1.093 0 1 1 0 2.187 1.093 1.093 0 0 1 0-2.187" mask="url(#b)" transform="translate(39 17)"/><path d="m30 0a1 1 0 1 1 0 2 1 1 0 0 1 0-2m0 9a1 1 0 1 1 .001 1.999 1 1 0 0 1 -.001-1.999"/><path d="m1.26.813a1.093 1.093 0 1 1 0 2.187 1.093 1.093 0 0 1 0-2.187" mask="url(#c)" transform="translate(29 17)"/><path d="m21 0a1 1 0 1 1 0 2 1 1 0 0 1 0-2m0 9a1 1 0 1 1 .001 1.999 1 1 0 0 1 -.001-1.999"/><path d="m1.899.813a1.093 1.093 0 1 1 -.001 2.187 1.093 1.093 0 0 1 0-2.187" mask="url(#d)" transform="translate(19 17)"/><path d="m11 0a1 1 0 1 1 0 2 1 1 0 0 1 0-2m0 9a1 1 0 1 1 .001 1.999 1 1 0 0 1 -.001-1.999"/><path d="m1.996.813a1.093 1.093 0 1 1 -.001 2.187 1.093 1.093 0 0 1 0-2.187" mask="url(#e)" transform="translate(9 17)"/><path d="m1 0a1 1 0 1 1 0 2 1 1 0 0 1 0-2m0 9a1 1 0 1 1 .001 1.999 1 1 0 0 1 -.001-1.999"/><path d="m1.093.813a1.093 1.093 0 1 1 0 2.187 1.093 1.093 0 0 1 0-2.187" mask="url(#f)" transform="translate(0 17)"/><path d="m70 0a1 1 0 1 1 0 2 1 1 0 0 1 0-2"/><path d="m1.968.813a1.093 1.093 0 1 1 0 2.187 1.093 1.093 0 0 1 0-2.187" mask="url(#g)" transform="translate(58 17)"/><path d="m60 9a1 1 0 1 1 .001 1.999 1 1 0 0 1 -.001-1.999"/><path d="m1.142.813a1.093 1.093 0 1 1 -.002 2.187 1.093 1.093 0 0 1 0-2.187" mask="url(#h)" transform="translate(69 17)"/><path d="m70 9a1 1 0 1 1 .001 1.999 1 1 0 0 1 -.001-1.999m474-9a1 1 0 1 1 0 1.999 1 1 0 0 1 0-1.999m0 9a1 1 0 1 1 .001 1.998 1 1 0 0 1 0-1.998"/><path d="m1.308.813a1.093 1.093 0 1 1 -.001 2.187 1.093 1.093 0 0 1 0-2.187" mask="url(#i)" transform="translate(542 17)"/><path d="m613 0a1 1 0 1 1 0 2 1 1 0 0 1 0-2m0 9a1 1 0 1 1 0 2 1 1 0 0 1 0-2"/><path d="m1.356.813a1.094 1.094 0 1 1 0 2.189 1.094 1.094 0 0 1 0-2.189" mask="url(#j)" transform="translate(611 17)"/><path d="m603 0a1 1 0 1 1 0 2 1 1 0 0 1 0-2m0 9a1 1 0 1 1 0 2 1 1 0 0 1 0-2"/><path d="m1.453.813a1.094 1.094 0 1 1 0 2.189 1.094 1.094 0 0 1 0-2.189" mask="url(#k)" transform="translate(601 17)"/><path d="m593 0a1 1 0 1 1 0 1.999 1 1 0 0 1 0-1.999m0 9a1 1 0 1 1 .001 1.998 1 1 0 0 1 0-1.998"/><path d="m1.55.813a1.093 1.093 0 1 1 0 2.187 1.093 1.093 0 0 1 0-2.187" mask="url(#l)" transform="translate(591 17)"/><path d="m583 0a1 1 0 1 1 0 2 1 1 0 0 1 0-2m0 9a1 1 0 1 1 0 2 1 1 0 0 1 0-2"/><path d="m1.648.813a1.094 1.094 0 1 1 0 2.189 1.094 1.094 0 0 1 0-2.189" mask="url(#m)" transform="translate(581 17)"/><path d="m574 0a1 1 0 1 1 0 2 1 1 0 0 1 0-2m0 9a1 1 0 1 1 .001 1.999 1 1 0 0 1 -.001-1.999"/><path d="m1.286.813a1.093 1.093 0 1 1 0 2.187 1.093 1.093 0 0 1 0-2.187" mask="url(#n)" transform="translate(573 17)"/><path d="m564 0a1 1 0 1 1 0 1.999 1 1 0 0 1 0-1.999m0 9a1 1 0 1 1 .001 1.998 1 1 0 0 1 0-1.998"/><path d="m1.384.813a1.093 1.093 0 1 1 0 2.187 1.093 1.093 0 0 1 0-2.187" mask="url(#o)" transform="translate(562 17)"/><path d="m554 0a1 1 0 1 1 0 2 1 1 0 0 1 0-2m0 9a1 1 0 1 1 0 2 1 1 0 0 1 0-2"/><path d="m1.48.813a1.094 1.094 0 1 1 0 2.189 1.094 1.094 0 0 1 0-2.189" mask="url(#p)" transform="translate(552 17)"/><path d="m634 0a1 1 0 1 1 0 1.999 1 1 0 0 1 0-1.999m0 9a1 1 0 1 1 .001 1.998 1 1 0 0 1 0-1.998"/><path d="m2.022.813a1.093 1.093 0 1 1 -.002 2.187 1.093 1.093 0 0 1 0-2.187" mask="url(#q)" transform="translate(632 17)"/><path d="m624 0a1 1 0 1 1 0 2 1 1 0 0 1 0-2m0 9a1 1 0 1 1 0 2 1 1 0 0 1 0-2"/><path d="m1.118.813a1.094 1.094 0 1 1 0 2.189 1.094 1.094 0 0 1 0-2.189" mask="url(#r)" transform="translate(623 17)"/><path d="m524 0a1 1 0 1 1 0 2 1 1 0 0 1 0-2m0 9a1 1 0 1 1 0 2 1 1 0 0 1 0-2"/><path d="m1.502.813a1.094 1.094 0 1 1 0 2.189 1.094 1.094 0 0 1 0-2.189" mask="url(#s)" transform="translate(522 17)"/><path d="m534 0a1 1 0 1 1 0 1.999 1 1 0 0 1 0-1.999m0 9a1 1 0 1 1 .001 1.998 1 1 0 0 1 0-1.998"/><path d="m1.676.813a1.093 1.093 0 1 1 0 2.187 1.093 1.093 0 0 1 0-2.187" mask="url(#t)" transform="translate(532 17)"/><path d="m504 0a1 1 0 1 1 0 2 1 1 0 0 1 0-2m0 9a1 1 0 1 1 0 2 1 1 0 0 1 0-2"/><path d="m1.696.813a1.094 1.094 0 1 1 0 2.189 1.094 1.094 0 0 1 0-2.189" mask="url(#u)" transform="translate(502 17)"/><path d="m514 0a1 1 0 1 1 0 1.999 1 1 0 0 1 0-1.999m0 9a1 1 0 1 1 .001 1.998 1 1 0 0 1 0-1.998"/><path d="m1.87.813a1.093 1.093 0 1 1 0 2.187 1.093 1.093 0 0 1 0-2.187" mask="url(#v)" transform="translate(512 17)"/><path d="m484 0a1 1 0 1 1 0 1.999 1 1 0 0 1 0-1.999m0 9a1 1 0 1 1 .001 1.998 1 1 0 0 1 0-1.998"/><path d="m1.892.813a1.093 1.093 0 1 1 -.002 2.187 1.093 1.093 0 0 1 0-2.187" mask="url(#w)" transform="translate(482 17)"/><path d="m494 0a1 1 0 1 1 0 2 1 1 0 0 1 0-2m0 9a1 1 0 1 1 0 2 1 1 0 0 1 0-2"/><path d="m2.064.813a1.094 1.094 0 1 1 0 2.189 1.094 1.094 0 0 1 0-2.189" mask="url(#x)" transform="translate(492 17)"/><path d="m464 0a1 1 0 1 1 0 1.999 1 1 0 0 1 0-1.999m0 9a1 1 0 1 1 .001 1.998 1 1 0 0 1 0-1.998"/><path d="m2.086.813a1.093 1.093 0 1 1 0 2.187 1.093 1.093 0 0 1 0-2.187" mask="url(#y)" transform="translate(462 17)"/><path d="m475 0a1 1 0 1 1 0 2 1 1 0 0 1 0-2m0 9a1 1 0 1 1 0 2 1 1 0 0 1 0-2"/><path d="m1.259.813a1.094 1.094 0 1 1 0 2.189 1.094 1.094 0 0 1 0-2.189" mask="url(#z)" transform="translate(473 17)"/><path d="m445 0a1 1 0 1 1 0 2 1 1 0 0 1 0-2m0 9a1 1 0 1 1 0 2 1 1 0 0 1 0-2"/><path d="m1.28.813a1.094 1.094 0 1 1 0 2.189 1.094 1.094 0 0 1 0-2.189" mask="url(#A)" transform="translate(443 17)"/><path d="m455 0a1 1 0 1 1 0 1.999 1 1 0 0 1 0-1.999m0 9a1 1 0 1 1 .001 1.998 1 1 0 0 1 0-1.998"/><path d="m1.454.813a1.093 1.093 0 1 1 0 2.187 1.093 1.093 0 0 1 0-2.187" mask="url(#B)" transform="translate(453 17)"/><path d="m425 0a1 1 0 1 1 0 2 1 1 0 0 1 0-2m0 9a1 1 0 1 1 0 2 1 1 0 0 1 0-2"/><path d="m1.475.813a1.094 1.094 0 1 1 0 2.189 1.094 1.094 0 0 1 0-2.189" mask="url(#C)" transform="translate(423 17)"/><path d="m435 0a1 1 0 1 1 0 1.999 1 1 0 0 1 0-1.999m0 9a1 1 0 1 1 .001 1.998 1 1 0 0 1 0-1.998"/><path d="m1.649.813a1.093 1.093 0 1 1 -.001 2.187 1.093 1.093 0 0 1 0-2.187" mask="url(#D)" transform="translate(433 17)"/><path d="m405 0a1 1 0 1 1 0 1.999 1 1 0 0 1 0-1.999m0 9a1 1 0 1 1 .001 1.998 1 1 0 0 1 0-1.998"/><path d="m1.67.813a1.093 1.093 0 1 1 0 2.187 1.093 1.093 0 0 1 0-2.187" mask="url(#E)" transform="translate(403 17)"/><path d="m415 0a1 1 0 1 1 0 2 1 1 0 0 1 0-2m0 9a1 1 0 1 1 0 2 1 1 0 0 1 0-2"/><path d="m1.843.813a1.094 1.094 0 1 1 0 2.189 1.094 1.094 0 0 1 0-2.189" mask="url(#F)" transform="translate(413 17)"/><path d="m385 0a1 1 0 1 1 0 2 1 1 0 0 1 0-2m0 9a1 1 0 1 1 .001 1.999 1 1 0 0 1 -.001-1.999"/><path d="m1.864.813a1.093 1.093 0 1 1 0 2.187 1.093 1.093 0 0 1 0-2.187" mask="url(#G)" transform="translate(383 17)"/><path d="m395 0a1 1 0 1 1 0 2 1 1 0 0 1 0-2m0 9a1 1 0 1 1 0 2 1 1 0 0 1 0-2"/><path d="m2.037.813a1.094 1.094 0 1 1 0 2.189 1.094 1.094 0 0 1 0-2.189" mask="url(#H)" transform="translate(393 17)"/><path d="m365 0a1 1 0 1 1 0 2 1 1 0 0 1 0-2m0 9a1 1 0 1 1 0 2 1 1 0 0 1 0-2"/><path d="m2.059.813a1.094 1.094 0 1 1 0 2.189 1.094 1.094 0 0 1 0-2.189" mask="url(#I)" transform="translate(363 17)"/><path d="m375 0a1 1 0 1 1 0 1.999 1 1 0 0 1 0-1.999m0 9a1 1 0 1 1 .001 1.998 1 1 0 0 1 0-1.998"/><path d="m1.232.813a1.093 1.093 0 1 1 0 2.187 1.093 1.093 0 0 1 0-2.187" mask="url(#J)" transform="translate(374 17)"/><path d="m345 0a1 1 0 1 1 0 1.999 1 1 0 0 1 0-1.999m0 9a1 1 0 1 1 .001 1.998 1 1 0 0 1 0-1.998"/><path d="m1.254.813a1.093 1.093 0 1 1 0 2.187 1.093 1.093 0 0 1 0-2.187" mask="url(#K)" transform="translate(344 17)"/><path d="m356 0a1 1 0 1 1 0 2 1 1 0 0 1 0-2m0 9a1 1 0 1 1 .001 1.999 1 1 0 0 1 -.001-1.999"/><path d="m1.427.813a1.093 1.093 0 1 1 -.001 2.187 1.093 1.093 0 0 1 0-2.187" mask="url(#L)" transform="translate(354 17)"/><path d="m326 0a1 1 0 1 1 0 1.999 1 1 0 0 1 0-1.999m0 9a1 1 0 1 1 .001 1.998 1 1 0 0 1 0-1.998"/><path d="m1.448.813a1.093 1.093 0 1 1 0 2.187 1.093 1.093 0 0 1 0-2.187" mask="url(#M)" transform="translate(324 17)"/><path d="m336 0a1 1 0 1 1 0 2 1 1 0 0 1 0-2m0 9a1 1 0 1 1 0 2 1 1 0 0 1 0-2"/><path d="m1.621.813a1.094 1.094 0 1 1 0 2.189 1.094 1.094 0 0 1 0-2.189" mask="url(#N)" transform="translate(334 17)"/><path d="m306 0a1 1 0 1 1 0 2 1 1 0 0 1 0-2m0 9a1 1 0 1 1 .001 1.999 1 1 0 0 1 -.001-1.999"/><path d="m1.643.813a1.093 1.093 0 1 1 -.001 2.187 1.093 1.093 0 0 1 0-2.187" mask="url(#O)" transform="translate(304 17)"/><path d="m316 0a1 1 0 1 1 0 2 1 1 0 0 1 0-2m0 9a1 1 0 1 1 .001 1.999 1 1 0 0 1 -.001-1.999"/><path d="m1.816.813a1.093 1.093 0 1 1 0 2.187 1.093 1.093 0 0 1 0-2.187" mask="url(#P)" transform="translate(314 17)"/><path d="m286 0a1 1 0 1 1 0 2 1 1 0 0 1 0-2m0 9a1 1 0 1 1 .001 1.999 1 1 0 0 1 -.001-1.999"/><path d="m1.837.813a1.093 1.093 0 1 1 0 2.187 1.093 1.093 0 0 1 0-2.187" mask="url(#Q)" transform="translate(284 17)"/><path d="m296 0a1 1 0 1 1 0 2 1 1 0 0 1 0-2m0 9a1 1 0 1 1 0 2 1 1 0 0 1 0-2"/><path d="m2.01.813a1.094 1.094 0 1 1 0 2.189 1.094 1.094 0 0 1 0-2.189" mask="url(#R)" transform="translate(294 17)"/><path d="m266 0a1 1 0 1 1 0 2 1 1 0 0 1 0-2m0 9a1 1 0 1 1 .001 1.999 1 1 0 0 1 -.001-1.999"/><path d="m2.032.813a1.093 1.093 0 1 1 -.002 2.187 1.093 1.093 0 0 1 0-2.187" mask="url(#S)" transform="translate(264 17)"/><path d="m276 0a1 1 0 1 1 0 2 1 1 0 0 1 0-2m0 9a1 1 0 1 1 .001 1.999 1 1 0 0 1 -.001-1.999"/><path d="m1.205.813a1.093 1.093 0 1 1 0 2.187 1.093 1.093 0 0 1 0-2.187" mask="url(#T)" transform="translate(275 17)"/><path d="m246 0a1 1 0 1 1 0 2 1 1 0 0 1 0-2m0 9a1 1 0 1 1 .001 1.999 1 1 0 0 1 -.001-1.999"/><path d="m1.227.813a1.093 1.093 0 1 1 -.001 2.187 1.093 1.093 0 0 1 0-2.187" mask="url(#U)" transform="translate(245 17)"/><path d="m256 0a1 1 0 1 1 0 2 1 1 0 0 1 0-2m0 9a1 1 0 1 1 .001 1.999 1 1 0 0 1 -.001-1.999"/><path d="m1.4.813a1.093 1.093 0 1 1 0 2.187 1.093 1.093 0 0 1 0-2.187" mask="url(#V)" transform="translate(255 17)"/><path d="m226 0a1 1 0 1 1 0 2 1 1 0 0 1 0-2m0 9a1 1 0 1 1 .001 1.999 1 1 0 0 1 -.001-1.999"/><path d="m1.421.813a1.093 1.093 0 1 1 0 2.187 1.093 1.093 0 0 1 0-2.187" mask="url(#W)" transform="translate(225 17)"/><path d="m237 0a1 1 0 1 1 0 2 1 1 0 0 1 0-2m0 9a1 1 0 1 1 .001 1.999 1 1 0 0 1 -.001-1.999"/><path d="m1.594.813a1.093 1.093 0 1 1 0 2.187 1.093 1.093 0 0 1 0-2.187" mask="url(#X)" transform="translate(235 17)"/><path d="m208 0a1 1 0 1 1 0 2 1 1 0 0 1 0-2m0 9a1 1 0 1 1 .001 1.999 1 1 0 0 1 -.001-1.999"/><path d="m1.238.813a1.093 1.093 0 1 1 0 2.187 1.093 1.093 0 0 1 0-2.187" mask="url(#Y)" transform="translate(207 17)"/><path d="m217 0a1 1 0 1 1 0 2 1 1 0 0 1 0-2m0 9a1 1 0 1 1 .001 1.999 1 1 0 0 1 -.001-1.999"/><path d="m1.79.813a1.093 1.093 0 1 1 -.003 2.187 1.093 1.093 0 0 1 .003-2.187" mask="url(#Z)" transform="translate(215 17)"/><path d="m188 0a1 1 0 1 1 0 2 1 1 0 0 1 0-2m0 9a1 1 0 1 1 .001 1.999 1 1 0 0 1 -.001-1.999"/><path d="m1.163.813a1.093 1.093 0 1 1 -.001 2.187 1.093 1.093 0 0 1 0-2.187" mask="url(#aa)" transform="translate(187 17)"/><path d="m198 0a1 1 0 1 1 0 1.999 1 1 0 0 1 0-1.999m0 9a1 1 0 1 1 .001 1.998 1 1 0 0 1 0-1.998"/><path d="m2.066.813a1.093 1.093 0 1 1 -.001 2.187 1.093 1.093 0 0 1 0-2.187" mask="url(#ab)" transform="translate(196 17)"/><path d="m168 0a1 1 0 1 1 0 2 1 1 0 0 1 0-2m0 9a1 1 0 1 1 .001 1.999 1 1 0 0 1 -.001-1.999"/><path d="m1.357.813a1.093 1.093 0 1 1 0 2.187 1.093 1.093 0 0 1 0-2.187" mask="url(#ac)" transform="translate(167 17)"/><path d="m178 0a1 1 0 1 1 0 2 1 1 0 0 1 0-2m0 9a1 1 0 1 1 .001 1.999 1 1 0 0 1 -.001-1.999"/><path d="m1.26.813a1.093 1.093 0 1 1 0 2.187 1.093 1.093 0 0 1 0-2.187" mask="url(#ad)" transform="translate(177 17)"/><path d="m149 0a1 1 0 1 1 0 2 1 1 0 0 1 0-2m0 9a1 1 0 1 1 .001 1.999 1 1 0 0 1 -.001-1.999"/><path d="m1.093.813a1.093 1.093 0 1 1 0 2.187 1.093 1.093 0 0 1 0-2.187" mask="url(#ae)" transform="translate(148 17)"/><path d="m159 0a1 1 0 1 1 0 1.999 1 1 0 0 1 0-1.999m0 9a1 1 0 1 1 .001 1.998 1 1 0 0 1 0-1.998"/><path d="m1.996.813a1.093 1.093 0 1 1 -.001 2.187 1.093 1.093 0 0 1 0-2.187" mask="url(#af)" transform="translate(157 17)"/><path d="m129 0a1 1 0 1 1 0 2 1 1 0 0 1 0-2m0 9a1 1 0 1 1 .001 1.999 1 1 0 0 1 -.001-1.999"/><path d="m2.017.813a1.093 1.093 0 1 1 -.001 2.187 1.093 1.093 0 0 1 0-2.187" mask="url(#ag)" transform="translate(127 17)"/><path d="m139 0a1 1 0 1 1 0 2 1 1 0 0 1 0-2m0 9a1 1 0 1 1 .001 1.999 1 1 0 0 1 -.001-1.999"/><path d="m1.19.813a1.093 1.093 0 1 1 0 2.187 1.093 1.093 0 0 1 0-2.187" mask="url(#ah)" transform="translate(138 17)"/><path d="m109 0a1 1 0 1 1 0 2 1 1 0 0 1 0-2m0 9a1 1 0 1 1 .001 1.999 1 1 0 0 1 -.001-1.999"/><path d="m1.212.813a1.093 1.093 0 1 1 -.002 2.187 1.093 1.093 0 0 1 0-2.187" mask="url(#ai)" transform="translate(108 17)"/><path d="m119 0a1 1 0 1 1 0 2 1 1 0 0 1 0-2m0 9a1 1 0 1 1 0 2 1 1 0 0 1 0-2"/><path d="m1.114.813a1.094 1.094 0 1 1 0 2.189 1.094 1.094 0 0 1 0-2.189" mask="url(#aj)" transform="translate(118 17)"/><path d="m80 0a1 1 0 1 1 0 1.999 1 1 0 0 1 0-1.999m0 9a1 1 0 1 1 .001 1.998 1 1 0 0 1 0-1.998"/><path d="m1.774.813a1.093 1.093 0 1 1 0 2.187 1.093 1.093 0 0 1 0-2.187" mask="url(#ak)" transform="translate(78 17)"/><path d="m100 0a1 1 0 1 1 0 2 1 1 0 0 1 0-2m0 9a1 1 0 1 1 .001 1.999 1 1 0 0 1 -.001-1.999"/><path d="m1.865.813a1.093 1.093 0 1 1 0 2.187 1.093 1.093 0 0 1 0-2.187" mask="url(#al)" transform="translate(98 17)"/><path d="m90 0a1 1 0 1 1 0 2 1 1 0 0 1 0-2m0 9a1 1 0 1 1 .001 1.999 1 1 0 0 1 -.001-1.999"/><path d="m1.676.813a1.093 1.093 0 1 1 0 2.187 1.093 1.093 0 0 1 0-2.187" mask="url(#am)" transform="translate(88 17)"/><path d="m703 0a1 1 0 1 1 0 2 1 1 0 0 1 0-2m-10 0a1 1 0 1 1 0 2 1 1 0 0 1 0-2m0 9a1 1 0 1 1 .001 1.999 1 1 0 0 1 -.001-1.999"/><path d="m2.066.813a1.093 1.093 0 1 1 -.001 2.187 1.093 1.093 0 0 1 0-2.187" mask="url(#an)" transform="translate(691 17)"/><path d="m683 0a1 1 0 1 1 0 2 1 1 0 0 1 0-2m0 9a1 1 0 1 1 .001 1.999 1 1 0 0 1 -.001-1.999"/><path d="m1.163.813a1.093 1.093 0 1 1 0 2.187 1.093 1.093 0 0 1 0-2.187" mask="url(#ao)" transform="translate(682 17)"/><path d="m673 0a1 1 0 1 1 0 2 1 1 0 0 1 0-2m0 9a1 1 0 1 1 .001 1.999 1 1 0 0 1 -.001-1.999"/><path d="m1.26.813a1.093 1.093 0 1 1 0 2.187 1.093 1.093 0 0 1 0-2.187" mask="url(#ap)" transform="translate(672 17)"/><path d="m664 0a1 1 0 1 1 0 2 1 1 0 0 1 0-2m0 9a1 1 0 1 1 .001 1.999 1 1 0 0 1 -.001-1.999"/><path d="m1.899.813a1.093 1.093 0 1 1 -.001 2.187 1.093 1.093 0 0 1 0-2.187" mask="url(#aq)" transform="translate(662 17)"/><path d="m654 0a1 1 0 1 1 0 2 1 1 0 0 1 0-2m0 9a1 1 0 1 1 .001 1.999 1 1 0 0 1 -.001-1.999"/><path d="m1.996.813a1.093 1.093 0 1 1 -.001 2.187 1.093 1.093 0 0 1 0-2.187" mask="url(#ar)" transform="translate(652 17)"/><path d="m644 0a1 1 0 1 1 0 2 1 1 0 0 1 0-2m0 9a1 1 0 1 1 .001 1.999 1 1 0 0 1 -.001-1.999"/><path d="m1.093.813a1.093 1.093 0 1 1 0 2.187 1.093 1.093 0 0 1 0-2.187" mask="url(#as)" transform="translate(643 17)"/><path d="m713 0a1 1 0 1 1 0 2 1 1 0 0 1 0-2"/><path d="m1.968.813a1.093 1.093 0 1 1 0 2.187 1.093 1.093 0 0 1 0-2.187" mask="url(#at)" transform="translate(701 17)"/><path d="m703 9a1 1 0 1 1 .001 1.999 1 1 0 0 1 -.001-1.999"/><path d="m1.142.813a1.093 1.093 0 1 1 -.002 2.187 1.093 1.093 0 0 1 0-2.187" mask="url(#au)" transform="translate(712 17)"/><path d="m713 9a1 1 0 1 1 .001 1.999 1 1 0 0 1 -.001-1.999m474-9a1 1 0 1 1 0 1.999 1 1 0 0 1 0-1.999m0 9a1 1 0 1 1 .001 1.998 1 1 0 0 1 0-1.998"/><path d="m1.308.813a1.093 1.093 0 1 1 -.001 2.187 1.093 1.093 0 0 1 0-2.187" mask="url(#av)" transform="translate(1185 17)"/><path d="m1256 0a1 1 0 1 1 0 2 1 1 0 0 1 0-2m0 9a1 1 0 1 1 0 2 1 1 0 0 1 0-2"/><path d="m1.356.813a1.094 1.094 0 1 1 0 2.189 1.094 1.094 0 0 1 0-2.189" mask="url(#aw)" transform="translate(1254 17)"/><path d="m1246 0a1 1 0 1 1 0 2 1 1 0 0 1 0-2m0 9a1 1 0 1 1 0 2 1 1 0 0 1 0-2"/><path d="m1.453.813a1.094 1.094 0 1 1 0 2.189 1.094 1.094 0 0 1 0-2.189" mask="url(#ax)" transform="translate(1244 17)"/><path d="m1236 0a1 1 0 1 1 0 1.999 1 1 0 0 1 0-1.999m0 9a1 1 0 1 1 .001 1.998 1 1 0 0 1 0-1.998"/><path d="m1.55.813a1.093 1.093 0 1 1 0 2.187 1.093 1.093 0 0 1 0-2.187" mask="url(#ay)" transform="translate(1234 17)"/><path d="m1226 0a1 1 0 1 1 0 2 1 1 0 0 1 0-2m0 9a1 1 0 1 1 0 2 1 1 0 0 1 0-2"/><path d="m1.648.813a1.094 1.094 0 1 1 0 2.189 1.094 1.094 0 0 1 0-2.189" mask="url(#az)" transform="translate(1224 17)"/><path d="m1217 0a1 1 0 1 1 0 2 1 1 0 0 1 0-2m0 9a1 1 0 1 1 .001 1.999 1 1 0 0 1 -.001-1.999"/><path d="m1.286.813a1.093 1.093 0 1 1 0 2.187 1.093 1.093 0 0 1 0-2.187" mask="url(#aA)" transform="translate(1216 17)"/><path d="m1207 0a1 1 0 1 1 0 1.999 1 1 0 0 1 0-1.999m0 9a1 1 0 1 1 .001 1.998 1 1 0 0 1 0-1.998"/><path d="m1.384.813a1.093 1.093 0 1 1 0 2.187 1.093 1.093 0 0 1 0-2.187" mask="url(#aB)" transform="translate(1205 17)"/><path d="m1197 0a1 1 0 1 1 0 2 1 1 0 0 1 0-2m0 9a1 1 0 1 1 0 2 1 1 0 0 1 0-2"/><path d="m1.48.813a1.094 1.094 0 1 1 0 2.189 1.094 1.094 0 0 1 0-2.189" mask="url(#aC)" transform="translate(1195 17)"/><path d="m1277 0a1 1 0 1 1 0 1.999 1 1 0 0 1 0-1.999m0 9a1 1 0 1 1 .001 1.998 1 1 0 0 1 0-1.998"/><path d="m2.022.813a1.093 1.093 0 1 1 -.002 2.187 1.093 1.093 0 0 1 0-2.187" mask="url(#aD)" transform="translate(1275 17)"/><path d="m1267 0a1 1 0 1 1 0 2 1 1 0 0 1 0-2m0 9a1 1 0 1 1 0 2 1 1 0 0 1 0-2"/><path d="m1.118.813a1.094 1.094 0 1 1 0 2.189 1.094 1.094 0 0 1 0-2.189" mask="url(#aE)" transform="translate(1266 17)"/><path d="m1167 0a1 1 0 1 1 0 2 1 1 0 0 1 0-2m0 9a1 1 0 1 1 0 2 1 1 0 0 1 0-2"/><path d="m1.502.813a1.094 1.094 0 1 1 0 2.189 1.094 1.094 0 0 1 0-2.189" mask="url(#aF)" transform="translate(1165 17)"/><path d="m1177 0a1 1 0 1 1 0 1.999 1 1 0 0 1 0-1.999m0 9a1 1 0 1 1 .001 1.998 1 1 0 0 1 0-1.998"/><path d="m1.676.813a1.093 1.093 0 1 1 0 2.187 1.093 1.093 0 0 1 0-2.187" mask="url(#aG)" transform="translate(1175 17)"/><path d="m1147 0a1 1 0 1 1 0 2 1 1 0 0 1 0-2m0 9a1 1 0 1 1 0 2 1 1 0 0 1 0-2"/><path d="m1.696.813a1.094 1.094 0 1 1 0 2.189 1.094 1.094 0 0 1 0-2.189" mask="url(#aH)" transform="translate(1145 17)"/><path d="m1157 0a1 1 0 1 1 0 1.999 1 1 0 0 1 0-1.999m0 9a1 1 0 1 1 .001 1.998 1 1 0 0 1 0-1.998"/><path d="m1.87.813a1.093 1.093 0 1 1 0 2.187 1.093 1.093 0 0 1 0-2.187" mask="url(#aI)" transform="translate(1155 17)"/><path d="m1127 0a1 1 0 1 1 0 1.999 1 1 0 0 1 0-1.999m0 9a1 1 0 1 1 .001 1.998 1 1 0 0 1 0-1.998"/><path d="m1.892.813a1.093 1.093 0 1 1 -.002 2.187 1.093 1.093 0 0 1 0-2.187" mask="url(#aJ)" transform="translate(1125 17)"/><path d="m1137 0a1 1 0 1 1 0 2 1 1 0 0 1 0-2m0 9a1 1 0 1 1 0 2 1 1 0 0 1 0-2"/><path d="m2.064.813a1.094 1.094 0 1 1 0 2.189 1.094 1.094 0 0 1 0-2.189" mask="url(#aK)" transform="translate(1135 17)"/><path d="m1107 0a1 1 0 1 1 0 1.999 1 1 0 0 1 0-1.999m0 9a1 1 0 1 1 .001 1.998 1 1 0 0 1 0-1.998"/><path d="m2.086.813a1.093 1.093 0 1 1 0 2.187 1.093 1.093 0 0 1 0-2.187" mask="url(#aL)" transform="translate(1105 17)"/><path d="m1118 0a1 1 0 1 1 0 2 1 1 0 0 1 0-2m0 9a1 1 0 1 1 0 2 1 1 0 0 1 0-2"/><path d="m1.259.813a1.094 1.094 0 1 1 0 2.189 1.094 1.094 0 0 1 0-2.189" mask="url(#aM)" transform="translate(1116 17)"/><path d="m1088 0a1 1 0 1 1 0 2 1 1 0 0 1 0-2m0 9a1 1 0 1 1 0 2 1 1 0 0 1 0-2"/><path d="m1.28.813a1.094 1.094 0 1 1 0 2.189 1.094 1.094 0 0 1 0-2.189" mask="url(#aN)" transform="translate(1086 17)"/><path d="m1098 0a1 1 0 1 1 0 1.999 1 1 0 0 1 0-1.999m0 9a1 1 0 1 1 .001 1.998 1 1 0 0 1 0-1.998"/><path d="m1.454.813a1.093 1.093 0 1 1 0 2.187 1.093 1.093 0 0 1 0-2.187" mask="url(#aO)" transform="translate(1096 17)"/><path d="m1068 0a1 1 0 1 1 0 2 1 1 0 0 1 0-2m0 9a1 1 0 1 1 0 2 1 1 0 0 1 0-2"/><path d="m1.475.813a1.094 1.094 0 1 1 0 2.189 1.094 1.094 0 0 1 0-2.189" mask="url(#aP)" transform="translate(1066 17)"/><path d="m1078 0a1 1 0 1 1 0 1.999 1 1 0 0 1 0-1.999m0 9a1 1 0 1 1 .001 1.998 1 1 0 0 1 0-1.998"/><path d="m1.649.813a1.093 1.093 0 1 1 -.001 2.187 1.093 1.093 0 0 1 0-2.187" mask="url(#aQ)" transform="translate(1076 17)"/><path d="m1048 0a1 1 0 1 1 0 1.999 1 1 0 0 1 0-1.999m0 9a1 1 0 1 1 .001 1.998 1 1 0 0 1 0-1.998"/><path d="m1.67.813a1.093 1.093 0 1 1 0 2.187 1.093 1.093 0 0 1 0-2.187" mask="url(#aR)" transform="translate(1046 17)"/><path d="m1058 0a1 1 0 1 1 0 2 1 1 0 0 1 0-2m0 9a1 1 0 1 1 0 2 1 1 0 0 1 0-2"/><path d="m1.843.813a1.094 1.094 0 1 1 0 2.189 1.094 1.094 0 0 1 0-2.189" mask="url(#aS)" transform="translate(1056 17)"/><path d="m1028 0a1 1 0 1 1 0 2 1 1 0 0 1 0-2m0 9a1 1 0 1 1 .001 1.999 1 1 0 0 1 -.001-1.999"/><path d="m1.864.813a1.093 1.093 0 1 1 0 2.187 1.093 1.093 0 0 1 0-2.187" mask="url(#aT)" transform="translate(1026 17)"/><path d="m1038 0a1 1 0 1 1 0 2 1 1 0 0 1 0-2m0 9a1 1 0 1 1 0 2 1 1 0 0 1 0-2"/><path d="m2.037.813a1.094 1.094 0 1 1 0 2.189 1.094 1.094 0 0 1 0-2.189" mask="url(#aU)" transform="translate(1036 17)"/><path d="m1008 0a1 1 0 1 1 0 2 1 1 0 0 1 0-2m0 9a1 1 0 1 1 0 2 1 1 0 0 1 0-2"/><path d="m2.059.813a1.094 1.094 0 1 1 0 2.189 1.094 1.094 0 0 1 0-2.189" mask="url(#aV)" transform="translate(1006 17)"/><path d="m1018 0a1 1 0 1 1 0 1.999 1 1 0 0 1 0-1.999m0 9a1 1 0 1 1 .001 1.998 1 1 0 0 1 0-1.998"/><path d="m1.232.813a1.093 1.093 0 1 1 0 2.187 1.093 1.093 0 0 1 0-2.187" mask="url(#aW)" transform="translate(1017 17)"/><path d="m988 0a1 1 0 1 1 0 1.999 1 1 0 0 1 0-1.999m0 9a1 1 0 1 1 .001 1.998 1 1 0 0 1 0-1.998"/><path d="m1.254.813a1.093 1.093 0 1 1 0 2.187 1.093 1.093 0 0 1 0-2.187" mask="url(#aX)" transform="translate(987 17)"/><path d="m999 0a1 1 0 1 1 0 2 1 1 0 0 1 0-2m0 9a1 1 0 1 1 .001 1.999 1 1 0 0 1 -.001-1.999"/><path d="m1.427.813a1.093 1.093 0 1 1 -.001 2.187 1.093 1.093 0 0 1 0-2.187" mask="url(#aY)" transform="translate(997 17)"/><path d="m969 0a1 1 0 1 1 0 1.999 1 1 0 0 1 0-1.999m0 9a1 1 0 1 1 .001 1.998 1 1 0 0 1 0-1.998"/><path d="m1.448.813a1.093 1.093 0 1 1 0 2.187 1.093 1.093 0 0 1 0-2.187" mask="url(#aZ)" transform="translate(967 17)"/><path d="m979 0a1 1 0 1 1 0 2 1 1 0 0 1 0-2m0 9a1 1 0 1 1 0 2 1 1 0 0 1 0-2"/><path d="m1.621.813a1.094 1.094 0 1 1 0 2.189 1.094 1.094 0 0 1 0-2.189" mask="url(#a0)" transform="translate(977 17)"/><path d="m949 0a1 1 0 1 1 0 2 1 1 0 0 1 0-2m0 9a1 1 0 1 1 .001 1.999 1 1 0 0 1 -.001-1.999"/><path d="m1.643.813a1.093 1.093 0 1 1 -.001 2.187 1.093 1.093 0 0 1 0-2.187" mask="url(#a1)" transform="translate(947 17)"/><path d="m959 0a1 1 0 1 1 0 2 1 1 0 0 1 0-2m0 9a1 1 0 1 1 .001 1.999 1 1 0 0 1 -.001-1.999"/><path d="m1.816.813a1.093 1.093 0 1 1 0 2.187 1.093 1.093 0 0 1 0-2.187" mask="url(#a2)" transform="translate(957 17)"/><path d="m929 0a1 1 0 1 1 0 2 1 1 0 0 1 0-2m0 9a1 1 0 1 1 .001 1.999 1 1 0 0 1 -.001-1.999"/><path d="m1.837.813a1.093 1.093 0 1 1 0 2.187 1.093 1.093 0 0 1 0-2.187" mask="url(#a3)" transform="translate(927 17)"/><path d="m939 0a1 1 0 1 1 0 2 1 1 0 0 1 0-2m0 9a1 1 0 1 1 0 2 1 1 0 0 1 0-2"/><path d="m2.01.813a1.094 1.094 0 1 1 0 2.189 1.094 1.094 0 0 1 0-2.189" mask="url(#a4)" transform="translate(937 17)"/><path d="m909 0a1 1 0 1 1 0 2 1 1 0 0 1 0-2m0 9a1 1 0 1 1 .001 1.999 1 1 0 0 1 -.001-1.999"/><path d="m2.032.813a1.093 1.093 0 1 1 -.002 2.187 1.093 1.093 0 0 1 0-2.187" mask="url(#a5)" transform="translate(907 17)"/><path d="m919 0a1 1 0 1 1 0 2 1 1 0 0 1 0-2m0 9a1 1 0 1 1 .001 1.999 1 1 0 0 1 -.001-1.999"/><path d="m1.205.813a1.093 1.093 0 1 1 0 2.187 1.093 1.093 0 0 1 0-2.187" mask="url(#a6)" transform="translate(918 17)"/><path d="m889 0a1 1 0 1 1 0 2 1 1 0 0 1 0-2m0 9a1 1 0 1 1 .001 1.999 1 1 0 0 1 -.001-1.999"/><path d="m1.227.813a1.093 1.093 0 1 1 -.001 2.187 1.093 1.093 0 0 1 0-2.187" mask="url(#a7)" transform="translate(888 17)"/><path d="m899 0a1 1 0 1 1 0 2 1 1 0 0 1 0-2m0 9a1 1 0 1 1 .001 1.999 1 1 0 0 1 -.001-1.999"/><path d="m1.4.813a1.093 1.093 0 1 1 0 2.187 1.093 1.093 0 0 1 0-2.187" mask="url(#a8)" transform="translate(898 17)"/><path d="m869 0a1 1 0 1 1 0 2 1 1 0 0 1 0-2m0 9a1 1 0 1 1 .001 1.999 1 1 0 0 1 -.001-1.999"/><path d="m1.421.813a1.093 1.093 0 1 1 0 2.187 1.093 1.093 0 0 1 0-2.187" mask="url(#a9)" transform="translate(868 17)"/><path d="m880 0a1 1 0 1 1 0 2 1 1 0 0 1 0-2m0 9a1 1 0 1 1 .001 1.999 1 1 0 0 1 -.001-1.999"/><path d="m1.594.813a1.093 1.093 0 1 1 0 2.187 1.093 1.093 0 0 1 0-2.187" mask="url(#ba)" transform="translate(878 17)"/><path d="m851 0a1 1 0 1 1 0 2 1 1 0 0 1 0-2m0 9a1 1 0 1 1 .001 1.999 1 1 0 0 1 -.001-1.999"/><path d="m1.238.813a1.093 1.093 0 1 1 0 2.187 1.093 1.093 0 0 1 0-2.187" mask="url(#bb)" transform="translate(850 17)"/><path d="m860 0a1 1 0 1 1 0 2 1 1 0 0 1 0-2m0 9a1 1 0 1 1 .001 1.999 1 1 0 0 1 -.001-1.999"/><path d="m1.79.813a1.093 1.093 0 1 1 -.003 2.187 1.093 1.093 0 0 1 .003-2.187" mask="url(#bc)" transform="translate(858 17)"/><path d="m831 0a1 1 0 1 1 0 2 1 1 0 0 1 0-2m0 9a1 1 0 1 1 .001 1.999 1 1 0 0 1 -.001-1.999"/><path d="m1.163.813a1.093 1.093 0 1 1 -.001 2.187 1.093 1.093 0 0 1 0-2.187" mask="url(#bd)" transform="translate(830 17)"/><path d="m841 0a1 1 0 1 1 0 1.999 1 1 0 0 1 0-1.999m0 9a1 1 0 1 1 .001 1.998 1 1 0 0 1 0-1.998"/><path d="m2.066.813a1.093 1.093 0 1 1 -.001 2.187 1.093 1.093 0 0 1 0-2.187" mask="url(#be)" transform="translate(839 17)"/><path d="m811 0a1 1 0 1 1 0 2 1 1 0 0 1 0-2m0 9a1 1 0 1 1 .001 1.999 1 1 0 0 1 -.001-1.999"/><path d="m1.357.813a1.093 1.093 0 1 1 0 2.187 1.093 1.093 0 0 1 0-2.187" mask="url(#bf)" transform="translate(810 17)"/><path d="m821 0a1 1 0 1 1 0 2 1 1 0 0 1 0-2m0 9a1 1 0 1 1 .001 1.999 1 1 0 0 1 -.001-1.999"/><path d="m1.26.813a1.093 1.093 0 1 1 0 2.187 1.093 1.093 0 0 1 0-2.187" mask="url(#bg)" transform="translate(820 17)"/><path d="m792 0a1 1 0 1 1 0 2 1 1 0 0 1 0-2m0 9a1 1 0 1 1 .001 1.999 1 1 0 0 1 -.001-1.999"/><path d="m1.093.813a1.093 1.093 0 1 1 0 2.187 1.093 1.093 0 0 1 0-2.187" mask="url(#bh)" transform="translate(791 17)"/><path d="m802 0a1 1 0 1 1 0 1.999 1 1 0 0 1 0-1.999m0 9a1 1 0 1 1 .001 1.998 1 1 0 0 1 0-1.998"/><path d="m1.996.813a1.093 1.093 0 1 1 -.001 2.187 1.093 1.093 0 0 1 0-2.187" mask="url(#bi)" transform="translate(800 17)"/><path d="m772 0a1 1 0 1 1 0 2 1 1 0 0 1 0-2m0 9a1 1 0 1 1 .001 1.999 1 1 0 0 1 -.001-1.999"/><path d="m2.017.813a1.093 1.093 0 1 1 -.001 2.187 1.093 1.093 0 0 1 0-2.187" mask="url(#bj)" transform="translate(770 17)"/><path d="m782 0a1 1 0 1 1 0 2 1 1 0 0 1 0-2m0 9a1 1 0 1 1 .001 1.999 1 1 0 0 1 -.001-1.999"/><path d="m1.19.813a1.093 1.093 0 1 1 0 2.187 1.093 1.093 0 0 1 0-2.187" mask="url(#bk)" transform="translate(781 17)"/><path d="m752 0a1 1 0 1 1 0 2 1 1 0 0 1 0-2m0 9a1 1 0 1 1 .001 1.999 1 1 0 0 1 -.001-1.999"/><path d="m1.212.813a1.093 1.093 0 1 1 -.002 2.187 1.093 1.093 0 0 1 0-2.187" mask="url(#bl)" transform="translate(751 17)"/><path d="m762 0a1 1 0 1 1 0 2 1 1 0 0 1 0-2m0 9a1 1 0 1 1 0 2 1 1 0 0 1 0-2"/><path d="m1.114.813a1.094 1.094 0 1 1 0 2.189 1.094 1.094 0 0 1 0-2.189" mask="url(#bm)" transform="translate(761 17)"/><path d="m723 0a1 1 0 1 1 0 1.999 1 1 0 0 1 0-1.999m0 9a1 1 0 1 1 .001 1.998 1 1 0 0 1 0-1.998"/><path d="m1.774.813a1.093 1.093 0 1 1 0 2.187 1.093 1.093 0 0 1 0-2.187" mask="url(#bn)" transform="translate(721 17)"/><path d="m743 0a1 1 0 1 1 0 2 1 1 0 0 1 0-2m0 9a1 1 0 1 1 .001 1.999 1 1 0 0 1 -.001-1.999"/><path d="m1.865.813a1.093 1.093 0 1 1 0 2.187 1.093 1.093 0 0 1 0-2.187" mask="url(#bo)" transform="translate(741 17)"/><path d="m733 0a1 1 0 1 1 0 2 1 1 0 0 1 0-2m0 9a1 1 0 1 1 .001 1.999 1 1 0 0 1 -.001-1.999"/><path d="m1.676.813a1.093 1.093 0 1 1 0 2.187 1.093 1.093 0 0 1 0-2.187" mask="url(#bp)" transform="translate(731 17)"/></g></svg>