<svg height="48" viewBox="0 0 1279 48" width="1279" xmlns="http://www.w3.org/2000/svg" xmlns:xlink="http://www.w3.org/1999/xlink"><mask id="a" fill="#fff"><path d="m.973.813h2.186v2.187h-2.186z" fill="none"/></mask><mask id="b" fill="#fff"><path d="m.07.813h2.186v2.187h-2.186z" fill="none"/></mask><mask id="c" fill="#fff"><path d="m.167.813h2.186v2.187h-2.186z" fill="none"/></mask><mask id="d" fill="#fff"><path d="m.805.813h2.186v2.187h-2.186z" fill="none"/></mask><mask id="e" fill="#fff"><path d="m.903.813h2.186v2.187h-2.186z" fill="none"/></mask><mask id="f" fill="#fff"><path d="m0 .813h2.186v2.187h-2.186z" fill="none"/></mask><mask id="g" fill="#fff"><path d="m.875.813h2.186v2.187h-2.186z" fill="none"/></mask><mask id="h" fill="#fff"><path d="m.049.813h2.186v2.187h-2.186z" fill="none"/></mask><mask id="i" fill="#fff"><path d="m.214.813h2.186v2.187h-2.186z" fill="none"/></mask><mask id="j" fill="#fff"><path d="m.263.813h2.187v2.187h-2.187z" fill="none"/></mask><mask id="k" fill="#fff"><path d="m.36.813h2.187v2.187h-2.187z" fill="none"/></mask><mask id="l" fill="#fff"><path d="m.457.813h2.187v2.187h-2.187z" fill="none"/></mask><mask id="m" fill="#fff"><path d="m.555.813h2.187v2.187h-2.187z" fill="none"/></mask><mask id="n" fill="#fff"><path d="m.193.813h2.187v2.187h-2.187z" fill="none"/></mask><mask id="o" fill="#fff"><path d="m.29.813h2.187v2.187h-2.187z" fill="none"/></mask><mask id="p" fill="#fff"><path d="m.388.813h2.187v2.187h-2.187z" fill="none"/></mask><mask id="q" fill="#fff"><path d="m.928.813h2.187v2.187h-2.187z" fill="none"/></mask><mask id="r" fill="#fff"><path d="m.025.813h2.187v2.187h-2.187z" fill="none"/></mask><mask id="s" fill="#fff"><path d="m.409.813h2.187v2.187h-2.187z" fill="none"/></mask><mask id="t" fill="#fff"><path d="m.582.813h2.187v2.187h-2.187z" fill="none"/></mask><mask id="u" fill="#fff"><path d="m.603.813h2.187v2.187h-2.187z" fill="none"/></mask><mask id="v" fill="#fff"><path d="m.776.813h2.187v2.187h-2.187z" fill="none"/></mask><mask id="w" fill="#fff"><path d="m.798.813h2.187v2.187h-2.187z" fill="none"/></mask><mask id="x" fill="#fff"><path d="m.972.813h2.187v2.187h-2.189z" fill="none"/></mask><mask id="y" fill="#fff"><path d="m.992.813h2.187v2.187h-2.187z" fill="none"/></mask><mask id="z" fill="#fff"><path d="m.166.813h2.187v2.187h-2.187z" fill="none"/></mask><mask id="A" fill="#fff"><path d="m.187.813h2.187v2.187h-2.187z" fill="none"/></mask><mask id="B" fill="#fff"><path d="m.36.813h2.187v2.187h-2.187z" fill="none"/></mask><mask id="C" fill="#fff"><path d="m.382.813h2.187v2.187h-2.187z" fill="none"/></mask><mask id="D" fill="#fff"><path d="m.554.813h2.188v2.187h-2.189z" fill="none"/></mask><mask id="E" fill="#fff"><path d="m.576.813h2.187v2.187h-2.187z" fill="none"/></mask><mask id="F" fill="#fff"><path d="m.75.813h2.187v2.187h-2.187z" fill="none"/></mask><mask id="G" fill="#fff"><path d="m.771.813h2.186v2.187h-2.186z" fill="none"/></mask><mask id="H" fill="#fff"><path d="m.944.813h2.187v2.187h-2.187z" fill="none"/></mask><mask id="I" fill="#fff"><path d="m.966.813h2.187v2.187h-2.187z" fill="none"/></mask><mask id="J" fill="#fff"><path d="m.139.813h2.186v2.187h-2.186z" fill="none"/></mask><mask id="K" fill="#fff"><path d="m.16.813h2.187v2.187h-2.187z" fill="none"/></mask><mask id="L" fill="#fff"><path d="m.334.813h2.186v2.187h-2.186z" fill="none"/></mask><mask id="M" fill="#fff"><path d="m.354.813h2.187v2.187h-2.187z" fill="none"/></mask><mask id="N" fill="#fff"><path d="m.528.813h2.187v2.187h-2.187z" fill="none"/></mask><mask id="O" fill="#fff"><path d="m.55.813h2.186v2.187h-2.186z" fill="none"/></mask><mask id="P" fill="#fff"><path d="m.723.813h2.186v2.187h-2.186z" fill="none"/></mask><mask id="Q" fill="#fff"><path d="m.745.813h2.185v2.187h-2.186z" fill="none"/></mask><mask id="R" fill="#fff"><path d="m.917.813h2.187v2.187h-2.187z" fill="none"/></mask><mask id="S" fill="#fff"><path d="m.939.813h2.186v2.187h-2.186z" fill="none"/></mask><mask id="T" fill="#fff"><path d="m.112.813h2.186v2.187h-2.186z" fill="none"/></mask><mask id="U" fill="#fff"><path d="m.134.813h2.186v2.187h-2.186z" fill="none"/></mask><mask id="V" fill="#fff"><path d="m.307.813h2.186v2.187h-2.186z" fill="none"/></mask><mask id="W" fill="#fff"><path d="m.328.813h2.186v2.187h-2.186z" fill="none"/></mask><mask id="X" fill="#fff"><path d="m.501.813h2.186v2.187h-2.186z" fill="none"/></mask><mask id="Y" fill="#fff"><path d="m.145.813h2.186v2.187h-2.186z" fill="none"/></mask><mask id="Z" fill="#fff"><path d="m.696.813h2.186v2.187h-2.186z" fill="none"/></mask><mask id="aa" fill="#fff"><path d="m.07.813h2.186v2.187h-2.186z" fill="none"/></mask><mask id="ab" fill="#fff"><path d="m.972.813h2.187v2.187h-2.189z" fill="none"/></mask><mask id="ac" fill="#fff"><path d="m.264.813h2.186v2.187h-2.186z" fill="none"/></mask><mask id="ad" fill="#fff"><path d="m.167.813h2.186v2.187h-2.186z" fill="none"/></mask><mask id="ae" fill="#fff"><path d="m0 .813h2.186v2.187h-2.186z" fill="none"/></mask><mask id="af" fill="#fff"><path d="m.902.813h2.187v2.187h-2.187z" fill="none"/></mask><mask id="ag" fill="#fff"><path d="m.924.813h2.186v2.187h-2.186z" fill="none"/></mask><mask id="ah" fill="#fff"><path d="m.097.813h2.186v2.187h-2.186z" fill="none"/></mask><mask id="ai" fill="#fff"><path d="m.118.813h2.187v2.187h-2.187z" fill="none"/></mask><mask id="aj" fill="#fff"><path d="m.02.813h2.188v2.187h-2.188z" fill="none"/></mask><mask id="ak" fill="#fff"><path d="m.68.813h2.187v2.187h-2.187z" fill="none"/></mask><mask id="al" fill="#fff"><path d="m.772.813h2.186v2.187h-2.186z" fill="none"/></mask><mask id="am" fill="#fff"><path d="m.583.813h2.187v2.187h-2.187z" fill="none"/></mask><mask id="an" fill="#fff"><path d="m.973.813h2.186v2.187h-2.186z" fill="none"/></mask><mask id="ao" fill="#fff"><path d="m.07.813h2.186v2.187h-2.186z" fill="none"/></mask><mask id="ap" fill="#fff"><path d="m.167.813h2.186v2.187h-2.186z" fill="none"/></mask><mask id="aq" fill="#fff"><path d="m.805.813h2.186v2.187h-2.186z" fill="none"/></mask><mask id="ar" fill="#fff"><path d="m.903.813h2.186v2.187h-2.186z" fill="none"/></mask><mask id="as" fill="#fff"><path d="m0 .813h2.186v2.187h-2.186z" fill="none"/></mask><mask id="at" fill="#fff"><path d="m.875.813h2.186v2.187h-2.186z" fill="none"/></mask><mask id="au" fill="#fff"><path d="m.049.813h2.186v2.187h-2.186z" fill="none"/></mask><mask id="av" fill="#fff"><path d="m.214.813h2.186v2.187h-2.186z" fill="none"/></mask><mask id="aw" fill="#fff"><path d="m.263.813h2.187v2.187h-2.187z" fill="none"/></mask><mask id="ax" fill="#fff"><path d="m.36.813h2.187v2.187h-2.187z" fill="none"/></mask><mask id="ay" fill="#fff"><path d="m.457.813h2.187v2.187h-2.187z" fill="none"/></mask><mask id="az" fill="#fff"><path d="m.555.813h2.187v2.187h-2.187z" fill="none"/></mask><mask id="aA" fill="#fff"><path d="m.193.813h2.187v2.187h-2.187z" fill="none"/></mask><mask id="aB" fill="#fff"><path d="m.29.813h2.187v2.187h-2.187z" fill="none"/></mask><mask id="aC" fill="#fff"><path d="m.388.813h2.187v2.187h-2.187z" fill="none"/></mask><mask id="aD" fill="#fff"><path d="m.928.813h2.187v2.187h-2.187z" fill="none"/></mask><mask id="aE" fill="#fff"><path d="m.025.813h2.187v2.187h-2.187z" fill="none"/></mask><mask id="aF" fill="#fff"><path d="m.409.813h2.187v2.187h-2.187z" fill="none"/></mask><mask id="aG" fill="#fff"><path d="m.582.813h2.187v2.187h-2.187z" fill="none"/></mask><mask id="aH" fill="#fff"><path d="m.603.813h2.187v2.187h-2.187z" fill="none"/></mask><mask id="aI" fill="#fff"><path d="m.776.813h2.187v2.187h-2.187z" fill="none"/></mask><mask id="aJ" fill="#fff"><path d="m.798.813h2.187v2.187h-2.187z" fill="none"/></mask><mask id="aK" fill="#fff"><path d="m.972.813h2.187v2.187h-2.189z" fill="none"/></mask><mask id="aL" fill="#fff"><path d="m.992.813h2.187v2.187h-2.187z" fill="none"/></mask><mask id="aM" fill="#fff"><path d="m.166.813h2.187v2.187h-2.187z" fill="none"/></mask><mask id="aN" fill="#fff"><path d="m.187.813h2.187v2.187h-2.187z" fill="none"/></mask><mask id="aO" fill="#fff"><path d="m.36.813h2.187v2.187h-2.187z" fill="none"/></mask><mask id="aP" fill="#fff"><path d="m.382.813h2.187v2.187h-2.187z" fill="none"/></mask><mask id="aQ" fill="#fff"><path d="m.554.813h2.188v2.187h-2.189z" fill="none"/></mask><mask id="aR" fill="#fff"><path d="m.576.813h2.187v2.187h-2.187z" fill="none"/></mask><mask id="aS" fill="#fff"><path d="m.75.813h2.187v2.187h-2.187z" fill="none"/></mask><mask id="aT" fill="#fff"><path d="m.771.813h2.186v2.187h-2.186z" fill="none"/></mask><mask id="aU" fill="#fff"><path d="m.944.813h2.187v2.187h-2.187z" fill="none"/></mask><mask id="aV" fill="#fff"><path d="m.966.813h2.187v2.187h-2.187z" fill="none"/></mask><mask id="aW" fill="#fff"><path d="m.139.813h2.186v2.187h-2.186z" fill="none"/></mask><mask id="aX" fill="#fff"><path d="m.16.813h2.187v2.187h-2.187z" fill="none"/></mask><mask id="aY" fill="#fff"><path d="m.334.813h2.186v2.187h-2.186z" fill="none"/></mask><mask id="aZ" fill="#fff"><path d="m.354.813h2.187v2.187h-2.187z" fill="none"/></mask><mask id="a0" fill="#fff"><path d="m.528.813h2.187v2.187h-2.187z" fill="none"/></mask><mask id="a1" fill="#fff"><path d="m.55.813h2.186v2.187h-2.186z" fill="none"/></mask><mask id="a2" fill="#fff"><path d="m.723.813h2.186v2.187h-2.186z" fill="none"/></mask><mask id="a3" fill="#fff"><path d="m.745.813h2.185v2.187h-2.186z" fill="none"/></mask><mask id="a4" fill="#fff"><path d="m.917.813h2.187v2.187h-2.187z" fill="none"/></mask><mask id="a5" fill="#fff"><path d="m.939.813h2.186v2.187h-2.186z" fill="none"/></mask><mask id="a6" fill="#fff"><path d="m.112.813h2.186v2.187h-2.186z" fill="none"/></mask><mask id="a7" fill="#fff"><path d="m.134.813h2.186v2.187h-2.186z" fill="none"/></mask><mask id="a8" fill="#fff"><path d="m.307.813h2.186v2.187h-2.186z" fill="none"/></mask><mask id="a9" fill="#fff"><path d="m.328.813h2.186v2.187h-2.186z" fill="none"/></mask><mask id="ba" fill="#fff"><path d="m.501.813h2.186v2.187h-2.186z" fill="none"/></mask><mask id="bb" fill="#fff"><path d="m.145.813h2.186v2.187h-2.186z" fill="none"/></mask><mask id="bc" fill="#fff"><path d="m.696.813h2.186v2.187h-2.186z" fill="none"/></mask><mask id="bd" fill="#fff"><path d="m.07.813h2.186v2.187h-2.186z" fill="none"/></mask><mask id="be" fill="#fff"><path d="m.972.813h2.187v2.187h-2.189z" fill="none"/></mask><mask id="bf" fill="#fff"><path d="m.264.813h2.186v2.187h-2.186z" fill="none"/></mask><mask id="bg" fill="#fff"><path d="m.167.813h2.186v2.187h-2.186z" fill="none"/></mask><mask id="bh" fill="#fff"><path d="m0 .813h2.186v2.187h-2.186z" fill="none"/></mask><mask id="bi" fill="#fff"><path d="m.902.813h2.187v2.187h-2.187z" fill="none"/></mask><mask id="bj" fill="#fff"><path d="m.924.813h2.186v2.187h-2.186z" fill="none"/></mask><mask id="bk" fill="#fff"><path d="m.097.813h2.186v2.187h-2.186z" fill="none"/></mask><mask id="bl" fill="#fff"><path d="m.118.813h2.187v2.187h-2.187z" fill="none"/></mask><mask id="bm" fill="#fff"><path d="m.02.813h2.188v2.187h-2.188z" fill="none"/></mask><mask id="bn" fill="#fff"><path d="m.68.813h2.187v2.187h-2.187z" fill="none"/></mask><mask id="bo" fill="#fff"><path d="m.772.813h2.186v2.187h-2.186z" fill="none"/></mask><mask id="bp" fill="#fff"><path d="m.583.813h2.187v2.187h-2.187z" fill="none"/></mask><mask id="bq" fill="#fff"><path d="m.973.813h2.186v2.187h-2.186z" fill="none"/></mask><mask id="br" fill="#fff"><path d="m.07.813h2.186v2.187h-2.186z" fill="none"/></mask><mask id="bs" fill="#fff"><path d="m.167.813h2.186v2.187h-2.186z" fill="none"/></mask><mask id="bt" fill="#fff"><path d="m.805.813h2.186v2.187h-2.186z" fill="none"/></mask><mask id="bu" fill="#fff"><path d="m.903.813h2.186v2.187h-2.186z" fill="none"/></mask><mask id="bv" fill="#fff"><path d="m0 .813h2.186v2.187h-2.186z" fill="none"/></mask><mask id="bw" fill="#fff"><path d="m.875.813h2.186v2.187h-2.186z" fill="none"/></mask><mask id="bx" fill="#fff"><path d="m.049.813h2.186v2.187h-2.186z" fill="none"/></mask><mask id="by" fill="#fff"><path d="m.214.813h2.186v2.187h-2.186z" fill="none"/></mask><mask id="bz" fill="#fff"><path d="m.263.813h2.187v2.187h-2.187z" fill="none"/></mask><mask id="bA" fill="#fff"><path d="m.36.813h2.187v2.187h-2.187z" fill="none"/></mask><mask id="bB" fill="#fff"><path d="m.457.813h2.187v2.187h-2.187z" fill="none"/></mask><mask id="bC" fill="#fff"><path d="m.555.813h2.187v2.187h-2.187z" fill="none"/></mask><mask id="bD" fill="#fff"><path d="m.193.813h2.187v2.187h-2.187z" fill="none"/></mask><mask id="bE" fill="#fff"><path d="m.29.813h2.187v2.187h-2.187z" fill="none"/></mask><mask id="bF" fill="#fff"><path d="m.388.813h2.187v2.187h-2.187z" fill="none"/></mask><mask id="bG" fill="#fff"><path d="m.928.813h2.187v2.187h-2.187z" fill="none"/></mask><mask id="bH" fill="#fff"><path d="m.025.813h2.187v2.187h-2.187z" fill="none"/></mask><mask id="bI" fill="#fff"><path d="m.409.813h2.187v2.187h-2.187z" fill="none"/></mask><mask id="bJ" fill="#fff"><path d="m.582.813h2.187v2.187h-2.187z" fill="none"/></mask><mask id="bK" fill="#fff"><path d="m.603.813h2.187v2.187h-2.187z" fill="none"/></mask><mask id="bL" fill="#fff"><path d="m.776.813h2.187v2.187h-2.187z" fill="none"/></mask><mask id="bM" fill="#fff"><path d="m.798.813h2.187v2.187h-2.187z" fill="none"/></mask><mask id="bN" fill="#fff"><path d="m.972.813h2.187v2.187h-2.189z" fill="none"/></mask><mask id="bO" fill="#fff"><path d="m.992.813h2.187v2.187h-2.187z" fill="none"/></mask><mask id="bP" fill="#fff"><path d="m.166.813h2.187v2.187h-2.187z" fill="none"/></mask><mask id="bQ" fill="#fff"><path d="m.187.813h2.187v2.187h-2.187z" fill="none"/></mask><mask id="bR" fill="#fff"><path d="m.36.813h2.187v2.187h-2.187z" fill="none"/></mask><mask id="bS" fill="#fff"><path d="m.382.813h2.187v2.187h-2.187z" fill="none"/></mask><mask id="bT" fill="#fff"><path d="m.554.813h2.188v2.187h-2.189z" fill="none"/></mask><mask id="bU" fill="#fff"><path d="m.576.813h2.187v2.187h-2.187z" fill="none"/></mask><mask id="bV" fill="#fff"><path d="m.75.813h2.187v2.187h-2.187z" fill="none"/></mask><mask id="bW" fill="#fff"><path d="m.771.813h2.186v2.187h-2.186z" fill="none"/></mask><mask id="bX" fill="#fff"><path d="m.944.813h2.187v2.187h-2.187z" fill="none"/></mask><mask id="bY" fill="#fff"><path d="m.966.813h2.187v2.187h-2.187z" fill="none"/></mask><mask id="bZ" fill="#fff"><path d="m.139.813h2.186v2.187h-2.186z" fill="none"/></mask><mask id="b0" fill="#fff"><path d="m.16.813h2.187v2.187h-2.187z" fill="none"/></mask><mask id="b1" fill="#fff"><path d="m.334.813h2.186v2.187h-2.186z" fill="none"/></mask><mask id="b2" fill="#fff"><path d="m.354.813h2.187v2.187h-2.187z" fill="none"/></mask><mask id="b3" fill="#fff"><path d="m.528.813h2.187v2.187h-2.187z" fill="none"/></mask><mask id="b4" fill="#fff"><path d="m.55.813h2.186v2.187h-2.186z" fill="none"/></mask><mask id="b5" fill="#fff"><path d="m.723.813h2.186v2.187h-2.186z" fill="none"/></mask><mask id="b6" fill="#fff"><path d="m.745.813h2.185v2.187h-2.186z" fill="none"/></mask><mask id="b7" fill="#fff"><path d="m.917.813h2.187v2.187h-2.187z" fill="none"/></mask><mask id="b8" fill="#fff"><path d="m.939.813h2.186v2.187h-2.186z" fill="none"/></mask><mask id="b9" fill="#fff"><path d="m.112.813h2.186v2.187h-2.186z" fill="none"/></mask><mask id="ca" fill="#fff"><path d="m.134.813h2.186v2.187h-2.186z" fill="none"/></mask><mask id="cb" fill="#fff"><path d="m.307.813h2.186v2.187h-2.186z" fill="none"/></mask><mask id="cc" fill="#fff"><path d="m.328.813h2.186v2.187h-2.186z" fill="none"/></mask><mask id="cd" fill="#fff"><path d="m.501.813h2.186v2.187h-2.186z" fill="none"/></mask><mask id="ce" fill="#fff"><path d="m.145.813h2.186v2.187h-2.186z" fill="none"/></mask><mask id="cf" fill="#fff"><path d="m.696.813h2.186v2.187h-2.186z" fill="none"/></mask><mask id="cg" fill="#fff"><path d="m.07.813h2.186v2.187h-2.186z" fill="none"/></mask><mask id="ch" fill="#fff"><path d="m.972.813h2.187v2.187h-2.189z" fill="none"/></mask><mask id="ci" fill="#fff"><path d="m.264.813h2.186v2.187h-2.186z" fill="none"/></mask><mask id="cj" fill="#fff"><path d="m.167.813h2.186v2.187h-2.186z" fill="none"/></mask><mask id="ck" fill="#fff"><path d="m0 .813h2.186v2.187h-2.186z" fill="none"/></mask><mask id="cl" fill="#fff"><path d="m.902.813h2.187v2.187h-2.187z" fill="none"/></mask><mask id="cm" fill="#fff"><path d="m.924.813h2.186v2.187h-2.186z" fill="none"/></mask><mask id="cn" fill="#fff"><path d="m.097.813h2.186v2.187h-2.186z" fill="none"/></mask><mask id="co" fill="#fff"><path d="m.118.813h2.187v2.187h-2.187z" fill="none"/></mask><mask id="cp" fill="#fff"><path d="m.02.813h2.188v2.187h-2.188z" fill="none"/></mask><mask id="cq" fill="#fff"><path d="m.68.813h2.187v2.187h-2.187z" fill="none"/></mask><mask id="cr" fill="#fff"><path d="m.772.813h2.186v2.187h-2.186z" fill="none"/></mask><mask id="cs" fill="#fff"><path d="m.583.813h2.187v2.187h-2.187z" fill="none"/></mask><mask id="ct" fill="#fff"><path d="m.973.813h2.186v2.187h-2.186z" fill="none"/></mask><mask id="cu" fill="#fff"><path d="m.07.813h2.186v2.187h-2.186z" fill="none"/></mask><mask id="cv" fill="#fff"><path d="m.167.813h2.186v2.187h-2.186z" fill="none"/></mask><mask id="cw" fill="#fff"><path d="m.805.813h2.186v2.187h-2.186z" fill="none"/></mask><mask id="cx" fill="#fff"><path d="m.903.813h2.186v2.187h-2.186z" fill="none"/></mask><mask id="cy" fill="#fff"><path d="m0 .813h2.186v2.187h-2.186z" fill="none"/></mask><mask id="cz" fill="#fff"><path d="m.875.813h2.186v2.187h-2.186z" fill="none"/></mask><mask id="cA" fill="#fff"><path d="m.049.813h2.186v2.187h-2.186z" fill="none"/></mask><mask id="cB" fill="#fff"><path d="m.214.813h2.186v2.187h-2.186z" fill="none"/></mask><mask id="cC" fill="#fff"><path d="m.263.813h2.187v2.187h-2.187z" fill="none"/></mask><mask id="cD" fill="#fff"><path d="m.36.813h2.187v2.187h-2.187z" fill="none"/></mask><mask id="cE" fill="#fff"><path d="m.457.813h2.187v2.187h-2.187z" fill="none"/></mask><mask id="cF" fill="#fff"><path d="m.555.813h2.187v2.187h-2.187z" fill="none"/></mask><mask id="cG" fill="#fff"><path d="m.193.813h2.187v2.187h-2.187z" fill="none"/></mask><mask id="cH" fill="#fff"><path d="m.29.813h2.187v2.187h-2.187z" fill="none"/></mask><mask id="cI" fill="#fff"><path d="m.388.813h2.187v2.187h-2.187z" fill="none"/></mask><mask id="cJ" fill="#fff"><path d="m.928.813h2.187v2.187h-2.187z" fill="none"/></mask><mask id="cK" fill="#fff"><path d="m.025.813h2.187v2.187h-2.187z" fill="none"/></mask><mask id="cL" fill="#fff"><path d="m.409.813h2.187v2.187h-2.187z" fill="none"/></mask><mask id="cM" fill="#fff"><path d="m.582.813h2.187v2.187h-2.187z" fill="none"/></mask><mask id="cN" fill="#fff"><path d="m.603.813h2.187v2.187h-2.187z" fill="none"/></mask><mask id="cO" fill="#fff"><path d="m.776.813h2.187v2.187h-2.187z" fill="none"/></mask><mask id="cP" fill="#fff"><path d="m.798.813h2.187v2.187h-2.187z" fill="none"/></mask><mask id="cQ" fill="#fff"><path d="m.972.813h2.187v2.187h-2.189z" fill="none"/></mask><mask id="cR" fill="#fff"><path d="m.992.813h2.187v2.187h-2.187z" fill="none"/></mask><mask id="cS" fill="#fff"><path d="m.166.813h2.187v2.187h-2.187z" fill="none"/></mask><mask id="cT" fill="#fff"><path d="m.187.813h2.187v2.187h-2.187z" fill="none"/></mask><mask id="cU" fill="#fff"><path d="m.36.813h2.187v2.187h-2.187z" fill="none"/></mask><mask id="cV" fill="#fff"><path d="m.382.813h2.187v2.187h-2.187z" fill="none"/></mask><mask id="cW" fill="#fff"><path d="m.554.813h2.188v2.187h-2.189z" fill="none"/></mask><mask id="cX" fill="#fff"><path d="m.576.813h2.187v2.187h-2.187z" fill="none"/></mask><mask id="cY" fill="#fff"><path d="m.75.813h2.187v2.187h-2.187z" fill="none"/></mask><mask id="cZ" fill="#fff"><path d="m.771.813h2.186v2.187h-2.186z" fill="none"/></mask><mask id="c0" fill="#fff"><path d="m.944.813h2.187v2.187h-2.187z" fill="none"/></mask><mask id="c1" fill="#fff"><path d="m.966.813h2.187v2.187h-2.187z" fill="none"/></mask><mask id="c2" fill="#fff"><path d="m.139.813h2.186v2.187h-2.186z" fill="none"/></mask><mask id="c3" fill="#fff"><path d="m.16.813h2.187v2.187h-2.187z" fill="none"/></mask><mask id="c4" fill="#fff"><path d="m.334.813h2.186v2.187h-2.186z" fill="none"/></mask><mask id="c5" fill="#fff"><path d="m.354.813h2.187v2.187h-2.187z" fill="none"/></mask><mask id="c6" fill="#fff"><path d="m.528.813h2.187v2.187h-2.187z" fill="none"/></mask><mask id="c7" fill="#fff"><path d="m.55.813h2.186v2.187h-2.186z" fill="none"/></mask><mask id="c8" fill="#fff"><path d="m.723.813h2.186v2.187h-2.186z" fill="none"/></mask><mask id="c9" fill="#fff"><path d="m.745.813h2.185v2.187h-2.186z" fill="none"/></mask><mask id="da" fill="#fff"><path d="m.917.813h2.187v2.187h-2.187z" fill="none"/></mask><mask id="db" fill="#fff"><path d="m.939.813h2.186v2.187h-2.186z" fill="none"/></mask><mask id="dc" fill="#fff"><path d="m.112.813h2.186v2.187h-2.186z" fill="none"/></mask><mask id="dd" fill="#fff"><path d="m.134.813h2.186v2.187h-2.186z" fill="none"/></mask><mask id="de" fill="#fff"><path d="m.307.813h2.186v2.187h-2.186z" fill="none"/></mask><mask id="df" fill="#fff"><path d="m.328.813h2.186v2.187h-2.186z" fill="none"/></mask><mask id="dg" fill="#fff"><path d="m.501.813h2.186v2.187h-2.186z" fill="none"/></mask><mask id="dh" fill="#fff"><path d="m.145.813h2.186v2.187h-2.186z" fill="none"/></mask><mask id="di" fill="#fff"><path d="m.696.813h2.186v2.187h-2.186z" fill="none"/></mask><mask id="dj" fill="#fff"><path d="m.07.813h2.186v2.187h-2.186z" fill="none"/></mask><mask id="dk" fill="#fff"><path d="m.972.813h2.187v2.187h-2.189z" fill="none"/></mask><mask id="dl" fill="#fff"><path d="m.264.813h2.186v2.187h-2.186z" fill="none"/></mask><mask id="dm" fill="#fff"><path d="m.167.813h2.186v2.187h-2.186z" fill="none"/></mask><mask id="dn" fill="#fff"><path d="m0 .813h2.186v2.187h-2.186z" fill="none"/></mask><mask id="do" fill="#fff"><path d="m.902.813h2.187v2.187h-2.187z" fill="none"/></mask><mask id="dp" fill="#fff"><path d="m.924.813h2.186v2.187h-2.186z" fill="none"/></mask><mask id="dq" fill="#fff"><path d="m.097.813h2.186v2.187h-2.186z" fill="none"/></mask><mask id="dr" fill="#fff"><path d="m.118.813h2.187v2.187h-2.187z" fill="none"/></mask><mask id="ds" fill="#fff"><path d="m.02.813h2.188v2.187h-2.188z" fill="none"/></mask><mask id="dt" fill="#fff"><path d="m.68.813h2.187v2.187h-2.187z" fill="none"/></mask><mask id="du" fill="#fff"><path d="m.772.813h2.186v2.187h-2.186z" fill="none"/></mask><mask id="dv" fill="#fff"><path d="m.583.813h2.187v2.187h-2.187z" fill="none"/></mask><g fill-rule="evenodd" opacity=".15"><path d="m60 28a1 1 0 1 1 0 2 1 1 0 0 1 0-2m-10 0a1 1 0 1 1 0 2 1 1 0 0 1 0-2m0 9a1 1 0 1 1 .001 1.999 1 1 0 0 1 -.001-1.999"/><path d="m2.066.813a1.093 1.093 0 1 1 -.001 2.187 1.093 1.093 0 0 1 0-2.187" mask="url(#a)" transform="translate(48 45)"/><path d="m40 28a1 1 0 1 1 0 2 1 1 0 0 1 0-2m0 9a1 1 0 1 1 .001 1.999 1 1 0 0 1 -.001-1.999"/><path d="m1.163.813a1.093 1.093 0 1 1 0 2.187 1.093 1.093 0 0 1 0-2.187" mask="url(#b)" transform="translate(39 45)"/><path d="m30 28a1 1 0 1 1 0 2 1 1 0 0 1 0-2m0 9a1 1 0 1 1 .001 1.999 1 1 0 0 1 -.001-1.999"/><path d="m1.26.813a1.093 1.093 0 1 1 0 2.187 1.093 1.093 0 0 1 0-2.187" mask="url(#c)" transform="translate(29 45)"/><path d="m21 28a1 1 0 1 1 0 2 1 1 0 0 1 0-2m0 9a1 1 0 1 1 .001 1.999 1 1 0 0 1 -.001-1.999"/><path d="m1.899.813a1.093 1.093 0 1 1 -.001 2.187 1.093 1.093 0 0 1 0-2.187" mask="url(#d)" transform="translate(19 45)"/><path d="m11 28a1 1 0 1 1 0 2 1 1 0 0 1 0-2m0 9a1 1 0 1 1 .001 1.999 1 1 0 0 1 -.001-1.999"/><path d="m1.996.813a1.093 1.093 0 1 1 -.001 2.187 1.093 1.093 0 0 1 0-2.187" mask="url(#e)" transform="translate(9 45)"/><path d="m1 28a1 1 0 1 1 0 2 1 1 0 0 1 0-2m0 9a1 1 0 1 1 .001 1.999 1 1 0 0 1 -.001-1.999"/><path d="m1.093.813a1.093 1.093 0 1 1 0 2.187 1.093 1.093 0 0 1 0-2.187" mask="url(#f)" transform="translate(0 45)"/><path d="m70 28a1 1 0 1 1 0 2 1 1 0 0 1 0-2"/><path d="m1.968.813a1.093 1.093 0 1 1 0 2.187 1.093 1.093 0 0 1 0-2.187" mask="url(#g)" transform="translate(58 45)"/><path d="m60 37a1 1 0 1 1 .001 1.999 1 1 0 0 1 -.001-1.999"/><path d="m1.142.813a1.093 1.093 0 1 1 -.002 2.187 1.093 1.093 0 0 1 0-2.187" mask="url(#h)" transform="translate(69 45)"/><path d="m70 37a1 1 0 1 1 .001 1.999 1 1 0 0 1 -.001-1.999m474-9a1 1 0 1 1 0 1.999 1 1 0 0 1 0-1.999m0 9a1 1 0 1 1 .001 1.998 1 1 0 0 1 0-1.998"/><path d="m1.308.813a1.093 1.093 0 1 1 -.001 2.187 1.093 1.093 0 0 1 0-2.187" mask="url(#i)" transform="translate(542 45)"/><path d="m613 28a1 1 0 1 1 0 2 1 1 0 0 1 0-2m0 9a1 1 0 1 1 0 2 1 1 0 0 1 0-2"/><path d="m1.356.813a1.094 1.094 0 1 1 0 2.189 1.094 1.094 0 0 1 0-2.189" mask="url(#j)" transform="translate(611 45)"/><path d="m603 28a1 1 0 1 1 0 2 1 1 0 0 1 0-2m0 9a1 1 0 1 1 0 2 1 1 0 0 1 0-2"/><path d="m1.453.813a1.094 1.094 0 1 1 0 2.189 1.094 1.094 0 0 1 0-2.189" mask="url(#k)" transform="translate(601 45)"/><path d="m593 28a1 1 0 1 1 0 1.999 1 1 0 0 1 0-1.999m0 9a1 1 0 1 1 .001 1.998 1 1 0 0 1 0-1.998"/><path d="m1.55.813a1.093 1.093 0 1 1 0 2.187 1.093 1.093 0 0 1 0-2.187" mask="url(#l)" transform="translate(591 45)"/><path d="m583 28a1 1 0 1 1 0 2 1 1 0 0 1 0-2m0 9a1 1 0 1 1 0 2 1 1 0 0 1 0-2"/><path d="m1.648.813a1.094 1.094 0 1 1 0 2.189 1.094 1.094 0 0 1 0-2.189" mask="url(#m)" transform="translate(581 45)"/><path d="m574 28a1 1 0 1 1 0 2 1 1 0 0 1 0-2m0 9a1 1 0 1 1 .001 1.999 1 1 0 0 1 -.001-1.999"/><path d="m1.286.813a1.093 1.093 0 1 1 0 2.187 1.093 1.093 0 0 1 0-2.187" mask="url(#n)" transform="translate(573 45)"/><path d="m564 28a1 1 0 1 1 0 1.999 1 1 0 0 1 0-1.999m0 9a1 1 0 1 1 .001 1.998 1 1 0 0 1 0-1.998"/><path d="m1.384.813a1.093 1.093 0 1 1 0 2.187 1.093 1.093 0 0 1 0-2.187" mask="url(#o)" transform="translate(562 45)"/><path d="m554 28a1 1 0 1 1 0 2 1 1 0 0 1 0-2m0 9a1 1 0 1 1 0 2 1 1 0 0 1 0-2"/><path d="m1.48.813a1.094 1.094 0 1 1 0 2.189 1.094 1.094 0 0 1 0-2.189" mask="url(#p)" transform="translate(552 45)"/><path d="m634 28a1 1 0 1 1 0 1.999 1 1 0 0 1 0-1.999m0 9a1 1 0 1 1 .001 1.998 1 1 0 0 1 0-1.998"/><path d="m2.022.813a1.093 1.093 0 1 1 -.002 2.187 1.093 1.093 0 0 1 0-2.187" mask="url(#q)" transform="translate(632 45)"/><path d="m624 28a1 1 0 1 1 0 2 1 1 0 0 1 0-2m0 9a1 1 0 1 1 0 2 1 1 0 0 1 0-2"/><path d="m1.118.813a1.094 1.094 0 1 1 0 2.189 1.094 1.094 0 0 1 0-2.189" mask="url(#r)" transform="translate(623 45)"/><path d="m524 28a1 1 0 1 1 0 2 1 1 0 0 1 0-2m0 9a1 1 0 1 1 0 2 1 1 0 0 1 0-2"/><path d="m1.502.813a1.094 1.094 0 1 1 0 2.189 1.094 1.094 0 0 1 0-2.189" mask="url(#s)" transform="translate(522 45)"/><path d="m534 28a1 1 0 1 1 0 1.999 1 1 0 0 1 0-1.999m0 9a1 1 0 1 1 .001 1.998 1 1 0 0 1 0-1.998"/><path d="m1.676.813a1.093 1.093 0 1 1 0 2.187 1.093 1.093 0 0 1 0-2.187" mask="url(#t)" transform="translate(532 45)"/><path d="m504 28a1 1 0 1 1 0 2 1 1 0 0 1 0-2m0 9a1 1 0 1 1 0 2 1 1 0 0 1 0-2"/><path d="m1.696.813a1.094 1.094 0 1 1 0 2.189 1.094 1.094 0 0 1 0-2.189" mask="url(#u)" transform="translate(502 45)"/><path d="m514 28a1 1 0 1 1 0 1.999 1 1 0 0 1 0-1.999m0 9a1 1 0 1 1 .001 1.998 1 1 0 0 1 0-1.998"/><path d="m1.87.813a1.093 1.093 0 1 1 0 2.187 1.093 1.093 0 0 1 0-2.187" mask="url(#v)" transform="translate(512 45)"/><path d="m484 28a1 1 0 1 1 0 1.999 1 1 0 0 1 0-1.999m0 9a1 1 0 1 1 .001 1.998 1 1 0 0 1 0-1.998"/><path d="m1.892.813a1.093 1.093 0 1 1 -.002 2.187 1.093 1.093 0 0 1 0-2.187" mask="url(#w)" transform="translate(482 45)"/><path d="m494 28a1 1 0 1 1 0 2 1 1 0 0 1 0-2m0 9a1 1 0 1 1 0 2 1 1 0 0 1 0-2"/><path d="m2.064.813a1.094 1.094 0 1 1 0 2.189 1.094 1.094 0 0 1 0-2.189" mask="url(#x)" transform="translate(492 45)"/><path d="m464 28a1 1 0 1 1 0 1.999 1 1 0 0 1 0-1.999m0 9a1 1 0 1 1 .001 1.998 1 1 0 0 1 0-1.998"/><path d="m2.086.813a1.093 1.093 0 1 1 0 2.187 1.093 1.093 0 0 1 0-2.187" mask="url(#y)" transform="translate(462 45)"/><path d="m475 28a1 1 0 1 1 0 2 1 1 0 0 1 0-2m0 9a1 1 0 1 1 0 2 1 1 0 0 1 0-2"/><path d="m1.259.813a1.094 1.094 0 1 1 0 2.189 1.094 1.094 0 0 1 0-2.189" mask="url(#z)" transform="translate(473 45)"/><path d="m445 28a1 1 0 1 1 0 2 1 1 0 0 1 0-2m0 9a1 1 0 1 1 0 2 1 1 0 0 1 0-2"/><path d="m1.28.813a1.094 1.094 0 1 1 0 2.189 1.094 1.094 0 0 1 0-2.189" mask="url(#A)" transform="translate(443 45)"/><path d="m455 28a1 1 0 1 1 0 1.999 1 1 0 0 1 0-1.999m0 9a1 1 0 1 1 .001 1.998 1 1 0 0 1 0-1.998"/><path d="m1.454.813a1.093 1.093 0 1 1 0 2.187 1.093 1.093 0 0 1 0-2.187" mask="url(#B)" transform="translate(453 45)"/><path d="m425 28a1 1 0 1 1 0 2 1 1 0 0 1 0-2m0 9a1 1 0 1 1 0 2 1 1 0 0 1 0-2"/><path d="m1.475.813a1.094 1.094 0 1 1 0 2.189 1.094 1.094 0 0 1 0-2.189" mask="url(#C)" transform="translate(423 45)"/><path d="m435 28a1 1 0 1 1 0 1.999 1 1 0 0 1 0-1.999m0 9a1 1 0 1 1 .001 1.998 1 1 0 0 1 0-1.998"/><path d="m1.649.813a1.093 1.093 0 1 1 -.001 2.187 1.093 1.093 0 0 1 0-2.187" mask="url(#D)" transform="translate(433 45)"/><path d="m405 28a1 1 0 1 1 0 1.999 1 1 0 0 1 0-1.999m0 9a1 1 0 1 1 .001 1.998 1 1 0 0 1 0-1.998"/><path d="m1.67.813a1.093 1.093 0 1 1 0 2.187 1.093 1.093 0 0 1 0-2.187" mask="url(#E)" transform="translate(403 45)"/><path d="m415 28a1 1 0 1 1 0 2 1 1 0 0 1 0-2m0 9a1 1 0 1 1 0 2 1 1 0 0 1 0-2"/><path d="m1.843.813a1.094 1.094 0 1 1 0 2.189 1.094 1.094 0 0 1 0-2.189" mask="url(#F)" transform="translate(413 45)"/><path d="m385 28a1 1 0 1 1 0 2 1 1 0 0 1 0-2m0 9a1 1 0 1 1 .001 1.999 1 1 0 0 1 -.001-1.999"/><path d="m1.864.813a1.093 1.093 0 1 1 0 2.187 1.093 1.093 0 0 1 0-2.187" mask="url(#G)" transform="translate(383 45)"/><path d="m395 28a1 1 0 1 1 0 2 1 1 0 0 1 0-2m0 9a1 1 0 1 1 0 2 1 1 0 0 1 0-2"/><path d="m2.037.813a1.094 1.094 0 1 1 0 2.189 1.094 1.094 0 0 1 0-2.189" mask="url(#H)" transform="translate(393 45)"/><path d="m365 28a1 1 0 1 1 0 2 1 1 0 0 1 0-2m0 9a1 1 0 1 1 0 2 1 1 0 0 1 0-2"/><path d="m2.059.813a1.094 1.094 0 1 1 0 2.189 1.094 1.094 0 0 1 0-2.189" mask="url(#I)" transform="translate(363 45)"/><path d="m375 28a1 1 0 1 1 0 1.999 1 1 0 0 1 0-1.999m0 9a1 1 0 1 1 .001 1.998 1 1 0 0 1 0-1.998"/><path d="m1.232.813a1.093 1.093 0 1 1 0 2.187 1.093 1.093 0 0 1 0-2.187" mask="url(#J)" transform="translate(374 45)"/><path d="m345 28a1 1 0 1 1 0 1.999 1 1 0 0 1 0-1.999m0 9a1 1 0 1 1 .001 1.998 1 1 0 0 1 0-1.998"/><path d="m1.254.813a1.093 1.093 0 1 1 0 2.187 1.093 1.093 0 0 1 0-2.187" mask="url(#K)" transform="translate(344 45)"/><path d="m356 28a1 1 0 1 1 0 2 1 1 0 0 1 0-2m0 9a1 1 0 1 1 .001 1.999 1 1 0 0 1 -.001-1.999"/><path d="m1.427.813a1.093 1.093 0 1 1 -.001 2.187 1.093 1.093 0 0 1 0-2.187" mask="url(#L)" transform="translate(354 45)"/><path d="m326 28a1 1 0 1 1 0 1.999 1 1 0 0 1 0-1.999m0 9a1 1 0 1 1 .001 1.998 1 1 0 0 1 0-1.998"/><path d="m1.448.813a1.093 1.093 0 1 1 0 2.187 1.093 1.093 0 0 1 0-2.187" mask="url(#M)" transform="translate(324 45)"/><path d="m336 28a1 1 0 1 1 0 2 1 1 0 0 1 0-2m0 9a1 1 0 1 1 0 2 1 1 0 0 1 0-2"/><path d="m1.621.813a1.094 1.094 0 1 1 0 2.189 1.094 1.094 0 0 1 0-2.189" mask="url(#N)" transform="translate(334 45)"/><path d="m306 28a1 1 0 1 1 0 2 1 1 0 0 1 0-2m0 9a1 1 0 1 1 .001 1.999 1 1 0 0 1 -.001-1.999"/><path d="m1.643.813a1.093 1.093 0 1 1 -.001 2.187 1.093 1.093 0 0 1 0-2.187" mask="url(#O)" transform="translate(304 45)"/><path d="m316 28a1 1 0 1 1 0 2 1 1 0 0 1 0-2m0 9a1 1 0 1 1 .001 1.999 1 1 0 0 1 -.001-1.999"/><path d="m1.816.813a1.093 1.093 0 1 1 0 2.187 1.093 1.093 0 0 1 0-2.187" mask="url(#P)" transform="translate(314 45)"/><path d="m286 28a1 1 0 1 1 0 2 1 1 0 0 1 0-2m0 9a1 1 0 1 1 .001 1.999 1 1 0 0 1 -.001-1.999"/><path d="m1.837.813a1.093 1.093 0 1 1 0 2.187 1.093 1.093 0 0 1 0-2.187" mask="url(#Q)" transform="translate(284 45)"/><path d="m296 28a1 1 0 1 1 0 2 1 1 0 0 1 0-2m0 9a1 1 0 1 1 0 2 1 1 0 0 1 0-2"/><path d="m2.01.813a1.094 1.094 0 1 1 0 2.189 1.094 1.094 0 0 1 0-2.189" mask="url(#R)" transform="translate(294 45)"/><path d="m266 28a1 1 0 1 1 0 2 1 1 0 0 1 0-2m0 9a1 1 0 1 1 .001 1.999 1 1 0 0 1 -.001-1.999"/><path d="m2.032.813a1.093 1.093 0 1 1 -.002 2.187 1.093 1.093 0 0 1 0-2.187" mask="url(#S)" transform="translate(264 45)"/><path d="m276 28a1 1 0 1 1 0 2 1 1 0 0 1 0-2m0 9a1 1 0 1 1 .001 1.999 1 1 0 0 1 -.001-1.999"/><path d="m1.205.813a1.093 1.093 0 1 1 0 2.187 1.093 1.093 0 0 1 0-2.187" mask="url(#T)" transform="translate(275 45)"/><path d="m246 28a1 1 0 1 1 0 2 1 1 0 0 1 0-2m0 9a1 1 0 1 1 .001 1.999 1 1 0 0 1 -.001-1.999"/><path d="m1.227.813a1.093 1.093 0 1 1 -.001 2.187 1.093 1.093 0 0 1 0-2.187" mask="url(#U)" transform="translate(245 45)"/><path d="m256 28a1 1 0 1 1 0 2 1 1 0 0 1 0-2m0 9a1 1 0 1 1 .001 1.999 1 1 0 0 1 -.001-1.999"/><path d="m1.4.813a1.093 1.093 0 1 1 0 2.187 1.093 1.093 0 0 1 0-2.187" mask="url(#V)" transform="translate(255 45)"/><path d="m226 28a1 1 0 1 1 0 2 1 1 0 0 1 0-2m0 9a1 1 0 1 1 .001 1.999 1 1 0 0 1 -.001-1.999"/><path d="m1.421.813a1.093 1.093 0 1 1 0 2.187 1.093 1.093 0 0 1 0-2.187" mask="url(#W)" transform="translate(225 45)"/><path d="m237 28a1 1 0 1 1 0 2 1 1 0 0 1 0-2m0 9a1 1 0 1 1 .001 1.999 1 1 0 0 1 -.001-1.999"/><path d="m1.594.813a1.093 1.093 0 1 1 0 2.187 1.093 1.093 0 0 1 0-2.187" mask="url(#X)" transform="translate(235 45)"/><path d="m208 28a1 1 0 1 1 0 2 1 1 0 0 1 0-2m0 9a1 1 0 1 1 .001 1.999 1 1 0 0 1 -.001-1.999"/><path d="m1.238.813a1.093 1.093 0 1 1 0 2.187 1.093 1.093 0 0 1 0-2.187" mask="url(#Y)" transform="translate(207 45)"/><path d="m217 28a1 1 0 1 1 0 2 1 1 0 0 1 0-2m0 9a1 1 0 1 1 .001 1.999 1 1 0 0 1 -.001-1.999"/><path d="m1.79.813a1.093 1.093 0 1 1 -.003 2.187 1.093 1.093 0 0 1 .003-2.187" mask="url(#Z)" transform="translate(215 45)"/><path d="m188 28a1 1 0 1 1 0 2 1 1 0 0 1 0-2m0 9a1 1 0 1 1 .001 1.999 1 1 0 0 1 -.001-1.999"/><path d="m1.163.813a1.093 1.093 0 1 1 -.001 2.187 1.093 1.093 0 0 1 0-2.187" mask="url(#aa)" transform="translate(187 45)"/><path d="m198 28a1 1 0 1 1 0 1.999 1 1 0 0 1 0-1.999m0 9a1 1 0 1 1 .001 1.998 1 1 0 0 1 0-1.998"/><path d="m2.066.813a1.093 1.093 0 1 1 -.001 2.187 1.093 1.093 0 0 1 0-2.187" mask="url(#ab)" transform="translate(196 45)"/><path d="m168 28a1 1 0 1 1 0 2 1 1 0 0 1 0-2m0 9a1 1 0 1 1 .001 1.999 1 1 0 0 1 -.001-1.999"/><path d="m1.357.813a1.093 1.093 0 1 1 0 2.187 1.093 1.093 0 0 1 0-2.187" mask="url(#ac)" transform="translate(167 45)"/><path d="m178 28a1 1 0 1 1 0 2 1 1 0 0 1 0-2m0 9a1 1 0 1 1 .001 1.999 1 1 0 0 1 -.001-1.999"/><path d="m1.26.813a1.093 1.093 0 1 1 0 2.187 1.093 1.093 0 0 1 0-2.187" mask="url(#ad)" transform="translate(177 45)"/><path d="m149 28a1 1 0 1 1 0 2 1 1 0 0 1 0-2m0 9a1 1 0 1 1 .001 1.999 1 1 0 0 1 -.001-1.999"/><path d="m1.093.813a1.093 1.093 0 1 1 0 2.187 1.093 1.093 0 0 1 0-2.187" mask="url(#ae)" transform="translate(148 45)"/><path d="m159 28a1 1 0 1 1 0 1.999 1 1 0 0 1 0-1.999m0 9a1 1 0 1 1 .001 1.998 1 1 0 0 1 0-1.998"/><path d="m1.996.813a1.093 1.093 0 1 1 -.001 2.187 1.093 1.093 0 0 1 0-2.187" mask="url(#af)" transform="translate(157 45)"/><path d="m129 28a1 1 0 1 1 0 2 1 1 0 0 1 0-2m0 9a1 1 0 1 1 .001 1.999 1 1 0 0 1 -.001-1.999"/><path d="m2.017.813a1.093 1.093 0 1 1 -.001 2.187 1.093 1.093 0 0 1 0-2.187" mask="url(#ag)" transform="translate(127 45)"/><path d="m139 28a1 1 0 1 1 0 2 1 1 0 0 1 0-2m0 9a1 1 0 1 1 .001 1.999 1 1 0 0 1 -.001-1.999"/><path d="m1.19.813a1.093 1.093 0 1 1 0 2.187 1.093 1.093 0 0 1 0-2.187" mask="url(#ah)" transform="translate(138 45)"/><path d="m109 28a1 1 0 1 1 0 2 1 1 0 0 1 0-2m0 9a1 1 0 1 1 .001 1.999 1 1 0 0 1 -.001-1.999"/><path d="m1.212.813a1.093 1.093 0 1 1 -.002 2.187 1.093 1.093 0 0 1 0-2.187" mask="url(#ai)" transform="translate(108 45)"/><path d="m119 28a1 1 0 1 1 0 2 1 1 0 0 1 0-2m0 9a1 1 0 1 1 0 2 1 1 0 0 1 0-2"/><path d="m1.114.813a1.094 1.094 0 1 1 0 2.189 1.094 1.094 0 0 1 0-2.189" mask="url(#aj)" transform="translate(118 45)"/><path d="m80 28a1 1 0 1 1 0 1.999 1 1 0 0 1 0-1.999m0 9a1 1 0 1 1 .001 1.998 1 1 0 0 1 0-1.998"/><path d="m1.774.813a1.093 1.093 0 1 1 0 2.187 1.093 1.093 0 0 1 0-2.187" mask="url(#ak)" transform="translate(78 45)"/><path d="m100 28a1 1 0 1 1 0 2 1 1 0 0 1 0-2m0 9a1 1 0 1 1 .001 1.999 1 1 0 0 1 -.001-1.999"/><path d="m1.865.813a1.093 1.093 0 1 1 0 2.187 1.093 1.093 0 0 1 0-2.187" mask="url(#al)" transform="translate(98 45)"/><path d="m90 28a1 1 0 1 1 0 2 1 1 0 0 1 0-2m0 9a1 1 0 1 1 .001 1.999 1 1 0 0 1 -.001-1.999"/><path d="m1.676.813a1.093 1.093 0 1 1 0 2.187 1.093 1.093 0 0 1 0-2.187" mask="url(#am)" transform="translate(88 45)"/><path d="m703 28a1 1 0 1 1 0 2 1 1 0 0 1 0-2m-10 0a1 1 0 1 1 0 2 1 1 0 0 1 0-2m0 9a1 1 0 1 1 .001 1.999 1 1 0 0 1 -.001-1.999"/><path d="m2.066.813a1.093 1.093 0 1 1 -.001 2.187 1.093 1.093 0 0 1 0-2.187" mask="url(#an)" transform="translate(691 45)"/><path d="m683 28a1 1 0 1 1 0 2 1 1 0 0 1 0-2m0 9a1 1 0 1 1 .001 1.999 1 1 0 0 1 -.001-1.999"/><path d="m1.163.813a1.093 1.093 0 1 1 0 2.187 1.093 1.093 0 0 1 0-2.187" mask="url(#ao)" transform="translate(682 45)"/><path d="m673 28a1 1 0 1 1 0 2 1 1 0 0 1 0-2m0 9a1 1 0 1 1 .001 1.999 1 1 0 0 1 -.001-1.999"/><path d="m1.26.813a1.093 1.093 0 1 1 0 2.187 1.093 1.093 0 0 1 0-2.187" mask="url(#ap)" transform="translate(672 45)"/><path d="m664 28a1 1 0 1 1 0 2 1 1 0 0 1 0-2m0 9a1 1 0 1 1 .001 1.999 1 1 0 0 1 -.001-1.999"/><path d="m1.899.813a1.093 1.093 0 1 1 -.001 2.187 1.093 1.093 0 0 1 0-2.187" mask="url(#aq)" transform="translate(662 45)"/><path d="m654 28a1 1 0 1 1 0 2 1 1 0 0 1 0-2m0 9a1 1 0 1 1 .001 1.999 1 1 0 0 1 -.001-1.999"/><path d="m1.996.813a1.093 1.093 0 1 1 -.001 2.187 1.093 1.093 0 0 1 0-2.187" mask="url(#ar)" transform="translate(652 45)"/><path d="m644 28a1 1 0 1 1 0 2 1 1 0 0 1 0-2m0 9a1 1 0 1 1 .001 1.999 1 1 0 0 1 -.001-1.999"/><path d="m1.093.813a1.093 1.093 0 1 1 0 2.187 1.093 1.093 0 0 1 0-2.187" mask="url(#as)" transform="translate(643 45)"/><path d="m713 28a1 1 0 1 1 0 2 1 1 0 0 1 0-2"/><path d="m1.968.813a1.093 1.093 0 1 1 0 2.187 1.093 1.093 0 0 1 0-2.187" mask="url(#at)" transform="translate(701 45)"/><path d="m703 37a1 1 0 1 1 .001 1.999 1 1 0 0 1 -.001-1.999"/><path d="m1.142.813a1.093 1.093 0 1 1 -.002 2.187 1.093 1.093 0 0 1 0-2.187" mask="url(#au)" transform="translate(712 45)"/><path d="m713 37a1 1 0 1 1 .001 1.999 1 1 0 0 1 -.001-1.999m474-9a1 1 0 1 1 0 1.999 1 1 0 0 1 0-1.999m0 9a1 1 0 1 1 .001 1.998 1 1 0 0 1 0-1.998"/><path d="m1.308.813a1.093 1.093 0 1 1 -.001 2.187 1.093 1.093 0 0 1 0-2.187" mask="url(#av)" transform="translate(1185 45)"/><path d="m1256 28a1 1 0 1 1 0 2 1 1 0 0 1 0-2m0 9a1 1 0 1 1 0 2 1 1 0 0 1 0-2"/><path d="m1.356.813a1.094 1.094 0 1 1 0 2.189 1.094 1.094 0 0 1 0-2.189" mask="url(#aw)" transform="translate(1254 45)"/><path d="m1246 28a1 1 0 1 1 0 2 1 1 0 0 1 0-2m0 9a1 1 0 1 1 0 2 1 1 0 0 1 0-2"/><path d="m1.453.813a1.094 1.094 0 1 1 0 2.189 1.094 1.094 0 0 1 0-2.189" mask="url(#ax)" transform="translate(1244 45)"/><path d="m1236 28a1 1 0 1 1 0 1.999 1 1 0 0 1 0-1.999m0 9a1 1 0 1 1 .001 1.998 1 1 0 0 1 0-1.998"/><path d="m1.55.813a1.093 1.093 0 1 1 0 2.187 1.093 1.093 0 0 1 0-2.187" mask="url(#ay)" transform="translate(1234 45)"/><path d="m1226 28a1 1 0 1 1 0 2 1 1 0 0 1 0-2m0 9a1 1 0 1 1 0 2 1 1 0 0 1 0-2"/><path d="m1.648.813a1.094 1.094 0 1 1 0 2.189 1.094 1.094 0 0 1 0-2.189" mask="url(#az)" transform="translate(1224 45)"/><path d="m1217 28a1 1 0 1 1 0 2 1 1 0 0 1 0-2m0 9a1 1 0 1 1 .001 1.999 1 1 0 0 1 -.001-1.999"/><path d="m1.286.813a1.093 1.093 0 1 1 0 2.187 1.093 1.093 0 0 1 0-2.187" mask="url(#aA)" transform="translate(1216 45)"/><path d="m1207 28a1 1 0 1 1 0 1.999 1 1 0 0 1 0-1.999m0 9a1 1 0 1 1 .001 1.998 1 1 0 0 1 0-1.998"/><path d="m1.384.813a1.093 1.093 0 1 1 0 2.187 1.093 1.093 0 0 1 0-2.187" mask="url(#aB)" transform="translate(1205 45)"/><path d="m1197 28a1 1 0 1 1 0 2 1 1 0 0 1 0-2m0 9a1 1 0 1 1 0 2 1 1 0 0 1 0-2"/><path d="m1.48.813a1.094 1.094 0 1 1 0 2.189 1.094 1.094 0 0 1 0-2.189" mask="url(#aC)" transform="translate(1195 45)"/><path d="m1277 28a1 1 0 1 1 0 1.999 1 1 0 0 1 0-1.999m0 9a1 1 0 1 1 .001 1.998 1 1 0 0 1 0-1.998"/><path d="m2.022.813a1.093 1.093 0 1 1 -.002 2.187 1.093 1.093 0 0 1 0-2.187" mask="url(#aD)" transform="translate(1275 45)"/><path d="m1267 28a1 1 0 1 1 0 2 1 1 0 0 1 0-2m0 9a1 1 0 1 1 0 2 1 1 0 0 1 0-2"/><path d="m1.118.813a1.094 1.094 0 1 1 0 2.189 1.094 1.094 0 0 1 0-2.189" mask="url(#aE)" transform="translate(1266 45)"/><path d="m1167 28a1 1 0 1 1 0 2 1 1 0 0 1 0-2m0 9a1 1 0 1 1 0 2 1 1 0 0 1 0-2"/><path d="m1.502.813a1.094 1.094 0 1 1 0 2.189 1.094 1.094 0 0 1 0-2.189" mask="url(#aF)" transform="translate(1165 45)"/><path d="m1177 28a1 1 0 1 1 0 1.999 1 1 0 0 1 0-1.999m0 9a1 1 0 1 1 .001 1.998 1 1 0 0 1 0-1.998"/><path d="m1.676.813a1.093 1.093 0 1 1 0 2.187 1.093 1.093 0 0 1 0-2.187" mask="url(#aG)" transform="translate(1175 45)"/><path d="m1147 28a1 1 0 1 1 0 2 1 1 0 0 1 0-2m0 9a1 1 0 1 1 0 2 1 1 0 0 1 0-2"/><path d="m1.696.813a1.094 1.094 0 1 1 0 2.189 1.094 1.094 0 0 1 0-2.189" mask="url(#aH)" transform="translate(1145 45)"/><path d="m1157 28a1 1 0 1 1 0 1.999 1 1 0 0 1 0-1.999m0 9a1 1 0 1 1 .001 1.998 1 1 0 0 1 0-1.998"/><path d="m1.87.813a1.093 1.093 0 1 1 0 2.187 1.093 1.093 0 0 1 0-2.187" mask="url(#aI)" transform="translate(1155 45)"/><path d="m1127 28a1 1 0 1 1 0 1.999 1 1 0 0 1 0-1.999m0 9a1 1 0 1 1 .001 1.998 1 1 0 0 1 0-1.998"/><path d="m1.892.813a1.093 1.093 0 1 1 -.002 2.187 1.093 1.093 0 0 1 0-2.187" mask="url(#aJ)" transform="translate(1125 45)"/><path d="m1137 28a1 1 0 1 1 0 2 1 1 0 0 1 0-2m0 9a1 1 0 1 1 0 2 1 1 0 0 1 0-2"/><path d="m2.064.813a1.094 1.094 0 1 1 0 2.189 1.094 1.094 0 0 1 0-2.189" mask="url(#aK)" transform="translate(1135 45)"/><path d="m1107 28a1 1 0 1 1 0 1.999 1 1 0 0 1 0-1.999m0 9a1 1 0 1 1 .001 1.998 1 1 0 0 1 0-1.998"/><path d="m2.086.813a1.093 1.093 0 1 1 0 2.187 1.093 1.093 0 0 1 0-2.187" mask="url(#aL)" transform="translate(1105 45)"/><path d="m1118 28a1 1 0 1 1 0 2 1 1 0 0 1 0-2m0 9a1 1 0 1 1 0 2 1 1 0 0 1 0-2"/><path d="m1.259.813a1.094 1.094 0 1 1 0 2.189 1.094 1.094 0 0 1 0-2.189" mask="url(#aM)" transform="translate(1116 45)"/><path d="m1088 28a1 1 0 1 1 0 2 1 1 0 0 1 0-2m0 9a1 1 0 1 1 0 2 1 1 0 0 1 0-2"/><path d="m1.28.813a1.094 1.094 0 1 1 0 2.189 1.094 1.094 0 0 1 0-2.189" mask="url(#aN)" transform="translate(1086 45)"/><path d="m1098 28a1 1 0 1 1 0 1.999 1 1 0 0 1 0-1.999m0 9a1 1 0 1 1 .001 1.998 1 1 0 0 1 0-1.998"/><path d="m1.454.813a1.093 1.093 0 1 1 0 2.187 1.093 1.093 0 0 1 0-2.187" mask="url(#aO)" transform="translate(1096 45)"/><path d="m1068 28a1 1 0 1 1 0 2 1 1 0 0 1 0-2m0 9a1 1 0 1 1 0 2 1 1 0 0 1 0-2"/><path d="m1.475.813a1.094 1.094 0 1 1 0 2.189 1.094 1.094 0 0 1 0-2.189" mask="url(#aP)" transform="translate(1066 45)"/><path d="m1078 28a1 1 0 1 1 0 1.999 1 1 0 0 1 0-1.999m0 9a1 1 0 1 1 .001 1.998 1 1 0 0 1 0-1.998"/><path d="m1.649.813a1.093 1.093 0 1 1 -.001 2.187 1.093 1.093 0 0 1 0-2.187" mask="url(#aQ)" transform="translate(1076 45)"/><path d="m1048 28a1 1 0 1 1 0 1.999 1 1 0 0 1 0-1.999m0 9a1 1 0 1 1 .001 1.998 1 1 0 0 1 0-1.998"/><path d="m1.67.813a1.093 1.093 0 1 1 0 2.187 1.093 1.093 0 0 1 0-2.187" mask="url(#aR)" transform="translate(1046 45)"/><path d="m1058 28a1 1 0 1 1 0 2 1 1 0 0 1 0-2m0 9a1 1 0 1 1 0 2 1 1 0 0 1 0-2"/><path d="m1.843.813a1.094 1.094 0 1 1 0 2.189 1.094 1.094 0 0 1 0-2.189" mask="url(#aS)" transform="translate(1056 45)"/><path d="m1028 28a1 1 0 1 1 0 2 1 1 0 0 1 0-2m0 9a1 1 0 1 1 .001 1.999 1 1 0 0 1 -.001-1.999"/><path d="m1.864.813a1.093 1.093 0 1 1 0 2.187 1.093 1.093 0 0 1 0-2.187" mask="url(#aT)" transform="translate(1026 45)"/><path d="m1038 28a1 1 0 1 1 0 2 1 1 0 0 1 0-2m0 9a1 1 0 1 1 0 2 1 1 0 0 1 0-2"/><path d="m2.037.813a1.094 1.094 0 1 1 0 2.189 1.094 1.094 0 0 1 0-2.189" mask="url(#aU)" transform="translate(1036 45)"/><path d="m1008 28a1 1 0 1 1 0 2 1 1 0 0 1 0-2m0 9a1 1 0 1 1 0 2 1 1 0 0 1 0-2"/><path d="m2.059.813a1.094 1.094 0 1 1 0 2.189 1.094 1.094 0 0 1 0-2.189" mask="url(#aV)" transform="translate(1006 45)"/><path d="m1018 28a1 1 0 1 1 0 1.999 1 1 0 0 1 0-1.999m0 9a1 1 0 1 1 .001 1.998 1 1 0 0 1 0-1.998"/><path d="m1.232.813a1.093 1.093 0 1 1 0 2.187 1.093 1.093 0 0 1 0-2.187" mask="url(#aW)" transform="translate(1017 45)"/><path d="m988 28a1 1 0 1 1 0 1.999 1 1 0 0 1 0-1.999m0 9a1 1 0 1 1 .001 1.998 1 1 0 0 1 0-1.998"/><path d="m1.254.813a1.093 1.093 0 1 1 0 2.187 1.093 1.093 0 0 1 0-2.187" mask="url(#aX)" transform="translate(987 45)"/><path d="m999 28a1 1 0 1 1 0 2 1 1 0 0 1 0-2m0 9a1 1 0 1 1 .001 1.999 1 1 0 0 1 -.001-1.999"/><path d="m1.427.813a1.093 1.093 0 1 1 -.001 2.187 1.093 1.093 0 0 1 0-2.187" mask="url(#aY)" transform="translate(997 45)"/><path d="m969 28a1 1 0 1 1 0 1.999 1 1 0 0 1 0-1.999m0 9a1 1 0 1 1 .001 1.998 1 1 0 0 1 0-1.998"/><path d="m1.448.813a1.093 1.093 0 1 1 0 2.187 1.093 1.093 0 0 1 0-2.187" mask="url(#aZ)" transform="translate(967 45)"/><path d="m979 28a1 1 0 1 1 0 2 1 1 0 0 1 0-2m0 9a1 1 0 1 1 0 2 1 1 0 0 1 0-2"/><path d="m1.621.813a1.094 1.094 0 1 1 0 2.189 1.094 1.094 0 0 1 0-2.189" mask="url(#a0)" transform="translate(977 45)"/><path d="m949 28a1 1 0 1 1 0 2 1 1 0 0 1 0-2m0 9a1 1 0 1 1 .001 1.999 1 1 0 0 1 -.001-1.999"/><path d="m1.643.813a1.093 1.093 0 1 1 -.001 2.187 1.093 1.093 0 0 1 0-2.187" mask="url(#a1)" transform="translate(947 45)"/><path d="m959 28a1 1 0 1 1 0 2 1 1 0 0 1 0-2m0 9a1 1 0 1 1 .001 1.999 1 1 0 0 1 -.001-1.999"/><path d="m1.816.813a1.093 1.093 0 1 1 0 2.187 1.093 1.093 0 0 1 0-2.187" mask="url(#a2)" transform="translate(957 45)"/><path d="m929 28a1 1 0 1 1 0 2 1 1 0 0 1 0-2m0 9a1 1 0 1 1 .001 1.999 1 1 0 0 1 -.001-1.999"/><path d="m1.837.813a1.093 1.093 0 1 1 0 2.187 1.093 1.093 0 0 1 0-2.187" mask="url(#a3)" transform="translate(927 45)"/><path d="m939 28a1 1 0 1 1 0 2 1 1 0 0 1 0-2m0 9a1 1 0 1 1 0 2 1 1 0 0 1 0-2"/><path d="m2.01.813a1.094 1.094 0 1 1 0 2.189 1.094 1.094 0 0 1 0-2.189" mask="url(#a4)" transform="translate(937 45)"/><path d="m909 28a1 1 0 1 1 0 2 1 1 0 0 1 0-2m0 9a1 1 0 1 1 .001 1.999 1 1 0 0 1 -.001-1.999"/><path d="m2.032.813a1.093 1.093 0 1 1 -.002 2.187 1.093 1.093 0 0 1 0-2.187" mask="url(#a5)" transform="translate(907 45)"/><path d="m919 28a1 1 0 1 1 0 2 1 1 0 0 1 0-2m0 9a1 1 0 1 1 .001 1.999 1 1 0 0 1 -.001-1.999"/><path d="m1.205.813a1.093 1.093 0 1 1 0 2.187 1.093 1.093 0 0 1 0-2.187" mask="url(#a6)" transform="translate(918 45)"/><path d="m889 28a1 1 0 1 1 0 2 1 1 0 0 1 0-2m0 9a1 1 0 1 1 .001 1.999 1 1 0 0 1 -.001-1.999"/><path d="m1.227.813a1.093 1.093 0 1 1 -.001 2.187 1.093 1.093 0 0 1 0-2.187" mask="url(#a7)" transform="translate(888 45)"/><path d="m899 28a1 1 0 1 1 0 2 1 1 0 0 1 0-2m0 9a1 1 0 1 1 .001 1.999 1 1 0 0 1 -.001-1.999"/><path d="m1.4.813a1.093 1.093 0 1 1 0 2.187 1.093 1.093 0 0 1 0-2.187" mask="url(#a8)" transform="translate(898 45)"/><path d="m869 28a1 1 0 1 1 0 2 1 1 0 0 1 0-2m0 9a1 1 0 1 1 .001 1.999 1 1 0 0 1 -.001-1.999"/><path d="m1.421.813a1.093 1.093 0 1 1 0 2.187 1.093 1.093 0 0 1 0-2.187" mask="url(#a9)" transform="translate(868 45)"/><path d="m880 28a1 1 0 1 1 0 2 1 1 0 0 1 0-2m0 9a1 1 0 1 1 .001 1.999 1 1 0 0 1 -.001-1.999"/><path d="m1.594.813a1.093 1.093 0 1 1 0 2.187 1.093 1.093 0 0 1 0-2.187" mask="url(#ba)" transform="translate(878 45)"/><path d="m851 28a1 1 0 1 1 0 2 1 1 0 0 1 0-2m0 9a1 1 0 1 1 .001 1.999 1 1 0 0 1 -.001-1.999"/><path d="m1.238.813a1.093 1.093 0 1 1 0 2.187 1.093 1.093 0 0 1 0-2.187" mask="url(#bb)" transform="translate(850 45)"/><path d="m860 28a1 1 0 1 1 0 2 1 1 0 0 1 0-2m0 9a1 1 0 1 1 .001 1.999 1 1 0 0 1 -.001-1.999"/><path d="m1.79.813a1.093 1.093 0 1 1 -.003 2.187 1.093 1.093 0 0 1 .003-2.187" mask="url(#bc)" transform="translate(858 45)"/><path d="m831 28a1 1 0 1 1 0 2 1 1 0 0 1 0-2m0 9a1 1 0 1 1 .001 1.999 1 1 0 0 1 -.001-1.999"/><path d="m1.163.813a1.093 1.093 0 1 1 -.001 2.187 1.093 1.093 0 0 1 0-2.187" mask="url(#bd)" transform="translate(830 45)"/><path d="m841 28a1 1 0 1 1 0 1.999 1 1 0 0 1 0-1.999m0 9a1 1 0 1 1 .001 1.998 1 1 0 0 1 0-1.998"/><path d="m2.066.813a1.093 1.093 0 1 1 -.001 2.187 1.093 1.093 0 0 1 0-2.187" mask="url(#be)" transform="translate(839 45)"/><path d="m811 28a1 1 0 1 1 0 2 1 1 0 0 1 0-2m0 9a1 1 0 1 1 .001 1.999 1 1 0 0 1 -.001-1.999"/><path d="m1.357.813a1.093 1.093 0 1 1 0 2.187 1.093 1.093 0 0 1 0-2.187" mask="url(#bf)" transform="translate(810 45)"/><path d="m821 28a1 1 0 1 1 0 2 1 1 0 0 1 0-2m0 9a1 1 0 1 1 .001 1.999 1 1 0 0 1 -.001-1.999"/><path d="m1.26.813a1.093 1.093 0 1 1 0 2.187 1.093 1.093 0 0 1 0-2.187" mask="url(#bg)" transform="translate(820 45)"/><path d="m792 28a1 1 0 1 1 0 2 1 1 0 0 1 0-2m0 9a1 1 0 1 1 .001 1.999 1 1 0 0 1 -.001-1.999"/><path d="m1.093.813a1.093 1.093 0 1 1 0 2.187 1.093 1.093 0 0 1 0-2.187" mask="url(#bh)" transform="translate(791 45)"/><path d="m802 28a1 1 0 1 1 0 1.999 1 1 0 0 1 0-1.999m0 9a1 1 0 1 1 .001 1.998 1 1 0 0 1 0-1.998"/><path d="m1.996.813a1.093 1.093 0 1 1 -.001 2.187 1.093 1.093 0 0 1 0-2.187" mask="url(#bi)" transform="translate(800 45)"/><path d="m772 28a1 1 0 1 1 0 2 1 1 0 0 1 0-2m0 9a1 1 0 1 1 .001 1.999 1 1 0 0 1 -.001-1.999"/><path d="m2.017.813a1.093 1.093 0 1 1 -.001 2.187 1.093 1.093 0 0 1 0-2.187" mask="url(#bj)" transform="translate(770 45)"/><path d="m782 28a1 1 0 1 1 0 2 1 1 0 0 1 0-2m0 9a1 1 0 1 1 .001 1.999 1 1 0 0 1 -.001-1.999"/><path d="m1.19.813a1.093 1.093 0 1 1 0 2.187 1.093 1.093 0 0 1 0-2.187" mask="url(#bk)" transform="translate(781 45)"/><path d="m752 28a1 1 0 1 1 0 2 1 1 0 0 1 0-2m0 9a1 1 0 1 1 .001 1.999 1 1 0 0 1 -.001-1.999"/><path d="m1.212.813a1.093 1.093 0 1 1 -.002 2.187 1.093 1.093 0 0 1 0-2.187" mask="url(#bl)" transform="translate(751 45)"/><path d="m762 28a1 1 0 1 1 0 2 1 1 0 0 1 0-2m0 9a1 1 0 1 1 0 2 1 1 0 0 1 0-2"/><path d="m1.114.813a1.094 1.094 0 1 1 0 2.189 1.094 1.094 0 0 1 0-2.189" mask="url(#bm)" transform="translate(761 45)"/><path d="m723 28a1 1 0 1 1 0 1.999 1 1 0 0 1 0-1.999m0 9a1 1 0 1 1 .001 1.998 1 1 0 0 1 0-1.998"/><path d="m1.774.813a1.093 1.093 0 1 1 0 2.187 1.093 1.093 0 0 1 0-2.187" mask="url(#bn)" transform="translate(721 45)"/><path d="m743 28a1 1 0 1 1 0 2 1 1 0 0 1 0-2m0 9a1 1 0 1 1 .001 1.999 1 1 0 0 1 -.001-1.999"/><path d="m1.865.813a1.093 1.093 0 1 1 0 2.187 1.093 1.093 0 0 1 0-2.187" mask="url(#bo)" transform="translate(741 45)"/><path d="m733 28a1 1 0 1 1 0 2 1 1 0 0 1 0-2m0 9a1 1 0 1 1 .001 1.999 1 1 0 0 1 -.001-1.999"/><path d="m1.676.813a1.093 1.093 0 1 1 0 2.187 1.093 1.093 0 0 1 0-2.187" mask="url(#bp)" transform="translate(731 45)"/><path d="m60 0a1 1 0 1 1 0 2 1 1 0 0 1 0-2m-10 0a1 1 0 1 1 0 2 1 1 0 0 1 0-2m0 9a1 1 0 1 1 .001 1.999 1 1 0 0 1 -.001-1.999"/><path d="m2.066.813a1.093 1.093 0 1 1 -.001 2.187 1.093 1.093 0 0 1 0-2.187" mask="url(#bq)" transform="translate(48 17)"/><path d="m40 0a1 1 0 1 1 0 2 1 1 0 0 1 0-2m0 9a1 1 0 1 1 .001 1.999 1 1 0 0 1 -.001-1.999"/><path d="m1.163.813a1.093 1.093 0 1 1 0 2.187 1.093 1.093 0 0 1 0-2.187" mask="url(#br)" transform="translate(39 17)"/><path d="m30 0a1 1 0 1 1 0 2 1 1 0 0 1 0-2m0 9a1 1 0 1 1 .001 1.999 1 1 0 0 1 -.001-1.999"/><path d="m1.26.813a1.093 1.093 0 1 1 0 2.187 1.093 1.093 0 0 1 0-2.187" mask="url(#bs)" transform="translate(29 17)"/><path d="m21 0a1 1 0 1 1 0 2 1 1 0 0 1 0-2m0 9a1 1 0 1 1 .001 1.999 1 1 0 0 1 -.001-1.999"/><path d="m1.899.813a1.093 1.093 0 1 1 -.001 2.187 1.093 1.093 0 0 1 0-2.187" mask="url(#bt)" transform="translate(19 17)"/><path d="m11 0a1 1 0 1 1 0 2 1 1 0 0 1 0-2m0 9a1 1 0 1 1 .001 1.999 1 1 0 0 1 -.001-1.999"/><path d="m1.996.813a1.093 1.093 0 1 1 -.001 2.187 1.093 1.093 0 0 1 0-2.187" mask="url(#bu)" transform="translate(9 17)"/><path d="m1 0a1 1 0 1 1 0 2 1 1 0 0 1 0-2m0 9a1 1 0 1 1 .001 1.999 1 1 0 0 1 -.001-1.999"/><path d="m1.093.813a1.093 1.093 0 1 1 0 2.187 1.093 1.093 0 0 1 0-2.187" mask="url(#bv)" transform="translate(0 17)"/><path d="m70 0a1 1 0 1 1 0 2 1 1 0 0 1 0-2"/><path d="m1.968.813a1.093 1.093 0 1 1 0 2.187 1.093 1.093 0 0 1 0-2.187" mask="url(#bw)" transform="translate(58 17)"/><path d="m60 9a1 1 0 1 1 .001 1.999 1 1 0 0 1 -.001-1.999"/><path d="m1.142.813a1.093 1.093 0 1 1 -.002 2.187 1.093 1.093 0 0 1 0-2.187" mask="url(#bx)" transform="translate(69 17)"/><path d="m70 9a1 1 0 1 1 .001 1.999 1 1 0 0 1 -.001-1.999m474-9a1 1 0 1 1 0 1.999 1 1 0 0 1 0-1.999m0 9a1 1 0 1 1 .001 1.998 1 1 0 0 1 0-1.998"/><path d="m1.308.813a1.093 1.093 0 1 1 -.001 2.187 1.093 1.093 0 0 1 0-2.187" mask="url(#by)" transform="translate(542 17)"/><path d="m613 0a1 1 0 1 1 0 2 1 1 0 0 1 0-2m0 9a1 1 0 1 1 0 2 1 1 0 0 1 0-2"/><path d="m1.356.813a1.094 1.094 0 1 1 0 2.189 1.094 1.094 0 0 1 0-2.189" mask="url(#bz)" transform="translate(611 17)"/><path d="m603 0a1 1 0 1 1 0 2 1 1 0 0 1 0-2m0 9a1 1 0 1 1 0 2 1 1 0 0 1 0-2"/><path d="m1.453.813a1.094 1.094 0 1 1 0 2.189 1.094 1.094 0 0 1 0-2.189" mask="url(#bA)" transform="translate(601 17)"/><path d="m593 0a1 1 0 1 1 0 1.999 1 1 0 0 1 0-1.999m0 9a1 1 0 1 1 .001 1.998 1 1 0 0 1 0-1.998"/><path d="m1.55.813a1.093 1.093 0 1 1 0 2.187 1.093 1.093 0 0 1 0-2.187" mask="url(#bB)" transform="translate(591 17)"/><path d="m583 0a1 1 0 1 1 0 2 1 1 0 0 1 0-2m0 9a1 1 0 1 1 0 2 1 1 0 0 1 0-2"/><path d="m1.648.813a1.094 1.094 0 1 1 0 2.189 1.094 1.094 0 0 1 0-2.189" mask="url(#bC)" transform="translate(581 17)"/><path d="m574 0a1 1 0 1 1 0 2 1 1 0 0 1 0-2m0 9a1 1 0 1 1 .001 1.999 1 1 0 0 1 -.001-1.999"/><path d="m1.286.813a1.093 1.093 0 1 1 0 2.187 1.093 1.093 0 0 1 0-2.187" mask="url(#bD)" transform="translate(573 17)"/><path d="m564 0a1 1 0 1 1 0 1.999 1 1 0 0 1 0-1.999m0 9a1 1 0 1 1 .001 1.998 1 1 0 0 1 0-1.998"/><path d="m1.384.813a1.093 1.093 0 1 1 0 2.187 1.093 1.093 0 0 1 0-2.187" mask="url(#bE)" transform="translate(562 17)"/><path d="m554 0a1 1 0 1 1 0 2 1 1 0 0 1 0-2m0 9a1 1 0 1 1 0 2 1 1 0 0 1 0-2"/><path d="m1.48.813a1.094 1.094 0 1 1 0 2.189 1.094 1.094 0 0 1 0-2.189" mask="url(#bF)" transform="translate(552 17)"/><path d="m634 0a1 1 0 1 1 0 1.999 1 1 0 0 1 0-1.999m0 9a1 1 0 1 1 .001 1.998 1 1 0 0 1 0-1.998"/><path d="m2.022.813a1.093 1.093 0 1 1 -.002 2.187 1.093 1.093 0 0 1 0-2.187" mask="url(#bG)" transform="translate(632 17)"/><path d="m624 0a1 1 0 1 1 0 2 1 1 0 0 1 0-2m0 9a1 1 0 1 1 0 2 1 1 0 0 1 0-2"/><path d="m1.118.813a1.094 1.094 0 1 1 0 2.189 1.094 1.094 0 0 1 0-2.189" mask="url(#bH)" transform="translate(623 17)"/><path d="m524 0a1 1 0 1 1 0 2 1 1 0 0 1 0-2m0 9a1 1 0 1 1 0 2 1 1 0 0 1 0-2"/><path d="m1.502.813a1.094 1.094 0 1 1 0 2.189 1.094 1.094 0 0 1 0-2.189" mask="url(#bI)" transform="translate(522 17)"/><path d="m534 0a1 1 0 1 1 0 1.999 1 1 0 0 1 0-1.999m0 9a1 1 0 1 1 .001 1.998 1 1 0 0 1 0-1.998"/><path d="m1.676.813a1.093 1.093 0 1 1 0 2.187 1.093 1.093 0 0 1 0-2.187" mask="url(#bJ)" transform="translate(532 17)"/><path d="m504 0a1 1 0 1 1 0 2 1 1 0 0 1 0-2m0 9a1 1 0 1 1 0 2 1 1 0 0 1 0-2"/><path d="m1.696.813a1.094 1.094 0 1 1 0 2.189 1.094 1.094 0 0 1 0-2.189" mask="url(#bK)" transform="translate(502 17)"/><path d="m514 0a1 1 0 1 1 0 1.999 1 1 0 0 1 0-1.999m0 9a1 1 0 1 1 .001 1.998 1 1 0 0 1 0-1.998"/><path d="m1.87.813a1.093 1.093 0 1 1 0 2.187 1.093 1.093 0 0 1 0-2.187" mask="url(#bL)" transform="translate(512 17)"/><path d="m484 0a1 1 0 1 1 0 1.999 1 1 0 0 1 0-1.999m0 9a1 1 0 1 1 .001 1.998 1 1 0 0 1 0-1.998"/><path d="m1.892.813a1.093 1.093 0 1 1 -.002 2.187 1.093 1.093 0 0 1 0-2.187" mask="url(#bM)" transform="translate(482 17)"/><path d="m494 0a1 1 0 1 1 0 2 1 1 0 0 1 0-2m0 9a1 1 0 1 1 0 2 1 1 0 0 1 0-2"/><path d="m2.064.813a1.094 1.094 0 1 1 0 2.189 1.094 1.094 0 0 1 0-2.189" mask="url(#bN)" transform="translate(492 17)"/><path d="m464 0a1 1 0 1 1 0 1.999 1 1 0 0 1 0-1.999m0 9a1 1 0 1 1 .001 1.998 1 1 0 0 1 0-1.998"/><path d="m2.086.813a1.093 1.093 0 1 1 0 2.187 1.093 1.093 0 0 1 0-2.187" mask="url(#bO)" transform="translate(462 17)"/><path d="m475 0a1 1 0 1 1 0 2 1 1 0 0 1 0-2m0 9a1 1 0 1 1 0 2 1 1 0 0 1 0-2"/><path d="m1.259.813a1.094 1.094 0 1 1 0 2.189 1.094 1.094 0 0 1 0-2.189" mask="url(#bP)" transform="translate(473 17)"/><path d="m445 0a1 1 0 1 1 0 2 1 1 0 0 1 0-2m0 9a1 1 0 1 1 0 2 1 1 0 0 1 0-2"/><path d="m1.28.813a1.094 1.094 0 1 1 0 2.189 1.094 1.094 0 0 1 0-2.189" mask="url(#bQ)" transform="translate(443 17)"/><path d="m455 0a1 1 0 1 1 0 1.999 1 1 0 0 1 0-1.999m0 9a1 1 0 1 1 .001 1.998 1 1 0 0 1 0-1.998"/><path d="m1.454.813a1.093 1.093 0 1 1 0 2.187 1.093 1.093 0 0 1 0-2.187" mask="url(#bR)" transform="translate(453 17)"/><path d="m425 0a1 1 0 1 1 0 2 1 1 0 0 1 0-2m0 9a1 1 0 1 1 0 2 1 1 0 0 1 0-2"/><path d="m1.475.813a1.094 1.094 0 1 1 0 2.189 1.094 1.094 0 0 1 0-2.189" mask="url(#bS)" transform="translate(423 17)"/><path d="m435 0a1 1 0 1 1 0 1.999 1 1 0 0 1 0-1.999m0 9a1 1 0 1 1 .001 1.998 1 1 0 0 1 0-1.998"/><path d="m1.649.813a1.093 1.093 0 1 1 -.001 2.187 1.093 1.093 0 0 1 0-2.187" mask="url(#bT)" transform="translate(433 17)"/><path d="m405 0a1 1 0 1 1 0 1.999 1 1 0 0 1 0-1.999m0 9a1 1 0 1 1 .001 1.998 1 1 0 0 1 0-1.998"/><path d="m1.67.813a1.093 1.093 0 1 1 0 2.187 1.093 1.093 0 0 1 0-2.187" mask="url(#bU)" transform="translate(403 17)"/><path d="m415 0a1 1 0 1 1 0 2 1 1 0 0 1 0-2m0 9a1 1 0 1 1 0 2 1 1 0 0 1 0-2"/><path d="m1.843.813a1.094 1.094 0 1 1 0 2.189 1.094 1.094 0 0 1 0-2.189" mask="url(#bV)" transform="translate(413 17)"/><path d="m385 0a1 1 0 1 1 0 2 1 1 0 0 1 0-2m0 9a1 1 0 1 1 .001 1.999 1 1 0 0 1 -.001-1.999"/><path d="m1.864.813a1.093 1.093 0 1 1 0 2.187 1.093 1.093 0 0 1 0-2.187" mask="url(#bW)" transform="translate(383 17)"/><path d="m395 0a1 1 0 1 1 0 2 1 1 0 0 1 0-2m0 9a1 1 0 1 1 0 2 1 1 0 0 1 0-2"/><path d="m2.037.813a1.094 1.094 0 1 1 0 2.189 1.094 1.094 0 0 1 0-2.189" mask="url(#bX)" transform="translate(393 17)"/><path d="m365 0a1 1 0 1 1 0 2 1 1 0 0 1 0-2m0 9a1 1 0 1 1 0 2 1 1 0 0 1 0-2"/><path d="m2.059.813a1.094 1.094 0 1 1 0 2.189 1.094 1.094 0 0 1 0-2.189" mask="url(#bY)" transform="translate(363 17)"/><path d="m375 0a1 1 0 1 1 0 1.999 1 1 0 0 1 0-1.999m0 9a1 1 0 1 1 .001 1.998 1 1 0 0 1 0-1.998"/><path d="m1.232.813a1.093 1.093 0 1 1 0 2.187 1.093 1.093 0 0 1 0-2.187" mask="url(#bZ)" transform="translate(374 17)"/><path d="m345 0a1 1 0 1 1 0 1.999 1 1 0 0 1 0-1.999m0 9a1 1 0 1 1 .001 1.998 1 1 0 0 1 0-1.998"/><path d="m1.254.813a1.093 1.093 0 1 1 0 2.187 1.093 1.093 0 0 1 0-2.187" mask="url(#b0)" transform="translate(344 17)"/><path d="m356 0a1 1 0 1 1 0 2 1 1 0 0 1 0-2m0 9a1 1 0 1 1 .001 1.999 1 1 0 0 1 -.001-1.999"/><path d="m1.427.813a1.093 1.093 0 1 1 -.001 2.187 1.093 1.093 0 0 1 0-2.187" mask="url(#b1)" transform="translate(354 17)"/><path d="m326 0a1 1 0 1 1 0 1.999 1 1 0 0 1 0-1.999m0 9a1 1 0 1 1 .001 1.998 1 1 0 0 1 0-1.998"/><path d="m1.448.813a1.093 1.093 0 1 1 0 2.187 1.093 1.093 0 0 1 0-2.187" mask="url(#b2)" transform="translate(324 17)"/><path d="m336 0a1 1 0 1 1 0 2 1 1 0 0 1 0-2m0 9a1 1 0 1 1 0 2 1 1 0 0 1 0-2"/><path d="m1.621.813a1.094 1.094 0 1 1 0 2.189 1.094 1.094 0 0 1 0-2.189" mask="url(#b3)" transform="translate(334 17)"/><path d="m306 0a1 1 0 1 1 0 2 1 1 0 0 1 0-2m0 9a1 1 0 1 1 .001 1.999 1 1 0 0 1 -.001-1.999"/><path d="m1.643.813a1.093 1.093 0 1 1 -.001 2.187 1.093 1.093 0 0 1 0-2.187" mask="url(#b4)" transform="translate(304 17)"/><path d="m316 0a1 1 0 1 1 0 2 1 1 0 0 1 0-2m0 9a1 1 0 1 1 .001 1.999 1 1 0 0 1 -.001-1.999"/><path d="m1.816.813a1.093 1.093 0 1 1 0 2.187 1.093 1.093 0 0 1 0-2.187" mask="url(#b5)" transform="translate(314 17)"/><path d="m286 0a1 1 0 1 1 0 2 1 1 0 0 1 0-2m0 9a1 1 0 1 1 .001 1.999 1 1 0 0 1 -.001-1.999"/><path d="m1.837.813a1.093 1.093 0 1 1 0 2.187 1.093 1.093 0 0 1 0-2.187" mask="url(#b6)" transform="translate(284 17)"/><path d="m296 0a1 1 0 1 1 0 2 1 1 0 0 1 0-2m0 9a1 1 0 1 1 0 2 1 1 0 0 1 0-2"/><path d="m2.01.813a1.094 1.094 0 1 1 0 2.189 1.094 1.094 0 0 1 0-2.189" mask="url(#b7)" transform="translate(294 17)"/><path d="m266 0a1 1 0 1 1 0 2 1 1 0 0 1 0-2m0 9a1 1 0 1 1 .001 1.999 1 1 0 0 1 -.001-1.999"/><path d="m2.032.813a1.093 1.093 0 1 1 -.002 2.187 1.093 1.093 0 0 1 0-2.187" mask="url(#b8)" transform="translate(264 17)"/><path d="m276 0a1 1 0 1 1 0 2 1 1 0 0 1 0-2m0 9a1 1 0 1 1 .001 1.999 1 1 0 0 1 -.001-1.999"/><path d="m1.205.813a1.093 1.093 0 1 1 0 2.187 1.093 1.093 0 0 1 0-2.187" mask="url(#b9)" transform="translate(275 17)"/><path d="m246 0a1 1 0 1 1 0 2 1 1 0 0 1 0-2m0 9a1 1 0 1 1 .001 1.999 1 1 0 0 1 -.001-1.999"/><path d="m1.227.813a1.093 1.093 0 1 1 -.001 2.187 1.093 1.093 0 0 1 0-2.187" mask="url(#ca)" transform="translate(245 17)"/><path d="m256 0a1 1 0 1 1 0 2 1 1 0 0 1 0-2m0 9a1 1 0 1 1 .001 1.999 1 1 0 0 1 -.001-1.999"/><path d="m1.4.813a1.093 1.093 0 1 1 0 2.187 1.093 1.093 0 0 1 0-2.187" mask="url(#cb)" transform="translate(255 17)"/><path d="m226 0a1 1 0 1 1 0 2 1 1 0 0 1 0-2m0 9a1 1 0 1 1 .001 1.999 1 1 0 0 1 -.001-1.999"/><path d="m1.421.813a1.093 1.093 0 1 1 0 2.187 1.093 1.093 0 0 1 0-2.187" mask="url(#cc)" transform="translate(225 17)"/><path d="m237 0a1 1 0 1 1 0 2 1 1 0 0 1 0-2m0 9a1 1 0 1 1 .001 1.999 1 1 0 0 1 -.001-1.999"/><path d="m1.594.813a1.093 1.093 0 1 1 0 2.187 1.093 1.093 0 0 1 0-2.187" mask="url(#cd)" transform="translate(235 17)"/><path d="m208 0a1 1 0 1 1 0 2 1 1 0 0 1 0-2m0 9a1 1 0 1 1 .001 1.999 1 1 0 0 1 -.001-1.999"/><path d="m1.238.813a1.093 1.093 0 1 1 0 2.187 1.093 1.093 0 0 1 0-2.187" mask="url(#ce)" transform="translate(207 17)"/><path d="m217 0a1 1 0 1 1 0 2 1 1 0 0 1 0-2m0 9a1 1 0 1 1 .001 1.999 1 1 0 0 1 -.001-1.999"/><path d="m1.79.813a1.093 1.093 0 1 1 -.003 2.187 1.093 1.093 0 0 1 .003-2.187" mask="url(#cf)" transform="translate(215 17)"/><path d="m188 0a1 1 0 1 1 0 2 1 1 0 0 1 0-2m0 9a1 1 0 1 1 .001 1.999 1 1 0 0 1 -.001-1.999"/><path d="m1.163.813a1.093 1.093 0 1 1 -.001 2.187 1.093 1.093 0 0 1 0-2.187" mask="url(#cg)" transform="translate(187 17)"/><path d="m198 0a1 1 0 1 1 0 1.999 1 1 0 0 1 0-1.999m0 9a1 1 0 1 1 .001 1.998 1 1 0 0 1 0-1.998"/><path d="m2.066.813a1.093 1.093 0 1 1 -.001 2.187 1.093 1.093 0 0 1 0-2.187" mask="url(#ch)" transform="translate(196 17)"/><path d="m168 0a1 1 0 1 1 0 2 1 1 0 0 1 0-2m0 9a1 1 0 1 1 .001 1.999 1 1 0 0 1 -.001-1.999"/><path d="m1.357.813a1.093 1.093 0 1 1 0 2.187 1.093 1.093 0 0 1 0-2.187" mask="url(#ci)" transform="translate(167 17)"/><path d="m178 0a1 1 0 1 1 0 2 1 1 0 0 1 0-2m0 9a1 1 0 1 1 .001 1.999 1 1 0 0 1 -.001-1.999"/><path d="m1.26.813a1.093 1.093 0 1 1 0 2.187 1.093 1.093 0 0 1 0-2.187" mask="url(#cj)" transform="translate(177 17)"/><path d="m149 0a1 1 0 1 1 0 2 1 1 0 0 1 0-2m0 9a1 1 0 1 1 .001 1.999 1 1 0 0 1 -.001-1.999"/><path d="m1.093.813a1.093 1.093 0 1 1 0 2.187 1.093 1.093 0 0 1 0-2.187" mask="url(#ck)" transform="translate(148 17)"/><path d="m159 0a1 1 0 1 1 0 1.999 1 1 0 0 1 0-1.999m0 9a1 1 0 1 1 .001 1.998 1 1 0 0 1 0-1.998"/><path d="m1.996.813a1.093 1.093 0 1 1 -.001 2.187 1.093 1.093 0 0 1 0-2.187" mask="url(#cl)" transform="translate(157 17)"/><path d="m129 0a1 1 0 1 1 0 2 1 1 0 0 1 0-2m0 9a1 1 0 1 1 .001 1.999 1 1 0 0 1 -.001-1.999"/><path d="m2.017.813a1.093 1.093 0 1 1 -.001 2.187 1.093 1.093 0 0 1 0-2.187" mask="url(#cm)" transform="translate(127 17)"/><path d="m139 0a1 1 0 1 1 0 2 1 1 0 0 1 0-2m0 9a1 1 0 1 1 .001 1.999 1 1 0 0 1 -.001-1.999"/><path d="m1.19.813a1.093 1.093 0 1 1 0 2.187 1.093 1.093 0 0 1 0-2.187" mask="url(#cn)" transform="translate(138 17)"/><path d="m109 0a1 1 0 1 1 0 2 1 1 0 0 1 0-2m0 9a1 1 0 1 1 .001 1.999 1 1 0 0 1 -.001-1.999"/><path d="m1.212.813a1.093 1.093 0 1 1 -.002 2.187 1.093 1.093 0 0 1 0-2.187" mask="url(#co)" transform="translate(108 17)"/><path d="m119 0a1 1 0 1 1 0 2 1 1 0 0 1 0-2m0 9a1 1 0 1 1 0 2 1 1 0 0 1 0-2"/><path d="m1.114.813a1.094 1.094 0 1 1 0 2.189 1.094 1.094 0 0 1 0-2.189" mask="url(#cp)" transform="translate(118 17)"/><path d="m80 0a1 1 0 1 1 0 1.999 1 1 0 0 1 0-1.999m0 9a1 1 0 1 1 .001 1.998 1 1 0 0 1 0-1.998"/><path d="m1.774.813a1.093 1.093 0 1 1 0 2.187 1.093 1.093 0 0 1 0-2.187" mask="url(#cq)" transform="translate(78 17)"/><path d="m100 0a1 1 0 1 1 0 2 1 1 0 0 1 0-2m0 9a1 1 0 1 1 .001 1.999 1 1 0 0 1 -.001-1.999"/><path d="m1.865.813a1.093 1.093 0 1 1 0 2.187 1.093 1.093 0 0 1 0-2.187" mask="url(#cr)" transform="translate(98 17)"/><path d="m90 0a1 1 0 1 1 0 2 1 1 0 0 1 0-2m0 9a1 1 0 1 1 .001 1.999 1 1 0 0 1 -.001-1.999"/><path d="m1.676.813a1.093 1.093 0 1 1 0 2.187 1.093 1.093 0 0 1 0-2.187" mask="url(#cs)" transform="translate(88 17)"/><path d="m703 0a1 1 0 1 1 0 2 1 1 0 0 1 0-2m-10 0a1 1 0 1 1 0 2 1 1 0 0 1 0-2m0 9a1 1 0 1 1 .001 1.999 1 1 0 0 1 -.001-1.999"/><path d="m2.066.813a1.093 1.093 0 1 1 -.001 2.187 1.093 1.093 0 0 1 0-2.187" mask="url(#ct)" transform="translate(691 17)"/><path d="m683 0a1 1 0 1 1 0 2 1 1 0 0 1 0-2m0 9a1 1 0 1 1 .001 1.999 1 1 0 0 1 -.001-1.999"/><path d="m1.163.813a1.093 1.093 0 1 1 0 2.187 1.093 1.093 0 0 1 0-2.187" mask="url(#cu)" transform="translate(682 17)"/><path d="m673 0a1 1 0 1 1 0 2 1 1 0 0 1 0-2m0 9a1 1 0 1 1 .001 1.999 1 1 0 0 1 -.001-1.999"/><path d="m1.26.813a1.093 1.093 0 1 1 0 2.187 1.093 1.093 0 0 1 0-2.187" mask="url(#cv)" transform="translate(672 17)"/><path d="m664 0a1 1 0 1 1 0 2 1 1 0 0 1 0-2m0 9a1 1 0 1 1 .001 1.999 1 1 0 0 1 -.001-1.999"/><path d="m1.899.813a1.093 1.093 0 1 1 -.001 2.187 1.093 1.093 0 0 1 0-2.187" mask="url(#cw)" transform="translate(662 17)"/><path d="m654 0a1 1 0 1 1 0 2 1 1 0 0 1 0-2m0 9a1 1 0 1 1 .001 1.999 1 1 0 0 1 -.001-1.999"/><path d="m1.996.813a1.093 1.093 0 1 1 -.001 2.187 1.093 1.093 0 0 1 0-2.187" mask="url(#cx)" transform="translate(652 17)"/><path d="m644 0a1 1 0 1 1 0 2 1 1 0 0 1 0-2m0 9a1 1 0 1 1 .001 1.999 1 1 0 0 1 -.001-1.999"/><path d="m1.093.813a1.093 1.093 0 1 1 0 2.187 1.093 1.093 0 0 1 0-2.187" mask="url(#cy)" transform="translate(643 17)"/><path d="m713 0a1 1 0 1 1 0 2 1 1 0 0 1 0-2"/><path d="m1.968.813a1.093 1.093 0 1 1 0 2.187 1.093 1.093 0 0 1 0-2.187" mask="url(#cz)" transform="translate(701 17)"/><path d="m703 9a1 1 0 1 1 .001 1.999 1 1 0 0 1 -.001-1.999"/><path d="m1.142.813a1.093 1.093 0 1 1 -.002 2.187 1.093 1.093 0 0 1 0-2.187" mask="url(#cA)" transform="translate(712 17)"/><path d="m713 9a1 1 0 1 1 .001 1.999 1 1 0 0 1 -.001-1.999m474-9a1 1 0 1 1 0 1.999 1 1 0 0 1 0-1.999m0 9a1 1 0 1 1 .001 1.998 1 1 0 0 1 0-1.998"/><path d="m1.308.813a1.093 1.093 0 1 1 -.001 2.187 1.093 1.093 0 0 1 0-2.187" mask="url(#cB)" transform="translate(1185 17)"/><path d="m1256 0a1 1 0 1 1 0 2 1 1 0 0 1 0-2m0 9a1 1 0 1 1 0 2 1 1 0 0 1 0-2"/><path d="m1.356.813a1.094 1.094 0 1 1 0 2.189 1.094 1.094 0 0 1 0-2.189" mask="url(#cC)" transform="translate(1254 17)"/><path d="m1246 0a1 1 0 1 1 0 2 1 1 0 0 1 0-2m0 9a1 1 0 1 1 0 2 1 1 0 0 1 0-2"/><path d="m1.453.813a1.094 1.094 0 1 1 0 2.189 1.094 1.094 0 0 1 0-2.189" mask="url(#cD)" transform="translate(1244 17)"/><path d="m1236 0a1 1 0 1 1 0 1.999 1 1 0 0 1 0-1.999m0 9a1 1 0 1 1 .001 1.998 1 1 0 0 1 0-1.998"/><path d="m1.55.813a1.093 1.093 0 1 1 0 2.187 1.093 1.093 0 0 1 0-2.187" mask="url(#cE)" transform="translate(1234 17)"/><path d="m1226 0a1 1 0 1 1 0 2 1 1 0 0 1 0-2m0 9a1 1 0 1 1 0 2 1 1 0 0 1 0-2"/><path d="m1.648.813a1.094 1.094 0 1 1 0 2.189 1.094 1.094 0 0 1 0-2.189" mask="url(#cF)" transform="translate(1224 17)"/><path d="m1217 0a1 1 0 1 1 0 2 1 1 0 0 1 0-2m0 9a1 1 0 1 1 .001 1.999 1 1 0 0 1 -.001-1.999"/><path d="m1.286.813a1.093 1.093 0 1 1 0 2.187 1.093 1.093 0 0 1 0-2.187" mask="url(#cG)" transform="translate(1216 17)"/><path d="m1207 0a1 1 0 1 1 0 1.999 1 1 0 0 1 0-1.999m0 9a1 1 0 1 1 .001 1.998 1 1 0 0 1 0-1.998"/><path d="m1.384.813a1.093 1.093 0 1 1 0 2.187 1.093 1.093 0 0 1 0-2.187" mask="url(#cH)" transform="translate(1205 17)"/><path d="m1197 0a1 1 0 1 1 0 2 1 1 0 0 1 0-2m0 9a1 1 0 1 1 0 2 1 1 0 0 1 0-2"/><path d="m1.48.813a1.094 1.094 0 1 1 0 2.189 1.094 1.094 0 0 1 0-2.189" mask="url(#cI)" transform="translate(1195 17)"/><path d="m1277 0a1 1 0 1 1 0 1.999 1 1 0 0 1 0-1.999m0 9a1 1 0 1 1 .001 1.998 1 1 0 0 1 0-1.998"/><path d="m2.022.813a1.093 1.093 0 1 1 -.002 2.187 1.093 1.093 0 0 1 0-2.187" mask="url(#cJ)" transform="translate(1275 17)"/><path d="m1267 0a1 1 0 1 1 0 2 1 1 0 0 1 0-2m0 9a1 1 0 1 1 0 2 1 1 0 0 1 0-2"/><path d="m1.118.813a1.094 1.094 0 1 1 0 2.189 1.094 1.094 0 0 1 0-2.189" mask="url(#cK)" transform="translate(1266 17)"/><path d="m1167 0a1 1 0 1 1 0 2 1 1 0 0 1 0-2m0 9a1 1 0 1 1 0 2 1 1 0 0 1 0-2"/><path d="m1.502.813a1.094 1.094 0 1 1 0 2.189 1.094 1.094 0 0 1 0-2.189" mask="url(#cL)" transform="translate(1165 17)"/><path d="m1177 0a1 1 0 1 1 0 1.999 1 1 0 0 1 0-1.999m0 9a1 1 0 1 1 .001 1.998 1 1 0 0 1 0-1.998"/><path d="m1.676.813a1.093 1.093 0 1 1 0 2.187 1.093 1.093 0 0 1 0-2.187" mask="url(#cM)" transform="translate(1175 17)"/><path d="m1147 0a1 1 0 1 1 0 2 1 1 0 0 1 0-2m0 9a1 1 0 1 1 0 2 1 1 0 0 1 0-2"/><path d="m1.696.813a1.094 1.094 0 1 1 0 2.189 1.094 1.094 0 0 1 0-2.189" mask="url(#cN)" transform="translate(1145 17)"/><path d="m1157 0a1 1 0 1 1 0 1.999 1 1 0 0 1 0-1.999m0 9a1 1 0 1 1 .001 1.998 1 1 0 0 1 0-1.998"/><path d="m1.87.813a1.093 1.093 0 1 1 0 2.187 1.093 1.093 0 0 1 0-2.187" mask="url(#cO)" transform="translate(1155 17)"/><path d="m1127 0a1 1 0 1 1 0 1.999 1 1 0 0 1 0-1.999m0 9a1 1 0 1 1 .001 1.998 1 1 0 0 1 0-1.998"/><path d="m1.892.813a1.093 1.093 0 1 1 -.002 2.187 1.093 1.093 0 0 1 0-2.187" mask="url(#cP)" transform="translate(1125 17)"/><path d="m1137 0a1 1 0 1 1 0 2 1 1 0 0 1 0-2m0 9a1 1 0 1 1 0 2 1 1 0 0 1 0-2"/><path d="m2.064.813a1.094 1.094 0 1 1 0 2.189 1.094 1.094 0 0 1 0-2.189" mask="url(#cQ)" transform="translate(1135 17)"/><path d="m1107 0a1 1 0 1 1 0 1.999 1 1 0 0 1 0-1.999m0 9a1 1 0 1 1 .001 1.998 1 1 0 0 1 0-1.998"/><path d="m2.086.813a1.093 1.093 0 1 1 0 2.187 1.093 1.093 0 0 1 0-2.187" mask="url(#cR)" transform="translate(1105 17)"/><path d="m1118 0a1 1 0 1 1 0 2 1 1 0 0 1 0-2m0 9a1 1 0 1 1 0 2 1 1 0 0 1 0-2"/><path d="m1.259.813a1.094 1.094 0 1 1 0 2.189 1.094 1.094 0 0 1 0-2.189" mask="url(#cS)" transform="translate(1116 17)"/><path d="m1088 0a1 1 0 1 1 0 2 1 1 0 0 1 0-2m0 9a1 1 0 1 1 0 2 1 1 0 0 1 0-2"/><path d="m1.28.813a1.094 1.094 0 1 1 0 2.189 1.094 1.094 0 0 1 0-2.189" mask="url(#cT)" transform="translate(1086 17)"/><path d="m1098 0a1 1 0 1 1 0 1.999 1 1 0 0 1 0-1.999m0 9a1 1 0 1 1 .001 1.998 1 1 0 0 1 0-1.998"/><path d="m1.454.813a1.093 1.093 0 1 1 0 2.187 1.093 1.093 0 0 1 0-2.187" mask="url(#cU)" transform="translate(1096 17)"/><path d="m1068 0a1 1 0 1 1 0 2 1 1 0 0 1 0-2m0 9a1 1 0 1 1 0 2 1 1 0 0 1 0-2"/><path d="m1.475.813a1.094 1.094 0 1 1 0 2.189 1.094 1.094 0 0 1 0-2.189" mask="url(#cV)" transform="translate(1066 17)"/><path d="m1078 0a1 1 0 1 1 0 1.999 1 1 0 0 1 0-1.999m0 9a1 1 0 1 1 .001 1.998 1 1 0 0 1 0-1.998"/><path d="m1.649.813a1.093 1.093 0 1 1 -.001 2.187 1.093 1.093 0 0 1 0-2.187" mask="url(#cW)" transform="translate(1076 17)"/><path d="m1048 0a1 1 0 1 1 0 1.999 1 1 0 0 1 0-1.999m0 9a1 1 0 1 1 .001 1.998 1 1 0 0 1 0-1.998"/><path d="m1.67.813a1.093 1.093 0 1 1 0 2.187 1.093 1.093 0 0 1 0-2.187" mask="url(#cX)" transform="translate(1046 17)"/><path d="m1058 0a1 1 0 1 1 0 2 1 1 0 0 1 0-2m0 9a1 1 0 1 1 0 2 1 1 0 0 1 0-2"/><path d="m1.843.813a1.094 1.094 0 1 1 0 2.189 1.094 1.094 0 0 1 0-2.189" mask="url(#cY)" transform="translate(1056 17)"/><path d="m1028 0a1 1 0 1 1 0 2 1 1 0 0 1 0-2m0 9a1 1 0 1 1 .001 1.999 1 1 0 0 1 -.001-1.999"/><path d="m1.864.813a1.093 1.093 0 1 1 0 2.187 1.093 1.093 0 0 1 0-2.187" mask="url(#cZ)" transform="translate(1026 17)"/><path d="m1038 0a1 1 0 1 1 0 2 1 1 0 0 1 0-2m0 9a1 1 0 1 1 0 2 1 1 0 0 1 0-2"/><path d="m2.037.813a1.094 1.094 0 1 1 0 2.189 1.094 1.094 0 0 1 0-2.189" mask="url(#c0)" transform="translate(1036 17)"/><path d="m1008 0a1 1 0 1 1 0 2 1 1 0 0 1 0-2m0 9a1 1 0 1 1 0 2 1 1 0 0 1 0-2"/><path d="m2.059.813a1.094 1.094 0 1 1 0 2.189 1.094 1.094 0 0 1 0-2.189" mask="url(#c1)" transform="translate(1006 17)"/><path d="m1018 0a1 1 0 1 1 0 1.999 1 1 0 0 1 0-1.999m0 9a1 1 0 1 1 .001 1.998 1 1 0 0 1 0-1.998"/><path d="m1.232.813a1.093 1.093 0 1 1 0 2.187 1.093 1.093 0 0 1 0-2.187" mask="url(#c2)" transform="translate(1017 17)"/><path d="m988 0a1 1 0 1 1 0 1.999 1 1 0 0 1 0-1.999m0 9a1 1 0 1 1 .001 1.998 1 1 0 0 1 0-1.998"/><path d="m1.254.813a1.093 1.093 0 1 1 0 2.187 1.093 1.093 0 0 1 0-2.187" mask="url(#c3)" transform="translate(987 17)"/><path d="m999 0a1 1 0 1 1 0 2 1 1 0 0 1 0-2m0 9a1 1 0 1 1 .001 1.999 1 1 0 0 1 -.001-1.999"/><path d="m1.427.813a1.093 1.093 0 1 1 -.001 2.187 1.093 1.093 0 0 1 0-2.187" mask="url(#c4)" transform="translate(997 17)"/><path d="m969 0a1 1 0 1 1 0 1.999 1 1 0 0 1 0-1.999m0 9a1 1 0 1 1 .001 1.998 1 1 0 0 1 0-1.998"/><path d="m1.448.813a1.093 1.093 0 1 1 0 2.187 1.093 1.093 0 0 1 0-2.187" mask="url(#c5)" transform="translate(967 17)"/><path d="m979 0a1 1 0 1 1 0 2 1 1 0 0 1 0-2m0 9a1 1 0 1 1 0 2 1 1 0 0 1 0-2"/><path d="m1.621.813a1.094 1.094 0 1 1 0 2.189 1.094 1.094 0 0 1 0-2.189" mask="url(#c6)" transform="translate(977 17)"/><path d="m949 0a1 1 0 1 1 0 2 1 1 0 0 1 0-2m0 9a1 1 0 1 1 .001 1.999 1 1 0 0 1 -.001-1.999"/><path d="m1.643.813a1.093 1.093 0 1 1 -.001 2.187 1.093 1.093 0 0 1 0-2.187" mask="url(#c7)" transform="translate(947 17)"/><path d="m959 0a1 1 0 1 1 0 2 1 1 0 0 1 0-2m0 9a1 1 0 1 1 .001 1.999 1 1 0 0 1 -.001-1.999"/><path d="m1.816.813a1.093 1.093 0 1 1 0 2.187 1.093 1.093 0 0 1 0-2.187" mask="url(#c8)" transform="translate(957 17)"/><path d="m929 0a1 1 0 1 1 0 2 1 1 0 0 1 0-2m0 9a1 1 0 1 1 .001 1.999 1 1 0 0 1 -.001-1.999"/><path d="m1.837.813a1.093 1.093 0 1 1 0 2.187 1.093 1.093 0 0 1 0-2.187" mask="url(#c9)" transform="translate(927 17)"/><path d="m939 0a1 1 0 1 1 0 2 1 1 0 0 1 0-2m0 9a1 1 0 1 1 0 2 1 1 0 0 1 0-2"/><path d="m2.01.813a1.094 1.094 0 1 1 0 2.189 1.094 1.094 0 0 1 0-2.189" mask="url(#da)" transform="translate(937 17)"/><path d="m909 0a1 1 0 1 1 0 2 1 1 0 0 1 0-2m0 9a1 1 0 1 1 .001 1.999 1 1 0 0 1 -.001-1.999"/><path d="m2.032.813a1.093 1.093 0 1 1 -.002 2.187 1.093 1.093 0 0 1 0-2.187" mask="url(#db)" transform="translate(907 17)"/><path d="m919 0a1 1 0 1 1 0 2 1 1 0 0 1 0-2m0 9a1 1 0 1 1 .001 1.999 1 1 0 0 1 -.001-1.999"/><path d="m1.205.813a1.093 1.093 0 1 1 0 2.187 1.093 1.093 0 0 1 0-2.187" mask="url(#dc)" transform="translate(918 17)"/><path d="m889 0a1 1 0 1 1 0 2 1 1 0 0 1 0-2m0 9a1 1 0 1 1 .001 1.999 1 1 0 0 1 -.001-1.999"/><path d="m1.227.813a1.093 1.093 0 1 1 -.001 2.187 1.093 1.093 0 0 1 0-2.187" mask="url(#dd)" transform="translate(888 17)"/><path d="m899 0a1 1 0 1 1 0 2 1 1 0 0 1 0-2m0 9a1 1 0 1 1 .001 1.999 1 1 0 0 1 -.001-1.999"/><path d="m1.4.813a1.093 1.093 0 1 1 0 2.187 1.093 1.093 0 0 1 0-2.187" mask="url(#de)" transform="translate(898 17)"/><path d="m869 0a1 1 0 1 1 0 2 1 1 0 0 1 0-2m0 9a1 1 0 1 1 .001 1.999 1 1 0 0 1 -.001-1.999"/><path d="m1.421.813a1.093 1.093 0 1 1 0 2.187 1.093 1.093 0 0 1 0-2.187" mask="url(#df)" transform="translate(868 17)"/><path d="m880 0a1 1 0 1 1 0 2 1 1 0 0 1 0-2m0 9a1 1 0 1 1 .001 1.999 1 1 0 0 1 -.001-1.999"/><path d="m1.594.813a1.093 1.093 0 1 1 0 2.187 1.093 1.093 0 0 1 0-2.187" mask="url(#dg)" transform="translate(878 17)"/><path d="m851 0a1 1 0 1 1 0 2 1 1 0 0 1 0-2m0 9a1 1 0 1 1 .001 1.999 1 1 0 0 1 -.001-1.999"/><path d="m1.238.813a1.093 1.093 0 1 1 0 2.187 1.093 1.093 0 0 1 0-2.187" mask="url(#dh)" transform="translate(850 17)"/><path d="m860 0a1 1 0 1 1 0 2 1 1 0 0 1 0-2m0 9a1 1 0 1 1 .001 1.999 1 1 0 0 1 -.001-1.999"/><path d="m1.79.813a1.093 1.093 0 1 1 -.003 2.187 1.093 1.093 0 0 1 .003-2.187" mask="url(#di)" transform="translate(858 17)"/><path d="m831 0a1 1 0 1 1 0 2 1 1 0 0 1 0-2m0 9a1 1 0 1 1 .001 1.999 1 1 0 0 1 -.001-1.999"/><path d="m1.163.813a1.093 1.093 0 1 1 -.001 2.187 1.093 1.093 0 0 1 0-2.187" mask="url(#dj)" transform="translate(830 17)"/><path d="m841 0a1 1 0 1 1 0 1.999 1 1 0 0 1 0-1.999m0 9a1 1 0 1 1 .001 1.998 1 1 0 0 1 0-1.998"/><path d="m2.066.813a1.093 1.093 0 1 1 -.001 2.187 1.093 1.093 0 0 1 0-2.187" mask="url(#dk)" transform="translate(839 17)"/><path d="m811 0a1 1 0 1 1 0 2 1 1 0 0 1 0-2m0 9a1 1 0 1 1 .001 1.999 1 1 0 0 1 -.001-1.999"/><path d="m1.357.813a1.093 1.093 0 1 1 0 2.187 1.093 1.093 0 0 1 0-2.187" mask="url(#dl)" transform="translate(810 17)"/><path d="m821 0a1 1 0 1 1 0 2 1 1 0 0 1 0-2m0 9a1 1 0 1 1 .001 1.999 1 1 0 0 1 -.001-1.999"/><path d="m1.26.813a1.093 1.093 0 1 1 0 2.187 1.093 1.093 0 0 1 0-2.187" mask="url(#dm)" transform="translate(820 17)"/><path d="m792 0a1 1 0 1 1 0 2 1 1 0 0 1 0-2m0 9a1 1 0 1 1 .001 1.999 1 1 0 0 1 -.001-1.999"/><path d="m1.093.813a1.093 1.093 0 1 1 0 2.187 1.093 1.093 0 0 1 0-2.187" mask="url(#dn)" transform="translate(791 17)"/><path d="m802 0a1 1 0 1 1 0 1.999 1 1 0 0 1 0-1.999m0 9a1 1 0 1 1 .001 1.998 1 1 0 0 1 0-1.998"/><path d="m1.996.813a1.093 1.093 0 1 1 -.001 2.187 1.093 1.093 0 0 1 0-2.187" mask="url(#do)" transform="translate(800 17)"/><path d="m772 0a1 1 0 1 1 0 2 1 1 0 0 1 0-2m0 9a1 1 0 1 1 .001 1.999 1 1 0 0 1 -.001-1.999"/><path d="m2.017.813a1.093 1.093 0 1 1 -.001 2.187 1.093 1.093 0 0 1 0-2.187" mask="url(#dp)" transform="translate(770 17)"/><path d="m782 0a1 1 0 1 1 0 2 1 1 0 0 1 0-2m0 9a1 1 0 1 1 .001 1.999 1 1 0 0 1 -.001-1.999"/><path d="m1.19.813a1.093 1.093 0 1 1 0 2.187 1.093 1.093 0 0 1 0-2.187" mask="url(#dq)" transform="translate(781 17)"/><path d="m752 0a1 1 0 1 1 0 2 1 1 0 0 1 0-2m0 9a1 1 0 1 1 .001 1.999 1 1 0 0 1 -.001-1.999"/><path d="m1.212.813a1.093 1.093 0 1 1 -.002 2.187 1.093 1.093 0 0 1 0-2.187" mask="url(#dr)" transform="translate(751 17)"/><path d="m762 0a1 1 0 1 1 0 2 1 1 0 0 1 0-2m0 9a1 1 0 1 1 0 2 1 1 0 0 1 0-2"/><path d="m1.114.813a1.094 1.094 0 1 1 0 2.189 1.094 1.094 0 0 1 0-2.189" mask="url(#ds)" transform="translate(761 17)"/><path d="m723 0a1 1 0 1 1 0 1.999 1 1 0 0 1 0-1.999m0 9a1 1 0 1 1 .001 1.998 1 1 0 0 1 0-1.998"/><path d="m1.774.813a1.093 1.093 0 1 1 0 2.187 1.093 1.093 0 0 1 0-2.187" mask="url(#dt)" transform="translate(721 17)"/><path d="m743 0a1 1 0 1 1 0 2 1 1 0 0 1 0-2m0 9a1 1 0 1 1 .001 1.999 1 1 0 0 1 -.001-1.999"/><path d="m1.865.813a1.093 1.093 0 1 1 0 2.187 1.093 1.093 0 0 1 0-2.187" mask="url(#du)" transform="translate(741 17)"/><path d="m733 0a1 1 0 1 1 0 2 1 1 0 0 1 0-2m0 9a1 1 0 1 1 .001 1.999 1 1 0 0 1 -.001-1.999"/><path d="m1.676.813a1.093 1.093 0 1 1 0 2.187 1.093 1.093 0 0 1 0-2.187" mask="url(#dv)" transform="translate(731 17)"/></g></svg>