<svg xmlns="http://www.w3.org/2000/svg" width="52" height="50" viewBox="0 0 52 50"><g fill="none" fill-rule="evenodd"><path fill="#FFF" stroke="#50B7E8" stroke-width=".8" d="M26 1C12.203 1 1 11.688 1 24.848v.304C1 38.312 12.203 49 26 49s25-10.688 25-23.848v-.304C51 11.688 39.797 1 26 1z"/><path fill="#50B7E8" d="M24.673 19.69a3.946 3.946 0 0 0 2.657 0l2.627 5.825H26.72v-1.418h-1.437v1.418h-3.24l2.63-5.825zM26 13.607c1.37 0 2.483 1.099 2.483 2.448 0 1.35-1.113 2.447-2.483 2.447-1.367 0-2.48-1.098-2.48-2.447 0-1.35 1.113-2.448 2.48-2.448zM17.313 36l4.094-9.068h3.876v1.416h1.437v-1.416h3.877L34.687 36 36 35.424l-3.83-8.492h2.457v-1.417H31.53l-2.953-6.55a3.831 3.831 0 0 0 1.343-2.91c0-1.889-1.38-3.464-3.2-3.798V10h-1.437v2.257c-1.82.334-3.203 1.909-3.203 3.798 0 1.16.523 2.201 1.347 2.91l-2.954 6.55h-3.096v1.417h2.456L16 35.424l1.313.576z"/></g></svg>