<svg xmlns="http://www.w3.org/2000/svg" width="50" height="48" viewBox="0 0 50 48"><g fill="none" fill-rule="evenodd"><path fill="#FFF" d="M25 0C11.203 0 0 10.688 0 23.848v.304C0 37.312 11.203 48 25 48s25-10.688 25-23.848v-.304C50 10.688 38.797 0 25 0z"/><path fill="#D8D8D8" d="M23.673 18.69a3.946 3.946 0 0 0 2.657 0l2.627 5.825H25.72v-1.418h-1.437v1.418h-3.24l2.63-5.825zM25 12.607c1.37 0 2.483 1.099 2.483 2.448 0 1.35-1.113 2.447-2.483 2.447-1.367 0-2.48-1.098-2.48-2.447 0-1.35 1.113-2.448 2.48-2.448zM16.313 35l4.094-9.068h3.876v1.416h1.437v-1.416h3.877L33.687 35 35 34.424l-3.83-8.492h2.457v-1.417H30.53l-2.953-6.55a3.831 3.831 0 0 0 1.343-2.91c0-1.889-1.38-3.464-3.2-3.798V9h-1.437v2.257c-1.82.334-3.203 1.909-3.203 3.798 0 1.16.523 2.201 1.347 2.91l-2.954 6.55h-3.096v1.417h2.456L15 34.424l1.313.576z"/></g></svg>