<svg height="143" viewBox="0 0 150 143" width="150" xmlns="http://www.w3.org/2000/svg" xmlns:xlink="http://www.w3.org/1999/xlink"><mask id="a" fill="#fff"><path d="m.745.813h2.185v2.187h-2.186z" fill="none"/></mask><mask id="b" fill="#fff"><path d="m.917.813h2.187v2.187h-2.187z" fill="none"/></mask><mask id="c" fill="#fff"><path d="m.939.813h2.186v2.187h-2.186z" fill="none"/></mask><mask id="d" fill="#fff"><path d="m.112.813h2.186v2.187h-2.186z" fill="none"/></mask><mask id="e" fill="#fff"><path d="m.134.813h2.186v2.187h-2.186z" fill="none"/></mask><mask id="f" fill="#fff"><path d="m.307.813h2.186v2.187h-2.186z" fill="none"/></mask><mask id="g" fill="#fff"><path d="m.328.813h2.186v2.187h-2.186z" fill="none"/></mask><mask id="h" fill="#fff"><path d="m.501.813h2.186v2.187h-2.186z" fill="none"/></mask><g fill="none" fill-rule="evenodd"><g fill="#000" opacity=".05"><path d="m124.093 8a1.093 1.093 0 1 1 0 2.185 1.093 1.093 0 0 1 0-2.185m0 8a1.093 1.093 0 1 1 0 2.186 1.093 1.093 0 0 1 0-2.186m0 8a1.093 1.093 0 1 1 0 2.185 1.093 1.093 0 0 1 0-2.185m0-24a1.093 1.093 0 1 1 0 2.185 1.093 1.093 0 0 1 0-2.185m9 8a1.093 1.093 0 1 1 .001 2.187 1.093 1.093 0 0 1 -.001-2.187m0 8a1.094 1.094 0 1 1 0 2.187 1.094 1.094 0 0 1 0-2.187m0 8a1.093 1.093 0 1 1 .001 2.187 1.093 1.093 0 0 1 -.001-2.187m0-24a1.093 1.093 0 1 1 .001 2.187 1.093 1.093 0 0 1 -.001-2.187m-27 8a1.093 1.093 0 1 1 0 2.185 1.093 1.093 0 0 1 0-2.185m0 8a1.093 1.093 0 1 1 0 2.186 1.093 1.093 0 0 1 0-2.186m0 8a1.093 1.093 0 1 1 0 2.185 1.093 1.093 0 0 1 0-2.185m0-24a1.093 1.093 0 1 1 0 2.185 1.093 1.093 0 0 1 0-2.185m9 8a1.093 1.093 0 1 1 0 2.185 1.093 1.093 0 0 1 0-2.185m0 8a1.093 1.093 0 1 1 0 2.186 1.093 1.093 0 0 1 0-2.186m0 8a1.093 1.093 0 1 1 0 2.185 1.093 1.093 0 0 1 0-2.185m0-24a1.093 1.093 0 1 1 0 2.185 1.093 1.093 0 0 1 0-2.185m-27 8a1.093 1.093 0 1 1 0 2.185 1.093 1.093 0 0 1 0-2.185m0 8a1.093 1.093 0 1 1 0 2.186 1.093 1.093 0 0 1 0-2.186m0 8a1.093 1.093 0 1 1 0 2.185 1.093 1.093 0 0 1 0-2.185m0-24a1.093 1.093 0 1 1 0 2.185 1.093 1.093 0 0 1 0-2.185m10 8a1.093 1.093 0 1 1 0 2.185 1.093 1.093 0 0 1 0-2.185m0 8a1.093 1.093 0 1 1 0 2.186 1.093 1.093 0 0 1 0-2.186m0 8a1.093 1.093 0 1 1 0 2.185 1.093 1.093 0 0 1 0-2.185m0-24a1.093 1.093 0 1 1 0 2.185 1.093 1.093 0 0 1 0-2.185m-27 8a1.093 1.093 0 1 1 0 2.185 1.093 1.093 0 0 1 0-2.185m0 8a1.093 1.093 0 1 1 0 2.186 1.093 1.093 0 0 1 0-2.186m0 8a1.093 1.093 0 1 1 0 2.185 1.093 1.093 0 0 1 0-2.185m0-24a1.093 1.093 0 1 1 0 2.185 1.093 1.093 0 0 1 0-2.185m9 8a1.093 1.093 0 1 1 0 2.185 1.093 1.093 0 0 1 0-2.185m0 8a1.093 1.093 0 1 1 0 2.186 1.093 1.093 0 0 1 0-2.186m0 8a1.093 1.093 0 1 1 0 2.185 1.093 1.093 0 0 1 0-2.185m0-24a1.093 1.093 0 1 1 0 2.185 1.093 1.093 0 0 1 0-2.185m44 41a1.093 1.093 0 1 1 0 2.186 1.093 1.093 0 0 1 0-2.186m0 8a1.093 1.093 0 1 1 0 2.185 1.093 1.093 0 0 1 0-2.185"/><path d="m1.837.813a1.093 1.093 0 1 1 0 2.187 1.093 1.093 0 0 1 0-2.187" mask="url(#a)" transform="translate(122 56)"/><path d="m124.093 33a1.093 1.093 0 1 1 0 2.187 1.093 1.093 0 0 1 0-2.187m9 8a1.094 1.094 0 1 1 0 2.187 1.094 1.094 0 0 1 0-2.187m0 8a1.093 1.093 0 1 1 .001 2.187 1.093 1.093 0 0 1 -.001-2.187"/><path d="m2.01.813a1.094 1.094 0 1 1 0 2.189 1.094 1.094 0 0 1 0-2.189" mask="url(#b)" transform="translate(131 56)"/><path d="m133.093 33a1.094 1.094 0 1 1 0 2.189 1.094 1.094 0 0 1 0-2.189m-27 8a1.093 1.093 0 1 1 0 2.186 1.093 1.093 0 0 1 0-2.186m0 8a1.093 1.093 0 1 1 0 2.185 1.093 1.093 0 0 1 0-2.185"/><path d="m2.032.813a1.093 1.093 0 1 1 -.002 2.187 1.093 1.093 0 0 1 0-2.187" mask="url(#c)" transform="translate(104 56)"/><path d="m106.093 33a1.093 1.093 0 1 1 0 2.187 1.093 1.093 0 0 1 0-2.187m9 8a1.093 1.093 0 1 1 0 2.186 1.093 1.093 0 0 1 0-2.186m0 8a1.093 1.093 0 1 1 0 2.185 1.093 1.093 0 0 1 0-2.185"/><path d="m1.205.813a1.093 1.093 0 1 1 0 2.187 1.093 1.093 0 0 1 0-2.187" mask="url(#d)" transform="translate(114 56)"/><path d="m115.093 33a1.093 1.093 0 1 1 0 2.187 1.093 1.093 0 0 1 0-2.187m-27 8a1.093 1.093 0 1 1 0 2.186 1.093 1.093 0 0 1 0-2.186m0 8a1.093 1.093 0 1 1 0 2.185 1.093 1.093 0 0 1 0-2.185"/><path d="m1.227.813a1.093 1.093 0 1 1 -.001 2.187 1.093 1.093 0 0 1 0-2.187" mask="url(#e)" transform="translate(87 56)"/><path d="m88.093 33a1.093 1.093 0 1 1 0 2.187 1.093 1.093 0 0 1 0-2.187m10 8a1.093 1.093 0 1 1 0 2.186 1.093 1.093 0 0 1 0-2.186m0 8a1.093 1.093 0 1 1 0 2.185 1.093 1.093 0 0 1 0-2.185"/><path d="m1.4.813a1.093 1.093 0 1 1 0 2.187 1.093 1.093 0 0 1 0-2.187" mask="url(#f)" transform="translate(96 56)"/><path d="m98.093 33a1.093 1.093 0 1 1 0 2.187 1.093 1.093 0 0 1 0-2.187m-27 8a1.093 1.093 0 1 1 0 2.186 1.093 1.093 0 0 1 0-2.186m0 8a1.093 1.093 0 1 1 0 2.185 1.093 1.093 0 0 1 0-2.185"/><path d="m1.421.813a1.093 1.093 0 1 1 0 2.187 1.093 1.093 0 0 1 0-2.187" mask="url(#g)" transform="translate(69 56)"/><path d="m71.093 33a1.093 1.093 0 1 1 0 2.187 1.093 1.093 0 0 1 0-2.187m9 8a1.093 1.093 0 1 1 0 2.186 1.093 1.093 0 0 1 0-2.186m0 8a1.093 1.093 0 1 1 0 2.185 1.093 1.093 0 0 1 0-2.185"/><path d="m1.594.813a1.093 1.093 0 1 1 0 2.187 1.093 1.093 0 0 1 0-2.187" mask="url(#h)" transform="translate(78 56)"/><path d="m80.093 33a1.093 1.093 0 1 1 0 2.187 1.093 1.093 0 0 1 0-2.187"/></g><g fill="#f6b72c"><circle cx="115" cy="9" r="2"/><circle cx="125" cy="24" r="2"/><circle cx="132.5" cy="1.5" r="1.5"/></g><path d="m4.922 19.26a.473.473 0 0 0 -.845 0c-.514 1.014-1.485 2.592-2.83 3.334a.456.456 0 0 0 0 .812c1.345.742 2.316 2.32 2.83 3.334.175.347.67.347.845 0 .515-1.014 1.486-2.592 2.83-3.334a.456.456 0 0 0 0-.812c-1.344-.742-2.315-2.32-2.83-3.334zm82.83 1.334c-1.344-.742-2.315-2.32-2.83-3.334a.473.473 0 0 0 -.845 0c-.514 1.014-1.484 2.592-2.83 3.334a.456.456 0 0 0 0 .812c1.346.742 2.316 2.32 2.83 3.334.175.347.67.347.845 0 .515-1.014 1.486-2.592 2.83-3.334a.456.456 0 0 0 0-.812m-23.999-13c-1.345-.742-2.316-2.32-2.83-3.334a.473.473 0 0 0 -.845 0c-.515 1.014-1.486 2.592-2.83 3.334a.456.456 0 0 0 0 .811c1.344.742 2.315 2.32 2.83 3.339.174.341.67.341.844 0 .515-1.019 1.486-2.597 2.83-3.339a.456.456 0 0 0 0-.811m-26 9c-1.344-.737-2.315-2.32-2.83-3.334a.473.473 0 0 0 -.845 0c-.514 1.014-1.484 2.597-2.83 3.334a.46.46 0 0 0 0 .816c1.346.737 2.316 2.315 2.83 3.334.175.341.67.341.845 0 .515-1.019 1.486-2.597 2.83-3.334a.46.46 0 0 0 0-.816" fill="#f6bf3e"/><path d="m135.695 140.275-24.837-.03c-1.515-.11-2.767-1.167-2.767-2.584v-20.518c0-1.42 1.25-2.466 2.767-2.585h24.837z" fill="#dd5b5a"/><path d="m134.847 118.732v2.106h-20.282c-1.568 0-1.568-2.106 0-2.106zm0 12.635v2.103h-19.973c-1.568 0-1.568-2.103 0-2.103zm0-6.317v2.102h-19.973c-1.568 0-1.568-2.102 0-2.102z" fill="#d03a3c"/><path d="m114.107 137.008c-1.515-.092-2.794-1.016-2.794-2.258v-17.934c0-1.239 1.28-2.019 2.794-2.316h5.393-8.812c-1.517.297-2.648 1.223-2.648 2.643v20.518c0 1.417 1.134 2.475 2.648 2.585l24.724.03v-3.244z" fill="#cb3637"/><path d="m134.19 112.5v29.801h2.014v-29.801z" fill="#cdccc7"/><path d="m148.164 137.912a1.341 1.341 0 1 1 -1.342 1.34c0-.74.601-1.34 1.342-1.34m-9-9.682a1.341 1.341 0 1 1 -1.342 1.34c0-.74.601-1.34 1.342-1.34m3.994 6.125a1.34 1.34 0 1 1 .002 2.682 1.34 1.34 0 0 1 -.002-2.682m-1.156-3.726a1.185 1.185 0 0 1 0 2.367 1.185 1.185 0 0 1 0-2.367m-3.474-5.309a.8.8 0 1 1 0 1.6.8.8 0 0 1 0-1.6m7.636 8.935a1.341 1.341 0 1 1 -1.342 1.34c0-.74.601-1.34 1.342-1.34m-1.508 3.329a1.151 1.151 0 1 1 0 2.302 1.152 1.152 0 1 1 0-2.302" fill="#5c5c59"/><path d="m142.05 137.682a1.341 1.341 0 0 1 0 2.68 1.341 1.341 0 0 1 0-2.68m-3.89-6.262a1.175 1.175 0 0 1 0 2.35c-.65 0-1.178-.525-1.178-1.173 0-.647.528-1.176 1.177-1.176m1.505 2.311a1.84 1.84 0 1 1 0 3.677 1.84 1.84 0 1 1 0-3.677m-1.253 3.843a1.588 1.588 0 1 1 0 3.175 1.587 1.587 0 1 1 0-3.175" fill="#5c5c59"/><path d="m102.43 40.38 5.956 1.935.98-3.017-5.957-1.936z" fill="#71716e"/><path d="m102.154 36.955 8.467 2.75 1.126-3.464-8.467-2.751z" fill="#a3a4a0"/><path d="m86.947 49.786c2.58-7.937 11.018-12.306 18.85-9.761 7.833 2.545 12.093 11.04 9.514 18.977-2.578 7.933-11.018 12.302-18.85 9.758-7.832-2.545-12.091-11.04-9.514-18.974" fill="#dd5b5a"/><path d="m87.796 61.312c3.794 7.568 12.694 10.327 20.055 6.516 7.361-3.81 10.395-12.75 6.602-20.318z" fill="#d03a3c"/><path d="m90.233 50.853c1.982-6.098 8.466-9.455 14.483-7.5 6.018 1.955 9.291 8.483 7.31 14.581-1.98 6.096-8.466 9.452-14.483 7.497-6.018-1.955-9.29-8.482-7.31-14.578" fill="#fffffe"/><path d="m103.937 47.044.364-1.123a.44.44 0 0 0 -.278-.556.44.44 0 0 0 -.553.286l-.364 1.122a.44.44 0 0 0 .278.556.44.44 0 0 0 .553-.285m-5.38 16.557.273-.842a.44.44 0 0 0 -.278-.556.44.44 0 0 0 -.553.286l-.273.842a.44.44 0 0 0 .278.556.44.44 0 0 0 .553-.286m9.862-12.346 1.02-.528a.438.438 0 0 0 .19-.583.422.422 0 0 0 -.576-.188l-1.02.528a.438.438 0 0 0 -.19.584.427.427 0 0 0 .576.187m-3.765 10.781.516 1.027a.422.422 0 0 0 .576.187.438.438 0 0 0 .19-.584l-.516-1.027a.422.422 0 0 0 -.577-.187.438.438 0 0 0 -.19.584m4.118-4.424.831.27a.44.44 0 0 0 .553-.286.44.44 0 0 0 -.279-.556l-.831-.27a.44.44 0 0 0 -.552.286.44.44 0 0 0 .278.556m-10.9-10.429-.516-1.028a.422.422 0 0 0 -.576-.187.438.438 0 0 0 -.19.584l.516 1.027a.427.427 0 0 0 .576.187.438.438 0 0 0 .19-.583m-4.443 10.56-1.021.528a.438.438 0 0 0 -.19.583.422.422 0 0 0 .576.188l1.021-.528a.438.438 0 0 0 .19-.584.422.422 0 0 0 -.576-.187m.105-6.013-1.108-.36a.44.44 0 0 0 -.553.286.44.44 0 0 0 .279.556l1.108.36a.44.44 0 0 0 .552-.286.44.44 0 0 0 -.278-.556m8.384-2.24-1.733 5.332a.583.583 0 0 0 .372.741l5.263 1.71c.306.1.635-.07.736-.38a.587.587 0 0 0 -.371-.742l-4.71-1.53 1.55-4.771a.587.587 0 0 0 -.37-.741.587.587 0 0 0 -.737.38" fill="#71716e"/><path d="m92.366 56.725c-.396-.433-.555-1.133-.618-1.572a.177.177 0 0 0 -.304-.1c-.309.32-.85.792-1.424.91a.182.182 0 0 0 -.098.303c.396.432.554 1.135.616 1.575.022.146.2.204.305.098.309-.318.85-.794 1.424-.911a.182.182 0 0 0 .099-.303" fill="#fffffe"/><path d="m27.43 71.38 5.956 1.935.98-3.017-5.957-1.936z" fill="#71716e"/><path d="m27.154 67.955 8.467 2.75 1.126-3.464-8.467-2.751z" fill="#a3a4a0"/><path d="m11.947 80.786c2.58-7.937 11.018-12.306 18.85-9.761 7.833 2.545 12.093 11.04 9.514 18.977-2.578 7.933-11.018 12.302-18.85 9.758-7.832-2.545-12.091-11.04-9.514-18.974" fill="#dd5b5a"/><path d="m12.796 92.312c3.794 7.568 12.694 10.327 20.055 6.516 7.361-3.81 10.395-12.75 6.602-20.318z" fill="#d03a3c"/><path d="m15.233 81.853c1.982-6.098 8.466-9.455 14.483-7.5 6.018 1.955 9.291 8.483 7.31 14.581-1.98 6.096-8.466 9.452-14.483 7.497-6.018-1.955-9.29-8.482-7.31-14.578" fill="#fffffe"/><path d="m28.937 78.044.364-1.123a.44.44 0 0 0 -.278-.556.44.44 0 0 0 -.553.286l-.364 1.122a.44.44 0 0 0 .278.556.44.44 0 0 0 .553-.285m-5.38 16.557.273-.842a.44.44 0 0 0 -.278-.556.44.44 0 0 0 -.553.286l-.273.842a.44.44 0 0 0 .278.556.44.44 0 0 0 .553-.286m9.862-12.346 1.02-.528a.438.438 0 0 0 .19-.583.422.422 0 0 0 -.576-.188l-1.02.528a.438.438 0 0 0 -.19.584.427.427 0 0 0 .576.187m-3.765 10.781.516 1.027a.422.422 0 0 0 .576.187.438.438 0 0 0 .19-.584l-.516-1.027a.422.422 0 0 0 -.577-.187.438.438 0 0 0 -.19.584m4.118-4.424.831.27a.44.44 0 0 0 .553-.286.44.44 0 0 0 -.279-.556l-.831-.27a.44.44 0 0 0 -.552.286.44.44 0 0 0 .278.556m-10.9-10.429-.516-1.028a.422.422 0 0 0 -.576-.187.438.438 0 0 0 -.19.584l.516 1.027a.427.427 0 0 0 .576.187.438.438 0 0 0 .19-.583m-4.443 10.56-1.021.528a.438.438 0 0 0 -.19.583.422.422 0 0 0 .576.188l1.021-.528a.438.438 0 0 0 .19-.584.422.422 0 0 0 -.576-.187m.105-6.013-1.108-.36a.44.44 0 0 0 -.553.286.44.44 0 0 0 .279.556l1.108.36a.44.44 0 0 0 .552-.286.44.44 0 0 0 -.278-.556m8.384-2.24-1.733 5.332a.583.583 0 0 0 .372.741l5.263 1.71c.306.1.635-.07.736-.38a.587.587 0 0 0 -.371-.742l-4.71-1.53 1.55-4.771a.587.587 0 0 0 -.37-.741.587.587 0 0 0 -.737.38" fill="#71716e"/><path d="m17.366 87.725c-.396-.433-.555-1.133-.618-1.572a.177.177 0 0 0 -.304-.1c-.309.32-.85.792-1.424.91a.182.182 0 0 0 -.098.303c.396.432.554 1.135.616 1.575.022.146.2.204.305.098.309-.318.85-.794 1.424-.911a.182.182 0 0 0 .099-.303" fill="#fffffe"/><path d="m16.238 38.61 5.926-.938-.47-2.963-5.925.939z" fill="#71716e"/><path d="m13.793 35.96 8.89-1.407-.47-2.963-8.889 1.408z" fill="#a3a4a0"/><path d="m6.576 54.317c-1.296-8.184 4.286-15.867 12.469-17.163 8.182-1.296 15.865 4.286 17.162 12.47 1.295 8.181-4.287 15.865-12.47 17.16-8.182 1.296-15.865-4.286-17.161-12.467" fill="#7bbf6f"/><path d="m12.169 64.06c6.937 5.041 16.3 3.43 21.235-3.363 4.935-6.792 3.574-16.194-3.363-21.235l-17.871 24.599" fill="#f9ce2c"/><path d="m9.617 54.342c-.994-6.275 3.286-12.166 9.56-13.16 6.273-.993 12.163 3.287 13.157 9.562.993 6.272-3.286 12.162-9.56 13.156-6.273.993-12.163-3.286-13.157-9.558" fill="#fffffe"/><path d="m20.352 45.408-.268-1.693c-.056-.351-.322-.6-.595-.557s-.449.362-.393.713l.268 1.694c.056.35.322.6.595.556.272-.043.449-.362.393-.713m2.525 15.944-.156-.987a.5.5 0 1 0 -.988.156l.157.988a.5.5 0 1 0 .987-.157m2.683-14.245.807-1.11a.515.515 0 1 0 -.832-.605l-.807 1.11a.515.515 0 0 0 .833.605m1.994 10.851 1.11.805a.514.514 0 1 0 .605-.832l-1.11-.805a.514.514 0 1 0 -.605.832m1.698-5.209 1.693-.268c.35-.056.6-.321.557-.595-.044-.273-.363-.448-.714-.393l-1.693.268c-.35.056-.6.321-.556.595.043.273.362.449.713.393m-14.7-4.635-1.11-.806a.515.515 0 1 0 -.605.833l1.11.806a.515.515 0 0 0 .605-.833m1.007 11.008-.807 1.108a.514.514 0 1 0 .832.605l.807-1.109a.514.514 0 1 0 -.832-.604m-1.561-4.969-1.693.268c-.351.055-.6.32-.557.594.043.273.362.449.713.393l1.693-.268c.35-.055.6-.32.557-.594-.043-.273-.363-.449-.713-.393m4.73-6.208.904 5.711c.026.16.114.303.244.4.13.093.294.131.453.106l5.711-.904a.608.608 0 1 0 -.19-1.203l-5.11.81-.81-5.11a.61.61 0 0 0 -1.202.19" fill="#71716e"/><g fill-rule="nonzero"><path d="m75.542 38.448-4.18 26.385c-.287 1.814-2.038 3.039-3.92 2.74l-22.828-3.615c-1.882-.298-3.17-2.004-2.882-3.818l4.179-26.385c.287-1.815 2.039-3.04 3.92-2.742l22.829 3.617c1.882.298 3.169 2.004 2.882 3.819z" fill="#f49c53"/><path d="m75.112 38.38-4.179 26.385c-.287 1.814-2.017 3.042-3.872 2.749l-11.248-1.782 5.218-32.945 11.248 1.782c1.855.294 3.12 1.996 2.833 3.81z" fill="#f16661"/><path d="m44.815 61.853a1.128 1.128 0 0 1 -.95-1.28l4.208-26.572a1.128 1.128 0 0 1 1.3-.923l22.656 3.589c.62.098 1.047.671.95 1.279l-4.208 26.572a1.128 1.128 0 0 1 -1.3.923z" fill="#f6b72c"/><path d="m72.029 36.667-11.329-1.795-4.558 28.775 11.328 1.794a1.128 1.128 0 0 0 1.3-.923l4.209-26.572a1.128 1.128 0 0 0 -.951-1.28z" fill="#f49c53"/><path d="m65.922 59.638 1.708-1.203a1.103 1.103 0 0 0 .249-1.573 1.184 1.184 0 0 0 -1.62-.256l-1.708 1.203-1.253-1.672a1.184 1.184 0 0 0 -1.619-.257 1.103 1.103 0 0 0 -.249 1.573l1.253 1.672-1.708 1.204a1.103 1.103 0 0 0 -.25 1.572c.379.506 1.104.62 1.62.257l1.708-1.204 1.253 1.673c.379.505 1.103.62 1.62.256a1.103 1.103 0 0 0 .248-1.572zm3.744-14.688a1.14 1.14 0 0 1 -1.594-.253l-.293-.363-.626 3.95c-.29 1.833-2.05 3.07-3.941 2.77l-9.263-1.467c-.638-.1-1.216.305-1.314.923l-.722 4.561c-.098.618-.676 1.025-1.314.924s-1.062-.666-.964-1.284l.722-4.562c.29-1.831 2.05-3.068 3.941-2.769l9.264 1.467c.637.101 1.215-.305 1.313-.923l.626-3.95-.39.254a1.14 1.14 0 0 1 -1.595-.252 1.057 1.057 0 0 1 .245-1.545l2.627-1.846a1.14 1.14 0 0 1 1.594.252l1.929 2.568c.389.491.277 1.198-.245 1.545z" fill="#fff"/><path d="m66.358 31.191-1.344-.213c-.253-1.352-1.457-2.493-2.938-2.728-1.48-.234-2.979.479-3.637 1.687l-1.344-.213c-1.89-.3-3.65.937-3.941 2.77-.29 1.831 1.002 3.551 2.892 3.85l9.263 1.468c1.891.3 3.651-.938 3.941-2.77.29-1.831-1.001-3.552-2.892-3.851z" fill="#ffde3f"/><path d="m54.69 41.615 1.708-1.203a1.103 1.103 0 0 0 .25-1.573 1.184 1.184 0 0 0 -1.62-.256l-1.709 1.203-1.252-1.672a1.184 1.184 0 0 0 -1.62-.257 1.103 1.103 0 0 0 -.249 1.573l1.253 1.672-1.708 1.203a1.103 1.103 0 0 0 -.25 1.573c.38.505 1.104.62 1.62.256l1.708-1.203 1.253 1.672c.379.506 1.103.62 1.62.257a1.103 1.103 0 0 0 .249-1.573zm14.779 3.285a1.149 1.149 0 0 1 -1.601-.254l-.295-.363-.625 3.946c-.29 1.83-2.056 3.064-3.954 2.763l-4.652-.737.35-2.204 4.65.737c.641.101 1.221-.304 1.319-.921l.625-3.946-.392.254a1.149 1.149 0 0 1 -1.601-.253 1.052 1.052 0 0 1 .244-1.543l2.637-1.843a1.149 1.149 0 0 1 1.6.254l1.94 2.567c.39.491.279 1.196-.245 1.543z" fill="#fff"/><path d="m69.043 35.003c-.29 1.83-2.056 3.064-3.955 2.763l-4.65-.737 1.396-8.817c1.487.235 2.697 1.376 2.952 2.727l1.35.214c1.898.3 3.197 2.02 2.907 3.85z" fill="#f6b72c"/><path d="m50.032 60.542c-1.894-.3-3.198-2.041-2.907-3.88.291-1.84 2.07-3.093 3.964-2.793s3.198 2.04 2.907 3.88-2.07 3.093-3.964 2.793z" fill="#fff"/></g><g fill-rule="nonzero"><path d="m98.955 68.446 6.293 25.238c.433 1.736-.71 3.51-2.56 3.97l-22.425 5.592c-1.85.461-3.691-.568-4.124-2.304l-6.293-25.238c-.433-1.736.71-3.51 2.56-3.97l22.425-5.592c1.85-.461 3.691.568 4.124 2.304z" fill="#f49c53"/><path d="m98.533 68.551 6.293 25.238c.433 1.736-.689 3.505-2.511 3.959l-11.05 2.755-7.857-31.513 11.05-2.755c1.822-.454 3.642.58 4.075 2.316z" fill="#f16661"/><path d="m79.639 101.283c-.61.152-1.224-.196-1.368-.777l-6.338-25.418c-.145-.581.233-1.177.843-1.329l22.257-5.55c.61-.151 1.224.197 1.369.778l6.337 25.418c.145.581-.233 1.177-.843 1.329l-22.257 5.55z" fill="#f6b72c"/><path d="m95.033 68.21-11.128 2.775 6.862 27.524 11.129-2.775c.61-.152.988-.748.843-1.329l-6.337-25.418c-.145-.58-.759-.93-1.369-.777z" fill="#f49c53"/><path d="m98.237 91.138 1.112-1.738a1.054 1.054 0 0 0 -.375-1.504 1.207 1.207 0 0 0 -1.591.397l-1.113 1.737-1.797-1.013a1.207 1.207 0 0 0 -1.591.396 1.054 1.054 0 0 0 .375 1.505l1.797 1.012-1.111 1.738a1.054 1.054 0 0 0 .375 1.505 1.207 1.207 0 0 0 1.59-.397l1.112-1.738 1.798 1.013a1.207 1.207 0 0 0 1.59-.397 1.054 1.054 0 0 0 -.375-1.504l-1.797-1.013zm-2.197-14.598a1.161 1.161 0 0 1 -1.566.39l-.41-.212.943 3.78c.437 1.751-.71 3.54-2.567 4.003l-9.1 2.269c-.627.156-1.003.743-.856 1.334l1.088 4.363c.148.591-.229 1.178-.855 1.335-.627.156-1.235-.186-1.383-.777l-1.087-4.363c-.437-1.752.71-3.54 2.567-4.003l9.1-2.27c.626-.156 1.003-.743.855-1.334l-.942-3.779-.262.38a1.161 1.161 0 0 1 -1.566.39 1.011 1.011 0 0 1 -.369-1.478l1.712-2.669a1.161 1.161 0 0 1 1.566-.39l2.764 1.553c.548.29.716.965.369 1.478z" fill="#fff"/><path d="m87.703 65.5-1.32.33c-.753-1.113-2.302-1.669-3.757-1.306-1.454.363-2.56 1.58-2.703 2.916l-1.32.33c-1.858.463-3.004 2.25-2.567 4.003.437 1.752 2.289 2.793 4.146 2.33l9.1-2.269c1.857-.463 3.004-2.251 2.567-4.003-.437-1.753-2.289-2.793-4.146-2.33z" fill="#ffde3f"/><path d="m80.958 79.346 1.111-1.738a1.054 1.054 0 0 0 -.375-1.504 1.207 1.207 0 0 0 -1.59.396l-1.112 1.738-1.798-1.012a1.207 1.207 0 0 0 -1.59.396 1.054 1.054 0 0 0 .375 1.504l1.797 1.013-1.111 1.738a1.054 1.054 0 0 0 .375 1.504 1.207 1.207 0 0 0 1.59-.396l1.112-1.738 1.798 1.012a1.207 1.207 0 0 0 1.59-.396 1.054 1.054 0 0 0 -.375-1.504zm14.882-2.775a1.17 1.17 0 0 1 -1.573.392l-.411-.21.94 3.773c.437 1.75-.716 3.539-2.581 4.004l-4.57 1.139-.525-2.109 4.569-1.139c.63-.157 1.008-.744.86-1.334l-.94-3.775-.264.38a1.17 1.17 0 0 1 -1.573.392 1.006 1.006 0 0 1 -.368-1.476l1.722-2.669a1.17 1.17 0 0 1 1.573-.392l2.772 1.548c.55.289.718.963.369 1.476z" fill="#fff"/><path d="m91.643 67.875c.436 1.75-.717 3.538-2.582 4.003l-4.57 1.14-2.103-8.435c1.461-.364 3.015.19 3.77 1.3l1.325-.33c1.866-.465 3.723.572 4.16 2.322z" fill="#f6b72c"/><path d="m83.942 98.092c-1.861.464-3.732-.59-4.17-2.35-.44-1.76.718-3.569 2.579-4.033 1.86-.464 3.732.59 4.17 2.35.44 1.76-.718 3.569-2.579 4.033z" fill="#fff"/></g><path d="m54 81h6v-3h-6z" fill="#71716e"/><path d="m52 78h9v-3h-9z" fill="#a3a4a0"/><path d="m42 95.001c0-8.286 6.716-15.001 15-15.001s15 6.715 15 15.001c0 8.284-6.716 14.999-15 14.999s-15-6.715-15-14.999" fill="#7bbf6f"/><path d="m46 105.5c6.063 6.064 15.563 5.936 21.5 0s6.063-15.436 0-21.5z" fill="#f9ce2c"/><path d="m45 95.501c0-6.353 5.148-11.501 11.5-11.501 6.351 0 11.5 5.148 11.5 11.501 0 6.35-5.149 11.499-11.5 11.499-6.352 0-11.5-5.148-11.5-11.499" fill="#fffffe"/><path d="m57 88.357v-1.714c0-.356-.224-.643-.5-.643s-.5.287-.5.643v1.714c0 .356.224.643.5.643s.5-.287.5-.643m0 16.143v-1a.5.5 0 1 0 -1 0v1a.5.5 0 1 0 1 0m4.879-13.65.97-.97a.515.515 0 1 0 -.728-.728l-.97.97a.515.515 0 0 0 .728.728m.271 11.03.972.968a.514.514 0 0 0 .728-.727l-.971-.969a.514.514 0 1 0 -.728.727m2.492-4.879h1.714c.355 0 .643-.223.643-.5s-.288-.5-.643-.5h-1.714c-.355 0-.643.223-.643.5s.288.5.643.5m-13.793-6.878-.971-.97a.515.515 0 1 0 -.728.728l.97.97a.515.515 0 0 0 .728-.728m-.727 11.03-.971.969a.514.514 0 1 0 .728.727l.97-.969a.514.514 0 1 0 -.727-.727m-.765-5.152h-1.714c-.355 0-.643.223-.643.5s.288.5.643.5h1.714c.355 0 .643-.223.643-.5s-.288-.5-.643-.5m5.643-5.391v5.782c0 .162.065.317.178.432.114.113.27.177.43.177h5.783a.608.608 0 1 0 0-1.217h-5.174v-5.174a.61.61 0 0 0 -1.217 0" fill="#71716e"/><path d="m44.8 128.21-13.082 13.564h57.882l-14.933-13.564z" fill="#caf5ff"/><path d="m46.133 127.166h14.4l-15.466 14.608h-13.067z" fill="#46c4d1" opacity=".805"/><path d="m44.8 128.21h29.6v-14.088h-29.6z" fill="#caf5ff"/><path d="m59.465 128.21h14.668v-14.088z" fill="#46c4d1" opacity=".805"/><g fill-opacity=".5"><path d="m0 85.949h119.467v-27.653h-119.467z" fill="#caf5ff"/><path d="m60.267 58.818v27.13h29.333zm-59.734 0v27.13h29.33z" fill="#46c4d1"/><path d="m59.733 58.296h-59.733l29.862 27.652.005-.004.004.004zm59.2 27.652h-58.666l29.333 28.435-.533-.787.533.787z" fill="#90edfc"/><path d="m60.267 85.948h-59.734l30.4 28.174zm59.2-27.652h-59.734l29.863 27.652.004-.004.004.004z" fill="#90edfc"/><path d="m30.933 114.122h58.667l-29.333-28.174z" fill="#caf5ff"/></g><path d="m74.133 114.122h-29.333l14.665 14.087h.004z" fill="#90edfc"/><path d="m44.8 141.774h29.333l-14.663-13.572-.002.006-.002-.008z" fill="#90edfc"/><path d="m30.933 114.122-1.07-28.174h30.404zm58.667.261-.004-28.435h30.404z" fill="#46c4d1" fill-opacity=".5"/></g></svg>