<svg height="145" viewBox="0 0 218 145" width="218" xmlns="http://www.w3.org/2000/svg" xmlns:xlink="http://www.w3.org/1999/xlink"><mask id="a" fill="#fff"><path d="m.745.813h2.185v2.187h-2.186z" fill="none"/></mask><mask id="b" fill="#fff"><path d="m.917.813h2.187v2.187h-2.187z" fill="none"/></mask><mask id="c" fill="#fff"><path d="m.939.813h2.186v2.187h-2.186z" fill="none"/></mask><mask id="d" fill="#fff"><path d="m.112.813h2.186v2.187h-2.186z" fill="none"/></mask><mask id="e" fill="#fff"><path d="m.134.813h2.186v2.187h-2.186z" fill="none"/></mask><mask id="f" fill="#fff"><path d="m.307.813h2.186v2.187h-2.186z" fill="none"/></mask><mask id="g" fill="#fff"><path d="m.328.813h2.186v2.187h-2.186z" fill="none"/></mask><mask id="h" fill="#fff"><path d="m.501.813h2.186v2.187h-2.186z" fill="none"/></mask><g fill="none" fill-rule="evenodd"><g fill="#000" opacity=".05" transform="translate(152 8)"><path d="m55.093 8a1.093 1.093 0 1 1 0 2.185 1.093 1.093 0 0 1 0-2.185m0 8a1.093 1.093 0 1 1 0 2.186 1.093 1.093 0 0 1 0-2.186m0 8a1.093 1.093 0 1 1 0 2.185 1.093 1.093 0 0 1 0-2.185m0-24a1.093 1.093 0 1 1 0 2.185 1.093 1.093 0 0 1 0-2.185m9 8a1.093 1.093 0 1 1 .001 2.187 1.093 1.093 0 0 1 -.001-2.187m0 8a1.094 1.094 0 1 1 0 2.187 1.094 1.094 0 0 1 0-2.187m0 8a1.093 1.093 0 1 1 .001 2.187 1.093 1.093 0 0 1 -.001-2.187m0-24a1.093 1.093 0 1 1 .001 2.187 1.093 1.093 0 0 1 -.001-2.187m-27 8a1.093 1.093 0 1 1 0 2.185 1.093 1.093 0 0 1 0-2.185m0 8a1.093 1.093 0 1 1 0 2.186 1.093 1.093 0 0 1 0-2.186m0 8a1.093 1.093 0 1 1 0 2.185 1.093 1.093 0 0 1 0-2.185m0-24a1.093 1.093 0 1 1 0 2.185 1.093 1.093 0 0 1 0-2.185m9 8a1.093 1.093 0 1 1 0 2.185 1.093 1.093 0 0 1 0-2.185m0 8a1.093 1.093 0 1 1 0 2.186 1.093 1.093 0 0 1 0-2.186m0 8a1.093 1.093 0 1 1 0 2.185 1.093 1.093 0 0 1 0-2.185m0-24a1.093 1.093 0 1 1 0 2.185 1.093 1.093 0 0 1 0-2.185m-27 8a1.093 1.093 0 1 1 0 2.185 1.093 1.093 0 0 1 0-2.185m0 8a1.093 1.093 0 1 1 0 2.186 1.093 1.093 0 0 1 0-2.186m0 8a1.093 1.093 0 1 1 0 2.185 1.093 1.093 0 0 1 0-2.185m0-24a1.093 1.093 0 1 1 0 2.185 1.093 1.093 0 0 1 0-2.185m10 8a1.093 1.093 0 1 1 0 2.185 1.093 1.093 0 0 1 0-2.185m0 8a1.093 1.093 0 1 1 0 2.186 1.093 1.093 0 0 1 0-2.186m0 8a1.093 1.093 0 1 1 0 2.185 1.093 1.093 0 0 1 0-2.185m0-24a1.093 1.093 0 1 1 0 2.185 1.093 1.093 0 0 1 0-2.185m-27 8a1.093 1.093 0 1 1 0 2.185 1.093 1.093 0 0 1 0-2.185m0 8a1.093 1.093 0 1 1 0 2.186 1.093 1.093 0 0 1 0-2.186m0 8a1.093 1.093 0 1 1 0 2.185 1.093 1.093 0 0 1 0-2.185m0-24a1.093 1.093 0 1 1 0 2.185 1.093 1.093 0 0 1 0-2.185m9 8a1.093 1.093 0 1 1 0 2.185 1.093 1.093 0 0 1 0-2.185m0 8a1.093 1.093 0 1 1 0 2.186 1.093 1.093 0 0 1 0-2.186m0 8a1.093 1.093 0 1 1 0 2.185 1.093 1.093 0 0 1 0-2.185m0-24a1.093 1.093 0 1 1 0 2.185 1.093 1.093 0 0 1 0-2.185m44 41a1.093 1.093 0 1 1 0 2.186 1.093 1.093 0 0 1 0-2.186m0 8a1.093 1.093 0 1 1 0 2.185 1.093 1.093 0 0 1 0-2.185"/><path d="m1.837.813a1.093 1.093 0 1 1 0 2.187 1.093 1.093 0 0 1 0-2.187" mask="url(#a)" transform="translate(53 56)"/><path d="m55.093 33a1.093 1.093 0 1 1 0 2.187 1.093 1.093 0 0 1 0-2.187m9 8a1.094 1.094 0 1 1 0 2.187 1.094 1.094 0 0 1 0-2.187m0 8a1.093 1.093 0 1 1 .001 2.187 1.093 1.093 0 0 1 -.001-2.187"/><path d="m2.01.813a1.094 1.094 0 1 1 0 2.189 1.094 1.094 0 0 1 0-2.189" mask="url(#b)" transform="translate(62 56)"/><path d="m64.093 33a1.094 1.094 0 1 1 0 2.189 1.094 1.094 0 0 1 0-2.189m-27 8a1.093 1.093 0 1 1 0 2.186 1.093 1.093 0 0 1 0-2.186m0 8a1.093 1.093 0 1 1 0 2.185 1.093 1.093 0 0 1 0-2.185"/><path d="m2.032.813a1.093 1.093 0 1 1 -.002 2.187 1.093 1.093 0 0 1 0-2.187" mask="url(#c)" transform="translate(35 56)"/><path d="m37.093 33a1.093 1.093 0 1 1 0 2.187 1.093 1.093 0 0 1 0-2.187m9 8a1.093 1.093 0 1 1 0 2.186 1.093 1.093 0 0 1 0-2.186m0 8a1.093 1.093 0 1 1 0 2.185 1.093 1.093 0 0 1 0-2.185"/><path d="m1.205.813a1.093 1.093 0 1 1 0 2.187 1.093 1.093 0 0 1 0-2.187" mask="url(#d)" transform="translate(45 56)"/><path d="m46.093 33a1.093 1.093 0 1 1 0 2.187 1.093 1.093 0 0 1 0-2.187m-27 8a1.093 1.093 0 1 1 0 2.186 1.093 1.093 0 0 1 0-2.186m0 8a1.093 1.093 0 1 1 0 2.185 1.093 1.093 0 0 1 0-2.185"/><path d="m1.227.813a1.093 1.093 0 1 1 -.001 2.187 1.093 1.093 0 0 1 0-2.187" mask="url(#e)" transform="translate(18 56)"/><path d="m19.093 33a1.093 1.093 0 1 1 0 2.187 1.093 1.093 0 0 1 0-2.187m10 8a1.093 1.093 0 1 1 0 2.186 1.093 1.093 0 0 1 0-2.186m0 8a1.093 1.093 0 1 1 0 2.185 1.093 1.093 0 0 1 0-2.185"/><path d="m1.4.813a1.093 1.093 0 1 1 0 2.187 1.093 1.093 0 0 1 0-2.187" mask="url(#f)" transform="translate(27 56)"/><path d="m29.093 33a1.093 1.093 0 1 1 0 2.187 1.093 1.093 0 0 1 0-2.187m-27 8a1.093 1.093 0 1 1 0 2.186 1.093 1.093 0 0 1 0-2.186m0 8a1.093 1.093 0 1 1 0 2.185 1.093 1.093 0 0 1 0-2.185"/><path d="m1.421.813a1.093 1.093 0 1 1 0 2.187 1.093 1.093 0 0 1 0-2.187" mask="url(#g)" transform="translate(0 56)"/><path d="m2.093 33a1.093 1.093 0 1 1 0 2.187 1.093 1.093 0 0 1 0-2.187m9 8a1.093 1.093 0 1 1 0 2.186 1.093 1.093 0 0 1 0-2.186m0 8a1.093 1.093 0 1 1 0 2.185 1.093 1.093 0 0 1 0-2.185"/><path d="m1.594.813a1.093 1.093 0 1 1 0 2.187 1.093 1.093 0 0 1 0-2.187" mask="url(#h)" transform="translate(9 56)"/><path d="m11.093 33a1.093 1.093 0 1 1 0 2.187 1.093 1.093 0 0 1 0-2.187"/></g><g fill="#f6b72c"><circle cx="181" cy="17" r="2"/><circle cx="207.5" cy="25.5" r="1.5"/><circle cx="207" cy="50" r="2"/></g><path d="m33.922 15.26a.473.473 0 0 0 -.845 0c-.514 1.014-1.485 2.592-2.83 3.334a.456.456 0 0 0 0 .812c1.345.742 2.316 2.32 2.83 3.334.175.347.67.347.845 0 .515-1.014 1.486-2.592 2.83-3.334a.456.456 0 0 0 0-.812c-1.344-.742-2.315-2.32-2.83-3.334zm82.83 1.334c-1.344-.742-2.315-2.32-2.83-3.334a.473.473 0 0 0 -.845 0c-.514 1.014-1.484 2.592-2.83 3.334a.456.456 0 0 0 0 .812c1.346.742 2.316 2.32 2.83 3.334.175.347.67.347.845 0 .515-1.014 1.486-2.592 2.83-3.334a.456.456 0 0 0 0-.812m28 10c-1.344-.742-2.315-2.32-2.83-3.334a.473.473 0 0 0 -.845 0c-.514 1.014-1.484 2.592-2.83 3.334a.456.456 0 0 0 0 .812c1.346.742 2.316 2.32 2.83 3.334.175.347.67.347.845 0 .515-1.014 1.486-2.592 2.83-3.334a.456.456 0 0 0 0-.812m-51.999-23c-1.345-.742-2.316-2.32-2.83-3.334a.473.473 0 0 0 -.845 0c-.515 1.014-1.486 2.592-2.83 3.334a.456.456 0 0 0 0 .811c1.344.742 2.315 2.32 2.83 3.339.174.341.67.341.844 0 .515-1.019 1.486-2.597 2.83-3.339a.456.456 0 0 0 0-.811m-26 9c-1.344-.737-2.315-2.32-2.83-3.334a.473.473 0 0 0 -.845 0c-.514 1.014-1.484 2.597-2.83 3.334a.46.46 0 0 0 0 .816c1.346.737 2.316 2.315 2.83 3.334.175.341.67.341.845 0 .515-1.019 1.486-2.597 2.83-3.334a.46.46 0 0 0 0-.816" fill="#f6bf3e"/><path d="m178.695 142.275-24.837-.03c-1.515-.11-2.767-1.167-2.767-2.584v-20.518c0-1.42 1.25-2.466 2.767-2.585h24.837z" fill="#dd5b5a"/><path d="m177.847 120.732v2.106h-20.282c-1.568 0-1.568-2.106 0-2.106zm0 12.635v2.103h-19.973c-1.568 0-1.568-2.103 0-2.103zm0-6.317v2.102h-19.973c-1.568 0-1.568-2.102 0-2.102z" fill="#d03a3c"/><path d="m157.107 139.008c-1.515-.092-2.794-1.016-2.794-2.258v-17.934c0-1.239 1.28-2.019 2.794-2.316h5.393-8.812c-1.517.297-2.648 1.223-2.648 2.643v20.518c0 1.417 1.134 2.475 2.648 2.585l24.724.03v-3.244z" fill="#cb3637"/><path d="m177.19 114.5v29.801h2.014v-29.801z" fill="#cdccc7"/><path d="m191.164 139.912a1.341 1.341 0 1 1 -1.342 1.34c0-.74.601-1.34 1.342-1.34m-9-9.682a1.341 1.341 0 1 1 -1.342 1.34c0-.74.601-1.34 1.342-1.34m3.994 6.125a1.34 1.34 0 1 1 .002 2.682 1.34 1.34 0 0 1 -.002-2.682m-1.156-3.726a1.185 1.185 0 0 1 0 2.367 1.185 1.185 0 0 1 0-2.367m-3.474-5.309a.8.8 0 1 1 0 1.6.8.8 0 0 1 0-1.6m7.636 8.935a1.341 1.341 0 1 1 -1.342 1.34c0-.74.601-1.34 1.342-1.34m-1.508 3.329a1.151 1.151 0 1 1 0 2.302 1.152 1.152 0 1 1 0-2.302" fill="#5c5c59"/><path d="m185.05 139.682a1.341 1.341 0 0 1 0 2.68 1.341 1.341 0 0 1 0-2.68m-3.89-6.262a1.175 1.175 0 0 1 0 2.35c-.65 0-1.178-.525-1.178-1.173 0-.647.528-1.176 1.177-1.176m1.505 2.311a1.84 1.84 0 1 1 0 3.677 1.84 1.84 0 1 1 0-3.677m-1.253 3.843a1.588 1.588 0 1 1 0 3.175 1.587 1.587 0 1 1 0-3.175" fill="#5c5c59"/><path d="m91.43 37.38 5.956 1.935.98-3.017-5.957-1.936z" fill="#71716e"/><path d="m91.154 33.955 8.467 2.75 1.126-3.464-8.467-2.751z" fill="#a3a4a0"/><path d="m75.947 46.786c2.58-7.937 11.018-12.306 18.85-9.761 7.833 2.545 12.093 11.04 9.514 18.977-2.578 7.933-11.018 12.302-18.85 9.758-7.832-2.545-12.091-11.04-9.514-18.974" fill="#dd5b5a"/><path d="m76.796 58.312c3.794 7.568 12.694 10.327 20.054 6.516 7.361-3.81 10.395-12.75 6.602-20.318z" fill="#d03a3c"/><path d="m79.233 47.853c1.982-6.098 8.466-9.455 14.483-7.5 6.018 1.955 9.291 8.483 7.31 14.581-1.98 6.096-8.466 9.452-14.483 7.497-6.018-1.955-9.29-8.482-7.31-14.578" fill="#fffffe"/><path d="m92.937 44.044.364-1.123a.44.44 0 0 0 -.278-.556.44.44 0 0 0 -.553.286l-.364 1.122a.44.44 0 0 0 .278.556.44.44 0 0 0 .553-.285m-5.38 16.557.273-.842a.44.44 0 0 0 -.278-.556.44.44 0 0 0 -.553.286l-.273.842a.44.44 0 0 0 .278.556.44.44 0 0 0 .553-.286m9.862-12.346 1.02-.528a.438.438 0 0 0 .19-.583.422.422 0 0 0 -.576-.188l-1.02.528a.438.438 0 0 0 -.19.584.427.427 0 0 0 .576.187m-3.765 10.781.516 1.027a.422.422 0 0 0 .576.187.438.438 0 0 0 .19-.584l-.516-1.027a.422.422 0 0 0 -.577-.187.438.438 0 0 0 -.19.584m4.118-4.424.831.27a.44.44 0 0 0 .553-.286.44.44 0 0 0 -.279-.556l-.831-.27a.44.44 0 0 0 -.552.286.44.44 0 0 0 .278.556m-10.9-10.429-.516-1.028a.422.422 0 0 0 -.576-.187.438.438 0 0 0 -.19.584l.516 1.027a.427.427 0 0 0 .576.187.438.438 0 0 0 .19-.583m-4.443 10.56-1.021.528a.438.438 0 0 0 -.19.583.422.422 0 0 0 .576.188l1.021-.528a.438.438 0 0 0 .19-.584.422.422 0 0 0 -.576-.187m.105-6.013-1.108-.36a.44.44 0 0 0 -.553.286.44.44 0 0 0 .279.556l1.108.36a.44.44 0 0 0 .552-.286.44.44 0 0 0 -.278-.556m8.384-2.24-1.733 5.332a.583.583 0 0 0 .372.741l5.263 1.71c.306.1.635-.07.736-.38a.587.587 0 0 0 -.371-.742l-4.71-1.53 1.55-4.771a.587.587 0 0 0 -.37-.741.587.587 0 0 0 -.737.38" fill="#71716e"/><path d="m81.366 53.725c-.396-.433-.555-1.133-.618-1.572a.177.177 0 0 0 -.304-.1c-.309.32-.85.792-1.424.91a.182.182 0 0 0 -.098.303c.396.432.554 1.135.616 1.575.022.146.2.204.305.098.309-.318.85-.794 1.424-.911a.182.182 0 0 0 .099-.303" fill="#fffffe"/><path d="m100.86 81.822 5.806-2.346-1.188-2.941-5.807 2.346z" fill="#71716e"/><path d="m98.447 79.375 8.254-3.334-1.364-3.379-8.255 3.335z" fill="#a3a4a0"/><path d="m95.046 98.98c-3.126-7.738.53-16.51 8.166-19.594 7.635-3.086 16.36.684 19.485 8.421 3.125 7.735-.531 16.507-8.167 19.592s-16.36-.685-19.484-8.42" fill="#dd5b5a"/><path d="m103.104 107.264c7.771 3.359 16.363-.25 19.552-7.9 3.19-7.65-.233-16.449-8.003-19.808z" fill="#d03a3c"/><path d="m98.25 97.685c-2.403-5.945.406-12.684 6.273-15.055 5.866-2.37 12.57.526 14.972 6.471 2.4 5.943-.41 12.683-6.276 15.053-5.867 2.37-12.569-.526-14.97-6.469" fill="#fffffe"/><path d="m106.298 85.958-.443-1.094a.44.44 0 0 0 -.57-.247.44.44 0 0 0 -.24.574l.442 1.095a.44.44 0 0 0 .571.246.44.44 0 0 0 .24-.574m6.522 16.142-.332-.82a.44.44 0 0 0 -.571-.247.44.44 0 0 0 -.24.574l.332.82a.44.44 0 0 0 .571.247.44.44 0 0 0 .24-.574m-.382-15.797.443-1.06a.438.438 0 0 0 -.23-.57.422.422 0 0 0 -.562.228l-.442 1.06a.438.438 0 0 0 .23.57.427.427 0 0 0 .561-.228m4.046 10.679 1.055.455c.22.096.471-.005.562-.227a.438.438 0 0 0 -.23-.569l-1.055-.455a.422.422 0 0 0 -.562.227.438.438 0 0 0 .23.57m.311-6.036.81-.328a.44.44 0 0 0 .24-.574.44.44 0 0 0 -.572-.247l-.81.328a.44.44 0 0 0 -.24.574.44.44 0 0 0 .572.247m-15.055-.983-1.055-.456a.422.422 0 0 0 -.562.227.438.438 0 0 0 .23.57l1.055.455a.427.427 0 0 0 .562-.227.438.438 0 0 0 -.23-.57m3.385 10.947-.443 1.06a.438.438 0 0 0 .23.57c.22.095.47-.006.561-.228l.443-1.06a.438.438 0 0 0 -.23-.57.422.422 0 0 0 -.561.228m-3.785-4.674-1.08.436a.44.44 0 0 0 -.24.574.44.44 0 0 0 .571.247l1.08-.436a.44.44 0 0 0 .24-.574.44.44 0 0 0 -.571-.247m4.983-7.106 2.1 5.199a.583.583 0 0 0 .761.329l5.131-2.073a.585.585 0 0 0 .32-.766.587.587 0 0 0 -.762-.329l-4.59 1.855-1.88-4.65a.587.587 0 0 0 -.761-.33.587.587 0 0 0 -.32.766" fill="#71716e"/><path d="m103.657 100.812c-.581-.077-1.154-.511-1.484-.807a.177.177 0 0 0 -.297.12c-.031.442-.141 1.152-.506 1.61a.182.182 0 0 0 .12.296c.58.077 1.154.514 1.484.81a.178.178 0 0 0 .297-.12c.032-.442.14-1.154.505-1.613a.182.182 0 0 0 -.12-.296" fill="#fffffe"/><path d="m108 51.999c0-8.837 7.163-15.999 16-15.999s16 7.162 16 15.999c0 8.836-7.163 16.001-16 16.001s-16-7.165-16-16.001" fill="#7bbf6f"/><path d="m110.133 51.467c0-7.364 5.97-13.334 13.334-13.334s13.333 5.97 13.333 13.334-5.97 13.333-13.333 13.333c-7.364 0-13.334-5.97-13.334-13.333" fill="#8bc476"/><g fill="#fffffe"><path d="m131.462 52.024-5.962.013a.186.186 0 0 0 -.19.18v6.36c0 .098.085.18.19.18.106 0 .191-.082.191-.18v-6.177l5.772-.013c.105 0 .19-.081.19-.183 0-.1-.086-.18-.19-.18"/><path d="m119.57 46.78 5.795 5.567a.197.197 0 0 0 .27 0 .176.176 0 0 0 0-.257l-5.794-5.567a.197.197 0 0 0 -.27 0 .176.176 0 0 0 0 .257"/><path d="m129.818 47.83-4.452 4.26a.176.176 0 0 0 0 .257l4.446 4.244a.197.197 0 0 0 .27 0 .176.176 0 0 0 0-.257l-4.312-4.116 4.318-4.132a.176.176 0 0 0 0-.257.197.197 0 0 0 -.27 0"/><path d="m117.274 52.408 8.227-.007c.105 0 .19-.082.19-.183v-7.72c0-.1-.085-.182-.19-.182a.186.186 0 0 0 -.191.181v7.54l-8.036.007a.186.186 0 0 0 -.19.181c0 .102.085.183.19.183"/><path d="m125.676 52.146-2.423-5.457a.196.196 0 0 0 -.25-.097.18.18 0 0 0 -.101.24l2.423 5.457a.196.196 0 0 0 .25.097.179.179 0 0 0 .101-.24"/><path d="m120.985 58.757 4.672-6.435a.178.178 0 0 0 -.048-.255.199.199 0 0 0 -.265.046l-4.673 6.438a.175.175 0 0 0 .048.252.194.194 0 0 0 .266-.046m3.175-17.745c-.739.706-.739 1.851 0 2.559l1.34 1.277 1.34-1.277c.74-.708.74-1.853 0-2.559a1.956 1.956 0 0 0 -2.68 0m-7.886 4.16c-.003.998.843 1.81 1.89 1.815l1.894.005.005-1.81c.003-.998-.842-1.81-1.888-1.812-1.047-.003-1.898.804-1.9 1.802m10.565 16.736c.74-.708.74-1.853 0-2.558l-1.34-1.278-1.34 1.278c-.739.705-.739 1.85 0 2.558.74.705 1.94.705 2.68 0m-12.75-8.423c.74.705 1.939.705 2.679 0l1.34-1.278-1.34-1.28a1.961 1.961 0 0 0 -2.68 0 1.752 1.752 0 0 0 0 2.558m20.966-2.558a1.961 1.961 0 0 0 -2.679 0l-1.34 1.28 1.34 1.278c.74.705 1.94.705 2.68 0s.74-1.85 0-2.558m-2.882 6.353c.002-.73-.615-1.32-1.378-1.323l-1.381-.003-.003 1.319c-.002.728.615 1.32 1.378 1.32.763.003 1.383-.585 1.384-1.313m-10.871-12.144c-.288.675.051 1.446.758 1.72l1.28.497.52-1.222c.288-.674-.051-1.443-.758-1.718-.706-.275-1.512.049-1.8.723"/><path d="m125.415 52.055-5.558 2.644a.175.175 0 0 0 -.086.242.195.195 0 0 0 .255.084l5.56-2.645a.178.178 0 0 0 .085-.244.197.197 0 0 0 -.256-.081"/><path d="m118.353 56.652c.723.231 1.507-.138 1.75-.828l.442-1.25-1.308-.422c-.723-.232-1.507.138-1.75.827-.245.69.143 1.439.866 1.673m12.955-11.791c-1.046 0-1.895.81-1.897 1.807l-.001 1.808 1.895.002c1.046 0 1.895-.807 1.896-1.807 0-.998-.847-1.807-1.893-1.81m-10.85 16.523c1.03-.176 1.716-1.115 1.532-2.1l-.334-1.78-1.865.319c-1.03.175-1.716 1.115-1.531 2.1.184.982 1.168 1.636 2.198 1.46"/></g><path d="m54 87.999c0-8.837 7.163-15.999 16-15.999s16 7.162 16 15.999c0 8.836-7.163 16.001-16 16.001s-16-7.165-16-16.001" fill="#7bbf6f"/><path d="m56.133 87.467c0-7.364 5.97-13.334 13.334-13.334s13.333 5.97 13.333 13.334-5.97 13.333-13.333 13.333c-7.364 0-13.334-5.97-13.334-13.333" fill="#8bc476"/><g fill="#fffffe"><path d="m77.462 88.024-5.962.013a.186.186 0 0 0 -.19.18v6.36c0 .098.085.18.19.18.106 0 .191-.082.191-.18v-6.177l5.772-.013c.105 0 .19-.081.19-.183 0-.1-.086-.18-.19-.18"/><path d="m65.57 82.78 5.795 5.567a.197.197 0 0 0 .27 0 .176.176 0 0 0 0-.257l-5.794-5.567a.197.197 0 0 0 -.27 0 .176.176 0 0 0 0 .257"/><path d="m75.818 83.83-4.452 4.26a.176.176 0 0 0 0 .257l4.446 4.244a.197.197 0 0 0 .27 0 .176.176 0 0 0 0-.257l-4.312-4.116 4.318-4.132a.176.176 0 0 0 0-.257.197.197 0 0 0 -.27 0"/><path d="m63.274 88.408 8.227-.007c.105 0 .19-.082.19-.183v-7.72c0-.1-.085-.182-.19-.182a.186.186 0 0 0 -.191.181v7.54l-8.036.007a.186.186 0 0 0 -.19.181c0 .102.085.183.19.183"/><path d="m71.676 88.146-2.423-5.457a.196.196 0 0 0 -.25-.097.18.18 0 0 0 -.101.24l2.423 5.457a.196.196 0 0 0 .25.097.179.179 0 0 0 .101-.24"/><path d="m66.985 94.757 4.672-6.435a.178.178 0 0 0 -.048-.255.199.199 0 0 0 -.265.046l-4.673 6.438a.175.175 0 0 0 .048.252.194.194 0 0 0 .266-.046m3.175-17.745c-.739.706-.739 1.851 0 2.559l1.34 1.277 1.34-1.277c.74-.708.74-1.853 0-2.559a1.956 1.956 0 0 0 -2.68 0m-7.886 4.16c-.003.998.843 1.81 1.89 1.815l1.894.005.005-1.81c.003-.998-.842-1.81-1.888-1.812-1.047-.003-1.898.804-1.9 1.802m10.565 16.736c.74-.708.74-1.853 0-2.558l-1.34-1.278-1.34 1.278c-.739.705-.739 1.85 0 2.558.74.705 1.94.705 2.68 0m-12.75-8.423c.74.705 1.939.705 2.679 0l1.34-1.278-1.34-1.28a1.961 1.961 0 0 0 -2.68 0 1.752 1.752 0 0 0 0 2.558m20.966-2.558a1.961 1.961 0 0 0 -2.679 0l-1.34 1.28 1.34 1.278c.74.705 1.94.705 2.68 0s.74-1.85 0-2.558m-2.882 6.353c.002-.73-.615-1.32-1.378-1.323l-1.381-.003-.003 1.319c-.002.728.615 1.32 1.378 1.32.763.003 1.383-.585 1.384-1.313m-10.871-12.144c-.288.675.051 1.446.758 1.72l1.28.497.52-1.222c.288-.674-.051-1.443-.758-1.718-.706-.275-1.512.049-1.8.723"/><path d="m71.415 88.055-5.558 2.644a.175.175 0 0 0 -.086.242.195.195 0 0 0 .255.084l5.56-2.645a.178.178 0 0 0 .085-.244.197.197 0 0 0 -.256-.081"/><path d="m64.353 92.652c.723.231 1.507-.138 1.75-.828l.442-1.25-1.308-.422c-.723-.232-1.507.138-1.75.827-.245.69.143 1.439.866 1.673m12.955-11.791c-1.046 0-1.895.81-1.897 1.807l-.001 1.808 1.895.002c1.046 0 1.895-.807 1.896-1.807 0-.998-.847-1.807-1.893-1.81m-10.85 16.523c1.03-.176 1.716-1.115 1.532-2.1l-.334-1.78-1.865.319c-1.03.175-1.716 1.115-1.531 2.1.184.982 1.168 1.636 2.198 1.46"/></g><g transform="translate(143 37)"><circle cx="15" cy="15" fill="#f49c53" r="15"/><circle cx="15" cy="15" fill="#f6b72c" r="13"/><path d="m18.545 20.934-9.583-7.222 9.55-2.82z" fill="#fff"/></g><g transform="translate(17 68)"><circle cx="15" cy="15" fill="#f49c53" r="15"/><circle cx="15" cy="15" fill="#f6b72c" r="13"/><path d="m18.545 20.934-9.583-7.222 9.55-2.82z" fill="#fff"/></g><path d="m13.238 36.61 5.926-.938-.47-2.963-5.925.939z" fill="#71716e"/><path d="m10.793 33.96 8.89-1.407-.47-2.963-8.889 1.408z" fill="#a3a4a0"/><path d="m3.576 52.317c-1.296-8.184 4.286-15.867 12.469-17.163 8.182-1.296 15.865 4.286 17.162 12.47 1.295 8.181-4.287 15.865-12.47 17.16-8.182 1.296-15.865-4.286-17.161-12.467" fill="#7bbf6f"/><path d="m9.169 62.06c6.937 5.041 16.3 3.43 21.235-3.363 4.935-6.792 3.574-16.194-3.363-21.235l-17.871 24.599" fill="#f9ce2c"/><path d="m6.617 52.342c-.994-6.275 3.286-12.166 9.56-13.16 6.273-.993 12.163 3.287 13.157 9.562.993 6.272-3.286 12.162-9.56 13.156-6.273.993-12.163-3.286-13.157-9.558" fill="#fffffe"/><path d="m17.352 43.408-.268-1.693c-.056-.351-.322-.6-.595-.557s-.449.362-.393.713l.268 1.694c.056.35.322.6.595.556.272-.043.449-.362.393-.713m2.525 15.944-.156-.987a.5.5 0 1 0 -.988.156l.157.988a.5.5 0 1 0 .987-.157m2.683-14.245.807-1.11a.515.515 0 1 0 -.832-.605l-.807 1.11a.515.515 0 0 0 .833.605m1.994 10.851 1.11.805a.514.514 0 1 0 .605-.832l-1.11-.805a.514.514 0 1 0 -.605.832m1.698-5.209 1.693-.268c.35-.056.6-.321.557-.595-.044-.273-.363-.448-.714-.393l-1.693.268c-.35.056-.6.321-.556.595.043.273.362.449.713.393m-14.7-4.635-1.11-.806a.515.515 0 1 0 -.605.833l1.11.806a.515.515 0 0 0 .605-.833m1.007 11.008-.807 1.108a.514.514 0 1 0 .832.605l.807-1.109a.514.514 0 1 0 -.832-.604m-1.561-4.969-1.693.268c-.351.055-.6.32-.557.594.043.273.362.449.713.393l1.693-.268c.35-.055.6-.32.557-.594-.043-.273-.363-.449-.713-.393m4.73-6.208.904 5.711c.026.16.114.303.244.4.13.093.294.131.453.106l5.711-.904a.608.608 0 1 0 -.19-1.203l-5.11.81-.81-5.11a.61.61 0 0 0 -1.202.19" fill="#71716e"/><path d="m142.871 74.616 5.822 1.451.726-2.91-5.822-1.452z" fill="#71716e"/><path d="m141.656 71.221 8.733 2.177.726-2.91-8.733-2.178z" fill="#a3a4a0"/><path d="m127.84 85.298c2.005-8.04 10.146-12.93 18.184-10.927 8.038 2.004 12.93 10.145 10.925 18.185-2.004 8.037-10.144 12.928-18.182 10.924-8.039-2.004-12.93-10.145-10.927-18.182" fill="#7bbf6f"/><path d="m129.182 96.453c4.416 7.35 13.664 9.524 20.86 5.2 7.198-4.323 9.618-13.51 5.203-20.86z" fill="#f9ce2c"/><path d="m130.63 86.51c1.537-6.165 7.778-9.915 13.941-8.378 6.163 1.536 9.913 7.777 8.376 13.941-1.536 6.162-7.777 9.912-13.94 8.375-6.163-1.536-9.913-7.777-8.377-13.939" fill="#fffffe"/><path d="m144.002 82.48.415-1.663c.086-.345-.062-.678-.33-.745s-.554.158-.64.503l-.415 1.663c-.086.345.061.678.33.745.267.067.554-.158.64-.503m-3.905 15.664.242-.97a.5.5 0 1 0 -.97-.243l-.242.97a.5.5 0 1 0 .97.243m8.036-12.064 1.176-.707a.515.515 0 1 0 -.53-.882l-1.176.706a.515.515 0 0 0 .53.883m-2.404 10.767.707 1.174a.514.514 0 1 0 .882-.53l-.707-1.174a.514.514 0 1 0 -.882.53m3.598-4.132 1.664.415c.344.086.677-.061.744-.33.067-.268-.158-.554-.503-.64l-1.663-.415c-.345-.086-.678.061-.745.33-.067.268.158.554.503.64m-11.72-10.01-.707-1.176a.515.515 0 1 0 -.882.53l.707 1.176a.515.515 0 0 0 .882-.53m-3.374 10.526-1.176.705a.514.514 0 1 0 .53.882l1.176-.705a.514.514 0 1 0 -.53-.882m.504-5.184-1.663-.415c-.345-.086-.678.062-.745.33s.158.555.503.64l1.664.415c.344.086.677-.06.744-.33.067-.268-.158-.554-.503-.64m6.78-3.866-1.399 5.61a.618.618 0 0 0 .069.463c.082.137.219.237.374.276l5.611 1.399a.608.608 0 1 0 .295-1.182l-5.02-1.251 1.251-5.02a.61.61 0 0 0 -1.181-.295" fill="#71716e"/><g fill-rule="nonzero"><path d="m72.542 39.448-4.18 26.385c-.287 1.814-2.038 3.039-3.92 2.74l-22.828-3.615c-1.882-.298-3.17-2.004-2.882-3.818l4.179-26.385c.287-1.815 2.039-3.04 3.92-2.742l22.829 3.617c1.882.298 3.169 2.004 2.882 3.819z" fill="#f49c53"/><path d="m72.112 39.38-4.179 26.385c-.287 1.814-2.017 3.042-3.872 2.749l-11.248-1.782 5.218-32.945 11.248 1.782c1.855.294 3.12 1.996 2.833 3.81z" fill="#f16661"/><path d="m41.815 62.853a1.128 1.128 0 0 1 -.95-1.28l4.208-26.572a1.128 1.128 0 0 1 1.3-.923l22.656 3.589c.62.098 1.047.671.95 1.279l-4.208 26.572a1.128 1.128 0 0 1 -1.3.923z" fill="#f6b72c"/><path d="m69.029 37.667-11.329-1.795-4.558 28.775 11.328 1.794a1.128 1.128 0 0 0 1.3-.923l4.209-26.572a1.128 1.128 0 0 0 -.951-1.28z" fill="#f49c53"/><path d="m62.922 60.638 1.708-1.203a1.103 1.103 0 0 0 .249-1.573 1.184 1.184 0 0 0 -1.62-.256l-1.708 1.203-1.253-1.672a1.184 1.184 0 0 0 -1.619-.257 1.103 1.103 0 0 0 -.249 1.573l1.253 1.672-1.708 1.204a1.103 1.103 0 0 0 -.25 1.572c.379.506 1.104.62 1.62.257l1.708-1.204 1.253 1.673c.379.505 1.103.62 1.62.256a1.103 1.103 0 0 0 .248-1.572zm3.744-14.688a1.14 1.14 0 0 1 -1.594-.253l-.293-.363-.626 3.95c-.29 1.833-2.05 3.07-3.941 2.77l-9.263-1.467c-.638-.1-1.216.305-1.314.923l-.722 4.561c-.098.618-.676 1.025-1.314.924s-1.062-.666-.964-1.284l.722-4.562c.29-1.831 2.05-3.068 3.941-2.769l9.264 1.467c.637.101 1.215-.305 1.313-.923l.626-3.95-.39.254a1.14 1.14 0 0 1 -1.595-.252 1.057 1.057 0 0 1 .245-1.545l2.627-1.846a1.14 1.14 0 0 1 1.594.252l1.929 2.568c.389.491.277 1.198-.245 1.545z" fill="#fff"/><path d="m63.358 32.191-1.344-.213c-.253-1.352-1.457-2.493-2.938-2.728-1.48-.234-2.979.479-3.637 1.687l-1.344-.213c-1.89-.3-3.65.937-3.941 2.77-.29 1.831 1.002 3.551 2.892 3.85l9.263 1.468c1.891.3 3.651-.938 3.941-2.77.29-1.831-1.001-3.552-2.892-3.851z" fill="#ffde3f"/><path d="m51.69 42.615 1.708-1.203a1.103 1.103 0 0 0 .25-1.573 1.184 1.184 0 0 0 -1.62-.256l-1.709 1.203-1.252-1.672a1.184 1.184 0 0 0 -1.62-.257 1.103 1.103 0 0 0 -.249 1.573l1.253 1.672-1.708 1.203a1.103 1.103 0 0 0 -.25 1.573c.38.505 1.104.62 1.62.256l1.708-1.203 1.253 1.672c.379.506 1.103.62 1.62.257a1.103 1.103 0 0 0 .249-1.573zm14.779 3.285a1.149 1.149 0 0 1 -1.601-.254l-.295-.363-.625 3.946c-.29 1.83-2.056 3.064-3.954 2.763l-4.652-.737.35-2.204 4.65.737c.641.101 1.221-.304 1.319-.921l.625-3.946-.392.254a1.149 1.149 0 0 1 -1.601-.253 1.052 1.052 0 0 1 .244-1.543l2.637-1.843a1.149 1.149 0 0 1 1.6.254l1.94 2.567c.39.491.279 1.196-.245 1.543z" fill="#fff"/><path d="m66.043 36.003c-.29 1.83-2.056 3.064-3.955 2.763l-4.65-.737 1.396-8.817c1.487.235 2.697 1.376 2.952 2.727l1.35.214c1.898.3 3.197 2.02 2.907 3.85z" fill="#f6b72c"/><path d="m47.032 61.542c-1.894-.3-3.198-2.041-2.907-3.88.291-1.84 2.07-3.093 3.964-2.793s3.198 2.04 2.907 3.88-2.07 3.093-3.964 2.793z" fill="#fff"/></g><path d="m72.68 128.21-12.755 13.564h56.435l-14.56-13.564z" fill="#caf5ff"/><path d="m73.98 127.166h14.04l-15.08 14.608h-12.74z" fill="#46c4d1" opacity=".805"/><path d="m72.68 128.21h28.86v-14.088h-28.86z" fill="#caf5ff"/><path d="m86.978 128.21h14.302v-14.088z" fill="#46c4d1" opacity=".805"/><g fill-opacity=".5"><path d="m0 85.949h176v-27.653h-176z" fill="#caf5ff"/><path d="m87.76 58.818v27.13h28.6zm-58.24 0v27.13h28.596z" fill="#46c4d1"/><path d="m87.24 58.296h-58.24l29.116 27.652.004-.004.004.004zm57.72 27.652h-57.2l28.6 28.435-.52-.787.52.787z" fill="#90edfc"/><path d="m87.76 85.948h-58.24l29.64 28.174zm57.72-27.652h-58.24l29.116 27.652.004-.004.004.004z" fill="#90edfc"/><g fill="#caf5ff"><path d="m59 114.174h57.2l-28.6-28.174z"/><path d="m116 114.174h30v-29.174zm30-28h30v-29.174zm-146 0h30v-27.652z"/><path d="m59.2 114.174h-30v-29.174z"/></g></g><path d="m101.28 114.122h-28.6l14.298 14.087h.004z" fill="#90edfc"/><path d="m72.68 141.774h28.6l-14.298-13.572-.002.006-.002-.008z" fill="#90edfc"/><path d="m59.16 114.122-1.044-28.174h29.644zm-30.444 0 1.044-28.174h-29.644zm117.644.261-.004-28.435h29.644z" fill="#46c4d1" fill-opacity=".5"/></g></svg>