<svg height="209" viewBox="0 0 310 209" width="310" xmlns="http://www.w3.org/2000/svg" xmlns:xlink="http://www.w3.org/1999/xlink"><mask id="a" fill="#fff"><path d="m1.077 1.178h3.162v3.167h-3.162z" fill="none"/></mask><mask id="b" fill="#fff"><path d="m1.327 1.178h3.163v3.167h-3.163z" fill="none"/></mask><mask id="c" fill="#fff"><path d="m1.358 1.178h3.162v3.167h-3.162z" fill="none"/></mask><mask id="d" fill="#fff"><path d="m.162 1.178h3.162v3.167h-3.162z" fill="none"/></mask><mask id="e" fill="#fff"><path d="m.193 1.178h3.162v3.167h-3.162z" fill="none"/></mask><mask id="f" fill="#fff"><path d="m.444 1.178h3.162v3.167h-3.162z" fill="none"/></mask><mask id="g" fill="#fff"><path d="m.474 1.178h3.163v3.167h-3.163z" fill="none"/></mask><mask id="h" fill="#fff"><path d="m.725 1.178h3.162v3.167h-3.162z" fill="none"/></mask><g fill="none" fill-rule="evenodd"><g fill="#000" opacity=".05" transform="translate(215.53 11.586)"><path d="m79.693 11.586a1.584 1.584 0 1 1 0 3.167 1.584 1.584 0 0 1 0-3.167m0 11.586c.873 0 1.58.709 1.58 1.585a1.582 1.582 0 1 1 -3.161 0c0-.876.707-1.585 1.58-1.585m.001 11.587c.873 0 1.58.708 1.58 1.583 0 .874-.707 1.584-1.58 1.584-.874 0-1.581-.71-1.581-1.584 0-.875.707-1.583 1.58-1.583m.001-34.759c.873 0 1.58.708 1.58 1.583s-.707 1.584-1.58 1.584c-.874 0-1.581-.71-1.581-1.584 0-.875.707-1.583 1.58-1.583m13.019 11.586a1.583 1.583 0 1 1 0 3.165 1.583 1.583 0 0 1 0-3.165m0 11.586a1.583 1.583 0 1 1 0 3.166 1.583 1.583 0 0 1 0-3.166m0 11.587a1.583 1.583 0 1 1 0 3.165 1.583 1.583 0 0 1 0-3.165m0-34.759a1.583 1.583 0 1 1 0 3.165 1.583 1.583 0 0 1 0-3.165m-39.056 11.586a1.584 1.584 0 1 1 0 3.167 1.584 1.584 0 0 1 0-3.167m0 11.586c.874 0 1.581.709 1.581 1.585a1.582 1.582 0 1 1 -3.162 0c0-.876.708-1.585 1.581-1.585m0 11.587c.874 0 1.581.708 1.581 1.583 0 .874-.707 1.584-1.58 1.584-.874 0-1.582-.71-1.582-1.584 0-.875.708-1.583 1.581-1.583m0-34.759c.874 0 1.581.708 1.581 1.583s-.707 1.584-1.58 1.584c-.874 0-1.582-.71-1.582-1.584 0-.875.708-1.583 1.581-1.583m13.019 11.586a1.584 1.584 0 1 1 0 3.167 1.584 1.584 0 0 1 0-3.167m0 11.586c.874 0 1.581.709 1.581 1.585a1.582 1.582 0 1 1 -3.162 0c0-.876.707-1.585 1.581-1.585m0 11.587c.874 0 1.581.708 1.581 1.583 0 .874-.707 1.584-1.58 1.584-.875 0-1.582-.71-1.582-1.584 0-.875.707-1.583 1.581-1.583m0-34.759c.874 0 1.581.708 1.581 1.583s-.707 1.584-1.58 1.584c-.875 0-1.582-.71-1.582-1.584 0-.875.707-1.583 1.581-1.583m-39.056 11.586a1.584 1.584 0 1 1 0 3.167 1.584 1.584 0 0 1 0-3.167m0 11.586c.874 0 1.581.709 1.581 1.585a1.582 1.582 0 1 1 -3.162 0c0-.876.708-1.585 1.581-1.585m0 11.587c.874 0 1.581.708 1.581 1.583 0 .874-.707 1.584-1.58 1.584-.874 0-1.582-.71-1.582-1.584 0-.875.708-1.583 1.581-1.583m0-34.759c.874 0 1.581.708 1.581 1.583s-.707 1.584-1.58 1.584c-.874 0-1.582-.71-1.582-1.584 0-.875.708-1.583 1.581-1.583m14.465 11.586a1.584 1.584 0 1 1 0 3.167 1.584 1.584 0 0 1 0-3.167m0 11.586c.874 0 1.581.709 1.581 1.585a1.582 1.582 0 1 1 -3.162 0c0-.876.708-1.585 1.581-1.585m0 11.587c.874 0 1.581.708 1.581 1.583 0 .874-.707 1.584-1.58 1.584-.874 0-1.582-.71-1.582-1.584 0-.875.708-1.583 1.581-1.583m0-34.759c.874 0 1.581.708 1.581 1.583s-.707 1.584-1.58 1.584c-.874 0-1.582-.71-1.582-1.584 0-.875.708-1.583 1.581-1.583m-39.055 11.586a1.584 1.584 0 1 1 0 3.167 1.584 1.584 0 0 1 0-3.167m0 11.586c.873 0 1.58.709 1.58 1.585a1.582 1.582 0 1 1 -3.161 0c0-.876.707-1.585 1.58-1.585m.001 11.587c.873 0 1.58.708 1.58 1.583 0 .874-.707 1.584-1.58 1.584-.874 0-1.581-.71-1.581-1.584 0-.875.707-1.583 1.58-1.583m.001-34.759c.873 0 1.58.708 1.58 1.583s-.707 1.584-1.58 1.584c-.874 0-1.581-.71-1.581-1.584 0-.875.707-1.583 1.58-1.583m13.019 11.586a1.584 1.584 0 1 1 0 3.167 1.584 1.584 0 0 1 0-3.167m0 11.586c.874 0 1.581.709 1.581 1.585a1.582 1.582 0 1 1 -3.162 0c0-.876.707-1.585 1.581-1.585m0 11.587c.874 0 1.581.708 1.581 1.583 0 .874-.707 1.584-1.58 1.584-.875 0-1.582-.71-1.582-1.584 0-.875.707-1.583 1.581-1.583m0-34.759c.874 0 1.581.708 1.581 1.583s-.707 1.584-1.58 1.584c-.875 0-1.582-.71-1.582-1.584 0-.875.707-1.583 1.581-1.583m63.647 59.38c.873 0 1.58.708 1.58 1.584a1.582 1.582 0 1 1 -3.161 0c0-.876.707-1.585 1.58-1.585m.001 11.587a1.584 1.584 0 0 1 0 3.167 1.584 1.584 0 0 1 0-3.167"/><path d="m2.658 1.178c.874 0 1.581.71 1.581 1.584a1.582 1.582 0 1 1 -3.162 0c0-.875.707-1.584 1.581-1.584" mask="url(#a)" transform="translate(76.665 81.103)"/><path d="m79.693 47.793c.873 0 1.58.71 1.58 1.585a1.582 1.582 0 1 1 -3.161 0c0-.875.707-1.585 1.58-1.585m13.019 11.587a1.583 1.583 0 1 1 0 3.165 1.583 1.583 0 0 1 0-3.166m0 11.587a1.583 1.583 0 1 1 0 3.165 1.583 1.583 0 0 1 0-3.165"/><path d="m2.908 1.178a1.584 1.584 0 0 1 0 3.167c-.874 0-1.581-.71-1.581-1.583 0-.875.707-1.584 1.58-1.584" mask="url(#b)" transform="translate(89.684 81.103)"/><path d="m92.711 47.793a1.584 1.584 0 0 1 0 3.167 1.583 1.583 0 1 1 0-3.167m-39.056 11.587c.874 0 1.581.708 1.581 1.584a1.582 1.582 0 1 1 -3.162 0c0-.876.708-1.585 1.581-1.585m0 11.587a1.584 1.584 0 0 1 0 3.167 1.584 1.584 0 0 1 0-3.167"/><path d="m2.939 1.178c.874 0 1.581.71 1.581 1.584a1.582 1.582 0 1 1 -3.162 0c0-.875.707-1.584 1.581-1.584" mask="url(#c)" transform="translate(50.628 81.103)"/><path d="m53.655 47.793c.874 0 1.581.71 1.581 1.585a1.582 1.582 0 1 1 -3.162 0c0-.875.708-1.585 1.581-1.585m13.019 11.587c.874 0 1.581.708 1.581 1.584a1.582 1.582 0 1 1 -3.162 0c0-.876.707-1.585 1.581-1.585m0 11.587a1.584 1.584 0 0 1 0 3.167 1.584 1.584 0 0 1 0-3.167"/><path d="m1.743 1.178c.874 0 1.581.71 1.581 1.584a1.582 1.582 0 1 1 -3.162 0c0-.875.708-1.584 1.581-1.584" mask="url(#d)" transform="translate(65.093 81.103)"/><path d="m66.674 47.793c.874 0 1.581.71 1.581 1.585a1.582 1.582 0 1 1 -3.162 0c0-.875.707-1.585 1.581-1.585m-39.056 11.587c.874 0 1.581.708 1.581 1.584a1.582 1.582 0 1 1 -3.162 0c0-.876.708-1.585 1.581-1.585m0 11.587a1.584 1.584 0 0 1 0 3.167 1.584 1.584 0 0 1 0-3.167"/><path d="m1.774 1.178c.874 0 1.581.71 1.581 1.584a1.582 1.582 0 1 1 -3.162 0c0-.875.708-1.584 1.581-1.584" mask="url(#e)" transform="translate(26.037 81.103)"/><path d="m27.618 47.793c.874 0 1.581.71 1.581 1.585a1.582 1.582 0 1 1 -3.162 0c0-.875.708-1.585 1.581-1.585m14.465 11.587c.874 0 1.581.708 1.581 1.584a1.582 1.582 0 1 1 -3.162 0c0-.876.708-1.585 1.581-1.585m0 11.587a1.584 1.584 0 0 1 0 3.167 1.584 1.584 0 0 1 0-3.167"/><path d="m2.025 1.178c.874 0 1.581.71 1.581 1.584a1.582 1.582 0 1 1 -3.162 0c0-.875.707-1.584 1.581-1.584" mask="url(#f)" transform="translate(39.056 81.103)"/><path d="m42.083 47.793c.874 0 1.581.71 1.581 1.585a1.582 1.582 0 1 1 -3.162 0c0-.875.708-1.585 1.581-1.585m-39.055 11.587c.873 0 1.58.708 1.58 1.584a1.582 1.582 0 1 1 -3.161 0c0-.876.707-1.585 1.58-1.585m.001 11.587a1.584 1.584 0 0 1 0 3.167 1.584 1.584 0 0 1 0-3.167"/><path d="m2.055 1.178c.874 0 1.582.71 1.582 1.584a1.582 1.582 0 1 1 -3.163 0c0-.875.708-1.584 1.581-1.584" mask="url(#g)" transform="translate(0 81.103)"/><path d="m3.028 47.793c.873 0 1.58.71 1.58 1.585a1.582 1.582 0 1 1 -3.161 0c0-.875.707-1.585 1.58-1.585m13.019 11.587c.874 0 1.581.708 1.581 1.584a1.582 1.582 0 1 1 -3.162 0c0-.876.707-1.585 1.581-1.585m0 11.587a1.584 1.584 0 0 1 0 3.167 1.584 1.584 0 0 1 0-3.167"/><path d="m2.306 1.178c.874 0 1.581.71 1.581 1.584a1.582 1.582 0 1 1 -3.162 0c0-.875.707-1.584 1.581-1.584" mask="url(#h)" transform="translate(13.019 81.103)"/><path d="m16.046 47.793c.874 0 1.581.71 1.581 1.585a1.582 1.582 0 1 1 -3.162 0c0-.875.707-1.585 1.581-1.585"/></g><g fill="#f6b72c"><ellipse cx="257.479" cy="24.62" rx="2.893" ry="2.897"/><ellipse cx="295.811" cy="36.931" rx="2.17" ry="2.172"/><ellipse cx="295.088" cy="72.414" rx="2.893" ry="2.897"/></g><path d="m49.069 22.1a.684.684 0 0 0 -1.222 0c-.745 1.47-2.149 3.755-4.094 4.83a.661.661 0 0 0 0 1.175c1.945 1.075 3.35 3.36 4.094 4.83a.684.684 0 0 0 1.222 0c.744-1.47 2.149-3.755 4.094-4.83a.661.661 0 0 0 0-1.175c-1.945-1.075-3.35-3.36-4.094-4.83zm119.815 1.933c-1.946-1.075-3.35-3.36-4.094-4.83a.684.684 0 0 0 -1.222 0c-.745 1.47-2.148 3.755-4.094 4.83a.661.661 0 0 0 0 1.175c1.946 1.075 3.35 3.36 4.094 4.83a.684.684 0 0 0 1.222 0c.745-1.47 2.148-3.755 4.094-4.83a.661.661 0 0 0 0-1.175m40.502 14.483c-1.945-1.075-3.349-3.36-4.094-4.83a.684.684 0 0 0 -1.222 0c-.744 1.47-2.148 3.755-4.094 4.83a.661.661 0 0 0 0 1.175c1.946 1.075 3.35 3.36 4.094 4.83a.684.684 0 0 0 1.222 0c.745-1.47 2.149-3.755 4.094-4.83a.661.661 0 0 0 0-1.175m-75.218-33.311c-1.946-1.075-3.35-3.36-4.095-4.829a.684.684 0 0 0 -1.22 0c-.745 1.469-2.15 3.754-4.095 4.829a.661.661 0 0 0 0 1.175c1.946 1.074 3.35 3.36 4.094 4.835a.688.688 0 0 0 1.221 0c.745-1.475 2.149-3.76 4.095-4.835a.661.661 0 0 0 0-1.175m-37.61 13.035c-1.945-1.068-3.35-3.36-4.094-4.83a.684.684 0 0 0 -1.222 0c-.744 1.47-2.148 3.762-4.094 4.83a.667.667 0 0 0 0 1.181c1.946 1.068 3.35 3.353 4.094 4.829a.689.689 0 0 0 1.222 0c.745-1.476 2.149-3.761 4.094-4.829a.667.667 0 0 0 0-1.182" fill="#f6bf3e"/><path d="m258.496 206.031-35.97-.043c-2.194-.159-4.008-1.688-4.008-3.738v-29.68c0-2.054 1.81-3.567 4.007-3.738h35.971v37.2" fill="#dd5b5a"/><path d="m257.268 174.868v3.047h-29.374c-2.27 0-2.27-3.047 0-3.047zm0 18.278v3.042h-28.926c-2.27 0-2.27-3.042 0-3.042zm0-9.139v3.042h-28.926c-2.27 0-2.27-3.042 0-3.042z" fill="#d03a3c"/><path d="m227.23 201.305c-2.193-.133-4.046-1.47-4.046-3.265v-25.943c0-1.792 1.853-2.92 4.046-3.35h7.811-12.761c-2.198.43-3.835 1.769-3.835 3.823v29.68c0 2.05 1.641 3.58 3.835 3.738l35.807.043v-4.692z" fill="#cb3637"/><path d="m256.316 165.854v43.108h2.917v-43.108z" fill="#cdccc7"/><path d="m276.555 202.613c1.073 0 1.943.868 1.943 1.937 0 1.07-.87 1.938-1.943 1.938a1.941 1.941 0 0 1 -1.943-1.938c0-1.07.87-1.937 1.943-1.937m-13.035-14.006c1.074 0 1.944.868 1.944 1.938s-.87 1.938-1.943 1.938a1.941 1.941 0 0 1 -1.944-1.938c0-1.07.87-1.938 1.944-1.938m5.784 8.861a1.94 1.94 0 0 1 1.943 1.938 1.94 1.94 0 0 1 -1.943 1.938 1.94 1.94 0 0 1 -1.943-1.938c0-1.07.87-1.938 1.943-1.938m-1.675-5.391c.948 0 1.716.77 1.716 1.71a1.716 1.716 0 0 1 -3.43 0c0-.94.767-1.71 1.715-1.71m-5.032-7.677c.637 0 1.159.515 1.159 1.155a1.16 1.16 0 0 1 -1.16 1.156 1.155 1.155 0 1 1 0-2.312m11.061 12.925c1.073 0 1.943.867 1.943 1.937s-.87 1.938-1.943 1.938a1.941 1.941 0 0 1 -1.944-1.938c0-1.07.87-1.937 1.944-1.937m-2.184 4.815c.922 0 1.67.747 1.67 1.667s-.748 1.662-1.67 1.662c-.92 0-1.67-.743-1.67-1.662 0-.92.75-1.667 1.67-1.667m-3.775.141c1.075 0 1.945.868 1.945 1.938s-.87 1.938-1.944 1.938a1.941 1.941 0 0 1 -1.944-1.938c0-1.07.87-1.938 1.944-1.938m-5.636-9.057c.941 0 1.705.765 1.705 1.702 0 .936-.764 1.697-1.705 1.697-.94 0-1.705-.76-1.705-1.697s.764-1.702 1.705-1.702m2.18 3.343a2.662 2.662 0 0 1 2.666 2.66c0 1.469-1.193 2.66-2.666 2.66a2.663 2.663 0 0 1 -2.668-2.66c0-1.47 1.194-2.66 2.668-2.66m-1.815 5.56a2.3 2.3 0 0 1 2.305 2.298 2.298 2.298 0 0 1 -2.305 2.295 2.297 2.297 0 1 1 0-4.593" fill="#5c5c59"/><path d="m132.26 54.137 8.615 2.8 1.42-4.37-8.616-2.799z" fill="#71716e"/><path d="m131.863 49.178 12.248 3.98 1.63-5.019-12.247-3.98z" fill="#a3a4a0"/><path d="m109.858 67.767c3.734-11.494 15.945-17.826 27.275-14.145s17.487 15.982 13.753 27.476c-3.734 11.49-15.946 17.821-27.275 14.14-11.33-3.681-17.487-15.98-13.753-27.471" fill="#dd5b5a"/><path d="m111.079 84.457c5.484 10.958 18.359 14.948 29.01 9.426 10.652-5.521 15.045-18.469 9.561-29.426z" fill="#d03a3c"/><path d="m114.61 69.311c2.87-8.832 12.252-13.696 20.956-10.868 8.705 2.828 13.437 12.279 10.568 21.11-2.869 8.829-12.253 13.693-20.957 10.865-8.704-2.829-13.435-12.279-10.566-21.107" fill="#fffffe"/><path d="m134.437 63.787.528-1.626a.636.636 0 0 0 -.403-.805.636.636 0 0 0 -.799.415l-.528 1.625c-.11.338.07.697.403.805a.636.636 0 0 0 .799-.414m-7.792 23.98.396-1.22a.636.636 0 0 0 -.403-.804.636.636 0 0 0 -.799.414l-.396 1.22c-.11.337.07.697.403.805a.636.636 0 0 0 .8-.415m14.273-17.884 1.477-.764a.635.635 0 0 0 .275-.846.61.61 0 0 0 -.834-.27l-1.477.764a.635.635 0 0 0 -.274.846.617.617 0 0 0 .833.27m-5.453 15.614.746 1.487a.61.61 0 0 0 .834.271.634.634 0 0 0 .274-.845l-.745-1.487a.61.61 0 0 0 -.834-.271.635.635 0 0 0 -.275.845m5.96-6.407 1.202.39a.636.636 0 0 0 .799-.415.636.636 0 0 0 -.403-.805l-1.202-.39a.636.636 0 0 0 -.8.414c-.109.337.072.697.404.805m-15.764-15.098-.746-1.487a.61.61 0 0 0 -.834-.27.635.635 0 0 0 -.274.845l.745 1.487a.617.617 0 0 0 .834.27.635.635 0 0 0 .275-.845m-6.434 15.295-1.477.765a.635.635 0 0 0 -.275.846.61.61 0 0 0 .834.27l1.477-.764a.635.635 0 0 0 .275-.846.61.61 0 0 0 -.834-.27m.155-8.708-1.603-.52a.636.636 0 0 0 -.799.414c-.11.337.071.697.403.804l1.603.521a.636.636 0 0 0 .799-.414.636.636 0 0 0 -.403-.805m12.13-3.249-2.509 7.723a.843.843 0 0 0 .537 1.073l7.614 2.474a.847.847 0 0 0 1.065-.552.85.85 0 0 0 -.537-1.074l-6.812-2.213 2.245-6.91a.85.85 0 0 0 -.537-1.073.85.85 0 0 0 -1.066.553" fill="#71716e"/><path d="m117.692 77.812c-.571-.626-.802-1.64-.892-2.276a.255.255 0 0 0 -.44-.143c-.447.462-1.23 1.147-2.06 1.317a.264.264 0 0 0 -.143.439c.572.626.801 1.644.891 2.28.032.213.29.297.44.143.447-.461 1.231-1.15 2.062-1.32a.264.264 0 0 0 .142-.44" fill="#fffffe"/><path d="m145.886 118.5 8.4-3.395-1.72-4.26-8.4 3.395z" fill="#71716e"/><path d="m142.395 114.955 11.94-4.824-1.976-4.893-11.94 4.824z" fill="#a3a4a0"/><path d="m137.487 143.34c-4.528-11.206.757-23.906 11.802-28.368 11.045-4.463 23.669 1.001 28.196 12.207 4.526 11.202-.76 23.902-11.805 28.364-11.045 4.463-23.668-1.002-28.193-12.203" fill="#dd5b5a"/><path d="m149.15 155.34c11.245 4.869 23.673-.35 28.282-11.426 4.61-11.077-.346-23.82-11.59-28.689z" fill="#d03a3c"/><path d="m142.12 141.467c-3.478-8.61.581-18.367 9.067-21.796 8.486-3.428 18.186.77 21.665 9.38 3.477 8.606-.585 18.364-9.07 21.793-8.486 3.428-18.184-.77-21.662-9.377" fill="#fffffe"/><path d="m153.757 124.491-.64-1.584a.636.636 0 0 0 -.826-.358.636.636 0 0 0 -.346.831l.64 1.585a.636.636 0 0 0 .826.358.636.636 0 0 0 .346-.832m9.446 23.379-.48-1.189a.636.636 0 0 0 -.827-.358.636.636 0 0 0 -.346.831l.48 1.19a.636.636 0 0 0 .827.357.636.636 0 0 0 .346-.831m-.562-22.875.64-1.535a.635.635 0 0 0 -.332-.825.61.61 0 0 0 -.813.329l-.64 1.535a.635.635 0 0 0 .333.824.617.617 0 0 0 .812-.328m5.86 15.465 1.527.66a.61.61 0 0 0 .813-.328.634.634 0 0 0 -.333-.824l-1.527-.66a.61.61 0 0 0 -.813.328.635.635 0 0 0 .333.825m.446-8.74 1.172-.473a.636.636 0 0 0 .346-.831.636.636 0 0 0 -.826-.358l-1.172.473a.636.636 0 0 0 -.346.832.636.636 0 0 0 .826.357m-21.78-1.433-1.527-.66a.61.61 0 0 0 -.813.33.635.635 0 0 0 .333.823l1.527.66a.617.617 0 0 0 .813-.328.635.635 0 0 0 -.333-.825m4.903 15.852-.64 1.536a.635.635 0 0 0 .332.824.61.61 0 0 0 .813-.328l.64-1.535a.635.635 0 0 0 -.333-.825.61.61 0 0 0 -.812.329m-5.479-6.771-1.562.632a.636.636 0 0 0 -.346.831.636.636 0 0 0 .826.358l1.562-.632a.636.636 0 0 0 .346-.83.636.636 0 0 0 -.826-.358m7.205-10.286 3.041 7.529a.843.843 0 0 0 1.101.477l7.423-3a.847.847 0 0 0 .46-1.107.85.85 0 0 0 -1.1-.477l-6.641 2.683-2.722-6.736a.85.85 0 0 0 -1.101-.477.85.85 0 0 0 -.461 1.108" fill="#71716e"/><path d="m149.946 145.999c-.84-.112-1.67-.741-2.147-1.17a.255.255 0 0 0 -.43.173c-.045.64-.204 1.668-.731 2.333-.13.163-.033.4.173.428.84.112 1.67.745 2.148 1.174.161.142.413.04.43-.174.045-.64.203-1.672.73-2.336a.264.264 0 0 0 -.173-.428" fill="#fffffe"/><path d="m156.223 75.308c0-12.798 10.362-23.17 23.144-23.17 12.783 0 23.145 10.372 23.145 23.17s-10.362 23.175-23.145 23.175c-12.782 0-23.144-10.377-23.144-23.175" fill="#7bbf6f"/><path d="m159.31 74.538c0-10.665 8.634-19.31 19.286-19.31s19.287 8.645 19.287 19.31-8.635 19.31-19.287 19.31-19.287-8.645-19.287-19.31" fill="#8bc476"/><g fill="#fffffe"><path d="m190.162 75.345-8.625.019a.269.269 0 0 0 -.275.261v9.21a.27.27 0 0 0 .276.261.27.27 0 0 0 .276-.262v-8.943l8.349-.019a.27.27 0 0 0 .275-.265.27.27 0 0 0 -.276-.262"/><path d="m172.96 67.751 8.382 8.062a.284.284 0 0 0 .39 0 .255.255 0 0 0 .002-.372l-8.383-8.062a.284.284 0 0 0 -.39 0 .255.255 0 0 0 -.001.372"/><path d="m187.783 69.27-6.44 6.171a.255.255 0 0 0 0 .372l6.431 6.146a.284.284 0 0 0 .39 0 .254.254 0 0 0 0-.372l-6.236-5.962 6.246-5.983a.255.255 0 0 0 0-.372.284.284 0 0 0 -.39 0"/><path d="m169.639 75.902 11.9-.011a.27.27 0 0 0 .275-.266v-11.18a.27.27 0 0 0 -.276-.263.27.27 0 0 0 -.276.262v10.92l-11.624.01a.27.27 0 0 0 -.275.263.27.27 0 0 0 .276.265"/><path d="m181.792 75.522-3.506-7.904a.283.283 0 0 0 -.361-.14.261.261 0 0 0 -.146.347l3.505 7.904c.06.132.221.195.362.14a.26.26 0 0 0 .146-.347"/><path d="m175.006 85.096 6.759-9.32a.258.258 0 0 0 -.07-.368.288.288 0 0 0 -.384.066l-6.76 9.324a.254.254 0 0 0 .07.364.28.28 0 0 0 .385-.066m4.594-25.699a2.54 2.54 0 0 0 0 3.705l1.938 1.851 1.938-1.85a2.54 2.54 0 0 0 0-3.706 2.827 2.827 0 0 0 -3.876 0m-11.408 6.024c-.004 1.445 1.219 2.621 2.732 2.629l2.74.007.01-2.621c.003-1.445-1.22-2.621-2.733-2.625-1.514-.004-2.744 1.165-2.749 2.61m15.284 24.239a2.54 2.54 0 0 0 0-3.705l-1.938-1.85-1.938 1.85a2.54 2.54 0 0 0 0 3.705c1.07 1.021 2.806 1.021 3.876 0m-18.444-12.199c1.07 1.022 2.805 1.022 3.875 0l1.938-1.85-1.938-1.855c-1.07-1.02-2.805-1.02-3.875 0a2.54 2.54 0 0 0 0 3.705m30.327-3.705c-1.07-1.02-2.805-1.02-3.876 0l-1.937 1.855 1.937 1.85c1.07 1.022 2.806 1.022 3.876 0a2.539 2.539 0 0 0 0-3.705m-4.167 9.202c.003-1.058-.89-1.913-1.994-1.917l-1.998-.004-.004 1.91c-.002 1.054.89 1.913 1.993 1.913 1.104.004 2-.848 2.003-1.902m-15.726-17.588c-.416.976.075 2.093 1.097 2.492l1.85.719.754-1.77c.416-.977-.075-2.09-1.097-2.488-1.022-.399-2.188.07-2.604 1.047"/><path d="m181.415 75.39-8.041 3.83a.254.254 0 0 0 -.124.35.283.283 0 0 0 .37.122l8.041-3.83a.258.258 0 0 0 .124-.355.285.285 0 0 0 -.37-.117"/><path d="m171.2 82.047c1.045.336 2.178-.199 2.531-1.198l.64-1.81-1.894-.612c-1.045-.335-2.179.2-2.532 1.198-.353 1 .209 2.083 1.254 2.422m18.739-17.076c-1.513 0-2.741 1.173-2.743 2.618l-.002 2.617 2.74.004c1.514 0 2.742-1.169 2.743-2.617.002-1.446-1.224-2.618-2.738-2.622m-15.694 23.929c1.49-.254 2.482-1.614 2.215-3.04l-.483-2.578-2.697.461c-1.49.255-2.481 1.615-2.215 3.042.267 1.423 1.69 2.37 3.18 2.116"/></g><path d="m78.112 127.446c0-12.798 10.362-23.17 23.144-23.17s23.144 10.372 23.144 23.17-10.362 23.175-23.144 23.175-23.144-10.377-23.144-23.175" fill="#7bbf6f"/><path d="m81.198 126.676c0-10.665 8.634-19.31 19.286-19.31s19.287 8.645 19.287 19.31-8.635 19.31-19.287 19.31-19.286-8.645-19.286-19.31" fill="#8bc476"/><g fill="#fffffe"><path d="m112.05 127.483-8.624.019a.269.269 0 0 0 -.275.261v9.21a.27.27 0 0 0 .275.261.27.27 0 0 0 .276-.262v-8.943l8.349-.019a.27.27 0 0 0 .275-.265.27.27 0 0 0 -.276-.262"/><path d="m94.848 119.889 8.383 8.062a.284.284 0 0 0 .39 0 .255.255 0 0 0 0-.372l-8.382-8.062a.284.284 0 0 0 -.39 0 .255.255 0 0 0 -.001.372"/><path d="m109.672 121.408-6.44 6.171a.255.255 0 0 0 0 .372l6.43 6.146a.284.284 0 0 0 .39 0 .254.254 0 0 0 0-.373l-6.236-5.96 6.246-5.984a.255.255 0 0 0 0-.372.284.284 0 0 0 -.39 0"/><path d="m91.527 128.04 11.9-.011a.27.27 0 0 0 .275-.266v-11.18a.27.27 0 0 0 -.276-.263.27.27 0 0 0 -.275.262v10.92l-11.625.01a.27.27 0 0 0 -.275.262.27.27 0 0 0 .276.266"/><path d="m103.68 127.66-3.505-7.904a.283.283 0 0 0 -.362-.14.261.261 0 0 0 -.146.347l3.505 7.904c.06.132.222.195.362.14a.26.26 0 0 0 .146-.347"/><path d="m96.894 137.234 6.76-9.32a.258.258 0 0 0 -.07-.368.288.288 0 0 0 -.384.066l-6.76 9.323a.254.254 0 0 0 .07.365.28.28 0 0 0 .384-.066m4.594-25.699a2.54 2.54 0 0 0 0 3.705l1.938 1.85 1.938-1.85a2.54 2.54 0 0 0 0-3.705 2.827 2.827 0 0 0 -3.876 0m-11.408 6.025c-.004 1.444 1.22 2.62 2.733 2.628l2.74.007.009-2.621c.004-1.445-1.219-2.621-2.733-2.625-1.513-.004-2.744 1.165-2.748 2.61m15.283 24.239a2.54 2.54 0 0 0 0-3.705l-1.938-1.85-1.938 1.85a2.54 2.54 0 0 0 0 3.705c1.07 1.021 2.806 1.021 3.876 0m-18.444-12.198c1.07 1.02 2.805 1.02 3.876 0l1.937-1.851-1.937-1.855c-1.07-1.02-2.806-1.02-3.876 0a2.54 2.54 0 0 0 0 3.705m30.327-3.705c-1.07-1.02-2.805-1.02-3.875 0l-1.938 1.855 1.938 1.85c1.07 1.021 2.805 1.021 3.875 0a2.539 2.539 0 0 0 0-3.705m-4.167 9.202c.003-1.058-.89-1.913-1.993-1.917l-1.998-.004-.005 1.91c-.002 1.054.89 1.913 1.994 1.913 1.103.004 2-.848 2.002-1.902m-15.726-17.589c-.416.977.075 2.094 1.097 2.493l1.85.718.754-1.77c.416-.976-.075-2.09-1.096-2.487-1.023-.399-2.188.07-2.605 1.046"/><path d="m103.303 127.527-8.04 3.83a.254.254 0 0 0 -.125.351.283.283 0 0 0 .37.122l8.041-3.83a.258.258 0 0 0 .124-.355.285.285 0 0 0 -.37-.118"/><path d="m93.088 134.185c1.045.336 2.179-.199 2.532-1.198l.639-1.81-1.894-.612c-1.045-.335-2.179.2-2.532 1.198-.352 1 .21 2.083 1.255 2.422m18.739-17.075c-1.514 0-2.742 1.172-2.743 2.617l-.003 2.617 2.74.004c1.514 0 2.742-1.169 2.743-2.618.002-1.445-1.224-2.617-2.737-2.62m-15.694 23.929c1.49-.255 2.481-1.615 2.215-3.042l-.483-2.577-2.698.461c-1.49.254-2.481 1.615-2.215 3.041.267 1.423 1.69 2.37 3.18 2.117"/></g><g transform="translate(206.851 53.586)"><ellipse cx="21.698" cy="21.724" fill="#f49c53" rx="21.698" ry="21.724"/><ellipse cx="21.698" cy="21.724" fill="#f6b72c" rx="18.805" ry="18.828"/><path d="m26.835 30.312-13.88-10.459 13.822-4.074z" fill="#fff"/></g><g transform="translate(24.59 98.483)"><ellipse cx="21.698" cy="21.724" fill="#f49c53" rx="21.698" ry="21.724"/><ellipse cx="21.698" cy="21.724" fill="#f6b72c" rx="18.805" ry="18.828"/><path d="m26.835 30.312-13.88-10.459 13.822-4.074z" fill="#fff"/></g><path d="m19.146 53.022 8.572-1.358-.68-4.291-8.572 1.358z" fill="#71716e"/><path d="m15.609 49.183 12.858-2.036-.68-4.292-12.858 2.037z" fill="#a3a4a0"/><path d="m5.173 75.766c-1.877-11.853 6.197-22.979 18.032-24.853 11.836-1.875 22.952 6.211 24.83 18.064 1.876 11.848-6.197 22.974-18.033 24.849-11.836 1.874-22.952-6.212-24.829-18.06" fill="#7bbf6f"/><path d="m13.267 89.878c10.036 7.302 23.58 4.97 30.716-4.865 7.138-9.835 5.166-23.453-4.87-30.755z" fill="#f9ce2c"/><path d="m9.573 75.802c-1.44-9.088 4.75-17.617 13.824-19.055 9.074-1.437 17.597 4.763 19.036 13.85 1.439 9.084-4.75 17.614-13.825 19.05-9.075 1.438-17.597-4.762-19.035-13.845" fill="#fffffe"/><path d="m25.099 62.867-.389-2.452c-.08-.509-.465-.87-.86-.807s-.65.524-.568 1.033l.388 2.452c.08.51.465.87.86.807.394-.063.65-.524.569-1.033m3.657 23.091-.227-1.43a.723.723 0 1 0 -1.428.226l.226 1.43a.723.723 0 1 0 1.429-.226m3.878-20.628 1.166-1.607a.746.746 0 0 0 -1.204-.877l-1.168 1.606a.747.747 0 0 0 .165 1.042.748.748 0 0 0 1.04-.165m2.888 15.715 1.607 1.166a.745.745 0 0 0 .875-1.205l-1.607-1.166a.745.745 0 0 0 -.875 1.205m2.455-7.544 2.45-.387c.506-.08.867-.465.804-.861-.062-.396-.524-.65-1.031-.57l-2.45.388c-.507.08-.867.465-.805.86.063.397.525.651 1.032.57m-21.265-6.717-1.606-1.167a.746.746 0 0 0 -.875 1.206l1.606 1.168a.748.748 0 0 0 1.04-.165.747.747 0 0 0 -.165-1.042m1.459 15.943-1.167 1.605a.744.744 0 1 0 1.204.876l1.168-1.605a.745.745 0 0 0 -1.205-.876m-2.26-7.196-2.448.387c-.508.08-.868.465-.806.86.063.396.525.65 1.032.57l2.45-.387c.506-.08.867-.465.805-.861-.063-.396-.525-.65-1.032-.57m6.84-8.989 1.31 8.272c.037.23.165.438.353.578a.887.887 0 0 0 .655.155l8.262-1.309a.882.882 0 0 0 -.276-1.741l-7.392 1.17-1.172-7.4a.882.882 0 0 0 -1.008-.733.882.882 0 0 0 -.732 1.008" fill="#71716e"/><path d="m206.67 108.066 8.421 2.1 1.051-4.217-8.421-2.1z" fill="#71716e"/><path d="m204.914 103.15 12.632 3.15 1.05-4.216-12.631-3.15z" fill="#a3a4a0"/><path d="m184.922 123.542c2.903-11.644 14.681-18.73 26.309-15.832 11.627 2.9 18.7 14.686 15.797 26.33-2.902 11.64-14.681 18.727-26.308 15.828-11.628-2.9-18.7-14.686-15.798-26.326" fill="#7bbf6f"/><path d="m186.857 139.695c6.386 10.643 19.764 13.788 30.176 7.523 10.413-6.264 13.919-19.57 7.534-30.212z" fill="#f9ce2c"/><path d="m188.957 125.294c2.226-8.927 11.256-14.36 20.17-12.138 8.915 2.223 14.337 11.26 12.112 20.187-2.225 8.924-11.256 14.357-20.17 12.134-8.915-2.223-14.337-11.26-12.112-20.183" fill="#fffffe"/><path d="m208.303 119.454.6-2.409c.125-.5-.089-.982-.476-1.078-.388-.097-.803.228-.927.728l-.6 2.41c-.125.499.088.98.476 1.077.387.097.802-.228.927-.728m-5.656 22.685.35-1.405a.723.723 0 1 0 -1.403-.35l-.35 1.405a.723.723 0 1 0 1.403.35m11.63-17.474 1.701-1.023a.746.746 0 0 0 -.766-1.278l-1.702 1.023a.747.747 0 0 0 -.255 1.023c.212.351.67.465 1.022.255m-3.483 15.594 1.023 1.7a.745.745 0 0 0 1.276-.767l-1.022-1.7a.745.745 0 0 0 -1.276.767m5.207-5.985 2.406.6c.498.124.98-.089 1.077-.478.097-.388-.229-.803-.727-.927l-2.406-.6c-.499-.125-.98.089-1.078.477-.096.39.229.804.728.928m-16.95-14.492-1.023-1.703a.746.746 0 0 0 -1.277.769l1.023 1.703c.212.35.67.464 1.021.254a.747.747 0 0 0 .256-1.023m-4.886 15.245-1.702 1.022a.744.744 0 1 0 .767 1.276l1.701-1.021a.745.745 0 0 0 -.766-1.277m.732-7.507-2.406-.6c-.499-.125-.98.089-1.078.477-.097.39.229.804.727.928l2.406.6c.498.124.98-.089 1.078-.478.097-.389-.23-.803-.727-.927m9.809-5.602-2.026 8.126a.896.896 0 0 0 .099.67c.119.198.317.343.542.399l8.116 2.023a.882.882 0 0 0 .427-1.71l-7.262-1.811 1.812-7.27a.882.882 0 0 0 -.64-1.07.882.882 0 0 0 -1.068.643" fill="#71716e"/><g fill-rule="nonzero"><path d="m104.935 57.127-6.052 38.213c-.416 2.628-2.95 4.402-5.673 3.97l-33.02-5.23c-2.723-.43-4.584-2.9-4.168-5.529l6.052-38.213c.416-2.628 2.95-4.402 5.673-3.97l33.02 5.23c2.723.43 4.585 2.9 4.168 5.529z" fill="#f49c53"/><path d="m104.314 57.029-6.052 38.211c-.417 2.629-2.918 4.408-5.602 3.983l-16.27-2.577 7.556-47.714 16.271 2.577c2.684.425 4.513 2.89 4.097 5.519z" fill="#f16661"/><path d="m60.481 91.031c-.898-.142-1.514-.972-1.375-1.852l6.096-38.484c.139-.88.982-1.48 1.88-1.337l32.772 5.19c.899.143 1.515.973 1.376 1.853l-6.096 38.484c-.139.88-.982 1.48-1.88 1.337l-32.773-5.19z" fill="#f6b72c"/><path d="m99.854 54.548-16.386-2.595-6.6 41.674 16.386 2.595c.898.142 1.741-.457 1.88-1.337l6.096-38.484c.139-.88-.477-1.71-1.376-1.853z" fill="#f49c53"/><path d="m91.014 87.819 2.471-1.744a1.598 1.598 0 0 0 .36-2.277 1.71 1.71 0 0 0 -2.341-.371l-2.472 1.743-1.812-2.421a1.71 1.71 0 0 0 -2.342-.371 1.598 1.598 0 0 0 -.361 2.277l1.812 2.422-2.472 1.743a1.598 1.598 0 0 0 -.36 2.277 1.71 1.71 0 0 0 2.342.371l2.472-1.743 1.812 2.422a1.71 1.71 0 0 0 2.342.37 1.598 1.598 0 0 0 .36-2.277zm5.42-21.274a1.647 1.647 0 0 1 -2.306-.365l-.424-.526-.906 5.722c-.42 2.653-2.967 4.445-5.702 4.012l-13.399-2.123c-.922-.146-1.759.443-1.9 1.338l-1.047 6.606c-.141.894-.977 1.483-1.9 1.337s-1.536-.964-1.394-1.86l1.046-6.605c.42-2.653 2.967-4.445 5.702-4.012l13.399 2.122c.922.146 1.759-.442 1.9-1.337l.907-5.722-.566.37a1.647 1.647 0 0 1 -2.306-.366 1.532 1.532 0 0 1 .354-2.237l3.802-2.675a1.647 1.647 0 0 1 2.306.366l2.788 3.719c.563.711.401 1.734-.354 2.237z" fill="#fff"/><path d="m91.653 46.62-1.944-.308c-.365-1.958-2.108-3.61-4.25-3.95-2.141-.339-4.309.694-5.261 2.444l-1.944-.308c-2.735-.433-5.282 1.359-5.702 4.012s1.448 5.144 4.183 5.577l13.399 2.122c2.735.433 5.282-1.359 5.702-4.012s-1.448-5.144-4.183-5.577z" fill="#ffde3f"/><path d="m74.771 61.72 2.472-1.744a1.598 1.598 0 0 0 .36-2.277 1.71 1.71 0 0 0 -2.342-.371l-2.472 1.743-1.812-2.421a1.71 1.71 0 0 0 -2.342-.371 1.598 1.598 0 0 0 -.36 2.277l1.811 2.422-2.471 1.743a1.598 1.598 0 0 0 -.361 2.277 1.71 1.71 0 0 0 2.342.371l2.472-1.743 1.812 2.422a1.71 1.71 0 0 0 2.342.37 1.598 1.598 0 0 0 .361-2.277zm21.378 4.753a1.66 1.66 0 0 1 -2.316-.367l-.426-.526-.905 5.715c-.42 2.65-2.975 4.438-5.722 4.003l-6.728-1.066.506-3.192 6.728 1.065c.927.147 1.766-.44 1.907-1.334l.905-5.715-.567.369a1.66 1.66 0 0 1 -2.316-.367 1.525 1.525 0 0 1 .354-2.235l3.815-2.668a1.66 1.66 0 0 1 2.316.366l2.803 3.717a1.524 1.524 0 0 1 -.354 2.235z" fill="#fff"/><path d="m95.536 52.14c-.42 2.65-2.975 4.438-5.722 4.003l-6.728-1.066 2.023-12.77c2.15.34 3.902 1.992 4.27 3.949l1.952.31c2.747.434 4.625 2.924 4.205 5.574z" fill="#f6b72c"/><path d="m68.028 89.131c-2.74-.434-4.626-2.954-4.204-5.619.422-2.664 2.995-4.478 5.735-4.044s4.626 2.954 4.204 5.618c-.422 2.665-2.994 4.48-5.735 4.045z" fill="#fff"/></g><path d="m105.132 185.682-18.45 19.646h81.634l-21.061-19.646z" fill="#caf5ff"/><path d="m107.013 184.171h20.309l-21.813 21.157h-18.429z" fill="#46c4d1" opacity=".805"/><path d="m105.132 185.683h41.747v-20.403h-41.747z" fill="#caf5ff"/><path d="m125.815 185.682h20.688v-20.402z" fill="#46c4d1" opacity=".805"/><g fill-opacity=".5"><path d="m0 124.477h254.586v-40.047h-254.586z" fill="#caf5ff"/><path d="m126.946 85.185v39.292h41.37zm-84.245 0v39.292h41.364z" fill="#46c4d1"/><path d="m126.194 84.429h-84.245l42.116 40.048.006-.007.006.007zm83.492 40.048h-82.74l41.37 41.181-.752-1.14.752 1.14zm-82.74 0h-84.246l42.875 40.803z" fill="#90edfc"/><path d="m210.439 84.429h-84.245l42.116 40.048.006-.007.006.007z" fill="#90edfc"/><g fill="#caf5ff"><path d="m85.344 165.355h82.74l-41.37-40.803z"/><path d="m167.795 165.355h43.396v-42.252z"/><path d="m211.19 124.804h43.396v-42.252zm-211.19 0h43.395v-40.048z"/><path d="m85.633 165.355h-43.395v-42.252z"/></g></g><path d="m146.503 165.28h-41.371l20.683 20.402h.006z" fill="#90edfc"/><path d="m105.132 205.328h41.371l-20.682-19.656-.003.008-.003-.01z" fill="#90edfc"/><path d="m85.576 165.28-1.51-40.803h42.88zm-44.038 0 1.51-40.803h-42.88zm170.173.378-.006-41.181h42.881z" fill="#46c4d1" fill-opacity=".5"/></g></svg>