<svg height="127" viewBox="0 0 140 127" width="140" xmlns="http://www.w3.org/2000/svg"><g fill="none" fill-rule="evenodd"><path d="m94.23 36.047-11.045 32.081c-.588 1.708.274 3.551 1.928 4.12l18.712 6.444c1.654.569 3.468-.353 4.056-2.06l11.046-32.081c.588-1.708-.273-3.556-1.926-4.125l-18.712-6.443c-1.654-.57-3.47.357-4.057 2.064" fill="#2e3232"/><path d="m107.88 76.632 5.812-16.88-24.696-8.504-5.812 16.88c-.588 1.708.274 3.551 1.928 4.12l18.712 6.444c1.654.569 3.468-.353 4.056-2.06" fill="#2e3232"/><path d="m96.893 38.35-5.801 16.846c-.217.632.102 1.314.708 1.523l16.31 5.616c.611.21 1.287-.13 1.505-.76l5.8-16.847c.218-.632-.106-1.316-.717-1.526l-16.31-5.616c-.606-.209-1.278.132-1.495.764" fill="#cbcfce"/><path d="m109.615 61.574.993-2.884-18.523-6.378-.993 2.884c-.217.632.102 1.314.708 1.523l16.31 5.616c.611.21 1.287-.13 1.505-.76" fill="#979c9b"/><path d="m100.932 59.863 2.833-8.227a1.07 1.07 0 0 0 -.232-1.086l-1.683-1.762 6.879-1.007a1.06 1.06 0 0 0 .845-.71 1.063 1.063 0 0 0 -.228-1.084l-2.672-2.798.846-2.459-1.945-.67-1.059 3.076c-.132.383-.043.804.228 1.085l1.68 1.766-6.876 1.003a1.074 1.074 0 0 0 -.847.714c-.132.383-.042.799.228 1.084l2.677 2.8-2.619 7.606 1.945.67" fill="#da5474"/><path d="m100.374 55.166-1.387 4.028 1.945.67 1.387-4.028z" fill="#b33c2c"/><path d="m103.282 74.942c-.852-.294-1.295-1.249-.992-2.129s1.238-1.355 2.09-1.062c.853.294 1.302 1.245.999 2.126-.303.88-1.245 1.358-2.097 1.065m2.198-6.382c-.853-.293-1.298-1.243-.995-2.123.304-.88 1.24-1.36 2.093-1.067.852.294 1.3 1.25.996 2.13-.303.88-1.243 1.354-2.095 1.06m-8.369 4.256c-.853-.293-1.3-1.25-.997-2.13s1.243-1.354 2.095-1.06c.852.293 1.296 1.243.993 2.124-.303.88-1.24 1.36-2.092 1.066m2.197-6.381c-.852-.293-1.3-1.245-.998-2.125.303-.88 1.245-1.358 2.097-1.065s1.295 1.248.992 2.129c-.303.88-1.239 1.355-2.09 1.061" fill="#da5474"/><path d="m92.685 60.587-3.295 9.571 3.089 1.064 3.295-9.572z" fill="#ebaf34"/><path d="m47.87 69.785 15.708-3.916.209.836c.294 1.181-.298 2.347-1.323 2.602l-13.851 3.454-.742-2.976" fill="#3b3c39"/><path d="m45.225 46.217 16.736 16.16a4.812 4.812 0 0 1 1.318 2.293l.3 1.2-13.745 3.426z" fill="#e9e9e4"/><path d="m40.017 71.744-15.707 3.916.208.836c.295 1.18 1.365 1.932 2.39 1.676l13.85-3.453-.74-2.975" fill="#3b3c39"/><path d="m31.289 49.692-7.19 22.126a4.812 4.812 0 0 0 -.088 2.643l.299 1.199 13.744-3.427z" fill="#e9e9e4"/><path d="m29.45 67.004a2.035 2.035 0 0 0 -1.467 2.476 2.031 2.031 0 0 0 2.457 1.491 2.031 2.031 0 0 0 1.47-2.47 2.035 2.035 0 0 0 -2.46-1.497" fill="#5ab8da"/><path d="m31.426 38.07c-.693 4.474-.445 9.979.129 12.28l6.012 24.111 14.725-3.671-6.011-24.111c-.585-2.346-2.94-7.279-5.651-10.903z" fill="#b4b5b1"/><path d="m33.063 37.662c.101 4.275.863 9.653 1.437 11.954l6.012 24.111 7.853-1.958-6.011-24.11c-.585-2.347-2.47-7.397-4.343-11.23z" fill="#e9e9e4"/><path d="m39.82 41.068c-1.493-.456-3.146-.048-4.235 1.035a1.27 1.27 0 0 1 -1.496.21c-.662-.372-.772-1.243-.223-1.783 1.754-1.715 4.387-2.376 6.742-1.692a1.107 1.107 0 0 1 .631 1.692l-.019.03a1.263 1.263 0 0 1 -1.4.508m7.564 30.946 5.89-1.469.371 1.49c.204.818-.192 1.625-.885 1.798l-3.379.843c-.693.173-1.422-.354-1.626-1.172z" fill="#3b3c39"/><path d="m53.521 71.537-5.89 1.468-1.968-7.89c-.413-1.658.452-3.319 1.914-3.683l.559-.14c1.461-.364 3.005.697 3.418 2.354l1.967 7.89" fill="#fffffe"/><path d="m36.585 74.706 5.89-1.469.372 1.49c.204.819-.192 1.626-.886 1.799l-3.379.842c-.693.173-1.422-.354-1.626-1.172z" fill="#3b3c39"/><path d="m42.722 74.23-5.89 1.468-1.967-7.891c-.413-1.657.451-3.318 1.913-3.683l.559-.14c1.462-.364 3.005.697 3.418 2.354l1.967 7.891" fill="#fffffe"/><path d="m54.975 60.64c1.085-.27 2.186.4 2.459 1.497a2.031 2.031 0 0 1 -1.47 2.47 2.031 2.031 0 0 1 -2.457-1.491 2.035 2.035 0 0 1 1.468-2.476" fill="#5ab8da"/><path d="m34.544 30.973c-1.678.418-2.57 3.427-2.934 7.052l8.835-2.203c-2.022-3.03-4.222-5.268-5.9-4.85" fill="#3b3c39"/><path d="m74.127 45.489.01-.088a1.97 1.97 0 0 0 -1.746-2.164l-.087-.009a2.06 2.06 0 0 1 1.823 2.26" fill="#eb922f"/><path d="m72.304 43.228-.307-.032c-1.326-.14-2.593 1.477-2.815 3.593l-3.174 30.198c.872.272 1.769.46 2.69.556z" fill="#f6b72c"/><path d="m72.871 63.977 1.865-17.735z" fill="#d56f2d"/><path d="m71.444 77.558 3.156-30.024c.232-2.215-.712-4.14-2.097-4.285l-.2-.021-3.606 34.315c.921.097 1.838.1 2.747.015" fill="#ea5a7d"/><path d="m74.24 24.81c1.876.198 2.964 4.48 2.43 9.566-.535 5.086-2.49 9.05-4.366 8.852-1.877-.197-2.964-4.48-2.43-9.566.535-5.086 2.49-9.048 4.366-8.851" fill="#9b59b6"/><path d="m74.24 24.81-1.936 18.418c1.876.197 3.83-3.766 4.365-8.852.535-5.085-.553-9.368-2.43-9.565" fill="#722f8e"/><path d="m86.537 50.487c-.957 1.685-5.295.866-9.69-1.826-4.394-2.693-7.181-6.24-6.224-7.925.956-1.682 5.295-.867 9.69 1.826 4.395 2.692 7.182 6.24 6.224 7.925" fill="#722f8e"/><path d="m74.466 41.141c.586 1.847-2.878 4.737-7.736 6.457-4.858 1.719-9.272 1.618-9.858-.23-.586-1.846 2.878-4.736 7.736-6.456s9.272-1.618 9.858.229" fill="#9b59b6"/><path d="m73.217 37.807c2.44.256 4.208 2.45 3.951 4.896-.257 2.449-2.443 4.228-4.883 3.971-2.439-.256-4.208-2.45-3.95-4.9.256-2.445 2.443-4.224 4.882-3.967" fill="#f8da49"/><path d="m77.168 42.706c-.257 2.446-2.595 4.209-5.223 3.933l.932-8.868c2.628.276 4.548 2.487 4.291 4.935" fill="#ebaf34"/><path d="m73.074 39.171a3.08 3.08 0 0 1 2.735 3.39 3.08 3.08 0 0 1 -3.38 2.75 3.08 3.08 0 0 1 -2.735-3.394 3.08 3.08 0 0 1 3.38-2.746" fill="#fffffe"/><path d="m75.13 42.492c-.179 1.694-1.54 2.94-3.041 2.782l.645-6.139c1.502.158 2.574 1.66 2.395 3.357" fill="#dededb"/><path d="m73.002 39.853a2.396 2.396 0 0 1 2.128 2.636 2.396 2.396 0 0 1 -2.63 2.139 2.396 2.396 0 0 1 -2.127-2.64 2.396 2.396 0 0 1 2.629-2.135" fill="#32ac71"/><path d="m74.45 42.42c-.139 1.318-1.163 2.29-2.29 2.172l.502-4.775c1.126.119 1.927 1.283 1.788 2.604" fill="#029c4e"/><path d="m19.177 23.162c-1.11-.637-1.912-2-2.337-2.876a.384.384 0 0 0 -.698 0c-.425.876-1.227 2.239-2.337 2.876a.404.404 0 0 0 0 .702c1.11.637 1.912 2 2.337 2.875a.384.384 0 0 0 .698 0c.425-.875 1.227-2.238 2.337-2.875a.404.404 0 0 0 0-.702m74.003-3.45c-1.11-.637-1.912-2-2.337-2.875a.384.384 0 0 0 -.698 0c-.425.876-1.226 2.238-2.337 2.875a.404.404 0 0 0 0 .702c1.11.638 1.912 2 2.337 2.876a.385.385 0 0 0 .698 0c.425-.876 1.227-2.238 2.338-2.876a.404.404 0 0 0 0-.702m-37.002-1.15c-1.11-.637-1.912-2-2.338-2.875a.384.384 0 0 0 -.697 0c-.425.876-1.227 2.238-2.338 2.875a.404.404 0 0 0 0 .702c1.11.638 1.913 2 2.338 2.876a.384.384 0 0 0 .697 0c.426-.876 1.227-2.238 2.338-2.876a.404.404 0 0 0 0-.702" fill="#ffc431"/><path d="m56.43 115.501-10.454 11.499h46.254l-11.933-11.499z" fill="#caf5ff"/><path d="m58.588 114.352h11.67l-12.534 11.498h-10.59z" fill="#46c4d1" opacity=".846"/><path d="m56.383 115.501h24.283v-11.498h-24.283z" fill="#caf5ff"/><path d="m69.103 115.501h11.563v-11.498z" fill="#46c4d1" opacity=".846"/><g fill-opacity=".5"><path d="m20.538 81.006h97.13v-22.997h-97.13z" fill="#caf5ff"/><path d="m69.103 59.158v21.848h24.282zm-48.565 0v21.848h24.282z" fill="#46c4d1"/><path d="m69.103 58.009h-48.566l24.28 22.997.003-.004.004.004zm47.407 22.997h-47.406l23.704 22.997-.431-.637.43.637zm-47.407 0h-48.565l24.716 22.997zm48.564-22.997h-48.564l24.277 22.997.004-.004.003.004z" fill="#90edfc"/><path d="m45.976 104.003h47.409l-23.705-22.997z" fill="#caf5ff"/></g><path d="m80.666 104.003h-24.283l12.14 11.498h.003z" fill="#90edfc"/><path d="m56.383 127h24.283l-12.14-11.497-.002.005-.001-.007z" fill="#90edfc"/><path d="m45.675 104.003-.855-22.997h24.283zm47.713 0-.003-22.997h24.282z" fill="#46c4d1" fill-opacity=".5"/><path d="m97.998 118.247c-.14-.44-.135-1.052-.114-1.427.007-.127-.073-.212-.137-.145-.187.197-.505.474-.798.45-.072-.005-.118.122-.083.23.14.44.135 1.052.114 1.427-.007.127.073.212.136.146.187-.198.506-.475.799-.452.072.006.118-.121.083-.229" fill="#fff"/><path d="m4.696 43.131v-6.344h1.294v6.663c0 .946-.26 1.668-.78 2.168s-1.25.749-2.19.749c-.708 0-1.311-.151-1.809-.454s-.901-.768-1.211-1.395l1.045-.654c.277.542.559.92.847 1.132.287.213.674.319 1.161.319.575 0 .993-.167 1.253-.502s.39-.895.39-1.682zm5.077 1.96h4.546v1.085h-5.839v-9.39h5.84v1.085h-4.547v3.076h4.032v1.084h-4.032zm8.08 0h4.547v1.085h-5.84v-9.39h5.84v1.085h-4.546v3.076h4.032v1.084h-4.032v3.06zm38.573-42.273c0 .631-.159 1.147-.477 1.547s-.756.645-1.314.735v.05c.658.046 1.186.271 1.582.677s.594.94.594 1.606c0 .912-.296 1.608-.887 2.087-.592.48-1.456.719-2.595.719h-2.929v-9.956h2.946c1.016 0 1.783.214 2.302.642s.778 1.06.778 1.893zm-4.72-1.437v3.33h1.573c.592 0 1.044-.143 1.356-.43.312-.288.469-.708.469-1.26 0-.541-.162-.95-.486-1.226-.323-.276-.803-.414-1.44-.414zm1.79 4.412h-1.79v3.347h1.807c.659 0 1.155-.15 1.49-.448.335-.299.502-.741.502-1.327 0-.518-.167-.91-.502-1.175s-.837-.397-1.506-.397zm5.491 4.446v-9.956h1.306v9.956zm7.131-8.807v8.807h-1.306v-8.807h-2.929v-1.15h7.181v1.15zm6.93 9.01c-1.004 0-1.777-.218-2.318-.651-.542-.434-.874-1.096-.996-1.986l1.238-.22c.09.608.316 1.067.678 1.377.363.31.846.465 1.448.465.603 0 1.074-.138 1.415-.414.34-.276.51-.662.51-1.158 0-.484-.153-.873-.46-1.166s-.879-.597-1.716-.913c-.57-.214-.985-.391-1.247-.532a3.512 3.512 0 0 1 -.678-.465 2.43 2.43 0 0 1 -.628-.854c-.14-.32-.209-.69-.209-1.107 0-.868.276-1.544.829-2.028.552-.485 1.286-.727 2.2-.727.983 0 1.747.222 2.294.668.547.445.854 1.101.92 1.969l-1.271.203c-.045-.564-.24-1.006-.586-1.327s-.793-.482-1.34-.482c-.535 0-.962.144-1.28.431s-.477.679-.477 1.175c0 .417.128.758.385 1.022.257.265.898.595 1.925.99 1.049.416 1.755.844 2.118 1.284.362.44.544.997.544 1.673 0 .868-.299 1.547-.896 2.037s-1.398.735-2.402.735zm13.073-.203h-1.406l-1.021-2.942h-4.135l-1.02 2.942h-1.357l3.6-9.956h1.774zm-5.29-6.626-.903 2.603h3.381l-.887-2.587c-.179-.518-.33-.988-.452-1.411a21.44 21.44 0 0 1 -.301-1.14h-.067c-.079.326-.182.7-.31 1.123s-.282.893-.46 1.412zm9.023-2.18v8.806h-1.306v-8.807h-2.93v-1.15h7.182v1.15h-2.946zm17.346 21.782h1.382l3.996 5.774c.2.293.4.605.6.935.2.331.399.68.599 1.05h.066a68.945 68.945 0 0 1 -.058-1.123 26.73 26.73 0 0 1 -.025-1.171v-5.465h1.299v9.58h-1.349l-4.046-5.774c-.2-.293-.4-.605-.6-.935-.199-.331-.399-.68-.599-1.05h-.066c.033.358.058.73.075 1.115.016.385.025.778.025 1.179v5.465h-1.299zm11.988 8.474h4.562v1.106h-5.86v-9.58h5.86v1.106h-4.562v3.14h4.046v1.105h-4.046zm8.108 0h4.562v1.106h-5.86v-9.58h5.86v1.106h-4.562v3.14h4.046v1.105h-4.046zm9.774-7.368v8.474h-1.299v-8.474h-2.914v-1.106h7.143v1.106z" fill="#121212"/></g></svg>