<svg height="109" viewBox="0 0 136 109" width="136" xmlns="http://www.w3.org/2000/svg" xmlns:xlink="http://www.w3.org/1999/xlink"><mask id="a" fill="#fff"><path d="m.745.813h2.185v2.187h-2.186z" fill="none"/></mask><mask id="b" fill="#fff"><path d="m.917.813h2.187v2.187h-2.187z" fill="none"/></mask><mask id="c" fill="#fff"><path d="m.939.813h2.186v2.187h-2.186z" fill="none"/></mask><mask id="d" fill="#fff"><path d="m.112.813h2.186v2.187h-2.186z" fill="none"/></mask><mask id="e" fill="#fff"><path d="m.134.813h2.186v2.187h-2.186z" fill="none"/></mask><mask id="f" fill="#fff"><path d="m.307.813h2.186v2.187h-2.186z" fill="none"/></mask><mask id="g" fill="#fff"><path d="m.328.813h2.186v2.187h-2.186z" fill="none"/></mask><mask id="h" fill="#fff"><path d="m.501.813h2.186v2.187h-2.186z" fill="none"/></mask><g fill="none" fill-rule="evenodd"><g fill="#000" opacity=".05"><path d="m118.093 8a1.093 1.093 0 1 1 0 2.185 1.093 1.093 0 0 1 0-2.185m0 8a1.093 1.093 0 1 1 0 2.186 1.093 1.093 0 0 1 0-2.186m0 8a1.093 1.093 0 1 1 0 2.185 1.093 1.093 0 0 1 0-2.185m0-24a1.093 1.093 0 1 1 0 2.185 1.093 1.093 0 0 1 0-2.185m9 8a1.093 1.093 0 1 1 .001 2.187 1.093 1.093 0 0 1 -.001-2.187m0 8a1.094 1.094 0 1 1 0 2.187 1.094 1.094 0 0 1 0-2.187m0 8a1.093 1.093 0 1 1 .001 2.187 1.093 1.093 0 0 1 -.001-2.187m0-24a1.093 1.093 0 1 1 .001 2.187 1.093 1.093 0 0 1 -.001-2.187m-27 8a1.093 1.093 0 1 1 0 2.185 1.093 1.093 0 0 1 0-2.185m0 8a1.093 1.093 0 1 1 0 2.186 1.093 1.093 0 0 1 0-2.186m0 8a1.093 1.093 0 1 1 0 2.185 1.093 1.093 0 0 1 0-2.185m0-24a1.093 1.093 0 1 1 0 2.185 1.093 1.093 0 0 1 0-2.185m9 8a1.093 1.093 0 1 1 0 2.185 1.093 1.093 0 0 1 0-2.185m0 8a1.093 1.093 0 1 1 0 2.186 1.093 1.093 0 0 1 0-2.186m0 8a1.093 1.093 0 1 1 0 2.185 1.093 1.093 0 0 1 0-2.185m0-24a1.093 1.093 0 1 1 0 2.185 1.093 1.093 0 0 1 0-2.185m-27 8a1.093 1.093 0 1 1 0 2.185 1.093 1.093 0 0 1 0-2.185m0 8a1.093 1.093 0 1 1 0 2.186 1.093 1.093 0 0 1 0-2.186m0 8a1.093 1.093 0 1 1 0 2.185 1.093 1.093 0 0 1 0-2.185m0-24a1.093 1.093 0 1 1 0 2.185 1.093 1.093 0 0 1 0-2.185m10 8a1.093 1.093 0 1 1 0 2.185 1.093 1.093 0 0 1 0-2.185m0 8a1.093 1.093 0 1 1 0 2.186 1.093 1.093 0 0 1 0-2.186m0 8a1.093 1.093 0 1 1 0 2.185 1.093 1.093 0 0 1 0-2.185m0-24a1.093 1.093 0 1 1 0 2.185 1.093 1.093 0 0 1 0-2.185m-27 8a1.093 1.093 0 1 1 0 2.185 1.093 1.093 0 0 1 0-2.185m0 8a1.093 1.093 0 1 1 0 2.186 1.093 1.093 0 0 1 0-2.186m0 8a1.093 1.093 0 1 1 0 2.185 1.093 1.093 0 0 1 0-2.185m0-24a1.093 1.093 0 1 1 0 2.185 1.093 1.093 0 0 1 0-2.185m9 8a1.093 1.093 0 1 1 0 2.185 1.093 1.093 0 0 1 0-2.185m0 8a1.093 1.093 0 1 1 0 2.186 1.093 1.093 0 0 1 0-2.186m0 8a1.093 1.093 0 1 1 0 2.185 1.093 1.093 0 0 1 0-2.185m0-24a1.093 1.093 0 1 1 0 2.185 1.093 1.093 0 0 1 0-2.185m44 41a1.093 1.093 0 1 1 0 2.186 1.093 1.093 0 0 1 0-2.186m0 8a1.093 1.093 0 1 1 0 2.185 1.093 1.093 0 0 1 0-2.185"/><path d="m1.837.813a1.093 1.093 0 1 1 0 2.187 1.093 1.093 0 0 1 0-2.187" mask="url(#a)" transform="translate(116 56)"/><path d="m118.093 33a1.093 1.093 0 1 1 0 2.187 1.093 1.093 0 0 1 0-2.187m9 8a1.094 1.094 0 1 1 0 2.187 1.094 1.094 0 0 1 0-2.187m0 8a1.093 1.093 0 1 1 .001 2.187 1.093 1.093 0 0 1 -.001-2.187"/><path d="m2.01.813a1.094 1.094 0 1 1 0 2.189 1.094 1.094 0 0 1 0-2.189" mask="url(#b)" transform="translate(125 56)"/><path d="m127.093 33a1.094 1.094 0 1 1 0 2.189 1.094 1.094 0 0 1 0-2.189m-27 8a1.093 1.093 0 1 1 0 2.186 1.093 1.093 0 0 1 0-2.186m0 8a1.093 1.093 0 1 1 0 2.185 1.093 1.093 0 0 1 0-2.185"/><path d="m2.032.813a1.093 1.093 0 1 1 -.002 2.187 1.093 1.093 0 0 1 0-2.187" mask="url(#c)" transform="translate(98 56)"/><path d="m100.093 33a1.093 1.093 0 1 1 0 2.187 1.093 1.093 0 0 1 0-2.187m9 8a1.093 1.093 0 1 1 0 2.186 1.093 1.093 0 0 1 0-2.186m0 8a1.093 1.093 0 1 1 0 2.185 1.093 1.093 0 0 1 0-2.185"/><path d="m1.205.813a1.093 1.093 0 1 1 0 2.187 1.093 1.093 0 0 1 0-2.187" mask="url(#d)" transform="translate(108 56)"/><path d="m109.093 33a1.093 1.093 0 1 1 0 2.187 1.093 1.093 0 0 1 0-2.187m-27 8a1.093 1.093 0 1 1 0 2.186 1.093 1.093 0 0 1 0-2.186m0 8a1.093 1.093 0 1 1 0 2.185 1.093 1.093 0 0 1 0-2.185"/><path d="m1.227.813a1.093 1.093 0 1 1 -.001 2.187 1.093 1.093 0 0 1 0-2.187" mask="url(#e)" transform="translate(81 56)"/><path d="m82.093 33a1.093 1.093 0 1 1 0 2.187 1.093 1.093 0 0 1 0-2.187m10 8a1.093 1.093 0 1 1 0 2.186 1.093 1.093 0 0 1 0-2.186m0 8a1.093 1.093 0 1 1 0 2.185 1.093 1.093 0 0 1 0-2.185"/><path d="m1.4.813a1.093 1.093 0 1 1 0 2.187 1.093 1.093 0 0 1 0-2.187" mask="url(#f)" transform="translate(90 56)"/><path d="m92.093 33a1.093 1.093 0 1 1 0 2.187 1.093 1.093 0 0 1 0-2.187m-27 8a1.093 1.093 0 1 1 0 2.186 1.093 1.093 0 0 1 0-2.186m0 8a1.093 1.093 0 1 1 0 2.185 1.093 1.093 0 0 1 0-2.185"/><path d="m1.421.813a1.093 1.093 0 1 1 0 2.187 1.093 1.093 0 0 1 0-2.187" mask="url(#g)" transform="translate(63 56)"/><path d="m65.093 33a1.093 1.093 0 1 1 0 2.187 1.093 1.093 0 0 1 0-2.187m9 8a1.093 1.093 0 1 1 0 2.186 1.093 1.093 0 0 1 0-2.186m0 8a1.093 1.093 0 1 1 0 2.185 1.093 1.093 0 0 1 0-2.185"/><path d="m1.594.813a1.093 1.093 0 1 1 0 2.187 1.093 1.093 0 0 1 0-2.187" mask="url(#h)" transform="translate(72 56)"/><path d="m74.093 33a1.093 1.093 0 1 1 0 2.187 1.093 1.093 0 0 1 0-2.187"/></g><g fill="#f6b72c"><circle cx="92" cy="9" r="2"/><circle cx="118.5" cy="17.5" r="1.5"/><circle cx="118" cy="42" r="2"/></g><path d="m84.025 45h-4.05c-.56 0-.975.506-.975 1.138.146 5.537 1.438 9.862 3 9.862s2.829-4.325 3-9.862c0-.632-.415-1.138-.975-1.138m14 7h-4.049c-.561 0-.976.506-.976 1.138.146 5.537 1.44 9.862 3 9.862 1.562 0 2.829-4.325 3-9.862 0-.607-.439-1.138-.975-1.138m-57.048-7h4.048c.56 0 .975.506.975 1.138-.146 5.537-1.438 9.862-2.999 9.862-1.56 0-2.83-4.325-3-9.862-.024-.632.415-1.138.976-1.138m-14.002 7h4.05c.561 0 .975.506.975 1.138-.146 5.537-1.439 9.862-3 9.862s-2.829-4.325-3-9.862c0-.607.439-1.138.975-1.138m42.285 35-3.26 10.76 14 5.24-.54-6.34zm-13.52 0 3.26 10.76-14 5.24.54-6.34z" fill="#df5333"/><path d="m71 44 2.165 23.27 33.835 7.73v-11.98zm-16 0-2.165 23.27-33.835 7.73v-11.98z" fill="#f49c53"/><path d="m62.499 16c5.8 0 10.501 20.147 10.501 45 0 24.852-4.702 45-10.501 45s-10.499-20.148-10.499-45c0-24.853 4.7-45 10.499-45" fill="#f6b72c"/><path d="m63 85c.552 0 1 .476 1 1.063v8.872c0 .588-.448 1.065-1 1.065s-1-.477-1-1.065v-8.872c0-.587.448-1.063 1-1.063m2.681-49.226c-1.652-1.043-3.757-1.05-5.385-.026a1.5 1.5 0 0 1 -1.857-.205 1.492 1.492 0 0 1 .267-2.326 8.22 8.22 0 0 1 8.588-.012c.827.51.949 1.664.251 2.34l-.033.03a1.493 1.493 0 0 1 -1.83.2" fill="#fff"/><path d="m29.815 23.457c-.525-5.362-5.03-9.457-10.512-9.457-4.207 0-7.812 2.457-9.54 5.957-.45-.223-.901-.372-1.427-.372-1.577 0-2.929 1.266-2.929 2.904 0 .373.076.67.225 1.043-3.152.074-5.632 2.606-5.632 5.734 0 3.202 2.63 5.734 5.783 5.734h23.431c3.229 0 5.784-2.607 5.784-5.734.075-3.054-2.253-5.51-5.183-5.809" fill="#fef7e9" opacity=".9"/><path d="m130.815 97.457c-.526-5.362-5.03-9.457-10.512-9.457-4.207 0-7.812 2.457-9.54 5.957-.45-.223-.901-.372-1.427-.372-1.577 0-2.929 1.266-2.929 2.904 0 .373.076.67.225 1.043-3.153.074-5.632 2.606-5.632 5.734 0 3.202 2.63 5.734 5.783 5.734h23.431c3.229 0 5.784-2.607 5.784-5.734.075-3.054-2.253-5.51-5.183-5.809" fill="#fef7eb" opacity=".5"/></g></svg>