<svg height="50" viewBox="0 0 50 50" width="50" xmlns="http://www.w3.org/2000/svg"><g fill="none" fill-rule="evenodd"><path d="m25 1c13.255 0 24 10.745 24 24s-10.745 24-24 24-24-10.745-24-24 10.745-24 24-24z" fill="#fff" stroke="#50b7e8" stroke-width="1.5"/><g fill="#50b7e8"><path d="m25.4 8.891a2.23 2.23 0 0 1 2.22 2.236 2.23 2.23 0 0 1 -2.22 2.237 2.23 2.23 0 0 1 -2.22-2.237 2.23 2.23 0 0 1 2.22-2.236zm5.255 3.235a.744.744 0 0 0 .356.99c4.685 2.195 7.71 6.974 7.71 12.175 0 7.399-5.976 13.418-13.32 13.418-7.345 0-13.32-6.02-13.32-13.418 0-6.051 4.1-11.378 9.84-12.943.505 1.454 1.867 2.507 3.48 2.507 2.04 0 3.7-1.672 3.7-3.728 0-2.055-1.66-3.727-3.7-3.727-1.95 0-3.535 1.531-3.674 3.46-6.477 1.67-11.127 7.64-11.127 14.43 0 8.22 6.64 14.909 14.8 14.909 8.163 0 14.8-6.688 14.8-14.909 0-5.779-3.362-11.087-8.564-13.525a.735.735 0 0 0 -.981.36z"/><path d="m29.1 25.4c0 2.482-2.017 4.5-4.5 4.5a4.505 4.505 0 0 1 -4.5-4.5c0-2.482 2.018-4.5 4.5-4.5 2.483 0 4.5 2.018 4.5 4.5zm-4.5 6c3.31 0 6-2.691 6-6 0-3.308-2.69-6-6-6-3.308 0-6 2.692-6 6 0 3.309 2.692 6 6 6z"/><path d="m23.933 24.733h-.667a.666.666 0 1 0 0 1.334h.667v.666a.666.666 0 1 0 1.334 0v-.666h.666a.666.666 0 1 0 0-1.334h-.666v-.666a.666.666 0 1 0 -1.334 0z"/></g></g></svg>