<svg height="240" viewBox="0 0 1267 240" width="1267" xmlns="http://www.w3.org/2000/svg"><g fill="#ea5a7d" fill-rule="evenodd"><path d="m50 0a1 1 0 1 1 .001 1.999 1 1 0 0 1 -.001-1.999m-10 0a1 1 0 1 1 .001 1.999 1 1 0 0 1 -.001-1.999m-10 0a1 1 0 1 1 .001 1.999 1 1 0 0 1 -.001-1.999m-9 0a1 1 0 1 1 .001 1.999 1 1 0 0 1 -.001-1.999m-10 0a1 1 0 1 1 .001 1.999 1 1 0 0 1 -.001-1.999m-10 0a1 1 0 1 1 .001 1.999 1 1 0 0 1 -.001-1.999m59 0a1 1 0 1 1 .001 1.999 1 1 0 0 1 -.001-1.999m10 0a1 1 0 1 1 .001 1.999 1 1 0 0 1 -.001-1.999m474 0a1 1 0 1 1 .001 1.998 1 1 0 0 1 0-1.998m68.999 0a1 1 0 1 1 0 2 1 1 0 0 1 0-2m-10 0a1 1 0 1 1 0 2 1 1 0 0 1 0-2m-10 0a1 1 0 1 1 .001 1.998 1 1 0 0 1 0-1.998m-10.001 0a1 1 0 1 1 0 2 1 1 0 0 1 0-2m-9 0a1 1 0 1 1 .001 1.999 1 1 0 0 1 -.001-1.999m-10 0a1 1 0 1 1 .001 1.998 1 1 0 0 1 0-1.998m-10.001 0a1 1 0 1 1 0 2 1 1 0 0 1 0-2m80 0a1 1 0 1 1 .001 1.998 1 1 0 0 1 0-1.998m-10.001 0a1 1 0 1 1 0 2 1 1 0 0 1 0-2m-100 0a1 1 0 1 1 0 2 1 1 0 0 1 0-2m10 0a1 1 0 1 1 .001 1.998 1 1 0 0 1 0-1.998m-30.001 0a1 1 0 1 1 0 2 1 1 0 0 1 0-2m10 0a1 1 0 1 1 .001 1.998 1 1 0 0 1 0-1.998m-30.001 0a1 1 0 1 1 .001 1.998 1 1 0 0 1 0-1.998m9.999 0a1 1 0 1 1 0 2 1 1 0 0 1 0-2m-30 0a1 1 0 1 1 .001 1.998 1 1 0 0 1 0-1.998m10.999 0a1 1 0 1 1 0 2 1 1 0 0 1 0-2m-30 0a1 1 0 1 1 0 2 1 1 0 0 1 0-2m10 0a1 1 0 1 1 .001 1.998 1 1 0 0 1 0-1.998m-30.001 0a1 1 0 1 1 0 2 1 1 0 0 1 0-2m10 0a1 1 0 1 1 .001 1.998 1 1 0 0 1 0-1.998m-30.001 0a1 1 0 1 1 .001 1.998 1 1 0 0 1 0-1.998m9.999 0a1 1 0 1 1 0 2 1 1 0 0 1 0-2m-30 0a1 1 0 1 1 .001 1.999 1 1 0 0 1 -.001-1.999m10 0a1 1 0 1 1 0 2 1 1 0 0 1 0-2m-30 0a1 1 0 1 1 0 2 1 1 0 0 1 0-2m10 0a1 1 0 1 1 .001 1.998 1 1 0 0 1 0-1.998m-30.001 0a1 1 0 1 1 .001 1.998 1 1 0 0 1 0-1.998m10.999 0a1 1 0 1 1 .001 1.999 1 1 0 0 1 -.001-1.999m-30 0a1 1 0 1 1 .001 1.998 1 1 0 0 1 0-1.998m9.999 0a1 1 0 1 1 0 2 1 1 0 0 1 0-2m-30 0a1 1 0 1 1 .001 1.999 1 1 0 0 1 -.001-1.999m10 0a1 1 0 1 1 .001 1.999 1 1 0 0 1 -.001-1.999m-30 0a1 1 0 1 1 .001 1.999 1 1 0 0 1 -.001-1.999m10 0a1 1 0 1 1 0 2 1 1 0 0 1 0-2m-30 0a1 1 0 1 1 .001 1.999 1 1 0 0 1 -.001-1.999m10 0a1 1 0 1 1 .001 1.999 1 1 0 0 1 -.001-1.999m-30 0a1 1 0 1 1 .001 1.999 1 1 0 0 1 -.001-1.999m10 0a1 1 0 1 1 .001 1.999 1 1 0 0 1 -.001-1.999m-30 0a1 1 0 1 1 .001 1.999 1 1 0 0 1 -.001-1.999m11 0a1 1 0 1 1 .001 1.999 1 1 0 0 1 -.001-1.999m-29 0a1 1 0 1 1 .001 1.999 1 1 0 0 1 -.001-1.999m9 0a1 1 0 1 1 .001 1.999 1 1 0 0 1 -.001-1.999m-29 0a1 1 0 1 1 .001 1.999 1 1 0 0 1 -.001-1.999m10 0a1 1 0 1 1 .001 1.998 1 1 0 0 1 0-1.998m-30.001 0a1 1 0 1 1 .001 1.999 1 1 0 0 1 -.001-1.999m10 0a1 1 0 1 1 .001 1.999 1 1 0 0 1 -.001-1.999m-29 0a1 1 0 1 1 .001 1.999 1 1 0 0 1 -.001-1.999m10 0a1 1 0 1 1 .001 1.998 1 1 0 0 1 0-1.998m-30.001 0a1 1 0 1 1 .001 1.999 1 1 0 0 1 -.001-1.999m10 0a1 1 0 1 1 .001 1.999 1 1 0 0 1 -.001-1.999m-30 0a1 1 0 1 1 .001 1.999 1 1 0 0 1 -.001-1.999m10 0a1 1 0 1 1 0 2 1 1 0 0 1 0-2m-39 0a1 1 0 1 1 .001 1.998 1 1 0 0 1 0-1.998m19.999 0a1 1 0 1 1 .001 1.999 1 1 0 0 1 -.001-1.999m-10 0a1 1 0 1 1 .001 1.999 1 1 0 0 1 -.001-1.999m-30 18a1 1 0 1 1 0 2 1 1 0 0 1 0-2m-10 0a1 1 0 1 1 0 2 1 1 0 0 1 0-2m0 9a1 1 0 1 1 .001 1.999 1 1 0 0 1 -.001-1.999m-10-9a1 1 0 1 1 0 2 1 1 0 0 1 0-2m0 9a1 1 0 1 1 .001 1.999 1 1 0 0 1 -.001-1.999m-10-9a1 1 0 1 1 0 2 1 1 0 0 1 0-2m0 9a1 1 0 1 1 .001 1.999 1 1 0 0 1 -.001-1.999m-9-9a1 1 0 1 1 0 2 1 1 0 0 1 0-2m0 9a1 1 0 1 1 .001 1.999 1 1 0 0 1 -.001-1.999m-10-9a1 1 0 1 1 0 2 1 1 0 0 1 0-2m0 9a1 1 0 1 1 .001 1.999 1 1 0 0 1 -.001-1.999m-10-9a1 1 0 1 1 0 2 1 1 0 0 1 0-2m0 9a1 1 0 1 1 .001 1.999 1 1 0 0 1 -.001-1.999m59-18a1 1 0 1 1 0 2 1 1 0 0 1 0-2m-10 0a1 1 0 1 1 0 2 1 1 0 0 1 0-2m-10 0a1 1 0 1 1 0 2 1 1 0 0 1 0-2m-10 0a1 1 0 1 1 0 2 1 1 0 0 1 0-2m-9 0a1 1 0 1 1 0 2 1 1 0 0 1 0-2m-10 0a1 1 0 1 1 0 2 1 1 0 0 1 0-2m-10 0a1 1 0 1 1 0 2 1 1 0 0 1 0-2m69 9a1 1 0 1 1 0 2 1 1 0 0 1 0-2m0-9a1 1 0 1 1 0 2 1 1 0 0 1 0-2m-10 18a1 1 0 1 1 .001 1.999 1 1 0 0 1 -.001-1.999m10 0a1 1 0 1 1 .001 1.999 1 1 0 0 1 -.001-1.999m474-9a1 1 0 1 1 0 1.999 1 1 0 0 1 0-1.999m0 9a1 1 0 1 1 .001 1.998 1 1 0 0 1 0-1.998m-.001-18a1 1 0 1 1 0 2 1 1 0 0 1 0-2m69 9a1 1 0 1 1 0 2 1 1 0 0 1 0-2m0 9a1 1 0 1 1 0 2 1 1 0 0 1 0-2m-10-9a1 1 0 1 1 0 2 1 1 0 0 1 0-2m0 9a1 1 0 1 1 0 2 1 1 0 0 1 0-2m-10-9a1 1 0 1 1 0 1.999 1 1 0 0 1 0-1.999m0 9a1 1 0 1 1 .001 1.998 1 1 0 0 1 0-1.998m-10.001-9a1 1 0 1 1 0 2 1 1 0 0 1 0-2m0 9a1 1 0 1 1 0 2 1 1 0 0 1 0-2m-9-9a1 1 0 1 1 0 2 1 1 0 0 1 0-2m0 9a1 1 0 1 1 .001 1.999 1 1 0 0 1 -.001-1.999m-10-9a1 1 0 1 1 0 1.999 1 1 0 0 1 0-1.999m0 9a1 1 0 1 1 .001 1.998 1 1 0 0 1 0-1.998m-10.001-9a1 1 0 1 1 0 2 1 1 0 0 1 0-2m0 9a1 1 0 1 1 0 2 1 1 0 0 1 0-2m59-18a1 1 0 1 1 0 2.001 1 1 0 0 1 0-2.001m-10 0a1 1 0 1 1 0 2.001 1 1 0 0 1 0-2.001m31 9a1 1 0 1 1 0 1.999 1 1 0 0 1 0-1.999m0 9a1 1 0 1 1 .001 1.998 1 1 0 0 1 0-1.998m-10.001-9a1 1 0 1 1 0 2 1 1 0 0 1 0-2m0 9a1 1 0 1 1 0 2 1 1 0 0 1 0-2m10-18a1 1 0 1 1 0 2 1 1 0 0 1 0-2m-10 0a1 1 0 1 1 0 2.001 1 1 0 0 1 0-2.001m-31 0a1 1 0 1 1 0 2 1 1 0 0 1 0-2m-10 0a1 1 0 1 1 0 2.001 1 1 0 0 1 0-2.001m-9 0a1 1 0 1 1 0 2 1 1 0 0 1 0-2m-10 0a1 1 0 1 1 0 2 1 1 0 0 1 0-2m-10 0a1 1 0 1 1 0 2.001 1 1 0 0 1 0-2.001m-30 9a1 1 0 1 1 0 2 1 1 0 0 1 0-2m0 9a1 1 0 1 1 0 2 1 1 0 0 1 0-2m0-18a1 1 0 1 1 0 2.001 1 1 0 0 1 0-2.001m10 9a1 1 0 1 1 0 1.999 1 1 0 0 1 0-1.999m0 9a1 1 0 1 1 .001 1.998 1 1 0 0 1 0-1.998m-.001-18a1 1 0 1 1 0 2 1 1 0 0 1 0-2m-30 9a1 1 0 1 1 0 2 1 1 0 0 1 0-2m0 9a1 1 0 1 1 0 2 1 1 0 0 1 0-2m0-18a1 1 0 1 1 0 2.001 1 1 0 0 1 0-2.001m10 9a1 1 0 1 1 0 1.999 1 1 0 0 1 0-1.999m0 9a1 1 0 1 1 .001 1.998 1 1 0 0 1 0-1.998m-.001-18a1 1 0 1 1 0 2 1 1 0 0 1 0-2m-30 9a1 1 0 1 1 0 1.999 1 1 0 0 1 0-1.999m0 9a1 1 0 1 1 .001 1.998 1 1 0 0 1 0-1.998m-.001-18a1 1 0 1 1 0 2 1 1 0 0 1 0-2m10 9a1 1 0 1 1 0 2 1 1 0 0 1 0-2m0 9a1 1 0 1 1 0 2 1 1 0 0 1 0-2m0-18a1 1 0 1 1 0 2.001 1 1 0 0 1 0-2.001m-30 9a1 1 0 1 1 0 1.999 1 1 0 0 1 0-1.999m0 9a1 1 0 1 1 .001 1.998 1 1 0 0 1 0-1.998m-.001-18a1 1 0 1 1 0 2 1 1 0 0 1 0-2m11 9a1 1 0 1 1 0 2 1 1 0 0 1 0-2m0 9a1 1 0 1 1 0 2 1 1 0 0 1 0-2m0-18a1 1 0 1 1 0 2.001 1 1 0 0 1 0-2.001m-30 9a1 1 0 1 1 0 2 1 1 0 0 1 0-2m0 9a1 1 0 1 1 0 2 1 1 0 0 1 0-2m0-18a1 1 0 1 1 0 2.001 1 1 0 0 1 0-2.001m10 9a1 1 0 1 1 0 1.999 1 1 0 0 1 0-1.999m0 9a1 1 0 1 1 .001 1.998 1 1 0 0 1 0-1.998m-.001-18a1 1 0 1 1 0 2 1 1 0 0 1 0-2m-30 9a1 1 0 1 1 0 2 1 1 0 0 1 0-2m0 9a1 1 0 1 1 0 2 1 1 0 0 1 0-2m0-18a1 1 0 1 1 0 2.001 1 1 0 0 1 0-2.001m10 9a1 1 0 1 1 0 1.999 1 1 0 0 1 0-1.999m0 9a1 1 0 1 1 .001 1.998 1 1 0 0 1 0-1.998m-.001-18a1 1 0 1 1 0 2 1 1 0 0 1 0-2m-30 9a1 1 0 1 1 0 1.999 1 1 0 0 1 0-1.999m0 9a1 1 0 1 1 .001 1.998 1 1 0 0 1 0-1.998m-.001-18a1 1 0 1 1 0 2 1 1 0 0 1 0-2m10 9a1 1 0 1 1 0 2 1 1 0 0 1 0-2m0 9a1 1 0 1 1 0 2 1 1 0 0 1 0-2m0-18a1 1 0 1 1 0 2.001 1 1 0 0 1 0-2.001m-30 9a1 1 0 1 1 0 2 1 1 0 0 1 0-2m0 9a1 1 0 1 1 .001 1.999 1 1 0 0 1 -.001-1.999m0-18a1 1 0 1 1 0 2 1 1 0 0 1 0-2m10 9a1 1 0 1 1 0 2 1 1 0 0 1 0-2m0 9a1 1 0 1 1 0 2 1 1 0 0 1 0-2m0-18a1 1 0 1 1 0 2.001 1 1 0 0 1 0-2.001m-30 9a1 1 0 1 1 0 2 1 1 0 0 1 0-2m0 9a1 1 0 1 1 0 2 1 1 0 0 1 0-2m0-18a1 1 0 1 1 0 2.001 1 1 0 0 1 0-2.001m10 9a1 1 0 1 1 0 1.999 1 1 0 0 1 0-1.999m0 9a1 1 0 1 1 .001 1.998 1 1 0 0 1 0-1.998m-.001-18a1 1 0 1 1 0 2 1 1 0 0 1 0-2m-30 9a1 1 0 1 1 0 1.999 1 1 0 0 1 0-1.999m0 9a1 1 0 1 1 .001 1.998 1 1 0 0 1 0-1.998m-.001-18a1 1 0 1 1 0 2 1 1 0 0 1 0-2m11 9a1 1 0 1 1 0 2 1 1 0 0 1 0-2m0 9a1 1 0 1 1 .001 1.999 1 1 0 0 1 -.001-1.999m0-18a1 1 0 1 1 0 2 1 1 0 0 1 0-2m-30 9a1 1 0 1 1 0 1.999 1 1 0 0 1 0-1.999m0 9a1 1 0 1 1 .001 1.998 1 1 0 0 1 0-1.998m-.001-18a1 1 0 1 1 0 2 1 1 0 0 1 0-2m10 9a1 1 0 1 1 0 2 1 1 0 0 1 0-2m0 9a1 1 0 1 1 0 2 1 1 0 0 1 0-2m0-18a1 1 0 1 1 0 2.001 1 1 0 0 1 0-2.001m-30 9a1 1 0 1 1 0 2 1 1 0 0 1 0-2m0 9a1 1 0 1 1 .001 1.999 1 1 0 0 1 -.001-1.999m0-18a1 1 0 1 1 0 2 1 1 0 0 1 0-2m10 9a1 1 0 1 1 0 2 1 1 0 0 1 0-2m0 9a1 1 0 1 1 .001 1.999 1 1 0 0 1 -.001-1.999m0-18a1 1 0 1 1 0 2 1 1 0 0 1 0-2m-30 9a1 1 0 1 1 0 2 1 1 0 0 1 0-2m0 9a1 1 0 1 1 .001 1.999 1 1 0 0 1 -.001-1.999m0-18a1 1 0 1 1 0 2 1 1 0 0 1 0-2m10 9a1 1 0 1 1 0 2 1 1 0 0 1 0-2m0 9a1 1 0 1 1 0 2 1 1 0 0 1 0-2m0-18a1 1 0 1 1 0 2.001 1 1 0 0 1 0-2.001m-30 9a1 1 0 1 1 0 2 1 1 0 0 1 0-2m0 9a1 1 0 1 1 .001 1.999 1 1 0 0 1 -.001-1.999m0-18a1 1 0 1 1 0 2 1 1 0 0 1 0-2m10 9a1 1 0 1 1 0 2 1 1 0 0 1 0-2m0 9a1 1 0 1 1 .001 1.999 1 1 0 0 1 -.001-1.999m.205 8.813a1.093 1.093 0 1 1 0 2.187 1.093 1.093 0 0 1 0-2.187m-.205-26.813a1 1 0 1 1 0 2 1 1 0 0 1 0-2m-30 9a1 1 0 1 1 0 2 1 1 0 0 1 0-2m0 9a1 1 0 1 1 .001 1.999 1 1 0 0 1 -.001-1.999m0-18a1 1 0 1 1 0 2 1 1 0 0 1 0-2m10 9a1 1 0 1 1 0 2 1 1 0 0 1 0-2m0 9a1 1 0 1 1 .001 1.999 1 1 0 0 1 -.001-1.999m0-18a1 1 0 1 1 0 2 1 1 0 0 1 0-2m-30 9a1 1 0 1 1 0 2 1 1 0 0 1 0-2m0 9a1 1 0 1 1 .001 1.999 1 1 0 0 1 -.001-1.999m0-18a1 1 0 1 1 0 2 1 1 0 0 1 0-2m11 9a1 1 0 1 1 0 2 1 1 0 0 1 0-2m0 9a1 1 0 1 1 .001 1.999 1 1 0 0 1 -.001-1.999m0-18a1 1 0 1 1 0 2 1 1 0 0 1 0-2m-29 9a1 1 0 1 1 0 2 1 1 0 0 1 0-2m0 9a1 1 0 1 1 .001 1.999 1 1 0 0 1 -.001-1.999m0-18a1 1 0 1 1 0 2 1 1 0 0 1 0-2m9 9a1 1 0 1 1 0 2 1 1 0 0 1 0-2m0 9a1 1 0 1 1 .001 1.999 1 1 0 0 1 -.001-1.999m0-18a1 1 0 1 1 0 2 1 1 0 0 1 0-2m-29 9a1 1 0 1 1 0 2 1 1 0 0 1 0-2m0 9a1 1 0 1 1 .001 1.999 1 1 0 0 1 -.001-1.999m0-18a1 1 0 1 1 0 2 1 1 0 0 1 0-2m10 9a1 1 0 1 1 0 1.999 1 1 0 0 1 0-1.999m0 9a1 1 0 1 1 .001 1.998 1 1 0 0 1 0-1.998m-.001-18a1 1 0 1 1 0 2 1 1 0 0 1 0-2m-30 9a1 1 0 1 1 0 2 1 1 0 0 1 0-2m0 9a1 1 0 1 1 .001 1.999 1 1 0 0 1 -.001-1.999m0-18a1 1 0 1 1 0 2 1 1 0 0 1 0-2m10 9a1 1 0 1 1 0 2 1 1 0 0 1 0-2m0 9a1 1 0 1 1 .001 1.999 1 1 0 0 1 -.001-1.999m0-18a1 1 0 1 1 0 2 1 1 0 0 1 0-2m-29 9a1 1 0 1 1 0 2 1 1 0 0 1 0-2m0 9a1 1 0 1 1 .001 1.999 1 1 0 0 1 -.001-1.999m0-18a1 1 0 1 1 0 2 1 1 0 0 1 0-2m10 9a1 1 0 1 1 0 1.999 1 1 0 0 1 0-1.999m0 9a1 1 0 1 1 .001 1.998 1 1 0 0 1 0-1.998m-.001-18a1 1 0 1 1 0 2 1 1 0 0 1 0-2m-30 9a1 1 0 1 1 0 2 1 1 0 0 1 0-2m0 9a1 1 0 1 1 .001 1.999 1 1 0 0 1 -.001-1.999m0-18a1 1 0 1 1 0 2 1 1 0 0 1 0-2m10 9a1 1 0 1 1 0 2 1 1 0 0 1 0-2m0 9a1 1 0 1 1 .001 1.999 1 1 0 0 1 -.001-1.999m0-18a1 1 0 1 1 0 2 1 1 0 0 1 0-2m-30 9a1 1 0 1 1 0 2 1 1 0 0 1 0-2m0 9a1 1 0 1 1 .001 1.999 1 1 0 0 1 -.001-1.999m0-18a1 1 0 1 1 0 2 1 1 0 0 1 0-2m10 9a1 1 0 1 1 0 2 1 1 0 0 1 0-2m0 9a1 1 0 1 1 0 2 1 1 0 0 1 0-2m0-18a1 1 0 1 1 0 2.001 1 1 0 0 1 0-2.001m-39 9a1 1 0 1 1 0 1.999 1 1 0 0 1 0-1.999m0 9a1 1 0 1 1 .001 1.998 1 1 0 0 1 0-1.998m-.001-18a1 1 0 1 1 0 2 1 1 0 0 1 0-2m20 9a1 1 0 1 1 0 2 1 1 0 0 1 0-2m0 9a1 1 0 1 1 .001 1.999 1 1 0 0 1 -.001-1.999m-49.934 8.813a1.093 1.093 0 1 1 -.001 2.187 1.093 1.093 0 0 1 0-2.187m-9.902 0a1.093 1.093 0 1 1 0 2.187 1.093 1.093 0 0 1 0-2.187m-9.903 0a1.093 1.093 0 1 1 0 2.187 1.093 1.093 0 0 1 0-2.187m-9.362 0a1.093 1.093 0 1 1 0 2.187 1.093 1.093 0 0 1 0-2.187m-9.902 0a1.093 1.093 0 1 1 -.001 2.187 1.093 1.093 0 0 1 0-2.187m-9.902 0a1.093 1.093 0 1 1 0 2.187 1.093 1.093 0 0 1 0-2.187m58.875 0a1.093 1.093 0 1 1 0 2.187 1.093 1.093 0 0 1 0-2.187m10.174 0a1.093 1.093 0 1 1 -.002 2.187 1.093 1.093 0 0 1 0-2.187m473.168 0a1.093 1.093 0 1 1 -.001 2.187 1.093 1.093 0 0 1 0-2.187m69.049 0a1.094 1.094 0 1 1 0 2.189 1.094 1.094 0 0 1 0-2.189m-9.903 0a1.094 1.094 0 1 1 0 2.189 1.094 1.094 0 0 1 0-2.189m-9.903 0a1.093 1.093 0 1 1 0 2.187 1.093 1.093 0 0 1 0-2.187m-9.902 0a1.094 1.094 0 1 1 0 2.189 1.094 1.094 0 0 1 0-2.189m-8.362 0a1.093 1.093 0 1 1 0 2.187 1.093 1.093 0 0 1 0-2.187m-10.902 0a1.093 1.093 0 1 1 0 2.187 1.093 1.093 0 0 1 0-2.187m-9.904 0a1.094 1.094 0 1 1 0 2.189 1.094 1.094 0 0 1 0-2.189m80.542 0a1.093 1.093 0 1 1 -.002 2.187 1.093 1.093 0 0 1 0-2.187m-9.902 0a1.094 1.094 0 1 1 0 2.189 1.094 1.094 0 0 1 0-2.189m-100.616 0a1.094 1.094 0 1 1 0 2.189 1.094 1.094 0 0 1 0-2.189m10.174 0a1.093 1.093 0 1 1 0 2.187 1.093 1.093 0 0 1 0-2.187m-29.98 0a1.094 1.094 0 1 1 0 2.189 1.094 1.094 0 0 1 0-2.189m10.174 0a1.093 1.093 0 1 1 0 2.187 1.093 1.093 0 0 1 0-2.187m-29.978 0a1.093 1.093 0 1 1 -.002 2.187 1.093 1.093 0 0 1 0-2.187m10.175 0a1.094 1.094 0 1 1 -.001 2.189 1.094 1.094 0 0 1 0-2.189m-29.978 0a1.093 1.093 0 1 1 0 2.187 1.093 1.093 0 0 1 0-2.187m10.173 0a1.094 1.094 0 1 1 0 2.189 1.094 1.094 0 0 1 0-2.189m-29.979 0a1.094 1.094 0 1 1 0 2.189 1.094 1.094 0 0 1 0-2.189m10.174 0a1.093 1.093 0 1 1 0 2.187 1.093 1.093 0 0 1 0-2.187m-29.979 0a1.094 1.094 0 1 1 0 2.189 1.094 1.094 0 0 1 0-2.189m10.174 0a1.093 1.093 0 1 1 -.001 2.187 1.093 1.093 0 0 1 0-2.187m-29.978 0a1.093 1.093 0 1 1 0 2.187 1.093 1.093 0 0 1 0-2.187m10.173 0a1.094 1.094 0 1 1 0 2.189 1.094 1.094 0 0 1 0-2.189m-29.979 0a1.093 1.093 0 1 1 0 2.187 1.093 1.093 0 0 1 0-2.187m10.173 0a1.094 1.094 0 1 1 0 2.189 1.094 1.094 0 0 1 0-2.189m-29.978 0a1.094 1.094 0 1 1 0 2.189 1.094 1.094 0 0 1 0-2.189m10.174 0a1.093 1.093 0 1 1 -.001 2.187 1.093 1.093 0 0 1 0-2.187m-29.978 0a1.093 1.093 0 1 1 0 2.187 1.093 1.093 0 0 1 0-2.187m10.173 0a1.093 1.093 0 1 1 -.001 2.187 1.093 1.093 0 0 1 0-2.187m-29.978 0a1.093 1.093 0 1 1 0 2.187 1.093 1.093 0 0 1 0-2.187m10.173 0a1.094 1.094 0 1 1 0 2.189 1.094 1.094 0 0 1 0-2.189m-29.978 0a1.093 1.093 0 1 1 -.001 2.187 1.093 1.093 0 0 1 0-2.187m10.174 0a1.093 1.093 0 1 1 0 2.187 1.093 1.093 0 0 1 0-2.187m-29.979 0a1.093 1.093 0 1 1 0 2.187 1.093 1.093 0 0 1 0-2.187m10.173 0a1.094 1.094 0 1 1 0 2.189 1.094 1.094 0 0 1 0-2.189m-29.978 0a1.093 1.093 0 1 1 -.002 2.187 1.093 1.093 0 0 1 0-2.187m-19.803 0a1.093 1.093 0 1 1 -.001 2.187 1.093 1.093 0 0 1 0-2.187m10.174 0a1.093 1.093 0 1 1 0 2.187 1.093 1.093 0 0 1 0-2.187m-29.979 0a1.093 1.093 0 1 1 0 2.187 1.093 1.093 0 0 1 0-2.187m10.173 0a1.093 1.093 0 1 1 0 2.187 1.093 1.093 0 0 1 0-2.187m-28.356 0a1.093 1.093 0 1 1 0 2.187 1.093 1.093 0 0 1 0-2.187m8.552 0a1.093 1.093 0 1 1 -.002 2.187 1.093 1.093 0 0 1 .001-2.187m-28.626 0a1.093 1.093 0 1 1 -.001 2.187 1.093 1.093 0 0 1 0-2.187m9.903 0a1.093 1.093 0 1 1 0 2.187 1.093 1.093 0 0 1 0-2.187m-29.708 0a1.093 1.093 0 1 1 0 2.187 1.093 1.093 0 0 1 0-2.187m9.903 0a1.093 1.093 0 1 1 0 2.187 1.093 1.093 0 0 1 0-2.187m-29.167 0a1.093 1.093 0 1 1 0 2.187 1.093 1.093 0 0 1 0-2.187m9.903 0a1.093 1.093 0 1 1 -.001 2.187 1.093 1.093 0 0 1 0-2.187m-29.978 0a1.093 1.093 0 1 1 -.001 2.187 1.093 1.093 0 0 1 0-2.187m10.174 0a1.093 1.093 0 1 1 0 2.187 1.093 1.093 0 0 1 0-2.187m-29.978 0a1.093 1.093 0 1 1 -.002 2.187 1.093 1.093 0 0 1 0-2.187m9.904 0a1.094 1.094 0 1 1 0 2.189 1.094 1.094 0 0 1 0-2.189m-39.34 0a1.093 1.093 0 1 1 0 2.187 1.093 1.093 0 0 1 0-2.187m20.091 0a1.093 1.093 0 1 1 0 2.187 1.093 1.093 0 0 1 0-2.187m.135-26.813a1 1 0 1 1 0 2 1 1 0 0 1 0-2m-10 9a1 1 0 1 1 0 2 1 1 0 0 1 0-2m0 9a1 1 0 1 1 .001 1.999 1 1 0 0 1 -.001-1.999m-.324 8.813a1.093 1.093 0 1 1 0 2.187 1.093 1.093 0 0 1 0-2.187m.324-26.813a1 1 0 1 1 0 2 1 1 0 0 1 0-2"/><path d="m50 186a1 1 0 1 1 .001 1.999 1 1 0 0 1 -.001-1.999m-10 0a1 1 0 1 1 .001 1.999 1 1 0 0 1 -.001-1.999m-10 0a1 1 0 1 1 .001 1.999 1 1 0 0 1 -.001-1.999m-9 0a1 1 0 1 1 .001 1.999 1 1 0 0 1 -.001-1.999m-10 0a1 1 0 1 1 .001 1.999 1 1 0 0 1 -.001-1.999m-10 0a1 1 0 1 1 .001 1.999 1 1 0 0 1 -.001-1.999m59 0a1 1 0 1 1 .001 1.999 1 1 0 0 1 -.001-1.999m-10 8a1 1 0 1 1 .001 1.999 1 1 0 0 1 -.001-1.999m-10 0a1 1 0 1 1 .001 1.999 1 1 0 0 1 -.001-1.999m-10 0a1 1 0 1 1 .001 1.999 1 1 0 0 1 -.001-1.999m-9 0a1 1 0 1 1 .001 1.999 1 1 0 0 1 -.001-1.999m-10 0a1 1 0 1 1 .001 1.999 1 1 0 0 1 -.001-1.999m-10 0a1 1 0 1 1 .001 1.999 1 1 0 0 1 -.001-1.999m59 0a1 1 0 1 1 .001 1.999 1 1 0 0 1 -.001-1.999m-10-18a1 1 0 1 1 .001 1.999 1 1 0 0 1 -.001-1.999m-10 0a1 1 0 1 1 .001 1.999 1 1 0 0 1 -.001-1.999m-10 0a1 1 0 1 1 .001 1.999 1 1 0 0 1 -.001-1.999m-9 0a1 1 0 1 1 .001 1.999 1 1 0 0 1 -.001-1.999m-10 0a1 1 0 1 1 .001 1.999 1 1 0 0 1 -.001-1.999m-10 0a1 1 0 1 1 .001 1.999 1 1 0 0 1 -.001-1.999m59 0a1 1 0 1 1 .001 1.999 1 1 0 0 1 -.001-1.999"/><path d="m50 166a1 1 0 1 1 .001 1.999 1 1 0 0 1 -.001-1.999m-10 0a1 1 0 1 1 .001 1.999 1 1 0 0 1 -.001-1.999m-10 0a1 1 0 1 1 .001 1.999 1 1 0 0 1 -.001-1.999m-9 0a1 1 0 1 1 .001 1.999 1 1 0 0 1 -.001-1.999m-10 0a1 1 0 1 1 .001 1.999 1 1 0 0 1 -.001-1.999m-10 0a1 1 0 1 1 .001 1.999 1 1 0 0 1 -.001-1.999m59 0a1 1 0 1 1 .001 1.999 1 1 0 0 1 -.001-1.999"/><path d="m50 156a1 1 0 1 1 .001 1.999 1 1 0 0 1 -.001-1.999m-10 0a1 1 0 1 1 .001 1.999 1 1 0 0 1 -.001-1.999m-10 0a1 1 0 1 1 .001 1.999 1 1 0 0 1 -.001-1.999m-9 0a1 1 0 1 1 .001 1.999 1 1 0 0 1 -.001-1.999m-10 0a1 1 0 1 1 .001 1.999 1 1 0 0 1 -.001-1.999m-10 0a1 1 0 1 1 .001 1.999 1 1 0 0 1 -.001-1.999m59 0a1 1 0 1 1 .001 1.999 1 1 0 0 1 -.001-1.999"/><path d="m50 146a1 1 0 1 1 .001 1.999 1 1 0 0 1 -.001-1.999m-10 0a1 1 0 1 1 .001 1.999 1 1 0 0 1 -.001-1.999m-10 0a1 1 0 1 1 .001 1.999 1 1 0 0 1 -.001-1.999m-9 0a1 1 0 1 1 .001 1.999 1 1 0 0 1 -.001-1.999m-10 0a1 1 0 1 1 .001 1.999 1 1 0 0 1 -.001-1.999m-10 0a1 1 0 1 1 .001 1.999 1 1 0 0 1 -.001-1.999m59 0a1 1 0 1 1 .001 1.999 1 1 0 0 1 -.001-1.999"/><path d="m50 136a1 1 0 1 1 .001 1.999 1 1 0 0 1 -.001-1.999m-10 0a1 1 0 1 1 .001 1.999 1 1 0 0 1 -.001-1.999m-10 0a1 1 0 1 1 .001 1.999 1 1 0 0 1 -.001-1.999m-9 0a1 1 0 1 1 .001 1.999 1 1 0 0 1 -.001-1.999m-10 0a1 1 0 1 1 .001 1.999 1 1 0 0 1 -.001-1.999m-10 0a1 1 0 1 1 .001 1.999 1 1 0 0 1 -.001-1.999m59 0a1 1 0 1 1 .001 1.999 1 1 0 0 1 -.001-1.999"/><path d="m50 126a1 1 0 1 1 .001 1.999 1 1 0 0 1 -.001-1.999m-10 0a1 1 0 1 1 .001 1.999 1 1 0 0 1 -.001-1.999m-10 0a1 1 0 1 1 .001 1.999 1 1 0 0 1 -.001-1.999m-9 0a1 1 0 1 1 .001 1.999 1 1 0 0 1 -.001-1.999m-10 0a1 1 0 1 1 .001 1.999 1 1 0 0 1 -.001-1.999m-10 0a1 1 0 1 1 .001 1.999 1 1 0 0 1 -.001-1.999m59 0a1 1 0 1 1 .001 1.999 1 1 0 0 1 -.001-1.999"/><path d="m50 116a1 1 0 1 1 .001 1.999 1 1 0 0 1 -.001-1.999m-10 0a1 1 0 1 1 .001 1.999 1 1 0 0 1 -.001-1.999m-10 0a1 1 0 1 1 .001 1.999 1 1 0 0 1 -.001-1.999m-9 0a1 1 0 1 1 .001 1.999 1 1 0 0 1 -.001-1.999m-10 0a1 1 0 1 1 .001 1.999 1 1 0 0 1 -.001-1.999m-10 0a1 1 0 1 1 .001 1.999 1 1 0 0 1 -.001-1.999m59 0a1 1 0 1 1 .001 1.999 1 1 0 0 1 -.001-1.999"/><path d="m50 106a1 1 0 1 1 .001 1.999 1 1 0 0 1 -.001-1.999m-10 0a1 1 0 1 1 .001 1.999 1 1 0 0 1 -.001-1.999m-10 0a1 1 0 1 1 .001 1.999 1 1 0 0 1 -.001-1.999m-9 0a1 1 0 1 1 .001 1.999 1 1 0 0 1 -.001-1.999m-10 0a1 1 0 1 1 .001 1.999 1 1 0 0 1 -.001-1.999m-10 0a1 1 0 1 1 .001 1.999 1 1 0 0 1 -.001-1.999m59 0a1 1 0 1 1 .001 1.999 1 1 0 0 1 -.001-1.999"/><path d="m50 96a1 1 0 1 1 .001 1.999 1 1 0 0 1 -.001-1.999m-10 0a1 1 0 1 1 .001 1.999 1 1 0 0 1 -.001-1.999m-10 0a1 1 0 1 1 .001 1.999 1 1 0 0 1 -.001-1.999m-9 0a1 1 0 1 1 .001 1.999 1 1 0 0 1 -.001-1.999m-10 0a1 1 0 1 1 .001 1.999 1 1 0 0 1 -.001-1.999m-10 0a1 1 0 1 1 .001 1.999 1 1 0 0 1 -.001-1.999m59 0a1 1 0 1 1 .001 1.999 1 1 0 0 1 -.001-1.999"/><path d="m50 86a1 1 0 1 1 .001 1.999 1 1 0 0 1 -.001-1.999m-10 0a1 1 0 1 1 .001 1.999 1 1 0 0 1 -.001-1.999m-10 0a1 1 0 1 1 .001 1.999 1 1 0 0 1 -.001-1.999m-9 0a1 1 0 1 1 .001 1.999 1 1 0 0 1 -.001-1.999m-10 0a1 1 0 1 1 .001 1.999 1 1 0 0 1 -.001-1.999m-10 0a1 1 0 1 1 .001 1.999 1 1 0 0 1 -.001-1.999m59 0a1 1 0 1 1 .001 1.999 1 1 0 0 1 -.001-1.999"/><path d="m50 76a1 1 0 1 1 .001 1.999 1 1 0 0 1 -.001-1.999m-10 0a1 1 0 1 1 .001 1.999 1 1 0 0 1 -.001-1.999m-10 0a1 1 0 1 1 .001 1.999 1 1 0 0 1 -.001-1.999m-9 0a1 1 0 1 1 .001 1.999 1 1 0 0 1 -.001-1.999m-10 0a1 1 0 1 1 .001 1.999 1 1 0 0 1 -.001-1.999m-10 0a1 1 0 1 1 .001 1.999 1 1 0 0 1 -.001-1.999m59 0a1 1 0 1 1 .001 1.999 1 1 0 0 1 -.001-1.999"/><path d="m50 66a1 1 0 1 1 .001 1.999 1 1 0 0 1 -.001-1.999m-10 0a1 1 0 1 1 .001 1.999 1 1 0 0 1 -.001-1.999m-10 0a1 1 0 1 1 .001 1.999 1 1 0 0 1 -.001-1.999m-9 0a1 1 0 1 1 .001 1.999 1 1 0 0 1 -.001-1.999m-10 0a1 1 0 1 1 .001 1.999 1 1 0 0 1 -.001-1.999m-10 0a1 1 0 1 1 .001 1.999 1 1 0 0 1 -.001-1.999m59 0a1 1 0 1 1 .001 1.999 1 1 0 0 1 -.001-1.999"/><path d="m50 56a1 1 0 1 1 .001 1.999 1 1 0 0 1 -.001-1.999m-10 0a1 1 0 1 1 .001 1.999 1 1 0 0 1 -.001-1.999m-10 0a1 1 0 1 1 .001 1.999 1 1 0 0 1 -.001-1.999m-9 0a1 1 0 1 1 .001 1.999 1 1 0 0 1 -.001-1.999m-10 0a1 1 0 1 1 .001 1.999 1 1 0 0 1 -.001-1.999m-10 0a1 1 0 1 1 .001 1.999 1 1 0 0 1 -.001-1.999m59 0a1 1 0 1 1 .001 1.999 1 1 0 0 1 -.001-1.999"/><path d="m50 46a1 1 0 1 1 .001 1.999 1 1 0 0 1 -.001-1.999m-10 0a1 1 0 1 1 .001 1.999 1 1 0 0 1 -.001-1.999m-10 0a1 1 0 1 1 .001 1.999 1 1 0 0 1 -.001-1.999m-9 0a1 1 0 1 1 .001 1.999 1 1 0 0 1 -.001-1.999m-10 0a1 1 0 1 1 .001 1.999 1 1 0 0 1 -.001-1.999m-10 0a1 1 0 1 1 .001 1.999 1 1 0 0 1 -.001-1.999m59 0a1 1 0 1 1 .001 1.999 1 1 0 0 1 -.001-1.999"/><path d="m119 186a1 1 0 1 1 .001 1.999 1 1 0 0 1 -.001-1.999m-10 0a1 1 0 1 1 .001 1.999 1 1 0 0 1 -.001-1.999m-10 0a1 1 0 1 1 .001 1.999 1 1 0 0 1 -.001-1.999m-9 0a1 1 0 1 1 .001 1.999 1 1 0 0 1 -.001-1.999m-10 0a1 1 0 1 1 .001 1.999 1 1 0 0 1 -.001-1.999m-10 0a1 1 0 1 1 .001 1.999 1 1 0 0 1 -.001-1.999m59 0a1 1 0 1 1 .001 1.999 1 1 0 0 1 -.001-1.999m-10 8a1 1 0 1 1 .001 1.999 1 1 0 0 1 -.001-1.999m-10 0a1 1 0 1 1 .001 1.999 1 1 0 0 1 -.001-1.999m-10 0a1 1 0 1 1 .001 1.999 1 1 0 0 1 -.001-1.999m-9 0a1 1 0 1 1 .001 1.999 1 1 0 0 1 -.001-1.999m-10 0a1 1 0 1 1 .001 1.999 1 1 0 0 1 -.001-1.999m-10 0a1 1 0 1 1 .001 1.999 1 1 0 0 1 -.001-1.999m59 0a1 1 0 1 1 .001 1.999 1 1 0 0 1 -.001-1.999m-10-18a1 1 0 1 1 .001 1.999 1 1 0 0 1 -.001-1.999m-10 0a1 1 0 1 1 .001 1.999 1 1 0 0 1 -.001-1.999m-10 0a1 1 0 1 1 .001 1.999 1 1 0 0 1 -.001-1.999m-9 0a1 1 0 1 1 .001 1.999 1 1 0 0 1 -.001-1.999m-10 0a1 1 0 1 1 .001 1.999 1 1 0 0 1 -.001-1.999m-10 0a1 1 0 1 1 .001 1.999 1 1 0 0 1 -.001-1.999m59 0a1 1 0 1 1 .001 1.999 1 1 0 0 1 -.001-1.999"/><path d="m119 166a1 1 0 1 1 .001 1.999 1 1 0 0 1 -.001-1.999m-10 0a1 1 0 1 1 .001 1.999 1 1 0 0 1 -.001-1.999m-10 0a1 1 0 1 1 .001 1.999 1 1 0 0 1 -.001-1.999m-9 0a1 1 0 1 1 .001 1.999 1 1 0 0 1 -.001-1.999m-10 0a1 1 0 1 1 .001 1.999 1 1 0 0 1 -.001-1.999m-10 0a1 1 0 1 1 .001 1.999 1 1 0 0 1 -.001-1.999m59 0a1 1 0 1 1 .001 1.999 1 1 0 0 1 -.001-1.999"/><path d="m119 156a1 1 0 1 1 .001 1.999 1 1 0 0 1 -.001-1.999m-10 0a1 1 0 1 1 .001 1.999 1 1 0 0 1 -.001-1.999m-10 0a1 1 0 1 1 .001 1.999 1 1 0 0 1 -.001-1.999m-9 0a1 1 0 1 1 .001 1.999 1 1 0 0 1 -.001-1.999m-10 0a1 1 0 1 1 .001 1.999 1 1 0 0 1 -.001-1.999m-10 0a1 1 0 1 1 .001 1.999 1 1 0 0 1 -.001-1.999m59 0a1 1 0 1 1 .001 1.999 1 1 0 0 1 -.001-1.999"/><path d="m119 146a1 1 0 1 1 .001 1.999 1 1 0 0 1 -.001-1.999m-10 0a1 1 0 1 1 .001 1.999 1 1 0 0 1 -.001-1.999m-10 0a1 1 0 1 1 .001 1.999 1 1 0 0 1 -.001-1.999m-9 0a1 1 0 1 1 .001 1.999 1 1 0 0 1 -.001-1.999m-10 0a1 1 0 1 1 .001 1.999 1 1 0 0 1 -.001-1.999m-10 0a1 1 0 1 1 .001 1.999 1 1 0 0 1 -.001-1.999m59 0a1 1 0 1 1 .001 1.999 1 1 0 0 1 -.001-1.999"/><path d="m119 136a1 1 0 1 1 .001 1.999 1 1 0 0 1 -.001-1.999m-10 0a1 1 0 1 1 .001 1.999 1 1 0 0 1 -.001-1.999m-10 0a1 1 0 1 1 .001 1.999 1 1 0 0 1 -.001-1.999m-9 0a1 1 0 1 1 .001 1.999 1 1 0 0 1 -.001-1.999m-10 0a1 1 0 1 1 .001 1.999 1 1 0 0 1 -.001-1.999m-10 0a1 1 0 1 1 .001 1.999 1 1 0 0 1 -.001-1.999m59 0a1 1 0 1 1 .001 1.999 1 1 0 0 1 -.001-1.999"/><path d="m119 126a1 1 0 1 1 .001 1.999 1 1 0 0 1 -.001-1.999m-10 0a1 1 0 1 1 .001 1.999 1 1 0 0 1 -.001-1.999m-10 0a1 1 0 1 1 .001 1.999 1 1 0 0 1 -.001-1.999m-9 0a1 1 0 1 1 .001 1.999 1 1 0 0 1 -.001-1.999m-10 0a1 1 0 1 1 .001 1.999 1 1 0 0 1 -.001-1.999m-10 0a1 1 0 1 1 .001 1.999 1 1 0 0 1 -.001-1.999m59 0a1 1 0 1 1 .001 1.999 1 1 0 0 1 -.001-1.999"/><path d="m119 116a1 1 0 1 1 .001 1.999 1 1 0 0 1 -.001-1.999m-10 0a1 1 0 1 1 .001 1.999 1 1 0 0 1 -.001-1.999m-10 0a1 1 0 1 1 .001 1.999 1 1 0 0 1 -.001-1.999m-9 0a1 1 0 1 1 .001 1.999 1 1 0 0 1 -.001-1.999m-10 0a1 1 0 1 1 .001 1.999 1 1 0 0 1 -.001-1.999m-10 0a1 1 0 1 1 .001 1.999 1 1 0 0 1 -.001-1.999m59 0a1 1 0 1 1 .001 1.999 1 1 0 0 1 -.001-1.999"/><path d="m119 106a1 1 0 1 1 .001 1.999 1 1 0 0 1 -.001-1.999m-10 0a1 1 0 1 1 .001 1.999 1 1 0 0 1 -.001-1.999m-10 0a1 1 0 1 1 .001 1.999 1 1 0 0 1 -.001-1.999m-9 0a1 1 0 1 1 .001 1.999 1 1 0 0 1 -.001-1.999m-10 0a1 1 0 1 1 .001 1.999 1 1 0 0 1 -.001-1.999m-10 0a1 1 0 1 1 .001 1.999 1 1 0 0 1 -.001-1.999m59 0a1 1 0 1 1 .001 1.999 1 1 0 0 1 -.001-1.999"/><path d="m119 96a1 1 0 1 1 .001 1.999 1 1 0 0 1 -.001-1.999m-10 0a1 1 0 1 1 .001 1.999 1 1 0 0 1 -.001-1.999m-10 0a1 1 0 1 1 .001 1.999 1 1 0 0 1 -.001-1.999m-9 0a1 1 0 1 1 .001 1.999 1 1 0 0 1 -.001-1.999m-10 0a1 1 0 1 1 .001 1.999 1 1 0 0 1 -.001-1.999m-10 0a1 1 0 1 1 .001 1.999 1 1 0 0 1 -.001-1.999m59 0a1 1 0 1 1 .001 1.999 1 1 0 0 1 -.001-1.999"/><path d="m119 86a1 1 0 1 1 .001 1.999 1 1 0 0 1 -.001-1.999m-10 0a1 1 0 1 1 .001 1.999 1 1 0 0 1 -.001-1.999m-10 0a1 1 0 1 1 .001 1.999 1 1 0 0 1 -.001-1.999m-9 0a1 1 0 1 1 .001 1.999 1 1 0 0 1 -.001-1.999m-10 0a1 1 0 1 1 .001 1.999 1 1 0 0 1 -.001-1.999m-10 0a1 1 0 1 1 .001 1.999 1 1 0 0 1 -.001-1.999m59 0a1 1 0 1 1 .001 1.999 1 1 0 0 1 -.001-1.999"/><path d="m119 76a1 1 0 1 1 .001 1.999 1 1 0 0 1 -.001-1.999m-10 0a1 1 0 1 1 .001 1.999 1 1 0 0 1 -.001-1.999m-10 0a1 1 0 1 1 .001 1.999 1 1 0 0 1 -.001-1.999m-9 0a1 1 0 1 1 .001 1.999 1 1 0 0 1 -.001-1.999m-10 0a1 1 0 1 1 .001 1.999 1 1 0 0 1 -.001-1.999m-10 0a1 1 0 1 1 .001 1.999 1 1 0 0 1 -.001-1.999m59 0a1 1 0 1 1 .001 1.999 1 1 0 0 1 -.001-1.999"/><path d="m119 66a1 1 0 1 1 .001 1.999 1 1 0 0 1 -.001-1.999m-10 0a1 1 0 1 1 .001 1.999 1 1 0 0 1 -.001-1.999m-10 0a1 1 0 1 1 .001 1.999 1 1 0 0 1 -.001-1.999m-9 0a1 1 0 1 1 .001 1.999 1 1 0 0 1 -.001-1.999m-10 0a1 1 0 1 1 .001 1.999 1 1 0 0 1 -.001-1.999m-10 0a1 1 0 1 1 .001 1.999 1 1 0 0 1 -.001-1.999m59 0a1 1 0 1 1 .001 1.999 1 1 0 0 1 -.001-1.999"/><path d="m119 56a1 1 0 1 1 .001 1.999 1 1 0 0 1 -.001-1.999m-10 0a1 1 0 1 1 .001 1.999 1 1 0 0 1 -.001-1.999m-10 0a1 1 0 1 1 .001 1.999 1 1 0 0 1 -.001-1.999m-9 0a1 1 0 1 1 .001 1.999 1 1 0 0 1 -.001-1.999m-10 0a1 1 0 1 1 .001 1.999 1 1 0 0 1 -.001-1.999m-10 0a1 1 0 1 1 .001 1.999 1 1 0 0 1 -.001-1.999m59 0a1 1 0 1 1 .001 1.999 1 1 0 0 1 -.001-1.999"/><path d="m119 46a1 1 0 1 1 .001 1.999 1 1 0 0 1 -.001-1.999m-10 0a1 1 0 1 1 .001 1.999 1 1 0 0 1 -.001-1.999m-10 0a1 1 0 1 1 .001 1.999 1 1 0 0 1 -.001-1.999m-9 0a1 1 0 1 1 .001 1.999 1 1 0 0 1 -.001-1.999m-10 0a1 1 0 1 1 .001 1.999 1 1 0 0 1 -.001-1.999m-10 0a1 1 0 1 1 .001 1.999 1 1 0 0 1 -.001-1.999m59 0a1 1 0 1 1 .001 1.999 1 1 0 0 1 -.001-1.999"/><path d="m1255 185a1 1 0 1 1 .001 1.999 1 1 0 0 1 -.001-1.999m-10 0a1 1 0 1 1 .001 1.999 1 1 0 0 1 -.001-1.999m-10 0a1 1 0 1 1 .001 1.999 1 1 0 0 1 -.001-1.999m-9 0a1 1 0 1 1 .001 1.999 1 1 0 0 1 -.001-1.999m-10 0a1 1 0 1 1 .001 1.999 1 1 0 0 1 -.001-1.999m-10 0a1 1 0 1 1 .001 1.999 1 1 0 0 1 -.001-1.999m59 0a1 1 0 1 1 .001 1.999 1 1 0 0 1 -.001-1.999m-10 8a1 1 0 1 1 .001 1.999 1 1 0 0 1 -.001-1.999m-10 0a1 1 0 1 1 .001 1.999 1 1 0 0 1 -.001-1.999m-10 0a1 1 0 1 1 .001 1.999 1 1 0 0 1 -.001-1.999m-9 0a1 1 0 1 1 .001 1.999 1 1 0 0 1 -.001-1.999m-10 0a1 1 0 1 1 .001 1.999 1 1 0 0 1 -.001-1.999m-10 0a1 1 0 1 1 .001 1.999 1 1 0 0 1 -.001-1.999m59 0a1 1 0 1 1 .001 1.999 1 1 0 0 1 -.001-1.999m-10-18a1 1 0 1 1 .001 1.999 1 1 0 0 1 -.001-1.999m-10 0a1 1 0 1 1 .001 1.999 1 1 0 0 1 -.001-1.999m-10 0a1 1 0 1 1 .001 1.999 1 1 0 0 1 -.001-1.999m-9 0a1 1 0 1 1 .001 1.999 1 1 0 0 1 -.001-1.999m-10 0a1 1 0 1 1 .001 1.999 1 1 0 0 1 -.001-1.999m-10 0a1 1 0 1 1 .001 1.999 1 1 0 0 1 -.001-1.999m59 0a1 1 0 1 1 .001 1.999 1 1 0 0 1 -.001-1.999"/><path d="m1255 165a1 1 0 1 1 .001 1.999 1 1 0 0 1 -.001-1.999m-10 0a1 1 0 1 1 .001 1.999 1 1 0 0 1 -.001-1.999m-10 0a1 1 0 1 1 .001 1.999 1 1 0 0 1 -.001-1.999m-9 0a1 1 0 1 1 .001 1.999 1 1 0 0 1 -.001-1.999m-10 0a1 1 0 1 1 .001 1.999 1 1 0 0 1 -.001-1.999m-10 0a1 1 0 1 1 .001 1.999 1 1 0 0 1 -.001-1.999m59 0a1 1 0 1 1 .001 1.999 1 1 0 0 1 -.001-1.999"/><path d="m1255 155a1 1 0 1 1 .001 1.999 1 1 0 0 1 -.001-1.999m-10 0a1 1 0 1 1 .001 1.999 1 1 0 0 1 -.001-1.999m-10 0a1 1 0 1 1 .001 1.999 1 1 0 0 1 -.001-1.999m-9 0a1 1 0 1 1 .001 1.999 1 1 0 0 1 -.001-1.999m-10 0a1 1 0 1 1 .001 1.999 1 1 0 0 1 -.001-1.999m-10 0a1 1 0 1 1 .001 1.999 1 1 0 0 1 -.001-1.999m59 0a1 1 0 1 1 .001 1.999 1 1 0 0 1 -.001-1.999"/><path d="m1255 145a1 1 0 1 1 .001 1.999 1 1 0 0 1 -.001-1.999m-10 0a1 1 0 1 1 .001 1.999 1 1 0 0 1 -.001-1.999m-10 0a1 1 0 1 1 .001 1.999 1 1 0 0 1 -.001-1.999m-9 0a1 1 0 1 1 .001 1.999 1 1 0 0 1 -.001-1.999m-10 0a1 1 0 1 1 .001 1.999 1 1 0 0 1 -.001-1.999m-10 0a1 1 0 1 1 .001 1.999 1 1 0 0 1 -.001-1.999m59 0a1 1 0 1 1 .001 1.999 1 1 0 0 1 -.001-1.999"/><path d="m1255 135a1 1 0 1 1 .001 1.999 1 1 0 0 1 -.001-1.999m-10 0a1 1 0 1 1 .001 1.999 1 1 0 0 1 -.001-1.999m-10 0a1 1 0 1 1 .001 1.999 1 1 0 0 1 -.001-1.999m-9 0a1 1 0 1 1 .001 1.999 1 1 0 0 1 -.001-1.999m-10 0a1 1 0 1 1 .001 1.999 1 1 0 0 1 -.001-1.999m-10 0a1 1 0 1 1 .001 1.999 1 1 0 0 1 -.001-1.999m59 0a1 1 0 1 1 .001 1.999 1 1 0 0 1 -.001-1.999"/><path d="m1255 125a1 1 0 1 1 .001 1.999 1 1 0 0 1 -.001-1.999m-10 0a1 1 0 1 1 .001 1.999 1 1 0 0 1 -.001-1.999m-10 0a1 1 0 1 1 .001 1.999 1 1 0 0 1 -.001-1.999m-9 0a1 1 0 1 1 .001 1.999 1 1 0 0 1 -.001-1.999m-10 0a1 1 0 1 1 .001 1.999 1 1 0 0 1 -.001-1.999m-10 0a1 1 0 1 1 .001 1.999 1 1 0 0 1 -.001-1.999m59 0a1 1 0 1 1 .001 1.999 1 1 0 0 1 -.001-1.999"/><path d="m1255 115a1 1 0 1 1 .001 1.999 1 1 0 0 1 -.001-1.999m-10 0a1 1 0 1 1 .001 1.999 1 1 0 0 1 -.001-1.999m-10 0a1 1 0 1 1 .001 1.999 1 1 0 0 1 -.001-1.999m-9 0a1 1 0 1 1 .001 1.999 1 1 0 0 1 -.001-1.999m-10 0a1 1 0 1 1 .001 1.999 1 1 0 0 1 -.001-1.999m-10 0a1 1 0 1 1 .001 1.999 1 1 0 0 1 -.001-1.999m59 0a1 1 0 1 1 .001 1.999 1 1 0 0 1 -.001-1.999"/><path d="m1255 105a1 1 0 1 1 .001 1.999 1 1 0 0 1 -.001-1.999m-10 0a1 1 0 1 1 .001 1.999 1 1 0 0 1 -.001-1.999m-10 0a1 1 0 1 1 .001 1.999 1 1 0 0 1 -.001-1.999m-9 0a1 1 0 1 1 .001 1.999 1 1 0 0 1 -.001-1.999m-10 0a1 1 0 1 1 .001 1.999 1 1 0 0 1 -.001-1.999m-10 0a1 1 0 1 1 .001 1.999 1 1 0 0 1 -.001-1.999m59 0a1 1 0 1 1 .001 1.999 1 1 0 0 1 -.001-1.999"/><path d="m1255 95a1 1 0 1 1 .001 1.999 1 1 0 0 1 -.001-1.999m-10 0a1 1 0 1 1 .001 1.999 1 1 0 0 1 -.001-1.999m-10 0a1 1 0 1 1 .001 1.999 1 1 0 0 1 -.001-1.999m-9 0a1 1 0 1 1 .001 1.999 1 1 0 0 1 -.001-1.999m-10 0a1 1 0 1 1 .001 1.999 1 1 0 0 1 -.001-1.999m-10 0a1 1 0 1 1 .001 1.999 1 1 0 0 1 -.001-1.999m59 0a1 1 0 1 1 .001 1.999 1 1 0 0 1 -.001-1.999"/><path d="m1255 85a1 1 0 1 1 .001 1.999 1 1 0 0 1 -.001-1.999m-10 0a1 1 0 1 1 .001 1.999 1 1 0 0 1 -.001-1.999m-10 0a1 1 0 1 1 .001 1.999 1 1 0 0 1 -.001-1.999m-9 0a1 1 0 1 1 .001 1.999 1 1 0 0 1 -.001-1.999m-10 0a1 1 0 1 1 .001 1.999 1 1 0 0 1 -.001-1.999m-10 0a1 1 0 1 1 .001 1.999 1 1 0 0 1 -.001-1.999m59 0a1 1 0 1 1 .001 1.999 1 1 0 0 1 -.001-1.999"/><path d="m1255 75a1 1 0 1 1 .001 1.999 1 1 0 0 1 -.001-1.999m-10 0a1 1 0 1 1 .001 1.999 1 1 0 0 1 -.001-1.999m-10 0a1 1 0 1 1 .001 1.999 1 1 0 0 1 -.001-1.999m-9 0a1 1 0 1 1 .001 1.999 1 1 0 0 1 -.001-1.999m-10 0a1 1 0 1 1 .001 1.999 1 1 0 0 1 -.001-1.999m-10 0a1 1 0 1 1 .001 1.999 1 1 0 0 1 -.001-1.999m59 0a1 1 0 1 1 .001 1.999 1 1 0 0 1 -.001-1.999"/><path d="m1255 65a1 1 0 1 1 .001 1.999 1 1 0 0 1 -.001-1.999m-10 0a1 1 0 1 1 .001 1.999 1 1 0 0 1 -.001-1.999m-10 0a1 1 0 1 1 .001 1.999 1 1 0 0 1 -.001-1.999m-9 0a1 1 0 1 1 .001 1.999 1 1 0 0 1 -.001-1.999m-10 0a1 1 0 1 1 .001 1.999 1 1 0 0 1 -.001-1.999m-10 0a1 1 0 1 1 .001 1.999 1 1 0 0 1 -.001-1.999m59 0a1 1 0 1 1 .001 1.999 1 1 0 0 1 -.001-1.999"/><path d="m1255 55a1 1 0 1 1 .001 1.999 1 1 0 0 1 -.001-1.999m-10 0a1 1 0 1 1 .001 1.999 1 1 0 0 1 -.001-1.999m-10 0a1 1 0 1 1 .001 1.999 1 1 0 0 1 -.001-1.999m-9 0a1 1 0 1 1 .001 1.999 1 1 0 0 1 -.001-1.999m-10 0a1 1 0 1 1 .001 1.999 1 1 0 0 1 -.001-1.999m-10 0a1 1 0 1 1 .001 1.999 1 1 0 0 1 -.001-1.999m59 0a1 1 0 1 1 .001 1.999 1 1 0 0 1 -.001-1.999"/><path d="m1255 45a1 1 0 1 1 .001 1.999 1 1 0 0 1 -.001-1.999m-10 0a1 1 0 1 1 .001 1.999 1 1 0 0 1 -.001-1.999m-10 0a1 1 0 1 1 .001 1.999 1 1 0 0 1 -.001-1.999m-9 0a1 1 0 1 1 .001 1.999 1 1 0 0 1 -.001-1.999m-10 0a1 1 0 1 1 .001 1.999 1 1 0 0 1 -.001-1.999m-10 0a1 1 0 1 1 .001 1.999 1 1 0 0 1 -.001-1.999m59 0a1 1 0 1 1 .001 1.999 1 1 0 0 1 -.001-1.999"/><path d="m693 0a1 1 0 1 1 .001 1.999 1 1 0 0 1 -.001-1.999m-10 0a1 1 0 1 1 .001 1.999 1 1 0 0 1 -.001-1.999m-10 0a1 1 0 1 1 .001 1.999 1 1 0 0 1 -.001-1.999m-9 0a1 1 0 1 1 .001 1.999 1 1 0 0 1 -.001-1.999m-10 0a1 1 0 1 1 .001 1.999 1 1 0 0 1 -.001-1.999m-10 0a1 1 0 1 1 .001 1.999 1 1 0 0 1 -.001-1.999m59 0a1 1 0 1 1 .001 1.999 1 1 0 0 1 -.001-1.999m10 0a1 1 0 1 1 .001 1.999 1 1 0 0 1 -.001-1.999m474 0a1 1 0 1 1 .001 1.998 1 1 0 0 1 0-1.998m68.999 0a1 1 0 1 1 0 2 1 1 0 0 1 0-2m-10 0a1 1 0 1 1 0 2 1 1 0 0 1 0-2m-10 0a1 1 0 1 1 .001 1.998 1 1 0 0 1 0-1.998m-10.001 0a1 1 0 1 1 0 2 1 1 0 0 1 0-2m-9 0a1 1 0 1 1 .001 1.999 1 1 0 0 1 -.001-1.999m-10 0a1 1 0 1 1 .001 1.998 1 1 0 0 1 0-1.998m-10.001 0a1 1 0 1 1 0 2 1 1 0 0 1 0-2m-30 0a1 1 0 1 1 0 2 1 1 0 0 1 0-2m10 0a1 1 0 1 1 .001 1.998 1 1 0 0 1 0-1.998m-30.001 0a1 1 0 1 1 0 2 1 1 0 0 1 0-2m10 0a1 1 0 1 1 .001 1.998 1 1 0 0 1 0-1.998m-30.001 0a1 1 0 1 1 .001 1.998 1 1 0 0 1 0-1.998m9.999 0a1 1 0 1 1 0 2 1 1 0 0 1 0-2m-30 0a1 1 0 1 1 .001 1.998 1 1 0 0 1 0-1.998m10.999 0a1 1 0 1 1 0 2 1 1 0 0 1 0-2m-30 0a1 1 0 1 1 0 2 1 1 0 0 1 0-2m10 0a1 1 0 1 1 .001 1.998 1 1 0 0 1 0-1.998m-30.001 0a1 1 0 1 1 0 2 1 1 0 0 1 0-2m10 0a1 1 0 1 1 .001 1.998 1 1 0 0 1 0-1.998m-30.001 0a1 1 0 1 1 .001 1.998 1 1 0 0 1 0-1.998m9.999 0a1 1 0 1 1 0 2 1 1 0 0 1 0-2m-30 0a1 1 0 1 1 .001 1.999 1 1 0 0 1 -.001-1.999m10 0a1 1 0 1 1 0 2 1 1 0 0 1 0-2m-30 0a1 1 0 1 1 0 2 1 1 0 0 1 0-2m10 0a1 1 0 1 1 .001 1.998 1 1 0 0 1 0-1.998m-30.001 0a1 1 0 1 1 .001 1.998 1 1 0 0 1 0-1.998m10.999 0a1 1 0 1 1 .001 1.999 1 1 0 0 1 -.001-1.999m-30 0a1 1 0 1 1 .001 1.998 1 1 0 0 1 0-1.998m9.999 0a1 1 0 1 1 0 2 1 1 0 0 1 0-2m-30 0a1 1 0 1 1 .001 1.999 1 1 0 0 1 -.001-1.999m10 0a1 1 0 1 1 .001 1.999 1 1 0 0 1 -.001-1.999m-30 0a1 1 0 1 1 .001 1.999 1 1 0 0 1 -.001-1.999m10 0a1 1 0 1 1 0 2 1 1 0 0 1 0-2m-30 0a1 1 0 1 1 .001 1.999 1 1 0 0 1 -.001-1.999m10 0a1 1 0 1 1 .001 1.999 1 1 0 0 1 -.001-1.999m-30 0a1 1 0 1 1 .001 1.999 1 1 0 0 1 -.001-1.999m10 0a1 1 0 1 1 .001 1.999 1 1 0 0 1 -.001-1.999m-30 0a1 1 0 1 1 .001 1.999 1 1 0 0 1 -.001-1.999m11 0a1 1 0 1 1 .001 1.999 1 1 0 0 1 -.001-1.999m-29 0a1 1 0 1 1 .001 1.999 1 1 0 0 1 -.001-1.999m9 0a1 1 0 1 1 .001 1.999 1 1 0 0 1 -.001-1.999m-29 0a1 1 0 1 1 .001 1.999 1 1 0 0 1 -.001-1.999m10 0a1 1 0 1 1 .001 1.998 1 1 0 0 1 0-1.998m-30.001 0a1 1 0 1 1 .001 1.999 1 1 0 0 1 -.001-1.999m10 0a1 1 0 1 1 .001 1.999 1 1 0 0 1 -.001-1.999m-29 0a1 1 0 1 1 .001 1.999 1 1 0 0 1 -.001-1.999m10 0a1 1 0 1 1 .001 1.998 1 1 0 0 1 0-1.998m-30.001 0a1 1 0 1 1 .001 1.999 1 1 0 0 1 -.001-1.999m10 0a1 1 0 1 1 .001 1.999 1 1 0 0 1 -.001-1.999m-30 0a1 1 0 1 1 .001 1.999 1 1 0 0 1 -.001-1.999m10 0a1 1 0 1 1 0 2 1 1 0 0 1 0-2m-39 0a1 1 0 1 1 .001 1.998 1 1 0 0 1 0-1.998m19.999 0a1 1 0 1 1 .001 1.999 1 1 0 0 1 -.001-1.999m-10 0a1 1 0 1 1 .001 1.999 1 1 0 0 1 -.001-1.999m-30 18a1 1 0 1 1 0 2 1 1 0 0 1 0-2m-10 0a1 1 0 1 1 0 2 1 1 0 0 1 0-2m0 9a1 1 0 1 1 .001 1.999 1 1 0 0 1 -.001-1.999m-10-9a1 1 0 1 1 0 2 1 1 0 0 1 0-2m0 9a1 1 0 1 1 .001 1.999 1 1 0 0 1 -.001-1.999m-10-9a1 1 0 1 1 0 2 1 1 0 0 1 0-2m0 9a1 1 0 1 1 .001 1.999 1 1 0 0 1 -.001-1.999m-9-9a1 1 0 1 1 0 2 1 1 0 0 1 0-2m0 9a1 1 0 1 1 .001 1.999 1 1 0 0 1 -.001-1.999m-10-9a1 1 0 1 1 0 2 1 1 0 0 1 0-2m0 9a1 1 0 1 1 .001 1.999 1 1 0 0 1 -.001-1.999m-10-9a1 1 0 1 1 0 2 1 1 0 0 1 0-2m0 9a1 1 0 1 1 .001 1.999 1 1 0 0 1 -.001-1.999m59-18a1 1 0 1 1 0 2 1 1 0 0 1 0-2m-10 0a1 1 0 1 1 0 2 1 1 0 0 1 0-2m-10 0a1 1 0 1 1 0 2 1 1 0 0 1 0-2m-10 0a1 1 0 1 1 0 2 1 1 0 0 1 0-2m-9 0a1 1 0 1 1 0 2 1 1 0 0 1 0-2m-10 0a1 1 0 1 1 0 2 1 1 0 0 1 0-2m-10 0a1 1 0 1 1 0 2 1 1 0 0 1 0-2m69 9a1 1 0 1 1 0 2 1 1 0 0 1 0-2m0-9a1 1 0 1 1 0 2 1 1 0 0 1 0-2m-10 18a1 1 0 1 1 .001 1.999 1 1 0 0 1 -.001-1.999m10 0a1 1 0 1 1 .001 1.999 1 1 0 0 1 -.001-1.999m474-9a1 1 0 1 1 0 1.999 1 1 0 0 1 0-1.999m0 9a1 1 0 1 1 .001 1.998 1 1 0 0 1 0-1.998m-.001-18a1 1 0 1 1 0 2 1 1 0 0 1 0-2m69 9a1 1 0 1 1 0 2 1 1 0 0 1 0-2m0 9a1 1 0 1 1 0 2 1 1 0 0 1 0-2m-10-9a1 1 0 1 1 0 2 1 1 0 0 1 0-2m0 9a1 1 0 1 1 0 2 1 1 0 0 1 0-2m-10-9a1 1 0 1 1 0 1.999 1 1 0 0 1 0-1.999m0 9a1 1 0 1 1 .001 1.998 1 1 0 0 1 0-1.998m-10.001-9a1 1 0 1 1 0 2 1 1 0 0 1 0-2m0 9a1 1 0 1 1 0 2 1 1 0 0 1 0-2m-9-9a1 1 0 1 1 0 2 1 1 0 0 1 0-2m0 9a1 1 0 1 1 .001 1.999 1 1 0 0 1 -.001-1.999m-10-9a1 1 0 1 1 0 1.999 1 1 0 0 1 0-1.999m0 9a1 1 0 1 1 .001 1.998 1 1 0 0 1 0-1.998m-10.001-9a1 1 0 1 1 0 2 1 1 0 0 1 0-2m0 9a1 1 0 1 1 0 2 1 1 0 0 1 0-2m59-18a1 1 0 1 1 0 2.001 1 1 0 0 1 0-2.001m-10 0a1 1 0 1 1 0 2.001 1 1 0 0 1 0-2.001m-10 0a1 1 0 1 1 0 2 1 1 0 0 1 0-2m-10 0a1 1 0 1 1 0 2.001 1 1 0 0 1 0-2.001m-9 0a1 1 0 1 1 0 2 1 1 0 0 1 0-2m-10 0a1 1 0 1 1 0 2 1 1 0 0 1 0-2m-10 0a1 1 0 1 1 0 2.001 1 1 0 0 1 0-2.001m-30 9a1 1 0 1 1 0 2 1 1 0 0 1 0-2m0 9a1 1 0 1 1 0 2 1 1 0 0 1 0-2m0-18a1 1 0 1 1 0 2.001 1 1 0 0 1 0-2.001m10 9a1 1 0 1 1 0 1.999 1 1 0 0 1 0-1.999m0 9a1 1 0 1 1 .001 1.998 1 1 0 0 1 0-1.998m-.001-18a1 1 0 1 1 0 2 1 1 0 0 1 0-2m-30 9a1 1 0 1 1 0 2 1 1 0 0 1 0-2m0 9a1 1 0 1 1 0 2 1 1 0 0 1 0-2m0-18a1 1 0 1 1 0 2.001 1 1 0 0 1 0-2.001m10 9a1 1 0 1 1 0 1.999 1 1 0 0 1 0-1.999m0 9a1 1 0 1 1 .001 1.998 1 1 0 0 1 0-1.998m-.001-18a1 1 0 1 1 0 2 1 1 0 0 1 0-2m-30 9a1 1 0 1 1 0 1.999 1 1 0 0 1 0-1.999m0 9a1 1 0 1 1 .001 1.998 1 1 0 0 1 0-1.998m-.001-18a1 1 0 1 1 0 2 1 1 0 0 1 0-2m10 9a1 1 0 1 1 0 2 1 1 0 0 1 0-2m0 9a1 1 0 1 1 0 2 1 1 0 0 1 0-2m0-18a1 1 0 1 1 0 2.001 1 1 0 0 1 0-2.001m-30 9a1 1 0 1 1 0 1.999 1 1 0 0 1 0-1.999m0 9a1 1 0 1 1 .001 1.998 1 1 0 0 1 0-1.998m-.001-18a1 1 0 1 1 0 2 1 1 0 0 1 0-2m11 9a1 1 0 1 1 0 2 1 1 0 0 1 0-2m0 9a1 1 0 1 1 0 2 1 1 0 0 1 0-2m0-18a1 1 0 1 1 0 2.001 1 1 0 0 1 0-2.001m-30 9a1 1 0 1 1 0 2 1 1 0 0 1 0-2m0 9a1 1 0 1 1 0 2 1 1 0 0 1 0-2m0-18a1 1 0 1 1 0 2.001 1 1 0 0 1 0-2.001m10 9a1 1 0 1 1 0 1.999 1 1 0 0 1 0-1.999m0 9a1 1 0 1 1 .001 1.998 1 1 0 0 1 0-1.998m-.001-18a1 1 0 1 1 0 2 1 1 0 0 1 0-2m-30 9a1 1 0 1 1 0 2 1 1 0 0 1 0-2m0 9a1 1 0 1 1 0 2 1 1 0 0 1 0-2m0-18a1 1 0 1 1 0 2.001 1 1 0 0 1 0-2.001m10 9a1 1 0 1 1 0 1.999 1 1 0 0 1 0-1.999m0 9a1 1 0 1 1 .001 1.998 1 1 0 0 1 0-1.998m-.001-18a1 1 0 1 1 0 2 1 1 0 0 1 0-2m-30 9a1 1 0 1 1 0 1.999 1 1 0 0 1 0-1.999m0 9a1 1 0 1 1 .001 1.998 1 1 0 0 1 0-1.998m-.001-18a1 1 0 1 1 0 2 1 1 0 0 1 0-2m10 9a1 1 0 1 1 0 2 1 1 0 0 1 0-2m0 9a1 1 0 1 1 0 2 1 1 0 0 1 0-2m0-18a1 1 0 1 1 0 2.001 1 1 0 0 1 0-2.001m-30 9a1 1 0 1 1 0 2 1 1 0 0 1 0-2m0 9a1 1 0 1 1 .001 1.999 1 1 0 0 1 -.001-1.999m0-18a1 1 0 1 1 0 2 1 1 0 0 1 0-2m10 9a1 1 0 1 1 0 2 1 1 0 0 1 0-2m0 9a1 1 0 1 1 0 2 1 1 0 0 1 0-2m0-18a1 1 0 1 1 0 2.001 1 1 0 0 1 0-2.001m-30 9a1 1 0 1 1 0 2 1 1 0 0 1 0-2m0 9a1 1 0 1 1 0 2 1 1 0 0 1 0-2m0-18a1 1 0 1 1 0 2.001 1 1 0 0 1 0-2.001m10 9a1 1 0 1 1 0 1.999 1 1 0 0 1 0-1.999m0 9a1 1 0 1 1 .001 1.998 1 1 0 0 1 0-1.998m-.001-18a1 1 0 1 1 0 2 1 1 0 0 1 0-2m-30 9a1 1 0 1 1 0 1.999 1 1 0 0 1 0-1.999m0 9a1 1 0 1 1 .001 1.998 1 1 0 0 1 0-1.998m-.001-18a1 1 0 1 1 0 2 1 1 0 0 1 0-2m11 9a1 1 0 1 1 0 2 1 1 0 0 1 0-2m0 9a1 1 0 1 1 .001 1.999 1 1 0 0 1 -.001-1.999m0-18a1 1 0 1 1 0 2 1 1 0 0 1 0-2m-30 9a1 1 0 1 1 0 1.999 1 1 0 0 1 0-1.999m0 9a1 1 0 1 1 .001 1.998 1 1 0 0 1 0-1.998m-.001-18a1 1 0 1 1 0 2 1 1 0 0 1 0-2m10 9a1 1 0 1 1 0 2 1 1 0 0 1 0-2m0 9a1 1 0 1 1 0 2 1 1 0 0 1 0-2m0-18a1 1 0 1 1 0 2.001 1 1 0 0 1 0-2.001m-30 9a1 1 0 1 1 0 2 1 1 0 0 1 0-2m0 9a1 1 0 1 1 .001 1.999 1 1 0 0 1 -.001-1.999m0-18a1 1 0 1 1 0 2 1 1 0 0 1 0-2m10 9a1 1 0 1 1 0 2 1 1 0 0 1 0-2m0 9a1 1 0 1 1 .001 1.999 1 1 0 0 1 -.001-1.999m0-18a1 1 0 1 1 0 2 1 1 0 0 1 0-2m-30 9a1 1 0 1 1 0 2 1 1 0 0 1 0-2m0 9a1 1 0 1 1 .001 1.999 1 1 0 0 1 -.001-1.999m0-18a1 1 0 1 1 0 2 1 1 0 0 1 0-2m10 9a1 1 0 1 1 0 2 1 1 0 0 1 0-2m0 9a1 1 0 1 1 0 2 1 1 0 0 1 0-2m0-18a1 1 0 1 1 0 2.001 1 1 0 0 1 0-2.001m-30 9a1 1 0 1 1 0 2 1 1 0 0 1 0-2m0 9a1 1 0 1 1 .001 1.999 1 1 0 0 1 -.001-1.999m0-18a1 1 0 1 1 0 2 1 1 0 0 1 0-2m10 9a1 1 0 1 1 0 2 1 1 0 0 1 0-2m0 9a1 1 0 1 1 .001 1.999 1 1 0 0 1 -.001-1.999m.205 8.813a1.093 1.093 0 1 1 0 2.187 1.093 1.093 0 0 1 0-2.187m-.205-26.813a1 1 0 1 1 0 2 1 1 0 0 1 0-2m-30 9a1 1 0 1 1 0 2 1 1 0 0 1 0-2m0 9a1 1 0 1 1 .001 1.999 1 1 0 0 1 -.001-1.999m0-18a1 1 0 1 1 0 2 1 1 0 0 1 0-2m10 9a1 1 0 1 1 0 2 1 1 0 0 1 0-2m0 9a1 1 0 1 1 .001 1.999 1 1 0 0 1 -.001-1.999m0-18a1 1 0 1 1 0 2 1 1 0 0 1 0-2m-30 9a1 1 0 1 1 0 2 1 1 0 0 1 0-2m0 9a1 1 0 1 1 .001 1.999 1 1 0 0 1 -.001-1.999m0-18a1 1 0 1 1 0 2 1 1 0 0 1 0-2m11 9a1 1 0 1 1 0 2 1 1 0 0 1 0-2m0 9a1 1 0 1 1 .001 1.999 1 1 0 0 1 -.001-1.999m0-18a1 1 0 1 1 0 2 1 1 0 0 1 0-2m-29 9a1 1 0 1 1 0 2 1 1 0 0 1 0-2m0 9a1 1 0 1 1 .001 1.999 1 1 0 0 1 -.001-1.999m0-18a1 1 0 1 1 0 2 1 1 0 0 1 0-2m9 9a1 1 0 1 1 0 2 1 1 0 0 1 0-2m0 9a1 1 0 1 1 .001 1.999 1 1 0 0 1 -.001-1.999m0-18a1 1 0 1 1 0 2 1 1 0 0 1 0-2m-29 9a1 1 0 1 1 0 2 1 1 0 0 1 0-2m0 9a1 1 0 1 1 .001 1.999 1 1 0 0 1 -.001-1.999m0-18a1 1 0 1 1 0 2 1 1 0 0 1 0-2m10 9a1 1 0 1 1 0 1.999 1 1 0 0 1 0-1.999m0 9a1 1 0 1 1 .001 1.998 1 1 0 0 1 0-1.998m-.001-18a1 1 0 1 1 0 2 1 1 0 0 1 0-2m-30 9a1 1 0 1 1 0 2 1 1 0 0 1 0-2m0 9a1 1 0 1 1 .001 1.999 1 1 0 0 1 -.001-1.999m0-18a1 1 0 1 1 0 2 1 1 0 0 1 0-2m10 9a1 1 0 1 1 0 2 1 1 0 0 1 0-2m0 9a1 1 0 1 1 .001 1.999 1 1 0 0 1 -.001-1.999m0-18a1 1 0 1 1 0 2 1 1 0 0 1 0-2m-29 9a1 1 0 1 1 0 2 1 1 0 0 1 0-2m0 9a1 1 0 1 1 .001 1.999 1 1 0 0 1 -.001-1.999m0-18a1 1 0 1 1 0 2 1 1 0 0 1 0-2m10 9a1 1 0 1 1 0 1.999 1 1 0 0 1 0-1.999m0 9a1 1 0 1 1 .001 1.998 1 1 0 0 1 0-1.998m-.001-18a1 1 0 1 1 0 2 1 1 0 0 1 0-2m-30 9a1 1 0 1 1 0 2 1 1 0 0 1 0-2m0 9a1 1 0 1 1 .001 1.999 1 1 0 0 1 -.001-1.999m0-18a1 1 0 1 1 0 2 1 1 0 0 1 0-2m10 9a1 1 0 1 1 0 2 1 1 0 0 1 0-2m0 9a1 1 0 1 1 .001 1.999 1 1 0 0 1 -.001-1.999m0-18a1 1 0 1 1 0 2 1 1 0 0 1 0-2m-30 9a1 1 0 1 1 0 2 1 1 0 0 1 0-2m0 9a1 1 0 1 1 .001 1.999 1 1 0 0 1 -.001-1.999m0-18a1 1 0 1 1 0 2 1 1 0 0 1 0-2m10 9a1 1 0 1 1 0 2 1 1 0 0 1 0-2m0 9a1 1 0 1 1 0 2 1 1 0 0 1 0-2m0-18a1 1 0 1 1 0 2.001 1 1 0 0 1 0-2.001m-39 9a1 1 0 1 1 0 1.999 1 1 0 0 1 0-1.999m0 9a1 1 0 1 1 .001 1.998 1 1 0 0 1 0-1.998m-.001-18a1 1 0 1 1 0 2 1 1 0 0 1 0-2m20 9a1 1 0 1 1 0 2 1 1 0 0 1 0-2m0 9a1 1 0 1 1 .001 1.999 1 1 0 0 1 -.001-1.999m0-18a1 1 0 1 1 0 2 1 1 0 0 1 0-2m-10 9a1 1 0 1 1 0 2 1 1 0 0 1 0-2m0 9a1 1 0 1 1 .001 1.999 1 1 0 0 1 -.001-1.999m-39.934 8.813a1.093 1.093 0 1 1 -.001 2.187 1.093 1.093 0 0 1 0-2.187m-9.902 0a1.093 1.093 0 1 1 0 2.187 1.093 1.093 0 0 1 0-2.187m-9.903 0a1.093 1.093 0 1 1 0 2.187 1.093 1.093 0 0 1 0-2.187m-9.361 0a1.093 1.093 0 1 1 -.001 2.187 1.093 1.093 0 0 1 0-2.187m-9.902 0a1.093 1.093 0 1 1 -.001 2.187 1.093 1.093 0 0 1 0-2.187m-9.902 0a1.093 1.093 0 1 1 0 2.187 1.093 1.093 0 0 1 0-2.187m58.875 0a1.093 1.093 0 1 1 0 2.187 1.093 1.093 0 0 1 0-2.187m10.174 0a1.093 1.093 0 1 1 -.002 2.187 1.093 1.093 0 0 1 0-2.187m473.168 0a1.093 1.093 0 1 1 -.001 2.187 1.093 1.093 0 0 1 0-2.187m69.049 0a1.094 1.094 0 1 1 0 2.189 1.094 1.094 0 0 1 0-2.189m-9.903 0a1.094 1.094 0 1 1 0 2.189 1.094 1.094 0 0 1 0-2.189m-9.903 0a1.093 1.093 0 1 1 0 2.187 1.093 1.093 0 0 1 0-2.187m-9.902 0a1.094 1.094 0 1 1 0 2.189 1.094 1.094 0 0 1 0-2.189m-8.362 0a1.093 1.093 0 1 1 0 2.187 1.093 1.093 0 0 1 0-2.187m-10.902 0a1.093 1.093 0 1 1 0 2.187 1.093 1.093 0 0 1 0-2.187m-9.904 0a1.094 1.094 0 1 1 0 2.189 1.094 1.094 0 0 1 0-2.189m68.52-35.813a1 1 0 1 1 0 2 1 1 0 0 1 0-2m0 18a1 1 0 1 1 0 2 1 1 0 0 1 0-2m0 9a1 1 0 1 1 0 2 1 1 0 0 1 0-2m0-18a1 1 0 1 1 0 2.001 1 1 0 0 1 0-2.001m.118 26.813a1.094 1.094 0 1 1 0 2.189 1.094 1.094 0 0 1 0-2.189m-98.616 0a1.094 1.094 0 1 1 0 2.189 1.094 1.094 0 0 1 0-2.189m10.174 0a1.093 1.093 0 1 1 0 2.187 1.093 1.093 0 0 1 0-2.187m-29.98 0a1.094 1.094 0 1 1 0 2.189 1.094 1.094 0 0 1 0-2.189m10.174 0a1.093 1.093 0 1 1 0 2.187 1.093 1.093 0 0 1 0-2.187m-29.978 0a1.093 1.093 0 1 1 -.001 2.187 1.093 1.093 0 0 1 0-2.187m10.173 0a1.094 1.094 0 1 1 0 2.189 1.094 1.094 0 0 1 0-2.189m-29.978 0a1.093 1.093 0 1 1 0 2.187 1.093 1.093 0 0 1 0-2.187m10.173 0a1.094 1.094 0 1 1 0 2.189 1.094 1.094 0 0 1 0-2.189m-29.979 0a1.094 1.094 0 1 1 0 2.189 1.094 1.094 0 0 1 0-2.189m10.174 0a1.093 1.093 0 1 1 0 2.187 1.093 1.093 0 0 1 0-2.187m-29.979 0a1.094 1.094 0 1 1 0 2.189 1.094 1.094 0 0 1 0-2.189m10.174 0a1.093 1.093 0 1 1 -.001 2.187 1.093 1.093 0 0 1 0-2.187m-29.978 0a1.093 1.093 0 1 1 0 2.187 1.093 1.093 0 0 1 0-2.187m10.173 0a1.094 1.094 0 1 1 0 2.189 1.094 1.094 0 0 1 0-2.189m-29.979 0a1.093 1.093 0 1 1 0 2.187 1.093 1.093 0 0 1 0-2.187m10.173 0a1.094 1.094 0 1 1 0 2.189 1.094 1.094 0 0 1 0-2.189m-29.978 0a1.094 1.094 0 1 1 0 2.189 1.094 1.094 0 0 1 0-2.189m10.174 0a1.093 1.093 0 1 1 -.001 2.187 1.093 1.093 0 0 1 0-2.187m-29.978 0a1.093 1.093 0 1 1 0 2.187 1.093 1.093 0 0 1 0-2.187m10.173 0a1.093 1.093 0 1 1 -.001 2.187 1.093 1.093 0 0 1 0-2.187m-29.978 0a1.093 1.093 0 1 1 0 2.187 1.093 1.093 0 0 1 0-2.187m10.173 0a1.094 1.094 0 1 1 0 2.189 1.094 1.094 0 0 1 0-2.189m-29.978 0a1.093 1.093 0 1 1 -.001 2.187 1.093 1.093 0 0 1 0-2.187m10.174 0a1.093 1.093 0 1 1 0 2.187 1.093 1.093 0 0 1 0-2.187m-29.979 0a1.093 1.093 0 1 1 0 2.187 1.093 1.093 0 0 1 0-2.187m10.173 0a1.094 1.094 0 1 1 0 2.189 1.094 1.094 0 0 1 0-2.189m-29.978 0a1.093 1.093 0 1 1 -.002 2.187 1.093 1.093 0 0 1 0-2.187m-19.803 0a1.093 1.093 0 1 1 -.001 2.187 1.093 1.093 0 0 1 0-2.187m10.174 0a1.093 1.093 0 1 1 0 2.187 1.093 1.093 0 0 1 0-2.187m-29.979 0a1.093 1.093 0 1 1 0 2.187 1.093 1.093 0 0 1 0-2.187m10.173 0a1.093 1.093 0 1 1 0 2.187 1.093 1.093 0 0 1 0-2.187m-28.356 0a1.093 1.093 0 1 1 0 2.187 1.093 1.093 0 0 1 0-2.187m8.552 0a1.093 1.093 0 1 1 -.002 2.187 1.093 1.093 0 0 1 .001-2.187m-28.626 0a1.093 1.093 0 1 1 -.001 2.187 1.093 1.093 0 0 1 0-2.187m9.903 0a1.093 1.093 0 1 1 0 2.187 1.093 1.093 0 0 1 0-2.187m-29.708 0a1.093 1.093 0 1 1 0 2.187 1.093 1.093 0 0 1 0-2.187m9.903 0a1.093 1.093 0 1 1 0 2.187 1.093 1.093 0 0 1 0-2.187m-29.167 0a1.093 1.093 0 1 1 0 2.187 1.093 1.093 0 0 1 0-2.187m9.903 0a1.093 1.093 0 1 1 -.001 2.187 1.093 1.093 0 0 1 0-2.187m-29.978 0a1.093 1.093 0 1 1 -.001 2.187 1.093 1.093 0 0 1 0-2.187m10.174 0a1.093 1.093 0 1 1 0 2.187 1.093 1.093 0 0 1 0-2.187m-29.978 0a1.093 1.093 0 1 1 -.002 2.187 1.093 1.093 0 0 1 0-2.187m9.904 0a1.094 1.094 0 1 1 0 2.189 1.094 1.094 0 0 1 0-2.189m-39.34 0a1.093 1.093 0 1 1 0 2.187 1.093 1.093 0 0 1 0-2.187m20.091 0a1.093 1.093 0 1 1 0 2.187 1.093 1.093 0 0 1 0-2.187m-10.189 0a1.093 1.093 0 1 1 0 2.187 1.093 1.093 0 0 1 0-2.187m.324-26.813a1 1 0 1 1 0 2 1 1 0 0 1 0-2"/><path d="m50 202a1 1 0 1 1 .001 1.999 1 1 0 0 1 -.001-1.999m-10 0a1 1 0 1 1 .001 1.999 1 1 0 0 1 -.001-1.999m-10 0a1 1 0 1 1 .001 1.999 1 1 0 0 1 -.001-1.999m-9 0a1 1 0 1 1 .001 1.999 1 1 0 0 1 -.001-1.999m-10 0a1 1 0 1 1 .001 1.999 1 1 0 0 1 -.001-1.999m-10 0a1 1 0 1 1 .001 1.999 1 1 0 0 1 -.001-1.999m59 0a1 1 0 1 1 .001 1.999 1 1 0 0 1 -.001-1.999m10 0a1 1 0 1 1 .001 1.999 1 1 0 0 1 -.001-1.999m474 0a1 1 0 1 1 .001 1.998 1 1 0 0 1 0-1.998m68.999 0a1 1 0 1 1 0 2 1 1 0 0 1 0-2m-10 0a1 1 0 1 1 0 2 1 1 0 0 1 0-2m-10 0a1 1 0 1 1 .001 1.998 1 1 0 0 1 0-1.998m-10.001 0a1 1 0 1 1 0 2 1 1 0 0 1 0-2m-9 0a1 1 0 1 1 .001 1.999 1 1 0 0 1 -.001-1.999m-10 0a1 1 0 1 1 .001 1.998 1 1 0 0 1 0-1.998m-10.001 0a1 1 0 1 1 0 2 1 1 0 0 1 0-2m80 0a1 1 0 1 1 .001 1.998 1 1 0 0 1 0-1.998m-10.001 0a1 1 0 1 1 0 2 1 1 0 0 1 0-2m-100 0a1 1 0 1 1 0 2 1 1 0 0 1 0-2m10 0a1 1 0 1 1 .001 1.998 1 1 0 0 1 0-1.998m-30.001 0a1 1 0 1 1 0 2 1 1 0 0 1 0-2m10 0a1 1 0 1 1 .001 1.998 1 1 0 0 1 0-1.998m-30.001 0a1 1 0 1 1 .001 1.998 1 1 0 0 1 0-1.998m9.999 0a1 1 0 1 1 0 2 1 1 0 0 1 0-2m-30 0a1 1 0 1 1 .001 1.998 1 1 0 0 1 0-1.998m10.999 0a1 1 0 1 1 0 2 1 1 0 0 1 0-2m-30 0a1 1 0 1 1 0 2 1 1 0 0 1 0-2m10 0a1 1 0 1 1 .001 1.998 1 1 0 0 1 0-1.998m-30.001 0a1 1 0 1 1 0 2 1 1 0 0 1 0-2m10 0a1 1 0 1 1 .001 1.998 1 1 0 0 1 0-1.998m-30.001 0a1 1 0 1 1 .001 1.998 1 1 0 0 1 0-1.998m9.999 0a1 1 0 1 1 0 2 1 1 0 0 1 0-2m-30 0a1 1 0 1 1 .001 1.999 1 1 0 0 1 -.001-1.999m10 0a1 1 0 1 1 0 2 1 1 0 0 1 0-2m-30 0a1 1 0 1 1 0 2 1 1 0 0 1 0-2m10 0a1 1 0 1 1 .001 1.998 1 1 0 0 1 0-1.998m-30.001 0a1 1 0 1 1 .001 1.998 1 1 0 0 1 0-1.998m10.999 0a1 1 0 1 1 .001 1.999 1 1 0 0 1 -.001-1.999m-30 0a1 1 0 1 1 .001 1.998 1 1 0 0 1 0-1.998m9.999 0a1 1 0 1 1 0 2 1 1 0 0 1 0-2m-30 0a1 1 0 1 1 .001 1.999 1 1 0 0 1 -.001-1.999m10 0a1 1 0 1 1 .001 1.999 1 1 0 0 1 -.001-1.999m-30 0a1 1 0 1 1 .001 1.999 1 1 0 0 1 -.001-1.999m10 0a1 1 0 1 1 0 2 1 1 0 0 1 0-2m-30 0a1 1 0 1 1 .001 1.999 1 1 0 0 1 -.001-1.999m10 0a1 1 0 1 1 .001 1.999 1 1 0 0 1 -.001-1.999m-30 0a1 1 0 1 1 .001 1.999 1 1 0 0 1 -.001-1.999m10 0a1 1 0 1 1 .001 1.999 1 1 0 0 1 -.001-1.999m-30 0a1 1 0 1 1 .001 1.999 1 1 0 0 1 -.001-1.999m11 0a1 1 0 1 1 .001 1.999 1 1 0 0 1 -.001-1.999m-29 0a1 1 0 1 1 .001 1.999 1 1 0 0 1 -.001-1.999m9 0a1 1 0 1 1 .001 1.999 1 1 0 0 1 -.001-1.999m-29 0a1 1 0 1 1 .001 1.999 1 1 0 0 1 -.001-1.999m10 0a1 1 0 1 1 .001 1.998 1 1 0 0 1 0-1.998m-30.001 0a1 1 0 1 1 .001 1.999 1 1 0 0 1 -.001-1.999m10 0a1 1 0 1 1 .001 1.999 1 1 0 0 1 -.001-1.999m-29 0a1 1 0 1 1 .001 1.999 1 1 0 0 1 -.001-1.999m10 0a1 1 0 1 1 .001 1.998 1 1 0 0 1 0-1.998m-30.001 0a1 1 0 1 1 .001 1.999 1 1 0 0 1 -.001-1.999m10 0a1 1 0 1 1 .001 1.999 1 1 0 0 1 -.001-1.999m-30 0a1 1 0 1 1 .001 1.999 1 1 0 0 1 -.001-1.999m10 0a1 1 0 1 1 0 2 1 1 0 0 1 0-2m-39 0a1 1 0 1 1 .001 1.998 1 1 0 0 1 0-1.998m19.999 0a1 1 0 1 1 .001 1.999 1 1 0 0 1 -.001-1.999m-10 0a1 1 0 1 1 .001 1.999 1 1 0 0 1 -.001-1.999m-30 18a1 1 0 1 1 0 2 1 1 0 0 1 0-2m-10 0a1 1 0 1 1 0 2 1 1 0 0 1 0-2m0 9a1 1 0 1 1 .001 1.999 1 1 0 0 1 -.001-1.999m-10-9a1 1 0 1 1 0 2 1 1 0 0 1 0-2m0 9a1 1 0 1 1 .001 1.999 1 1 0 0 1 -.001-1.999m-10-9a1 1 0 1 1 0 2 1 1 0 0 1 0-2m0 9a1 1 0 1 1 .001 1.999 1 1 0 0 1 -.001-1.999m-9-9a1 1 0 1 1 0 2 1 1 0 0 1 0-2m0 9a1 1 0 1 1 .001 1.999 1 1 0 0 1 -.001-1.999m-10-9a1 1 0 1 1 0 2 1 1 0 0 1 0-2m0 9a1 1 0 1 1 .001 1.999 1 1 0 0 1 -.001-1.999m-10-9a1 1 0 1 1 0 2 1 1 0 0 1 0-2m0 9a1 1 0 1 1 .001 1.999 1 1 0 0 1 -.001-1.999m59-18a1 1 0 1 1 0 2 1 1 0 0 1 0-2m-10 0a1 1 0 1 1 0 2 1 1 0 0 1 0-2m-10 0a1 1 0 1 1 0 2 1 1 0 0 1 0-2m-10 0a1 1 0 1 1 0 2 1 1 0 0 1 0-2m-9 0a1 1 0 1 1 0 2 1 1 0 0 1 0-2m-10 0a1 1 0 1 1 0 2 1 1 0 0 1 0-2m-10 0a1 1 0 1 1 0 2 1 1 0 0 1 0-2m69 9a1 1 0 1 1 0 2 1 1 0 0 1 0-2m0-9a1 1 0 1 1 0 2 1 1 0 0 1 0-2m-10 18a1 1 0 1 1 .001 1.999 1 1 0 0 1 -.001-1.999m10 0a1 1 0 1 1 .001 1.999 1 1 0 0 1 -.001-1.999m474-9a1 1 0 1 1 0 1.999 1 1 0 0 1 0-1.999m0 9a1 1 0 1 1 .001 1.998 1 1 0 0 1 0-1.998m-.001-18a1 1 0 1 1 0 2 1 1 0 0 1 0-2m69 9a1 1 0 1 1 0 2 1 1 0 0 1 0-2m0 9a1 1 0 1 1 0 2 1 1 0 0 1 0-2m-10-9a1 1 0 1 1 0 2 1 1 0 0 1 0-2m0 9a1 1 0 1 1 0 2 1 1 0 0 1 0-2m-10-9a1 1 0 1 1 0 1.999 1 1 0 0 1 0-1.999m0 9a1 1 0 1 1 .001 1.998 1 1 0 0 1 0-1.998m-10.001-9a1 1 0 1 1 0 2 1 1 0 0 1 0-2m0 9a1 1 0 1 1 0 2 1 1 0 0 1 0-2m-9-9a1 1 0 1 1 0 2 1 1 0 0 1 0-2m0 9a1 1 0 1 1 .001 1.999 1 1 0 0 1 -.001-1.999m-10-9a1 1 0 1 1 0 1.999 1 1 0 0 1 0-1.999m0 9a1 1 0 1 1 .001 1.998 1 1 0 0 1 0-1.998m-10.001-9a1 1 0 1 1 0 2 1 1 0 0 1 0-2m0 9a1 1 0 1 1 0 2 1 1 0 0 1 0-2m59-18a1 1 0 1 1 0 2.001 1 1 0 0 1 0-2.001m-10 0a1 1 0 1 1 0 2.001 1 1 0 0 1 0-2.001m31 9a1 1 0 1 1 0 1.999 1 1 0 0 1 0-1.999m0 9a1 1 0 1 1 .001 1.998 1 1 0 0 1 0-1.998m-10.001-9a1 1 0 1 1 0 2 1 1 0 0 1 0-2m0 9a1 1 0 1 1 0 2 1 1 0 0 1 0-2m10-18a1 1 0 1 1 0 2 1 1 0 0 1 0-2m-10 0a1 1 0 1 1 0 2.001 1 1 0 0 1 0-2.001m-31 0a1 1 0 1 1 0 2 1 1 0 0 1 0-2m-10 0a1 1 0 1 1 0 2.001 1 1 0 0 1 0-2.001m-9 0a1 1 0 1 1 0 2 1 1 0 0 1 0-2m-10 0a1 1 0 1 1 0 2 1 1 0 0 1 0-2m-10 0a1 1 0 1 1 0 2.001 1 1 0 0 1 0-2.001m-30 9a1 1 0 1 1 0 2 1 1 0 0 1 0-2m0 9a1 1 0 1 1 0 2 1 1 0 0 1 0-2m0-18a1 1 0 1 1 0 2.001 1 1 0 0 1 0-2.001m10 9a1 1 0 1 1 0 1.999 1 1 0 0 1 0-1.999m0 9a1 1 0 1 1 .001 1.998 1 1 0 0 1 0-1.998m-.001-18a1 1 0 1 1 0 2 1 1 0 0 1 0-2m-30 9a1 1 0 1 1 0 2 1 1 0 0 1 0-2m0 9a1 1 0 1 1 0 2 1 1 0 0 1 0-2m0-18a1 1 0 1 1 0 2.001 1 1 0 0 1 0-2.001m10 9a1 1 0 1 1 0 1.999 1 1 0 0 1 0-1.999m0 9a1 1 0 1 1 .001 1.998 1 1 0 0 1 0-1.998m-.001-18a1 1 0 1 1 0 2 1 1 0 0 1 0-2m-30 9a1 1 0 1 1 0 1.999 1 1 0 0 1 0-1.999m0 9a1 1 0 1 1 .001 1.998 1 1 0 0 1 0-1.998m-.001-18a1 1 0 1 1 0 2 1 1 0 0 1 0-2m10 9a1 1 0 1 1 0 2 1 1 0 0 1 0-2m0 9a1 1 0 1 1 0 2 1 1 0 0 1 0-2m0-18a1 1 0 1 1 0 2.001 1 1 0 0 1 0-2.001m-30 9a1 1 0 1 1 0 1.999 1 1 0 0 1 0-1.999m0 9a1 1 0 1 1 .001 1.998 1 1 0 0 1 0-1.998m-.001-18a1 1 0 1 1 0 2 1 1 0 0 1 0-2m11 9a1 1 0 1 1 0 2 1 1 0 0 1 0-2m0 9a1 1 0 1 1 0 2 1 1 0 0 1 0-2m0-18a1 1 0 1 1 0 2.001 1 1 0 0 1 0-2.001m-30 9a1 1 0 1 1 0 2 1 1 0 0 1 0-2m0 9a1 1 0 1 1 0 2 1 1 0 0 1 0-2m0-18a1 1 0 1 1 0 2.001 1 1 0 0 1 0-2.001m10 9a1 1 0 1 1 0 1.999 1 1 0 0 1 0-1.999m0 9a1 1 0 1 1 .001 1.998 1 1 0 0 1 0-1.998m-.001-18a1 1 0 1 1 0 2 1 1 0 0 1 0-2m-30 9a1 1 0 1 1 0 2 1 1 0 0 1 0-2m0 9a1 1 0 1 1 0 2 1 1 0 0 1 0-2m0-18a1 1 0 1 1 0 2.001 1 1 0 0 1 0-2.001m10 9a1 1 0 1 1 0 1.999 1 1 0 0 1 0-1.999m0 9a1 1 0 1 1 .001 1.998 1 1 0 0 1 0-1.998m-.001-18a1 1 0 1 1 0 2 1 1 0 0 1 0-2m-30 9a1 1 0 1 1 0 1.999 1 1 0 0 1 0-1.999m0 9a1 1 0 1 1 .001 1.998 1 1 0 0 1 0-1.998m-.001-18a1 1 0 1 1 0 2 1 1 0 0 1 0-2m10 9a1 1 0 1 1 0 2 1 1 0 0 1 0-2m0 9a1 1 0 1 1 0 2 1 1 0 0 1 0-2m0-18a1 1 0 1 1 0 2.001 1 1 0 0 1 0-2.001m-30 9a1 1 0 1 1 0 2 1 1 0 0 1 0-2m0 9a1 1 0 1 1 .001 1.999 1 1 0 0 1 -.001-1.999m0-18a1 1 0 1 1 0 2 1 1 0 0 1 0-2m10 9a1 1 0 1 1 0 2 1 1 0 0 1 0-2m0 9a1 1 0 1 1 0 2 1 1 0 0 1 0-2m0-18a1 1 0 1 1 0 2.001 1 1 0 0 1 0-2.001m-30 9a1 1 0 1 1 0 2 1 1 0 0 1 0-2m0 9a1 1 0 1 1 0 2 1 1 0 0 1 0-2m0-18a1 1 0 1 1 0 2.001 1 1 0 0 1 0-2.001m10 9a1 1 0 1 1 0 1.999 1 1 0 0 1 0-1.999m0 9a1 1 0 1 1 .001 1.998 1 1 0 0 1 0-1.998m-.001-18a1 1 0 1 1 0 2 1 1 0 0 1 0-2m-30 9a1 1 0 1 1 0 1.999 1 1 0 0 1 0-1.999m0 9a1 1 0 1 1 .001 1.998 1 1 0 0 1 0-1.998m-.001-18a1 1 0 1 1 0 2 1 1 0 0 1 0-2m11 9a1 1 0 1 1 0 2 1 1 0 0 1 0-2m0 9a1 1 0 1 1 .001 1.999 1 1 0 0 1 -.001-1.999m0-18a1 1 0 1 1 0 2 1 1 0 0 1 0-2m-30 9a1 1 0 1 1 0 1.999 1 1 0 0 1 0-1.999m0 9a1 1 0 1 1 .001 1.998 1 1 0 0 1 0-1.998m-.001-18a1 1 0 1 1 0 2 1 1 0 0 1 0-2m10 9a1 1 0 1 1 0 2 1 1 0 0 1 0-2m0 9a1 1 0 1 1 0 2 1 1 0 0 1 0-2m0-18a1 1 0 1 1 0 2.001 1 1 0 0 1 0-2.001m-30 9a1 1 0 1 1 0 2 1 1 0 0 1 0-2m0 9a1 1 0 1 1 .001 1.999 1 1 0 0 1 -.001-1.999m0-18a1 1 0 1 1 0 2 1 1 0 0 1 0-2m10 9a1 1 0 1 1 0 2 1 1 0 0 1 0-2m0 9a1 1 0 1 1 .001 1.999 1 1 0 0 1 -.001-1.999m0-18a1 1 0 1 1 0 2 1 1 0 0 1 0-2m-30 9a1 1 0 1 1 0 2 1 1 0 0 1 0-2m0 9a1 1 0 1 1 .001 1.999 1 1 0 0 1 -.001-1.999m0-18a1 1 0 1 1 0 2 1 1 0 0 1 0-2m10 9a1 1 0 1 1 0 2 1 1 0 0 1 0-2m0 9a1 1 0 1 1 0 2 1 1 0 0 1 0-2m0-18a1 1 0 1 1 0 2.001 1 1 0 0 1 0-2.001m-30 9a1 1 0 1 1 0 2 1 1 0 0 1 0-2m0 9a1 1 0 1 1 .001 1.999 1 1 0 0 1 -.001-1.999m0-18a1 1 0 1 1 0 2 1 1 0 0 1 0-2m10 9a1 1 0 1 1 0 2 1 1 0 0 1 0-2m0 9a1 1 0 1 1 .001 1.999 1 1 0 0 1 -.001-1.999m.205 8.813a1.093 1.093 0 1 1 0 2.187 1.093 1.093 0 0 1 0-2.187m-.205-26.813a1 1 0 1 1 0 2 1 1 0 0 1 0-2m-30 9a1 1 0 1 1 0 2 1 1 0 0 1 0-2m0 9a1 1 0 1 1 .001 1.999 1 1 0 0 1 -.001-1.999m0-18a1 1 0 1 1 0 2 1 1 0 0 1 0-2m10 9a1 1 0 1 1 0 2 1 1 0 0 1 0-2m0 9a1 1 0 1 1 .001 1.999 1 1 0 0 1 -.001-1.999m0-18a1 1 0 1 1 0 2 1 1 0 0 1 0-2m-30 9a1 1 0 1 1 0 2 1 1 0 0 1 0-2m0 9a1 1 0 1 1 .001 1.999 1 1 0 0 1 -.001-1.999m0-18a1 1 0 1 1 0 2 1 1 0 0 1 0-2m11 9a1 1 0 1 1 0 2 1 1 0 0 1 0-2m0 9a1 1 0 1 1 .001 1.999 1 1 0 0 1 -.001-1.999m0-18a1 1 0 1 1 0 2 1 1 0 0 1 0-2m-29 9a1 1 0 1 1 0 2 1 1 0 0 1 0-2m0 9a1 1 0 1 1 .001 1.999 1 1 0 0 1 -.001-1.999m0-18a1 1 0 1 1 0 2 1 1 0 0 1 0-2m9 9a1 1 0 1 1 0 2 1 1 0 0 1 0-2m0 9a1 1 0 1 1 .001 1.999 1 1 0 0 1 -.001-1.999m0-18a1 1 0 1 1 0 2 1 1 0 0 1 0-2m-29 9a1 1 0 1 1 0 2 1 1 0 0 1 0-2m0 9a1 1 0 1 1 .001 1.999 1 1 0 0 1 -.001-1.999m0-18a1 1 0 1 1 0 2 1 1 0 0 1 0-2m10 9a1 1 0 1 1 0 1.999 1 1 0 0 1 0-1.999m0 9a1 1 0 1 1 .001 1.998 1 1 0 0 1 0-1.998m-.001-18a1 1 0 1 1 0 2 1 1 0 0 1 0-2m-30 9a1 1 0 1 1 0 2 1 1 0 0 1 0-2m0 9a1 1 0 1 1 .001 1.999 1 1 0 0 1 -.001-1.999m0-18a1 1 0 1 1 0 2 1 1 0 0 1 0-2m10 9a1 1 0 1 1 0 2 1 1 0 0 1 0-2m0 9a1 1 0 1 1 .001 1.999 1 1 0 0 1 -.001-1.999m0-18a1 1 0 1 1 0 2 1 1 0 0 1 0-2m-29 9a1 1 0 1 1 0 2 1 1 0 0 1 0-2m0 9a1 1 0 1 1 .001 1.999 1 1 0 0 1 -.001-1.999m0-18a1 1 0 1 1 0 2 1 1 0 0 1 0-2m10 9a1 1 0 1 1 0 1.999 1 1 0 0 1 0-1.999m0 9a1 1 0 1 1 .001 1.998 1 1 0 0 1 0-1.998m-.001-18a1 1 0 1 1 0 2 1 1 0 0 1 0-2m-30 9a1 1 0 1 1 0 2 1 1 0 0 1 0-2m0 9a1 1 0 1 1 .001 1.999 1 1 0 0 1 -.001-1.999m0-18a1 1 0 1 1 0 2 1 1 0 0 1 0-2m10 9a1 1 0 1 1 0 2 1 1 0 0 1 0-2m0 9a1 1 0 1 1 .001 1.999 1 1 0 0 1 -.001-1.999m0-18a1 1 0 1 1 0 2 1 1 0 0 1 0-2m-30 9a1 1 0 1 1 0 2 1 1 0 0 1 0-2m0 9a1 1 0 1 1 .001 1.999 1 1 0 0 1 -.001-1.999m0-18a1 1 0 1 1 0 2 1 1 0 0 1 0-2m10 9a1 1 0 1 1 0 2 1 1 0 0 1 0-2m0 9a1 1 0 1 1 0 2 1 1 0 0 1 0-2m0-18a1 1 0 1 1 0 2.001 1 1 0 0 1 0-2.001m-39 9a1 1 0 1 1 0 1.999 1 1 0 0 1 0-1.999m0 9a1 1 0 1 1 .001 1.998 1 1 0 0 1 0-1.998m-.001-18a1 1 0 1 1 0 2 1 1 0 0 1 0-2m20 9a1 1 0 1 1 0 2 1 1 0 0 1 0-2m0 9a1 1 0 1 1 .001 1.999 1 1 0 0 1 -.001-1.999m-49.934 8.813a1.093 1.093 0 1 1 -.001 2.187 1.093 1.093 0 0 1 0-2.187m-9.902 0a1.093 1.093 0 1 1 0 2.187 1.093 1.093 0 0 1 0-2.187m-9.903 0a1.093 1.093 0 1 1 0 2.187 1.093 1.093 0 0 1 0-2.187m-9.362 0a1.093 1.093 0 1 1 0 2.187 1.093 1.093 0 0 1 0-2.187m-9.902 0a1.093 1.093 0 1 1 -.001 2.187 1.093 1.093 0 0 1 0-2.187m-9.902 0a1.093 1.093 0 1 1 0 2.187 1.093 1.093 0 0 1 0-2.187m58.875 0a1.093 1.093 0 1 1 0 2.187 1.093 1.093 0 0 1 0-2.187m10.174 0a1.093 1.093 0 1 1 -.002 2.187 1.093 1.093 0 0 1 0-2.187m473.168 0a1.093 1.093 0 1 1 -.001 2.187 1.093 1.093 0 0 1 0-2.187m69.049 0a1.094 1.094 0 1 1 0 2.189 1.094 1.094 0 0 1 0-2.189m-9.903 0a1.094 1.094 0 1 1 0 2.189 1.094 1.094 0 0 1 0-2.189m-9.903 0a1.093 1.093 0 1 1 0 2.187 1.093 1.093 0 0 1 0-2.187m-9.902 0a1.094 1.094 0 1 1 0 2.189 1.094 1.094 0 0 1 0-2.189m-8.362 0a1.093 1.093 0 1 1 0 2.187 1.093 1.093 0 0 1 0-2.187m-10.902 0a1.093 1.093 0 1 1 0 2.187 1.093 1.093 0 0 1 0-2.187m-9.904 0a1.094 1.094 0 1 1 0 2.189 1.094 1.094 0 0 1 0-2.189m80.542 0a1.093 1.093 0 1 1 -.001 2.187 1.093 1.093 0 0 1 0-2.187m-9.903 0a1.094 1.094 0 1 1 0 2.189 1.094 1.094 0 0 1 0-2.189m-100.616 0a1.094 1.094 0 1 1 0 2.189 1.094 1.094 0 0 1 0-2.189m10.174 0a1.093 1.093 0 1 1 0 2.187 1.093 1.093 0 0 1 0-2.187m-29.98 0a1.094 1.094 0 1 1 0 2.189 1.094 1.094 0 0 1 0-2.189m10.174 0a1.093 1.093 0 1 1 0 2.187 1.093 1.093 0 0 1 0-2.187m-29.978 0a1.093 1.093 0 1 1 -.001 2.187 1.093 1.093 0 0 1 0-2.187m10.174 0a1.094 1.094 0 1 1 -.001 2.189 1.094 1.094 0 0 1 0-2.189m-29.978 0a1.093 1.093 0 1 1 0 2.187 1.093 1.093 0 0 1 0-2.187m10.173 0a1.094 1.094 0 1 1 0 2.189 1.094 1.094 0 0 1 0-2.189m-29.979 0a1.094 1.094 0 1 1 0 2.189 1.094 1.094 0 0 1 0-2.189m10.174 0a1.093 1.093 0 1 1 0 2.187 1.093 1.093 0 0 1 0-2.187m-29.979 0a1.094 1.094 0 1 1 0 2.189 1.094 1.094 0 0 1 0-2.189m10.174 0a1.093 1.093 0 1 1 -.001 2.187 1.093 1.093 0 0 1 0-2.187m-29.978 0a1.093 1.093 0 1 1 0 2.187 1.093 1.093 0 0 1 0-2.187m10.173 0a1.094 1.094 0 1 1 0 2.189 1.094 1.094 0 0 1 0-2.189m-29.979 0a1.093 1.093 0 1 1 0 2.187 1.093 1.093 0 0 1 0-2.187m10.173 0a1.094 1.094 0 1 1 0 2.189 1.094 1.094 0 0 1 0-2.189m-29.978 0a1.094 1.094 0 1 1 0 2.189 1.094 1.094 0 0 1 0-2.189m10.174 0a1.093 1.093 0 1 1 -.001 2.187 1.093 1.093 0 0 1 0-2.187m-29.978 0a1.093 1.093 0 1 1 0 2.187 1.093 1.093 0 0 1 0-2.187m10.173 0a1.093 1.093 0 1 1 -.001 2.187 1.093 1.093 0 0 1 0-2.187m-29.978 0a1.093 1.093 0 1 1 0 2.187 1.093 1.093 0 0 1 0-2.187m10.173 0a1.094 1.094 0 1 1 0 2.189 1.094 1.094 0 0 1 0-2.189m-29.978 0a1.093 1.093 0 1 1 -.001 2.187 1.093 1.093 0 0 1 0-2.187m10.174 0a1.093 1.093 0 1 1 0 2.187 1.093 1.093 0 0 1 0-2.187m-29.979 0a1.093 1.093 0 1 1 0 2.187 1.093 1.093 0 0 1 0-2.187m10.173 0a1.094 1.094 0 1 1 0 2.189 1.094 1.094 0 0 1 0-2.189m-29.978 0a1.093 1.093 0 1 1 -.001 2.187 1.093 1.093 0 0 1 0-2.187m-19.804 0a1.093 1.093 0 1 1 -.001 2.187 1.093 1.093 0 0 1 0-2.187m10.174 0a1.093 1.093 0 1 1 0 2.187 1.093 1.093 0 0 1 0-2.187m-29.979 0a1.093 1.093 0 1 1 0 2.187 1.093 1.093 0 0 1 0-2.187m10.173 0a1.093 1.093 0 1 1 0 2.187 1.093 1.093 0 0 1 0-2.187m-28.356 0a1.093 1.093 0 1 1 0 2.187 1.093 1.093 0 0 1 0-2.187m8.552 0a1.093 1.093 0 1 1 -.002 2.187 1.093 1.093 0 0 1 .001-2.187m-28.626 0a1.093 1.093 0 1 1 -.001 2.187 1.093 1.093 0 0 1 0-2.187m9.903 0a1.093 1.093 0 1 1 0 2.187 1.093 1.093 0 0 1 0-2.187m-29.708 0a1.093 1.093 0 1 1 0 2.187 1.093 1.093 0 0 1 0-2.187m9.903 0a1.093 1.093 0 1 1 0 2.187 1.093 1.093 0 0 1 0-2.187m-29.167 0a1.093 1.093 0 1 1 0 2.187 1.093 1.093 0 0 1 0-2.187m9.903 0a1.093 1.093 0 1 1 -.001 2.187 1.093 1.093 0 0 1 0-2.187m-29.978 0a1.093 1.093 0 1 1 -.001 2.187 1.093 1.093 0 0 1 0-2.187m10.174 0a1.093 1.093 0 1 1 0 2.187 1.093 1.093 0 0 1 0-2.187m-29.978 0a1.093 1.093 0 1 1 -.001 2.187 1.093 1.093 0 0 1 0-2.187m9.903 0a1.094 1.094 0 1 1 0 2.189 1.094 1.094 0 0 1 0-2.189m-39.34 0a1.093 1.093 0 1 1 0 2.187 1.093 1.093 0 0 1 0-2.187m20.091 0a1.093 1.093 0 1 1 0 2.187 1.093 1.093 0 0 1 0-2.187m.135-26.813a1 1 0 1 1 0 2 1 1 0 0 1 0-2m-10 9a1 1 0 1 1 0 2 1 1 0 0 1 0-2m0 9a1 1 0 1 1 .001 1.999 1 1 0 0 1 -.001-1.999m-.324 8.813a1.093 1.093 0 1 1 0 2.187 1.093 1.093 0 0 1 0-2.187m.324-26.813a1 1 0 1 1 0 2 1 1 0 0 1 0-2"/><path d="m693 200a1 1 0 1 1 .001 1.999 1 1 0 0 1 -.001-1.999m-10 0a1 1 0 1 1 .001 1.999 1 1 0 0 1 -.001-1.999m-10 0a1 1 0 1 1 .001 1.999 1 1 0 0 1 -.001-1.999m-9 0a1 1 0 1 1 .001 1.999 1 1 0 0 1 -.001-1.999m-10 0a1 1 0 1 1 .001 1.999 1 1 0 0 1 -.001-1.999m-10 0a1 1 0 1 1 .001 1.999 1 1 0 0 1 -.001-1.999m59 0a1 1 0 1 1 .001 1.999 1 1 0 0 1 -.001-1.999m10 0a1 1 0 1 1 .001 1.999 1 1 0 0 1 -.001-1.999m474 0a1 1 0 1 1 .001 1.998 1 1 0 0 1 0-1.998m68.999 0a1 1 0 1 1 0 2 1 1 0 0 1 0-2m-10 0a1 1 0 1 1 0 2 1 1 0 0 1 0-2m-10 0a1 1 0 1 1 .001 1.998 1 1 0 0 1 0-1.998m-10.001 0a1 1 0 1 1 0 2 1 1 0 0 1 0-2m-9 0a1 1 0 1 1 .001 1.999 1 1 0 0 1 -.001-1.999m-10 0a1 1 0 1 1 .001 1.998 1 1 0 0 1 0-1.998m-10.001 0a1 1 0 1 1 0 2 1 1 0 0 1 0-2m-30 0a1 1 0 1 1 0 2 1 1 0 0 1 0-2m10 0a1 1 0 1 1 .001 1.998 1 1 0 0 1 0-1.998m-30.001 0a1 1 0 1 1 0 2 1 1 0 0 1 0-2m10 0a1 1 0 1 1 .001 1.998 1 1 0 0 1 0-1.998m-30.001 0a1 1 0 1 1 .001 1.998 1 1 0 0 1 0-1.998m9.999 0a1 1 0 1 1 0 2 1 1 0 0 1 0-2m-30 0a1 1 0 1 1 .001 1.998 1 1 0 0 1 0-1.998m10.999 0a1 1 0 1 1 0 2 1 1 0 0 1 0-2m-30 0a1 1 0 1 1 0 2 1 1 0 0 1 0-2m10 0a1 1 0 1 1 .001 1.998 1 1 0 0 1 0-1.998m-30.001 0a1 1 0 1 1 0 2 1 1 0 0 1 0-2m10 0a1 1 0 1 1 .001 1.998 1 1 0 0 1 0-1.998m-30.001 0a1 1 0 1 1 .001 1.998 1 1 0 0 1 0-1.998m9.999 0a1 1 0 1 1 0 2 1 1 0 0 1 0-2m-30 0a1 1 0 1 1 .001 1.999 1 1 0 0 1 -.001-1.999m10 0a1 1 0 1 1 0 2 1 1 0 0 1 0-2m-30 0a1 1 0 1 1 0 2 1 1 0 0 1 0-2m10 0a1 1 0 1 1 .001 1.998 1 1 0 0 1 0-1.998m-30.001 0a1 1 0 1 1 .001 1.998 1 1 0 0 1 0-1.998m10.999 0a1 1 0 1 1 .001 1.999 1 1 0 0 1 -.001-1.999m-30 0a1 1 0 1 1 .001 1.998 1 1 0 0 1 0-1.998m9.999 0a1 1 0 1 1 0 2 1 1 0 0 1 0-2m-30 0a1 1 0 1 1 .001 1.999 1 1 0 0 1 -.001-1.999m10 0a1 1 0 1 1 .001 1.999 1 1 0 0 1 -.001-1.999m-30 0a1 1 0 1 1 .001 1.999 1 1 0 0 1 -.001-1.999m10 0a1 1 0 1 1 0 2 1 1 0 0 1 0-2m-30 0a1 1 0 1 1 .001 1.999 1 1 0 0 1 -.001-1.999m10 0a1 1 0 1 1 .001 1.999 1 1 0 0 1 -.001-1.999m-30 0a1 1 0 1 1 .001 1.999 1 1 0 0 1 -.001-1.999m10 0a1 1 0 1 1 .001 1.999 1 1 0 0 1 -.001-1.999m-30 0a1 1 0 1 1 .001 1.999 1 1 0 0 1 -.001-1.999m11 0a1 1 0 1 1 .001 1.999 1 1 0 0 1 -.001-1.999m-29 0a1 1 0 1 1 .001 1.999 1 1 0 0 1 -.001-1.999m9 0a1 1 0 1 1 .001 1.999 1 1 0 0 1 -.001-1.999m-29 0a1 1 0 1 1 .001 1.999 1 1 0 0 1 -.001-1.999m10 0a1 1 0 1 1 .001 1.998 1 1 0 0 1 0-1.998m-30.001 0a1 1 0 1 1 .001 1.999 1 1 0 0 1 -.001-1.999m10 0a1 1 0 1 1 .001 1.999 1 1 0 0 1 -.001-1.999m-29 0a1 1 0 1 1 .001 1.999 1 1 0 0 1 -.001-1.999m10 0a1 1 0 1 1 .001 1.998 1 1 0 0 1 0-1.998m-30.001 0a1 1 0 1 1 .001 1.999 1 1 0 0 1 -.001-1.999m10 0a1 1 0 1 1 .001 1.999 1 1 0 0 1 -.001-1.999m-30 0a1 1 0 1 1 .001 1.999 1 1 0 0 1 -.001-1.999m10 0a1 1 0 1 1 0 2 1 1 0 0 1 0-2m-39 0a1 1 0 1 1 .001 1.998 1 1 0 0 1 0-1.998m19.999 0a1 1 0 1 1 .001 1.999 1 1 0 0 1 -.001-1.999m-10 0a1 1 0 1 1 .001 1.999 1 1 0 0 1 -.001-1.999m-30 18a1 1 0 1 1 0 2 1 1 0 0 1 0-2m-10 0a1 1 0 1 1 0 2 1 1 0 0 1 0-2m0 9a1 1 0 1 1 .001 1.999 1 1 0 0 1 -.001-1.999m-10-9a1 1 0 1 1 0 2 1 1 0 0 1 0-2m0 9a1 1 0 1 1 .001 1.999 1 1 0 0 1 -.001-1.999m-10-9a1 1 0 1 1 0 2 1 1 0 0 1 0-2m0 9a1 1 0 1 1 .001 1.999 1 1 0 0 1 -.001-1.999m-9-9a1 1 0 1 1 0 2 1 1 0 0 1 0-2m0 9a1 1 0 1 1 .001 1.999 1 1 0 0 1 -.001-1.999m-10-9a1 1 0 1 1 0 2 1 1 0 0 1 0-2m0 9a1 1 0 1 1 .001 1.999 1 1 0 0 1 -.001-1.999m-10-9a1 1 0 1 1 0 2 1 1 0 0 1 0-2m0 9a1 1 0 1 1 .001 1.999 1 1 0 0 1 -.001-1.999m59-18a1 1 0 1 1 0 2 1 1 0 0 1 0-2m-10 0a1 1 0 1 1 0 2 1 1 0 0 1 0-2m-10 0a1 1 0 1 1 0 2 1 1 0 0 1 0-2m-10 0a1 1 0 1 1 0 2 1 1 0 0 1 0-2m-9 0a1 1 0 1 1 0 2 1 1 0 0 1 0-2m-10 0a1 1 0 1 1 0 2 1 1 0 0 1 0-2m-10 0a1 1 0 1 1 0 2 1 1 0 0 1 0-2m69 9a1 1 0 1 1 0 2 1 1 0 0 1 0-2m0-9a1 1 0 1 1 0 2 1 1 0 0 1 0-2m-10 18a1 1 0 1 1 .001 1.999 1 1 0 0 1 -.001-1.999m10 0a1 1 0 1 1 .001 1.999 1 1 0 0 1 -.001-1.999m474-9a1 1 0 1 1 0 1.999 1 1 0 0 1 0-1.999m0 9a1 1 0 1 1 .001 1.998 1 1 0 0 1 0-1.998m-.001-18a1 1 0 1 1 0 2 1 1 0 0 1 0-2m69 9a1 1 0 1 1 0 2 1 1 0 0 1 0-2m0 9a1 1 0 1 1 0 2 1 1 0 0 1 0-2m-10-9a1 1 0 1 1 0 2 1 1 0 0 1 0-2m0 9a1 1 0 1 1 0 2 1 1 0 0 1 0-2m-10-9a1 1 0 1 1 0 1.999 1 1 0 0 1 0-1.999m0 9a1 1 0 1 1 .001 1.998 1 1 0 0 1 0-1.998m-10.001-9a1 1 0 1 1 0 2 1 1 0 0 1 0-2m0 9a1 1 0 1 1 0 2 1 1 0 0 1 0-2m-9-9a1 1 0 1 1 0 2 1 1 0 0 1 0-2m0 9a1 1 0 1 1 .001 1.999 1 1 0 0 1 -.001-1.999m-10-9a1 1 0 1 1 0 1.999 1 1 0 0 1 0-1.999m0 9a1 1 0 1 1 .001 1.998 1 1 0 0 1 0-1.998m-10.001-9a1 1 0 1 1 0 2 1 1 0 0 1 0-2m0 9a1 1 0 1 1 0 2 1 1 0 0 1 0-2m59-18a1 1 0 1 1 0 2.001 1 1 0 0 1 0-2.001m-10 0a1 1 0 1 1 0 2.001 1 1 0 0 1 0-2.001m-10 0a1 1 0 1 1 0 2 1 1 0 0 1 0-2m-10 0a1 1 0 1 1 0 2.001 1 1 0 0 1 0-2.001m-9 0a1 1 0 1 1 0 2 1 1 0 0 1 0-2m-10 0a1 1 0 1 1 0 2 1 1 0 0 1 0-2m-10 0a1 1 0 1 1 0 2.001 1 1 0 0 1 0-2.001m-30 9a1 1 0 1 1 0 2 1 1 0 0 1 0-2m0 9a1 1 0 1 1 0 2 1 1 0 0 1 0-2m0-18a1 1 0 1 1 0 2.001 1 1 0 0 1 0-2.001m10 9a1 1 0 1 1 0 1.999 1 1 0 0 1 0-1.999m0 9a1 1 0 1 1 .001 1.998 1 1 0 0 1 0-1.998m-.001-18a1 1 0 1 1 0 2 1 1 0 0 1 0-2m-30 9a1 1 0 1 1 0 2 1 1 0 0 1 0-2m0 9a1 1 0 1 1 0 2 1 1 0 0 1 0-2m0-18a1 1 0 1 1 0 2.001 1 1 0 0 1 0-2.001m10 9a1 1 0 1 1 0 1.999 1 1 0 0 1 0-1.999m0 9a1 1 0 1 1 .001 1.998 1 1 0 0 1 0-1.998m-.001-18a1 1 0 1 1 0 2 1 1 0 0 1 0-2m-30 9a1 1 0 1 1 0 1.999 1 1 0 0 1 0-1.999m0 9a1 1 0 1 1 .001 1.998 1 1 0 0 1 0-1.998m-.001-18a1 1 0 1 1 0 2 1 1 0 0 1 0-2m10 9a1 1 0 1 1 0 2 1 1 0 0 1 0-2m0 9a1 1 0 1 1 0 2 1 1 0 0 1 0-2m0-18a1 1 0 1 1 0 2.001 1 1 0 0 1 0-2.001m-30 9a1 1 0 1 1 0 1.999 1 1 0 0 1 0-1.999m0 9a1 1 0 1 1 .001 1.998 1 1 0 0 1 0-1.998m-.001-18a1 1 0 1 1 0 2 1 1 0 0 1 0-2m11 9a1 1 0 1 1 0 2 1 1 0 0 1 0-2m0 9a1 1 0 1 1 0 2 1 1 0 0 1 0-2m0-18a1 1 0 1 1 0 2.001 1 1 0 0 1 0-2.001m-30 9a1 1 0 1 1 0 2 1 1 0 0 1 0-2m0 9a1 1 0 1 1 0 2 1 1 0 0 1 0-2m0-18a1 1 0 1 1 0 2.001 1 1 0 0 1 0-2.001m10 9a1 1 0 1 1 0 1.999 1 1 0 0 1 0-1.999m0 9a1 1 0 1 1 .001 1.998 1 1 0 0 1 0-1.998m-.001-18a1 1 0 1 1 0 2 1 1 0 0 1 0-2m-30 9a1 1 0 1 1 0 2 1 1 0 0 1 0-2m0 9a1 1 0 1 1 0 2 1 1 0 0 1 0-2m0-18a1 1 0 1 1 0 2.001 1 1 0 0 1 0-2.001m10 9a1 1 0 1 1 0 1.999 1 1 0 0 1 0-1.999m0 9a1 1 0 1 1 .001 1.998 1 1 0 0 1 0-1.998m-.001-18a1 1 0 1 1 0 2 1 1 0 0 1 0-2m-30 9a1 1 0 1 1 0 1.999 1 1 0 0 1 0-1.999m0 9a1 1 0 1 1 .001 1.998 1 1 0 0 1 0-1.998m-.001-18a1 1 0 1 1 0 2 1 1 0 0 1 0-2m10 9a1 1 0 1 1 0 2 1 1 0 0 1 0-2m0 9a1 1 0 1 1 0 2 1 1 0 0 1 0-2m0-18a1 1 0 1 1 0 2.001 1 1 0 0 1 0-2.001m-30 9a1 1 0 1 1 0 2 1 1 0 0 1 0-2m0 9a1 1 0 1 1 .001 1.999 1 1 0 0 1 -.001-1.999m0-18a1 1 0 1 1 0 2 1 1 0 0 1 0-2m10 9a1 1 0 1 1 0 2 1 1 0 0 1 0-2m0 9a1 1 0 1 1 0 2 1 1 0 0 1 0-2m0-18a1 1 0 1 1 0 2.001 1 1 0 0 1 0-2.001m-30 9a1 1 0 1 1 0 2 1 1 0 0 1 0-2m0 9a1 1 0 1 1 0 2 1 1 0 0 1 0-2m0-18a1 1 0 1 1 0 2.001 1 1 0 0 1 0-2.001m10 9a1 1 0 1 1 0 1.999 1 1 0 0 1 0-1.999m0 9a1 1 0 1 1 .001 1.998 1 1 0 0 1 0-1.998m-.001-18a1 1 0 1 1 0 2 1 1 0 0 1 0-2m-30 9a1 1 0 1 1 0 1.999 1 1 0 0 1 0-1.999m0 9a1 1 0 1 1 .001 1.998 1 1 0 0 1 0-1.998m-.001-18a1 1 0 1 1 0 2 1 1 0 0 1 0-2m11 9a1 1 0 1 1 0 2 1 1 0 0 1 0-2m0 9a1 1 0 1 1 .001 1.999 1 1 0 0 1 -.001-1.999m0-18a1 1 0 1 1 0 2 1 1 0 0 1 0-2m-30 9a1 1 0 1 1 0 1.999 1 1 0 0 1 0-1.999m0 9a1 1 0 1 1 .001 1.998 1 1 0 0 1 0-1.998m-.001-18a1 1 0 1 1 0 2 1 1 0 0 1 0-2m10 9a1 1 0 1 1 0 2 1 1 0 0 1 0-2m0 9a1 1 0 1 1 0 2 1 1 0 0 1 0-2m0-18a1 1 0 1 1 0 2.001 1 1 0 0 1 0-2.001m-30 9a1 1 0 1 1 0 2 1 1 0 0 1 0-2m0 9a1 1 0 1 1 .001 1.999 1 1 0 0 1 -.001-1.999m0-18a1 1 0 1 1 0 2 1 1 0 0 1 0-2m10 9a1 1 0 1 1 0 2 1 1 0 0 1 0-2m0 9a1 1 0 1 1 .001 1.999 1 1 0 0 1 -.001-1.999m0-18a1 1 0 1 1 0 2 1 1 0 0 1 0-2m-30 9a1 1 0 1 1 0 2 1 1 0 0 1 0-2m0 9a1 1 0 1 1 .001 1.999 1 1 0 0 1 -.001-1.999m0-18a1 1 0 1 1 0 2 1 1 0 0 1 0-2m10 9a1 1 0 1 1 0 2 1 1 0 0 1 0-2m0 9a1 1 0 1 1 0 2 1 1 0 0 1 0-2m0-18a1 1 0 1 1 0 2.001 1 1 0 0 1 0-2.001m-30 9a1 1 0 1 1 0 2 1 1 0 0 1 0-2m0 9a1 1 0 1 1 .001 1.999 1 1 0 0 1 -.001-1.999m0-18a1 1 0 1 1 0 2 1 1 0 0 1 0-2m10 9a1 1 0 1 1 0 2 1 1 0 0 1 0-2m0 9a1 1 0 1 1 .001 1.999 1 1 0 0 1 -.001-1.999m.205 8.813a1.093 1.093 0 1 1 0 2.187 1.093 1.093 0 0 1 0-2.187m-.205-26.813a1 1 0 1 1 0 2 1 1 0 0 1 0-2m-30 9a1 1 0 1 1 0 2 1 1 0 0 1 0-2m0 9a1 1 0 1 1 .001 1.999 1 1 0 0 1 -.001-1.999m0-18a1 1 0 1 1 0 2 1 1 0 0 1 0-2m10 9a1 1 0 1 1 0 2 1 1 0 0 1 0-2m0 9a1 1 0 1 1 .001 1.999 1 1 0 0 1 -.001-1.999m0-18a1 1 0 1 1 0 2 1 1 0 0 1 0-2m-30 9a1 1 0 1 1 0 2 1 1 0 0 1 0-2m0 9a1 1 0 1 1 .001 1.999 1 1 0 0 1 -.001-1.999m0-18a1 1 0 1 1 0 2 1 1 0 0 1 0-2m11 9a1 1 0 1 1 0 2 1 1 0 0 1 0-2m0 9a1 1 0 1 1 .001 1.999 1 1 0 0 1 -.001-1.999m0-18a1 1 0 1 1 0 2 1 1 0 0 1 0-2m-29 9a1 1 0 1 1 0 2 1 1 0 0 1 0-2m0 9a1 1 0 1 1 .001 1.999 1 1 0 0 1 -.001-1.999m0-18a1 1 0 1 1 0 2 1 1 0 0 1 0-2m9 9a1 1 0 1 1 0 2 1 1 0 0 1 0-2m0 9a1 1 0 1 1 .001 1.999 1 1 0 0 1 -.001-1.999m0-18a1 1 0 1 1 0 2 1 1 0 0 1 0-2m-29 9a1 1 0 1 1 0 2 1 1 0 0 1 0-2m0 9a1 1 0 1 1 .001 1.999 1 1 0 0 1 -.001-1.999m0-18a1 1 0 1 1 0 2 1 1 0 0 1 0-2m10 9a1 1 0 1 1 0 1.999 1 1 0 0 1 0-1.999m0 9a1 1 0 1 1 .001 1.998 1 1 0 0 1 0-1.998m-.001-18a1 1 0 1 1 0 2 1 1 0 0 1 0-2m-30 9a1 1 0 1 1 0 2 1 1 0 0 1 0-2m0 9a1 1 0 1 1 .001 1.999 1 1 0 0 1 -.001-1.999m0-18a1 1 0 1 1 0 2 1 1 0 0 1 0-2m10 9a1 1 0 1 1 0 2 1 1 0 0 1 0-2m0 9a1 1 0 1 1 .001 1.999 1 1 0 0 1 -.001-1.999m0-18a1 1 0 1 1 0 2 1 1 0 0 1 0-2m-29 9a1 1 0 1 1 0 2 1 1 0 0 1 0-2m0 9a1 1 0 1 1 .001 1.999 1 1 0 0 1 -.001-1.999m0-18a1 1 0 1 1 0 2 1 1 0 0 1 0-2m10 9a1 1 0 1 1 0 1.999 1 1 0 0 1 0-1.999m0 9a1 1 0 1 1 .001 1.998 1 1 0 0 1 0-1.998m-.001-18a1 1 0 1 1 0 2 1 1 0 0 1 0-2m-30 9a1 1 0 1 1 0 2 1 1 0 0 1 0-2m0 9a1 1 0 1 1 .001 1.999 1 1 0 0 1 -.001-1.999m0-18a1 1 0 1 1 0 2 1 1 0 0 1 0-2m10 9a1 1 0 1 1 0 2 1 1 0 0 1 0-2m0 9a1 1 0 1 1 .001 1.999 1 1 0 0 1 -.001-1.999m0-18a1 1 0 1 1 0 2 1 1 0 0 1 0-2m-30 9a1 1 0 1 1 0 2 1 1 0 0 1 0-2m0 9a1 1 0 1 1 .001 1.999 1 1 0 0 1 -.001-1.999m0-18a1 1 0 1 1 0 2 1 1 0 0 1 0-2m10 9a1 1 0 1 1 0 2 1 1 0 0 1 0-2m0 9a1 1 0 1 1 0 2 1 1 0 0 1 0-2m0-18a1 1 0 1 1 0 2.001 1 1 0 0 1 0-2.001m-39 9a1 1 0 1 1 0 1.999 1 1 0 0 1 0-1.999m0 9a1 1 0 1 1 .001 1.998 1 1 0 0 1 0-1.998m-.001-18a1 1 0 1 1 0 2 1 1 0 0 1 0-2m20 9a1 1 0 1 1 0 2 1 1 0 0 1 0-2m0 9a1 1 0 1 1 .001 1.999 1 1 0 0 1 -.001-1.999m0-18a1 1 0 1 1 0 2 1 1 0 0 1 0-2m-10 9a1 1 0 1 1 0 2 1 1 0 0 1 0-2m0 9a1 1 0 1 1 .001 1.999 1 1 0 0 1 -.001-1.999m-39.934 8.813a1.093 1.093 0 1 1 -.001 2.187 1.093 1.093 0 0 1 0-2.187m-9.902 0a1.093 1.093 0 1 1 0 2.187 1.093 1.093 0 0 1 0-2.187m-9.903 0a1.093 1.093 0 1 1 0 2.187 1.093 1.093 0 0 1 0-2.187m-9.361 0a1.093 1.093 0 1 1 -.001 2.187 1.093 1.093 0 0 1 0-2.187m-9.902 0a1.093 1.093 0 1 1 -.001 2.187 1.093 1.093 0 0 1 0-2.187m-9.902 0a1.093 1.093 0 1 1 0 2.187 1.093 1.093 0 0 1 0-2.187m58.875 0a1.093 1.093 0 1 1 0 2.187 1.093 1.093 0 0 1 0-2.187m10.174 0a1.093 1.093 0 1 1 -.001 2.187 1.093 1.093 0 0 1 0-2.187m473.167 0a1.093 1.093 0 1 1 -.001 2.187 1.093 1.093 0 0 1 0-2.187m69.049 0a1.094 1.094 0 1 1 0 2.189 1.094 1.094 0 0 1 0-2.189m-9.903 0a1.094 1.094 0 1 1 0 2.189 1.094 1.094 0 0 1 0-2.189m-9.903 0a1.093 1.093 0 1 1 0 2.187 1.093 1.093 0 0 1 0-2.187m-9.902 0a1.094 1.094 0 1 1 0 2.189 1.094 1.094 0 0 1 0-2.189m-8.362 0a1.093 1.093 0 1 1 0 2.187 1.093 1.093 0 0 1 0-2.187m-10.902 0a1.093 1.093 0 1 1 0 2.187 1.093 1.093 0 0 1 0-2.187m-9.904 0a1.094 1.094 0 1 1 0 2.189 1.094 1.094 0 0 1 0-2.189m68.52-35.813a1 1 0 1 1 0 2 1 1 0 0 1 0-2m0 18a1 1 0 1 1 0 2 1 1 0 0 1 0-2m0 9a1 1 0 1 1 0 2 1 1 0 0 1 0-2m0-18a1 1 0 1 1 0 2.001 1 1 0 0 1 0-2.001m.118 26.813a1.094 1.094 0 1 1 0 2.189 1.094 1.094 0 0 1 0-2.189m-98.616 0a1.094 1.094 0 1 1 0 2.189 1.094 1.094 0 0 1 0-2.189m10.174 0a1.093 1.093 0 1 1 0 2.187 1.093 1.093 0 0 1 0-2.187m-29.98 0a1.094 1.094 0 1 1 0 2.189 1.094 1.094 0 0 1 0-2.189m10.174 0a1.093 1.093 0 1 1 0 2.187 1.093 1.093 0 0 1 0-2.187m-29.978 0a1.093 1.093 0 1 1 -.001 2.187 1.093 1.093 0 0 1 0-2.187m10.173 0a1.094 1.094 0 1 1 0 2.189 1.094 1.094 0 0 1 0-2.189m-29.978 0a1.093 1.093 0 1 1 0 2.187 1.093 1.093 0 0 1 0-2.187m10.173 0a1.094 1.094 0 1 1 0 2.189 1.094 1.094 0 0 1 0-2.189m-29.979 0a1.094 1.094 0 1 1 0 2.189 1.094 1.094 0 0 1 0-2.189m10.174 0a1.093 1.093 0 1 1 0 2.187 1.093 1.093 0 0 1 0-2.187m-29.979 0a1.094 1.094 0 1 1 0 2.189 1.094 1.094 0 0 1 0-2.189m10.174 0a1.093 1.093 0 1 1 -.001 2.187 1.093 1.093 0 0 1 0-2.187m-29.978 0a1.093 1.093 0 1 1 0 2.187 1.093 1.093 0 0 1 0-2.187m10.173 0a1.094 1.094 0 1 1 0 2.189 1.094 1.094 0 0 1 0-2.189m-29.979 0a1.093 1.093 0 1 1 0 2.187 1.093 1.093 0 0 1 0-2.187m10.173 0a1.094 1.094 0 1 1 0 2.189 1.094 1.094 0 0 1 0-2.189m-29.978 0a1.094 1.094 0 1 1 0 2.189 1.094 1.094 0 0 1 0-2.189m10.174 0a1.093 1.093 0 1 1 -.001 2.187 1.093 1.093 0 0 1 0-2.187m-29.978 0a1.093 1.093 0 1 1 0 2.187 1.093 1.093 0 0 1 0-2.187m10.173 0a1.093 1.093 0 1 1 -.001 2.187 1.093 1.093 0 0 1 0-2.187m-29.978 0a1.093 1.093 0 1 1 0 2.187 1.093 1.093 0 0 1 0-2.187m10.173 0a1.094 1.094 0 1 1 0 2.189 1.094 1.094 0 0 1 0-2.189m-29.978 0a1.093 1.093 0 1 1 -.001 2.187 1.093 1.093 0 0 1 0-2.187m10.174 0a1.093 1.093 0 1 1 0 2.187 1.093 1.093 0 0 1 0-2.187m-29.979 0a1.093 1.093 0 1 1 0 2.187 1.093 1.093 0 0 1 0-2.187m10.173 0a1.094 1.094 0 1 1 0 2.189 1.094 1.094 0 0 1 0-2.189m-29.978 0a1.093 1.093 0 1 1 -.001 2.187 1.093 1.093 0 0 1 0-2.187m-19.804 0a1.093 1.093 0 1 1 -.001 2.187 1.093 1.093 0 0 1 0-2.187m10.174 0a1.093 1.093 0 1 1 0 2.187 1.093 1.093 0 0 1 0-2.187m-29.979 0a1.093 1.093 0 1 1 0 2.187 1.093 1.093 0 0 1 0-2.187m10.173 0a1.093 1.093 0 1 1 0 2.187 1.093 1.093 0 0 1 0-2.187m-28.356 0a1.093 1.093 0 1 1 0 2.187 1.093 1.093 0 0 1 0-2.187m8.552 0a1.093 1.093 0 1 1 -.002 2.187 1.093 1.093 0 0 1 .001-2.187m-28.626 0a1.093 1.093 0 1 1 -.001 2.187 1.093 1.093 0 0 1 0-2.187m9.903 0a1.093 1.093 0 1 1 0 2.187 1.093 1.093 0 0 1 0-2.187m-29.708 0a1.093 1.093 0 1 1 0 2.187 1.093 1.093 0 0 1 0-2.187m9.903 0a1.093 1.093 0 1 1 0 2.187 1.093 1.093 0 0 1 0-2.187m-29.167 0a1.093 1.093 0 1 1 0 2.187 1.093 1.093 0 0 1 0-2.187m9.903 0a1.093 1.093 0 1 1 -.001 2.187 1.093 1.093 0 0 1 0-2.187m-29.978 0a1.093 1.093 0 1 1 -.001 2.187 1.093 1.093 0 0 1 0-2.187m10.174 0a1.093 1.093 0 1 1 0 2.187 1.093 1.093 0 0 1 0-2.187m-29.978 0a1.093 1.093 0 1 1 -.001 2.187 1.093 1.093 0 0 1 0-2.187m9.903 0a1.094 1.094 0 1 1 0 2.189 1.094 1.094 0 0 1 0-2.189m-39.34 0a1.093 1.093 0 1 1 0 2.187 1.093 1.093 0 0 1 0-2.187m20.091 0a1.093 1.093 0 1 1 0 2.187 1.093 1.093 0 0 1 0-2.187m-10.189 0a1.093 1.093 0 1 1 0 2.187 1.093 1.093 0 0 1 0-2.187m.324-26.813a1 1 0 1 1 0 2 1 1 0 0 1 0-2"/></g></svg>