<svg height="84" viewBox="0 0 308 84" width="308" xmlns="http://www.w3.org/2000/svg" xmlns:xlink="http://www.w3.org/1999/xlink"><mask id="a" fill="#fff"><path d="m.171.642h1.75v1.726h-1.751z" fill="none"/></mask><mask id="b" fill="#fff"><path d="m.21.642h1.75v1.726h-1.75z" fill="none"/></mask><mask id="c" fill="#fff"><path d="m.288.642h1.75v1.726h-1.75z" fill="none"/></mask><mask id="d" fill="#fff"><path d="m.366.642h1.75v1.726h-1.751z" fill="none"/></mask><mask id="e" fill="#fff"><path d="m.444.642h1.75v1.726h-1.751z" fill="none"/></mask><mask id="f" fill="#fff"><path d="m.155.642h1.748v1.726h-1.748z" fill="none"/></mask><mask id="g" fill="#fff"><path d="m.232.642h1.75v1.726h-1.75z" fill="none"/></mask><mask id="h" fill="#fff"><path d="m.31.642h1.75v1.726h-1.75z" fill="none"/></mask><mask id="i" fill="#fff"><path d="m.742.642h1.75v1.726h-1.75z" fill="none"/></mask><mask id="j" fill="#fff"><path d="m.02.642h1.75v1.726h-1.75z" fill="none"/></mask><mask id="k" fill="#fff"><path d="m.327.642h1.75v1.726h-1.75z" fill="none"/></mask><mask id="l" fill="#fff"><path d="m.466.642h1.75v1.726h-1.751z" fill="none"/></mask><mask id="m" fill="#fff"><path d="m.483.642h1.75v1.726h-1.751z" fill="none"/></mask><mask id="n" fill="#fff"><path d="m.621.642h1.75v1.726h-1.751z" fill="none"/></mask><mask id="o" fill="#fff"><path d="m.638.642h1.75v1.726h-1.75z" fill="none"/></mask><mask id="p" fill="#fff"><path d="m.777.642h1.75v1.726h-1.75z" fill="none"/></mask><mask id="q" fill="#fff"><path d="m.794.642h1.75v1.726h-1.751z" fill="none"/></mask><mask id="r" fill="#fff"><path d="m.133.642h1.75v1.726h-1.751z" fill="none"/></mask><mask id="s" fill="#fff"><path d="m.15.642h1.75v1.726h-1.75z" fill="none"/></mask><mask id="t" fill="#fff"><path d="m.288.642h1.75v1.726h-1.75z" fill="none"/></mask><mask id="u" fill="#fff"><path d="m.305.642h1.75v1.726h-1.75z" fill="none"/></mask><mask id="v" fill="#fff"><path d="m.444.642h1.75v1.726h-1.751z" fill="none"/></mask><mask id="w" fill="#fff"><path d="m.46.642h1.75v1.726h-1.75z" fill="none"/></mask><mask id="x" fill="#fff"><path d="m.6.642h1.75v1.726h-1.75z" fill="none"/></mask><mask id="y" fill="#fff"><path d="m.617.642h1.749v1.726h-1.749z" fill="none"/></mask><mask id="z" fill="#fff"><path d="m.755.642h1.75v1.726h-1.75z" fill="none"/></mask><mask id="A" fill="#fff"><path d="m.773.642h1.75v1.726h-1.751z" fill="none"/></mask><mask id="B" fill="#fff"><path d="m.11.642h1.75v1.726h-1.75z" fill="none"/></mask><mask id="C" fill="#fff"><path d="m.128.642h1.75v1.726h-1.75z" fill="none"/></mask><mask id="D" fill="#fff"><path d="m.267.642h1.749v1.726h-1.749z" fill="none"/></mask><mask id="E" fill="#fff"><path d="m.283.642h1.75v1.726h-1.75z" fill="none"/></mask><mask id="F" fill="#fff"><path d="m.423.642h1.75v1.726h-1.751z" fill="none"/></mask><mask id="G" fill="#fff"><path d="m.44.642h1.749v1.726h-1.75z" fill="none"/></mask><mask id="H" fill="#fff"><path d="m.578.642h1.75v1.726h-1.751z" fill="none"/></mask><mask id="I" fill="#fff"><path d="m.596.642h1.748v1.726h-1.748z" fill="none"/></mask><mask id="J" fill="#fff"><path d="m.734.642h1.75v1.726h-1.751z" fill="none"/></mask><mask id="K" fill="#fff"><path d="m.751.642h1.749v1.726h-1.75z" fill="none"/></mask><mask id="L" fill="#fff"><path d="m.09.642h1.749v1.726h-1.75z" fill="none"/></mask><mask id="M" fill="#fff"><path d="m.107.642h1.749v1.726h-1.749z" fill="none"/></mask><mask id="N" fill="#fff"><path d="m.246.642h1.748v1.726h-1.748z" fill="none"/></mask><mask id="O" fill="#fff"><path d="m.262.642h1.75v1.726h-1.751z" fill="none"/></mask><mask id="P" fill="#fff"><path d="m.401.642h1.749v1.726h-1.75z" fill="none"/></mask><mask id="Q" fill="#fff"><path d="m.116.642h1.75v1.726h-1.751z" fill="none"/></mask><mask id="R" fill="#fff"><path d="m.557.642h1.749v1.726h-1.749z" fill="none"/></mask><g fill="none" fill-rule="evenodd"><g fill-rule="nonzero"><path d="m63 30.61v22.804l-5.273.281-5.274-.281v-22.805l3.516-3.515h3.515z" fill="#ffecb5"/><path d="m63 30.61v22.804l-5.273.281v-26.601h1.757z" fill="#f6b72c"/><path d="m48.938 18.305v42.422a5.266 5.266 0 0 1 -5.275 5.273h-35.389a5.266 5.266 0 0 1 -5.274-5.273v-42.422a5.266 5.266 0 0 1 5.273-5.274h35.391a5.266 5.266 0 0 1 5.273 5.274z" fill="#f49c53"/><path d="m48.938 18.305v42.422a5.266 5.266 0 0 1 -5.275 5.273h-17.693v-52.969h17.695a5.266 5.266 0 0 1 5.273 5.274z" fill="#f16661"/><path d="m8.273 62.484a1.76 1.76 0 0 1 -1.757-1.757v-42.422c0-.97.788-1.758 1.757-1.758h35.391c.97 0 1.758.788 1.758 1.758v42.422a1.76 1.76 0 0 1 -1.758 1.757h-35.39z" fill="#f6b72c"/><path d="m43.664 16.547h-17.694v45.937h17.695a1.76 1.76 0 0 0 1.758-1.757v-42.422a1.76 1.76 0 0 0 -1.758-1.758z" fill="#f49c53"/><path d="m39.118 53.695 2.273-2.273a1.757 1.757 0 1 0 -2.485-2.485l-2.273 2.273-2.273-2.273a1.757 1.757 0 1 0 -2.486 2.485l2.273 2.273-2.273 2.273a1.757 1.757 0 1 0 2.486 2.486l2.273-2.273 2.273 2.273a1.757 1.757 0 1 0 2.485-2.486zm2.261-23.613a1.7 1.7 0 0 1 -2.461 0l-.527-.492v6.293a5.266 5.266 0 0 1 -5.274 5.273h-14.297a1.74 1.74 0 0 0 -1.758 1.758v7.266a1.74 1.74 0 0 1 -1.757 1.758 1.74 1.74 0 0 1 -1.758-1.758v-7.266a5.266 5.266 0 0 1 5.273-5.273h14.297a1.74 1.74 0 0 0 1.758-1.758v-6.293l-.527.492a1.7 1.7 0 0 1 -2.461 0 1.7 1.7 0 0 1 0-2.461l3.515-3.516a1.7 1.7 0 0 1 2.461 0l3.516 3.516a1.699 1.699 0 0 1 0 2.46z" fill="#fff"/><path d="m33.117 9.516h-2.074c-.703-2.04-2.789-3.516-5.074-3.516-2.286 0-4.371 1.476-5.074 3.516h-2.075a5.266 5.266 0 0 0 -5.273 5.273 5.266 5.266 0 0 0 5.273 5.274h14.297a5.266 5.266 0 0 0 5.274-5.274 5.266 5.266 0 0 0 -5.274-5.273z" fill="#ffde3f"/><path d="m17.79 28.852 2.273-2.273a1.757 1.757 0 1 0 -2.485-2.486l-2.273 2.273-2.273-2.273a1.757 1.757 0 1 0 -2.486 2.486l2.273 2.273-2.273 2.272a1.757 1.757 0 1 0 2.486 2.486l2.273-2.273 2.273 2.273a1.757 1.757 0 1 0 2.485-2.486zm23.589 1.23a1.7 1.7 0 0 1 -2.461 0l-.527-.492v6.293a5.266 5.266 0 0 1 -5.274 5.273h-7.147v-3.515h7.148a1.74 1.74 0 0 0 1.758-1.758v-6.293l-.528.492a1.7 1.7 0 0 1 -2.46 0 1.7 1.7 0 0 1 0-2.461l3.515-3.516a1.7 1.7 0 0 1 2.461 0l3.516 3.516a1.699 1.699 0 0 1 0 2.46z" fill="#fff"/><path d="m38.39 14.79a5.266 5.266 0 0 1 -5.273 5.273h-7.147v-14.063c2.285 0 4.371 1.476 5.074 3.516h2.074a5.266 5.266 0 0 1 5.274 5.273z" fill="#f6b72c"/><path d="m15.305 58.969a5.28 5.28 0 0 1 -5.274-5.274 5.28 5.28 0 0 1 5.274-5.273 5.28 5.28 0 0 1 5.273 5.273 5.28 5.28 0 0 1 -5.273 5.274z" fill="#fff"/><path d="m63 25.336v5.273h-10.547v-5.273a5.266 5.266 0 0 1 5.274-5.273 5.266 5.266 0 0 1 5.273 5.272z" fill="#f49c53"/><path d="m63 25.336v5.273h-5.273v-10.547a5.266 5.266 0 0 1 5.273 5.275z" fill="#f16661"/><path d="m63 53.414v.281s0 .422-.176.774c-.773 1.511-2.742 5.484-3.515 7.03-.317.599-.914.985-1.582.985s-1.266-.386-1.582-.984c-.774-1.547-2.743-5.52-3.516-7.031a2.059 2.059 0 0 1 -.176-.774v-.281c1.547-.914 3.34-1.477 5.274-1.477 1.933 0 3.726.563 5.273 1.477z" fill="#fedbab"/><path d="m63 53.414v.281s0 .422-.176.774c-.773 1.511-2.742 5.484-3.515 7.03-.317.599-.914.985-1.582.985v-10.547c1.933 0 3.726.563 5.273 1.477z" fill="#fec478"/><path d="m171.99 18.693-49.283-17.938c-1.945-.707-4.099.309-4.811 2.267l-11.996 32.955c-.713 1.959.284 4.121 2.229 4.83l49.283 17.937c1.944.708 4.098-.309 4.811-2.267l11.995-32.955c.713-1.958-.284-4.121-2.23-4.83z" fill="#454545"/><path d="m128.31 6.813 41.236 15.008-11.995 32.955-41.235-15.008z" fill="#168de2"/><path d="m118.351 18.2a1.88 1.88 0 0 0 -2.406 1.133l-1.053 2.896a1.88 1.88 0 0 0 1.114 2.414 1.88 1.88 0 0 0 2.406-1.133l1.054-2.896a1.881 1.881 0 0 0 -1.115-2.414z" fill="#6f6f6f"/><path d="m128.31 6.813-3.79 10.412c-.625 1.719.25 3.614 1.955 4.235 1.706.62 3.594-.269 4.22-1.988l1.514-4.16c.524-1.439 2.119-2.184 3.544-1.658l.033.012c.063.024.127.045.19.064 1.44.425 2.215 1.983 1.697 3.404l-2.007 5.514c-.613 1.685.089 3.65 1.727 4.347 1.745.742 3.738-.15 4.384-1.924l.621-1.707c.526-1.446 2.12-2.192 3.553-1.66l.178.067.037.013c1.514.541 2.297 2.228 1.744 3.749l-.802 2.203c-.614 1.685.088 3.65 1.726 4.347 1.747.743 3.738-.15 4.383-1.922l2.896-7.955c.547-1.504 2.209-2.17 3.693-1.61l.037.014.037.014c1.499.525 2.342 2.102 1.795 3.606l-.937 2.573c-.613 1.685.089 3.65 1.727 4.347 1.745.742 3.738-.15 4.384-1.924l2.695-7.405z" fill="#3aa2eb"/><path d="m151.322 52.045c1.12.407 1.46-2.768 2.352-3.434l.094.836 1.258-2.05-4.976-11.739-1.355 1.176-4.581 12.587z" fill="#000" opacity=".1"/><path d="m159.18 50.3a1.863 1.863 0 0 0 -1.102-2.388 1.863 1.863 0 0 0 -2.38 1.121c-.125.346-.22.609-.346.953a.307.307 0 0 1 -.392.185.307.307 0 0 1 -.182-.394l.976-2.68a1.863 1.863 0 0 0 -1.102-2.389 1.863 1.863 0 0 0 -2.38 1.121l-1.667 4.58a.307.307 0 0 1 -.392.186.307.307 0 0 1 -.181-.394l1.667-4.58a1.863 1.863 0 0 0 -1.102-2.389 1.862 1.862 0 0 0 -2.38 1.121l-1.667 4.58a.307.307 0 0 1 -.392.186.307.307 0 0 1 -.182-.394s-.044.11 4.257-11.706a1.86 1.86 0 0 0 -1.103-2.387 1.86 1.86 0 0 0 -2.377 1.12l-3.437 9.443-2.133 5.862a.307.307 0 0 1 -.392.185.307.307 0 0 1 -.182-.394l2.028-5.572-.824-.3a1.861 1.861 0 0 0 -2.379 1.12l-3.866 10.622c.309 1.404 1.135 3.242 2.452 5.467a.31.31 0 0 1 .051.296l-.734 2.019 12.431 4.524c.062-.17.714-2.092.871-2.18 1.72-.98 3.033-2.138 3.695-3.26l2.629-7.24c.003-.009.014-.013.02-.021l2.192-6.025z" fill="#ffe38f"/><g fill="#fff" transform="matrix(.93969262 .34202014 -.34202014 .93969262 145.896297 34.100985)"><path d="m3.226.043c-.669 0-1.212.547-1.212 1.221v1.435h2.424v-1.435c0-.674-.543-1.221-1.212-1.221z"/><ellipse cx="2.012" cy="21.212" opacity=".35" rx="1.954" ry="1.969"/></g><path d="m157.742 54.253-7.542-2.745a1.07 1.07 0 0 0 -1.37.645 1.07 1.07 0 0 0 .635 1.374l1.34.487c.462.169.7.687.528 1.155l-.004.01c-.224.614-.692.78-1.122.623l-1.774-.646c-.542-.197-1.177.036-1.405.57-.242.57.042 1.22.612 1.428l.55.2c.464.169.704.688.53 1.157-.234.63-.776.815-1.239.646l-.709-.258c-.542-.197-1.177.036-1.405.57-.242.57.042 1.22.612 1.428l2.561.932c.484.176.696.717.513 1.203l-.005.013-.004.012c-.172.49-.682.768-1.166.592l-.828-.3c-.542-.198-1.177.035-1.403.57-.242.57.042 1.22.612 1.427l4.323 1.574c.023-.024.033-.058.063-.074 1.72-.98 3.03-2.14 3.694-3.26l2.629-7.24c.003-.01.015-.013.02-.021z" fill="#f9d98a"/><path d="m283.918 9.033h-13.917c-1.03 0-1.873.833-1.873 1.892v51.087c0 1.04.843 1.892 1.873 1.892h13.917a1.876 1.876 0 0 0 1.873-1.892v-51.087c0-1.06-.824-1.892-1.873-1.892zm-6.95 50.5c-2.322 0-4.214-1.91-4.214-4.257 0-2.346 1.892-4.257 4.215-4.257 2.322 0 4.214 1.91 4.214 4.257 0 2.346-1.892 4.257-4.214 4.257z" fill="#3aa2eb"/><path d="m268.128 10.925v51.087c0 1.027.824 1.863 1.836 1.884h6.065a1.907 1.907 0 0 0 1.895-1.914c0-1.056-.85-1.904-1.895-1.904h-5.142a1.587 1.587 0 0 1 -1.579-1.608v-.148a1.493 1.493 0 0 1 1.495-1.595h2.221a4.237 4.237 0 0 1 -.27-1.45c0-.88.267-1.7.722-2.38h-.257a1.598 1.598 0 0 1 -1.592-1.608l.013-.11v-.024a1.672 1.672 0 0 1 1.665-1.695h5.166c1.032 0 1.944-.774 2.004-1.805.049-1.105-.814-2.014-1.895-2.014h-6.236c-.912 0-1.592-.785-1.579-1.706v-.036c-.013-.933.67-1.707 1.58-1.707h7.814c1.02 0 1.933-.774 1.993-1.805.048-1.105-.815-2.013-1.896-2.013l-7.595-.002a1.904 1.904 0 0 1 -1.89-2.013c.054-1.033.972-1.809 1.997-1.809h5.742a1.906 1.906 0 0 0 1.842-1.91c0-1.055-.85-1.914-1.896-1.914h-7.573a1.587 1.587 0 0 1 -1.579-1.608v-.135a1.504 1.504 0 0 1 1.495-1.608h7.779c1.034 0 1.944-.774 2.004-1.805.049-1.105-.815-2.013-1.896-2.013h-5.469a1.606 1.606 0 0 1 -1.592-1.608c.148-1.327.811-1.83 1.676-1.83h4.56c1.031 0 1.944-.774 2.004-1.816.048-1.092-.815-2.014-1.896-2.014h-5.02c-.91 0-1.592-.774-1.579-1.693v-.025-.024c-.013-.922.669-1.694 1.58-1.694h4.776c1.02 0 1.933-.774 1.992-1.805.053-1.107-.81-2.015-1.891-2.015h-7.827c-1.03 0-1.873.833-1.873 1.892z" fill="#168de2"/><path d="m305.065 14.71h-13.917c-1.03 0-1.873.832-1.873 1.892v45.41c0 1.04.843 1.892 1.873 1.892h13.917c1.03 0 1.873-.852 1.873-1.892v-45.41c0-1.06-.843-1.892-1.873-1.892zm-6.968 44.823c-2.323 0-4.214-1.91-4.214-4.257 0-2.346 1.891-4.257 4.214-4.257 2.341 0 4.214 1.91 4.214 4.257 0 2.346-1.873 4.257-4.214 4.257z" fill="#ed6262"/><path d="m262.79 14.71h-13.917c-1.03 0-1.873.832-1.873 1.892v45.41c0 1.04.843 1.892 1.873 1.892h13.917c1.03 0 1.873-.852 1.873-1.892v-45.41c0-1.06-.843-1.892-1.873-1.892zm-6.968 44.823c-2.323 0-4.214-1.91-4.214-4.257 0-2.346 1.891-4.257 4.214-4.257 2.341 0 4.214 1.91 4.214 4.257 0 2.346-1.873 4.257-4.214 4.257z" fill="#ffcb5a"/><path d="m247 16.602v45.41c0 .719.416 1.324 1.002 1.644h5.342c.933 0 1.691-.766 1.691-1.708 0-.943-.758-1.698-1.69-1.698h-4.588c-.781 0-1.42-.645-1.409-1.434 0-1.073.607-1.555 1.334-1.555h3.435a4.229 4.229 0 0 1 -.51-1.985c0-.505.104-.982.265-1.432h-1.032c-.781 0-1.42-.636-1.42-1.434.13-1.18.72-1.633 1.497-1.633h4.61c.92 0 1.734-.69 1.788-1.61a1.703 1.703 0 0 0 -1.691-1.796h-5.563c-.813 0-1.42-.7-1.409-1.523v-.033c-.015-.832.594-1.522 1.407-1.522h6.973c.91 0 1.724-.691 1.778-1.61a1.703 1.703 0 0 0 -1.691-1.796l-6.775-.002a1.698 1.698 0 0 1 -1.686-1.796c.047-.921.867-1.614 1.781-1.614h5.125a1.701 1.701 0 0 0 1.643-1.703c0-.942-.759-1.708-1.692-1.708h-6.758c-.781 0-1.42-.645-1.409-1.434 0-1.065.613-1.555 1.334-1.555h6.94c.921 0 1.734-.691 1.789-1.61a1.703 1.703 0 0 0 -1.692-1.796h-4.88c-.848 0-1.494-.759-1.408-1.535 0-.921.705-1.534 1.486-1.534h4.066c.922 0 1.734-.689 1.789-1.622.043-.974-.727-1.795-1.692-1.795h-4.48c-.813 0-1.42-.69-1.408-1.512v-.021-.023c-.012-.82.595-1.512 1.408-1.512h4.261c.91 0 1.723-.69 1.778-1.61a1.702 1.702 0 0 0 -1.69-1.795h-6.076c-1.03 0-1.873.832-1.873 1.892z" fill="#f7bc52"/><path d="m289.275 16.602v45.41c0 .719.416 1.324 1.002 1.644h5.342c.933 0 1.691-.766 1.691-1.708 0-.943-.758-1.698-1.691-1.698h-4.587c-.781 0-1.42-.645-1.409-1.434 0-1.073.607-1.555 1.334-1.555h3.435a4.229 4.229 0 0 1 -.51-1.985c0-.505.104-.982.265-1.432h-1.032c-.781 0-1.42-.636-1.42-1.434l.011-.099v-.022a1.49 1.49 0 0 1 1.486-1.512h4.61c.92 0 1.734-.69 1.788-1.61a1.703 1.703 0 0 0 -1.691-1.796h-5.563c-.813 0-1.42-.7-1.409-1.523v-.033c-.011-.832.596-1.522 1.409-1.522h6.973c.91 0 1.723-.691 1.778-1.61a1.703 1.703 0 0 0 -1.692-1.796l-6.775-.002a1.698 1.698 0 0 1 -1.685-1.796c.048-.921.867-1.614 1.78-1.614h5.126a1.7 1.7 0 0 0 1.642-1.703c0-.942-.758-1.708-1.691-1.708h-6.756c-.781 0-1.42-.645-1.409-1.434v-.121a1.34 1.34 0 0 1 1.334-1.434h6.94c.921 0 1.734-.691 1.788-1.61a1.703 1.703 0 0 0 -1.69-1.796h-4.884c-.781 0-1.42-.647-1.42-1.436l.012-.099v-.022a1.49 1.49 0 0 1 1.485-1.512h4.066c.922 0 1.735-.689 1.789-1.622.043-.974-.727-1.795-1.691-1.795h-4.479c-.813 0-1.42-.69-1.408-1.512v-.021-.023c-.014-.82.593-1.512 1.406-1.512h4.261c.91 0 1.724-.69 1.778-1.61a1.702 1.702 0 0 0 -1.69-1.795h-6.076c-1.03 0-1.873.832-1.873 1.892z" fill="#e95353"/><path d="m255.822 49.694c-3.053 0-5.526 2.498-5.526 5.582s2.473 5.582 5.526 5.582c3.072 0 5.544-2.498 5.544-5.582s-2.472-5.582-5.544-5.582zm0 9.84c-2.323 0-4.214-1.912-4.214-4.258s1.891-4.257 4.214-4.257c2.341 0 4.214 1.91 4.214 4.257 0 2.346-1.873 4.257-4.214 4.257zm21.147-9.84c-3.053 0-5.526 2.498-5.526 5.582s2.473 5.582 5.526 5.582 5.525-2.498 5.525-5.582-2.472-5.582-5.525-5.582zm0 9.84c-2.323 0-4.215-1.912-4.215-4.258s1.892-4.257 4.215-4.257c2.322 0 4.214 1.91 4.214 4.257 0 2.346-1.892 4.257-4.214 4.257zm21.128-9.84c-3.053 0-5.526 2.498-5.526 5.582s2.473 5.582 5.526 5.582 5.544-2.498 5.544-5.582-2.49-5.582-5.544-5.582zm0 9.84c-2.323 0-4.214-1.912-4.214-4.258s1.891-4.257 4.214-4.257c2.341 0 4.214 1.91 4.214 4.257 0 2.346-1.873 4.257-4.214 4.257z" fill="#6f6f6f"/><path d="m249.682 18.125h12.297v21.182h-12.297z" fill="#f3f3f3"/><path d="m251.012 19.82h9.639v1.379h-9.64zm0 3.194h9.639v1.379h-9.64zm0 3.2h9.639v1.379h-9.64z" fill="#cacaca"/><path d="m270.81 18.125h12.297v21.182h-12.297z" fill="#f3f3f3"/><path d="m272.14 19.82h9.639v1.379h-9.64zm0 3.194h9.639v1.379h-9.64zm0 3.2h9.639v1.379h-9.64zm0 3.186h9.639v1.379h-9.64zm0 3.192h9.639v1.379h-9.64z" fill="#cacaca"/><path d="m291.957 18.125h12.297v21.182h-12.297z" fill="#f3f3f3"/><path d="m293.283 19.82h9.64v1.379h-9.64zm0 3.194h9.64v1.379h-9.64zm0 3.2h9.64v1.379h-9.64z" fill="#cacaca"/><path d="m240.92 68h-23.84c-3.358 0-6.08-2.748-6.08-6.14v-49.72c0-3.392 2.722-6.14 6.08-6.14h23.84c3.358 0 6.08 2.748 6.08 6.14v49.72c0 3.392-2.722 6.14-6.08 6.14z" fill="#38454f"/><path d="m214.176 12.414h29.647v45.966h-29.647z" fill="#546a79"/><path d="m217.353 20.966c.271 0 .542-.105.749-.314l4.235-4.276a1.075 1.075 0 0 0 0-1.511 1.05 1.05 0 0 0 -1.497 0l-4.236 4.276a1.075 1.075 0 0 0 0 1.511c.207.209.478.314.749.314zm0 5.344c.271 0 .542-.104.749-.313l2.117-2.138a1.075 1.075 0 0 0 0-1.511 1.05 1.05 0 0 0 -1.497 0l-2.118 2.138a1.075 1.075 0 0 0 0 1.511c.207.209.478.313.749.313zm3.483-6.103a1.1 1.1 0 0 0 -.307.759c0 .277.116.555.307.758.2.193.477.31.752.31.276 0 .55-.117.752-.31a1.13 1.13 0 0 0 .307-.758c0-.278-.116-.557-.307-.76-.402-.395-1.112-.395-1.504 0zm2.121-.624a1.05 1.05 0 0 0 1.497 0l3.177-3.207a1.075 1.075 0 0 0 0-1.511 1.05 1.05 0 0 0 -1.497 0l-3.177 3.207a1.075 1.075 0 0 0 0 1.511zm3.177.627-9.53 9.62a1.075 1.075 0 0 0 0 1.512 1.05 1.05 0 0 0 1.498 0l9.529-9.62a1.075 1.075 0 0 0 0-1.512 1.05 1.05 0 0 0 -1.497 0zm2.114-2.141a1.123 1.123 0 0 0 -.307.759c0 .278.116.555.307.759.2.192.477.31.752.31s.55-.118.752-.31a1.13 1.13 0 0 0 .307-.76c0-.277-.117-.556-.307-.758-.392-.396-1.112-.396-1.504 0zm4.677-3.204a1.05 1.05 0 0 0 -1.497 0l-1.059 1.069a1.075 1.075 0 0 0 0 1.511 1.05 1.05 0 0 0 1.497 0l1.06-1.069a1.075 1.075 0 0 0 0-1.511z" fill="#78909b"/><path d="m232.176 10.276h-6.352a1.063 1.063 0 0 1 -1.06-1.07c0-.59.474-1.068 1.06-1.068h6.352c.586 0 1.06.478 1.06 1.069s-.474 1.069-1.06 1.069zm9.53 0h-1.059a1.063 1.063 0 0 1 -1.059-1.07c0-.59.474-1.068 1.06-1.068h1.058c.585 0 1.059.478 1.059 1.069s-.474 1.069-1.06 1.069zm-4.236 0h-1.058a1.063 1.063 0 0 1 -1.06-1.07c0-.59.474-1.068 1.06-1.068h1.059c.585 0 1.058.478 1.058 1.069s-.473 1.069-1.058 1.069z" fill="#546a79"/><path d="m231.647 64.793h-5.294a1.6 1.6 0 0 1 -1.588-1.603 1.6 1.6 0 0 1 1.588-1.604h5.294a1.6 1.6 0 0 1 1.588 1.604 1.6 1.6 0 0 1 -1.588 1.603z" fill="#cbd4d8"/></g><g fill="#000" opacity=".3"><path d="m241.846 69c.483 0 .875.386.875.864a.869.869 0 0 1 -.875.863.87.87 0 0 1 -.875-.863.87.87 0 0 1 .875-.864m0 6.347c.483 0 .875.387.875.863a.87.87 0 0 1 -.875.864.87.87 0 0 1 -.875-.864c0-.476.392-.863.875-.863"/><path d="m1.046.642c.483 0 .875.387.875.864a.869.869 0 0 1 -.875.863.87.87 0 0 1 -.875-.863.87.87 0 0 1 .875-.864" mask="url(#a)" transform="translate(240.8 81.052)"/><path d="m291.484 69a.87.87 0 0 1 .876.864.87.87 0 0 1 -.876.863.869.869 0 0 1 -.874-.863c0-.478.391-.864.874-.864m0 6.347c.484 0 .876.387.876.863a.87.87 0 0 1 -.876.864.87.87 0 0 1 -.874-.864c0-.476.391-.863.874-.863"/><path d="m1.084.642a.87.87 0 0 1 .876.864.87.87 0 0 1 -.876.863.869.869 0 0 1 -.874-.863c0-.477.391-.864.874-.864" mask="url(#b)" transform="translate(290.4 81.052)"/><path d="m284.363 69a.87.87 0 0 1 .875.864.87.87 0 0 1 -.875.863.869.869 0 0 1 -.875-.863c0-.478.391-.864.875-.864m0 6.347c.483 0 .875.387.875.863a.87.87 0 0 1 -.875.864.87.87 0 0 1 -.875-.864c0-.476.391-.863.875-.863"/><path d="m1.163.642a.87.87 0 0 1 .875.864.87.87 0 0 1 -.875.863.869.869 0 0 1 -.875-.863c0-.477.391-.864.875-.864" mask="url(#c)" transform="translate(283.2 81.052)"/><path d="m277.24 69c.484 0 .875.386.875.864a.869.869 0 0 1 -.874.863.87.87 0 0 1 -.875-.863.87.87 0 0 1 .875-.864m-.001 6.347c.484 0 .875.387.875.863a.87.87 0 0 1 -.874.864.87.87 0 0 1 -.875-.864c0-.476.392-.863.875-.863"/><path d="m1.24.642c.484 0 .875.387.875.864a.869.869 0 0 1 -.874.863.87.87 0 0 1 -.875-.863.87.87 0 0 1 .875-.864" mask="url(#d)" transform="translate(276 81.052)"/><path d="m270.118 69a.87.87 0 0 1 .875.864.87.87 0 0 1 -.875.863.869.869 0 0 1 -.874-.863c0-.478.39-.864.874-.864m0 6.347c.483 0 .875.387.875.863a.87.87 0 0 1 -.875.864.87.87 0 0 1 -.874-.864c0-.476.39-.863.874-.863"/><path d="m1.318.642a.87.87 0 0 1 .875.864.87.87 0 0 1 -.875.863.869.869 0 0 1 -.874-.863c0-.477.39-.864.874-.864" mask="url(#e)" transform="translate(268.8 81.052)"/><path d="m263.429 69c.483 0 .874.386.874.864a.869.869 0 0 1 -.874.863.869.869 0 0 1 -.874-.863c0-.478.39-.864.874-.864m0 6.347c.483 0 .874.387.874.863a.87.87 0 0 1 -.874.864.87.87 0 0 1 -.874-.864c0-.476.39-.863.874-.863"/><path d="m1.029.642c.483 0 .874.387.874.864a.869.869 0 0 1 -.874.863.869.869 0 0 1 -.874-.863c0-.477.39-.864.874-.864" mask="url(#f)" transform="translate(262.4 81.052)"/><path d="m256.307 69c.483 0 .875.386.875.864a.869.869 0 0 1 -.875.863.87.87 0 0 1 -.875-.863.87.87 0 0 1 .875-.864m0 6.347c.483 0 .875.387.875.863a.87.87 0 0 1 -.875.864.87.87 0 0 1 -.875-.864c0-.476.392-.863.875-.863"/><path d="m1.107.642c.483 0 .875.387.875.864a.869.869 0 0 1 -.875.863.87.87 0 0 1 -.875-.863.87.87 0 0 1 .875-.864" mask="url(#g)" transform="translate(255.2 81.052)"/><path d="m249.184 69a.87.87 0 0 1 .876.864.87.87 0 0 1 -.876.863.869.869 0 0 1 -.874-.863c0-.478.391-.864.874-.864m0 6.347c.484 0 .876.387.876.863a.87.87 0 0 1 -.876.864.87.87 0 0 1 -.874-.864c0-.476.391-.863.874-.863"/><path d="m1.184.642a.87.87 0 0 1 .876.864.87.87 0 0 1 -.876.863.869.869 0 0 1 -.874-.863c0-.477.391-.864.874-.864" mask="url(#h)" transform="translate(248 81.052)"/><path d="m306.417 69c.483 0 .875.386.875.864a.869.869 0 0 1 -.875.863.87.87 0 0 1 -.875-.863.87.87 0 0 1 .875-.864m0 6.347c.483 0 .875.387.875.863a.87.87 0 0 1 -.875.864.87.87 0 0 1 -.875-.864c0-.476.392-.863.875-.863"/><path d="m1.617.642c.483 0 .875.387.875.864a.869.869 0 0 1 -.875.863.87.87 0 0 1 -.875-.863.87.87 0 0 1 .875-.864" mask="url(#i)" transform="translate(304.8 81.052)"/><path d="m299.295 69a.87.87 0 0 1 .875.864.87.87 0 0 1 -.875.863.869.869 0 0 1 -.875-.863c0-.478.391-.864.875-.864m0 6.347c.483 0 .875.387.875.863a.87.87 0 0 1 -.875.864.87.87 0 0 1 -.875-.864c0-.476.391-.863.875-.863"/><path d="m.895.642a.87.87 0 0 1 .875.864.87.87 0 0 1 -.875.863.869.869 0 0 1 -.875-.863c0-.477.391-.864.875-.864" mask="url(#j)" transform="translate(298.4 81.052)"/><path d="m227.602 69a.87.87 0 0 1 .875.864.87.87 0 0 1 -.875.863.869.869 0 0 1 -.875-.863c0-.478.391-.864.875-.864m0 6.347c.483 0 .875.387.875.863a.87.87 0 0 1 -.875.864.87.87 0 0 1 -.875-.864c0-.476.391-.863.875-.863"/><path d="m1.202.642a.87.87 0 0 1 .875.864.87.87 0 0 1 -.875.863.869.869 0 0 1 -.875-.863c0-.477.391-.864.875-.864" mask="url(#k)" transform="translate(226.4 81.052)"/><path d="m234.94 69c.484 0 .875.386.875.864a.869.869 0 0 1 -.874.863.87.87 0 0 1 -.875-.863.87.87 0 0 1 .875-.864m-.001 6.347c.484 0 .875.387.875.863a.87.87 0 0 1 -.874.864.87.87 0 0 1 -.875-.864c0-.476.392-.863.875-.863"/><path d="m1.34.642c.484 0 .875.387.875.864a.869.869 0 0 1 -.874.863.87.87 0 0 1 -.875-.863.87.87 0 0 1 .875-.864" mask="url(#l)" transform="translate(233.6 81.052)"/><path d="m213.357 69a.87.87 0 0 1 .875.864.87.87 0 0 1 -.875.863.869.869 0 0 1 -.874-.863c0-.478.39-.864.874-.864m0 6.347c.483 0 .875.387.875.863a.87.87 0 0 1 -.875.864.87.87 0 0 1 -.874-.864c0-.476.39-.863.874-.863"/><path d="m1.357.642a.87.87 0 0 1 .875.864.87.87 0 0 1 -.875.863.869.869 0 0 1 -.874-.863c0-.477.39-.864.874-.864" mask="url(#m)" transform="translate(212 81.052)"/><path d="m220.696 69c.483 0 .875.386.875.864a.869.869 0 0 1 -.875.863.87.87 0 0 1 -.875-.863.87.87 0 0 1 .875-.864m0 6.347c.483 0 .875.387.875.863a.87.87 0 0 1 -.875.864.87.87 0 0 1 -.875-.864c0-.476.392-.863.875-.863"/><path d="m1.496.642c.483 0 .875.387.875.864a.869.869 0 0 1 -.875.863.87.87 0 0 1 -.875-.863.87.87 0 0 1 .875-.864" mask="url(#n)" transform="translate(219.2 81.052)"/><path d="m199.113 69c.484 0 .875.386.875.864a.869.869 0 0 1 -.875.863.87.87 0 0 1 -.875-.863.87.87 0 0 1 .875-.864m0 6.347c.484 0 .875.387.875.863a.87.87 0 0 1 -.875.864.87.87 0 0 1 -.875-.864c0-.476.392-.863.875-.863"/><path d="m1.513.642c.484 0 .875.387.875.864a.869.869 0 0 1 -.875.863.87.87 0 0 1 -.875-.863.87.87 0 0 1 .875-.864" mask="url(#o)" transform="translate(197.6 81.052)"/><path d="m206.452 69a.87.87 0 0 1 .875.864.87.87 0 0 1 -.875.863.869.869 0 0 1 -.875-.863c0-.478.391-.864.875-.864m0 6.347c.483 0 .875.387.875.863a.87.87 0 0 1 -.875.864.87.87 0 0 1 -.875-.864c0-.476.391-.863.875-.863"/><path d="m1.652.642a.87.87 0 0 1 .875.864.87.87 0 0 1 -.875.863.869.869 0 0 1 -.875-.863c0-.477.391-.864.875-.864" mask="url(#p)" transform="translate(204.8 81.052)"/><path d="m184.869 69c.483 0 .874.386.874.864a.869.869 0 0 1 -.874.863.87.87 0 0 1 -.875-.863.87.87 0 0 1 .875-.864m0 6.347c.483 0 .874.387.874.863a.87.87 0 0 1 -.874.864.87.87 0 0 1 -.875-.864c0-.476.392-.863.875-.863"/><path d="m1.669.642c.483 0 .874.387.874.864a.869.869 0 0 1 -.874.863.87.87 0 0 1 -.875-.863.87.87 0 0 1 .875-.864" mask="url(#q)" transform="translate(183.2 81.052)"/><path d="m192.207 69a.87.87 0 0 1 .875.864.87.87 0 0 1 -.875.863.869.869 0 0 1 -.874-.863c0-.478.39-.864.874-.864m0 6.347c.483 0 .875.387.875.863a.87.87 0 0 1 -.875.864.87.87 0 0 1 -.874-.864c0-.476.39-.863.874-.863"/><path d="m1.007.642a.87.87 0 0 1 .875.864.87.87 0 0 1 -.875.863.869.869 0 0 1 -.874-.863c0-.477.39-.864.874-.864" mask="url(#r)" transform="translate(191.2 81.052)"/><path d="m170.624 69a.87.87 0 0 1 .876.864.87.87 0 0 1 -.876.863.869.869 0 0 1 -.874-.863c0-.478.391-.864.874-.864m0 6.347c.484 0 .876.387.876.863a.87.87 0 0 1 -.876.864.87.87 0 0 1 -.874-.864c0-.476.391-.863.874-.863"/><path d="m1.024.642a.87.87 0 0 1 .876.864.87.87 0 0 1 -.876.863.869.869 0 0 1 -.874-.863c0-.477.391-.864.874-.864" mask="url(#s)" transform="translate(169.6 81.052)"/><path d="m177.963 69c.484 0 .875.386.875.864a.869.869 0 0 1 -.875.863.87.87 0 0 1 -.875-.863.87.87 0 0 1 .875-.864m0 6.347c.484 0 .875.387.875.863a.87.87 0 0 1 -.875.864.87.87 0 0 1 -.875-.864c0-.476.392-.863.875-.863"/><path d="m1.163.642c.484 0 .875.387.875.864a.869.869 0 0 1 -.875.863.87.87 0 0 1 -.875-.863.87.87 0 0 1 .875-.864" mask="url(#t)" transform="translate(176.8 81.052)"/><path d="m156.38 69a.87.87 0 0 1 .875.864.87.87 0 0 1 -.875.863.869.869 0 0 1 -.875-.863c0-.478.392-.864.875-.864m0 6.347c.483 0 .875.387.875.863a.87.87 0 0 1 -.875.864.87.87 0 0 1 -.875-.864c0-.476.392-.863.875-.863"/><path d="m1.18.642a.87.87 0 0 1 .875.864.87.87 0 0 1 -.875.863.869.869 0 0 1 -.875-.863c0-.477.392-.864.875-.864" mask="url(#u)" transform="translate(155.2 81.052)"/><path d="m163.719 69c.483 0 .874.386.874.864a.869.869 0 0 1 -.874.863.87.87 0 0 1 -.875-.863.87.87 0 0 1 .875-.864m0 6.347c.483 0 .874.387.874.863a.87.87 0 0 1 -.874.864.87.87 0 0 1 -.875-.864c0-.476.392-.863.875-.863"/><path d="m1.319.642c.483 0 .874.387.874.864a.869.869 0 0 1 -.874.863.87.87 0 0 1 -.875-.863.87.87 0 0 1 .875-.864" mask="url(#v)" transform="translate(162.4 81.052)"/><path d="m142.136 69c.483 0 .874.386.874.864a.869.869 0 0 1 -.874.863.87.87 0 0 1 -.875-.863.87.87 0 0 1 .875-.864m0 6.347c.483 0 .874.387.874.863a.87.87 0 0 1 -.874.864.87.87 0 0 1 -.875-.864c0-.476.392-.863.875-.863"/><path d="m1.336.642c.483 0 .874.387.874.864a.869.869 0 0 1 -.874.863.87.87 0 0 1 -.875-.863.87.87 0 0 1 .875-.864" mask="url(#w)" transform="translate(140.8 81.052)"/><path d="m149.474 69a.87.87 0 0 1 .876.864.87.87 0 0 1 -.876.863.869.869 0 0 1 -.874-.863c0-.478.391-.864.874-.864m0 6.347c.484 0 .876.387.876.863a.87.87 0 0 1 -.876.864.87.87 0 0 1 -.874-.864c0-.476.391-.863.874-.863"/><path d="m1.474.642a.87.87 0 0 1 .876.864.87.87 0 0 1 -.876.863.869.869 0 0 1 -.874-.863c0-.477.391-.864.874-.864" mask="url(#x)" transform="translate(148 81.052)"/><path d="m127.891 69c.484 0 .875.386.875.864a.869.869 0 0 1 -.875.863.869.869 0 0 1 -.874-.863c0-.478.391-.864.874-.864m0 6.347c.484 0 .875.387.875.863a.87.87 0 0 1 -.875.864.87.87 0 0 1 -.874-.864c0-.476.391-.863.874-.863"/><path d="m1.491.642c.484 0 .875.387.875.864a.869.869 0 0 1 -.875.863.869.869 0 0 1 -.874-.863c0-.477.391-.864.874-.864" mask="url(#y)" transform="translate(126.4 81.052)"/><path d="m135.23 69a.87.87 0 0 1 .875.864.87.87 0 0 1 -.875.863.869.869 0 0 1 -.875-.863c0-.478.392-.864.875-.864m0 6.347c.483 0 .875.387.875.863a.87.87 0 0 1 -.875.864.87.87 0 0 1 -.875-.864c0-.476.392-.863.875-.863"/><path d="m1.63.642a.87.87 0 0 1 .875.864.87.87 0 0 1 -.875.863.869.869 0 0 1 -.875-.863c0-.477.392-.864.875-.864" mask="url(#z)" transform="translate(133.6 81.052)"/><path d="m113.647 69a.87.87 0 0 1 .875.864.87.87 0 0 1 -.875.863.869.869 0 0 1 -.874-.863c0-.478.39-.864.874-.864m0 6.347c.483 0 .875.387.875.863a.87.87 0 0 1 -.875.864.87.87 0 0 1 -.874-.864c0-.476.39-.863.874-.863"/><path d="m1.647.642a.87.87 0 0 1 .875.864.87.87 0 0 1 -.875.863.869.869 0 0 1 -.874-.863c0-.477.39-.864.874-.864" mask="url(#A)" transform="translate(112 81.052)"/><path d="m120.986 69c.483 0 .874.386.874.864a.869.869 0 0 1 -.874.863.87.87 0 0 1 -.875-.863.87.87 0 0 1 .875-.864m0 6.347c.483 0 .874.387.874.863a.87.87 0 0 1 -.874.864.87.87 0 0 1 -.875-.864c0-.476.392-.863.875-.863"/><path d="m.986.642c.483 0 .874.387.874.864a.869.869 0 0 1 -.874.863.87.87 0 0 1 -.875-.863.87.87 0 0 1 .875-.864" mask="url(#B)" transform="translate(120 81.052)"/><path d="m99.403 69c.483 0 .875.386.875.864a.869.869 0 0 1 -.875.863.87.87 0 0 1 -.875-.863.87.87 0 0 1 .875-.864m0 6.347c.483 0 .875.387.875.863a.87.87 0 0 1 -.875.864.87.87 0 0 1 -.875-.864c0-.476.392-.863.875-.863"/><path d="m1.003.642c.483 0 .875.387.875.864a.869.869 0 0 1 -.875.863.87.87 0 0 1 -.875-.863.87.87 0 0 1 .875-.864" mask="url(#C)" transform="translate(98.4 81.052)"/><path d="m106.741 69c.484 0 .875.386.875.864a.869.869 0 0 1 -.875.863.869.869 0 0 1 -.874-.863c0-.478.391-.864.874-.864m0 6.347c.484 0 .875.387.875.863a.87.87 0 0 1 -.875.864.87.87 0 0 1 -.874-.864c0-.476.391-.863.874-.863"/><path d="m1.141.642c.484 0 .875.387.875.864a.869.869 0 0 1 -.875.863.869.869 0 0 1 -.874-.863c0-.477.391-.864.874-.864" mask="url(#D)" transform="translate(105.6 81.052)"/><path d="m85.159 69c.483 0 .874.386.874.864a.869.869 0 0 1 -.874.863.87.87 0 0 1 -.876-.863.87.87 0 0 1 .876-.864m0 6.347c.483 0 .874.387.874.863a.87.87 0 0 1 -.874.864.87.87 0 0 1 -.876-.864c0-.476.392-.863.876-.863"/><path d="m1.159.642c.483 0 .874.387.874.864a.869.869 0 0 1 -.874.863.87.87 0 0 1 -.876-.863.87.87 0 0 1 .876-.864" mask="url(#E)" transform="translate(84 81.052)"/><path d="m92.497 69a.87.87 0 0 1 .875.864.87.87 0 0 1 -.875.863.869.869 0 0 1 -.874-.863c0-.478.39-.864.874-.864m0 6.347c.483 0 .875.387.875.863a.87.87 0 0 1 -.875.864.87.87 0 0 1 -.874-.864c0-.476.39-.863.874-.863"/><path d="m1.297.642a.87.87 0 0 1 .875.864.87.87 0 0 1 -.875.863.869.869 0 0 1 -.874-.863c0-.477.39-.864.874-.864" mask="url(#F)" transform="translate(91.2 81.052)"/><path d="m70.914 69c.483 0 .875.386.875.864a.869.869 0 0 1 -.875.863.869.869 0 0 1 -.874-.863c0-.478.391-.864.874-.864m0 6.347c.483 0 .875.387.875.863a.87.87 0 0 1 -.875.864.87.87 0 0 1 -.874-.864c0-.476.391-.863.874-.863"/><path d="m1.314.642c.483 0 .875.387.875.864a.869.869 0 0 1 -.875.863.869.869 0 0 1 -.874-.863c0-.477.391-.864.874-.864" mask="url(#G)" transform="translate(69.6 81.052)"/><path d="m78.253 69c.483 0 .874.386.874.864a.869.869 0 0 1 -.874.863.869.869 0 0 1 -.875-.863c0-.478.392-.864.875-.864m0 6.347c.483 0 .874.387.874.863a.87.87 0 0 1 -.874.864.87.87 0 0 1 -.875-.864c0-.476.392-.863.875-.863"/><path d="m1.453.642c.483 0 .874.387.874.864a.869.869 0 0 1 -.874.863.869.869 0 0 1 -.875-.863c0-.477.392-.864.875-.864" mask="url(#H)" transform="translate(76.8 81.052)"/><path d="m56.67 69c.483 0 .874.386.874.864a.869.869 0 0 1 -.874.863.869.869 0 0 1 -.874-.863c0-.478.39-.864.874-.864m0 6.347c.483 0 .874.387.874.863a.87.87 0 0 1 -.874.864.87.87 0 0 1 -.874-.864c0-.476.39-.863.874-.863"/><path d="m1.47.642c.483 0 .874.387.874.864a.869.869 0 0 1 -.874.863.869.869 0 0 1 -.874-.863c0-.477.39-.864.874-.864" mask="url(#I)" transform="translate(55.2 81.052)"/><path d="m64.008 69a.87.87 0 0 1 .875.864.87.87 0 0 1 -.875.863.869.869 0 0 1 -.874-.863c0-.478.391-.864.874-.864m0 6.347c.483 0 .875.387.875.863a.87.87 0 0 1 -.875.864.87.87 0 0 1 -.874-.864c0-.476.391-.863.874-.863"/><path d="m1.608.642a.87.87 0 0 1 .875.864.87.87 0 0 1 -.875.863.869.869 0 0 1 -.874-.863c0-.477.391-.864.874-.864" mask="url(#J)" transform="translate(62.4 81.052)"/><path d="m42.425 69c.484 0 .875.386.875.864a.869.869 0 0 1 -.875.863.869.869 0 0 1 -.874-.863c0-.478.391-.864.874-.864m0 6.347c.484 0 .875.387.875.863a.87.87 0 0 1 -.875.864.87.87 0 0 1 -.874-.864c0-.476.391-.863.874-.863"/><path d="m1.625.642c.484 0 .875.387.875.864a.869.869 0 0 1 -.875.863.869.869 0 0 1 -.874-.863c0-.477.391-.864.874-.864" mask="url(#K)" transform="translate(40.8 81.052)"/><path d="m49.764 69c.483 0 .875.386.875.864a.869.869 0 0 1 -.875.863.869.869 0 0 1 -.874-.863c0-.478.391-.864.874-.864m0 6.347c.483 0 .875.387.875.863a.87.87 0 0 1 -.875.864.87.87 0 0 1 -.874-.864c0-.476.391-.863.874-.863"/><path d="m.964.642c.483 0 .875.387.875.864a.869.869 0 0 1 -.875.863.869.869 0 0 1 -.874-.863c0-.477.391-.864.874-.864" mask="url(#L)" transform="translate(48.8 81.052)"/><path d="m28.181 69c.484 0 .875.386.875.864a.869.869 0 0 1 -.875.863.869.869 0 0 1 -.874-.863c0-.478.391-.864.874-.864m0 6.347c.484 0 .875.387.875.863a.87.87 0 0 1 -.875.864.87.87 0 0 1 -.874-.864c0-.476.391-.863.874-.863"/><path d="m.981.642c.484 0 .875.387.875.864a.869.869 0 0 1 -.875.863.869.869 0 0 1 -.874-.863c0-.477.391-.864.874-.864" mask="url(#M)" transform="translate(27.2 81.052)"/><path d="m35.52 69c.483 0 .874.386.874.864a.869.869 0 0 1 -.874.863.869.869 0 0 1 -.874-.863c0-.478.39-.864.874-.864m0 6.347c.483 0 .874.387.874.863a.87.87 0 0 1 -.874.864.87.87 0 0 1 -.874-.864c0-.476.39-.863.874-.863"/><path d="m1.12.642c.483 0 .874.387.874.864a.869.869 0 0 1 -.874.863.869.869 0 0 1 -.874-.863c0-.477.39-.864.874-.864" mask="url(#N)" transform="translate(34.4 81.052)"/><path d="m13.937 69c.483 0 .874.386.874.864a.869.869 0 0 1 -.874.863.869.869 0 0 1 -.875-.863c0-.478.392-.864.875-.864m0 6.347c.483 0 .874.387.874.863a.87.87 0 0 1 -.874.864.87.87 0 0 1 -.875-.864c0-.476.392-.863.875-.863"/><path d="m1.137.642c.483 0 .874.387.874.864a.869.869 0 0 1 -.874.863.869.869 0 0 1 -.875-.863c0-.477.392-.864.875-.864" mask="url(#O)" transform="translate(12.8 81.052)"/><path d="m21.275 69c.484 0 .875.386.875.864a.869.869 0 0 1 -.875.863.869.869 0 0 1 -.874-.863c0-.478.391-.864.874-.864m0 6.347c.484 0 .875.387.875.863a.87.87 0 0 1 -.875.864.87.87 0 0 1 -.874-.864c0-.476.391-.863.874-.863"/><path d="m1.275.642c.484 0 .875.387.875.864a.869.869 0 0 1 -.875.863.869.869 0 0 1 -.874-.863c0-.477.391-.864.874-.864" mask="url(#P)" transform="translate(20 81.052)"/><path d="m.99 69c.484 0 .875.386.875.864a.869.869 0 0 1 -.874.863.869.869 0 0 1 -.875-.863c0-.478.392-.864.875-.864m-.001 6.347c.484 0 .875.387.875.863a.87.87 0 0 1 -.874.864.87.87 0 0 1 -.875-.864c0-.476.392-.863.875-.863"/><path d="m.99.642c.484 0 .875.387.875.864a.869.869 0 0 1 -.874.863.869.869 0 0 1 -.875-.863c0-.477.392-.864.875-.864" mask="url(#Q)" transform="translate(0 81.052)"/><path d="m7.031 69c.484 0 .875.386.875.864a.869.869 0 0 1 -.875.863.869.869 0 0 1 -.874-.863c0-.478.391-.864.874-.864m0 6.347c.484 0 .875.387.875.863a.87.87 0 0 1 -.875.864.87.87 0 0 1 -.874-.864c0-.476.391-.863.874-.863"/><path d="m1.431.642c.484 0 .875.387.875.864a.869.869 0 0 1 -.875.863.869.869 0 0 1 -.874-.863c0-.477.391-.864.874-.864" mask="url(#R)" transform="translate(5.6 81.052)"/></g></g></svg>