<svg height="92" viewBox="0 0 100 92" width="100" xmlns="http://www.w3.org/2000/svg" xmlns:xlink="http://www.w3.org/1999/xlink"><mask id="a" fill="#fff"><path d="m35.887 4.894c-3.97 3.494-9.635 6.347-17.553 6.347-8.325 0-14.122-3.13-18.069-6.839v-4.322h35.622v4.815z" fill="none"/></mask><g fill="none" fill-rule="evenodd"><path d="m92.34 46c0 25.404-20.671 46-46.17 46s-46.17-20.596-46.17-46c0-25.405 20.671-46 46.17-46 25.5 0 46.17 20.595 46.17 46" fill="#ffd21f"/><path d="m25.106 47.06c-1.872 0-3.404-1.518-3.404-3.372v-8.095c0-1.854 1.532-3.372 3.404-3.372 1.873 0 3.405 1.518 3.405 3.372v8.095c0 1.854-1.532 3.372-3.405 3.372m42.128 0c-1.873 0-3.404-1.518-3.404-3.372v-8.095c0-1.854 1.531-3.372 3.404-3.372s3.404 1.518 3.404 3.372v8.095c0 1.854-1.531 3.372-3.404 3.372m-44.965 10.736c-1.001.003-1.692 1.02-1.312 1.95 1.972 4.83 8.559 16.991 24.897 16.991 16.33 0 23.066-12.245 25.1-17.118.39-.934-.307-1.963-1.316-1.96l-47.37.137z" fill="#403408"/><path d="m35.887 9.705c0 5.316-7.974 9.625-17.81 9.625-9.839 0-17.813-4.31-17.813-9.625.001-5.316 7.975-9.626 17.812-9.626s17.81 4.31 17.81 9.626" fill="#ff5a58" mask="url(#a)" transform="translate(27.66 65.29)"/><path d="m45.957 35.43c.822 0 2.29.115 2.29 1.698.042 1.669.44 3.546 1.195 5.652 3.253 9.068 7.752 10.443 15.23 10.188 2.694-.092 5.952-.047 8.23-1.921 2.09-1.72 3.582-4.614 4.99-9.678.481-1.73.74-3.297.777-4.711.088-1.048 1.207-1.634 2.06-1.932.584-.202.973-.75.973-1.365v-2.621c0-.654-.424-1.234-1.05-1.435-2.8-.898-7.916-2.389-17.234-2.145-7.569.199-14.901 1.505-17.46 1.505-2.56 0-9.893-1.306-17.46-1.505-9.32-.244-14.434 1.247-17.235 2.145a1.51 1.51 0 0 0 -1.05 1.435v2.621c0 .614.389 1.162.972 1.365.854.298 1.973.884 2.06 1.932.038 1.414.297 2.98.778 4.71 1.408 5.065 2.9 7.96 4.99 9.679 2.278 1.874 5.536 1.829 8.23 1.92 7.477.255 11.977-1.12 15.23-10.187.756-2.106 1.153-3.983 1.194-5.652 0-1.583 1.469-1.697 2.29-1.697" fill="#2f2f2f"/><path d="m28.285 30.16c-7.13-.262-14.606-.086-11.315 10.393 2.975 9.475 5.708 9.233 10.314 9.434 4.607.202 9.226-.046 12.117-8.223 3.076-8.698-.813-11.226-11.116-11.604m35.345 0c7.13-.262 14.606-.086 11.315 10.393-2.976 9.475-5.708 9.233-10.314 9.434-4.607.202-9.226-.046-12.117-8.223-3.076-8.698.813-11.226 11.115-11.604" fill="#2fa7bf"/><path d="m99.884 64.126c-.93-.984-1.307-2.577-1.458-3.572a.42.42 0 0 0 -.714-.227c-.72.718-1.982 1.788-3.326 2.05a.408.408 0 0 0 -.228.685c.93.985 1.308 2.578 1.459 3.572a.42.42 0 0 0 .714.227c.72-.717 1.982-1.787 3.325-2.049a.408.408 0 0 0 .228-.686" fill="#fff"/></g></svg>