<svg xmlns="http://www.w3.org/2000/svg" width="73" height="81" viewBox="0 0 73 81"><g fill="none" fill-rule="evenodd"><g transform="translate(32)"><g fill="#000" opacity=".1"><path d="M40 18a1 1 0 1 1 0 2 1 1 0 0 1 0-2M40 25a1 1 0 1 1 .001 1.999A1 1 0 0 1 40 25M40 31a1 1 0 1 1 .001 1.999A1 1 0 0 1 40 31M40 12a1 1 0 1 1 0 2 1 1 0 0 1 0-2M40 0a1 1 0 1 1 0 2 1 1 0 0 1 0-2M40 6a1 1 0 1 1 .001 1.999A1 1 0 0 1 40 6M28 18a1 1 0 1 1 0 2 1 1 0 0 1 0-2M28 25a1 1 0 1 1 0 2 1 1 0 0 1 0-2M28 31a1 1 0 1 1 0 2 1 1 0 0 1 0-2M28 12a1 1 0 1 1 0 2.001A1 1 0 0 1 28 12M28 0a1 1 0 1 1 0 2 1 1 0 0 1 0-2M28 6a1 1 0 1 1 0 2 1 1 0 0 1 0-2M34 18a1 1 0 1 1 0 1.999A1 1 0 0 1 34 18M34 25a1 1 0 1 1 .001 1.998 1 1 0 0 1 0-1.998M34 31a1 1 0 1 1 .001 1.998 1 1 0 0 1 0-1.998M34 12a1 1 0 1 1 0 2 1 1 0 0 1 0-2M34 0a1 1 0 1 1 0 1.999A1 1 0 0 1 34 0M34 6a1 1 0 1 1 .001 1.998 1 1 0 0 1 0-1.998M15 18a1 1 0 1 1 0 1.999A1 1 0 0 1 15 18M15 25a1 1 0 1 1 .001 1.998 1 1 0 0 1 0-1.998M15 31a1 1 0 1 1 .001 1.998 1 1 0 0 1 0-1.998M15 12a1 1 0 1 1 0 2 1 1 0 0 1 0-2M15 0a1 1 0 1 1 0 1.999A1 1 0 0 1 15 0M15 6a1 1 0 1 1 .001 1.998 1 1 0 0 1 0-1.998M22 18a1 1 0 1 1 0 2 1 1 0 0 1 0-2M22 25a1 1 0 1 1 .001 1.999A1 1 0 0 1 22 25M22 31a1 1 0 1 1 .001 1.999A1 1 0 0 1 22 31M22 12a1 1 0 1 1 0 2 1 1 0 0 1 0-2M22 0a1 1 0 1 1 0 2 1 1 0 0 1 0-2M22 6a1 1 0 1 1 .001 1.999A1 1 0 0 1 22 6M1 18a1 1 0 1 1 0 1.999A1 1 0 0 1 1 18M1 25a1 1 0 1 1 .001 1.998 1 1 0 0 1 0-1.998M1 31a1 1 0 1 1 .001 1.998 1 1 0 0 1 0-1.998M1 12a1 1 0 1 1 0 2 1 1 0 0 1 0-2M1 0a1 1 0 1 1 0 1.999A1 1 0 0 1 1 0M1 6a1 1 0 1 1 .001 1.998 1 1 0 0 1 0-1.998M8 18a1 1 0 1 1 0 2 1 1 0 0 1 0-2M8 25a1 1 0 1 1 0 2 1 1 0 0 1 0-2M8 31a1 1 0 1 1 0 2 1 1 0 0 1 0-2M8 12a1 1 0 1 1 0 2.001A1 1 0 0 1 8 12M8 0a1 1 0 1 1 0 2 1 1 0 0 1 0-2M8 6a1 1 0 1 1 0 2 1 1 0 0 1 0-2M40 44a1 1 0 1 1 .001 1.999A1 1 0 0 1 40 44M40 38a1 1 0 1 1 .001 1.999A1 1 0 0 1 40 38M28 44a1 1 0 1 1 0 2 1 1 0 0 1 0-2M28 38a1 1 0 1 1 0 2 1 1 0 0 1 0-2M34 44a1 1 0 1 1 .001 1.998 1 1 0 0 1 0-1.998M34 38a1 1 0 1 1 .001 1.998 1 1 0 0 1 0-1.998M15 44a1 1 0 1 1 .001 1.998 1 1 0 0 1 0-1.998M15 38a1 1 0 1 1 .001 1.998 1 1 0 0 1 0-1.998M22 44a1 1 0 1 1 .001 1.999A1 1 0 0 1 22 44M22 38a1 1 0 1 1 .001 1.999A1 1 0 0 1 22 38M1 44a1 1 0 1 1 .001 1.998 1 1 0 0 1 0-1.998M1 38a1 1 0 1 1 .001 1.998 1 1 0 0 1 0-1.998M8 44a1 1 0 1 1 0 2 1 1 0 0 1 0-2M8 38a1 1 0 1 1 0 2 1 1 0 0 1 0-2"/></g><circle cx="22.5" cy="12.5" r="1.5" fill="#F6B72C"/><circle cx="39.5" cy="25.5" r="1.5" fill="#F6B72C"/><circle cx="28" cy="32" r="1" fill="#F6B72C"/></g><g transform="translate(0 11)"><path fill="#DC5574" d="M28 40c-.636-1.19-1.605-3.414-2.032-4.684-.302-.898-.302-.898-.635-1.61-2.98-.96-4.967 2.148-7.438 3.204-1.376.59-3.216.117-3.901-.58-.555-.564-.834.069-1.183.795-.287.598-.5 1.23-.79 1.827l-4.304 8.851H32L28 40z"/><path fill="#F2AE3F" d="M36.734 56.298l-8.88-17.08c-3.364-1.148-6.846 1.555-9.366 3.395-3.944 2.879-7.454 3.834-9.68 2.866L3.184 56.298h33.551"/><path fill="#54BADE" d="M33.27 49.635c.41 1.938-2.599 8.006-11.082 1.74-5.912-4.365-13.2-6.24-17.205 1.462L1.471 59.59c-2.393 4.602.949 10.102 6.139 10.102H32.5c5.103 0 8.388-5.406 6.036-9.931L33.27 49.635 15.659 27.233"/><path fill="#208DBF" d="M36.694 56.22c-5.975 5.975-14.343 9.694-23.614 9.694-4.364 0-8.525-.83-12.335-2.324.4 3.287 3.152 6.103 6.865 6.103H32.5c5.103 0 8.388-5.406 6.036-9.931l-1.842-3.542"/><path fill="#FAD194" d="M23.74 47.19a2.57 2.57 0 1 1 5.142.003 2.57 2.57 0 0 1-5.141-.002"/><path fill="#54BADE" d="M18.152 14.693a1.716 1.716 0 1 1 3.432 0 1.716 1.716 0 0 1-3.432 0"/><path fill="#DC5574" d="M18.152 1.716a1.716 1.716 0 1 1 3.432 0 1.716 1.716 0 0 1-3.432 0"/><path fill="#F2AE3F" d="M13.606 10.232a1.716 1.716 0 1 1 3.432 0 1.716 1.716 0 0 1-3.432 0"/><path fill="#9BD2E8" d="M12.897 61.48a4.548 4.548 0 0 1-4.55-4.547 4.548 4.548 0 0 1 4.55-4.546 4.548 4.548 0 0 1 4.55 4.546 4.548 4.548 0 0 1-4.55 4.547"/><rect width="20" height="6" x="10" y="21" fill="#EBEBEB" rx="3"/></g></g></svg>