<svg xmlns="http://www.w3.org/2000/svg" width="90" height="97" viewBox="0 0 90 97"><g fill="none" fill-rule="evenodd"><path fill="#F0AF2B" d="M44.343 67.417H15.348v20.475l7.552-3.421h13.937l7.552 3.421V72.203l-.046-4.786"/><path fill="#F0AF2B" d="M29.868 67.417h-14.52v20.475l7.552-3.421h6.968V67.417"/><path fill="#F9CA4E" d="M22.9 63.5v29.002l6.968.94 6.969 3.153V63.507L22.9 63.5"/><path fill="#FCE09B" d="M29.868 63.5H22.9v33.095l6.968-3.153V63.5"/><path fill="#F0AF2B" d="M0 46.447l4.346-8.305 1.357-9.271 8.396-4.16L20.636 18l9.232 1.587L39.1 18l6.537 6.712 8.396 4.159 1.357 9.27 4.347 8.306-4.347 8.298-1.357 9.277-8.396 4.153-6.537 6.718-9.232-1.586-9.232 1.586-6.537-6.718-8.396-4.153-1.357-9.277L0 46.447"/><path fill="#F9CA4E" d="M29.868 19.587L20.636 18 14.1 24.712 5.703 28.87l-1.357 9.27L0 46.448l4.346 8.298 1.357 9.277 8.396 4.153 6.537 6.718 9.232-1.586v-53.72"/><path fill="#F9CA4E" d="M29.868 23.85c12.466 0 22.57 10.12 22.57 22.597 0 12.476-10.104 22.596-22.57 22.596-12.465 0-22.57-10.12-22.57-22.596 0-12.477 10.105-22.597 22.57-22.597"/><path fill="#CB3637" d="M29.868 29.589c-9.283 0-16.836 7.56-16.836 16.858 0 9.29 7.553 16.85 16.836 16.85 9.283 0 16.836-7.56 16.836-16.85 0-9.298-7.553-16.858-16.836-16.858"/><path fill="#FCE09B" d="M29.868 23.85c-12.465 0-22.57 10.12-22.57 22.597 0 12.476 10.105 22.596 22.57 22.596V23.85"/><path fill="#DD5B5A" d="M29.868 29.589c-9.283 0-16.836 7.56-16.836 16.858 0 9.29 7.553 16.85 16.836 16.85V29.59"/><g transform="translate(49)"><g fill="#000" opacity=".1"><path d="M40 18a1 1 0 1 1 0 2 1 1 0 0 1 0-2M40 25a1 1 0 1 1 .001 1.999A1 1 0 0 1 40 25M40 31a1 1 0 1 1 .001 1.999A1 1 0 0 1 40 31M40 12a1 1 0 1 1 0 2 1 1 0 0 1 0-2M40 0a1 1 0 1 1 0 2 1 1 0 0 1 0-2M40 6a1 1 0 1 1 .001 1.999A1 1 0 0 1 40 6M28 18a1 1 0 1 1 0 2 1 1 0 0 1 0-2M28 25a1 1 0 1 1 0 2 1 1 0 0 1 0-2M28 31a1 1 0 1 1 0 2 1 1 0 0 1 0-2M28 12a1 1 0 1 1 0 2.001A1 1 0 0 1 28 12M28 0a1 1 0 1 1 0 2 1 1 0 0 1 0-2M28 6a1 1 0 1 1 0 2 1 1 0 0 1 0-2M34 18a1 1 0 1 1 0 1.999A1 1 0 0 1 34 18M34 25a1 1 0 1 1 .001 1.998 1 1 0 0 1 0-1.998M34 31a1 1 0 1 1 .001 1.998 1 1 0 0 1 0-1.998M34 12a1 1 0 1 1 0 2 1 1 0 0 1 0-2M34 0a1 1 0 1 1 0 1.999A1 1 0 0 1 34 0M34 6a1 1 0 1 1 .001 1.998 1 1 0 0 1 0-1.998M15 18a1 1 0 1 1 0 1.999A1 1 0 0 1 15 18M15 25a1 1 0 1 1 .001 1.998 1 1 0 0 1 0-1.998M15 31a1 1 0 1 1 .001 1.998 1 1 0 0 1 0-1.998M15 12a1 1 0 1 1 0 2 1 1 0 0 1 0-2M15 0a1 1 0 1 1 0 1.999A1 1 0 0 1 15 0M15 6a1 1 0 1 1 .001 1.998 1 1 0 0 1 0-1.998M22 18a1 1 0 1 1 0 2 1 1 0 0 1 0-2M22 25a1 1 0 1 1 .001 1.999A1 1 0 0 1 22 25M22 31a1 1 0 1 1 .001 1.999A1 1 0 0 1 22 31M22 12a1 1 0 1 1 0 2 1 1 0 0 1 0-2M22 0a1 1 0 1 1 0 2 1 1 0 0 1 0-2M22 6a1 1 0 1 1 .001 1.999A1 1 0 0 1 22 6M1 18a1 1 0 1 1 0 1.999A1 1 0 0 1 1 18M1 25a1 1 0 1 1 .001 1.998 1 1 0 0 1 0-1.998M1 31a1 1 0 1 1 .001 1.998 1 1 0 0 1 0-1.998M1 12a1 1 0 1 1 0 2 1 1 0 0 1 0-2M1 0a1 1 0 1 1 0 1.999A1 1 0 0 1 1 0M1 6a1 1 0 1 1 .001 1.998 1 1 0 0 1 0-1.998M8 18a1 1 0 1 1 0 2 1 1 0 0 1 0-2M8 25a1 1 0 1 1 0 2 1 1 0 0 1 0-2M8 31a1 1 0 1 1 0 2 1 1 0 0 1 0-2M8 12a1 1 0 1 1 0 2.001A1 1 0 0 1 8 12M8 0a1 1 0 1 1 0 2 1 1 0 0 1 0-2M8 6a1 1 0 1 1 0 2 1 1 0 0 1 0-2M40 44a1 1 0 1 1 .001 1.999A1 1 0 0 1 40 44M40 38a1 1 0 1 1 .001 1.999A1 1 0 0 1 40 38M28 44a1 1 0 1 1 0 2 1 1 0 0 1 0-2M28 38a1 1 0 1 1 0 2 1 1 0 0 1 0-2M34 44a1 1 0 1 1 .001 1.998 1 1 0 0 1 0-1.998M34 38a1 1 0 1 1 .001 1.998 1 1 0 0 1 0-1.998M15 44a1 1 0 1 1 .001 1.998 1 1 0 0 1 0-1.998M15 38a1 1 0 1 1 .001 1.998 1 1 0 0 1 0-1.998M22 44a1 1 0 1 1 .001 1.999A1 1 0 0 1 22 44M22 38a1 1 0 1 1 .001 1.999A1 1 0 0 1 22 38M1 44a1 1 0 1 1 .001 1.998 1 1 0 0 1 0-1.998M1 38a1 1 0 1 1 .001 1.998 1 1 0 0 1 0-1.998M8 44a1 1 0 1 1 0 2 1 1 0 0 1 0-2M8 38a1 1 0 1 1 0 2 1 1 0 0 1 0-2"/></g><circle cx="22.5" cy="12.5" r="1.5" fill="#F6B72C"/><circle cx="39.5" cy="25.5" r="1.5" fill="#F6B72C"/><circle cx="28" cy="32" r="1" fill="#F6B72C"/></g></g></svg>