<svg xmlns="http://www.w3.org/2000/svg" width="77" height="79" viewBox="0 0 77 79"><g fill="none" fill-rule="evenodd"><g transform="translate(36)"><g fill="#000" opacity=".1"><path d="M40 18a1 1 0 1 1 0 2 1 1 0 0 1 0-2M40 25a1 1 0 1 1 .001 1.999A1 1 0 0 1 40 25M40 31a1 1 0 1 1 .001 1.999A1 1 0 0 1 40 31M40 12a1 1 0 1 1 0 2 1 1 0 0 1 0-2M40 0a1 1 0 1 1 0 2 1 1 0 0 1 0-2M40 6a1 1 0 1 1 .001 1.999A1 1 0 0 1 40 6M28 18a1 1 0 1 1 0 2 1 1 0 0 1 0-2M28 25a1 1 0 1 1 0 2 1 1 0 0 1 0-2M28 31a1 1 0 1 1 0 2 1 1 0 0 1 0-2M28 12a1 1 0 1 1 0 2.001A1 1 0 0 1 28 12M28 0a1 1 0 1 1 0 2 1 1 0 0 1 0-2M28 6a1 1 0 1 1 0 2 1 1 0 0 1 0-2M34 18a1 1 0 1 1 0 1.999A1 1 0 0 1 34 18M34 25a1 1 0 1 1 .001 1.998 1 1 0 0 1 0-1.998M34 31a1 1 0 1 1 .001 1.998 1 1 0 0 1 0-1.998M34 12a1 1 0 1 1 0 2 1 1 0 0 1 0-2M34 0a1 1 0 1 1 0 1.999A1 1 0 0 1 34 0M34 6a1 1 0 1 1 .001 1.998 1 1 0 0 1 0-1.998M15 18a1 1 0 1 1 0 1.999A1 1 0 0 1 15 18M15 25a1 1 0 1 1 .001 1.998 1 1 0 0 1 0-1.998M15 31a1 1 0 1 1 .001 1.998 1 1 0 0 1 0-1.998M15 12a1 1 0 1 1 0 2 1 1 0 0 1 0-2M15 0a1 1 0 1 1 0 1.999A1 1 0 0 1 15 0M15 6a1 1 0 1 1 .001 1.998 1 1 0 0 1 0-1.998M22 18a1 1 0 1 1 0 2 1 1 0 0 1 0-2M22 25a1 1 0 1 1 .001 1.999A1 1 0 0 1 22 25M22 31a1 1 0 1 1 .001 1.999A1 1 0 0 1 22 31M22 12a1 1 0 1 1 0 2 1 1 0 0 1 0-2M22 0a1 1 0 1 1 0 2 1 1 0 0 1 0-2M22 6a1 1 0 1 1 .001 1.999A1 1 0 0 1 22 6M1 18a1 1 0 1 1 0 1.999A1 1 0 0 1 1 18M1 25a1 1 0 1 1 .001 1.998 1 1 0 0 1 0-1.998M1 31a1 1 0 1 1 .001 1.998 1 1 0 0 1 0-1.998M1 12a1 1 0 1 1 0 2 1 1 0 0 1 0-2M1 0a1 1 0 1 1 0 1.999A1 1 0 0 1 1 0M1 6a1 1 0 1 1 .001 1.998 1 1 0 0 1 0-1.998M8 18a1 1 0 1 1 0 2 1 1 0 0 1 0-2M8 25a1 1 0 1 1 0 2 1 1 0 0 1 0-2M8 31a1 1 0 1 1 0 2 1 1 0 0 1 0-2M8 12a1 1 0 1 1 0 2.001A1 1 0 0 1 8 12M8 0a1 1 0 1 1 0 2 1 1 0 0 1 0-2M8 6a1 1 0 1 1 0 2 1 1 0 0 1 0-2M40 44a1 1 0 1 1 .001 1.999A1 1 0 0 1 40 44M40 38a1 1 0 1 1 .001 1.999A1 1 0 0 1 40 38M28 44a1 1 0 1 1 0 2 1 1 0 0 1 0-2M28 38a1 1 0 1 1 0 2 1 1 0 0 1 0-2M34 44a1 1 0 1 1 .001 1.998 1 1 0 0 1 0-1.998M34 38a1 1 0 1 1 .001 1.998 1 1 0 0 1 0-1.998M15 44a1 1 0 1 1 .001 1.998 1 1 0 0 1 0-1.998M15 38a1 1 0 1 1 .001 1.998 1 1 0 0 1 0-1.998M22 44a1 1 0 1 1 .001 1.999A1 1 0 0 1 22 44M22 38a1 1 0 1 1 .001 1.999A1 1 0 0 1 22 38M1 44a1 1 0 1 1 .001 1.998 1 1 0 0 1 0-1.998M1 38a1 1 0 1 1 .001 1.998 1 1 0 0 1 0-1.998M8 44a1 1 0 1 1 0 2 1 1 0 0 1 0-2M8 38a1 1 0 1 1 0 2 1 1 0 0 1 0-2"/></g><circle cx="22.5" cy="12.5" r="1.5" fill="#F6B72C"/><circle cx="39.5" cy="25.5" r="1.5" fill="#F6B72C"/><circle cx="28" cy="32" r="1" fill="#F6B72C"/></g><path fill="#F6BF3E" d="M35.297 58.931h-4.201V45.29c0-.723-.294-1.135-1.011-1.135h-5.207c-.723 0-1.116.412-1.116 1.135V58.93h-4.096c-2.153 0-4.285 2.006-4.285 4.18v2.623c0 2.169 2.132 3.752 4.285 3.752h15.63c2.153 0 4.18-1.583 4.18-3.752V63.11c0-2.174-2.027-4.18-4.18-4.18"/><path fill="#E4A530" d="M35.297 58.931h-4.201V45.29c0-.723-.294-1.135-1.011-1.135h-5.207c-.723 0-1.116.412-1.116 1.135v1.504H26.8c.718 0 1.153.527 1.153 1.256v14.049h4.06c2.152 0 4.32 1.599 4.32 3.768v2.628c0 .406-.136.808-.261 1.182 1.906-.285 3.405-1.963 3.405-3.942V63.11c0-2.174-2.028-4.18-4.18-4.18"/><path fill="#71716E" d="M41.807 63.111H13.155c-.723 0-1.304.586-1.304 1.309v13.125a1.31 1.31 0 0 0 1.304 1.314h28.652c.718 0 1.3-.59 1.3-1.314V64.42c0-.723-.582-1.309-1.3-1.309"/><path fill="#E4A530" d="M42.504 43.426c-.513 0-1-.307-1.21-.818a1.322 1.322 0 0 1 .718-1.71c5.034-2.064 8.281-5.948 9.664-11.542.707-2.871.718-5.494.65-6.925H44.41a1.31 1.31 0 0 1-1.304-1.314 1.31 1.31 0 0 1 1.304-1.31h9.114c.655 0 1.205.482 1.294 1.13.02.17.56 4.202-.592 8.962-1.556 6.407-5.437 11.051-11.23 13.432a1.36 1.36 0 0 1-.493.095M12.464 43.426c-.168 0-.33-.032-.493-.095-5.793-2.38-9.68-7.025-11.23-13.432-1.158-4.76-.618-8.792-.597-8.962a1.313 1.313 0 0 1 1.293-1.13h9.115c.723 0 1.304.587 1.304 1.31 0 .729-.581 1.314-1.304 1.314H2.637c-.068 1.43-.058 4.054.655 6.925 1.377 5.594 4.625 9.478 9.659 11.542.67.274.99 1.04.717 1.71a1.295 1.295 0 0 1-1.204.818"/><path fill="#F6BF3E" d="M44.41 15.87H10.548c-.718 0-1.3.587-1.3 1.312v17.06c0 4.909 1.897 9.521 5.338 12.989 3.447 3.467 8.025 5.383 12.896 5.383 4.872 0 9.45-1.916 12.891-5.383 3.447-3.468 5.343-8.08 5.343-12.988V17.182a1.31 1.31 0 0 0-1.304-1.312"/><path fill="#E4A530" d="M44.41 15.87h-5.96c.717 0 1.299.587 1.299 1.312v17.06c0 13.675-9.193 18.013-13.572 18.324.43.032.864.048 1.304.048 4.872 0 9.45-1.916 12.891-5.383 3.447-3.468 5.343-8.08 5.343-12.988V17.182a1.31 1.31 0 0 0-1.304-1.312"/><path fill="#484846" d="M41.807 63.681h-7.443c.718 0 1.446.016 1.446.739v13.125c0 .723-.728 1.441-1.446 1.441h7.443c.718 0 .812-.718.812-1.44V64.42c0-.723-.094-.739-.812-.739"/><path fill="#FFFFFE" d="M18.807 22.416c-1.325-.745-2.284-2.343-2.787-3.37a.462.462 0 0 0-.833 0c-.508 1.027-1.466 2.625-2.786 3.37a.47.47 0 0 0 0 .823c1.32.75 2.278 2.348 2.786 3.372.173.349.66.349.833 0 .503-1.024 1.462-2.623 2.787-3.372a.47.47 0 0 0 0-.823"/><path fill="#BF8331" d="M34.072 30.929l-4.216-.599-1.884-3.738A1.086 1.086 0 0 0 27 26c-.413 0-.79.23-.972.592l-1.884 3.738-4.216.599a1.084 1.084 0 0 0-.876.723c-.125.384-.02.807.275 1.09l3.051 2.908-.72 4.108c-.07.398.096.801.432 1.04.333.237.777.268 1.142.08L27 38.938l3.771 1.94c.157.082.33.122.502.122.227 0 .451-.069.637-.203.336-.238.505-.64.435-1.04l-.723-4.107 3.051-2.909c.295-.282.4-.705.275-1.09a1.08 1.08 0 0 0-.876-.722z"/></g></svg>